<svg width="70" height="84" viewBox="0 0 70 84" fill="none" xmlns="http://www.w3.org/2000/svg">
<path d="M69.7978 59.0074L69.599 56.3299L69.5759 56.1559C69.0313 53.7629 68.3467 51.4021 67.5256 49.0848C67.2267 48.1806 66.9012 47.1906 66.5456 46.0851L66.5407 46.0776C65.3857 42.0805 62.4891 38.9386 59.2368 36.5528C59.2368 36.5202 59.2473 36.4882 59.2473 36.4542V9.83323C59.244 7.40312 58.2486 5.07347 56.4795 3.35512C54.7104 1.63678 52.3119 0.669986 49.8099 0.666748H22.008C20.0047 0.670468 18.0544 1.29246 16.4387 2.44293C14.823 3.5934 13.6256 5.21282 13.0193 7.06738C11.911 6.38795 10.6085 6.06954 9.30119 6.15844C7.99384 6.24733 6.74975 6.73889 5.74976 7.56167C5.10553 8.10476 4.57924 8.76715 4.20162 9.5101C3.82401 10.253 3.60267 11.0617 3.55053 11.8887C3.49839 12.7157 3.6165 13.5445 3.89796 14.3266C4.17942 15.1088 4.61857 15.8286 5.18976 16.4439L5.50896 16.8138C4.28866 16.9345 3.13375 17.4082 2.19375 18.1736C-0.506151 20.3779 -0.746252 24.2778 1.65265 27.0661L12.5797 39.4098V39.796C9.84966 38.2281 6.89636 38.1921 4.82926 39.8796C4.20584 40.3872 3.69238 41.0099 3.31867 41.7117C2.94497 42.4135 2.71845 43.1804 2.65225 43.9679C2.51128 45.783 3.11807 47.5783 4.33926 48.9591L12.5797 57.7917V66.6305C12.5817 69.0597 13.5756 71.3889 15.3434 73.1073C17.1111 74.8257 19.5084 75.793 22.0094 75.797H27.3581C31.5336 81.0322 38.6134 83.9993 45.6043 83.9993C48.8308 84.0222 52.0221 83.3487 54.9479 82.0276L57.9929 80.6216C67.0041 76.4551 70.9759 69.1862 69.7978 59.0074ZM46.4947 30.4248C42.9205 28.8971 39.7831 29.6565 37.6474 32.5693C35.483 35.5357 36.3125 39.6049 39.5374 41.8343L39.7628 41.9615C43.4014 43.6581 46.9031 45.6186 50.2383 47.8263C51.1735 51.7303 52.6623 55.4891 54.6623 58.9951H15.4469V11.121C15.4651 11.121 15.4826 11.1271 15.5022 11.1271H56.3822V34.679C53.2767 32.8759 49.9563 31.4473 46.4947 30.4248ZM22.008 3.45232H49.8099C51.2837 3.45533 52.7139 3.93884 53.871 4.82537C55.0282 5.71189 55.8455 6.95009 56.1918 8.34152H15.6352C15.9795 6.95069 16.7949 5.71257 17.9506 4.82592C19.1063 3.93927 20.5352 3.45551 22.008 3.45232ZM7.58796 9.69725C8.2095 9.19039 8.99792 8.91743 9.80941 8.92816C10.6209 8.93889 11.4014 9.23261 12.0085 9.75572C12.2135 9.9208 12.4034 10.1028 12.5762 10.2996V20.6532L11.2994 19.1901L11.2609 19.15L7.38776 14.6558C6.00666 13.0539 6.09276 10.919 7.59006 9.69725H7.58796ZM3.84226 25.2657C2.45905 23.6605 2.54585 21.5262 4.03826 20.3106C5.53066 19.0949 7.69856 19.3764 9.08807 20.9633L9.71387 21.6908C9.73207 21.7119 9.75517 21.7268 9.77547 21.7479L12.5818 24.9618V35.1373L3.84226 25.2657ZM6.50226 47.1287C5.7903 46.3213 5.43467 45.2738 5.51246 44.2133C5.54464 43.7907 5.66375 43.3787 5.86273 43.0016C6.06172 42.6245 6.33655 42.29 6.67096 42.0179C8.25296 40.7261 10.7954 41.6569 12.579 43.2682V53.6443L6.50226 47.1287ZM15.4525 66.6271V61.7807H56.3794V66.6271C56.3767 68.3186 55.6836 69.94 54.4522 71.1361C53.2208 72.3321 51.5514 73.0053 49.8099 73.008H22.008C20.2674 73.0049 18.5991 72.3314 17.3691 71.1352C16.1391 69.939 15.4478 68.3177 15.4469 66.6271H15.4525ZM56.7623 78.1012L53.7173 79.5072C46.4443 82.8646 36.8942 81.1485 31.2172 75.7936H49.8085C52.3105 75.7903 54.709 74.8235 56.4781 73.1052C58.2472 71.3868 59.2426 69.0572 59.2459 66.6271V61.3734C59.2439 61.3026 59.2371 61.232 59.2256 61.162C59.2571 60.9671 59.2454 60.768 59.1912 60.5779C59.1369 60.3879 59.0415 60.2112 58.9113 60.0599C58.8035 59.9341 58.7013 59.7961 58.597 59.6648C58.5372 59.5674 58.4653 59.4774 58.3828 59.397C54.6469 54.5581 52.9389 46.7983 52.9228 46.7154L52.8073 46.1837L52.3558 45.8689C48.7882 43.4533 45.0251 41.3223 41.1033 39.4968C39.2343 38.137 38.7534 35.8743 39.9868 34.182C41.3315 32.3463 43.0563 31.973 45.4174 33.0064L45.6211 33.0785C45.7751 33.1186 61.0946 37.3898 63.796 46.8684L63.8051 46.8908L63.81 46.9105C64.1663 48.0249 64.4946 49.0182 64.7935 49.9313C65.5717 52.1227 66.2239 54.3544 66.7472 56.6161L66.9936 59.9361C66.9936 59.9572 67.009 59.9749 67.0104 59.9946C67.8042 68.6172 64.454 74.5487 56.7623 78.1012Z" fill="#A02167"/>
<path d="M31.5493 39.9545L30.4398 40.3237C30.1366 40.4193 29.8788 40.6174 29.7133 40.882C29.5479 41.1467 29.4858 41.4602 29.5384 41.7656C29.5909 42.071 29.7547 42.3479 29.9998 42.5458C30.2449 42.7438 30.5551 42.8496 30.8738 42.8441C31.0209 42.8453 31.1671 42.8223 31.3064 42.7761L32.4138 42.4022C32.748 42.2908 33.0229 42.0551 33.1781 41.7469C33.3334 41.4386 33.3562 41.0831 33.2415 40.7585C33.1269 40.4339 32.8842 40.1669 32.5668 40.0161C32.2495 39.8653 31.8835 39.8432 31.5493 39.9545Z" fill="#A02167"/>
<path d="M31.1523 36.8239C31.4954 36.8368 31.8304 36.7202 32.087 36.4986C32.3437 36.2771 32.5022 35.9676 32.5293 35.6351C32.5564 35.3026 32.4501 34.9728 32.2326 34.7148C32.0151 34.4567 31.7032 34.2903 31.3623 34.2505L29.8692 34.0207C29.5199 33.9666 29.1629 34.0494 28.8766 34.251C28.5903 34.4526 28.3981 34.7564 28.3425 35.0956C28.2868 35.4348 28.3721 35.7816 28.5796 36.0597C28.7872 36.3378 29.0999 36.5244 29.4492 36.5785L30.9416 36.811C31.0113 36.8208 31.0818 36.8251 31.1523 36.8239Z" fill="#A02167"/>
<path d="M43.8019 23.5492C43.6261 23.5389 43.45 23.5632 43.2841 23.6205C43.1183 23.6779 42.966 23.7671 42.8365 23.883C42.7069 23.9988 42.6028 24.1389 42.5303 24.2947C42.4578 24.4506 42.4184 24.619 42.4145 24.79L42.3655 25.9275C42.3512 26.2706 42.4778 26.6053 42.7173 26.8579C42.9568 27.1105 43.2897 27.2606 43.643 27.2751H43.699C44.0428 27.2753 44.3734 27.1462 44.6213 26.9149C44.8693 26.6836 45.0154 26.3679 45.029 26.0342L45.078 24.8967C45.0857 24.7268 45.0587 24.557 44.9987 24.3972C44.9387 24.2374 44.8467 24.0907 44.7281 23.9655C44.6096 23.8403 44.4667 23.739 44.3078 23.6676C44.1488 23.5961 43.9769 23.5559 43.8019 23.5492Z" fill="#A02167"/>
<path d="M38.4321 24.9144C38.2799 24.6046 38.0072 24.3662 37.674 24.2517C37.3409 24.1372 36.9745 24.156 36.6555 24.3038C36.3366 24.4517 36.0912 24.7166 35.9733 25.0402C35.8554 25.3638 35.8747 25.7197 36.0269 26.0294L36.6793 27.358C36.8314 27.668 37.104 27.9066 37.4372 28.0213C37.7703 28.1361 38.1368 28.1176 38.4559 27.9699C38.7751 27.8222 39.0207 27.5574 39.1389 27.2338C39.257 26.9102 39.238 26.5543 39.0859 26.2443L38.4321 24.9144Z" fill="#A02167"/>
<path d="M33.7612 28.9909L32.5985 28.1709C32.4569 28.071 32.2965 27.9992 32.1263 27.9595C31.9562 27.9198 31.7797 27.9131 31.6068 27.9396C31.434 27.9662 31.2682 28.0256 31.119 28.1144C30.9698 28.2032 30.8401 28.3197 30.7372 28.4572C30.6343 28.5947 30.5604 28.7505 30.5195 28.9158C30.4786 29.081 30.4717 29.2525 30.4991 29.4204C30.5264 29.5883 30.5876 29.7493 30.679 29.8942C30.7704 30.0391 30.8903 30.1651 31.0319 30.265L32.1967 31.085C32.3382 31.1853 32.4987 31.2575 32.669 31.2973C32.8393 31.3372 33.0161 31.344 33.1891 31.3173C33.3621 31.2907 33.528 31.2311 33.6772 31.142C33.8265 31.0529 33.9561 30.936 34.0587 30.7981C34.1616 30.6606 34.2356 30.5046 34.2764 30.3393C34.3171 30.1739 34.3239 30.0024 34.2963 29.8345C34.2686 29.6666 34.2071 29.5057 34.1153 29.3609C34.0235 29.2161 33.9032 29.0904 33.7612 28.9909Z" fill="#A02167"/>
<path d="M38.7999 65.043H35.2453C34.8917 65.043 34.5526 65.1794 34.3026 65.4222C34.0526 65.6651 33.9121 65.9944 33.9121 66.3378C33.9121 66.6813 34.0526 67.0106 34.3026 67.2535C34.5526 67.4963 34.8917 67.6327 35.2453 67.6327H38.8006C39.1541 67.6327 39.4932 67.4963 39.7432 67.2535C39.9933 67.0106 40.1337 66.6813 40.1337 66.3378C40.1337 65.9944 39.9933 65.6651 39.7432 65.4222C39.4932 65.1794 39.1541 65.043 38.8006 65.043H38.7999Z" fill="#A02167"/>
</svg>
