<svg width="70" height="84" viewBox="0 0 70 84" fill="none" xmlns="http://www.w3.org/2000/svg">
<path d="M69.7515 6.56297L64.0759 0.908314C63.9094 0.754296 63.6906 0.668701 63.4634 0.668701C63.2362 0.668701 63.0174 0.754296 62.8509 0.908314L57.7709 5.96946L52.6889 0.906222C52.5226 0.752299 52.304 0.666748 52.077 0.666748C51.8501 0.666748 51.6315 0.752299 51.4652 0.906222L46.3881 5.96946L41.3088 0.908314C41.1425 0.754391 40.924 0.66884 40.697 0.66884C40.47 0.66884 40.2515 0.754391 40.0852 0.908314L35.0031 5.97156L29.9246 0.908314C29.7578 0.754352 29.5388 0.668816 29.3114 0.668816C29.084 0.668816 28.865 0.754352 28.6982 0.908314L23.6189 5.96946L18.5355 0.906222C18.3692 0.752299 18.1506 0.666748 17.9236 0.666748C17.6967 0.666748 17.4781 0.752299 17.3118 0.906222L12.2298 5.96946L7.14912 0.906222C6.98285 0.752299 6.76429 0.666748 6.53732 0.666748C6.31035 0.666748 6.09178 0.752299 5.92551 0.906222L0.250542 6.56297C0.0904803 6.72273 0.000385308 6.93911 -6.10352e-05 7.16484V77.4944C0.000385308 77.7201 0.0904803 77.9365 0.250542 78.0963L5.92551 83.7516C6.09178 83.9055 6.31035 83.9911 6.53732 83.9911C6.76429 83.9911 6.98285 83.9055 7.14912 83.7516L12.2298 78.6884L17.3118 83.7516C17.4781 83.9055 17.6967 83.9911 17.9236 83.9911C18.1506 83.9911 18.3692 83.9055 18.5355 83.7516L23.6189 78.6884L28.6975 83.7516C28.8643 83.9056 29.0833 83.9911 29.3107 83.9911C29.5381 83.9911 29.7571 83.9056 29.9239 83.7516L35.0024 78.6884L40.0845 83.7516C40.2508 83.9055 40.4693 83.9911 40.6963 83.9911C40.9233 83.9911 41.1418 83.9055 41.3081 83.7516L46.3867 78.6933L51.4638 83.7516C51.6301 83.9055 51.8487 83.9911 52.0756 83.9911C52.3026 83.9911 52.5212 83.9055 52.6875 83.7516L57.7695 78.6884L62.8502 83.7516C62.9293 83.8305 63.0232 83.893 63.1267 83.9357C63.2301 83.9783 63.341 84.0001 63.4529 83.9999H63.4718C63.584 83.9999 63.6951 83.9779 63.7988 83.935C63.9025 83.8922 63.9966 83.8294 64.0759 83.7502L69.7508 78.0949C69.9105 77.9355 70.0001 77.7195 70.0001 77.4944V7.16414C70.0001 6.93892 69.9108 6.72281 69.7515 6.56297ZM68.2927 77.1415L63.4627 81.9537L58.3806 76.8904C58.2147 76.7365 57.9963 76.6508 57.7695 76.6508C57.5427 76.6508 57.3244 76.7365 57.1584 76.8904L52.0749 81.9537L46.9943 76.8904C46.8301 76.7314 46.6101 76.6423 46.3811 76.6422C46.1547 76.6421 45.9375 76.7313 45.777 76.8904L40.6963 81.9537L35.6157 76.8904C35.4494 76.7365 35.2308 76.651 35.0038 76.651C34.7769 76.651 34.5583 76.7365 34.392 76.8904L29.3086 81.9537L24.2279 76.8904C24.0614 76.7364 23.8426 76.6508 23.6154 76.6508C23.3882 76.6508 23.1694 76.7364 23.0029 76.8904L17.9243 81.9537L12.8409 76.8904C12.6749 76.7365 12.4566 76.6508 12.2298 76.6508C12.003 76.6508 11.7846 76.7365 11.6187 76.8904L6.53661 81.9537L1.70656 77.1415V7.51633L6.53661 2.70416L11.618 7.76461C11.7839 7.91859 12.0023 8.0042 12.2291 8.0042C12.4559 8.0042 12.6742 7.91859 12.8402 7.76461L17.925 2.70486L23.0036 7.76461C23.1701 7.91863 23.3889 8.00423 23.6161 8.00423C23.8433 8.00423 24.0621 7.91863 24.2286 7.76461L29.3093 2.70486L34.3927 7.76461C34.559 7.91854 34.7776 8.00409 35.0045 8.00409C35.2315 8.00409 35.4501 7.91854 35.6164 7.76461L40.697 2.70486L45.7784 7.76461C45.9437 7.91851 46.1615 8.00412 46.3877 8.00412C46.614 8.00412 46.8318 7.91851 46.9971 7.76461L52.0784 2.70486L57.1605 7.76461C57.3268 7.91854 57.5453 8.00409 57.7723 8.00409C57.9993 8.00409 58.2178 7.91854 58.3841 7.76461L63.4662 2.70486L68.2962 7.51703V77.1401L68.2927 77.1415ZM62.3882 15.8553H7.61253C7.38622 15.8553 7.16917 15.9449 7.00915 16.1043C6.84912 16.2638 6.75922 16.48 6.75922 16.7055V32.4134C6.75903 32.5251 6.78098 32.6357 6.8238 32.739C6.86661 32.8422 6.92946 32.936 7.00874 33.015C7.08801 33.0939 7.18215 33.1566 7.28576 33.1992C7.38937 33.2419 7.50042 33.2637 7.61253 33.2635H62.3882C62.5003 33.2637 62.6113 33.2419 62.7149 33.1992C62.8185 33.1566 62.9127 33.0939 62.992 33.015C63.0712 32.936 63.1341 32.8422 63.1769 32.739C63.2197 32.6357 63.2417 32.5251 63.2415 32.4134V16.7097C63.242 16.5977 63.2204 16.4867 63.1777 16.3831C63.1351 16.2794 63.0723 16.1852 62.993 16.1058C62.9137 16.0264 62.8195 15.9634 62.7157 15.9205C62.6119 15.8775 62.5006 15.8553 62.3882 15.8553ZM61.5342 31.5646H8.46794V17.5577H61.5342V31.5646ZM63.2408 39.7014C63.2408 39.927 63.1509 40.1434 62.9909 40.303C62.8309 40.4627 62.6139 40.5526 62.3875 40.5529H7.61253C7.38594 40.5529 7.16863 40.4633 7.0084 40.3036C6.84818 40.144 6.75817 39.9275 6.75817 39.7017C6.75817 39.476 6.84818 39.2595 7.0084 39.0999C7.16863 38.9402 7.38594 38.8506 7.61253 38.8506H62.3882C62.5004 38.8504 62.6116 38.8723 62.7153 38.915C62.819 38.9578 62.9132 39.0205 62.9925 39.0996C63.0717 39.1788 63.1346 39.2727 63.1773 39.3761C63.22 39.4795 63.2418 39.5903 63.2415 39.7021L63.2408 39.7014ZM63.2408 46.5068C63.2408 46.6184 63.2187 46.7288 63.1758 46.8319C63.1329 46.935 63.07 47.0286 62.9908 47.1074C62.9115 47.1863 62.8174 47.2488 62.7139 47.2913C62.6104 47.3339 62.4995 47.3557 62.3875 47.3555H7.61253C7.38622 47.3555 7.16917 47.266 7.00915 47.1065C6.84912 46.9471 6.75922 46.7309 6.75922 46.5054C6.75922 46.2799 6.84912 46.0637 7.00915 45.9043C7.16917 45.7448 7.38622 45.6552 7.61253 45.6552H62.3882C62.5004 45.6552 62.6115 45.6773 62.7152 45.7202C62.8189 45.763 62.913 45.8258 62.9923 45.905C63.0716 45.9842 63.1344 46.0781 63.1771 46.1815C63.2199 46.2849 63.2418 46.3957 63.2415 46.5075L63.2408 46.5068ZM63.2408 53.3108C63.2408 53.5361 63.151 53.7523 62.9911 53.9117C62.8312 54.0711 62.6144 54.1607 62.3882 54.1609H7.61253C7.3864 54.1609 7.16954 54.0714 7.00964 53.9121C6.84975 53.7528 6.75992 53.5368 6.75992 53.3115C6.75992 53.0862 6.84975 52.8701 7.00964 52.7108C7.16954 52.5515 7.3864 52.462 7.61253 52.462H62.3882C62.5002 52.4618 62.6112 52.4837 62.7148 52.5263C62.8183 52.5689 62.9124 52.6315 62.9917 52.7104C63.071 52.7893 63.1338 52.883 63.1767 52.9861C63.2196 53.0893 63.2416 53.1998 63.2415 53.3115L63.2408 53.3108ZM63.2408 60.1176C63.2408 60.2291 63.2187 60.3396 63.1758 60.4427C63.1329 60.5458 63.07 60.6394 62.9908 60.7182C62.9115 60.7971 62.8174 60.8595 62.7139 60.9021C62.6104 60.9447 62.4995 60.9665 62.3875 60.9663H7.61253C7.38622 60.9663 7.16917 60.8768 7.00915 60.7173C6.84912 60.5579 6.75922 60.3416 6.75922 60.1162C6.75922 59.8907 6.84912 59.6745 7.00915 59.515C7.16917 59.3556 7.38622 59.266 7.61253 59.266H62.3882C62.5004 59.266 62.6115 59.2881 62.7152 59.3309C62.8189 59.3738 62.913 59.4366 62.9923 59.5158C63.0716 59.5949 63.1344 59.6889 63.1771 59.7923C63.2199 59.8957 63.2418 60.0064 63.2415 60.1183L63.2408 60.1176ZM63.2408 66.923C63.2408 67.0345 63.2187 67.145 63.1758 67.2481C63.1329 67.3512 63.07 67.4448 62.9908 67.5236C62.9115 67.6024 62.8174 67.6649 62.7139 67.7075C62.6104 67.7501 62.4995 67.7719 62.3875 67.7717H34.9982C34.7719 67.7717 34.5549 67.6821 34.3949 67.5227C34.2348 67.3633 34.1449 67.147 34.1449 66.9216C34.1449 66.6961 34.2348 66.4799 34.3949 66.3204C34.5549 66.161 34.7719 66.0714 34.9982 66.0714H62.3882C62.5004 66.0714 62.6115 66.0935 62.7152 66.1363C62.8189 66.1792 62.913 66.242 62.9923 66.3212C63.0716 66.4003 63.1344 66.4943 63.1771 66.5977C63.2199 66.7011 63.2418 66.8118 63.2415 66.9237L63.2408 66.923Z" fill="#A02167"/>
</svg>
