<svg width="70" height="84" viewBox="0 0 70 84" fill="none" xmlns="http://www.w3.org/2000/svg">
<path d="M7.95405 83.9999C6.38087 83.9999 4.84303 83.5334 3.53498 82.6594C2.22694 81.7854 1.20744 80.5431 0.605413 79.0897C0.00338522 77.6363 -0.154132 76.037 0.152778 74.494C0.459689 72.9511 1.21724 71.5338 2.32965 70.4214C3.44205 69.309 4.85933 68.5514 6.40228 68.2445C7.94522 67.9376 9.54453 68.0951 10.998 68.6971C12.4514 69.2992 13.6936 70.3187 14.5676 71.6267C15.4417 72.9348 15.9082 74.4726 15.9082 76.0458C15.9057 78.1546 15.067 80.1764 13.5758 81.6675C12.0846 83.1587 10.0629 83.9975 7.95405 83.9999ZM7.95405 71.2739C7.01025 71.2739 6.08766 71.5537 5.30292 72.0781C4.51818 72.6024 3.90656 73.3477 3.54538 74.2197C3.18421 75.0916 3.08971 76.0511 3.27383 76.9767C3.45796 77.9024 3.91244 78.7527 4.5798 79.42C5.24716 80.0874 6.09744 80.5419 7.0231 80.726C7.94875 80.9101 8.90822 80.8156 9.78017 80.4544C10.6521 80.0933 11.3974 79.4816 11.9217 78.6969C12.4461 77.9122 12.726 76.9896 12.726 76.0458C12.7243 74.7807 12.221 73.5679 11.3265 72.6734C10.4319 71.7788 9.21912 71.2755 7.95405 71.2739Z" fill="#A02167"/>
<path d="M62.0459 16.575C60.4728 16.575 58.9349 16.1085 57.6269 15.2345C56.3188 14.3604 55.2993 13.1182 54.6973 11.6648C54.0953 10.2113 53.9378 8.61203 54.2447 7.06909C54.5516 5.52614 55.3091 4.10886 56.4215 2.99646C57.5339 1.88405 58.9512 1.1265 60.4942 0.819587C62.0371 0.512677 63.6364 0.670195 65.0898 1.27222C66.5433 1.87425 67.7855 2.89375 68.6595 4.20179C69.5335 5.50984 70 7.04768 70 8.62086C69.9976 10.7297 69.1588 12.7514 67.6677 14.2426C66.1765 15.7338 64.1548 16.5726 62.0459 16.575ZM62.0459 3.84895C61.1021 3.84895 60.1795 4.12882 59.3948 4.65316C58.6101 5.17751 57.9984 5.92278 57.6373 6.79473C57.2761 7.66668 57.1816 8.62615 57.3657 9.55181C57.5498 10.4775 58.0043 11.3277 58.6717 11.9951C59.3391 12.6625 60.1893 13.1169 61.115 13.3011C62.0406 13.4852 63.0001 13.3907 63.8721 13.0295C64.744 12.6683 65.4893 12.0567 66.0136 11.272C66.538 10.4872 66.8178 9.56465 66.8178 8.62086C66.8162 7.35578 66.3129 6.143 65.4183 5.24845C64.5238 4.35391 63.311 3.85062 62.0459 3.84895Z" fill="#A02167"/>
<path d="M35.0001 50.2877C33.427 50.2877 31.8891 49.8212 30.5811 48.9472C29.273 48.0732 28.2535 46.831 27.6515 45.3775C27.0495 43.9241 26.8919 42.3248 27.1989 40.7819C27.5058 39.2389 28.2633 37.8216 29.3757 36.7092C30.4881 35.5968 31.9054 34.8393 33.4484 34.5324C34.9913 34.2254 36.5906 34.383 38.044 34.985C39.4975 35.587 40.7397 36.6065 41.6137 37.9146C42.4877 39.2226 42.9542 40.7605 42.9542 42.3336C42.9518 44.4424 42.113 46.4642 40.6219 47.9554C39.1307 49.4465 37.1089 50.2853 35.0001 50.2877ZM35.0001 37.5617C34.0563 37.5617 33.1337 37.8416 32.349 38.3659C31.5643 38.8903 30.9526 39.6355 30.5915 40.5075C30.2303 41.3794 30.1358 42.3389 30.3199 43.2646C30.504 44.1902 30.9585 45.0405 31.6259 45.7079C32.2932 46.3752 33.1435 46.8297 34.0692 47.0138C34.9948 47.198 35.9543 47.1035 36.8263 46.7423C37.6982 46.3811 38.4435 45.7695 38.9678 44.9848C39.4922 44.2 39.772 43.2774 39.772 42.3336C39.7707 41.0683 39.2676 39.8552 38.373 38.9603C37.4784 38.0655 36.2654 37.562 35.0001 37.5603V37.5617Z" fill="#A02167"/>
<path d="M9.54433 2.25818H6.36282V59.5245H9.54433V2.25818Z" fill="#A02167"/>
<path d="M36.5911 2.25818H33.4096V27.7102H36.5911V2.25818Z" fill="#A02167"/>
<path d="M36.5911 56.9573H33.4096V82.4093H36.5911V56.9573Z" fill="#A02167"/>
<path d="M63.6372 25.1421H60.4557V82.4084H63.6372V25.1421Z" fill="#A02167"/>
</svg>
