<svg
        viewBox="0 0 50 50"
        fill="none"
        xmlns="http://www.w3.org/2000/svg"
       
      >
        <path
          d="M26.543 17.242A7.91 7.91 0 0025 17.09c-4.362 0-7.91 3.548-7.91 7.91s3.548 7.91 7.91 7.91 7.91-3.548 7.91-7.91a7.91 7.91 0 00-.152-1.543l-4.65 4.65A4.366 4.366 0 0125 29.396a4.366 4.366 0 01-3.108-1.287A4.366 4.366 0 0120.605 25c0-1.174.457-2.277 1.287-3.108l4.651-4.65z"
          fill="#A02167"
        />
        <path
          d="M47.763 14.667l-3.152 3.152a4.404 4.404 0 01-1.055.78A19.55 19.55 0 0144.63 25c0 10.823-8.806 19.629-19.629 19.629-10.823 0-19.629-8.806-19.629-19.629C5.371 14.177 14.177 5.371 25 5.371c2.241 0 4.396.379 6.404 1.074.203-.385.463-.742.778-1.056l3.151-3.152A24.853 24.853 0 0025 0C11.215 0 0 11.215 0 25s11.215 25 25 25 25-11.215 25-25c0-3.683-.801-7.182-2.237-10.333z"
          fill="#A02167"
        />
        <path
          d="M31.222 12.563L30.955 9.4A16.605 16.605 0 0025 8.3C15.792 8.3 8.3 15.792 8.3 25c0 9.208 7.492 16.7 16.7 16.7 9.208 0 16.7-7.492 16.7-16.7 0-2.097-.39-4.104-1.099-5.955l-3.164-.267-2.323 2.323c.468 1.21.726 2.525.726 3.899 0 5.977-4.863 10.84-10.84 10.84-5.977 0-10.84-4.863-10.84-10.84 0-5.977 4.863-10.84 10.84-10.84 1.374 0 2.689.258 3.9.726l2.322-2.323z"
          fill="#A02167"
        />
        <path
          d="M33.83 8.62l.426 5.053-10.292 10.291a1.464 1.464 0 102.072 2.072l10.291-10.292 5.054.426a1.465 1.465 0 001.159-.424l6.214-6.214a1.465 1.465 0 00-.912-2.496l-4.5-.38-.379-4.498a1.465 1.465 0 00-2.495-.913L34.253 7.46c-.305.305-.46.73-.424 1.16z"
          fill="#A02167"
        />
      </svg>