<svg width="72" height="68" viewBox="0 0 72 68" fill="none" xmlns="http://www.w3.org/2000/svg">
<path d="M61.4696 9.93658C58.393 7.06486 54.7393 4.78842 50.7179 3.23787C46.6966 1.68733 42.3868 0.893206 38.0358 0.901059C33.6849 0.908912 29.3784 1.71859 25.3635 3.28364C21.3486 4.84868 17.7043 7.13829 14.6396 10.0211C13.7022 9.55044 12.655 9.30264 11.5905 9.29963C8.43015 9.29963 5.8655 11.4646 3.60227 13.3755C3.20512 13.7112 2.82608 14.0281 2.46386 14.3215C1.0926 15.398 0.256902 17.2122 0.0518589 19.5686C-0.255382 23.0661 0.809935 27.6919 3.05182 32.5967C5.94821 38.6624 9.80424 44.2876 14.4909 49.2841C25.7947 61.738 37.8877 67.3117 44.8579 67.3117C46.5703 67.4027 48.2619 66.9242 49.6321 65.9611L49.6489 65.9479C50.037 65.6363 50.4471 65.3212 50.883 64.9873C53.4516 63.0209 56.3629 60.7925 56.4923 57.5317C56.4923 57.481 56.4923 57.4303 56.4923 57.3796C60.5493 54.8422 63.9534 51.4972 66.46 47.5852C68.9666 43.6731 70.5133 39.2912 70.9888 34.7546C71.4644 30.218 70.857 25.6394 69.2104 21.3481C67.5638 17.0567 64.9188 13.1593 61.4657 9.93597L61.4696 9.93658ZM11.5892 11.8945C13.249 11.8945 14.9753 13.0953 16.7198 15.4644C19.0354 18.6039 19.9675 20.9065 19.5658 22.4956C19.4067 23.0667 19.1096 23.5962 18.6972 24.0435C16.3185 19.8311 13.5407 15.8259 10.3971 12.0756C10.7823 11.9591 11.1843 11.898 11.5892 11.8945ZM49.1211 62.9823C48.6741 63.3246 48.2518 63.6464 47.8417 63.9785C46.9643 64.5309 45.9133 64.7916 44.8579 64.7186C38.7338 64.7186 27.2824 59.3641 16.606 47.6014C12.1019 42.8034 8.39522 37.4013 5.61 31.5758C3.54017 27.055 2.55312 22.8663 2.82479 19.7817C2.96838 18.1517 3.47743 16.9158 4.25814 16.3048L4.2672 16.2958C4.66047 15.9794 5.05115 15.6504 5.46382 15.302C6.24583 14.6415 7.07182 13.9448 7.92175 13.3549C11.2488 17.2604 14.1544 21.4632 16.5963 25.9018C16.4132 26.0431 16.2263 26.1862 16.0342 26.3329C15.8421 26.4796 15.6597 26.6191 15.4689 26.7664L15.4424 26.7875C13.6345 28.254 13.7554 30.7626 15.8 34.2437C17.7319 37.2952 19.9763 40.1645 22.5018 42.8114C28.7184 49.5883 33.0359 52.7447 36.085 52.7447C36.9791 52.7565 37.8467 52.4618 38.5236 51.9164L38.6005 51.856C43.2009 54.5044 47.3665 57.7603 50.9678 61.5224C50.3805 62.0181 49.7479 62.5023 49.1211 62.9823ZM52.8597 59.5947C49.3179 55.9416 45.2723 52.7435 40.8288 50.084C41.6775 49.3595 42.7632 48.9235 43.9103 48.8463C45.6263 48.8463 47.8559 50.0538 50.7233 52.5455C52.7646 54.3615 53.7711 56.0073 53.7142 57.4357C53.6565 58.2167 53.36 58.9658 52.8597 59.5941V59.5947ZM55.8558 54.6386C55.0686 53.1304 53.9748 51.7793 52.6353 50.6606L52.623 50.6503C49.1657 47.6491 46.398 46.2515 43.9109 46.2515C41.2331 46.2515 39.3521 47.7904 37.3599 49.4199C37.1458 49.595 36.9291 49.7725 36.7021 49.9554C36.5322 50.0928 36.3114 50.1628 36.087 50.1504C34.8942 50.1504 31.818 48.978 24.6156 41.1275C22.2151 38.6146 20.0795 35.8917 18.2386 32.9964C16.9896 30.87 16.6215 29.2864 17.2573 28.7539C17.4389 28.6142 17.6185 28.4768 17.7961 28.3416C18.2871 27.9666 18.7709 27.5965 19.2308 27.2186L19.2605 27.1945C20.6719 26.0304 21.8478 24.7886 22.276 23.089C22.8795 20.6831 21.8724 17.8788 19.0109 13.9967C18.3876 13.1337 17.6767 12.3289 16.888 11.5932C19.8613 8.8729 23.4038 6.7543 27.2941 5.36987C31.1844 3.98543 35.3388 3.36494 39.4977 3.54718C43.6566 3.72942 47.7305 4.71046 51.4647 6.42899C55.199 8.14752 58.5133 10.5666 61.2004 13.5349C63.8876 16.5033 65.8898 19.9572 67.082 23.6806C68.2741 27.404 68.6306 31.317 68.129 35.1748C67.6275 39.0326 66.2787 42.7524 64.1671 46.1017C62.0554 49.4509 59.2262 52.3575 55.8565 54.6398L55.8558 54.6386Z" fill="#A02167"/>
<path d="M24.5156 8.20915C24.4512 8.03668 24.3509 7.87778 24.2205 7.74154C24.0901 7.60531 23.9323 7.49442 23.7559 7.41523C23.5796 7.33604 23.3882 7.29011 23.1928 7.28006C22.9974 7.27001 22.8018 7.29604 22.6172 7.35666C20.3772 8.08979 18.2374 9.06652 16.2421 10.2667C16.0777 10.3658 15.9357 10.4942 15.8244 10.6445C15.7131 10.7948 15.6347 10.9641 15.5935 11.1427C15.5523 11.3213 15.5491 11.5057 15.5843 11.6855C15.6195 11.8652 15.6922 12.0367 15.7984 12.1902C15.9046 12.3437 16.0421 12.4762 16.2031 12.58C16.3642 12.6839 16.5455 12.7572 16.7369 12.7957C16.9282 12.8341 17.1258 12.837 17.3184 12.8042C17.511 12.7714 17.6947 12.7035 17.8592 12.6044C19.6577 11.5225 21.5864 10.642 23.6055 9.98112C23.79 9.92065 23.9599 9.82682 24.1055 9.70501C24.2511 9.5832 24.3696 9.4358 24.4541 9.27122C24.5386 9.10665 24.5876 8.92814 24.5981 8.7459C24.6087 8.56366 24.5806 8.38126 24.5156 8.20915Z" fill="#A02167"/>
<path d="M28.8274 7.35546C28.7919 7.17586 28.7187 7.00456 28.6122 6.85139C28.5056 6.69821 28.3677 6.56616 28.2064 6.46281C28.045 6.35945 27.8635 6.28681 27.672 6.24905C27.4806 6.21129 27.283 6.20916 27.0907 6.24277L26.9853 6.26149C26.7931 6.29578 26.6101 6.36506 26.4466 6.46537C26.2832 6.56568 26.1425 6.69505 26.0326 6.84611C25.9227 6.99717 25.8458 7.16696 25.8062 7.34577C25.7666 7.52458 25.7652 7.70892 25.8019 7.88826C25.8386 8.0676 25.9129 8.23843 26.0203 8.391C26.1278 8.54357 26.2664 8.67488 26.4282 8.77745C26.5901 8.88001 26.772 8.95182 26.9636 8.98877C27.1551 9.02572 27.3526 9.02709 27.5448 8.9928L27.6353 8.97711C27.8278 8.94394 28.0114 8.87564 28.1755 8.77613C28.3397 8.67662 28.4812 8.54786 28.5919 8.39721C28.7027 8.24656 28.7805 8.077 28.8209 7.89824C28.8613 7.71948 28.8635 7.53503 28.8274 7.35546Z" fill="#A02167"/>
<path d="M38.9034 23.9117C37.65 23.9131 36.4484 24.3785 35.5622 25.2057C34.6759 26.033 34.1773 27.1545 34.1758 28.3244V36.3572C34.1903 37.5186 34.6949 38.6279 35.5799 39.4444C36.465 40.261 37.6593 40.7189 38.9037 40.7189C40.1482 40.7189 41.3424 40.261 42.2275 39.4444C43.1126 38.6279 43.6171 37.5186 43.6317 36.3572V28.325C43.6303 27.1549 43.1317 26.0331 42.2453 25.2057C41.3589 24.3783 40.157 23.913 38.9034 23.9117ZM40.6498 36.3578C40.6488 36.7898 40.4645 37.2039 40.1372 37.5093C39.8099 37.8148 39.3663 37.9869 38.9034 37.9879C38.4405 37.9869 37.9969 37.8148 37.6696 37.5093C37.3423 37.2039 37.158 36.7898 37.157 36.3578V28.325C37.157 27.8921 37.3412 27.477 37.6692 27.1709C37.9971 26.8648 38.4419 26.6928 38.9057 26.6928C39.3694 26.6928 39.8142 26.8648 40.1422 27.1709C40.4701 27.477 40.6543 27.8921 40.6543 28.325L40.6498 36.3578Z" fill="#A02167"/>
<path d="M51.6399 30.9515C51.2574 30.9516 50.8815 30.8577 50.5502 30.6792C50.2188 30.5007 49.9436 30.244 49.7523 29.9348C49.561 29.6256 49.4602 29.2748 49.4602 28.9177C49.4601 28.5606 49.5608 28.2098 49.7521 27.9006C49.9433 27.5913 50.2184 27.3346 50.5498 27.156C50.8811 26.9775 51.2569 26.8835 51.6394 26.8835C52.022 26.8835 52.3978 26.9776 52.7291 27.1561C53.0604 27.3347 53.3355 27.5915 53.5267 27.9008C53.6244 28.0589 53.7545 28.1976 53.9096 28.3088C54.0646 28.42 54.2417 28.5016 54.4305 28.5489C54.6194 28.5963 54.8164 28.6084 55.0103 28.5847C55.2042 28.561 55.3912 28.5018 55.5606 28.4107C55.73 28.3195 55.8786 28.1981 55.9977 28.0533C56.1168 27.9086 56.2043 27.7433 56.255 27.567C56.3057 27.3907 56.3187 27.2069 56.2933 27.0259C56.2679 26.8449 56.2046 26.6703 56.1069 26.5122C55.6542 25.7802 55.003 25.1723 54.2188 24.7497C53.4346 24.327 52.5451 24.1045 51.6395 24.1045C50.734 24.1045 49.8444 24.3269 49.0602 24.7495C48.276 25.1722 47.6248 25.78 47.172 26.512C46.7193 27.244 46.4809 28.0743 46.481 28.9195C46.481 29.7647 46.7194 30.595 47.1722 31.327C47.625 32.0589 48.2763 32.6667 49.0605 33.0893C49.8448 33.5118 50.7344 33.7342 51.6399 33.7341C52.0225 33.7341 52.3982 33.8281 52.7295 34.0067C53.0608 34.1852 53.3359 34.442 53.5271 34.7512C53.7184 35.0605 53.819 35.4112 53.819 35.7683C53.819 36.1253 53.7183 36.4761 53.527 36.7853C53.3357 37.0945 53.0605 37.3513 52.7292 37.5297C52.3979 37.7082 52.0221 37.8022 51.6396 37.8021C51.2571 37.8021 50.8813 37.708 50.55 37.5295C50.2188 37.3509 49.9437 37.0941 49.7525 36.7848C49.5552 36.4655 49.2301 36.2323 48.8486 36.1367C48.4672 36.0411 48.0607 36.0908 47.7186 36.275C47.3764 36.4591 47.1266 36.7626 47.0242 37.1186C46.9217 37.4746 46.975 37.8541 47.1723 38.1734C47.625 38.9054 48.2762 39.5133 49.0604 39.936C49.8446 40.3586 50.7341 40.5811 51.6397 40.5811C52.5452 40.5812 53.4348 40.3587 54.219 39.9361C55.0032 39.5135 55.6544 38.9056 56.1072 38.1737C56.5599 37.4417 56.7983 36.6114 56.7982 35.7661C56.7982 34.9209 56.5598 34.0906 56.107 33.3587C55.6542 32.6267 55.0029 32.0189 54.2186 31.5964C53.4344 31.1738 52.5448 30.9514 51.6393 30.9515H51.6399Z" fill="#A02167"/>
<path d="M26.1668 30.9515C25.7842 30.9516 25.4084 30.8577 25.077 30.6792C24.7457 30.5007 24.4705 30.244 24.2791 29.9348C24.0878 29.6256 23.9871 29.2748 23.987 28.9177C23.987 28.5606 24.0877 28.2098 24.2789 27.9006C24.4702 27.5913 24.7453 27.3346 25.0766 27.156C25.4079 26.9775 25.7837 26.8835 26.1663 26.8835C26.5489 26.8835 26.9247 26.9776 27.256 27.1561C27.5872 27.3347 27.8623 27.5915 28.0535 27.9008C28.2508 28.2202 28.5759 28.4533 28.9574 28.5489C29.3388 28.6445 29.7453 28.5948 30.0875 28.4107C30.4296 28.2265 30.6794 27.9231 30.7818 27.567C30.8843 27.211 30.831 26.8316 30.6337 26.5122C30.181 25.7802 29.5298 25.1723 28.7456 24.7497C27.9615 24.327 27.0719 24.1045 26.1664 24.1045C25.2608 24.1045 24.3713 24.3269 23.587 24.7495C22.8028 25.1722 22.1516 25.78 21.6989 26.512C21.2461 27.244 21.0078 28.0743 21.0078 28.9195C21.0078 29.7647 21.2463 30.595 21.6991 31.327C22.1519 32.0589 22.8031 32.6667 23.5874 33.0893C24.3716 33.5118 25.2612 33.7342 26.1668 33.7341C26.5493 33.7341 26.9251 33.8281 27.2564 34.0067C27.5876 34.1852 27.8627 34.442 28.054 34.7512C28.2452 35.0605 28.3459 35.4112 28.3459 35.7683C28.3458 36.1253 28.2451 36.4761 28.0538 36.7853C27.8625 37.0945 27.5874 37.3513 27.2561 37.5297C26.9248 37.7082 26.549 37.8022 26.1664 37.8021C25.7839 37.8021 25.4081 37.708 25.0769 37.5295C24.7456 37.3509 24.4706 37.0941 24.2793 36.7848C24.1817 36.6267 24.0516 36.4881 23.8965 36.3769C23.7414 36.2657 23.5644 36.1841 23.3755 36.1367C23.1866 36.0894 22.9896 36.0772 22.7957 36.1009C22.6018 36.1247 22.4148 36.1838 22.2454 36.275C22.076 36.3661 21.9275 36.4876 21.8083 36.6323C21.6892 36.7771 21.6018 36.9423 21.551 37.1186C21.5003 37.2949 21.4873 37.4788 21.5127 37.6598C21.5381 37.8408 21.6015 38.0153 21.6992 38.1734C22.1519 38.9054 22.803 39.5133 23.5872 39.936C24.3714 40.3586 25.261 40.5811 26.1665 40.5811C27.072 40.5812 27.9616 40.3587 28.7458 39.9361C29.53 39.5135 30.1813 38.9056 30.634 38.1737C31.0868 37.4417 31.3251 36.6114 31.3251 35.7661C31.325 34.9209 31.0866 34.0906 30.6338 33.3587C30.181 32.6267 29.5297 32.0189 28.7455 31.5964C27.9612 31.1738 27.0716 30.9514 26.1661 30.9515H26.1668Z" fill="#A02167"/>
</svg>
