<svg width="220" height="82" viewBox="0 0 220 82" fill="none" xmlns="http://www.w3.org/2000/svg">
<path fill-rule="evenodd" clip-rule="evenodd" d="M161.221 21.9335C155.925 18.3528 150.39 15.1388 144.655 12.3136C134.855 7.44187 127.221 4.59069 126.187 4.15904C125.843 4.04758 125.511 3.89725 125.201 3.71103C125.201 3.71103 125.154 3.54071 124.816 3.34005C119.371 1.97873 113.814 1.11968 108.212 0.773569C94.5025 0.204097 80.7714 0.409695 67.0847 1.38949C52.5931 2.74509 21.5869 7.80356 21.3932 8.29587C21.1996 8.78818 22.3499 9.56041 22.6882 9.8054C23.1552 10.0821 23.6391 10.3291 24.1371 10.5451C24.1371 10.5451 12.8537 20.9652 11.9904 21.8915C11.1271 22.8177 10.9427 23.0021 10.9427 23.0021C10.6349 23.1339 10.3612 23.3341 10.1425 23.5877C9.86482 23.9587 8.04259 26.579 8.04259 26.579C8.04259 26.579 7.42429 26.6699 6.25301 28.2121C5.08174 29.7544 5.29638 33.6696 5.26605 34.5632C5.2458 35.0666 5.25594 35.5706 5.29638 36.0728C4.09795 36.87 3.00105 37.8103 2.02989 38.8727C1.45717 41.5095 1.06737 44.1828 0.86328 46.8733C0.774566 47.8381 0.790186 48.8097 0.909919 49.7712C0.651029 49.927 0.43332 50.1427 0.274991 50.4001C0.116661 50.6574 0.022364 50.949 0 51.2504C1.20606 54.707 2.87551 57.9839 4.96272 60.9915C5.70574 61.8711 6.74961 62.4425 7.89092 62.5945C8.41356 62.6248 11.1574 62.5945 11.1574 62.5945L52.3784 64.1064C52.3784 64.1064 51.9468 66.6333 53.0574 66.5727C54.168 66.512 118.294 67.2516 133.833 67.9912C149.373 68.7308 155.416 68.8242 155.766 68.6702C156.116 68.5162 156.134 66.7897 156.134 66.7897L200.232 67.282C200.232 67.282 200.109 68.8242 200.48 68.8242C200.851 68.8242 208.063 67.9609 210.046 67.436C212.758 66.454 215.313 65.0833 217.631 63.3668C220.037 61.6705 219.82 60.777 219.542 60.5927C219.264 60.4083 218.956 60.2217 218.956 60.2217C218.72 56.9162 218.73 53.5978 218.987 50.2938C219.479 50.0792 219.943 49.8015 219.943 49.4002C220.077 47.8211 219.973 46.2307 219.635 44.6824C219.161 44.091 218.624 43.5534 218.032 43.0794C217.787 41.92 217.36 40.8066 216.768 39.7802C216.028 38.8236 215.835 38.5763 215.835 38.5763C215.835 38.5763 215.279 36.7565 210.438 34.2902C200.088 30.0383 189.405 26.6461 178.498 24.1478C174.178 23.0801 169.79 22.3075 165.365 21.8355C164.037 21.8052 161.221 21.9335 161.221 21.9335Z" fill="#444444"/>
<path fill-rule="evenodd" clip-rule="evenodd" d="M8.05395 26.5742C8.05395 26.5742 7.43565 26.6652 6.26437 28.2075C5.0931 29.7497 5.30774 33.6648 5.27741 34.5585C5.25723 35.0618 5.26736 35.5659 5.30774 36.068L6.1664 36.0354C8.09907 35.9234 10.0051 35.5304 11.8244 34.8688C15.8337 32.7697 19.6331 30.2922 23.1709 27.4701C23.2316 27.1621 23.2315 26.9451 22.6156 26.6371C19.3437 25.9481 15.9974 25.6791 12.6574 25.8368C11.1406 25.9573 9.63173 26.163 8.13797 26.4529L8.05395 26.5742Z" fill="white"/>
<path fill-rule="evenodd" clip-rule="evenodd" d="M11.0713 22.8713C11.8436 22.9506 13.1595 23.0836 13.4582 23.072C13.8898 23.0556 25.4043 10.8646 25.3436 10.7059C25.2829 10.5473 24.1443 10.538 24.1443 10.538C24.1443 10.538 12.8585 20.9581 11.9952 21.8844C11.4819 22.4397 11.2089 22.729 11.0713 22.8713Z" fill="white"/>
<path fill-rule="evenodd" clip-rule="evenodd" d="M77.9946 5.08987L78.1019 22.099C104.29 24.1219 141.008 26.5718 141.008 26.5718C141.008 26.5718 136.446 26.2638 135.641 25.1532C134.836 24.0426 133.731 21.1447 134.223 20.2208C135.049 19.2837 136.029 18.4946 137.121 17.8875C137.81 17.6754 138.516 17.5254 139.232 17.4395C140.343 17.3159 141.206 17.2995 141.206 17.2995C141.206 17.2995 129.167 10.1927 123.063 8.40543C116.136 6.82016 109.095 5.77865 102.006 5.29053C94.0117 4.78257 85.996 4.71558 77.9946 5.08987Z" fill="white"/>
<path fill-rule="evenodd" clip-rule="evenodd" d="M73.9421 21.775L74.1963 5.25116C64.7645 5.53799 55.3663 6.51276 46.0764 8.16768C43.3418 8.72819 40.9256 10.3144 39.3241 12.6007C38.809 13.2105 38.5211 13.9799 38.5096 14.778C38.4981 15.5761 38.7637 16.3536 39.2611 16.9779C40.0007 17.7176 42.0609 18.3335 53.8437 19.9387C56.9492 20.3681 64.5135 21.0307 73.9421 21.775Z" fill="white"/>
<path fill-rule="evenodd" clip-rule="evenodd" d="M122.893 4.23607C122.893 4.23607 137.074 10.6175 145.245 14.8733C153.416 19.1291 158.456 22.1343 159.165 22.1646C159.856 22.1451 160.543 22.0671 161.221 21.9313C155.924 18.3507 150.39 15.1365 144.655 12.3113C134.855 7.43958 127.221 4.58839 126.187 4.15675C125.845 4.04427 125.516 3.89321 125.207 3.70645L122.893 4.23607Z" fill="white"/>
<path fill-rule="evenodd" clip-rule="evenodd" d="M216.742 39.7847C216.002 38.8281 215.808 38.5808 215.808 38.5808C212.27 37.3435 208.648 36.3641 204.968 35.6503C201.515 35.249 200.621 35.6199 200.404 36.5835C200.187 37.5471 205.708 43.3009 207.957 44.4768C210.908 45.3173 214.02 45.423 217.022 44.7848C217.577 44.4535 217.997 43.0909 217.997 43.0909C217.755 41.9296 217.331 40.8138 216.742 39.7847Z" fill="white"/>
<path d="M52.4986 62.1316C54.0224 51.5128 46.6494 41.6693 36.0306 40.1455C25.4117 38.6217 15.5682 45.9947 14.0444 56.6136C12.5207 67.2324 19.8937 77.076 30.5125 78.5997C41.1314 80.1235 50.9749 72.7505 52.4986 62.1316Z" fill="#444444"/>
<path fill-rule="evenodd" clip-rule="evenodd" d="M33.2718 73.3884C30.4997 73.3884 27.7899 72.5665 25.4851 71.0264C23.1802 69.4863 21.3838 67.2974 20.323 64.7364C19.2622 62.1753 18.9846 59.3572 19.5254 56.6385C20.0662 53.9197 21.4011 51.4223 23.3612 49.4622C25.3213 47.5021 27.8187 46.1672 30.5374 45.6264C33.2562 45.0856 36.0743 45.3633 38.6354 46.4241C41.1964 47.4849 43.3853 49.2812 44.9254 51.5861C46.4655 53.891 47.2874 56.6008 47.2874 59.3728C47.2801 63.0878 45.801 66.6484 43.1742 69.2752C40.5474 71.9021 36.9867 73.381 33.2718 73.3884Z" fill="white"/>
<path fill-rule="evenodd" clip-rule="evenodd" d="M33.2689 72.1355C30.7448 72.1351 28.2775 71.3862 26.179 69.9836C24.0805 68.5809 22.445 66.5875 21.4794 64.2553C20.5138 61.9232 20.2613 59.3571 20.7541 56.8816C21.2468 54.406 22.4625 52.1321 24.2475 50.3474C26.0325 48.5628 28.3066 47.3474 30.7822 46.8552C33.2579 46.3629 35.8239 46.6158 38.1559 47.5819C40.4878 48.5479 42.481 50.1837 43.8833 52.2825C45.2855 54.3813 46.034 56.8487 46.034 59.3729C46.0272 62.7561 44.6801 65.9987 42.2876 68.3907C39.8951 70.7828 36.6521 72.1293 33.2689 72.1355Z" fill="#444444"/>
<path fill-rule="evenodd" clip-rule="evenodd" d="M31.1015 46.085C32.1335 50.4384 32.5482 54.9154 32.3334 59.3843H34.2C33.9852 54.9154 34.3999 50.4384 35.4319 46.085H31.0945H31.1015Z" fill="white"/>
<path fill-rule="evenodd" clip-rule="evenodd" d="M22.3428 51.5097C26.147 53.8561 29.6029 56.7253 32.609 60.033L33.2693 59.3704L33.9295 58.7101C30.6218 55.7039 27.7527 52.2482 25.4063 48.444L23.8664 49.9816L22.3428 51.5097Z" fill="white"/>
<path fill-rule="evenodd" clip-rule="evenodd" d="M19.9817 61.5402C24.3352 60.5083 28.8121 60.0936 33.281 60.3083V59.3751V58.4417C28.8119 58.6557 24.335 58.2402 19.9817 57.2075V59.3773V61.5402Z" fill="white"/>
<path fill-rule="evenodd" clip-rule="evenodd" d="M25.4087 70.3015C27.7551 66.4972 30.6241 63.0415 33.9319 60.0354L33.2716 59.3728L32.609 58.7124C29.6029 62.0202 26.147 64.8893 22.3428 67.2357L23.8757 68.7686L25.4087 70.3015Z" fill="white"/>
<path fill-rule="evenodd" clip-rule="evenodd" d="M35.4394 72.6653C34.4073 68.3119 33.9926 63.8349 34.2074 59.3659H32.3409C32.5557 63.8349 32.141 68.3119 31.1089 72.6653H35.4394Z" fill="white"/>
<path fill-rule="evenodd" clip-rule="evenodd" d="M44.2 67.2334C40.3954 64.8874 36.9395 62.0184 33.9337 58.7102L33.2735 59.3704L32.6108 60.033C35.9188 63.0389 38.788 66.4949 41.1341 70.2993L42.667 68.7664L44.2 67.2334Z" fill="white"/>
<path fill-rule="evenodd" clip-rule="evenodd" d="M46.5592 57.203C42.2057 58.2354 37.7288 58.6509 33.2598 58.4373V59.3706V60.3038C37.7287 60.0891 42.2057 60.5038 46.5592 61.5358V59.3682V57.203Z" fill="white"/>
<path fill-rule="evenodd" clip-rule="evenodd" d="M41.1319 48.4417C38.7855 52.2459 35.9164 55.7018 32.6086 58.7079L33.269 59.3683L33.9293 60.0309C36.9353 56.7231 40.3911 53.8539 44.1954 51.5076L42.6625 49.9747L41.1319 48.4417Z" fill="white"/>
<path fill-rule="evenodd" clip-rule="evenodd" d="M33.2719 55.5042L34.9472 56.4725L36.6224 57.4409V61.3117L34.9472 62.2799L33.2719 63.2483L31.5967 62.2799L29.9214 61.3117V57.4409L31.5967 56.4725L33.2719 55.5042Z" fill="white"/>
<path fill-rule="evenodd" clip-rule="evenodd" d="M33.2693 60.7983C32.9874 60.7983 32.7117 60.7147 32.4773 60.5581C32.2429 60.4014 32.0602 60.1787 31.9523 59.9182C31.8444 59.6577 31.8161 59.3711 31.8711 59.0945C31.9262 58.818 32.0619 58.5641 32.2613 58.3647C32.4607 58.1653 32.7147 58.0295 32.9912 57.9745C33.2677 57.9195 33.5544 57.9478 33.8149 58.0557C34.0754 58.1636 34.298 58.3463 34.4547 58.5807C34.6113 58.8152 34.695 59.0907 34.695 59.3727C34.6944 59.7506 34.5439 60.1128 34.2767 60.3801C34.0095 60.6473 33.6472 60.7977 33.2693 60.7983Z" fill="#444444"/>
<path d="M177.892 78.7949C188.618 78.619 197.17 69.781 196.994 59.0548C196.818 48.3287 187.98 39.7761 177.254 39.9521C166.528 40.1281 157.975 48.966 158.151 59.6922C158.327 70.4183 167.165 78.9709 177.892 78.7949Z" fill="#444444"/>
<path fill-rule="evenodd" clip-rule="evenodd" d="M177.572 73.3884C174.8 73.3884 172.09 72.5664 169.785 71.0264C167.48 69.4863 165.684 67.2974 164.623 64.7363C163.562 62.1753 163.285 59.3572 163.825 56.6384C164.366 53.9197 165.701 51.4223 167.661 49.4622C169.621 47.5021 172.119 46.1672 174.837 45.6264C177.556 45.0856 180.374 45.3632 182.935 46.424C185.496 47.4849 187.685 49.2812 189.225 51.5861C190.765 53.8909 191.587 56.6008 191.587 59.3728C191.58 63.0877 190.101 66.6483 187.474 69.2752C184.847 71.902 181.287 73.381 177.572 73.3884Z" fill="white"/>
<path fill-rule="evenodd" clip-rule="evenodd" d="M177.572 72.1377C175.048 72.1373 172.58 71.3885 170.482 69.9858C168.383 68.5831 166.748 66.5897 165.782 64.2576C164.817 61.9255 164.564 59.3594 165.057 56.8838C165.55 54.4082 166.765 52.1343 168.55 50.3497C170.335 48.565 172.61 47.3497 175.085 46.8574C177.561 46.3651 180.127 46.6181 182.459 47.5841C184.791 48.5501 186.784 50.186 188.186 52.2847C189.588 54.3835 190.337 56.851 190.337 59.3751C190.33 62.7583 188.983 66.0009 186.591 68.393C184.198 70.785 180.955 72.1316 177.572 72.1377Z" fill="#444444"/>
<path fill-rule="evenodd" clip-rule="evenodd" d="M175.414 46.085C176.447 50.4383 176.862 54.9153 176.648 59.3844H178.514C178.3 54.9154 178.714 50.4385 179.746 46.085H175.414Z" fill="white"/>
<path fill-rule="evenodd" clip-rule="evenodd" d="M166.638 51.5096C170.442 53.8561 173.898 56.7252 176.904 60.0329L177.565 59.3726L178.227 58.7124C174.919 55.7063 172.05 52.2504 169.704 48.4461L168.171 49.979L166.638 51.5096Z" fill="white"/>
<path fill-rule="evenodd" clip-rule="evenodd" d="M164.284 61.5426C168.637 60.5106 173.114 60.096 177.583 60.3107V59.3774V58.4441C173.114 58.6585 168.637 58.2439 164.284 57.2122V59.3797V61.5426Z" fill="white"/>
<path fill-rule="evenodd" clip-rule="evenodd" d="M169.711 70.3036C172.058 66.4994 174.927 63.0436 178.235 60.0376L177.572 59.3772L176.912 58.7169C173.906 62.0247 170.45 64.8939 166.646 67.2401L168.178 68.773L169.711 70.3036Z" fill="white"/>
<path fill-rule="evenodd" clip-rule="evenodd" d="M179.741 72.665C178.709 68.3115 178.295 63.8346 178.51 59.3656H176.643C176.858 63.8346 176.443 68.3115 175.411 72.665H179.748H179.741Z" fill="white"/>
<path fill-rule="evenodd" clip-rule="evenodd" d="M188.503 67.2356C184.699 64.8892 181.243 62.0202 178.237 58.7125L177.574 59.3727L176.914 60.0353C180.222 63.0414 183.091 66.4973 185.437 70.3015L186.97 68.7686L188.503 67.2356Z" fill="white"/>
<path fill-rule="evenodd" clip-rule="evenodd" d="M190.86 57.2049C186.507 58.2367 182.03 58.6514 177.561 58.4369V59.3702V60.3034C182.03 60.0887 186.507 60.5034 190.86 61.5354V59.3678V57.2049Z" fill="white"/>
<path fill-rule="evenodd" clip-rule="evenodd" d="M185.435 48.4439C183.089 52.2483 180.22 55.7042 176.912 58.7102L177.572 59.3705L178.235 60.0331C181.241 56.7254 184.697 53.8562 188.501 51.5099L186.968 49.977L185.435 48.4439Z" fill="white"/>
<path fill-rule="evenodd" clip-rule="evenodd" d="M177.574 55.5042L179.249 56.4724L180.925 57.4408V61.3116L179.249 62.2799L177.574 63.2482L175.899 62.2799L174.224 61.3116V57.4408L175.899 56.4724L177.574 55.5042Z" fill="white"/>
<path fill-rule="evenodd" clip-rule="evenodd" d="M177.572 60.7983C177.29 60.7983 177.015 60.7147 176.78 60.558C176.546 60.4014 176.363 60.1787 176.255 59.9182C176.147 59.6577 176.119 59.371 176.174 59.0945C176.229 58.818 176.365 58.564 176.564 58.3647C176.764 58.1653 177.018 58.0295 177.294 57.9745C177.571 57.9195 177.857 57.9477 178.118 58.0556C178.378 58.1635 178.601 58.3463 178.758 58.5807C178.914 58.8151 178.998 59.0907 178.998 59.3726C178.997 59.7505 178.847 60.1128 178.58 60.38C178.312 60.6472 177.95 60.7977 177.572 60.7983Z" fill="#444444"/>
</svg>
