<svg width="560" height="722" viewBox="0 0 560 722" fill="none" xmlns="http://www.w3.org/2000/svg">
<g filter="url(#filter0_d)">
<rect x="9" y="9" width="250" height="188.672" rx="10" fill="white"/>
<path d="M228.545 44H39.4545C36.4421 44 34 46.6863 34 50C34 53.3137 36.4421 56 39.4545 56H228.545C231.558 56 234 53.3137 234 50C234 46.6863 231.558 44 228.545 44Z" fill="#EFF2F5"/>
<path d="M228.545 71H39.4545C36.4421 71 34 73.6863 34 77C34 80.3137 36.4421 83 39.4545 83H228.545C231.558 83 234 80.3137 234 77C234 73.6863 231.558 71 228.545 71Z" fill="#EFF2F5"/>
<path d="M228.545 98H39.4545C36.4421 98 34 100.686 34 104C34 107.314 36.4421 110 39.4545 110H228.545C231.558 110 234 107.314 234 104C234 100.686 231.558 98 228.545 98Z" fill="#EFF2F5"/>
<path d="M228.545 125H39.4545C36.4421 125 34 127.686 34 131C34 134.314 36.4421 137 39.4545 137H228.545C231.558 137 234 134.314 234 131C234 127.686 231.558 125 228.545 125Z" fill="#EFF2F5"/>
<path d="M126.49 152H39.3359C36.389 152 34 154.389 34 157.336C34 160.283 36.389 162.672 39.3359 162.672H126.49C129.437 162.672 131.826 160.283 131.826 157.336C131.826 154.389 129.437 152 126.49 152Z" fill="#EFF2F5"/>
</g>
<g filter="url(#filter1_d)">
<rect x="109" y="172.672" width="50.1987" height="50.1987" rx="25" fill="white"/>
<path d="M136.24 207.271H133.486V196.209C133.486 194.888 133.517 193.842 133.58 193.068C133.4 193.256 133.177 193.463 132.912 193.689C132.654 193.916 131.779 194.635 130.287 195.845L128.904 194.099L133.943 190.138H136.24V207.271Z" fill="#A02167"/>
</g>
<g filter="url(#filter2_d)">
<rect x="299" y="252.871" width="250" height="188.672" rx="10" fill="white"/>
<path d="M518.545 287.871H329.455C326.442 287.871 324 290.557 324 293.871C324 297.184 326.442 299.871 329.455 299.871H518.545C521.558 299.871 524 297.184 524 293.871C524 290.557 521.558 287.871 518.545 287.871Z" fill="#EFF2F5"/>
<path d="M518.545 314.871H329.455C326.442 314.871 324 317.557 324 320.871C324 324.184 326.442 326.871 329.455 326.871H518.545C521.558 326.871 524 324.184 524 320.871C524 317.557 521.558 314.871 518.545 314.871Z" fill="#EFF2F5"/>
<path d="M518.545 341.871H329.455C326.442 341.871 324 344.557 324 347.871C324 351.184 326.442 353.871 329.455 353.871H518.545C521.558 353.871 524 351.184 524 347.871C524 344.557 521.558 341.871 518.545 341.871Z" fill="#EFF2F5"/>
<path d="M518.545 368.871H329.455C326.442 368.871 324 371.557 324 374.871C324 378.184 326.442 380.871 329.455 380.871H518.545C521.558 380.871 524 378.184 524 374.871C524 371.557 521.558 368.871 518.545 368.871Z" fill="#EFF2F5"/>
<path d="M416.49 395.871H329.336C326.389 395.871 324 398.26 324 401.207C324 404.153 326.389 406.542 329.336 406.542H416.49C419.437 406.542 421.826 404.153 421.826 401.207C421.826 398.26 419.437 395.871 416.49 395.871Z" fill="#EFF2F5"/>
</g>
<g filter="url(#filter3_d)">
<rect x="399" y="416.542" width="50.1987" height="50.1987" rx="25" fill="white"/>
<path d="M429.767 451.142H418.154V449.056L422.572 444.614C423.876 443.279 424.74 442.333 425.162 441.779C425.591 441.216 425.904 440.689 426.099 440.197C426.294 439.704 426.392 439.177 426.392 438.614C426.392 437.841 426.158 437.232 425.689 436.786C425.228 436.341 424.587 436.118 423.767 436.118C423.111 436.118 422.474 436.239 421.857 436.482C421.248 436.724 420.541 437.161 419.736 437.794L418.248 435.978C419.201 435.173 420.126 434.603 421.025 434.267C421.923 433.931 422.88 433.763 423.896 433.763C425.49 433.763 426.767 434.181 427.728 435.017C428.689 435.845 429.169 436.962 429.169 438.368C429.169 439.142 429.029 439.876 428.748 440.572C428.474 441.267 428.048 441.986 427.47 442.728C426.9 443.462 425.947 444.458 424.611 445.716L421.634 448.599V448.716H429.767V451.142Z" fill="#A02167"/>
</g>
<g filter="url(#filter4_d)">
<rect x="9" y="496.741" width="250" height="188.672" rx="10" fill="white"/>
<path d="M228.545 531.741H39.4545C36.4421 531.741 34 534.428 34 537.741C34 541.055 36.4421 543.741 39.4545 543.741H228.545C231.558 543.741 234 541.055 234 537.741C234 534.428 231.558 531.741 228.545 531.741Z" fill="#EFF2F5"/>
<path d="M228.545 558.741H39.4545C36.4421 558.741 34 561.428 34 564.741C34 568.055 36.4421 570.741 39.4545 570.741H228.545C231.558 570.741 234 568.055 234 564.741C234 561.428 231.558 558.741 228.545 558.741Z" fill="#EFF2F5"/>
<path d="M228.545 585.741H39.4545C36.4421 585.741 34 588.428 34 591.741C34 595.055 36.4421 597.741 39.4545 597.741H228.545C231.558 597.741 234 595.055 234 591.741C234 588.428 231.558 585.741 228.545 585.741Z" fill="#EFF2F5"/>
<path d="M228.545 612.741H39.4545C36.4421 612.741 34 615.428 34 618.741C34 622.055 36.4421 624.741 39.4545 624.741H228.545C231.558 624.741 234 622.055 234 618.741C234 615.428 231.558 612.741 228.545 612.741Z" fill="#EFF2F5"/>
<path d="M126.49 639.741H39.3359C36.389 639.741 34 642.13 34 645.077C34 648.024 36.389 650.413 39.3359 650.413H126.49C129.437 650.413 131.826 648.024 131.826 645.077C131.826 642.13 129.437 639.741 126.49 639.741Z" fill="#EFF2F5"/>
</g>
<g filter="url(#filter5_d)">
<rect x="109" y="660.413" width="50.1987" height="50.1987" rx="25" fill="white"/>
<path d="M139.123 681.817C139.123 682.903 138.806 683.809 138.173 684.536C137.541 685.255 136.65 685.739 135.501 685.989V686.083C136.876 686.255 137.908 686.684 138.595 687.372C139.283 688.051 139.626 688.958 139.626 690.091C139.626 691.739 139.044 693.012 137.88 693.911C136.716 694.801 135.06 695.247 132.912 695.247C131.013 695.247 129.412 694.938 128.107 694.321V691.872C128.833 692.231 129.603 692.509 130.416 692.704C131.228 692.899 132.009 692.997 132.759 692.997C134.087 692.997 135.08 692.751 135.736 692.259C136.392 691.766 136.72 691.005 136.72 689.973C136.72 689.059 136.357 688.387 135.63 687.958C134.904 687.528 133.763 687.313 132.208 687.313H130.72V685.075H132.232C134.966 685.075 136.333 684.13 136.333 682.239C136.333 681.505 136.095 680.938 135.619 680.54C135.142 680.141 134.439 679.942 133.509 679.942C132.861 679.942 132.236 680.036 131.634 680.223C131.033 680.403 130.322 680.759 129.501 681.29L128.154 679.368C129.724 678.212 131.548 677.634 133.626 677.634C135.353 677.634 136.701 678.005 137.669 678.747C138.638 679.489 139.123 680.512 139.123 681.817Z" fill="#A02167"/>
</g>
<path d="M266 83.893C266 83.893 431.854 39.7155 437 249" stroke="#A02167" stroke-dasharray="3.56 3.56"/>
<path d="M292.336 334.927C292.336 334.927 103 284.5 120 491" stroke="#A02167" stroke-dasharray="3.56 3.56"/>
<defs>
<filter id="filter0_d" x="0" y="0" width="270" height="208.672" filterUnits="userSpaceOnUse" color-interpolation-filters="sRGB">
<feFlood flood-opacity="0" result="BackgroundImageFix"/>
<feColorMatrix in="SourceAlpha" type="matrix" values="0 0 0 0 0 0 0 0 0 0 0 0 0 0 0 0 0 0 127 0"/>
<feOffset dx="1" dy="1"/>
<feGaussianBlur stdDeviation="5"/>
<feColorMatrix type="matrix" values="0 0 0 0 0 0 0 0 0 0 0 0 0 0 0 0 0 0 0.161 0"/>
<feBlend mode="normal" in2="BackgroundImageFix" result="effect1_dropShadow"/>
<feBlend mode="normal" in="SourceGraphic" in2="effect1_dropShadow" result="shape"/>
</filter>
<filter id="filter1_d" x="100" y="163.672" width="70.1987" height="70.1987" filterUnits="userSpaceOnUse" color-interpolation-filters="sRGB">
<feFlood flood-opacity="0" result="BackgroundImageFix"/>
<feColorMatrix in="SourceAlpha" type="matrix" values="0 0 0 0 0 0 0 0 0 0 0 0 0 0 0 0 0 0 127 0"/>
<feOffset dx="1" dy="1"/>
<feGaussianBlur stdDeviation="5"/>
<feColorMatrix type="matrix" values="0 0 0 0 0 0 0 0 0 0 0 0 0 0 0 0 0 0 0.161 0"/>
<feBlend mode="normal" in2="BackgroundImageFix" result="effect1_dropShadow"/>
<feBlend mode="normal" in="SourceGraphic" in2="effect1_dropShadow" result="shape"/>
</filter>
<filter id="filter2_d" x="290" y="243.871" width="270" height="208.672" filterUnits="userSpaceOnUse" color-interpolation-filters="sRGB">
<feFlood flood-opacity="0" result="BackgroundImageFix"/>
<feColorMatrix in="SourceAlpha" type="matrix" values="0 0 0 0 0 0 0 0 0 0 0 0 0 0 0 0 0 0 127 0"/>
<feOffset dx="1" dy="1"/>
<feGaussianBlur stdDeviation="5"/>
<feColorMatrix type="matrix" values="0 0 0 0 0 0 0 0 0 0 0 0 0 0 0 0 0 0 0.161 0"/>
<feBlend mode="normal" in2="BackgroundImageFix" result="effect1_dropShadow"/>
<feBlend mode="normal" in="SourceGraphic" in2="effect1_dropShadow" result="shape"/>
</filter>
<filter id="filter3_d" x="390" y="407.542" width="70.1987" height="70.1987" filterUnits="userSpaceOnUse" color-interpolation-filters="sRGB">
<feFlood flood-opacity="0" result="BackgroundImageFix"/>
<feColorMatrix in="SourceAlpha" type="matrix" values="0 0 0 0 0 0 0 0 0 0 0 0 0 0 0 0 0 0 127 0"/>
<feOffset dx="1" dy="1"/>
<feGaussianBlur stdDeviation="5"/>
<feColorMatrix type="matrix" values="0 0 0 0 0 0 0 0 0 0 0 0 0 0 0 0 0 0 0.161 0"/>
<feBlend mode="normal" in2="BackgroundImageFix" result="effect1_dropShadow"/>
<feBlend mode="normal" in="SourceGraphic" in2="effect1_dropShadow" result="shape"/>
</filter>
<filter id="filter4_d" x="0" y="487.741" width="270" height="208.672" filterUnits="userSpaceOnUse" color-interpolation-filters="sRGB">
<feFlood flood-opacity="0" result="BackgroundImageFix"/>
<feColorMatrix in="SourceAlpha" type="matrix" values="0 0 0 0 0 0 0 0 0 0 0 0 0 0 0 0 0 0 127 0"/>
<feOffset dx="1" dy="1"/>
<feGaussianBlur stdDeviation="5"/>
<feColorMatrix type="matrix" values="0 0 0 0 0 0 0 0 0 0 0 0 0 0 0 0 0 0 0.161 0"/>
<feBlend mode="normal" in2="BackgroundImageFix" result="effect1_dropShadow"/>
<feBlend mode="normal" in="SourceGraphic" in2="effect1_dropShadow" result="shape"/>
</filter>
<filter id="filter5_d" x="100" y="651.413" width="70.1987" height="70.1987" filterUnits="userSpaceOnUse" color-interpolation-filters="sRGB">
<feFlood flood-opacity="0" result="BackgroundImageFix"/>
<feColorMatrix in="SourceAlpha" type="matrix" values="0 0 0 0 0 0 0 0 0 0 0 0 0 0 0 0 0 0 127 0"/>
<feOffset dx="1" dy="1"/>
<feGaussianBlur stdDeviation="5"/>
<feColorMatrix type="matrix" values="0 0 0 0 0 0 0 0 0 0 0 0 0 0 0 0 0 0 0.161 0"/>
<feBlend mode="normal" in2="BackgroundImageFix" result="effect1_dropShadow"/>
<feBlend mode="normal" in="SourceGraphic" in2="effect1_dropShadow" result="shape"/>
</filter>
</defs>
</svg>
