<svg width="109" height="40" viewBox="0 0 109 40" fill="none" xmlns="http://www.w3.org/2000/svg">
<path fill-rule="evenodd" clip-rule="evenodd" d="M56.6986 0.90767C56.6986 0.90767 64.4196 1.549 65.2908 1.67347C66.1619 1.79794 66.2096 1.81452 66.2096 1.81452C68.2071 2.32817 70.1258 3.09588 71.9157 4.09767C74.6881 5.69325 84.6818 11.7295 84.6818 11.7295C85.052 11.7058 85.4235 11.7058 85.7937 11.7295C85.922 11.7757 86.4865 12.1052 86.583 12.1052C86.6795 12.1052 96.0928 13.7162 98.6245 14.4038C100.766 14.9542 102.837 15.736 104.799 16.7343C105.975 17.896 106.901 19.2729 107.523 20.7849C107.782 21.3277 107.987 21.8934 108.134 22.4742C108.408 22.92 108.635 23.3914 108.811 23.8813C108.923 24.7961 108.914 25.721 108.787 26.6338C108.438 27.0756 108.178 27.577 108.021 28.112C107.859 28.9253 107.94 29.4883 108.133 29.6448C108.262 29.7265 108.357 29.8497 108.402 29.9928C108.447 30.1359 108.438 30.2897 108.377 30.4272C107.943 30.9393 107.42 31.3734 106.831 31.7098C106.263 31.8267 105.685 31.8949 105.105 31.9137C105.105 31.9137 105.202 32.4294 104.976 32.555C103.796 32.7988 102.601 32.966 101.398 33.0553C100.978 33.1101 100.55 33.0835 100.141 32.977C100.141 32.977 100.141 32.0548 100.06 32.0702C99.9796 32.0856 99.7865 32.133 99.6936 32.0548C99.3893 31.9041 99.0773 31.7684 98.7589 31.6482C98.7589 31.6482 81.6894 31.9303 81.6247 32.1638C81.5599 32.3974 81.3986 32.7269 81.2581 32.6961C81.1176 32.6653 31.3852 32.165 31.3852 32.165C31.3852 32.165 31.1115 31.7738 30.8378 31.711C30.5981 31.6653 30.3557 31.634 30.112 31.6174L12.9289 31.0543C12.9289 31.0543 12.913 31.5391 12.7847 31.5391C12.6564 31.5391 2.72633 30.5374 1.53379 29.9127C0.341244 29.288 0.211723 27.6758 0.146964 26.8946C0.0715729 26.4635 0.116291 26.0207 0.276486 25.612C0.279239 24.6705 0.343718 23.7301 0.469537 22.7966C0.95841 22.3971 1.3541 21.9013 1.63032 21.3421C1.82218 20.8026 1.93088 20.2386 1.95289 19.6682C2.26654 17.6216 2.69689 15.5934 3.24196 13.5929C4.34476 10.9826 5.64596 8.45548 7.13482 6.03229C8.53752 4.21858 9.63353 2.99877 9.63353 2.99877C9.44415 2.93668 9.27108 2.83511 9.12646 2.70122C9.02574 2.57537 8.95535 2.42924 8.92046 2.27354C8.88557 2.11785 8.88708 1.95656 8.92486 1.8015C8.99695 1.75527 13.8575 0.957471 15.3568 0.768988C16.856 0.580505 17.0674 0.644503 17.0674 0.56508C17.0674 0.485656 17.2775 0.267547 17.2775 0.267547C17.9761 0.295249 18.6757 0.284958 19.373 0.236725C19.7237 0.10594 20.0971 0.0423283 20.4727 0.0494216C21.0531 0.0340111 23.3588 0.034019 25.9051 0.00201247C28.4515 -0.0299941 53.1466 0.330367 53.1466 0.330367C53.1466 0.330367 53.2432 0.205902 53.5975 0.205902C54.3268 0.21314 55.0524 0.307911 55.7578 0.488042C56.0938 0.574803 56.412 0.71672 56.6986 0.90767Z" fill="#444444"/>
<path fill-rule="evenodd" clip-rule="evenodd" d="M58.0045 13.888L57.605 2.62646L60.6596 2.75093C63.2318 2.88182 65.7668 3.40425 68.1717 4.2991C71.3143 5.65997 82.7913 13.2752 83.5489 13.7754C84.3064 14.2757 84.6608 14.7415 84.6363 14.8778C84.6119 15.0142 84.4152 14.962 84.4555 15.0225C84.4958 15.0829 72.4433 14.527 58.0045 13.888Z" fill="white"/>
<path fill-rule="evenodd" clip-rule="evenodd" d="M54.1997 2.48892L54.229 13.7232C47.1422 13.4162 39.6986 13.0902 32.9478 12.7927L33.8935 2.1167C39.4395 2.1167 45.1224 2.1167 45.1224 2.1167L54.1997 2.48892Z" fill="white"/>
<path fill-rule="evenodd" clip-rule="evenodd" d="M30.8671 2.11914C30.4932 4.17349 29.3349 10.5617 29.0074 12.6185C17.7761 12.1182 9.30853 11.727 9.24621 11.6796C9.06049 11.5385 9.00184 11.4532 9.15702 10.9446C10.0384 8.90971 11.1694 6.98532 12.5257 5.21311C13.5093 4.06896 14.8227 3.23595 16.2976 2.82091C18.7704 2.30679 21.2975 2.08074 23.8255 2.14758C24.8226 2.13216 27.617 2.12388 30.8671 2.11914Z" fill="white"/>
<path fill-rule="evenodd" clip-rule="evenodd" d="M100.764 17.8807C101.265 19.1017 101.841 20.2925 102.489 21.4465C103.504 21.8165 104.583 21.9886 105.666 21.9527C105.763 21.9373 106.644 21.3967 106.634 20.9C106.401 19.8205 105.922 18.8054 105.231 17.9293C104.316 17.5837 103.332 17.447 102.354 17.5298C101.799 17.4835 101.243 17.6061 100.764 17.8807Z" fill="white"/>
<path fill-rule="evenodd" clip-rule="evenodd" d="M3.54108 12.9336C4.69086 12.9454 6.61529 12.9929 6.75947 13.032C6.96108 13.0865 7.06616 13.1102 7.12603 13.3449C7.18591 13.5797 6.31228 17.3754 6.27073 18.6699C6.22919 19.9643 6.36726 20.8902 6.1742 21.0229C5.23498 21.1463 4.28018 21.096 3.36024 20.8748C2.85203 20.554 2.37659 20.1868 1.94043 19.7783C1.94043 19.7083 1.94043 19.668 1.94043 19.668C2.25408 17.6213 2.68443 15.5931 3.2295 13.5927C3.29792 13.4647 3.40301 13.2359 3.54108 12.9336Z" fill="white"/>
<path d="M98.7686 31.9028C99.6937 27.5271 96.7873 23.2523 92.2771 22.3548C87.7669 21.4574 83.3608 24.2771 82.4357 28.6528C81.5106 33.0285 84.417 37.3032 88.9272 38.2007C93.4374 39.0982 97.8436 36.2785 98.7686 31.9028Z" fill="#444444"/>
<path fill-rule="evenodd" clip-rule="evenodd" d="M90.6006 36.2402C89.386 36.2402 88.1986 35.8907 87.1887 35.236C86.1788 34.5814 85.3917 33.6509 84.9269 32.5622C84.4621 31.4735 84.3405 30.2756 84.5775 29.1199C84.8144 27.9641 85.3993 26.9025 86.2581 26.0693C87.117 25.236 88.2112 24.6686 89.4025 24.4387C90.5937 24.2088 91.8285 24.3268 92.9507 24.7777C94.0728 25.2287 95.0319 25.9924 95.7067 26.9721C96.3815 27.9519 96.7417 29.1038 96.7417 30.2822C96.7384 31.8614 96.0904 33.375 94.9394 34.4916C93.7884 35.6083 92.2283 36.237 90.6006 36.2402Z" fill="white"/>
<path d="M90.6003 35.7295C93.7011 35.7295 96.2148 33.2908 96.2148 30.2825C96.2148 27.2742 93.7011 24.8354 90.6003 24.8354C87.4995 24.8354 84.9858 27.2742 84.9858 30.2825C84.9858 33.2908 87.4995 35.7295 90.6003 35.7295Z" fill="#444444"/>
<path fill-rule="evenodd" clip-rule="evenodd" d="M91.8136 24.6362L91.0879 30.2824H90.5991L91.1759 24.5449L91.8136 24.6362Z" fill="white"/>
<path fill-rule="evenodd" clip-rule="evenodd" d="M89.3872 24.6362L90.113 30.2824H90.6017L90.025 24.5449L89.3872 24.6362Z" fill="white"/>
<path fill-rule="evenodd" clip-rule="evenodd" d="M95.5736 27.123L90.9451 30.6177L90.6006 30.2822L95.1899 26.6216L95.5736 27.123Z" fill="white"/>
<path fill-rule="evenodd" clip-rule="evenodd" d="M93.8594 25.4575L90.2573 29.9479L90.6019 30.2834L94.375 25.8309L93.8594 25.4575Z" fill="white"/>
<path fill-rule="evenodd" clip-rule="evenodd" d="M96.4203 31.4596L90.6006 30.7554V30.2812L96.5144 30.8408L96.4203 31.4596Z" fill="white"/>
<path fill-rule="evenodd" clip-rule="evenodd" d="M96.4203 29.1055L90.6006 29.8096V30.2838L96.5144 29.7243L96.4203 29.1055Z" fill="white"/>
<path fill-rule="evenodd" clip-rule="evenodd" d="M93.8594 35.1071L90.2573 30.6167L90.6019 30.2812L94.375 34.7337L93.8594 35.1071Z" fill="white"/>
<path fill-rule="evenodd" clip-rule="evenodd" d="M95.5736 33.4429L90.9451 29.9482L90.6006 30.2837L95.1899 33.9443L95.5736 33.4429Z" fill="white"/>
<path fill-rule="evenodd" clip-rule="evenodd" d="M89.3872 35.9299L90.113 30.2837H90.6018L90.025 36.0212L89.3872 35.9299Z" fill="white"/>
<path fill-rule="evenodd" clip-rule="evenodd" d="M91.8141 35.9299L91.0883 30.2837H90.5996L91.1763 36.0212L91.8141 35.9299Z" fill="white"/>
<path fill-rule="evenodd" clip-rule="evenodd" d="M85.6274 33.4429L90.2559 29.9482L90.6004 30.2825L86.0111 33.9432L85.6274 33.4429Z" fill="white"/>
<path fill-rule="evenodd" clip-rule="evenodd" d="M87.3445 35.1084L90.9465 30.618L90.6007 30.2837L86.8276 34.7362L87.3445 35.1084Z" fill="white"/>
<path fill-rule="evenodd" clip-rule="evenodd" d="M84.7797 29.1055L90.5994 29.8096V30.2838L84.6855 29.7243L84.7797 29.1055Z" fill="white"/>
<path fill-rule="evenodd" clip-rule="evenodd" d="M84.7797 31.4596L90.5994 30.7554V30.2812L84.6855 30.8408L84.7797 31.4596Z" fill="white"/>
<path fill-rule="evenodd" clip-rule="evenodd" d="M87.3445 25.4575L90.9465 29.9479L90.6007 30.2822L86.8276 25.8297L87.3445 25.4575Z" fill="white"/>
<path fill-rule="evenodd" clip-rule="evenodd" d="M85.6274 27.122L90.2559 30.6167L90.6004 30.2812L86.0111 26.6206L85.6274 27.122Z" fill="white"/>
<path fill-rule="evenodd" clip-rule="evenodd" d="M90.6005 32.1436C90.221 32.1436 89.8501 32.0345 89.5347 31.83C89.2192 31.6255 88.9733 31.3348 88.8281 30.9947C88.6829 30.6547 88.645 30.2805 88.719 29.9194C88.793 29.5584 88.9757 29.2268 89.244 28.9665C89.5123 28.7062 89.8541 28.529 90.2262 28.4571C90.5983 28.3853 90.984 28.4222 91.3346 28.5631C91.6851 28.7039 91.9847 28.9425 92.1955 29.2485C92.4063 29.5546 92.5188 29.9144 92.5188 30.2825C92.5178 30.7758 92.3154 31.2486 91.9559 31.5975C91.5963 31.9463 91.1089 32.1427 90.6005 32.1436Z" fill="white"/>
<path d="M90.6006 31.0021C91.0102 31.0021 91.3422 30.6799 91.3422 30.2825C91.3422 29.8851 91.0102 29.563 90.6006 29.563C90.1909 29.563 89.8589 29.8851 89.8589 30.2825C89.8589 30.6799 90.1909 31.0021 90.6006 31.0021Z" fill="#444444"/>
<path d="M30.0128 32.1299C31.065 27.7831 28.2859 23.4319 23.8055 22.411C19.3252 21.3902 14.8401 24.0865 13.788 28.4332C12.7358 32.78 15.5149 37.1312 19.9952 38.152C24.4756 39.1728 28.9606 36.4766 30.0128 32.1299Z" fill="#444444"/>
<path d="M22.3899 36.2211C25.7708 35.9588 28.2924 33.0873 28.0221 29.8072C27.7518 26.5272 24.792 24.0808 21.4111 24.3431C18.0303 24.6053 15.5087 27.4769 15.779 30.7569C16.0493 34.0369 19.0091 36.4833 22.3899 36.2211Z" fill="white"/>
<path d="M22.2975 35.7144C25.3905 35.5016 27.7201 32.8965 27.5008 29.8958C27.2815 26.895 24.5963 24.6349 21.5032 24.8476C18.4102 25.0604 16.0806 27.6655 16.3 30.6663C16.5193 33.6671 19.2045 35.9272 22.2975 35.7144Z" fill="#444444"/>
<path fill-rule="evenodd" clip-rule="evenodd" d="M23.1144 24.6352L22.3886 30.2814H21.8999L22.4766 24.5439L23.1144 24.6352Z" fill="white"/>
<path fill-rule="evenodd" clip-rule="evenodd" d="M20.6875 24.6352L21.4133 30.2814H21.902L21.3253 24.5439L20.6875 24.6352Z" fill="white"/>
<path fill-rule="evenodd" clip-rule="evenodd" d="M26.8741 27.1225L22.2457 30.6172L21.8999 30.2817L26.4892 26.6211L26.8741 27.1225Z" fill="white"/>
<path fill-rule="evenodd" clip-rule="evenodd" d="M25.1597 25.457L21.5576 29.9474L21.9034 30.2829L25.6765 25.8304L25.1597 25.457Z" fill="white"/>
<path fill-rule="evenodd" clip-rule="evenodd" d="M27.7206 31.4586L21.9009 30.7544V30.2803L27.8147 30.8398L27.7206 31.4586Z" fill="white"/>
<path fill-rule="evenodd" clip-rule="evenodd" d="M27.7206 29.1045L21.9009 29.8086V30.2828L27.8147 29.7233L27.7206 29.1045Z" fill="white"/>
<path fill-rule="evenodd" clip-rule="evenodd" d="M25.1582 35.1061L21.5562 30.6157L21.9007 30.2803L25.6739 34.7327L25.1582 35.1061Z" fill="white"/>
<path fill-rule="evenodd" clip-rule="evenodd" d="M26.8748 33.4419L22.2464 29.9473L21.9019 30.2828L26.4912 33.9433L26.8748 33.4419Z" fill="white"/>
<path fill-rule="evenodd" clip-rule="evenodd" d="M20.6875 35.9289L21.4133 30.2827H21.902L21.3253 36.0202L20.6875 35.9289Z" fill="white"/>
<path fill-rule="evenodd" clip-rule="evenodd" d="M23.1144 35.9289L22.3886 30.2827H21.8999L22.4766 36.0202L23.1144 35.9289Z" fill="white"/>
<path fill-rule="evenodd" clip-rule="evenodd" d="M16.9282 33.4419L21.5566 29.9473L21.9012 30.2816L17.3119 33.9422L16.9282 33.4419Z" fill="white"/>
<path fill-rule="evenodd" clip-rule="evenodd" d="M18.6436 35.1074L22.2456 30.617L21.9011 30.2827L18.1279 34.7352L18.6436 35.1074Z" fill="white"/>
<path fill-rule="evenodd" clip-rule="evenodd" d="M16.0814 29.1045L21.9011 29.8086V30.2828L15.9873 29.7233L16.0814 29.1045Z" fill="white"/>
<path fill-rule="evenodd" clip-rule="evenodd" d="M16.0814 31.4586L21.9011 30.7544V30.2803L15.9873 30.8398L16.0814 31.4586Z" fill="white"/>
<path fill-rule="evenodd" clip-rule="evenodd" d="M18.6453 25.457L22.2473 29.9474L21.9015 30.2817L18.1284 25.8292L18.6453 25.457Z" fill="white"/>
<path fill-rule="evenodd" clip-rule="evenodd" d="M16.9282 27.1216L21.5566 30.6162L21.9024 30.2807L17.3131 26.6201L16.9282 27.1216Z" fill="white"/>
<path fill-rule="evenodd" clip-rule="evenodd" d="M21.9007 32.1427C21.5213 32.1427 21.1505 32.0335 20.835 31.829C20.5195 31.6245 20.2736 31.3338 20.1284 30.9937C19.9833 30.6537 19.9453 30.2794 20.0193 29.9184C20.0933 29.5574 20.276 29.2258 20.5443 28.9655C20.8126 28.7052 21.1544 28.528 21.5265 28.4562C21.8986 28.3844 22.2843 28.4212 22.6349 28.5621C22.9854 28.7029 23.285 28.9415 23.4958 29.2475C23.7066 29.5536 23.8191 29.9134 23.8191 30.2815C23.8181 30.7748 23.6157 31.2477 23.2561 31.5965C22.8966 31.9453 22.4092 32.1417 21.9007 32.1427Z" fill="white"/>
<path d="M21.9009 31.0011C22.3105 31.0011 22.6425 30.679 22.6425 30.2816C22.6425 29.8842 22.3105 29.562 21.9009 29.562C21.4912 29.562 21.1592 29.8842 21.1592 30.2816C21.1592 30.679 21.4912 31.0011 21.9009 31.0011Z" fill="#444444"/>
<path fill-rule="evenodd" clip-rule="evenodd" d="M80.1729 11.9085C80.0396 13.2308 80.0614 14.5634 80.2376 15.8809C82.7278 16.6241 85.1043 16.5163 85.1043 14.597C85.1043 13.606 80.7154 10.5061 80.1729 11.9085Z" fill="#444444"/>
</svg>
