<svg width="24" height="25" viewBox="0 0 24 25" fill="none" xmlns="http://www.w3.org/2000/svg">
<g clip-path="url(#clip0)">
<path d="M12 24.4998C5.36792 24.4998 0 19.1253 0 12.5C0 5.86774 5.367 0.5 12 0.5C18.6323 0.5 23.9998 5.867 23.9998 12.5C23.9998 19.1317 18.6248 24.4998 12 24.4998Z" fill="#F6F6F6"/>
<path d="M12 0.5V24.4998C18.6248 24.4998 23.9998 19.1317 23.9998 12.5C23.9998 5.86719 18.6323 0.5 12 0.5Z" fill="#EFF2F5"/>
<path d="M12.0001 15.3125C8.50842 15.3125 5.1792 16.8389 2.74609 20.1392C7.59125 25.9958 16.5596 25.9458 21.3394 20.0346C20.1591 18.8605 17.5005 15.3125 12.0001 15.3125Z" fill="#ABABAB"/>
<path d="M21.3393 20.0346C19.0827 22.825 15.6969 24.4998 12 24.4998V15.3125C17.5007 15.3125 20.159 18.8609 21.3393 20.0346Z" fill="#979797"/>
<path d="M12 13.2031C9.67365 13.2031 7.78125 11.3105 7.78125 8.98438V7.57812C7.78125 5.25195 9.67365 3.35938 12 3.35938C14.3262 3.35938 16.2188 5.25195 16.2188 7.57812V8.98438C16.2188 11.3105 14.3262 13.2031 12 13.2031Z" fill="#ABABAB"/>
<path d="M12 3.35938V13.2031C14.3264 13.2031 16.2188 11.3107 16.2188 8.98438V7.57812C16.2188 5.25177 14.3264 3.35938 12 3.35938Z" fill="#979797"/>
</g>
<defs>
<clipPath id="clip0">
<rect width="24" height="24" fill="white" transform="translate(0 0.5)"/>
</clipPath>
</defs>
</svg>
