<svg xmlns="http://www.w3.org/2000/svg" width="426.426" height="167.165" viewBox="0 0 426.426 167.165"><g transform="translate(-193.104 -352.005)"><g transform="translate(193.104 352.005)"><path d="M330.191,370.2c2.576,7.366.818,13.867-4.153,13.867H231.46c-4.967,0-6.979-6.5-4.691-13.867l2.318-7.469c1.9-6.117,6.6-10.723,10.635-10.723h76.809c4.035,0,8.914,4.606,11.051,10.723Z" transform="translate(-105.238 -352.005)" fill="#db3535"/><g transform="translate(0 22.731)"><path d="M611.718,472.929l1.01-16.623c-2.049-16.033-18.779-32.225-29.929-36.157-7.945-2.8-77.834-19.217-86.217-19.483-4.544-1.327-59.074-32.663-78.593-40.2-5.48-2.119-106.035-3.073-108.817-1.529-9.249,5.141-43.494,17.625-69.436,34-5.815,3.667-28.9,6.463-32.166,10.812-8.214,10.948-13.277,69.185-13.277,69.185-.91,7.676,3.633,14,10.163,14h366.29C577.275,486.932,614.589,480.6,611.718,472.929Z" transform="translate(-190.223 -358.173)" fill="#f4cc25"/><path d="M340.253,373.06c-62.619,0-116.6,20.371-141.481,49.758-.954,7.289-1.467,12.481-1.467,12.481-.855,6.393,3.416,11.663,9.559,11.663h47.562c28.415-21.391,74.234-35.287,125.949-35.287,43.317,0,82.506,9.747,110.792,25.482C473.468,400.259,412.622,373.06,340.253,373.06Z" transform="translate(-182.115 -318.204)" fill="#f2a927"/><path d="M406.282,398.136c6.32.107,6.264-3.033-4.109-10.48-9.559-6.858-21.9-15.709-29.583-20.12-9.021-5.17-35.98-8.243-59.862-8.4-20.529-.133-33.754,2.041-44.566,5.387-7.48,2.314-39.975,14.161-54.1,25.209-1.931,1.511-3.983,5.177,5.782,5.347C240,395.428,346.582,397.108,406.282,398.136Z" transform="translate(-141.162 -355.599)" fill="#2a2a2b"/><path d="M619.529,407.431v-6.475c0-13.933-1.249-17.12-10.9-17.12H544.36v9a10.947,10.947,0,0,1-10.948,10.948H285.255A10.95,10.95,0,0,1,274.3,392.835v-9H204a10.922,10.922,0,0,0-10.9,10.948v12.647c0,6.047-.217,10.948,5.8,10.948H585.233C603.938,418.379,619.529,413.478,619.529,407.431Z" transform="translate(-193.104 -289.271)" fill="#f29b27"/><path d="M280.267,417.6a39.569,39.569,0,1,0-79.138,0,39.211,39.211,0,0,0,3.287,15.694H276.98A39.21,39.21,0,0,0,280.267,417.6Z" transform="translate(-171.556 -304.849)" fill="#f29b27"/><path d="M354.048,417.6a39.569,39.569,0,1,0-79.138,0A39.211,39.211,0,0,0,278.2,433.3h72.564A39.149,39.149,0,0,0,354.048,417.6Z" transform="translate(26.544 -304.849)" fill="#f29b27"/><path d="M585.233,399.225H198.9c-5.524,0-5.789-4.135-5.8-9.492v5.7c0,6.047-.217,10.948,5.8,10.948H585.233c18.7,0,34.3-4.9,34.3-10.948v-6.475c0-.232,0-.435-.007-.66C619.478,394.339,603.909,399.225,585.233,399.225Z" transform="translate(-193.104 -277.277)" fill="#ce7305"/><g transform="translate(33.593 76.174)"><path d="M273.318,414.394a35.549,35.549,0,1,0-66.58,17.3H268.8A35.32,35.32,0,0,0,273.318,414.394Z" transform="translate(-202.22 -378.845)" fill="#070707"/><g transform="translate(3.648 3.648)"><path d="M267.012,411.736a31.9,31.9,0,1,1-31.9-31.9A31.9,31.9,0,0,1,267.012,411.736Z" transform="translate(-203.21 -379.835)" fill="#2a2a2b"/><path d="M259.062,408.385a27.3,27.3,0,1,1-27.3-27.3A27.3,27.3,0,0,1,259.062,408.385Z" transform="translate(-199.859 -376.484)" fill="#091119"/></g><path d="M229.306,382a23.934,23.934,0,1,0,23.934,23.934A23.934,23.934,0,0,0,229.306,382Zm16.579,7.62c2.86,2.86,2.451,6.43,0,7.558l-8.221,3.77c-.335.155-1.2-.361-1.975-1.131s-1.286-1.64-1.131-1.975l3.77-8.221C239.454,387.163,243.025,386.758,245.884,389.617Zm-16.328-6.858c4.046,0,6.283,2.812,5.343,5.343l-3.143,8.479c-.129.343-1.106.593-2.2.593s-2.067-.251-2.2-.593l-3.143-8.479C223.277,385.571,225.514,382.76,229.556,382.76Zm-16.391,6.7c2.86-2.863,6.43-2.454,7.554,0l3.773,8.221c.151.332-.365,1.2-1.135,1.971s-1.64,1.286-1.972,1.135l-8.221-3.773C210.711,395.882,210.306,392.315,213.166,389.455ZM206.3,405.78c0-4.046,2.815-6.283,5.343-5.343l8.483,3.147c.343.125.593,1.105.593,2.2s-.251,2.067-.593,2.2l-8.483,3.147C209.12,412.059,206.3,409.826,206.3,405.78Zm6.7,16.395c-2.86-2.863-2.454-6.43,0-7.558l8.221-3.77c.332-.155,1.2.361,1.971,1.131s1.29,1.64,1.135,1.971l-3.773,8.225C219.43,424.625,215.859,425.034,213,422.174Zm16.324,6.858c-4.042,0-6.279-2.812-5.339-5.343l3.143-8.479c.129-.346,1.106-.593,2.2-.593s2.071.247,2.2.593l3.147,8.479C235.607,426.22,233.37,429.032,229.324,429.032Zm16.394-6.7c-2.86,2.86-6.43,2.454-7.554,0l-3.773-8.221c-.151-.332.361-1.2,1.135-1.972s1.64-1.286,1.971-1.135l8.221,3.773C248.173,415.906,248.578,419.477,245.719,422.336Zm1.518-10.981-8.483-3.147c-.343-.125-.593-1.105-.593-2.2s.251-2.071.593-2.2l8.483-3.147c2.528-.94,5.34,1.3,5.34,5.343S249.765,412.295,247.237,411.355Z" transform="translate(-193.757 -370.382)" fill="#2a2a2b"/></g><g transform="translate(305.474 76.174)"><path d="M347.1,414.394a35.549,35.549,0,1,0-66.58,17.3h62.062A35.321,35.321,0,0,0,347.1,414.394Z" transform="translate(-276.001 -378.845)" fill="#070707"/><g transform="translate(2.837 2.837)"><g transform="translate(0 0)"><path d="M340.792,411.736a31.9,31.9,0,1,1-31.9-31.9A31.9,31.9,0,0,1,340.792,411.736Z" transform="translate(-276.18 -379.024)" fill="#2a2a2b"/><circle cx="27.302" cy="27.302" r="27.302" transform="translate(0 53.223) rotate(-77.089)" fill="#091119"/></g></g><path d="M303.087,382a23.934,23.934,0,1,0,23.934,23.934A23.934,23.934,0,0,0,303.087,382Zm16.579,7.62c2.859,2.86,2.454,6.43,0,7.558l-8.221,3.77c-.332.155-1.2-.361-1.971-1.131s-1.29-1.64-1.135-1.975l3.773-8.221C313.235,387.163,316.806,386.758,319.666,389.617Zm-16.324-6.858c4.042,0,6.279,2.812,5.339,5.343l-3.143,8.479c-.129.343-1.105.593-2.2.593s-2.071-.251-2.2-.593L298,388.1C297.058,385.571,299.295,382.76,303.341,382.76Zm-16.394,6.7c2.86-2.863,6.43-2.454,7.554,0l3.774,8.221c.151.332-.361,1.2-1.135,1.971s-1.64,1.286-1.971,1.135l-8.221-3.773C284.492,395.882,284.087,392.315,286.947,389.455Zm-6.858,16.324c0-4.046,2.812-6.283,5.339-5.343l8.483,3.147c.343.125.593,1.105.593,2.2s-.251,2.067-.593,2.2l-8.483,3.147C282.9,412.059,280.089,409.826,280.089,405.78Zm6.692,16.395c-2.859-2.863-2.45-6.43,0-7.558l8.221-3.77c.335-.155,1.2.361,1.975,1.131s1.286,1.64,1.131,1.971l-3.77,8.225C293.211,424.625,289.64,425.034,286.781,422.174Zm16.328,6.858c-4.046,0-6.283-2.812-5.343-5.343l3.147-8.479c.125-.346,1.1-.593,2.2-.593s2.067.247,2.2.593l3.143,8.479C309.388,426.22,307.151,429.032,303.109,429.032Zm16.391-6.7c-2.859,2.86-6.43,2.454-7.554,0l-3.773-8.221c-.151-.332.361-1.2,1.135-1.972s1.64-1.286,1.971-1.135l8.221,3.773C321.954,415.906,322.363,419.477,319.5,422.336Zm1.518-10.981-8.483-3.147c-.343-.125-.593-1.105-.593-2.2s.251-2.071.593-2.2l8.483-3.147c2.528-.94,5.34,1.3,5.34,5.343S323.546,412.295,321.018,411.355Z" transform="translate(-267.538 -370.382)" fill="#2a2a2b"/></g><path d="M326.572,377.7l-30.456.332c-1.19,0-1.312,1.3-.354,2.834l6.541,10.325a5.555,5.555,0,0,0,3.154,2.336l34.948,5.73C339.595,393.073,336.916,384.749,326.572,377.7Z" transform="translate(80.817 -305.737)" fill="#091119" opacity="0.3"/><path d="M338.648,397.4c-.63-3.051-1.853-11.6-11.792-19.294H296.912c-1.212-.018-1.474,1.094-.649,2.439l5.155,8.416a5.179,5.179,0,0,0,3.07,2.152Z" transform="translate(82.593 -304.65)" fill="#fff"/><path d="M302.793,378.208l-5.881-.1c-1.212-.018-1.474,1.094-.649,2.439l5.155,8.416a5.179,5.179,0,0,0,3.07,2.152l8.6,1.577Z" transform="translate(82.593 -304.65)" fill="#f49625"/><path d="M323.38,390.03a4.331,4.331,0,0,1-4.334,4.333H306.388a4.331,4.331,0,0,1-4.333-4.333h0a4.333,4.333,0,0,1,4.333-4.334h12.658a4.333,4.333,0,0,1,4.334,4.334Z" transform="translate(99.427 -284.276)" fill="#ce7305"/><path d="M312.718,389.277a3.366,3.366,0,0,1-3.364,3.365h-3.191a3.363,3.363,0,0,1-3.364-3.365h0a3.363,3.363,0,0,1,3.364-3.364h3.191a3.365,3.365,0,0,1,3.364,3.364Z" transform="translate(101.422 -283.694)" fill="#fff"/><path d="M195.79,392.119h6.449a9.549,9.549,0,0,0,8.873-7.3l1.367-6.323c.873-4.028-1.691-7.3-5.719-7.3h-5.4C199.162,376,197.3,383.761,195.79,392.119Z" transform="translate(-185.891 -323.19)" fill="#091119" opacity="0.3"/><path d="M195.873,388.966c1.456-7.62,3-13.413,4.584-17.268h6.121a4,4,0,0,1,3.195,1.371,4.3,4.3,0,0,1,.7,3.678l-1.367,6.323a7.812,7.812,0,0,1-7.13,5.9Z" transform="translate(-185.668 -321.861)" fill="#db3535"/><path d="M197.056,374.84c-.4,1.769-.8,3.659-1.183,5.69h6.1a7.811,7.811,0,0,0,7.064-5.69Z" transform="translate(-185.668 -313.425)" fill="#f49625"/><path d="M328.182,396.434c-4.544-1.327-50.068-27.471-69.241-35.858-.663-.287-1.363-.553-2.045-.825l36,25.371c6.5,4.58,13.557,8.527,15.753,8.811C308.651,393.932,329.114,396.463,328.182,396.434Z" transform="translate(-21.823 -353.941)" fill="#2a2a2b"/><rect width="0.927" height="73.954" transform="translate(168.881 40.638)" fill="#2a2a2b" opacity="0.3"/><path d="M265.808,443.155h-.927l3.784-73.954h.927Z" transform="translate(-0.384 -328.564)" fill="#2a2a2b" opacity="0.3"/><path d="M218.737,404.694a4.094,4.094,0,0,1,.7.217l-6.062-36.842h-.929l6.029,36.629C218.564,404.7,218.652,404.687,218.737,404.694Z" transform="translate(-141.168 -331.604)" fill="#2a2a2b" opacity="0.3"/><path d="M234.651,372.132a2.011,2.011,0,0,1-2.008,2.012H216.259a2.011,2.011,0,0,1-2.008-2.012h0a2.008,2.008,0,0,1,2.008-2.008h16.383a2.008,2.008,0,0,1,2.008,2.008Z" transform="translate(-136.324 -326.087)" fill="#2a2a2b"/><path d="M260.235,372.216a2.012,2.012,0,0,1-2.008,2.012H241.843a2.012,2.012,0,0,1-2.008-2.012h0a2.008,2.008,0,0,1,2.008-2.008h16.383a2.008,2.008,0,0,1,2.008,2.008Z" transform="translate(-67.632 -325.861)" fill="#2a2a2b"/><g transform="translate(41.792 72.017)"><path d="M231.795,381.726a36.017,36.017,0,0,1,27.35,12.975c-5.535-10.145-15.705-16.984-27.35-16.984s-21.819,6.839-27.35,16.984A36.017,36.017,0,0,1,231.795,381.726Z" transform="translate(-204.445 -377.717)" fill="#f9f9f9" opacity="0.2"/></g><g transform="translate(313.673 69.176)"><path d="M305.576,380.955a36.016,36.016,0,0,1,27.35,12.975c-5.531-10.145-15.705-16.984-27.35-16.984s-21.815,6.839-27.35,16.984A36.016,36.016,0,0,1,305.576,380.955Z" transform="translate(-278.226 -376.946)" fill="#f9f9f9" opacity="0.2"/></g><path d="M298.284,395.305,222.4,393.78c-5.631-.092-8.258-6.788-7.455-7.374,13.679-9.968,39.606-19.4,47.127-21.727,9.839-3.047,20.592-5.115,39.245-5.34Zm92.795-10.72c-8.8-6.29-18.62-13.2-25.168-16.962-8.586-4.923-34.053-7.871-56.45-8.258l1.953,36.08,76.518,1.246C389.929,396.691,392.542,385.632,391.079,384.586Zm30.759,9.9s12.238,1.514,17.338,2.185c-10.06-4.783-49.415-27.177-67.037-34.915l33.946,23.919C412.588,390.257,419.641,394.2,421.838,394.484Z" transform="translate(-134.851 -355.042)" fill="#80c2dc"/></g><g transform="translate(141.373 85.096)"><rect width="9.462" height="9.462" transform="translate(55.422)" fill="#091119"/><path d="M277.879,384.56V375.1h-9.463v9.462h9.012v8.929h-9.012V384.56H259.4V375.1h-9.463v9.462h9.012v8.929h-9.012V384.56H240.93V375.1h-9.462v9.462h9.012v8.929h-9.012v9.462h9.462v-8.928h9.012v8.928H259.4v-8.928h9.011v8.928h9.463v-8.928h9.012v8.928h9.462v-9.462H286.89V384.56Z" transform="translate(-231.468 -375.098)" fill="#091119"/></g><path d="M322.028,358.752c-2.469-4.024-6.051-6.747-9.146-6.747H236.072c-3.1,0-6.57,2.723-8.884,6.747Z" transform="translate(-101.588 -352.005)" fill="#fff" opacity="0.6"/><g transform="translate(153.428 3.102)"><rect width="5.471" height="5.471" transform="translate(32.043)" fill="#091119"/><path d="M261.572,358.317v-5.471H256.1v5.471h5.21v5.162H256.1v-5.162h-5.21v-5.471h-5.471v5.471h5.21v5.162h-5.21v-5.162h-5.21v-5.471H234.74v5.471h5.21v5.162h-5.21v5.471h5.471v-5.162h5.21v5.162h5.471v-5.162h5.21v5.162h5.47v-5.162h5.21v5.162h5.471V363.48h-5.471v-5.162Z" transform="translate(-234.74 -352.847)" fill="#091119"/></g><path d="M300.092,373.691l-1.809,21.5-19.305-.387Zm-82.108,18.263,16.638-16.641a121.032,121.032,0,0,0-19.681,10.981C214.39,386.691,215.477,389.9,217.983,391.953Zm20.721,2.042,14.46.291,34.466-34.462a120.725,120.725,0,0,0-17.271,2.517Zm97.3-33.132c-6.939-.737-14.346-1.238-21.605-1.481l-4.684,4.684,1.187,21.9Zm40.033,13.093c-3.759-2.535-7.267-4.8-10.13-6.445a28.229,28.229,0,0,0-5.494-2.252l-30.379,30.379,23.93.387Zm-4.186,22.36,2.778.048,13.778-13.778-1.651-1.172Q379.307,388.866,371.853,396.316ZM351.132,363.03c-1.581-.3-3.217-.586-4.934-.855l-33.179,33.183,5.693.1Zm57.7,24.4,4.569-4.573c-2.922-1.577-5.911-3.191-8.94-4.813l-3.737,3.737,5.362,3.777Q407.448,386.522,408.828,387.432Zm12.039-.534q-2.449,2.449-4.894,4.894a22.683,22.683,0,0,0,5.863,2.579s12.238,1.514,17.338,2.185C435.769,394.938,429,391.3,420.867,386.9Z" transform="translate(-134.849 -332.198)" fill="#fff" opacity="0.7"/><g transform="translate(0 117.296)" opacity="0.6"><path d="M231.13,383.836H204a10.922,10.922,0,0,0-10.9,10.948v12.647c0,3.784-.085,7.119,1.327,9.087,0-.523,0-1.047,0-1.592V402.276a10.924,10.924,0,0,1,10.893-10.948h22.747A35.194,35.194,0,0,1,231.13,383.836Z" transform="translate(-193.104 -383.836)" fill="#ededed"/></g><g transform="translate(107.182 117.296)"><path d="M223.122,386.909c-.206,2.587-.932,10.565-.932,10.565l194.316-1.89C413.1,393.181,223.122,386.909,223.122,386.909Z" transform="translate(-222.19 -375.585)" fill="#fff" opacity="0.6"/><path d="M337.482,383.836H294.092c1.3,2.347,46.3,4.116,46.3,4.116,5.284,0,6.456,4.348,7.875,7.506C347.815,386.172,345.7,383.836,337.482,383.836Z" transform="translate(-29.135 -383.836)" fill="#fff" opacity="0.6"/></g><g transform="translate(6.251 22.731)" opacity="0.6"><path d="M581.125,420.149c-7.945-2.8-77.834-19.217-86.217-19.483-4.544-1.327-59.074-32.663-78.593-40.2-5.48-2.119-106.035-3.073-108.817-1.529-9.249,5.141-43.494,17.625-69.436,34-5.815,3.667-28.9,6.463-32.166,10.812-5.026,6.7-8.866,31.083-11.1,49.014h.579c2.288-15.259,5.907-33.85,10.517-39.278,3.261-3.84,47.042-12.433,51.5-17.364,11.6-12.809,52.474-27.667,62.449-30.246,22.578-5.837,56.244-5.815,92.268,1.271,13.682,2.078,48.045,33.231,59.807,37.012,21.27,5.1,86.022,17.773,93.97,20.245,9.264,2.885,37.561,16.818,42.9,28.36h1.555C606.544,437.951,591.454,423.79,581.125,420.149Z" transform="translate(-194.8 -358.173)" fill="#fff"/></g></g><g transform="translate(230.345 454.558)"><path d="M235.111,383.546a31.872,31.872,0,0,1,31.8,30.044c.037-.615.1-1.227.1-1.854a31.9,31.9,0,0,0-63.8,0c0,.626.059,1.238.092,1.854A31.876,31.876,0,0,1,235.111,383.546Z" transform="translate(-203.21 -379.835)" fill="#ededed" opacity="0.2"/><path d="M231.883,415.351a26.654,26.654,0,0,1-27.427-25.213c-.015.3-.026.6-.044.9a26.659,26.659,0,0,0,27.471,26.115,28.349,28.349,0,0,0,27.471-27.5c-.018-.3-.03-.6-.048-.9A28.354,28.354,0,0,1,231.883,415.351Z" transform="translate(-199.983 -355.901)" fill="#ededed" opacity="0.2"/></g><g transform="translate(502.053 454.558)"><path d="M308.845,383.546a31.872,31.872,0,0,1,31.8,30.044c.037-.615.1-1.227.1-1.854a31.9,31.9,0,0,0-63.8,0c0,.626.059,1.238.092,1.854A31.876,31.876,0,0,1,308.845,383.546Z" transform="translate(-276.944 -379.835)" fill="#ededed" opacity="0.2"/><path d="M305.617,415.351a26.654,26.654,0,0,1-27.427-25.213c-.015.3-.026.6-.044.9a26.66,26.66,0,0,0,27.472,26.115,28.349,28.349,0,0,0,27.471-27.5c-.018-.3-.029-.6-.048-.9A28.354,28.354,0,0,1,305.617,415.351Z" transform="translate(-273.717 -355.901)" fill="#ededed" opacity="0.2"/></g></g></svg>