<svg xmlns="http://www.w3.org/2000/svg" width="369.586" height="164.833" viewBox="0 0 369.586 164.833"><g transform="translate(-39.974 -44.888)"><g transform="translate(39.974 44.888)"><path d="M115.3,99.681l75.429-.14c-10.485-11.822-33.38-37.71-44.29-50.663-3.827-.7-10.56-1.728-43.653-2.44Z" transform="translate(92.467 -41.621)" fill="#2d2d2d"/><path d="M104.141,46.977c30.684.7,37.533,1.679,40.834,2.269,10.423,12.35,31.1,35.761,41.654,47.669l-70.719.127Z" transform="translate(95.326 -40.484)" fill="#80c2dc"/><g transform="translate(0 35.631)"><rect width="27.791" height="64.357" rx="0.941" fill="#2d2d2d"/><path d="M63.108,56.537H43.029a2.675,2.675,0,0,0-2.676,2.676V69.03a2.675,2.675,0,0,1,2.676-2.676H63.108a2.677,2.677,0,0,1,2.68,2.676V59.213A2.677,2.677,0,0,0,63.108,56.537Z" transform="translate(-39.174 -55.958)" fill="#383838"/><path d="M63.108,85.185H43.029a2.677,2.677,0,0,1-2.676-2.676V72.692a2.677,2.677,0,0,0,2.676,2.676H63.108a2.679,2.679,0,0,0,2.68-2.676v9.817A2.679,2.679,0,0,1,63.108,85.185Z" transform="translate(-39.174 -21.894)" fill="#111"/></g><path d="M197.781,89.948a6.582,6.582,0,0,1-6.581,6.584H90.275a6.582,6.582,0,0,1-6.581-6.584h0a6.582,6.582,0,0,1,6.581-6.581H191.2a6.582,6.582,0,0,1,6.581,6.581Z" transform="translate(52.213 36.246)" fill="#2d2d2d"/><path d="M60.727,169.866h332.43a8.6,8.6,0,0,0,3.482-7.439c0-9.263.488-19.5-3.413-19.988V126.592c0-11.7-8.775-9.506-8.775-9.506s-.488-3.413-6.338-8.775c-11.216-2.44-76.06-6.826-76.06-6.826s-31.359-40.607-40.386-53.339c-3.413-5.362-187.544-2.487-187.544-2.487-5.57,12.782-23.647,58.755-23.647,58.755-3.637,21.682-2.313,41.44-3.413,41.44-2.437,0,.488,20.476.488,20.476S53.217,168.169,60.727,169.866Z" transform="translate(-27.073 -44.888)" fill="#e3e5e5"/><path d="M377.385,80.333l-329.1-10.97,1.463-6.582,245.727,3.657,76.79,5.851Z" transform="translate(-22.446 -7.161)" fill="#fff" opacity="0.7"/><path d="M290.949,66.2H47.659V64.742h243.29Zm0,18.039H140.293v1.464H290.949Zm-1.175-4.386H137.368v1.461H289.774Z" transform="translate(-23.769 -3.026)" fill="#cecece"/><g transform="translate(110.905 7.282)"><path d="M149.286,157.133V47.663l3.721.065c33.121.578,40.688,1.4,45.176,2.123l1.492.239.889,1.225c7.911,10.92,25.229,33.274,32.3,42.379l.165.208-1.169,31.577L218.143,157Zm1.461-107.981V155.669l66.439-.131,13.283-30.513,1.082-30.644c-7.181-9.239-24.306-31.35-32.17-42.208l-.532-.734-.9-.146c-4.439-.715-11.943-1.526-44.971-2.1ZM148.556,157H104.284L77.258,117.758,75.651,95.137l.04-.127C80.475,79,85.185,64.188,90.084,49.718l.842-2.487,2.624,0c23.134.019,36.3.152,52.5.389l2.509.059Zm-43.5-1.461h42.04V49.112l-1.072-.025c-16.186-.239-29.345-.37-52.469-.392H91.974l-.5,1.489C86.587,64.6,81.9,79.361,77.131,95.3l1.56,21.962Z" transform="translate(-75.651 -47.231)" fill="#bfbfbf"/></g><g transform="translate(32.591 10.938)"><path d="M206.062,48.9c34.356.6,40.936,1.477,44.66,2.076C258.587,61.842,275.4,83.546,283.1,93.459l-77.042.118Zm-65.991-.5c-27.492.006-62.056.053-71.969.134-4.89,11.831-13.5,34.135-17.644,44.918l75.351.118Q132.556,70.874,140.071,48.407Zm6.969,0q-7.605,22.451-14.355,45.167h66.8V48.8C184.389,48.578,171.044,48.432,147.04,48.41Z" transform="translate(-50.458 -48.407)" fill="#2d2d2d"/></g><path d="M133.243,90.953c4.448-14.8,8.834-28.586,13.376-42.04,21.794.025,34.626.149,49.758.37v41.67ZM51.19,90.835c4.523-11.75,11.865-30.706,16.422-41.8,10.762-.071,42.506-.118,68.742-.127-4.5,13.463-8.85,27.253-13.258,42.04Zm154.892-41.4c31.887.581,38.922,1.414,42.211,1.927,7.255,9.972,21.182,28.023,30.075,39.475l-72.286.112Z" transform="translate(-16.323 -36.408)" fill="#80c2dc"/><g transform="translate(23.648 91.309)"><path d="M283.51,107.632a3.859,3.859,0,0,0,1.212-.177L300.228,80.6a10.2,10.2,0,0,1,1.057-1.461,39.866,39.866,0,0,0,3.4-2.838,13.076,13.076,0,0,1,6.516-2.036h31.011a14,14,0,0,1,10.97,6.335l15.505,26.858c6.531-.867,19.245,4.019,19.245,4.019l-59.274,17.3-59.382-17.025C269.294,111.645,283.491,107.732,283.51,107.632ZM159.855,107.6l-.044-.006-.152-.016c-.137-.012-.249-.028-.342-.044l-.1-.019a.43.43,0,0,1-.177-.062L143.532,80.6a14.006,14.006,0,0,0-10.97-6.335H101.551A14,14,0,0,0,90.581,80.6L75.076,107.455a.886.886,0,0,1-.224.224,3.708,3.708,0,0,1-.395.252l-26.876,2.8,69.476,19.015,70.694-23.4C187.708,106.233,159.9,107.71,159.855,107.6Z" transform="translate(-47.581 -74.262)" fill="#2d2d2d"/></g><g transform="translate(18.457 82.537)"><path d="M76.661,118.625,91.106,86.548a12.651,12.651,0,0,1,10.438-6.335h31.011c4.038,0,9.189,2.838,11.5,6.335l17.765,26.858c.762,1.153,125.116,1.153,125.684,0l13.249-26.858a12.643,12.643,0,0,1,10.439-6.335H342.2c4.038,0,9.189,2.838,11.5,6.335l17.762,26.858c.765,1.153,19.584,4.019,19.584,4.019a7.769,7.769,0,0,0,4.862-8.415c-.059-.687-.112-1.38-.168-2.073H377.325L360.937,82.161c-4.109-6.214-12.3-10.721-19.472-10.721H310.454c-7.171,0-14.6,4.507-17.669,10.721l-12.22,24.775H167.679L151.29,82.161c-4.109-6.214-12.3-10.721-19.472-10.721H100.808c-7.174,0-14.6,4.507-17.669,10.721L70.916,106.936H45.911c.687,3.36,2.17,11.209,2.17,11.209A106.6,106.6,0,0,0,64.8,122.165S76.092,119.781,76.661,118.625Z" transform="translate(-45.911 -71.44)" fill="#d4d6d6"/><path d="M71.134,109.5l12.22-24.775c3.065-6.214,10.5-10.721,17.669-10.721h31.011c7.174,0,15.362,4.507,19.472,10.721L167.893,109.5H280.78L293,84.729c3.065-6.214,10.494-10.721,17.669-10.721h31.011c7.171,0,15.362,4.507,19.472,10.721L377.539,109.5H395.92c-.006-.168.006-.32-.006-.494-.059-.687-.112-1.38-.168-2.073H377.325L360.937,82.161c-4.109-6.214-12.3-10.721-19.472-10.721H310.454c-7.171,0-14.6,4.507-17.669,10.721l-12.22,24.775H167.679L151.29,82.161c-4.109-6.214-12.3-10.721-19.472-10.721H100.808c-7.174,0-14.6,4.507-17.669,10.721L70.916,106.936H45.911c.19.929.373,1.791.544,2.568Z" transform="translate(-45.911 -71.44)" fill="#fff"/></g><g transform="translate(58.994 96.575)"><circle cx="34.129" cy="34.129" r="34.129" fill="#242424"/><path d="M86.633,79.015a24.62,24.62,0,1,0,24.62,24.62A24.621,24.621,0,0,0,86.633,79.015Zm22.671,24.62a22.846,22.846,0,0,1-.239,3.115l-7.7-.326-4.573-3.031,4.563-3.025,7.638-.323A22.773,22.773,0,0,1,109.3,103.635Zm-16.982,4.821a3.08,3.08,0,0,1,.976.957l1.135,1.787-1.794-1.141a3.077,3.077,0,0,1-.942-.948,4.707,4.707,0,0,0-.357-1A4.733,4.733,0,0,0,92.321,108.456ZM91.314,98.7a4.525,4.525,0,0,0,.348-.985,3.071,3.071,0,0,1,.957-.973L94.407,95.6,93.266,97.4a3.033,3.033,0,0,1-.948.939A4.55,4.55,0,0,0,91.314,98.7Zm2.552,7.115a4.5,4.5,0,0,0-.811-.69,4.692,4.692,0,0,0,1.026-.19,3.021,3.021,0,0,1,1.321.339l1.878.979-2.126-.09A3.06,3.06,0,0,1,93.866,105.811Zm1.517-4.287a3.094,3.094,0,0,1-1.287.342,4.7,4.7,0,0,0-1.051-.193,4.572,4.572,0,0,0,.793-.678,3.084,3.084,0,0,1,1.315-.367l2.117-.087Zm.034-3.214,2.44-4.9,6.376-4.05a22.687,22.687,0,0,1,3.4,5.769l-6.742,3.522ZM96.6,92.149,91.687,94.6l-.339-5.465,3.46-6.624a22.711,22.711,0,0,1,5.813,3.311Zm-5.424-5.813-.3-4.961a21.908,21.908,0,0,1,3.059.811Zm.037,34.144,2.987,4.5a22.459,22.459,0,0,1-3.32.911Zm.174-2.791.339-5.477,4.9,2.44,4.218,6.637a22.722,22.722,0,0,1-5.807,3.391Zm4.054-9.207,5.462-.339,6.885,3.593a22.618,22.618,0,0,1-3.307,5.847l-6.593-4.19Zm8.256-.513,5.232-.323a22.421,22.421,0,0,1-.83,3.242Zm-.009-9.148,4.268-2.829a22.419,22.419,0,0,1,.9,3.149Zm-.068-10.165L99.1,90.9l2.238-4.5A22.217,22.217,0,0,1,103.618,88.655ZM89.946,81.231l-.317,7.436L86.6,93.243l-3.025-4.563-.314-7.439a20.684,20.684,0,0,1,6.686-.009Zm-1.588,28.608a4.834,4.834,0,0,0,.678.793,3.04,3.04,0,0,1,.367,1.315l.09,2.117-.985-1.887a3.044,3.044,0,0,1-.339-1.29A4.472,4.472,0,0,0,88.358,109.839Zm-.221-13.886a3.042,3.042,0,0,1,.339-1.321l.979-1.878-.09,2.123a3.046,3.046,0,0,1-.348,1.287,4.651,4.651,0,0,0-.69.814A4.626,4.626,0,0,0,88.137,95.953Zm-4.265,15.993a3.109,3.109,0,0,1,.351-1.287,4.767,4.767,0,0,0,.69-.811,4.631,4.631,0,0,0,.19,1.023,3.111,3.111,0,0,1-.339,1.324l-.982,1.878Zm-.124-19.183.982,1.884a3.107,3.107,0,0,1,.342,1.29,4.668,4.668,0,0,0-.193,1.051A4.554,4.554,0,0,0,84.2,96.2a3,3,0,0,1-.367-1.318ZM63.959,103.635a22.672,22.672,0,0,1,.308-3.553l7.607.32,4.576,3.034-4.563,3.025-7.681.326A22.93,22.93,0,0,1,63.959,103.635Zm13.9,1.666a3.042,3.042,0,0,1,1.287-.339,4.526,4.526,0,0,0,1.051.19,4.708,4.708,0,0,0-.793.678,3.042,3.042,0,0,1-1.318.367l-2.114.09Zm-.019-3.746-1.878-.979,2.123.09a3.1,3.1,0,0,1,1.287.351,4.767,4.767,0,0,0,.814.69,4.659,4.659,0,0,0-1.026.19A3.047,3.047,0,0,1,77.839,101.555Zm2.136,7.877a3.056,3.056,0,0,1,.945-.939,4.92,4.92,0,0,0,1.007-.361,4.56,4.56,0,0,0-.348.982,3.081,3.081,0,0,1-.957.976l-1.787,1.135Zm.945-11.06a3.048,3.048,0,0,1-.976-.957l-1.138-1.787,1.8,1.141a3.057,3.057,0,0,1,.939.945A4.577,4.577,0,0,0,81.9,98.72,4.562,4.562,0,0,0,80.919,98.372Zm.6-3.755-4.9-2.44L72.6,85.851a22.5,22.5,0,0,1,5.8-3.323l3.454,6.612ZM77.8,98.347l-5.465.339L65.61,95.173A22.539,22.539,0,0,1,69,89.4l6.354,4.038Zm-8.259.51-5.138.32a22.521,22.521,0,0,1,.889-3.137Zm.012,9.148-4.38,2.9a22.391,22.391,0,0,1-.833-3.224Zm2.791.174,5.474.339-2.437,4.9L68.8,117.6a22.6,22.6,0,0,1-3.314-5.841Zm4.3,6.5,4.911-2.446.339,5.462-3.649,6.988a22.613,22.613,0,0,1-5.807-3.385Zm5.421,5.81.336,5.406a22.3,22.3,0,0,1-3.317-.9Zm-.037-34.144L79.281,82.2a22.409,22.409,0,0,1,3.053-.821Zm-10.149.1,2.232,4.486-4.495-2.238A22.717,22.717,0,0,1,71.876,86.444ZM69.362,118.3l4.775-2.375-2.384,4.787A22.745,22.745,0,0,1,69.362,118.3Zm13.914,7.731.333-7.874,3.034-4.573,3.025,4.563.333,7.88a22.666,22.666,0,0,1-3.367.277A22.963,22.963,0,0,1,83.276,126.032Zm18.247-5.328-2.39-4.806,4.79,2.384A22.92,22.92,0,0,1,101.523,120.7Z" transform="translate(-52.503 -69.506)" fill="#e3e5e5"/><path d="M91.643,81.467A32,32,0,0,1,123.536,110.9c.068-.852.112-1.707.112-2.574a32.007,32.007,0,0,0-64.014,0c0,.867.044,1.722.112,2.574A32.005,32.005,0,0,1,91.643,81.467Z" transform="translate(-57.513 -75.178)" fill="#383838"/><path d="M93.081,118.729A34.131,34.131,0,0,1,59,86.366c-.028.588-.044,1.175-.044,1.769a34.129,34.129,0,1,0,68.257,0c0-.594-.016-1.181-.047-1.769A34.128,34.128,0,0,1,93.081,118.729Z" transform="translate(-58.951 -54.006)" fill="#111"/><path d="M86.633,80.008A24.6,24.6,0,0,1,111.215,103.9c.009-.246.037-.485.037-.734a24.621,24.621,0,0,0-49.242,0c0,.249.031.488.037.734A24.6,24.6,0,0,1,86.633,80.008Z" transform="translate(-52.503 -70.499)" fill="#111"/><path d="M86.633,111.084A24.6,24.6,0,0,0,111.215,87.2c.009.246.037.485.037.731a24.621,24.621,0,1,1-49.242,0c0-.246.031-.485.037-.731A24.6,24.6,0,0,0,86.633,111.084Z" transform="translate(-52.503 -52.258)" fill="#383838"/></g><g transform="translate(269.434 96.575)"><circle cx="34.129" cy="34.129" r="34.129" transform="translate(0)" fill="#242424"/><path d="M154.328,79.015a24.62,24.62,0,1,0,24.623,24.62A24.62,24.62,0,0,0,154.328,79.015ZM177,103.635a22.348,22.348,0,0,1-.239,3.115l-7.7-.326-4.576-3.031,4.563-3.025,7.638-.323A22.779,22.779,0,0,1,177,103.635Zm-16.982,4.821a3.049,3.049,0,0,1,.976.957l1.138,1.787-1.8-1.141a3.033,3.033,0,0,1-.939-.948,4.552,4.552,0,0,0-.361-1A4.734,4.734,0,0,0,160.016,108.456Zm-1-9.761a4.878,4.878,0,0,0,.348-.985,3.029,3.029,0,0,1,.954-.973L162.1,95.6,160.961,97.4a3.057,3.057,0,0,1-.945.939A4.494,4.494,0,0,0,159.012,98.7Zm2.552,7.115a4.519,4.519,0,0,0-.814-.69,4.626,4.626,0,0,0,1.026-.19,3.023,3.023,0,0,1,1.324.339l1.874.979-2.123-.09A3.06,3.06,0,0,1,161.564,105.811Zm1.517-4.287a3.107,3.107,0,0,1-1.29.342,4.669,4.669,0,0,0-1.051-.193,4.57,4.57,0,0,0,.793-.678,3.1,3.1,0,0,1,1.318-.367l2.114-.087Zm.031-3.214,2.44-4.9,6.376-4.05a22.6,22.6,0,0,1,3.4,5.769l-6.742,3.522Zm1.181-6.161L159.382,94.6l-.339-5.465,3.46-6.624a22.607,22.607,0,0,1,5.813,3.311Zm-5.421-5.813-.308-4.961a21.907,21.907,0,0,1,3.059.811Zm.037,34.144,2.984,4.5a22.357,22.357,0,0,1-3.32.911Zm.171-2.791.339-5.477,4.9,2.44,4.215,6.637a22.757,22.757,0,0,1-5.8,3.391Zm4.057-9.207,5.462-.339,6.882,3.593a22.518,22.518,0,0,1-3.3,5.847l-6.6-4.19Zm8.256-.513,5.232-.323a22.421,22.421,0,0,1-.833,3.242Zm-.009-9.148,4.265-2.829a22.421,22.421,0,0,1,.9,3.149Zm-.068-10.165L166.8,90.9l2.238-4.5A22.574,22.574,0,0,1,171.316,88.655Zm-13.674-7.423-.314,7.436-3.034,4.576-3.025-4.563-.314-7.439a20.684,20.684,0,0,1,6.686-.009Zm-1.585,28.608a4.687,4.687,0,0,0,.678.793,3.084,3.084,0,0,1,.367,1.315l.087,2.117-.982-1.887a3.1,3.1,0,0,1-.342-1.29A4.644,4.644,0,0,0,156.056,109.839Zm-.224-13.886a3.047,3.047,0,0,1,.342-1.321l.979-1.878-.09,2.123a3.1,3.1,0,0,1-.351,1.287,4.788,4.788,0,0,0-.69.814A4.627,4.627,0,0,0,155.832,95.953Zm-4.262,15.993a3.059,3.059,0,0,1,.348-1.287,4.5,4.5,0,0,0,.69-.811,4.82,4.82,0,0,0,.19,1.023,3.023,3.023,0,0,1-.339,1.324l-.979,1.878Zm-.127-19.183.985,1.884a3.055,3.055,0,0,1,.339,1.29,4.5,4.5,0,0,0-.19,1.051,4.573,4.573,0,0,0-.678-.793,3.041,3.041,0,0,1-.367-1.318Zm-19.786,10.871a22.67,22.67,0,0,1,.3-3.553l7.61.32,4.573,3.034-4.56,3.025-7.684.326A22.938,22.938,0,0,1,131.657,103.635Zm13.9,1.666a3.044,3.044,0,0,1,1.29-.339,4.471,4.471,0,0,0,1.048.19,4.832,4.832,0,0,0-.793.678,3.041,3.041,0,0,1-1.315.367l-2.117.09Zm-.019-3.746-1.878-.979,2.126.09a3.108,3.108,0,0,1,1.287.351,4.631,4.631,0,0,0,.811.69,4.631,4.631,0,0,0-1.023.19A3.06,3.06,0,0,1,145.534,101.555Zm2.136,7.877a3.033,3.033,0,0,1,.948-.939,4.892,4.892,0,0,0,1-.361,4.734,4.734,0,0,0-.348.982,3.08,3.08,0,0,1-.957.976l-1.787,1.135Zm.945-11.06a3.081,3.081,0,0,1-.976-.957L146.5,95.627l1.794,1.141a3.058,3.058,0,0,1,.939.945,4.916,4.916,0,0,0,.361,1.007A4.562,4.562,0,0,0,148.614,98.372Zm.6-3.755-4.9-2.44-4.019-6.326a22.57,22.57,0,0,1,5.807-3.323l3.45,6.612Zm-3.715,3.73-5.462.339-6.73-3.513A22.72,22.72,0,0,1,136.7,89.4l6.354,4.038Zm-8.256.51-5.138.32a22.511,22.511,0,0,1,.886-3.137Zm.009,9.148-4.38,2.9a23.232,23.232,0,0,1-.833-3.224Zm2.791.174,5.477.339-2.437,4.9-6.587,4.184a22.59,22.59,0,0,1-3.311-5.841Zm4.3,6.5,4.912-2.446.339,5.462-3.649,6.988a22.664,22.664,0,0,1-5.807-3.385Zm5.424,5.81.333,5.406a22.3,22.3,0,0,1-3.317-.9Zm-.037-34.144L146.976,82.2a22.331,22.331,0,0,1,3.056-.821Zm-10.153.1,2.235,4.486-4.5-2.238A22.715,22.715,0,0,1,139.571,86.444ZM137.057,118.3l4.775-2.375-2.381,4.787A22.772,22.772,0,0,1,137.057,118.3Zm13.917,7.731.333-7.874,3.031-4.573,3.025,4.563.336,7.88a20.681,20.681,0,0,1-6.724,0Zm18.244-5.328-2.39-4.806,4.79,2.384A22.922,22.922,0,0,1,169.218,120.7Z" transform="translate(-120.199 -69.506)" fill="#e3e5e5"/><path d="M159.34,81.467a32.005,32.005,0,0,1,31.9,29.438c.065-.852.112-1.707.112-2.574a32.009,32.009,0,0,0-64.017,0c0,.867.047,1.722.112,2.574A32.005,32.005,0,0,1,159.34,81.467Z" transform="translate(-125.211 -75.178)" fill="#383838"/><path d="M160.778,118.729A34.126,34.126,0,0,1,126.7,86.366c-.031.588-.047,1.175-.047,1.769a34.129,34.129,0,1,0,68.257,0c0-.594-.015-1.181-.043-1.769A34.131,34.131,0,0,1,160.778,118.729Z" transform="translate(-126.649 -54.006)" fill="#111"/><path d="M154.328,80.008A24.6,24.6,0,0,1,178.913,103.9c.006-.246.037-.485.037-.734a24.621,24.621,0,0,0-49.242,0c0,.249.028.488.034.734A24.6,24.6,0,0,1,154.328,80.008Z" transform="translate(-120.199 -70.499)" fill="#111"/><path d="M154.328,111.084A24.6,24.6,0,0,0,178.913,87.2c.006.246.037.485.037.731a24.621,24.621,0,1,1-49.242,0c0-.246.028-.485.034-.731A24.6,24.6,0,0,0,154.328,111.084Z" transform="translate(-120.199 -52.258)" fill="#383838"/></g><g transform="translate(132.615 124.366)"><path d="M214.76,87.579a2.68,2.68,0,0,1-2.68,2.68H85.318a2.681,2.681,0,0,1-2.683-2.68h0A2.681,2.681,0,0,1,85.318,84.9H212.081a2.68,2.68,0,0,1,2.68,2.683Z" transform="translate(-82.635 -84.896)" fill="#b2b2b2"/><path d="M214.635,86.973a2.673,2.673,0,0,0-2.6-2.076H85.267a2.679,2.679,0,0,0-2.608,2.076Z" transform="translate(-82.584 -84.896)" fill="#fff"/><path d="M82.791,86.248a2.658,2.658,0,0,0,2.2,1.159H211.752a2.662,2.662,0,0,0,2.2-1.159Z" transform="translate(-82.306 -82.045)" fill="#939393"/></g><path d="M94.886,66.17a.984.984,0,0,0-.979-.929H77.951a.984.984,0,0,0-.979.942h-.009v3.87a.989.989,0,0,0,.989.989H93.907a.987.987,0,0,0,.988-.989V66.17Zm-16.935-.535H93.907a.594.594,0,0,1,.594.594v1.993a.594.594,0,0,1-.594.6H77.951a.594.594,0,0,1-.591-.6V66.23A.593.593,0,0,1,77.951,65.636Zm15.956,5.011H77.951a.593.593,0,0,1-.591-.594v-1.06a.947.947,0,0,0,.591.221H93.907a.955.955,0,0,0,.594-.221v1.06A.594.594,0,0,1,93.907,70.647Z" transform="translate(38.018 -1.974)" fill="#bfbfbf"/><path d="M118.4,66.17a.984.984,0,0,0-.979-.929H101.464a.984.984,0,0,0-.979.942h-.009v3.87a.989.989,0,0,0,.989.989H117.42a.987.987,0,0,0,.989-.989V66.17Zm-16.935-.535H117.42a.6.6,0,0,1,.594.594v1.993a.6.6,0,0,1-.594.6H101.464a.6.6,0,0,1-.594-.6V66.23A.6.6,0,0,1,101.464,65.636Zm15.956,5.011H101.464a.6.6,0,0,1-.594-.594v-1.06a.962.962,0,0,0,.594.221H117.42a.962.962,0,0,0,.594-.221v1.06A.6.6,0,0,1,117.42,70.647Z" transform="translate(87.596 -1.974)" fill="#bfbfbf"/><path d="M149.607,77.054H173.5c4.877,0,2.9,10.762,2.9,10.762l-21.912-.522Z" transform="translate(191.193 22.934)" fill="#fff" opacity="0.7"/><path d="M59.372,90.9V77.484H46.59c-.9,1.582-.413,8.2.137,13.413Z" transform="translate(-27.07 23.841)" fill="#7f374d"/><path d="M59.372,83.305V76.23H46.589c-.547.967-.578,3.814-.395,7.075Z" transform="translate(-27.069 21.197)" fill="#70221e"/><path d="M163.359,70.885v-1.1a2.924,2.924,0,0,0-2.925-2.925H149.709a2.924,2.924,0,0,0-2.925,2.925v1.1Z" transform="translate(185.24 1.438)" fill="#e37333"/><g transform="translate(255.543 48.104)"><path d="M134.392,66.6c-.525,7.622-6.23,5.661-8.971,5.546s-3.5-2.6-3.168-5.86c.469-4.588,2.167-6.034,4.908-5.919S134.84,60.071,134.392,66.6Z" transform="translate(-122.18 -60.363)" fill="#200000"/><path d="M122.387,63.433a3.674,3.674,0,0,0,3.258,2.478c1.71.071,9.267,1.8,6.531-3.988-1.33-1.573-3.8-1.352-5.375-1.417A4.983,4.983,0,0,0,122.387,63.433Z" transform="translate(-121.745 -60.072)" fill="#2d2d2d"/></g><path d="M134.917,68.488l67.117,2.03,1.322,9.86Z" transform="translate(160.219 4.873)" fill="#fff" opacity="0.7"/></g><path d="M205.205,60.082V49.435c3.83.071,7.28.146,10.429.221Q210.421,54.869,205.205,60.082Zm29.646-9.77L205.205,79.955V90.95l20.8-.034,29.158-29.155c-2.953-3.907-5.633-7.5-7.743-10.4A118.153,118.153,0,0,0,234.851,50.312Zm11.054,40.576L261,90.863l9.307-9.307c-2.129-2.754-4.343-5.633-6.553-8.514ZM55.855,76.5c-1.5,3.87-2.956,7.622-4.249,10.973L90.124,48.96q-3.53.009-6.739.016Zm54.169-27.576L68.091,90.863l33.271.053,30.262-30.262q1.912-5.922,3.855-11.744C127.262,48.913,118.508,48.919,110.025,48.929Zm53.162.034-25.86,25.86c-1.651,5.269-3.3,10.613-4.961,16.13h41.972Q184.917,80.368,195.5,69.79V49.283C184.894,49.131,175.41,49.022,163.187,48.963Z" transform="translate(24.527 8.48)" fill="#fff" opacity="0.7"/></g></svg>