<svg width="109" height="40" viewBox="0 0 109 40" fill="none" xmlns="http://www.w3.org/2000/svg">
<path fill-rule="evenodd" clip-rule="evenodd" d="M3.36983 9.59392C3.50279 9.59392 9.68626 8.27415 9.68626 8.27415C15.5308 5.6214 22.0662 2.67006 28.5764 1.21006C30.1997 0.822494 31.8464 0.544181 33.5057 0.376949C39.9661 -0.0302575 46.4426 -0.107596 52.9106 0.145184C58.7698 0.570811 62.6703 1.22903 64.6866 1.9846C66.7029 2.74017 82.7595 11.058 82.9281 11.1785C83.1081 11.2833 83.2956 11.3741 83.4892 11.4499C83.4892 11.4499 95.912 12.7944 98.9564 13.9178C101.487 14.8547 103.903 16.0852 106.156 17.5851C106.92 18.4873 107.496 19.5376 107.85 20.6726C107.946 21.0039 108.006 21.3445 108.031 21.6888C108.031 21.6888 108.761 22.2407 108.801 22.569C108.925 23.9795 108.918 25.3986 108.782 26.8079C108.71 27.6916 108.558 28.5665 108.325 29.421C108.46 29.4999 108.56 29.6275 108.606 29.7783C108.652 29.929 108.64 30.0919 108.573 30.2344C108.383 30.834 105.967 31.7051 103.684 31.9566C101.401 32.2082 99.4979 32.4598 99.4979 32.4598H99.099C99.099 32.4598 98.9945 33.1857 98.8802 33.1568C98.7658 33.128 97.5295 32.9341 97.5295 32.9341L82.1766 32.8079L81.1113 32.3047L31.782 32.0919L30.1841 32.2858L14.8506 30.1568L13.367 30.5824C13.367 30.5824 4.93536 29.0919 3.30335 28.6473C2.20537 28.2954 1.25013 27.5888 0.582502 26.6347C0.379636 26.4187 0.224078 26.1615 0.126068 25.8799C0.0312116 25.512 0.425219 25.0377 0.425219 25.0377C0.425219 25.0377 0.249283 20.8037 0.448724 20.4944C1.06907 19.9032 1.54756 19.1748 1.84725 18.3655C2.15208 17.223 1.92346 14.9778 2.39936 13.2167C2.87526 11.4556 2.64664 10.5458 2.90364 10.1004C3.16065 9.65497 3.36983 9.59392 3.36983 9.59392Z" fill="#444444"/>
<path fill-rule="evenodd" clip-rule="evenodd" d="M53.4418 12.3645C66.3374 12.9642 78.6184 13.5045 78.5998 13.403C78.5617 13.1902 77.8579 11.8358 75.5554 10.0351C71.7658 7.28472 67.6411 5.0466 63.285 3.37685C59.8799 2.24514 55.4379 1.77167 51.2715 1.62402L53.4418 12.3645Z" fill="white"/>
<path fill-rule="evenodd" clip-rule="evenodd" d="M24.0867 8.34169C23.8618 8.53739 23.7217 8.81535 23.6968 9.1154C23.7356 9.75444 23.9074 10.3778 24.201 10.9441C24.2505 10.9664 36.3029 11.5594 49.0501 12.1583C48.8336 9.93118 48.2458 4.15718 47.9961 1.56795C43.9305 1.52827 39.8655 1.70531 35.8181 2.09834C33.2462 2.73208 30.7699 3.71505 28.4558 5.02081C26.9219 6.01802 25.4616 7.12793 24.0867 8.34169Z" fill="white"/>
<path fill-rule="evenodd" clip-rule="evenodd" d="M5.15756 15.5121C4.13466 15.4465 3.11649 15.3193 2.1084 15.131C2.14485 14.4855 2.24205 13.8449 2.39864 13.2182C2.60948 12.4141 2.73076 11.5885 2.76022 10.7568C2.86561 10.7775 2.95966 10.7964 3.0083 10.8088C3.16072 10.8476 3.23612 10.9738 3.90012 11.5512C4.56411 12.1286 6.32583 13.012 6.44015 13.1869C6.55446 13.3617 5.25242 15.4057 5.15756 15.5121Z" fill="white"/>
<path fill-rule="evenodd" clip-rule="evenodd" d="M106.806 18.4312C107.246 19.1312 107.596 19.8851 107.849 20.6748C107.924 20.9597 107.98 21.2493 108.018 21.5417C107.508 21.4807 106.849 21.3966 106.299 21.3578C105.544 21.3594 104.795 21.5037 104.092 21.7834C103.883 21.8024 99.869 17.9512 100.038 17.6798C100.208 17.4084 101.579 17.5247 103.71 17.7185C104.767 17.8239 105.808 18.0633 106.806 18.4312Z" fill="white"/>
<path fill-rule="evenodd" clip-rule="evenodd" d="M106.291 27.1941C106.777 27.0331 107.283 26.945 107.794 26.9326C107.839 27.026 107.849 27.1326 107.822 27.2329C107.775 27.3871 106.862 30.0374 106.405 30.3005C105.442 30.5499 104.451 30.6732 103.457 30.6676C104.316 29.44 105.263 28.279 106.291 27.1941Z" fill="white"/>
<path fill-rule="evenodd" clip-rule="evenodd" d="M78.735 11.8836C77.822 11.0369 76.7366 10.4057 75.5562 10.035C74.8541 9.83213 74.2071 13.9746 74.5111 14.2839C74.8152 14.5932 79.1153 15.7934 79.686 15.0197C80.2568 14.2459 78.735 11.8836 78.735 11.8836Z" fill="#444444"/>
<path d="M96.7279 33.2661C99.0074 29.5471 97.8922 24.6521 94.2369 22.3329C90.5815 20.0136 85.7704 21.1483 83.4908 24.8673C81.2112 28.5862 82.3265 33.4812 85.9818 35.8005C89.6371 38.1198 94.4483 36.9851 96.7279 33.2661Z" fill="#444444"/>
<path d="M91.245 35.0868C94.513 34.4483 96.6536 31.2353 96.026 27.9104C95.3985 24.5854 92.2405 22.4076 88.9725 23.0461C85.7044 23.6846 83.5639 26.8976 84.1915 30.2225C84.819 33.5475 87.977 35.7253 91.245 35.0868Z" fill="white"/>
<path fill-rule="evenodd" clip-rule="evenodd" d="M90.1087 34.4476C89.0628 34.4476 88.0403 34.1321 87.1707 33.5409C86.301 32.9496 85.6231 32.1093 85.2228 31.1261C84.8226 30.143 84.7179 29.0611 84.9219 28.0174C85.126 26.9737 85.6296 26.0149 86.3692 25.2625C87.1088 24.51 88.0512 23.9975 89.077 23.7899C90.1029 23.5823 91.1662 23.6888 92.1325 24.0961C93.0988 24.5033 93.9248 25.193 94.5059 26.0778C95.087 26.9626 95.3972 28.0029 95.3972 29.0671C95.3944 30.4932 94.8363 31.8601 93.8451 32.8686C92.854 33.877 91.5105 34.4448 90.1087 34.4476Z" fill="#444444"/>
<path fill-rule="evenodd" clip-rule="evenodd" d="M85.5898 26.269C85.7607 26.7437 86.047 27.1667 86.4219 27.4984C86.7969 27.8302 87.2484 28.0599 87.7342 28.1662C87.3199 27.6867 87.0109 27.1228 86.8279 26.5122C86.6448 25.9015 86.592 25.2581 86.673 24.625C87.295 24.1233 88.0633 23.8461 88.8571 23.8373C88.6477 24.2964 88.5562 24.802 88.5909 25.3068C88.6257 25.8117 88.7855 26.2993 89.0557 26.7243C89.0958 26.0873 89.2692 25.4663 89.564 24.9029C89.8589 24.3395 90.2685 23.8465 90.7655 23.457C91.5541 23.5498 92.2899 23.9068 92.8573 24.4716C92.3906 24.6455 91.9749 24.9367 91.6489 25.3182C91.3228 25.6998 91.097 26.1591 90.9926 26.6534C91.4638 26.2317 92.018 25.9173 92.6182 25.7309C93.2184 25.5446 93.8507 25.4907 94.473 25.5728C94.9662 26.2057 95.2385 26.9874 95.2473 27.795C94.7961 27.5818 94.2992 27.4886 93.8029 27.5239C93.3067 27.5593 92.8273 27.722 92.4097 27.997C93.0358 28.038 93.6461 28.2144 94.1999 28.5143C94.7537 28.8143 95.2381 29.2311 95.621 29.7367C95.5297 30.5389 95.1789 31.2875 94.6239 31.8648C94.453 31.3901 94.1667 30.9671 93.7917 30.6353C93.4167 30.3036 92.9653 30.0739 92.4794 29.9676C92.8938 30.4471 93.2028 31.011 93.3858 31.6216C93.5688 32.2323 93.6216 32.8757 93.5407 33.5088C92.9187 34.0105 92.1503 34.2876 91.3566 34.2965C91.5658 33.8374 91.6574 33.3318 91.6226 32.827C91.5879 32.3221 91.428 31.8345 91.1579 31.4095C91.1176 32.0465 90.9441 32.6675 90.6492 33.2309C90.3542 33.7943 89.9444 34.2873 89.4473 34.6767C88.6589 34.5836 87.9231 34.2267 87.3556 33.6622C87.8223 33.4882 88.2381 33.1968 88.5641 32.8151C88.8902 32.4335 89.1159 31.974 89.2203 31.4796C88.7491 31.9014 88.195 32.2159 87.5947 32.4023C86.9945 32.5886 86.3621 32.6425 85.7398 32.5602C85.2467 31.9273 84.9743 31.1456 84.9655 30.338C85.4167 30.5512 85.9137 30.6445 86.41 30.6091C86.9062 30.5738 87.3855 30.411 87.8031 30.1359C87.177 30.095 86.5667 29.9187 86.013 29.6187C85.4592 29.3187 84.9747 28.902 84.5918 28.3963C84.6835 27.5942 85.0346 26.8459 85.5898 26.269Z" fill="white"/>
<path fill-rule="evenodd" clip-rule="evenodd" d="M90.1088 30.2276C89.883 30.2276 89.6623 30.1595 89.4746 30.0319C89.2869 29.9042 89.1406 29.7229 89.0542 29.5106C88.9678 29.2984 88.9452 29.0649 88.9892 28.8396C89.0333 28.6143 89.142 28.4074 89.3016 28.245C89.4613 28.0825 89.6647 27.9719 89.8861 27.9271C90.1076 27.8823 90.337 27.9053 90.5456 27.9932C90.7542 28.0811 90.9325 28.2299 91.0579 28.4209C91.1834 28.6119 91.2503 28.8365 91.2503 29.0662C91.2497 29.374 91.1292 29.669 90.9153 29.8867C90.7013 30.1044 90.4113 30.2269 90.1088 30.2276Z" fill="#444444"/>
<path d="M29.4479 32.7452C31.4443 28.8614 29.9682 24.0663 26.1508 22.0351C22.3335 20.0039 17.6205 21.5057 15.6241 25.3896C13.6277 29.2734 15.1038 34.0685 18.9212 36.0997C22.7385 38.1309 27.4515 36.629 29.4479 32.7452Z" fill="#444444"/>
<path d="M28.4057 30.4607C29.1644 27.163 27.1519 23.864 23.9107 23.092C20.6695 22.3201 17.4269 24.3676 16.6682 27.6653C15.9095 30.9629 17.922 34.262 21.1632 35.0339C24.4044 35.8059 27.647 33.7584 28.4057 30.4607Z" fill="white"/>
<path fill-rule="evenodd" clip-rule="evenodd" d="M22.536 34.4481C21.49 34.4481 20.4676 34.1326 19.5979 33.5413C18.7282 32.9501 18.0504 32.1098 17.6501 31.1266C17.2498 30.1435 17.1451 29.0616 17.3492 28.0179C17.5532 26.9742 18.0569 26.0154 18.7965 25.263C19.5361 24.5105 20.4784 23.998 21.5043 23.7904C22.5301 23.5828 23.5935 23.6893 24.5598 24.0966C25.5261 24.5038 26.3521 25.1935 26.9332 26.0783C27.5143 26.9631 27.8244 28.0034 27.8244 29.0676C27.8218 30.4938 27.2638 31.8608 26.2726 32.8693C25.2814 33.8778 23.9378 34.4455 22.536 34.4481Z" fill="#444444"/>
<path fill-rule="evenodd" clip-rule="evenodd" d="M18.0168 26.2703C18.1879 26.7451 18.4743 27.168 18.8494 27.4998C19.2245 27.8315 19.6761 28.0612 20.162 28.1675C19.7476 27.688 19.4385 27.1242 19.2554 26.5135C19.0722 25.9029 19.0192 25.2595 19.0999 24.6264C19.7221 24.1249 20.4903 23.8478 21.284 23.8386C21.0746 24.2977 20.9829 24.8033 21.0176 25.3082C21.0524 25.8131 21.2124 26.3007 21.4827 26.7256C21.5223 26.0882 21.6952 25.4668 21.9898 24.9028C22.2844 24.3388 22.6938 23.8452 23.1909 23.4551C23.9794 23.5479 24.7152 23.9048 25.2826 24.4697C24.816 24.6436 24.4003 24.9349 24.0743 25.3164C23.7482 25.6979 23.5224 26.1571 23.4179 26.6514C23.8892 26.2298 24.4433 25.9154 25.0435 25.7291C25.6437 25.5427 26.2761 25.4888 26.8984 25.5708C27.3914 26.2038 27.6638 26.9854 27.6726 27.793C27.2214 27.58 26.7245 27.4868 26.2283 27.5221C25.732 27.5574 25.2527 27.7202 24.8351 27.9951C25.4627 28.0349 26.0748 28.2108 26.6302 28.5109C27.1856 28.8111 27.6715 29.2287 28.0553 29.7356C27.9639 30.5378 27.6131 31.2864 27.0581 31.8637C26.887 31.3889 26.6005 30.966 26.2254 30.6342C25.8503 30.3025 25.3988 30.0728 24.9129 29.9665C25.3274 30.4459 25.6365 31.0097 25.8197 31.6204C26.0028 32.2311 26.0558 32.8745 25.975 33.5076C25.3529 34.0093 24.5846 34.2864 23.7908 34.2954C24.0002 33.8363 24.0918 33.3307 24.0571 32.8258C24.0223 32.321 23.8624 31.8333 23.5922 31.4084C23.552 32.0454 23.3787 32.6663 23.0839 33.2297C22.789 33.7932 22.3794 34.2861 21.8823 34.6756C21.0939 34.5826 20.3581 34.2257 19.7906 33.6611C20.2573 33.4871 20.6731 33.1956 20.9992 32.814C21.3252 32.4323 21.551 31.9729 21.6553 31.4785C21.1842 31.9002 20.63 32.2148 20.0298 32.4011C19.4296 32.5875 18.7972 32.6413 18.1748 32.559C17.6819 31.926 17.4096 31.1444 17.4006 30.3369C17.8518 30.55 18.3488 30.6433 18.845 30.6079C19.3412 30.5726 19.8206 30.4098 20.2382 30.1348C19.6121 30.0939 19.0018 29.9176 18.448 29.6176C17.8942 29.3176 17.4097 28.9009 17.0269 28.3952C17.117 27.5951 17.4651 26.8478 18.0168 26.2703Z" fill="white"/>
<path fill-rule="evenodd" clip-rule="evenodd" d="M22.536 30.229C22.3103 30.229 22.0896 30.1609 21.9018 30.0333C21.7141 29.9057 21.5678 29.7243 21.4814 29.5121C21.395 29.2999 21.3724 29.0664 21.4165 28.8411C21.4605 28.6158 21.5692 28.4088 21.7289 28.2464C21.8885 28.084 22.0919 27.9734 22.3133 27.9286C22.5348 27.8838 22.7643 27.9068 22.9729 27.9947C23.1814 28.0826 23.3597 28.2314 23.4852 28.4224C23.6106 28.6134 23.6776 28.8379 23.6776 29.0677C23.6769 29.3755 23.5564 29.6705 23.3425 29.8882C23.1286 30.1058 22.8386 30.2284 22.536 30.229Z" fill="#444444"/>
<path fill-rule="evenodd" clip-rule="evenodd" d="M28.5733 1.21446C28.5968 1.20951 29.0297 1.37446 28.3779 1.65574C26.8731 2.30655 9.96444 9.64946 9.68555 8.27855C15.7953 5.50537 21.9974 2.60517 28.5733 1.21446Z" fill="white"/>
</svg>
