<svg width="220" height="82" viewBox="0 0 220 82" fill="none" xmlns="http://www.w3.org/2000/svg">
<path fill-rule="evenodd" clip-rule="evenodd" d="M6.59022 19.8632C6.85913 19.8632 19.365 17.194 19.365 17.194C31.1856 11.8288 44.4031 5.85985 57.5698 2.90704C60.8529 2.12319 64.1833 1.56031 67.5392 1.22209C80.6052 0.398522 93.7037 0.242107 106.785 0.753348C118.635 1.61417 126.524 2.9454 130.602 4.47352C134.68 6.00164 167.154 22.8243 167.495 23.0679C167.859 23.2799 168.238 23.4634 168.629 23.6167C168.629 23.6167 193.754 26.336 199.911 28.6082C205.029 30.5029 209.916 32.9917 214.473 36.0252C216.018 37.8498 217.183 39.974 217.899 42.2695C218.092 42.9394 218.215 43.6284 218.264 44.3248C218.264 44.3248 219.74 45.4408 219.822 46.1048C220.072 48.9575 220.059 51.8277 219.783 54.6779C219.639 56.4652 219.33 58.2347 218.86 59.9629C219.131 60.1225 219.334 60.3805 219.427 60.6854C219.52 60.9904 219.497 61.3198 219.361 61.6079C218.976 62.8207 214.09 64.5824 209.472 65.0912C204.855 65.6 201.007 66.1088 201.007 66.1088H200.2C200.2 66.1088 199.988 67.5769 199.757 67.5185C199.526 67.4601 197.026 67.068 197.026 67.068L165.975 66.8128L163.82 65.7952L64.0532 65.3648L60.8213 65.7568L29.8099 61.4511L26.8092 62.3119C26.8092 62.3119 9.75647 59.2973 6.45577 58.3981C4.23515 57.6864 2.3032 56.2573 0.952937 54.3276C0.542646 53.8909 0.228033 53.3706 0.0298104 52.8011C-0.162033 52.0571 0.634837 51.0979 0.634837 51.0979C0.634837 51.0979 0.27901 42.5347 0.682374 41.9091C1.937 40.7133 2.90474 39.2402 3.51085 37.6034C4.12737 35.2928 3.66498 30.7519 4.62748 27.1901C5.58998 23.6284 5.1276 21.7884 5.64738 20.8875C6.16716 19.9866 6.59022 19.8632 6.59022 19.8632Z" fill="#A02167"/>
<path fill-rule="evenodd" clip-rule="evenodd" d="M107.859 25.4669C133.94 26.6797 158.778 27.7724 158.74 27.5672C158.663 27.1368 157.24 24.3975 152.583 20.7557C144.919 15.1931 136.577 10.6666 127.767 7.28958C120.88 5.00073 111.896 4.04315 103.47 3.74454L107.859 25.4669Z" fill="white"/>
<path fill-rule="evenodd" clip-rule="evenodd" d="M48.4893 17.3307C48.0344 17.7265 47.7511 18.2887 47.7007 18.8955C47.7791 20.188 48.1267 21.4487 48.7205 22.5941C48.8205 22.6391 73.1962 23.8386 98.977 25.0497C98.5392 20.5454 97.3505 8.86766 96.8455 3.63102C88.6228 3.55076 80.4016 3.90882 72.2157 4.70371C67.0142 5.98543 62.0059 7.97348 57.3257 10.6143C54.2234 12.6312 51.27 14.8759 48.4893 17.3307Z" fill="white"/>
<path fill-rule="evenodd" clip-rule="evenodd" d="M10.2054 31.833C8.13664 31.7003 6.07742 31.4429 4.03857 31.0622C4.1123 29.7565 4.30887 28.4611 4.62559 27.1935C5.052 25.5673 5.29728 23.8975 5.35686 22.2155C5.57002 22.2572 5.76023 22.2956 5.85861 22.3206C6.16687 22.399 6.31937 22.6542 7.66228 23.822C9.00518 24.9898 12.5682 26.7765 12.7994 27.1302C13.0306 27.4838 10.3973 31.6178 10.2054 31.833Z" fill="white"/>
<path fill-rule="evenodd" clip-rule="evenodd" d="M215.788 37.7369C216.677 39.1527 217.385 40.6774 217.897 42.2746C218.048 42.8508 218.162 43.4365 218.238 44.0279C217.207 43.9045 215.875 43.7343 214.762 43.6559C213.235 43.6591 211.721 43.951 210.299 44.5167C209.876 44.5551 201.757 36.7661 202.1 36.2172C202.443 35.6683 205.216 35.9036 209.526 36.2956C211.664 36.5087 213.768 36.9929 215.788 37.7369Z" fill="white"/>
<path fill-rule="evenodd" clip-rule="evenodd" d="M214.746 55.4587C215.728 55.133 216.753 54.9548 217.786 54.9298C217.876 55.1186 217.897 55.3342 217.843 55.5371C217.746 55.849 215.9 61.2091 214.977 61.7413C213.028 62.2456 211.024 62.4951 209.013 62.4837C210.751 60.0009 212.667 57.6528 214.746 55.4587Z" fill="white"/>
<path fill-rule="evenodd" clip-rule="evenodd" d="M159.014 24.4943C157.167 22.782 154.972 21.5055 152.585 20.7558C151.165 20.3454 149.856 28.7233 150.471 29.3489C151.086 29.9745 159.783 32.4018 160.937 30.837C162.092 29.2722 159.014 24.4943 159.014 24.4943Z" fill="#BD3D78"/>
<path d="M195.404 67.7396C200.014 60.2181 197.759 50.3181 190.366 45.6274C182.973 40.9368 173.243 43.2316 168.632 50.7532C164.022 58.2747 166.278 68.1747 173.67 72.8654C181.063 77.556 190.794 75.2612 195.404 67.7396Z" fill="#BD3D78"/>
<path d="M184.315 71.4217C190.925 70.1304 195.254 63.6322 193.985 56.9076C192.716 50.183 186.329 45.7784 179.719 47.0697C173.11 48.361 168.781 54.8592 170.05 61.5838C171.319 68.3084 177.706 72.713 184.315 71.4217Z" fill="white"/>
<path fill-rule="evenodd" clip-rule="evenodd" d="M182.017 70.1292C179.902 70.1292 177.834 69.491 176.075 68.2953C174.316 67.0995 172.945 65.4 172.135 63.4116C171.326 61.4231 171.114 59.2351 171.527 57.1242C171.94 55.0133 172.958 53.0743 174.454 51.5524C175.95 50.0306 177.856 48.9941 179.93 48.5742C182.005 48.1544 184.156 48.3698 186.11 49.1935C188.064 50.0171 189.735 51.4119 190.91 53.2015C192.085 54.991 192.713 57.0949 192.713 59.2472C192.707 62.1315 191.578 64.896 189.574 66.9356C187.569 68.9751 184.852 70.1234 182.017 70.1292Z" fill="#BD3D78"/>
<path fill-rule="evenodd" clip-rule="evenodd" d="M172.877 53.5883C173.223 54.5485 173.802 55.4039 174.56 56.0749C175.319 56.7458 176.232 57.2105 177.214 57.4254C176.376 56.4557 175.751 55.3152 175.381 54.0802C175.011 52.8451 174.904 51.544 175.068 50.2635C176.326 49.2487 177.88 48.6882 179.485 48.6703C179.062 49.5988 178.877 50.6214 178.947 51.6424C179.017 52.6635 179.341 53.6498 179.887 54.5092C179.968 53.2209 180.319 51.965 180.915 50.8255C181.511 49.686 182.34 48.689 183.345 47.9013C184.94 48.089 186.428 48.8108 187.576 49.9532C186.632 50.3049 185.791 50.8939 185.132 51.6655C184.472 52.4371 184.015 53.3661 183.804 54.3658C184.757 53.513 185.878 52.877 187.092 52.5002C188.306 52.1233 189.585 52.0143 190.843 52.1803C191.841 53.4603 192.392 55.0413 192.409 56.6746C191.497 56.2436 190.492 56.055 189.488 56.1265C188.485 56.1979 187.515 56.5272 186.67 57.0833C187.937 57.1662 189.171 57.5228 190.291 58.1296C191.411 58.7363 192.391 59.5791 193.165 60.6017C192.98 62.2242 192.271 63.7381 191.148 64.9058C190.803 63.9456 190.224 63.0902 189.465 62.4192C188.707 61.7483 187.794 61.2837 186.811 61.0688C187.649 62.0385 188.274 63.1789 188.645 64.414C189.015 65.649 189.122 66.9502 188.958 68.2306C187.7 69.2454 186.146 69.8059 184.54 69.8238C184.964 68.8952 185.149 67.8728 185.079 66.8517C185.008 65.8307 184.685 64.8444 184.139 63.9849C184.057 65.2733 183.706 66.5292 183.11 67.6687C182.513 68.8082 181.684 69.8051 180.679 70.5928C179.084 70.4044 177.596 69.6827 176.449 68.5409C177.392 68.189 178.233 67.5996 178.893 66.8278C179.552 66.0559 180.009 65.1266 180.22 64.1267C179.267 64.9797 178.146 65.6159 176.932 65.9928C175.718 66.3696 174.439 66.4785 173.181 66.3121C172.183 65.0321 171.632 63.4512 171.615 61.8179C172.527 62.2491 173.532 62.4377 174.536 62.3662C175.54 62.2947 176.509 61.9655 177.354 61.4091C176.087 61.3264 174.853 60.9698 173.733 60.3631C172.613 59.7564 171.633 58.9135 170.859 57.8908C171.044 56.2687 171.754 54.7552 172.877 53.5883Z" fill="white"/>
<path fill-rule="evenodd" clip-rule="evenodd" d="M182.017 61.5944C181.56 61.5944 181.114 61.4567 180.734 61.1986C180.355 60.9405 180.059 60.5736 179.884 60.1444C179.709 59.7152 179.664 59.2429 179.753 58.7873C179.842 58.3316 180.062 57.9131 180.384 57.5846C180.707 57.2561 181.119 57.0324 181.567 56.9417C182.014 56.8511 182.479 56.8976 182.9 57.0754C183.322 57.2532 183.683 57.5542 183.937 57.9405C184.19 58.3268 184.326 58.7809 184.326 59.2455C184.324 59.8681 184.081 60.4647 183.648 60.905C183.215 61.3452 182.629 61.5931 182.017 61.5944Z" fill="#BD3D78"/>
<path d="M59.3321 66.6858C63.3698 58.8309 60.3844 49.1329 52.6639 45.0249C44.9435 40.9169 35.4116 43.9543 31.3739 51.8093C27.3362 59.6642 30.3217 69.3621 38.0421 73.4702C45.7626 77.5782 55.2944 74.5407 59.3321 66.6858Z" fill="#BD3D78"/>
<path d="M57.2242 62.0653C58.7587 55.3958 54.6885 48.7235 48.1333 47.1623C41.578 45.6011 35.02 49.7421 33.4855 56.4116C31.951 63.081 36.0211 69.7533 42.5764 71.3145C49.1316 72.8757 55.6897 68.7347 57.2242 62.0653Z" fill="white"/>
<path fill-rule="evenodd" clip-rule="evenodd" d="M45.3527 70.1292C43.2373 70.1292 41.1694 69.491 39.4105 68.2953C37.6516 67.0996 36.2807 65.4 35.4711 63.4116C34.6616 61.4232 34.4498 59.2351 34.8625 57.1242C35.2752 55.0133 36.2939 53.0744 37.7897 51.5525C39.2855 50.0306 41.1913 48.9942 43.2661 48.5743C45.3408 48.1544 47.4914 48.3699 49.4458 49.1935C51.4002 50.0171 53.0706 51.4119 54.2459 53.2015C55.4211 54.991 56.0484 57.095 56.0484 59.2472C56.0432 62.1317 54.9146 64.8965 52.9099 66.9361C50.9052 68.9758 48.1877 70.1239 45.3527 70.1292Z" fill="#BD3D78"/>
<path fill-rule="evenodd" clip-rule="evenodd" d="M36.2133 53.5901C36.5593 54.5503 37.1386 55.4057 37.8972 56.0766C38.6559 56.7475 39.5691 57.2122 40.5519 57.4271C39.7138 56.4574 39.0887 55.317 38.7183 54.082C38.3479 52.847 38.2407 51.5458 38.4039 50.2653C39.6622 49.251 41.216 48.6906 42.8212 48.6721C42.3975 49.6005 42.2122 50.6231 42.2824 51.6442C42.3527 52.6653 42.6763 53.6516 43.2229 54.511C43.3031 53.2218 43.6528 51.9649 44.2486 50.8242C44.8444 49.6835 45.6725 48.6854 46.6777 47.8963C48.2725 48.084 49.7607 48.8059 50.9082 49.9483C49.9645 50.3001 49.1238 50.8892 48.4643 51.6607C47.8049 52.4323 47.3483 53.3612 47.1369 54.3608C48.09 53.5082 49.2108 52.8722 50.4247 52.4954C51.6386 52.1185 52.9175 52.0094 54.176 52.1754C55.1733 53.4555 55.7241 55.0364 55.742 56.6697C54.8294 56.2388 53.8244 56.0503 52.8208 56.1218C51.8172 56.1933 50.8477 56.5224 50.0031 57.0784C51.2725 57.1589 52.5104 57.5146 53.6337 58.1217C54.757 58.7288 55.7397 59.5733 56.5159 60.5984C56.331 62.2209 55.6216 63.7349 54.4991 64.9025C54.1531 63.9423 53.5737 63.0869 52.8151 62.416C52.0564 61.745 51.1432 61.2805 50.1605 61.0655C50.9988 62.0351 51.624 63.1754 51.9944 64.4105C52.3648 65.6456 52.4719 66.9468 52.3085 68.2274C51.0503 69.242 49.4964 69.8024 47.8911 69.8205C48.3146 68.892 48.4999 67.8695 48.4296 66.8484C48.3594 65.8273 48.0359 64.841 47.4894 63.9816C47.4082 65.27 47.0577 66.5258 46.4614 67.6653C45.865 68.8049 45.0365 69.8018 44.0313 70.5896C42.4366 70.4014 40.9486 69.6797 39.8009 68.5377C40.7447 68.1857 41.5856 67.5963 42.2451 66.8244C42.9045 66.0526 43.361 65.1233 43.5721 64.1234C42.6193 64.9764 41.4984 65.6126 40.2845 65.9895C39.0706 66.3664 37.7916 66.4752 36.533 66.3088C35.5361 65.0286 34.9853 63.4478 34.9671 61.8145C35.8796 62.2456 36.8847 62.4342 37.8883 62.3628C38.892 62.2913 39.8614 61.962 40.706 61.4058C39.4397 61.3232 38.2054 60.9666 37.0853 60.3599C35.9653 59.7532 34.9854 58.9103 34.2112 57.8875C34.3935 56.2693 35.0975 54.7581 36.2133 53.5901Z" fill="white"/>
<path fill-rule="evenodd" clip-rule="evenodd" d="M45.3526 61.5961C44.896 61.5961 44.4496 61.4583 44.07 61.2002C43.6903 60.9421 43.3944 60.5753 43.2197 60.1461C43.045 59.7169 42.9992 59.2446 43.0883 58.7889C43.1774 58.3333 43.3972 57.9148 43.7201 57.5863C44.043 57.2578 44.4544 57.034 44.9022 56.9434C45.3501 56.8528 45.8142 56.8993 46.2361 57.0771C46.6579 57.2549 47.0185 57.5559 47.2722 57.9422C47.5259 58.3285 47.6613 58.7826 47.6613 59.2472C47.66 59.8697 47.4163 60.4664 46.9837 60.9066C46.551 61.3468 45.9645 61.5947 45.3526 61.5961Z" fill="#BD3D78"/>
<path fill-rule="evenodd" clip-rule="evenodd" d="M57.5632 2.91529C57.6107 2.90528 58.4863 3.23889 57.168 3.80776C54.1247 5.12401 19.9273 19.9748 19.3633 17.2022C31.72 11.5935 44.2636 5.72796 57.5632 2.91529Z" fill="white"/>
</svg>
