<svg width="66" height="30" viewBox="0 0 66 30" fill="none" xmlns="http://www.w3.org/2000/svg">
<path d="M23.4543 17.3614C23.0651 17.9242 22.5164 18.3577 21.8787 18.6061C19.6437 19.4233 17.567 18.2734 17.1975 15.8679C17.0705 15.2319 17.0948 14.575 17.2683 13.9502C17.4417 13.3253 17.7596 12.75 18.1963 12.2706C18.9217 11.534 19.8585 11.0419 20.8765 10.8625C21.5464 10.706 22.2334 10.6349 22.9211 10.6509C23.1327 10.6573 23.1835 10.5832 23.1699 10.3881C23.1056 9.46845 22.4903 8.94916 21.425 8.9352C20.3725 8.92967 19.3429 9.2429 18.4718 9.83368L18.2805 9.12819C18.2145 9.39566 18.165 9.61827 18.1049 9.83749C17.7425 10.9236 17.2345 11.9557 16.5949 12.9054C15.7832 14.2681 14.7869 15.5064 13.8893 16.8121C12.6132 18.6112 11.5465 20.55 10.7101 22.591C10.2193 23.9347 9.83127 25.3137 9.54922 26.7161C9.53313 26.7868 9.54625 26.8706 9.45526 26.9277C9.38961 26.7837 9.34746 26.6301 9.33041 26.4728C8.61476 22.8128 6.9947 19.5625 4.84689 16.548C3.77489 15.0439 2.68384 13.5533 1.73669 11.9629C1.09807 10.9789 0.695023 9.86081 0.558883 8.69566C0.391407 7.09647 0.768363 5.48755 1.62877 4.12918C2.29003 3.07192 3.17281 2.17071 4.2162 1.48776C5.25959 0.804812 6.43873 0.356375 7.67226 0.173401C9.9609 -0.267744 12.3319 0.139502 14.3421 1.31904C15.2885 1.84131 16.1163 2.55421 16.7731 3.4127C17.43 4.27118 17.9016 5.25657 18.1582 6.30662C18.2272 6.5834 18.2683 6.86738 18.3275 7.17082C18.8362 6.93133 19.3683 6.74539 19.9154 6.61599C21.0784 6.31365 22.2987 6.30783 23.4645 6.59906C25.0262 7.04174 25.843 8.16283 26.1989 9.68217C26.3309 10.2697 26.3963 10.8702 26.394 11.4724C26.4041 13.3464 26.4012 15.2203 26.4168 17.0939C26.4272 17.526 26.4596 17.9572 26.5137 18.386C26.5336 18.5667 26.4744 18.5976 26.3131 18.5976C25.4985 18.5913 24.6838 18.5853 23.8695 18.6014C23.6651 18.6052 23.6308 18.5146 23.6088 18.3568C23.5665 18.047 23.514 17.7397 23.4543 17.3614ZM10.5501 12.6265H10.5548C10.5548 10.753 10.5548 8.87976 10.5548 7.00662C10.5548 6.67989 10.6458 6.5889 10.978 6.58848C12.0127 6.58848 13.0479 6.58255 14.0827 6.59229C14.2727 6.59229 14.3366 6.5415 14.3324 6.35275C14.3231 5.79368 14.3171 5.23377 14.3324 4.67471C14.3383 4.45506 14.263 4.41358 14.059 4.41147C10.8955 4.38142 7.73194 4.38734 4.56841 4.41147C4.41098 4.41147 4.34284 4.44152 4.34538 4.61842C4.35328 5.19455 4.35032 5.77097 4.33649 6.34767C4.33141 6.547 4.39066 6.6071 4.59296 6.60456C5.61925 6.59229 6.64555 6.59525 7.67184 6.59229C7.96809 6.59229 8.07559 6.69386 8.07559 6.97699C8.07559 7.79887 8.07559 8.62075 8.07559 9.44263C8.07982 12.3769 8.08349 15.3098 8.08659 18.2413C8.08659 18.4317 8.1251 18.5079 8.33629 18.5028C8.96349 18.4884 9.59196 18.4842 10.2192 18.5028C10.4854 18.5117 10.5603 18.4342 10.5577 18.1697C10.5472 16.322 10.5501 14.4746 10.5501 12.6265ZM23.2465 13.8H23.2698C23.2698 13.5711 23.2698 13.3425 23.2698 13.1136C23.2698 13.0163 23.2491 12.9485 23.1297 12.9545C22.4845 12.9427 21.8439 13.0646 21.2481 13.3125C20.9385 13.4488 20.6802 13.68 20.5104 13.9726C20.3406 14.2652 20.2682 14.6042 20.3035 14.9406C20.2916 15.1678 20.3413 15.3939 20.4474 15.5952C20.5534 15.7964 20.7119 15.9652 20.9061 16.0838C21.1002 16.2023 21.3228 16.2662 21.5502 16.2687C21.7777 16.2711 22.0016 16.212 22.1982 16.0977C22.4876 15.9707 22.7372 15.768 22.9208 15.5108C23.1044 15.2536 23.215 14.9516 23.241 14.6367C23.2597 14.3582 23.2627 14.0789 23.2499 13.8H23.2465Z" fill="#D5D5D5"/>
<path d="M50.0883 14.7108C50.1852 14.249 50.2812 13.7869 50.3799 13.3256C50.8398 11.1726 51.2991 9.01938 51.7578 6.86607C51.7896 6.71582 51.845 6.65657 52.008 6.65784C53.0177 6.66546 54.0271 6.66207 55.0373 6.66123C55.1605 6.66123 55.2553 6.65572 55.1973 6.83813C53.9971 10.6128 52.9923 14.4496 51.6025 18.1642C51.1992 19.3169 50.6553 20.4155 49.9833 21.4352C49.1554 22.7202 47.8538 23.6265 46.3614 23.9571C46.1705 23.9995 46.116 23.9525 46.0791 23.7718C45.8941 22.8689 45.7004 21.9661 45.4981 21.0632C45.4558 20.877 45.5112 20.8275 45.6818 20.7724C46.235 20.6032 46.7474 20.3218 47.187 19.9458C47.6267 19.5698 47.9841 19.1072 48.2371 18.587C48.2995 18.4519 48.3328 18.3053 48.3349 18.1566C48.337 18.0079 48.3079 17.8604 48.2494 17.7236C47.1795 14.6361 46.1113 11.5481 45.0448 8.45947C44.862 7.9313 44.6838 7.40143 44.4946 6.87622C44.4375 6.7171 44.4523 6.65573 44.644 6.65742C45.6961 6.66504 46.7482 6.66335 47.8004 6.65742C47.8287 6.65225 47.8579 6.65304 47.886 6.65973C47.9141 6.66643 47.9404 6.67889 47.9634 6.69632C47.9864 6.71375 48.0055 6.73577 48.0196 6.76099C48.0336 6.7862 48.0423 6.81405 48.045 6.84279C48.6887 9.4045 49.4348 11.94 49.9875 14.5245C50.0039 14.5864 50.0234 14.6474 50.0459 14.7074L50.0883 14.7108Z" fill="#D5D5D5"/>
<path d="M62.037 13.811C61.0107 13.811 59.9839 13.8169 58.9576 13.8063C58.7482 13.8042 58.7253 13.8677 58.76 14.0526C58.8491 14.5589 59.1007 15.0223 59.4767 15.3727C59.8527 15.7232 60.3327 15.9416 60.8439 15.9948C61.9811 16.1663 63.1432 16.0517 64.225 15.6613C64.4637 15.5809 64.5009 15.6503 64.5318 15.8551C64.6363 16.5416 64.7481 17.2272 64.8704 17.9102C64.8815 17.9387 64.8863 17.9692 64.8845 17.9997C64.8827 18.0302 64.8743 18.0599 64.8599 18.0869C64.8455 18.1138 64.8254 18.1373 64.8011 18.1558C64.7768 18.1742 64.7487 18.1872 64.7189 18.1938C63.7048 18.6096 62.6228 18.835 61.527 18.8587C60.7386 18.9036 59.9486 18.8071 59.1942 18.5738C58.5083 18.3658 57.8809 17.9994 57.3627 17.5043C56.8444 17.0092 56.4497 16.3992 56.2106 15.7235C55.7654 14.6085 55.5787 13.4071 55.6643 12.2095C55.7499 11.012 56.1056 9.84939 56.7049 8.80902C57.2728 7.76877 58.2134 6.98202 59.3377 6.6069C60.462 6.23178 61.6865 6.29609 62.7653 6.78691C63.7534 7.26855 64.5143 8.11718 64.8856 9.15183C65.4286 10.5757 65.6033 12.1137 65.3935 13.6231C65.3744 13.8 65.283 13.8131 65.1395 13.8127C64.1065 13.8093 63.0717 13.811 62.037 13.811ZM60.6057 11.2751H62.2845C62.3937 11.2751 62.5101 11.2984 62.4932 11.1151C62.4726 10.6229 62.3445 10.1411 62.1178 9.7037C61.9944 9.48024 61.8204 9.28876 61.6098 9.1446C61.3991 9.00044 61.1577 8.90759 60.9047 8.87349C60.6517 8.83939 60.3943 8.86499 60.1529 8.94823C59.9116 9.03147 59.6932 9.17004 59.515 9.35285C59.0683 9.8357 58.7934 10.4525 58.7329 11.1075C58.7067 11.2823 58.8083 11.2768 58.9272 11.2768C59.4867 11.2742 60.0462 11.2764 60.6057 11.2764V11.2751Z" fill="#D5D5D5"/>
<path d="M33.2389 10.4355C33.7294 9.23523 34.2682 8.12344 34.7786 6.99896C34.8138 6.8857 34.8884 6.78876 34.9888 6.72559C35.0892 6.66243 35.2088 6.63721 35.3262 6.65447C36.2505 6.67478 37.1752 6.66209 38.0999 6.66209H38.3746C38.397 6.78059 38.3264 6.83984 38.2857 6.9084C37.2469 8.65571 36.2059 10.4017 35.1628 12.1465C35.1195 12.2061 35.0957 12.2777 35.0947 12.3513C35.0937 12.425 35.1156 12.4972 35.1573 12.5579C36.2171 14.4779 37.273 16.4 38.3251 18.3242C38.3674 18.3974 38.4034 18.4723 38.4415 18.5447C38.3877 18.6268 38.3145 18.5929 38.2531 18.5933C37.1841 18.5959 36.1155 18.5933 35.0469 18.5993C34.9817 18.6068 34.9159 18.5914 34.8608 18.5559C34.8057 18.5203 34.7647 18.4667 34.7447 18.4042C34.1869 17.2077 33.5737 16.0371 33.0785 14.8115C33.0599 14.7654 33.0362 14.7222 33.0138 14.6807C32.9109 14.6896 32.9139 14.7755 32.8893 14.8301C32.3592 16.0208 31.831 17.2122 31.3048 18.4046C31.2625 18.5036 31.2358 18.5997 31.0835 18.5984C29.9725 18.5916 28.8616 18.5946 27.7485 18.5946C27.7193 18.4676 27.8061 18.3961 27.8531 18.3136C28.9137 16.4616 29.9773 14.6113 31.0441 12.7627C31.0951 12.6939 31.123 12.6108 31.124 12.5251C31.125 12.4395 31.099 12.3557 31.0496 12.2858C29.9984 10.4968 28.9585 8.70113 27.9178 6.90713C27.7765 6.6642 27.7778 6.66251 28.0621 6.66209C29.0715 6.66209 30.0813 6.66759 31.0907 6.65701C31.1763 6.64652 31.2629 6.66499 31.3368 6.70948C31.4106 6.75396 31.4675 6.82191 31.4982 6.90247C32.0577 8.00283 32.6147 9.10742 33.1297 10.2311C33.1513 10.2823 33.1818 10.3305 33.2389 10.4355Z" fill="#D5D5D5"/>
<path d="M39.8203 12.6426C39.8203 10.7525 39.8262 8.86242 39.8135 6.9715C39.8135 6.70446 39.8922 6.65029 40.1411 6.65452C41.023 6.66933 41.905 6.6651 42.787 6.65452C42.9728 6.65452 43.0341 6.70023 43.0337 6.89448C43.0284 10.717 43.0284 14.54 43.0337 18.3636C43.0337 18.5633 42.9656 18.598 42.7853 18.5963C41.8779 18.5879 40.9701 18.5849 40.0628 18.5963C39.8482 18.5993 39.816 18.5219 39.8164 18.3348C39.8224 16.4397 39.8203 14.5411 39.8203 12.6426Z" fill="#D5D5D5"/>
<path d="M9.58579 27.955C10.4165 27.9494 11.2433 28.0699 12.0379 28.3126C12.258 28.3772 12.4642 28.4821 12.646 28.622C12.9355 28.8598 12.9326 29.0985 12.6363 29.333C12.4531 29.4709 12.2463 29.5743 12.026 29.6381C10.9496 29.9529 9.82391 30.0638 8.70677 29.9652C8.07957 29.9385 7.45881 29.8276 6.86114 29.6356C6.68364 29.5784 6.51401 29.4992 6.35624 29.3998C5.93303 29.1226 5.93303 28.8128 6.36598 28.5403C6.68185 28.3573 7.02688 28.2302 7.38592 28.1645C8.10914 28.013 8.84699 27.9428 9.58579 27.955Z" fill="#D5D5D5"/>
<path d="M39.7458 3.33789C39.7394 2.33275 40.2849 1.61075 41.1318 1.49225C42.3168 1.32635 43.195 2.19309 43.1302 3.46316C43.1352 3.72334 43.0809 3.98124 42.9713 4.21729C42.8618 4.45334 42.6999 4.66133 42.498 4.82548C42.2961 4.98963 42.0594 5.10562 41.806 5.16466C41.5525 5.22369 41.289 5.22421 41.0353 5.16617C40.6821 5.08182 40.3658 4.88537 40.1335 4.60623C39.9013 4.32709 39.7657 3.98026 39.747 3.61763C39.7403 3.52452 39.7458 3.43099 39.7458 3.33789Z" fill="#D5D5D5"/>
<path d="M35.7929 20.1974C36.0811 20.1047 36.1314 20.1356 36.1653 20.428C35.9715 20.9435 35.693 21.4192 35.4649 21.9186C35.0884 22.7129 34.7859 23.5403 34.5613 24.3902C34.5008 24.5932 34.4806 24.8061 34.5016 25.0169C34.5219 25.1617 34.5097 25.3432 34.329 25.3555C34.1174 25.372 34.1174 25.1735 34.1144 25.025C34.1192 24.6948 34.1774 24.3675 34.2866 24.0558C34.5559 23.2193 34.885 22.4032 35.2715 21.6139C35.3036 21.5453 35.3303 21.4738 35.3599 21.4023C35.3874 21.3697 35.4065 21.3265 35.3705 21.2982C35.3434 21.277 35.3172 21.3125 35.3024 21.3405C34.796 22.0508 34.3413 22.7966 33.9417 23.5721C33.8325 23.7723 33.7115 23.9665 33.5867 24.1574C33.5546 24.2283 33.4979 24.2852 33.4271 24.3175C33.3562 24.3497 33.276 24.3551 33.2015 24.3326C33.0394 24.2716 33.0492 24.107 33.0585 23.9619C33.1144 23.4052 33.2572 22.8606 33.4817 22.3481C33.5913 22.0684 33.7085 21.7916 33.849 21.4488C33.7195 21.5384 33.6147 21.6592 33.5443 21.8001C32.9112 22.8328 32.3872 23.9286 31.981 25.0698C31.9382 25.189 31.8861 25.3046 31.8252 25.4156C31.7753 25.5057 31.6957 25.5993 31.5819 25.5481C31.4579 25.4922 31.5082 25.3733 31.5396 25.2802C31.7219 24.7435 31.9321 24.2168 32.1693 23.702C32.6717 22.6365 33.2772 21.6227 33.9773 20.6752C34.0576 20.566 34.1457 20.4627 34.2409 20.3662C34.2708 20.3237 34.3158 20.2941 34.3667 20.2837C34.4176 20.2733 34.4706 20.2829 34.5148 20.3104C34.5629 20.3393 34.599 20.3844 34.6166 20.4377C34.6343 20.491 34.6322 20.5488 34.6108 20.6007C34.5645 20.7278 34.5097 20.8517 34.4466 20.9714C34.0514 21.7304 33.7452 22.5325 33.5342 23.3617C33.4975 23.4559 33.4856 23.5579 33.4995 23.658C33.5964 23.6233 33.6116 23.531 33.6506 23.4608C34.2096 22.4532 34.827 21.4792 35.4996 20.5436C35.5906 20.4263 35.6951 20.3142 35.7929 20.1974Z" fill="#D5D5D5"/>
<path d="M15.7596 23.6413C15.6889 23.6689 15.6178 23.6947 15.548 23.726C15.4634 23.7628 15.3749 23.817 15.3076 23.6976C15.2929 23.6764 15.2828 23.6524 15.2779 23.6271C15.2729 23.6018 15.2733 23.5757 15.2789 23.5505C15.2846 23.5253 15.2954 23.5016 15.3107 23.4808C15.326 23.46 15.3454 23.4426 15.3677 23.4297C15.4875 23.3503 15.6182 23.2889 15.7558 23.2473C15.8968 23.2055 16.0278 23.1355 16.1409 23.0416C16.254 22.9477 16.3469 22.8318 16.4139 22.701C16.8909 21.9293 17.4364 21.2021 18.0437 20.5282C18.1063 20.459 18.1736 20.3942 18.2452 20.3344C18.3256 20.2654 18.4233 20.2121 18.5228 20.2768C18.5706 20.3061 18.6068 20.351 18.6251 20.4039C18.6435 20.4569 18.6429 20.5146 18.6235 20.5671C18.5355 20.8587 18.4419 21.1486 18.359 21.4415C18.2782 21.7263 18.2071 22.0137 18.1343 22.3006C18.1042 22.4191 18.0987 22.5211 18.2765 22.4995C18.3984 22.4847 18.5012 22.5135 18.4982 22.6688C18.4953 22.8123 18.4136 22.9054 18.2765 22.8885C18.0014 22.8538 17.9608 23.0192 17.9256 23.2296C17.8002 23.8691 17.7166 24.5162 17.6755 25.1666C17.6721 25.2648 17.659 25.3698 17.5426 25.3782C17.4157 25.3892 17.3712 25.2847 17.3505 25.1802C17.3143 24.8939 17.3253 24.6037 17.3831 24.321C17.4334 23.9355 17.4995 23.5512 17.5782 23.1703C17.6129 23.001 17.549 22.9947 17.4254 23.0277C17.1221 23.1066 16.8235 23.2027 16.5311 23.3155C16.4296 23.359 16.3487 23.4399 16.3051 23.5415C16.0337 24.0584 15.7624 24.5752 15.4913 25.0921C15.4616 25.1528 15.4283 25.2116 15.3914 25.2682C15.3398 25.3423 15.2683 25.3981 15.176 25.3494C15.1568 25.3399 15.1397 25.3266 15.1258 25.3102C15.1119 25.2939 15.1014 25.2749 15.095 25.2544C15.0887 25.2339 15.0865 25.2123 15.0887 25.191C15.0909 25.1697 15.0974 25.149 15.1079 25.1302C15.19 24.9355 15.2695 24.7396 15.3618 24.5508C15.5044 24.2631 15.658 23.9804 15.8058 23.6955L15.8223 23.6354L15.7596 23.6413ZM16.7025 22.8686C17.05 22.7657 17.3297 22.6811 17.6108 22.6015C17.6389 22.5942 17.6642 22.5786 17.6834 22.5567C17.7026 22.5348 17.7147 22.5077 17.7183 22.4788C17.8486 21.9921 17.9823 21.5054 18.1334 20.9522C17.5827 21.5325 17.1024 22.1757 16.7025 22.8686Z" fill="#D5D5D5"/>
<path d="M26.7359 24.5413C26.9808 24.3609 27.1842 24.13 27.3322 23.8641C27.383 23.7901 27.3927 23.6221 27.5248 23.6949C27.6153 23.744 27.5641 23.8815 27.5205 23.9729C27.323 24.3784 27.0258 24.7271 26.6568 24.9865C26.5122 25.0869 26.4043 25.2318 26.3495 25.3991C26.2162 25.7824 26.0548 26.1553 25.8666 26.5147C25.7592 26.7361 25.6107 26.935 25.429 27.1009C25.3555 27.1849 25.2562 27.242 25.1466 27.2635C25.0371 27.2849 24.9236 27.2694 24.8238 27.2194C24.7348 27.1605 24.6665 27.0751 24.6286 26.9754C24.5906 26.8756 24.5849 26.7665 24.6122 26.6633C24.6609 26.3516 24.8094 26.0641 25.0354 25.8439C25.2038 25.6411 25.4079 25.4709 25.6376 25.3416C25.8357 25.2389 26.0082 25.0931 26.1424 24.9149C26.2766 24.7367 26.3691 24.5306 26.413 24.3119C26.4252 24.2827 26.4439 24.2522 26.4075 24.2273C26.3935 24.2427 26.3803 24.259 26.3681 24.2759C26.2092 24.4731 26.033 24.6557 25.8416 24.8215C25.7261 24.8972 25.6055 24.9742 25.465 24.9027C25.3118 24.8248 25.3329 24.6691 25.3566 24.5417C25.4877 23.9608 25.7787 23.428 26.1967 23.0038C26.2564 22.9373 26.3381 22.8941 26.4214 22.9614C26.4402 22.9759 26.4557 22.9941 26.467 23.015C26.4782 23.0358 26.485 23.0588 26.4868 23.0824C26.4887 23.106 26.4855 23.1297 26.4776 23.1521C26.4697 23.1744 26.4572 23.1948 26.4409 23.212C26.3334 23.3639 26.2145 23.5082 26.1023 23.6572C25.9604 23.8368 25.8428 24.0343 25.7523 24.2446C25.7278 24.3073 25.6867 24.3822 25.7523 24.4308C25.8179 24.4795 25.8823 24.4215 25.9326 24.3788C26.219 24.1266 26.4693 23.836 26.6762 23.5154C26.7934 23.3394 26.9039 23.1587 27.0233 22.9843C27.0846 22.8946 27.1561 22.7773 27.2844 22.8544C27.4016 22.9246 27.3622 23.0503 27.3161 23.1506C27.1671 23.4731 27.0089 23.7909 26.8599 24.113C26.7998 24.2429 26.7537 24.3792 26.7016 24.5125C26.6881 24.5349 26.6758 24.5582 26.7054 24.5764C26.708 24.5752 26.7253 24.5527 26.7359 24.5413ZM25.9005 25.5172C25.5889 25.6967 25.3197 25.9412 25.1112 26.2341C25.0097 26.3611 24.9532 26.5181 24.9503 26.6806C24.9558 26.8715 25.0773 26.9384 25.2369 26.83C25.3049 26.7798 25.3637 26.7183 25.4108 26.648C25.6322 26.2992 25.7972 25.9175 25.8996 25.5172H25.9005Z" fill="#D5D5D5"/>
<path d="M43.5205 24.6124C43.8232 24.3631 44.0726 24.0555 44.254 23.708C44.2963 23.6381 44.3136 23.4883 44.4342 23.5476C44.5396 23.5992 44.4668 23.7194 44.4342 23.7977C44.2131 24.2866 43.8697 24.7103 43.4372 25.028C43.2974 25.1357 43.1903 25.2802 43.1278 25.4452C42.9642 25.8994 42.7436 26.331 42.4714 26.7297C42.3846 26.8557 42.2732 26.9629 42.1438 27.0446C42.0888 27.0905 42.0215 27.1192 41.9502 27.1268C41.879 27.1345 41.8071 27.1208 41.7436 27.0875C41.6802 27.0542 41.628 27.0029 41.5938 26.9399C41.5595 26.877 41.5448 26.8053 41.5513 26.7339C41.545 26.4515 41.6405 26.1763 41.8205 25.9586C42.1051 25.6324 42.445 25.359 42.8248 25.1511C43.0448 25.0055 43.0736 24.9619 43.121 24.6433C43.0457 24.7008 42.9831 24.7524 42.917 24.7977C42.6597 24.9738 42.4595 24.8853 42.4168 24.5751C42.4071 24.5165 42.4078 24.4566 42.4189 24.3982C42.5407 23.7785 42.8619 23.2156 43.3335 22.7955C43.4106 22.7295 43.4973 22.6759 43.5908 22.6364C43.887 22.5115 44.0771 22.6516 44.0525 22.9716C44.0424 23.3524 43.9345 23.7242 43.7389 24.0512C43.6242 24.2191 43.5494 24.4111 43.5205 24.6124ZM42.7482 24.3309C42.7329 24.4253 42.7359 24.4951 42.8045 24.5336C42.8323 24.5454 42.8632 24.5476 42.8925 24.54C42.9217 24.5323 42.9476 24.5152 42.9661 24.4913C43.0225 24.4404 43.0754 24.3857 43.1244 24.3275C43.3408 23.9669 43.5385 23.5954 43.7169 23.2145C43.7399 23.1884 43.7526 23.1547 43.7526 23.1199C43.7526 23.0851 43.7399 23.0514 43.7169 23.0253C43.6458 22.9656 43.5717 23.0139 43.5138 23.0651C43.1383 23.4015 42.8717 23.8422 42.7482 24.3309ZM42.7587 25.5261C42.365 25.7207 42.0573 26.0544 41.8954 26.4627C41.8581 26.5608 41.8239 26.6666 41.9322 26.7344C42.0329 26.797 42.1117 26.7157 42.1696 26.6497C42.4309 26.3128 42.6304 25.9322 42.7587 25.5257V25.5261Z" fill="#D5D5D5"/>
<path d="M18.9559 24.6534C19.2443 24.5571 19.5384 24.4788 19.8366 24.419C19.9207 24.4075 20.0056 24.4029 20.0905 24.4054C20.1161 24.4031 20.1419 24.4066 20.166 24.4157C20.19 24.4248 20.2116 24.4393 20.2293 24.458C20.2469 24.4767 20.26 24.4992 20.2676 24.5237C20.2753 24.5483 20.2772 24.5743 20.2733 24.5997C20.2678 24.7186 20.217 24.8041 20.0918 24.7952C19.7005 24.7953 19.3168 24.9032 18.9829 25.1071C18.8496 25.1736 18.7019 25.2709 18.5597 25.1494C18.4977 25.0903 18.4566 25.0126 18.4427 24.9281C18.4288 24.8436 18.4429 24.7568 18.4827 24.6809C18.7004 24.0583 18.9705 23.4554 19.2902 22.8785C19.6944 22.1253 20.1383 21.3941 20.6199 20.6879C20.6608 20.6238 20.7068 20.5631 20.7575 20.5064C20.7695 20.4886 20.7849 20.4734 20.8028 20.4616C20.8207 20.4498 20.8408 20.4418 20.8618 20.4378C20.8829 20.4339 20.9045 20.4342 20.9255 20.4387C20.9465 20.4432 20.9663 20.4518 20.9839 20.464C21.015 20.4875 21.0363 20.5216 21.0437 20.5599C21.051 20.5981 21.0439 20.6377 21.0237 20.671C20.9638 20.7923 20.8952 20.9092 20.8184 21.0206C20.1075 22.0213 19.5073 23.0962 19.0282 24.2264C18.9796 24.3534 18.9465 24.4829 18.9068 24.6111L18.919 24.6733L18.9559 24.6534Z" fill="#D5D5D5"/>
<path d="M21.7473 24.2861C21.5518 24.4672 21.4151 24.681 21.2263 24.8503C21.1243 24.9417 21.0147 25.0509 20.8704 24.9738C20.8139 24.9352 20.7699 24.8809 20.7438 24.8176C20.7177 24.7543 20.7107 24.6847 20.7235 24.6175C20.7348 24.4399 20.7786 24.2659 20.8526 24.1041C20.9989 23.7428 21.1958 23.4041 21.4375 23.0982C21.5137 23.0017 21.6119 22.8311 21.7592 22.9488C21.9064 23.0664 21.7765 23.1921 21.6898 23.2962C21.4543 23.5743 21.2626 23.8867 21.1214 24.2226C21.0922 24.2929 21.0418 24.383 21.1129 24.4304C21.184 24.4778 21.2551 24.3979 21.3063 24.3458C21.5862 24.0288 21.8409 23.6905 22.0681 23.3339C22.1604 23.2069 22.2471 22.9725 22.4435 23.0965C22.6128 23.2044 22.4283 23.3699 22.3762 23.4964C22.2388 23.7773 22.1232 24.0683 22.0304 24.367C22.0131 24.4393 21.9805 24.5273 22.0728 24.5667C22.1498 24.5997 22.1955 24.521 22.2357 24.4728C22.5571 24.0767 22.7696 23.6036 22.8523 23.1003C22.866 22.991 22.9026 22.8858 22.9598 22.7917C22.9764 22.7617 23.0021 22.7377 23.0332 22.7233C23.0644 22.7089 23.0993 22.7049 23.1329 22.7118C23.2176 22.7308 23.2235 22.8019 23.2214 22.8717C23.2223 22.9225 23.2183 22.9732 23.2095 23.0233C23.0571 23.6941 22.7423 24.3172 22.2928 24.838C22.1794 24.9713 22.0368 25.0919 21.8523 25.0094C21.6546 24.9247 21.7088 24.7254 21.7122 24.5612C21.719 24.469 21.7307 24.3771 21.7473 24.2861Z" fill="#D5D5D5"/>
<path d="M24.3937 24.5401C24.293 24.6812 24.1839 24.8161 24.067 24.9442C24.0296 24.9919 23.9789 25.0274 23.9214 25.0463C23.8638 25.0652 23.8019 25.0667 23.7436 25.0505C23.6852 25.0344 23.6329 25.0013 23.5932 24.9555C23.5535 24.9097 23.5283 24.8532 23.5207 24.7931C23.4799 24.6367 23.4782 24.4726 23.5156 24.3153C23.6059 23.7864 23.853 23.2967 24.2249 22.9098C24.3282 22.7959 24.4595 22.7109 24.6058 22.6631C24.902 22.5751 25.0476 22.7477 25.0561 23.0487C25.0147 23.3873 24.9211 23.7175 24.7789 24.0276C24.7189 24.2037 24.6873 24.3883 24.6853 24.5743C24.6851 24.6298 24.7002 24.6843 24.7288 24.7317C24.7575 24.7792 24.7987 24.8179 24.8479 24.8435C24.9672 24.9074 25.0061 25.0098 24.9325 25.1165C24.8589 25.2231 24.7323 25.1952 24.6362 25.1343C24.4293 25.006 24.4115 24.7902 24.3937 24.5401ZM23.8178 24.3522C23.8199 24.4728 23.7974 24.5824 23.9075 24.6226C24.0014 24.6569 24.0624 24.5748 24.1191 24.5134C24.1523 24.475 24.1824 24.4341 24.2092 24.3911C24.4521 24.0314 24.5571 23.6035 24.7806 23.2332C24.8483 23.121 24.7535 23.0639 24.6485 23.052C24.6015 23.0504 24.5548 23.06 24.5123 23.0801C24.4698 23.1001 24.4326 23.1299 24.4039 23.1672C24.0959 23.4957 23.892 23.908 23.8178 24.3522Z" fill="#D5D5D5"/>
<path d="M41.3804 23.8606C41.132 24.1156 40.9313 24.413 40.7879 24.7388C40.7509 24.8148 40.7084 24.8881 40.661 24.958C40.6461 24.9842 40.6224 25.0042 40.5941 25.0146C40.5658 25.0249 40.5347 25.0248 40.5065 25.0143C40.4777 25.0051 40.453 24.9862 40.4365 24.9608C40.4201 24.9354 40.413 24.9051 40.4164 24.8751C40.4201 24.7912 40.4343 24.7082 40.4587 24.6279C40.6365 24.1251 40.8578 23.6386 41.1201 23.1742C41.1769 23.0722 41.2331 22.8944 41.3902 22.9795C41.5311 23.0561 41.449 23.2025 41.3948 23.3181C41.3888 23.3264 41.3845 23.3358 41.3821 23.3458C41.3798 23.3558 41.3795 23.3661 41.3812 23.3763C41.3829 23.3864 41.3865 23.3961 41.392 23.4048C41.3975 23.4134 41.4046 23.4209 41.413 23.4268C41.5645 23.2939 41.7156 23.1526 41.8785 23.0239C41.9678 22.9528 42.0838 22.8432 42.1926 22.9393C42.3013 23.0354 42.2349 23.181 42.1625 23.2868C41.9193 23.6025 41.7302 23.9565 41.603 24.3342C41.5044 24.5988 41.5131 24.8915 41.6272 25.1497C41.6695 25.2344 41.7084 25.3393 41.5988 25.3952C41.4774 25.4574 41.3872 25.3863 41.3322 25.2759C41.1952 24.9529 41.1851 24.5902 41.3038 24.2601C41.3347 24.1378 41.3885 24.0206 41.4308 23.9013C41.4439 23.875 41.468 23.8458 41.4308 23.8242C41.4227 23.8221 41.3974 23.8484 41.3804 23.8606ZM41.3681 23.4709C41.3858 23.4543 41.4019 23.4361 41.4164 23.4167C41.4164 23.4137 41.394 23.3862 41.3885 23.3883C41.3673 23.3981 41.3472 23.4101 41.3284 23.4239L41.3681 23.4709Z" fill="#D5D5D5"/>
<path d="M27.7857 24.4038C27.7833 24.2433 27.8342 24.0866 27.9305 23.9582C27.9783 23.8951 28.0439 23.8337 28.1235 23.8777C28.203 23.9218 28.1442 23.9958 28.1235 24.0568C28.0849 24.1418 28.0644 24.234 28.0633 24.3274C28.0622 24.4208 28.0805 24.5134 28.1171 24.5993C28.1962 24.7512 28.3215 24.8435 28.49 24.7728C28.5569 24.7429 28.6092 24.6876 28.6354 24.6191C28.6617 24.5507 28.6597 24.4746 28.63 24.4076C28.5748 24.2565 28.5039 24.1117 28.4184 23.9755C28.3281 23.8359 28.2822 23.6722 28.2868 23.506C28.2914 23.3397 28.3463 23.1788 28.4442 23.0444C28.5585 22.8786 28.7174 22.7485 28.9026 22.6692C29.0877 22.59 29.2915 22.5648 29.4904 22.5967C29.6749 22.6229 29.7384 22.7554 29.7367 22.9263C29.7192 23.1128 29.6403 23.2883 29.5124 23.4251C29.3845 23.562 29.2149 23.6526 29.03 23.6826C28.9521 23.6894 28.8493 23.7228 28.8218 23.6014C28.8151 23.5788 28.8135 23.555 28.817 23.5317C28.8204 23.5083 28.8289 23.4861 28.8418 23.4664C28.8547 23.4466 28.8718 23.43 28.8918 23.4175C28.9118 23.405 28.9342 23.397 28.9576 23.394C29.0921 23.3741 29.2179 23.3152 29.3194 23.2247C29.3838 23.1528 29.4434 23.0774 29.3897 22.9767C29.3359 22.876 29.242 22.9039 29.162 22.9175C29.063 22.932 28.9689 22.9695 28.8871 23.0272C28.8053 23.0848 28.7382 23.1608 28.6912 23.2491C28.6442 23.3374 28.6186 23.4355 28.6165 23.5355C28.6144 23.6355 28.6359 23.7346 28.6791 23.8248C28.7481 23.9789 28.8459 24.1211 28.906 24.2777C28.9423 24.3547 28.9621 24.4385 28.9642 24.5236C28.9662 24.6087 28.9505 24.6934 28.918 24.7721C28.8855 24.8508 28.8369 24.9219 28.7754 24.9807C28.7138 25.0396 28.6407 25.085 28.5606 25.1139C28.1391 25.2701 27.7861 24.9726 27.7857 24.4038Z" fill="#D5D5D5"/>
<path d="M38.7396 23.6976C38.9135 23.7666 38.9982 23.6418 39.1031 23.5639C39.1662 23.5169 39.2259 23.4158 39.3177 23.4936C39.4095 23.5715 39.36 23.6667 39.3105 23.7476C39.2579 23.8557 39.1719 23.9439 39.0651 23.9991C38.9583 24.0543 38.8366 24.0736 38.718 24.054C38.6949 24.0459 38.6705 24.0426 38.6461 24.0444C38.6217 24.0462 38.598 24.0529 38.5763 24.0642C38.5547 24.0755 38.5356 24.0911 38.5202 24.1101C38.5048 24.1291 38.4935 24.1511 38.4869 24.1746C38.3571 24.4513 38.1762 24.701 37.9537 24.9106C37.8517 25.0024 37.7366 25.0972 37.591 25.0248C37.533 24.9888 37.4861 24.9374 37.4556 24.8764C37.425 24.8154 37.412 24.7471 37.4179 24.6791C37.4198 24.4158 37.4816 24.1565 37.5986 23.9207C37.7218 23.6151 37.8623 23.3163 37.9973 23.0154C38.0315 22.9392 38.0646 22.8377 38.1721 22.8711C38.2796 22.9045 38.2592 23.0082 38.2406 23.0899C38.1575 23.374 38.0493 23.6502 37.9173 23.9152C37.8356 24.0825 37.7756 24.2595 37.7387 24.4421C37.7315 24.4899 37.7256 24.5483 37.781 24.5758C37.8045 24.5867 37.8309 24.5893 37.856 24.5833C37.8812 24.5772 37.9035 24.5628 37.9194 24.5424C38.2007 24.2823 38.3819 23.9319 38.4315 23.552C38.4288 23.3483 38.4846 23.1481 38.5923 22.9752C38.6161 22.9292 38.6551 22.8929 38.7025 22.8722C38.75 22.8516 38.8031 22.8479 38.853 22.8618C38.98 22.9041 38.9474 23.0213 38.9309 23.1212C38.8875 23.3195 38.8234 23.5127 38.7396 23.6976Z" fill="#D5D5D5"/>
<path d="M35.5802 24.5624C35.6087 24.2167 35.7062 23.8803 35.867 23.573C36.0278 23.2658 36.2486 22.9939 36.5163 22.7734C36.574 22.7097 36.6509 22.6664 36.7354 22.6503C36.8199 22.6342 36.9073 22.6461 36.9844 22.6841C37.1384 22.7789 37.1329 22.9588 37.1114 23.1209C37.0162 23.7162 36.7726 24.2779 36.4029 24.7541C36.3709 24.7935 36.3359 24.8304 36.2984 24.8645C36.2409 24.9445 36.1591 25.0037 36.0651 25.0332C35.9712 25.0626 35.8702 25.0608 35.7774 25.0279C35.5903 24.9445 35.5738 24.752 35.5802 24.5624ZM35.9018 24.3309C35.8959 24.479 35.887 24.5738 35.9784 24.617C36.08 24.6644 36.1549 24.5941 36.2222 24.5285C36.2604 24.4951 36.2929 24.4558 36.3187 24.4121C36.4617 24.0179 36.6253 23.6314 36.8088 23.2542C36.8186 23.2401 36.8254 23.224 36.8286 23.2071C36.8319 23.1902 36.8314 23.1728 36.8274 23.156C36.8234 23.1393 36.8159 23.1236 36.8054 23.1099C36.7949 23.0963 36.7816 23.085 36.7664 23.0769C36.7389 23.0648 36.7082 23.0621 36.6789 23.069C36.6497 23.076 36.6235 23.0922 36.6043 23.1154C36.243 23.4324 35.9961 23.8595 35.9018 24.3309Z" fill="#D5D5D5"/>
<path d="M39.2878 24.9145C39.4063 24.3584 39.6083 23.8235 39.8871 23.3279C39.9747 23.1747 40.0716 23.0261 40.1697 22.8793C40.1827 22.852 40.2053 22.8304 40.2332 22.8189C40.2612 22.8073 40.2924 22.8065 40.3208 22.8167C40.4025 22.8488 40.4029 22.9233 40.3856 22.9859C40.3634 23.058 40.3326 23.127 40.2938 23.1916C39.994 23.7198 39.7624 24.2837 39.6043 24.8701C39.5937 24.9108 39.5808 24.9509 39.5658 24.9903C39.5337 25.0749 39.4854 25.1464 39.3809 25.1147C39.292 25.0893 39.281 25.0119 39.2878 24.9145Z" fill="#D5D5D5"/>
<path d="M43.1391 25.8873C43.1257 25.9738 43.0952 26.0568 43.0494 26.1314C43.0036 26.206 42.9435 26.2708 42.8725 26.322C42.8472 26.3454 42.815 26.36 42.7807 26.3635C42.7464 26.367 42.712 26.3593 42.6825 26.3414C42.6502 26.3208 42.6255 26.2902 42.6122 26.2544C42.5988 26.2185 42.5975 26.1792 42.6084 26.1425C42.6444 25.9756 42.7399 25.8274 42.8771 25.7256C42.903 25.7031 42.9351 25.6889 42.9693 25.6848C43.0034 25.6807 43.0379 25.687 43.0684 25.7028C43.1425 25.7396 43.1391 25.809 43.1391 25.8873Z" fill="#D5D5D5"/>
</svg>
