<svg width="98" height="45" viewBox="0 0 98 45" fill="none" xmlns="http://www.w3.org/2000/svg">
<path d="M34.4014 26.0421C33.8176 26.8863 32.9945 27.5366 32.038 27.9091C28.6855 29.1349 25.5705 27.4101 25.0163 23.8018C24.8258 22.8479 24.8621 21.8626 25.1223 20.9253C25.3826 19.988 25.8594 19.125 26.5144 18.4058C27.6024 17.301 29.0077 16.5628 30.5348 16.2938C31.5395 16.059 32.57 15.9523 33.6016 15.9763C33.919 15.9859 33.9952 15.8748 33.9748 15.5821C33.8784 14.2027 32.9553 13.4237 31.3575 13.4028C29.7787 13.3945 28.2344 13.8643 26.9277 14.7505L26.6408 13.6923C26.5417 14.0935 26.4675 14.4274 26.3773 14.7562C25.8337 16.3855 25.0718 17.9335 24.1123 19.358C22.8947 21.4022 21.4003 23.2596 20.0539 25.2181C18.1397 27.9167 16.5397 30.825 15.2851 33.8865C14.549 35.9021 13.9669 37.9705 13.5438 40.0741C13.5197 40.1802 13.5393 40.3058 13.4029 40.3915C13.3044 40.1755 13.2411 39.9451 13.2156 39.7091C12.1421 34.2192 9.71201 29.3438 6.4903 24.8219C4.8823 22.5658 3.24573 20.33 1.825 17.9443C0.867075 16.4683 0.262504 14.7912 0.0582957 13.0435C-0.192919 10.6447 0.372515 8.23132 1.66312 6.19377C2.65501 4.60787 3.97919 3.25607 5.54427 2.23164C7.10935 1.20722 8.87806 0.534563 10.7284 0.260101C14.1613 -0.401616 17.7177 0.209252 20.7331 1.97856C22.1527 2.76197 23.3944 3.83132 24.3797 5.11904C25.3649 6.40676 26.0724 7.88486 26.4573 9.45992C26.5608 9.87509 26.6224 10.3011 26.7112 10.7562C27.4742 10.397 28.2724 10.1181 29.0931 9.92397C30.8376 9.47046 32.6679 9.46174 34.4167 9.89858C36.7592 10.5626 37.9844 12.2442 38.5183 14.5232C38.7163 15.4045 38.8144 16.3053 38.8109 17.2085C38.8261 20.0195 38.8217 22.8305 38.8452 25.6409C38.8608 26.2889 38.9093 26.9358 38.9906 27.579C39.0204 27.85 38.9315 27.8964 38.6897 27.8964C37.4676 27.8869 36.2456 27.878 35.0242 27.9021C34.7176 27.9078 34.6662 27.772 34.6332 27.5352C34.5697 27.0705 34.491 26.6096 34.4014 26.0421ZM15.0451 18.9397H15.0521C15.0521 16.1296 15.0521 13.3196 15.0521 10.5099C15.0521 10.0198 15.1886 9.88334 15.6869 9.88271C17.2391 9.88271 18.7918 9.87382 20.344 9.88842C20.629 9.88842 20.7249 9.81225 20.7185 9.52912C20.7046 8.69052 20.6957 7.85065 20.7185 7.01205C20.7274 6.68258 20.6144 6.62037 20.3084 6.61719C15.5632 6.57212 10.8179 6.58101 6.07258 6.61719C5.83643 6.61719 5.73422 6.66227 5.73803 6.92762C5.74988 7.79183 5.74544 8.65645 5.7247 9.52149C5.71708 9.82049 5.80596 9.91065 6.1094 9.90684C7.64884 9.88843 9.18828 9.89287 10.7277 9.88842C11.1721 9.88842 11.3333 10.0408 11.3333 10.4655C11.3333 11.6983 11.3333 12.9311 11.3333 14.1639C11.3397 18.5654 11.3452 22.9647 11.3498 27.3619C11.3498 27.6475 11.4076 27.7618 11.7244 27.7542C12.6652 27.7326 13.6079 27.7262 14.5487 27.7542C14.948 27.7675 15.0604 27.6513 15.0566 27.2546C15.0407 24.4829 15.0451 21.712 15.0451 18.9397ZM34.0898 20.7001H34.1247C34.1247 20.3566 34.1247 20.0138 34.1247 19.6704C34.1247 19.5244 34.0936 19.4228 33.9145 19.4317C32.9468 19.4141 31.9858 19.5969 31.0921 19.9687C30.6277 20.1732 30.2402 20.5199 29.9856 20.9588C29.7309 21.3978 29.6222 21.9062 29.6752 22.4109C29.6573 22.7516 29.7319 23.0909 29.891 23.3927C30.0501 23.6946 30.2878 23.9478 30.579 24.1257C30.8702 24.3035 31.2041 24.3993 31.5453 24.403C31.8865 24.4066 32.2223 24.318 32.5173 24.1465C32.9513 23.9561 33.3258 23.6519 33.6012 23.2662C33.8765 22.8804 34.0425 22.4274 34.0815 21.9551C34.1095 21.5373 34.114 21.1183 34.0948 20.7001H34.0898Z" fill="#A02167"/>
<path d="M74.3526 22.0661C74.498 21.3735 74.6421 20.6803 74.79 19.9884C75.4798 16.7588 76.1688 13.5291 76.857 10.2991C76.9046 10.0737 76.9877 9.98486 77.2321 9.98676C78.7468 9.99819 80.2608 9.99311 81.7762 9.99184C81.9609 9.99184 82.1031 9.98359 82.0162 10.2572C80.2158 15.9192 78.7087 21.6744 76.624 27.2463C76.019 28.9753 75.2032 30.6233 74.1952 32.1528C72.9534 34.0803 71.0009 35.4398 68.7623 35.9357C68.476 35.9992 68.3942 35.9287 68.3389 35.6576C68.0613 34.3034 67.7708 32.9491 67.4673 31.5948C67.4038 31.3155 67.487 31.2412 67.7428 31.1587C68.5727 30.9048 69.3412 30.4827 70.0007 29.9187C70.6602 29.3547 71.1964 28.6608 71.5759 27.8804C71.6694 27.6779 71.7194 27.458 71.7226 27.2349C71.7257 27.0118 71.682 26.7905 71.5943 26.5854C69.9895 21.9542 68.3872 17.3221 66.7874 12.6892C66.5132 11.8969 66.2459 11.1021 65.9622 10.3143C65.8765 10.0756 65.8987 9.98359 66.1863 9.98613C67.7644 9.99756 69.3426 9.99502 70.9207 9.98613C70.9633 9.97838 71.0071 9.97956 71.0492 9.9896C71.0913 9.99965 71.1309 10.0183 71.1654 10.0445C71.1999 10.0706 71.2285 10.1037 71.2496 10.1415C71.2706 10.1793 71.2836 10.2211 71.2877 10.2642C72.2532 14.1067 73.3724 17.91 74.2015 21.7868C74.2261 21.8796 74.2554 21.9712 74.2891 22.0611L74.3526 22.0661Z" fill="#A02167"/>
<path d="M92.2751 20.7166C90.7357 20.7166 89.1956 20.7255 87.6562 20.7096C87.342 20.7064 87.3077 20.8017 87.3597 21.0791C87.4933 21.8384 87.8707 22.5336 88.4348 23.0592C88.9988 23.5849 89.7187 23.9124 90.4856 23.9923C92.1914 24.2496 93.9345 24.0777 95.5572 23.492C95.9152 23.3714 95.9711 23.4755 96.0174 23.7828C96.1742 24.8125 96.3418 25.8409 96.5253 26.8655C96.5419 26.9082 96.5491 26.9539 96.5464 26.9997C96.5437 27.0454 96.5311 27.09 96.5095 27.1304C96.4879 27.1709 96.4579 27.2061 96.4214 27.2338C96.3848 27.2615 96.3428 27.2809 96.298 27.2908C94.7769 27.9145 93.1539 28.2526 91.5102 28.2881C90.3277 28.3555 89.1426 28.2108 88.0111 27.8609C86.9822 27.5488 86.0411 26.9992 85.2637 26.2566C84.4863 25.5139 83.8943 24.5989 83.5356 23.5854C82.8679 21.9128 82.5877 20.1107 82.7161 18.3144C82.8446 16.5181 83.3782 14.7742 84.277 13.2137C85.1289 11.6533 86.5399 10.4732 88.2263 9.91048C89.9127 9.3478 91.7495 9.44426 93.3677 10.1805C94.8499 10.903 95.9911 12.1759 96.5481 13.7279C97.3626 15.8637 97.6246 18.1706 97.3099 20.4347C97.2814 20.7001 97.1442 20.7198 96.929 20.7191C95.3794 20.7141 93.8273 20.7166 92.2751 20.7166ZM90.1282 16.9128H92.6465C92.8103 16.9128 92.9849 16.9477 92.9595 16.6728C92.9286 15.9344 92.7364 15.2118 92.3964 14.5557C92.2113 14.2205 91.9504 13.9333 91.6344 13.717C91.3184 13.5008 90.9562 13.3615 90.5767 13.3104C90.1973 13.2592 89.8111 13.2976 89.4491 13.4225C89.0872 13.5473 88.7595 13.7552 88.4923 14.0294C87.8221 14.7537 87.4098 15.6788 87.3191 16.6614C87.2798 16.9235 87.4321 16.9153 87.6105 16.9153C88.4497 16.9115 89.289 16.9147 90.1282 16.9147V16.9128Z" fill="#A02167"/>
<path d="M49.0783 15.6531C49.8141 13.8527 50.6222 12.185 51.3878 10.4983C51.4407 10.3284 51.5525 10.183 51.7031 10.0883C51.8537 9.99353 52.0332 9.95569 52.2093 9.98158C53.5957 10.0121 54.9828 9.99301 56.3699 9.99301H56.7819C56.8155 10.1708 56.7095 10.2596 56.6486 10.3625C55.0903 12.9834 53.5288 15.6025 51.9642 18.2196C51.8992 18.309 51.8635 18.4164 51.862 18.5269C51.8606 18.6374 51.8934 18.7456 51.956 18.8367C53.5456 21.7167 55.1294 24.5998 56.7076 27.4861C56.7711 27.5959 56.825 27.7083 56.8822 27.8169C56.8015 27.94 56.6917 27.8892 56.5997 27.8899C54.9961 27.8937 53.3932 27.8899 51.7903 27.8988C51.6925 27.91 51.5939 27.887 51.5112 27.8337C51.4285 27.7803 51.367 27.6998 51.337 27.6061C50.5003 25.8115 49.5805 24.0556 48.8377 22.2171C48.8098 22.1479 48.7742 22.0832 48.7406 22.0209C48.5863 22.0343 48.5908 22.1631 48.554 22.245C47.7587 24.031 46.9665 25.8182 46.1772 27.6067C46.1137 27.7553 46.0737 27.8994 45.8452 27.8975C44.1788 27.8873 42.5124 27.8918 40.8428 27.8918C40.799 27.7013 40.9291 27.594 40.9996 27.4702C42.5905 24.6923 44.186 21.9168 45.7862 19.1439C45.8626 19.0407 45.9045 18.916 45.906 18.7876C45.9075 18.6591 45.8684 18.5335 45.7944 18.4285C44.2175 15.7451 42.6577 13.0516 41.0967 10.3606C40.8847 9.99618 40.8866 9.99365 41.3132 9.99301C42.8272 9.99301 44.3419 10.0013 45.856 9.98539C45.9844 9.96965 46.1143 9.99736 46.2251 10.0641C46.3359 10.1308 46.4212 10.2327 46.4673 10.3536C47.3065 12.0041 48.142 13.661 48.9145 15.3465C48.9469 15.4233 48.9926 15.4956 49.0783 15.6531Z" fill="#A02167"/>
<path d="M58.9506 18.9638C58.9506 16.1287 58.9595 13.2936 58.9404 10.4573C58.9404 10.0567 59.0585 9.97543 59.4318 9.98178C60.7548 10.004 62.0777 9.99765 63.4007 9.98178C63.6794 9.98178 63.7714 10.0503 63.7708 10.3417C63.7627 16.0754 63.7627 21.81 63.7708 27.5454C63.7708 27.845 63.6686 27.897 63.3981 27.8945C62.0371 27.8818 60.6754 27.8774 59.3144 27.8945C58.9925 27.899 58.9443 27.7828 58.9449 27.5022C58.9538 24.6595 58.9506 21.8117 58.9506 18.9638Z" fill="#A02167"/>
<path d="M13.5986 41.9322C14.8448 41.9238 16.085 42.1047 17.2768 42.4686C17.6069 42.5656 17.9162 42.723 18.189 42.9327C18.6233 43.2895 18.6188 43.6475 18.1744 43.9992C17.8996 44.2061 17.5894 44.3612 17.259 44.4569C15.6444 44.9291 13.9558 45.0955 12.2801 44.9476C11.3393 44.9075 10.4082 44.7412 9.51168 44.4531C9.24543 44.3674 8.99099 44.2486 8.75433 44.0995C8.11951 43.6837 8.11952 43.219 8.76894 42.8102C9.24274 42.5358 9.76028 42.3451 10.2989 42.2464C11.3837 42.0193 12.4905 41.9139 13.5986 41.9322Z" fill="#A02167"/>
<path d="M58.8386 5.0067C58.8291 3.499 59.6474 2.41601 60.9177 2.23826C62.6952 1.98941 64.0124 3.28952 63.9153 5.19461C63.9228 5.58488 63.8413 5.97173 63.677 6.3258C63.5127 6.67988 63.2699 6.99187 62.967 7.2381C62.6641 7.48432 62.3091 7.65831 61.9289 7.74686C61.5488 7.8354 61.1534 7.83618 60.7729 7.74913C60.2431 7.6226 59.7686 7.32793 59.4203 6.90922C59.0719 6.49051 58.8685 5.97026 58.8405 5.42632C58.8304 5.28666 58.8386 5.14636 58.8386 5.0067Z" fill="#A02167"/>
<path d="M52.9093 30.2961C53.3416 30.157 53.4171 30.2034 53.4679 30.642C53.1772 31.4153 52.7594 32.1288 52.4173 32.8779C51.8525 34.0694 51.3988 35.3104 51.0619 36.5852C50.9712 36.8898 50.9408 37.2092 50.9724 37.5254C51.0029 37.7425 50.9845 38.0149 50.7134 38.0333C50.396 38.058 50.396 37.7603 50.3916 37.5375C50.3988 37.0421 50.4861 36.5512 50.6499 36.0837C51.0538 34.8289 51.5475 33.6047 52.1272 32.4208C52.1754 32.318 52.2154 32.2107 52.2598 32.1034C52.3011 32.0545 52.3297 31.9898 52.2757 31.9472C52.2351 31.9155 52.1957 31.9688 52.1735 32.0107C51.414 33.0762 50.7319 34.1949 50.1326 35.3581C49.9688 35.6584 49.7872 35.9498 49.5999 36.2361C49.5519 36.3425 49.4669 36.4279 49.3606 36.4762C49.2543 36.5246 49.134 36.5326 49.0223 36.4989C48.7791 36.4075 48.7937 36.1605 48.8077 35.9428C48.8916 35.1077 49.1058 34.291 49.4425 33.5222C49.6069 33.1026 49.7828 32.6874 49.9935 32.1732C49.7993 32.3076 49.6421 32.4888 49.5365 32.7001C48.5867 34.2492 47.8008 35.8929 47.1914 37.6047C47.1273 37.7835 47.0492 37.9569 46.9578 38.1234C46.8829 38.2586 46.7636 38.3989 46.5928 38.3221C46.4068 38.2383 46.4823 38.0599 46.5293 37.9203C46.8028 37.1153 47.1181 36.3251 47.4739 35.553C48.2275 33.9547 49.1358 32.434 50.1859 31.0128C50.3064 30.849 50.4386 30.6941 50.5814 30.5494C50.6261 30.4855 50.6936 30.4412 50.77 30.4256C50.8464 30.41 50.9259 30.4243 50.9921 30.4656C51.0643 30.5089 51.1185 30.5767 51.1449 30.6566C51.1714 30.7365 51.1683 30.8232 51.1362 30.901C51.0668 31.0918 50.9845 31.2776 50.8899 31.4571C50.297 32.5956 49.8377 33.7987 49.5212 35.0426C49.4663 35.1839 49.4483 35.3368 49.4692 35.487C49.6145 35.4349 49.6374 35.2965 49.6958 35.1912C50.5344 33.6798 51.4605 32.2187 52.4693 30.8154C52.6058 30.6395 52.7626 30.4713 52.9093 30.2961Z" fill="#A02167"/>
<path d="M22.8596 35.4621C22.7536 35.5034 22.647 35.5421 22.5422 35.5891C22.4153 35.6443 22.2826 35.7256 22.1817 35.5466C22.1596 35.5148 22.1444 35.4787 22.137 35.4408C22.1296 35.4028 22.1302 35.3636 22.1386 35.3259C22.1471 35.2881 22.1633 35.2525 22.1862 35.2214C22.2091 35.1902 22.2383 35.1641 22.2718 35.1447C22.4514 35.0256 22.6476 34.9334 22.8539 34.8711C23.0654 34.8084 23.2618 34.7034 23.4315 34.5625C23.6012 34.4217 23.7405 34.2479 23.8411 34.0516C24.5566 32.8941 25.3748 31.8033 26.2858 30.7924C26.3796 30.6886 26.4806 30.5914 26.5879 30.5017C26.7086 30.3982 26.8552 30.3182 27.0044 30.4153C27.0761 30.4592 27.1303 30.5266 27.1579 30.606C27.1854 30.6854 27.1846 30.772 27.1555 30.8508C27.0234 31.2882 26.8831 31.723 26.7587 32.1623C26.6375 32.5896 26.5308 33.0206 26.4216 33.451C26.3766 33.6288 26.3683 33.7818 26.6349 33.7494C26.8177 33.7272 26.972 33.7703 26.9676 34.0033C26.9631 34.2185 26.8406 34.3582 26.6349 34.3328C26.2223 34.2807 26.1613 34.529 26.1087 34.8445C25.9204 35.8038 25.7951 36.7744 25.7335 37.75C25.7284 37.8973 25.7087 38.0548 25.5341 38.0674C25.3437 38.084 25.277 37.9272 25.2459 37.7704C25.1917 37.341 25.2082 36.9057 25.2948 36.4817C25.3704 35.9034 25.4694 35.3269 25.5875 34.7556C25.6395 34.5017 25.5437 34.4921 25.3583 34.5417C24.9033 34.66 24.4555 34.8041 24.0169 34.9733C23.8646 35.0386 23.7432 35.16 23.6779 35.3123C23.2708 36.0877 22.8639 36.863 22.4572 37.6383C22.4127 37.7293 22.3626 37.8175 22.3073 37.9024C22.2299 38.0135 22.1226 38.0973 21.9842 38.0243C21.9554 38.01 21.9298 37.9899 21.9089 37.9654C21.888 37.9409 21.8723 37.9125 21.8628 37.8817C21.8532 37.851 21.85 37.8186 21.8533 37.7866C21.8566 37.7546 21.8664 37.7236 21.882 37.6954C22.0052 37.4034 22.1245 37.1095 22.2629 36.8264C22.4769 36.3947 22.7073 35.9706 22.9288 35.5434L22.9536 35.4533L22.8596 35.4621ZM24.274 34.303C24.7952 34.1487 25.2148 34.0217 25.6363 33.9024C25.6786 33.8914 25.7165 33.868 25.7453 33.8351C25.774 33.8023 25.7923 33.7616 25.7976 33.7183C25.9931 32.9883 26.1937 32.2582 26.4204 31.4285C25.5943 32.2988 24.8738 33.2637 24.274 34.303Z" fill="#A02167"/>
<path d="M39.3236 36.8119C39.691 36.5413 39.996 36.1949 40.218 35.7962C40.2942 35.6851 40.3088 35.4331 40.5069 35.5423C40.6427 35.6159 40.5659 35.8223 40.5005 35.9594C40.2042 36.5676 39.7584 37.0907 39.2049 37.4798C38.988 37.6304 38.8261 37.8477 38.744 38.0987C38.544 38.6736 38.3019 39.2329 38.0196 39.7721C37.8586 40.1042 37.6358 40.4025 37.3632 40.6513C37.253 40.7773 37.104 40.8631 36.9397 40.8952C36.7754 40.9274 36.6051 40.9041 36.4554 40.8291C36.3219 40.7407 36.2195 40.6127 36.1626 40.463C36.1057 40.3134 36.0971 40.1497 36.138 39.9949C36.211 39.5274 36.4338 39.0961 36.7728 38.7659C37.0254 38.4617 37.3316 38.2063 37.6762 38.0124C37.9733 37.8584 38.232 37.6397 38.4333 37.3724C38.6346 37.1051 38.7733 36.796 38.8392 36.4679C38.8576 36.4241 38.8855 36.3784 38.8309 36.3409C38.8099 36.3641 38.7902 36.3885 38.7719 36.4139C38.5336 36.7096 38.2693 36.9835 37.9822 37.2322C37.8089 37.3458 37.628 37.4614 37.4172 37.3541C37.1874 37.2373 37.2191 37.0037 37.2547 36.8126C37.4513 35.9411 37.8878 35.1421 38.5148 34.5056C38.6043 34.406 38.7268 34.3412 38.8519 34.4422C38.88 34.4638 38.9033 34.4912 38.9202 34.5225C38.9371 34.5537 38.9472 34.5881 38.95 34.6236C38.9527 34.659 38.948 34.6946 38.9362 34.7281C38.9243 34.7616 38.9055 34.7922 38.8811 34.818C38.7198 35.0459 38.5414 35.2623 38.3732 35.4858C38.1604 35.7552 37.9839 36.0515 37.8482 36.3669C37.8114 36.4609 37.7498 36.5733 37.8482 36.6463C37.9466 36.7193 38.0431 36.6323 38.1187 36.5682C38.5483 36.1899 38.9236 35.7541 39.234 35.2731C39.4099 35.009 39.5756 34.738 39.7546 34.4764C39.8467 34.3419 39.9539 34.166 40.1463 34.2815C40.3221 34.3869 40.2631 34.5755 40.1939 34.7259C39.9704 35.2096 39.733 35.6864 39.5096 36.1695C39.4194 36.3644 39.3502 36.5688 39.2721 36.7688C39.2518 36.8024 39.2334 36.8373 39.2779 36.8646C39.2817 36.8627 39.3077 36.8291 39.3236 36.8119ZM38.0704 38.2758C37.6031 38.545 37.1992 38.9118 36.8865 39.3512C36.7343 39.5417 36.6495 39.7772 36.6452 40.0209C36.6535 40.3073 36.8357 40.4076 37.075 40.245C37.177 40.1697 37.2653 40.0774 37.3359 39.9721C37.6681 39.4487 37.9155 38.8763 38.0692 38.2758H38.0704Z" fill="#A02167"/>
<path d="M64.5007 36.9184C64.9547 36.5445 65.3288 36.0832 65.6009 35.5618C65.6644 35.4571 65.6904 35.2323 65.8713 35.3212C66.0294 35.3987 65.9202 35.579 65.8713 35.6964C65.5396 36.4298 65.0245 37.0654 64.3757 37.5418C64.166 37.7034 64.0054 37.9201 63.9116 38.1677C63.6663 38.849 63.3354 39.4964 62.927 40.0944C62.7969 40.2835 62.6297 40.4442 62.4357 40.5667C62.3532 40.6357 62.2522 40.6786 62.1453 40.6901C62.0384 40.7015 61.9306 40.681 61.8354 40.6311C61.7402 40.5812 61.662 40.5042 61.6106 40.4098C61.5593 40.3153 61.5371 40.2078 61.547 40.1008C61.5375 39.6772 61.6808 39.2644 61.9507 38.9378C62.3776 38.4484 62.8875 38.0384 63.4571 37.7265C63.7872 37.5082 63.8304 37.4428 63.9015 36.9648C63.7885 37.0511 63.6945 37.1285 63.5955 37.1965C63.2095 37.4605 62.9093 37.3279 62.8452 36.8625C62.8306 36.7746 62.8316 36.6848 62.8483 36.5972C63.031 35.6676 63.5128 34.8233 64.2202 34.1931C64.3358 34.0942 64.466 34.0137 64.6061 33.9544C65.0505 33.7672 65.3355 33.9773 65.2987 34.4572C65.2836 35.0285 65.1216 35.5862 64.8283 36.0767C64.6562 36.3285 64.5441 36.6165 64.5007 36.9184ZM63.3422 36.4963C63.3194 36.6378 63.3238 36.7426 63.4267 36.8003C63.4684 36.818 63.5148 36.8213 63.5587 36.8098C63.6025 36.7983 63.6414 36.7727 63.6691 36.7369C63.7538 36.6605 63.8331 36.5784 63.9066 36.4912C64.2311 35.9502 64.5278 35.3929 64.7953 34.8216C64.8299 34.7824 64.8489 34.732 64.8489 34.6797C64.8489 34.6275 64.8299 34.577 64.7953 34.5378C64.6887 34.4483 64.5776 34.5207 64.4906 34.5975C63.9274 35.1021 63.5276 35.7632 63.3422 36.4963ZM63.3581 38.289C62.7674 38.5809 62.306 39.0814 62.0631 39.6939C62.0072 39.8411 61.9558 39.9998 62.1183 40.1014C62.2694 40.1954 62.3875 40.0735 62.4744 39.9744C62.8663 39.4691 63.1655 38.8982 63.3581 38.2884V38.289Z" fill="#A02167"/>
<path d="M27.6537 36.98C28.0864 36.8355 28.5276 36.7181 28.9748 36.6283C29.101 36.6111 29.2284 36.6043 29.3557 36.608C29.3941 36.6045 29.4328 36.6098 29.4689 36.6234C29.505 36.6371 29.5374 36.6588 29.5639 36.6868C29.5903 36.7149 29.61 36.7487 29.6214 36.7855C29.6329 36.8223 29.6358 36.8613 29.6299 36.8994C29.6217 37.0778 29.5455 37.206 29.3576 37.1927C28.7707 37.1928 28.1952 37.3546 27.6944 37.6606C27.4944 37.7602 27.2729 37.9062 27.0596 37.724C26.9665 37.6354 26.9049 37.5188 26.884 37.392C26.8632 37.2652 26.8843 37.1351 26.944 37.0213C27.2705 36.0874 27.6757 35.1829 28.1553 34.3176C28.7616 33.1878 29.4274 32.091 30.1499 31.0318C30.2112 30.9355 30.2802 30.8445 30.3562 30.7594C30.3742 30.7328 30.3973 30.7099 30.4241 30.6923C30.451 30.6746 30.4811 30.6625 30.5127 30.6566C30.5443 30.6507 30.5768 30.6511 30.6082 30.6579C30.6396 30.6646 30.6694 30.6776 30.6958 30.6959C30.7425 30.7311 30.7744 30.7823 30.7855 30.8397C30.7965 30.897 30.7858 30.9564 30.7555 31.0064C30.6657 31.1884 30.5628 31.3636 30.4476 31.5307C29.3813 33.0319 28.4809 34.6442 27.7623 36.3395C27.6893 36.5299 27.6398 36.7242 27.5801 36.9166L27.5985 37.0099L27.6537 36.98Z" fill="#A02167"/>
<path d="M31.8412 36.429C31.5479 36.7007 31.3428 37.0213 31.0597 37.2753C30.9067 37.4124 30.7423 37.5762 30.5258 37.4606C30.4411 37.4026 30.3751 37.3212 30.3359 37.2262C30.2968 37.1313 30.2862 37.027 30.3055 36.9261C30.3225 36.6598 30.3881 36.3988 30.4992 36.1561C30.7186 35.614 31.014 35.106 31.3765 34.6471C31.4908 34.5024 31.638 34.2465 31.859 34.423C32.0799 34.5995 31.885 34.788 31.7548 34.9442C31.4016 35.3614 31.1141 35.83 30.9023 36.3338C30.8585 36.4392 30.7829 36.5744 30.8896 36.6455C30.9962 36.7166 31.1029 36.5967 31.1797 36.5186C31.5995 36.0431 31.9815 35.5356 32.3224 35.0007C32.4608 34.8103 32.5909 34.4586 32.8855 34.6446C33.1394 34.8064 32.8626 35.0547 32.7845 35.2445C32.5784 35.6658 32.405 36.1024 32.2659 36.5503C32.2398 36.6589 32.191 36.7909 32.3294 36.8499C32.4449 36.8994 32.5135 36.7814 32.5738 36.709C33.0559 36.1149 33.3747 35.4053 33.4987 34.6503C33.5192 34.4864 33.5741 34.3286 33.6599 34.1875C33.6848 34.1424 33.7233 34.1065 33.7701 34.0849C33.8168 34.0633 33.8692 34.0572 33.9196 34.0675C34.0465 34.0961 34.0554 34.2027 34.0522 34.3075C34.0537 34.3836 34.0477 34.4598 34.0345 34.5348C33.8058 35.541 33.3336 36.4757 32.6595 37.2569C32.4893 37.4568 32.2754 37.6378 31.9986 37.514C31.7022 37.387 31.7834 37.088 31.7885 36.8417C31.7988 36.7033 31.8163 36.5656 31.8412 36.429Z" fill="#A02167"/>
<path d="M35.8106 36.81C35.6595 37.0216 35.4958 37.2241 35.3205 37.4162C35.2644 37.4877 35.1883 37.5409 35.102 37.5693C35.0157 37.5977 34.9229 37.5999 34.8353 37.5756C34.7477 37.5514 34.6692 37.5019 34.6098 37.4332C34.5503 37.3645 34.5124 37.2797 34.501 37.1896C34.4399 36.9549 34.4372 36.7088 34.4933 36.4729C34.6288 35.6794 34.9995 34.945 35.5573 34.3646C35.7123 34.1937 35.9093 34.0662 36.1286 33.9945C36.573 33.8625 36.7914 34.1215 36.8041 34.5729C36.7419 35.0808 36.6017 35.5761 36.3883 36.0412C36.2983 36.3054 36.251 36.5823 36.248 36.8614C36.2476 36.9446 36.2702 37.0263 36.3132 37.0975C36.3562 37.1687 36.418 37.2267 36.4917 37.2651C36.6708 37.361 36.7292 37.5146 36.6187 37.6746C36.5083 37.8346 36.3184 37.7927 36.1743 37.7013C35.8639 37.5089 35.8372 37.1852 35.8106 36.81ZM34.9466 36.5281C34.9498 36.709 34.9161 36.8734 35.0812 36.9337C35.2221 36.9852 35.3135 36.862 35.3986 36.77C35.4484 36.7124 35.4936 36.6511 35.5338 36.5865C35.8982 36.0469 36.0556 35.4051 36.3908 34.8496C36.4924 34.6814 36.3502 34.5957 36.1927 34.5779C36.1223 34.5755 36.0522 34.5899 35.9884 34.62C35.9246 34.65 35.8689 34.6948 35.8258 34.7506C35.3638 35.2434 35.0579 35.8619 34.9466 36.5281Z" fill="#A02167"/>
<path d="M61.2904 35.7911C60.9178 36.1735 60.6167 36.6196 60.4016 37.1083C60.346 37.2223 60.2824 37.3322 60.2112 37.4372C60.1889 37.4764 60.1533 37.5065 60.1108 37.5219C60.0684 37.5374 60.0218 37.5373 59.9795 37.5216C59.9363 37.5078 59.8992 37.4794 59.8745 37.4414C59.8499 37.4033 59.8392 37.3578 59.8443 37.3127C59.8499 37.187 59.8712 37.0625 59.9077 36.942C60.1745 36.1877 60.5065 35.4581 60.8999 34.7614C60.985 34.6084 61.0694 34.3418 61.305 34.4694C61.5164 34.5843 61.3932 34.8039 61.312 34.9772C61.3029 34.9897 61.2965 35.0038 61.2929 35.0188C61.2894 35.0338 61.2889 35.0493 61.2915 35.0645C61.294 35.0797 61.2995 35.0942 61.3077 35.1073C61.3159 35.1203 61.3267 35.1315 61.3392 35.1404C61.5665 34.941 61.7931 34.729 62.0375 34.536C62.1715 34.4294 62.3454 34.265 62.5086 34.4091C62.6717 34.5532 62.5721 34.7716 62.4635 34.9303C62.0987 35.4039 61.815 35.9348 61.6243 36.5014C61.4763 36.8983 61.4893 37.3373 61.6605 37.7247C61.7239 37.8517 61.7824 38.0091 61.6179 38.0929C61.4358 38.1862 61.3005 38.0796 61.218 37.9139C61.0126 37.4295 60.9974 36.8854 61.1755 36.3903C61.2218 36.2069 61.3024 36.031 61.3659 35.852C61.3856 35.8127 61.4218 35.7688 61.3659 35.7365C61.3538 35.7333 61.3158 35.7727 61.2904 35.7911ZM61.2719 35.2064C61.2984 35.1815 61.3227 35.1543 61.3443 35.1252C61.3443 35.1207 61.3107 35.0794 61.3024 35.0826C61.2707 35.0973 61.2405 35.1152 61.2123 35.1359L61.2719 35.2064Z" fill="#A02167"/>
<path d="M40.8988 36.6056C40.8952 36.3649 40.9716 36.1298 41.1159 35.9371C41.1876 35.8425 41.286 35.7505 41.4054 35.8165C41.5247 35.8825 41.4365 35.9936 41.4054 36.085C41.3476 36.2126 41.3168 36.3508 41.3152 36.4909C41.3136 36.631 41.341 36.7699 41.3959 36.8988C41.5146 37.1267 41.7025 37.2651 41.9551 37.1591C42.0555 37.1142 42.1339 37.0313 42.1733 36.9286C42.2127 36.8259 42.2098 36.7118 42.1653 36.6113C42.0825 36.3847 41.9761 36.1674 41.8479 35.9631C41.7123 35.7537 41.6435 35.5081 41.6504 35.2588C41.6573 35.0095 41.7397 34.7681 41.8866 34.5665C42.058 34.3177 42.2963 34.1226 42.5741 34.0037C42.8518 33.8848 43.1575 33.8471 43.4558 33.8949C43.7326 33.9342 43.8279 34.1329 43.8253 34.3894C43.799 34.6691 43.6807 34.9323 43.4889 35.1376C43.297 35.3429 43.0425 35.4787 42.7652 35.5238C42.6484 35.534 42.4941 35.5841 42.4528 35.4019C42.4429 35.368 42.4405 35.3323 42.4457 35.2974C42.4509 35.2624 42.4636 35.229 42.483 35.1994C42.5023 35.1698 42.5279 35.1448 42.5579 35.1261C42.5879 35.1073 42.6215 35.0953 42.6566 35.0909C42.8584 35.061 43.0471 34.9727 43.1994 34.837C43.2959 34.729 43.3854 34.616 43.3048 34.465C43.2241 34.3139 43.0832 34.3558 42.9632 34.3761C42.8148 34.3978 42.6735 34.4542 42.5508 34.5406C42.4282 34.627 42.3275 34.7411 42.257 34.8735C42.1865 35.006 42.1482 35.1531 42.145 35.3032C42.1419 35.4532 42.174 35.6018 42.2389 35.7371C42.3424 35.9682 42.489 36.1815 42.5792 36.4164C42.6336 36.5319 42.6633 36.6576 42.6664 36.7853C42.6696 36.913 42.646 37.0399 42.5972 37.158C42.5485 37.2761 42.4756 37.3827 42.3833 37.471C42.291 37.5593 42.1813 37.6273 42.0612 37.6708C41.4289 37.905 40.8994 37.4588 40.8988 36.6056Z" fill="#A02167"/>
<path d="M57.3296 35.5466C57.5905 35.65 57.7175 35.4628 57.8749 35.3459C57.9695 35.2755 58.059 35.1238 58.1968 35.2406C58.3345 35.3574 58.2602 35.5002 58.186 35.6215C58.1071 35.7836 57.978 35.9159 57.8179 35.9988C57.6577 36.0816 57.4751 36.1105 57.2972 36.0811C57.2626 36.069 57.2259 36.0641 57.1894 36.0667C57.1528 36.0693 57.1172 36.0795 57.0847 36.0964C57.0522 36.1134 57.0236 36.1368 57.0005 36.1653C56.9774 36.1938 56.9604 36.2267 56.9506 36.262C56.7559 36.6771 56.4845 37.0516 56.1507 37.3659C55.9977 37.5037 55.8251 37.6459 55.6067 37.5374C55.5197 37.4833 55.4494 37.4063 55.4036 37.3147C55.3578 37.2232 55.3382 37.1207 55.347 37.0187C55.3499 36.6239 55.4426 36.2348 55.6181 35.8811C55.8028 35.4228 56.0136 34.9746 56.2161 34.5232C56.2675 34.409 56.3171 34.2566 56.4783 34.3067C56.6395 34.3569 56.6091 34.5124 56.5811 34.6349C56.4564 35.0611 56.2941 35.4754 56.0961 35.8729C55.9736 36.1238 55.8836 36.3894 55.8282 36.6632C55.8174 36.7349 55.8086 36.8226 55.8917 36.8638C55.9269 36.8802 55.9666 36.8841 56.0043 36.875C56.042 36.8659 56.0755 36.8443 56.0993 36.8137C56.5212 36.4236 56.793 35.8979 56.8674 35.3282C56.8634 35.0226 56.9471 34.7223 57.1087 34.4629C57.1444 34.394 57.2028 34.3395 57.274 34.3085C57.3452 34.2775 57.4249 34.272 57.4997 34.2928C57.6902 34.3563 57.6413 34.5321 57.6165 34.6819C57.5514 34.9794 57.4552 35.2692 57.3296 35.5466Z" fill="#A02167"/>
<path d="M52.5902 36.8435C52.633 36.3251 52.7792 35.8205 53.0204 35.3595C53.2616 34.8986 53.5928 34.4908 53.9945 34.1601C54.081 34.0645 54.1963 33.9996 54.323 33.9755C54.4498 33.9513 54.5809 33.9691 54.6966 34.0262C54.9276 34.1684 54.9194 34.4382 54.887 34.6813C54.7443 35.5743 54.3788 36.4168 53.8243 37.1311C53.7763 37.1902 53.7239 37.2456 53.6675 37.2968C53.5814 37.4168 53.4586 37.5055 53.3177 37.5497C53.1767 37.5939 53.0253 37.5912 52.8861 37.5418C52.6055 37.4168 52.5807 37.1279 52.5902 36.8435ZM53.0727 36.4963C53.0638 36.7185 53.0505 36.8607 53.1876 36.9254C53.3399 36.9965 53.4523 36.8911 53.5533 36.7927C53.6105 36.7426 53.6594 36.6837 53.698 36.6182C53.9126 36.0268 54.1579 35.447 54.4331 34.8813C54.4479 34.8601 54.4581 34.8361 54.4629 34.8107C54.4678 34.7853 54.4671 34.7592 54.4611 34.734C54.4551 34.7089 54.4439 34.6853 54.4281 34.6649C54.4123 34.6444 54.3924 34.6275 54.3696 34.6153C54.3283 34.5972 54.2823 34.5931 54.2384 34.6035C54.1945 34.6139 54.1552 34.6384 54.1265 34.6731C53.5845 35.1485 53.2141 35.7893 53.0727 36.4963Z" fill="#A02167"/>
<path d="M58.1519 37.3718C58.3296 36.5376 58.6327 35.7352 59.0508 34.9918C59.1822 34.762 59.3276 34.5392 59.4748 34.3189C59.4942 34.2779 59.5282 34.2457 59.5701 34.2283C59.612 34.2109 59.6588 34.2098 59.7015 34.225C59.824 34.2732 59.8246 34.3849 59.7986 34.4789C59.7653 34.5869 59.7191 34.6905 59.6609 34.7874C59.2113 35.5796 58.8638 36.4256 58.6267 37.3051C58.6107 37.3662 58.5914 37.4264 58.5689 37.4854C58.5207 37.6124 58.4483 37.7197 58.2915 37.672C58.1582 37.634 58.1417 37.5178 58.1519 37.3718Z" fill="#A02167"/>
<path d="M63.9289 38.8311C63.9087 38.9608 63.863 39.0853 63.7943 39.1972C63.7257 39.3091 63.6355 39.4063 63.5289 39.483C63.491 39.5182 63.4427 39.5401 63.3913 39.5453C63.3399 39.5506 63.2881 39.539 63.2439 39.5123C63.1955 39.4813 63.1585 39.4355 63.1385 39.3816C63.1184 39.3278 63.1164 39.2689 63.1328 39.2139C63.1868 38.9635 63.3301 38.7412 63.5359 38.5886C63.5748 38.5548 63.6229 38.5334 63.6741 38.5273C63.7253 38.5212 63.7771 38.5306 63.8229 38.5543C63.9339 38.6095 63.9289 38.7137 63.9289 38.8311Z" fill="#A02167"/>
</svg>
