<svg width="98" height="45" viewBox="0 0 98 45" fill="none" xmlns="http://www.w3.org/2000/svg">
<path d="M34.4014 26.0421C33.8176 26.8863 32.9945 27.5366 32.038 27.9091C28.6855 29.1349 25.5705 27.4101 25.0163 23.8018C24.8258 22.8479 24.8621 21.8626 25.1223 20.9253C25.3826 19.988 25.8594 19.125 26.5144 18.4058C27.6024 17.301 29.0077 16.5628 30.5348 16.2938C31.5395 16.059 32.57 15.9523 33.6016 15.9763C33.919 15.9859 33.9952 15.8748 33.9748 15.5821C33.8784 14.2027 32.9553 13.4237 31.3575 13.4028C29.7787 13.3945 28.2344 13.8643 26.9277 14.7505L26.6408 13.6923C26.5417 14.0935 26.4675 14.4274 26.3773 14.7562C25.8337 16.3855 25.0718 17.9335 24.1123 19.358C22.8947 21.4022 21.4003 23.2596 20.0539 25.2181C18.1397 27.9167 16.5397 30.825 15.2851 33.8865C14.549 35.9021 13.9669 37.9705 13.5438 40.0741C13.5197 40.1802 13.5393 40.3058 13.4029 40.3915C13.3044 40.1755 13.2411 39.9451 13.2156 39.7091C12.1421 34.2192 9.71201 29.3438 6.4903 24.8219C4.8823 22.5658 3.24573 20.33 1.825 17.9443C0.867075 16.4683 0.262504 14.7912 0.0582957 13.0435C-0.192919 10.6447 0.372515 8.23132 1.66312 6.19377C2.65501 4.60787 3.97919 3.25607 5.54427 2.23164C7.10935 1.20722 8.87806 0.534563 10.7284 0.260101C14.1613 -0.401616 17.7177 0.209252 20.7331 1.97856C22.1527 2.76197 23.3944 3.83132 24.3797 5.11904C25.3649 6.40676 26.0724 7.88486 26.4573 9.45992C26.5608 9.87509 26.6224 10.3011 26.7112 10.7562C27.4742 10.397 28.2724 10.1181 29.0931 9.92397C30.8376 9.47046 32.6679 9.46174 34.4167 9.89858C36.7592 10.5626 37.9844 12.2442 38.5183 14.5232C38.7163 15.4045 38.8144 16.3053 38.8109 17.2085C38.8261 20.0195 38.8217 22.8305 38.8452 25.6409C38.8608 26.2889 38.9093 26.9358 38.9906 27.579C39.0204 27.85 38.9315 27.8964 38.6897 27.8964C37.4676 27.8869 36.2456 27.878 35.0242 27.9021C34.7176 27.9078 34.6662 27.772 34.6332 27.5352C34.5697 27.0705 34.491 26.6096 34.4014 26.0421ZM15.0451 18.9397H15.0521C15.0521 16.1296 15.0521 13.3196 15.0521 10.5099C15.0521 10.0198 15.1886 9.88334 15.6869 9.88271C17.2391 9.88271 18.7918 9.87382 20.344 9.88842C20.629 9.88842 20.7249 9.81225 20.7185 9.52912C20.7046 8.69052 20.6957 7.85065 20.7185 7.01205C20.7274 6.68258 20.6144 6.62037 20.3084 6.61719C15.5632 6.57212 10.8179 6.58101 6.07258 6.61719C5.83643 6.61719 5.73422 6.66227 5.73803 6.92762C5.74988 7.79183 5.74544 8.65645 5.7247 9.52149C5.71708 9.82049 5.80596 9.91065 6.1094 9.90684C7.64884 9.88843 9.18828 9.89287 10.7277 9.88842C11.1721 9.88842 11.3333 10.0408 11.3333 10.4655C11.3333 11.6983 11.3333 12.9311 11.3333 14.1639C11.3397 18.5654 11.3452 22.9647 11.3498 27.3619C11.3498 27.6475 11.4076 27.7618 11.7244 27.7542C12.6652 27.7326 13.6079 27.7262 14.5487 27.7542C14.948 27.7675 15.0604 27.6513 15.0566 27.2546C15.0407 24.4829 15.0451 21.712 15.0451 18.9397ZM34.0898 20.7001H34.1247C34.1247 20.3566 34.1247 20.0138 34.1247 19.6704C34.1247 19.5244 34.0936 19.4228 33.9145 19.4317C32.9468 19.4141 31.9858 19.5969 31.0921 19.9687C30.6277 20.1732 30.2402 20.5199 29.9856 20.9588C29.7309 21.3978 29.6222 21.9062 29.6752 22.4109C29.6573 22.7516 29.7319 23.0909 29.891 23.3927C30.0501 23.6946 30.2878 23.9478 30.579 24.1257C30.8702 24.3035 31.2041 24.3993 31.5453 24.403C31.8865 24.4066 32.2223 24.318 32.5173 24.1465C32.9513 23.9561 33.3258 23.6519 33.6012 23.2662C33.8765 22.8804 34.0425 22.4274 34.0815 21.9551C34.1095 21.5373 34.114 21.1183 34.0948 20.7001H34.0898Z" fill="white"/>
<path d="M74.3528 22.066C74.4982 21.3734 74.6423 20.6802 74.7902 19.9882C75.4801 16.7587 76.1691 13.5289 76.8572 10.299C76.9048 10.0736 76.988 9.98474 77.2324 9.98664C78.7471 9.99807 80.2611 9.99299 81.7764 9.99172C81.9611 9.99172 82.1034 9.98346 82.0164 10.2571C80.2161 15.919 78.709 21.6743 76.6242 27.2461C76.0192 28.9752 75.2035 30.6231 74.1954 32.1527C72.9536 34.0802 71.0012 35.4396 68.7626 35.9356C68.4763 35.999 68.3944 35.9286 68.3392 35.6575C68.0615 34.3032 67.771 32.9489 67.4676 31.5947C67.4041 31.3153 67.4873 31.2411 67.7431 31.1585C68.5729 30.9047 69.3415 30.4826 70.001 29.9186C70.6604 29.3546 71.1966 28.6607 71.5761 27.8803C71.6696 27.6778 71.7196 27.4578 71.7228 27.2348C71.726 27.0117 71.6823 26.7904 71.5946 26.5853C69.9897 21.9541 68.3874 17.322 66.7877 12.6891C66.5134 11.8968 66.2462 11.102 65.9624 10.3142C65.8767 10.0755 65.8989 9.98347 66.1865 9.98601C67.7647 9.99744 69.3428 9.9949 70.921 9.98601C70.9636 9.97826 71.0073 9.97944 71.0494 9.98948C71.0915 9.99952 71.1311 10.0182 71.1656 10.0444C71.2001 10.0705 71.2288 10.1035 71.2498 10.1414C71.2709 10.1792 71.2839 10.221 71.2879 10.2641C72.2535 14.1066 73.3727 17.9098 74.2018 21.7867C74.2264 21.8795 74.2556 21.971 74.2894 22.0609L74.3528 22.066Z" fill="white"/>
<path d="M92.2754 20.7165C90.7359 20.7165 89.1959 20.7254 87.6564 20.7095C87.3422 20.7063 87.3079 20.8015 87.36 21.079C87.4936 21.8383 87.871 22.5335 88.435 23.0591C88.999 23.5848 89.719 23.9123 90.4858 23.9922C92.1917 24.2495 93.9348 24.0775 95.5574 23.4919C95.9155 23.3713 95.9713 23.4754 96.0177 23.7827C96.1745 24.8123 96.3421 25.8407 96.5255 26.8653C96.5422 26.908 96.5494 26.9538 96.5467 26.9996C96.544 27.0453 96.5314 27.0899 96.5098 27.1303C96.4882 27.1707 96.4581 27.206 96.4216 27.2337C96.3851 27.2614 96.343 27.2808 96.2983 27.2907C94.7771 27.9144 93.1541 28.2525 91.5105 28.288C90.3279 28.3554 89.1429 28.2107 88.0113 27.8607C86.9825 27.5487 86.0414 26.9991 85.264 26.2564C84.4866 25.5138 83.8946 24.5988 83.5358 23.5852C82.8681 21.9127 82.588 20.1106 82.7164 18.3143C82.8448 16.518 83.3784 14.7741 84.2773 13.2135C85.1292 11.6531 86.5401 10.473 88.2265 9.91036C89.9129 9.34768 91.7497 9.44414 93.3679 10.1804C94.8501 10.9028 95.9914 12.1758 96.5484 13.7277C97.3628 15.8636 97.6249 18.1705 97.3102 20.4346C97.2816 20.7 97.1445 20.7196 96.9293 20.719C95.3797 20.7139 93.8275 20.7165 92.2754 20.7165ZM90.1285 16.9126H92.6468C92.8106 16.9126 92.9851 16.9475 92.9597 16.6727C92.9288 15.9343 92.7367 15.2117 92.3967 14.5555C92.2116 14.2204 91.9506 13.9331 91.6346 13.7169C91.3187 13.5007 90.9564 13.3614 90.577 13.3102C90.1975 13.2591 89.8113 13.2975 89.4494 13.4223C89.0874 13.5472 88.7597 13.7551 88.4925 14.0293C87.8224 14.7535 87.41 15.6787 87.3194 16.6612C87.28 16.9234 87.4324 16.9152 87.6108 16.9152C88.45 16.9114 89.2892 16.9145 90.1285 16.9145V16.9126Z" fill="white"/>
<path d="M49.0783 15.6531C49.8141 13.8527 50.6222 12.185 51.3878 10.4983C51.4407 10.3284 51.5525 10.183 51.7031 10.0883C51.8537 9.99353 52.0332 9.95569 52.2093 9.98158C53.5957 10.0121 54.9828 9.99301 56.3699 9.99301H56.7819C56.8155 10.1708 56.7095 10.2596 56.6486 10.3625C55.0903 12.9834 53.5288 15.6025 51.9642 18.2196C51.8992 18.309 51.8635 18.4164 51.862 18.5269C51.8606 18.6374 51.8934 18.7456 51.956 18.8367C53.5456 21.7167 55.1294 24.5998 56.7076 27.4861C56.7711 27.5959 56.825 27.7083 56.8822 27.8169C56.8015 27.94 56.6917 27.8892 56.5997 27.8899C54.9961 27.8937 53.3932 27.8899 51.7903 27.8988C51.6925 27.91 51.5939 27.887 51.5112 27.8337C51.4285 27.7803 51.367 27.6998 51.337 27.6061C50.5003 25.8115 49.5805 24.0556 48.8377 22.2171C48.8098 22.1479 48.7742 22.0832 48.7406 22.0209C48.5863 22.0343 48.5908 22.1631 48.554 22.245C47.7587 24.031 46.9665 25.8182 46.1772 27.6067C46.1137 27.7553 46.0737 27.8994 45.8452 27.8975C44.1788 27.8873 42.5124 27.8918 40.8428 27.8918C40.799 27.7013 40.9291 27.594 40.9996 27.4702C42.5905 24.6923 44.186 21.9168 45.7862 19.1439C45.8626 19.0407 45.9045 18.916 45.906 18.7876C45.9075 18.6591 45.8684 18.5335 45.7944 18.4285C44.2175 15.7451 42.6577 13.0516 41.0967 10.3606C40.8847 9.99618 40.8866 9.99365 41.3132 9.99301C42.8272 9.99301 44.3419 10.0013 45.856 9.98539C45.9844 9.96965 46.1143 9.99736 46.2251 10.0641C46.3359 10.1308 46.4212 10.2327 46.4673 10.3536C47.3065 12.0041 48.142 13.661 48.9145 15.3465C48.9469 15.4233 48.9926 15.4956 49.0783 15.6531Z" fill="white"/>
<path d="M58.9506 18.9638C58.9506 16.1287 58.9595 13.2936 58.9404 10.4573C58.9404 10.0567 59.0585 9.97543 59.4318 9.98178C60.7548 10.004 62.0777 9.99765 63.4007 9.98178C63.6794 9.98178 63.7714 10.0503 63.7708 10.3417C63.7627 16.0754 63.7627 21.81 63.7708 27.5454C63.7708 27.845 63.6686 27.897 63.3981 27.8945C62.0371 27.8818 60.6754 27.8774 59.3144 27.8945C58.9925 27.899 58.9443 27.7828 58.9449 27.5022C58.9538 24.6595 58.9506 21.8117 58.9506 18.9638Z" fill="white"/>
<path d="M13.5984 41.9322C14.8445 41.9238 16.0847 42.1047 17.2766 42.4686C17.6067 42.5656 17.916 42.723 18.1888 42.9327C18.623 43.2895 18.6186 43.6475 18.1742 43.9992C17.8994 44.2061 17.5892 44.3612 17.2588 44.4569C15.6442 44.9291 13.9556 45.0955 12.2799 44.9476C11.3391 44.9075 10.4079 44.7412 9.51143 44.4531C9.24518 44.3674 8.99075 44.2486 8.75409 44.0995C8.11927 43.6837 8.11927 43.219 8.76869 42.8102C9.2425 42.5358 9.76004 42.3451 10.2986 42.2464C11.3834 42.0193 12.4902 41.9139 13.5984 41.9322Z" fill="white"/>
<path d="M58.8386 5.0067C58.8291 3.499 59.6474 2.41601 60.9177 2.23826C62.6952 1.98941 64.0124 3.28952 63.9153 5.19461C63.9228 5.58488 63.8413 5.97173 63.677 6.3258C63.5127 6.67988 63.2699 6.99187 62.967 7.2381C62.6641 7.48432 62.3091 7.65831 61.9289 7.74686C61.5488 7.8354 61.1534 7.83618 60.7729 7.74913C60.2431 7.6226 59.7686 7.32793 59.4203 6.90922C59.0719 6.49051 58.8685 5.97026 58.8405 5.42632C58.8304 5.28666 58.8386 5.14636 58.8386 5.0067Z" fill="white"/>
<path d="M52.9093 30.2961C53.3416 30.157 53.4171 30.2034 53.4679 30.642C53.1772 31.4153 52.7594 32.1288 52.4173 32.8779C51.8525 34.0694 51.3988 35.3104 51.0619 36.5852C50.9712 36.8898 50.9408 37.2092 50.9724 37.5254C51.0029 37.7425 50.9845 38.0149 50.7134 38.0333C50.396 38.058 50.396 37.7603 50.3916 37.5375C50.3988 37.0421 50.4861 36.5512 50.6499 36.0837C51.0538 34.8289 51.5475 33.6047 52.1272 32.4208C52.1754 32.318 52.2154 32.2107 52.2598 32.1034C52.3011 32.0545 52.3297 31.9898 52.2757 31.9472C52.2351 31.9155 52.1957 31.9688 52.1735 32.0107C51.414 33.0762 50.7319 34.1949 50.1326 35.3581C49.9688 35.6584 49.7872 35.9498 49.5999 36.2361C49.5519 36.3425 49.4669 36.4279 49.3606 36.4762C49.2543 36.5246 49.134 36.5326 49.0223 36.4989C48.7791 36.4075 48.7937 36.1605 48.8077 35.9428C48.8916 35.1077 49.1058 34.291 49.4425 33.5222C49.6069 33.1026 49.7828 32.6874 49.9935 32.1732C49.7993 32.3076 49.6421 32.4888 49.5365 32.7001C48.5867 34.2492 47.8008 35.8929 47.1914 37.6047C47.1273 37.7835 47.0492 37.9569 46.9578 38.1234C46.8829 38.2586 46.7636 38.3989 46.5928 38.3221C46.4068 38.2383 46.4823 38.0599 46.5293 37.9203C46.8028 37.1153 47.1181 36.3251 47.4739 35.553C48.2275 33.9547 49.1358 32.434 50.1859 31.0128C50.3064 30.849 50.4386 30.6941 50.5814 30.5494C50.6261 30.4855 50.6936 30.4412 50.77 30.4256C50.8464 30.41 50.9259 30.4243 50.9921 30.4656C51.0643 30.5089 51.1185 30.5767 51.1449 30.6566C51.1714 30.7365 51.1683 30.8232 51.1362 30.901C51.0668 31.0918 50.9845 31.2776 50.8899 31.4571C50.297 32.5956 49.8377 33.7987 49.5212 35.0426C49.4663 35.1839 49.4483 35.3368 49.4692 35.487C49.6145 35.4349 49.6374 35.2965 49.6958 35.1912C50.5344 33.6798 51.4605 32.2187 52.4693 30.8154C52.6058 30.6395 52.7626 30.4713 52.9093 30.2961Z" fill="white"/>
<path d="M22.8596 35.4623C22.7536 35.5035 22.647 35.5423 22.5422 35.5892C22.4153 35.6445 22.2826 35.7257 22.1817 35.5467C22.1596 35.5149 22.1444 35.4789 22.137 35.4409C22.1296 35.4029 22.1302 35.3638 22.1386 35.326C22.1471 35.2883 22.1633 35.2527 22.1862 35.2215C22.2091 35.1903 22.2383 35.1642 22.2718 35.1449C22.4514 35.0257 22.6476 34.9335 22.8539 34.8712C23.0654 34.8085 23.2618 34.7035 23.4315 34.5627C23.6012 34.4218 23.7405 34.248 23.8411 34.0517C24.5566 32.8942 25.3748 31.8034 26.2858 30.7925C26.3796 30.6887 26.4806 30.5916 26.5879 30.5018C26.7086 30.3983 26.8552 30.3183 27.0044 30.4155C27.0761 30.4593 27.1303 30.5267 27.1579 30.6061C27.1854 30.6856 27.1846 30.7721 27.1555 30.8509C27.0234 31.2883 26.8831 31.7232 26.7587 32.1625C26.6375 32.5897 26.5308 33.0207 26.4216 33.4512C26.3766 33.6289 26.3683 33.7819 26.6349 33.7495C26.8177 33.7273 26.972 33.7705 26.9676 34.0034C26.9631 34.2186 26.8406 34.3583 26.6349 34.3329C26.2223 34.2809 26.1613 34.5291 26.1087 34.8446C25.9204 35.8039 25.7951 36.7745 25.7335 37.7502C25.7284 37.8974 25.7087 38.0549 25.5341 38.0676C25.3437 38.0841 25.277 37.9273 25.2459 37.7705C25.1917 37.3411 25.2082 36.9058 25.2948 36.4818C25.3704 35.9035 25.4694 35.3271 25.5875 34.7557C25.6395 34.5018 25.5437 34.4923 25.3583 34.5418C24.9033 34.6601 24.4555 34.8042 24.0169 34.9735C23.8646 35.0388 23.7432 35.1601 23.6779 35.3125C23.2708 36.0878 22.8639 36.8631 22.4572 37.6384C22.4127 37.7294 22.3626 37.8176 22.3073 37.9025C22.2299 38.0136 22.1226 38.0974 21.9842 38.0244C21.9554 38.0101 21.9298 37.9901 21.9089 37.9656C21.888 37.9411 21.8723 37.9126 21.8628 37.8819C21.8532 37.8511 21.85 37.8188 21.8533 37.7867C21.8566 37.7547 21.8664 37.7237 21.882 37.6956C22.0052 37.4035 22.1245 37.1096 22.2629 36.8265C22.4769 36.3948 22.7073 35.9708 22.9288 35.5435L22.9536 35.4534L22.8596 35.4623ZM24.274 34.3031C24.7952 34.1488 25.2148 34.0219 25.6363 33.9025C25.6786 33.8915 25.7165 33.8681 25.7453 33.8353C25.774 33.8024 25.7923 33.7617 25.7976 33.7184C25.9931 32.9884 26.1937 32.2583 26.4204 31.4286C25.5943 32.299 24.8738 33.2638 24.274 34.3031Z" fill="white"/>
<path d="M39.3238 36.8121C39.6912 36.5414 39.9963 36.195 40.2183 35.7963C40.2944 35.6852 40.309 35.4332 40.5071 35.5424C40.643 35.6161 40.5661 35.8224 40.5008 35.9595C40.2044 36.5677 39.7586 37.0908 39.2051 37.4799C38.9882 37.6305 38.8264 37.8479 38.7442 38.0988C38.5443 38.6737 38.3022 39.233 38.0199 39.7722C37.8588 40.1043 37.6361 40.4027 37.3635 40.6515C37.2532 40.7774 37.1042 40.8632 36.9399 40.8954C36.7756 40.9275 36.6053 40.9043 36.4557 40.8292C36.3222 40.7408 36.2198 40.6128 36.1628 40.4632C36.1059 40.3135 36.0973 40.1498 36.1383 39.9951C36.2113 39.5275 36.434 39.0962 36.7731 38.766C37.0257 38.4618 37.3318 38.2064 37.6764 38.0125C37.9735 37.8585 38.2323 37.6398 38.4336 37.3725C38.6349 37.1052 38.7736 36.7961 38.8394 36.468C38.8578 36.4242 38.8858 36.3785 38.8312 36.341C38.8101 36.3642 38.7904 36.3886 38.7721 36.414C38.5338 36.7098 38.2695 36.9836 37.9824 37.2323C37.8091 37.3459 37.6282 37.4615 37.4174 37.3542C37.1876 37.2374 37.2194 37.0038 37.2549 36.8127C37.4516 35.9412 37.8881 35.1422 38.515 34.5058C38.6046 34.4061 38.7271 34.3413 38.8521 34.4423C38.8803 34.464 38.9035 34.4913 38.9204 34.5226C38.9373 34.5538 38.9475 34.5883 38.9502 34.6237C38.953 34.6591 38.9483 34.6947 38.9364 34.7282C38.9245 34.7617 38.9058 34.7923 38.8813 34.8181C38.7201 35.046 38.5417 35.2625 38.3735 35.4859C38.1606 35.7554 37.9841 36.0516 37.8485 36.3671C37.8117 36.461 37.7501 36.5734 37.8485 36.6464C37.9469 36.7194 38.0434 36.6324 38.1189 36.5683C38.5485 36.19 38.9238 35.7542 39.2343 35.2732C39.4101 35.0092 39.5758 34.7381 39.7548 34.4766C39.8469 34.342 39.9542 34.1661 40.1465 34.2817C40.3224 34.387 40.2633 34.5756 40.1941 34.726C39.9707 35.2098 39.7333 35.6865 39.5098 36.1696C39.4197 36.3645 39.3505 36.5689 39.2724 36.7689C39.2521 36.8025 39.2337 36.8375 39.2781 36.8648C39.2819 36.8628 39.3079 36.8292 39.3238 36.8121ZM38.0707 38.276C37.6033 38.5452 37.1995 38.9119 36.8867 39.3513C36.7346 39.5418 36.6497 39.7773 36.6455 40.0211C36.6537 40.3074 36.8359 40.4077 37.0753 40.2452C37.1773 40.1699 37.2656 40.0775 37.3362 39.9722C37.6683 39.4489 37.9157 38.8764 38.0694 38.276H38.0707Z" fill="white"/>
<path d="M64.501 36.9184C64.9549 36.5445 65.3291 36.0832 65.6012 35.5618C65.6646 35.4571 65.6906 35.2323 65.8716 35.3212C66.0296 35.3987 65.9204 35.579 65.8716 35.6964C65.5398 36.4298 65.0248 37.0654 64.376 37.5418C64.1663 37.7034 64.0056 37.9201 63.9119 38.1677C63.6665 38.849 63.3357 39.4964 62.9273 40.0944C62.7971 40.2835 62.63 40.4442 62.4359 40.5667C62.3535 40.6357 62.2524 40.6786 62.1456 40.6901C62.0387 40.7015 61.9309 40.681 61.8357 40.6311C61.7405 40.5812 61.6622 40.5042 61.6109 40.4098C61.5595 40.3153 61.5374 40.2078 61.5472 40.1008C61.5377 39.6772 61.681 39.2644 61.9509 38.9378C62.3778 38.4484 62.8878 38.0384 63.4574 37.7265C63.7875 37.5082 63.8306 37.4428 63.9017 36.9648C63.7887 37.0511 63.6948 37.1285 63.5958 37.1965C63.2098 37.4605 62.9095 37.3279 62.8454 36.8625C62.8308 36.7746 62.8319 36.6848 62.8486 36.5972C63.0313 35.6676 63.5131 34.8233 64.2204 34.1931C64.336 34.0942 64.4662 34.0137 64.6064 33.9544C65.0508 33.7672 65.3358 33.9773 65.299 34.4572C65.2839 35.0285 65.1219 35.5862 64.8286 36.0767C64.6565 36.3285 64.5444 36.6165 64.501 36.9184ZM63.3425 36.4963C63.3196 36.6378 63.3241 36.7426 63.4269 36.8003C63.4687 36.818 63.5151 36.8213 63.5589 36.8098C63.6028 36.7983 63.6416 36.7727 63.6694 36.7369C63.754 36.6605 63.8334 36.5784 63.9068 36.4912C64.2314 35.9502 64.528 35.3929 64.7956 34.8216C64.8301 34.7824 64.8492 34.732 64.8492 34.6797C64.8492 34.6275 64.8301 34.577 64.7956 34.5378C64.6889 34.4483 64.5778 34.5207 64.4908 34.5975C63.9277 35.1021 63.5278 35.7632 63.3425 36.4963ZM63.3583 38.289C62.7677 38.5809 62.3062 39.0814 62.0633 39.6939C62.0074 39.8411 61.956 39.9998 62.1185 40.1014C62.2696 40.1954 62.3877 40.0735 62.4747 39.9744C62.8666 39.4691 63.1658 38.8982 63.3583 38.2884V38.289Z" fill="white"/>
<path d="M27.654 36.9799C28.0866 36.8354 28.5279 36.718 28.9751 36.6282C29.1013 36.611 29.2286 36.6042 29.3559 36.6079C29.3943 36.6044 29.4331 36.6096 29.4691 36.6233C29.5052 36.637 29.5377 36.6586 29.5641 36.6867C29.5905 36.7148 29.6102 36.7485 29.6217 36.7854C29.6331 36.8222 29.636 36.8612 29.6302 36.8993C29.6219 37.0777 29.5458 37.2059 29.3579 37.1926C28.771 37.1926 28.1955 37.3545 27.6946 37.6604C27.4947 37.7601 27.2731 37.9061 27.0598 37.7239C26.9668 37.6353 26.9051 37.5187 26.8843 37.3919C26.8634 37.2651 26.8845 37.1349 26.9443 37.0212C27.2708 36.0873 27.676 35.1828 28.1555 34.3175C28.7619 33.1877 29.4277 32.0909 30.1501 31.0316C30.2114 30.9354 30.2804 30.8444 30.3564 30.7593C30.3744 30.7326 30.3975 30.7098 30.4244 30.6922C30.4512 30.6745 30.4813 30.6624 30.5129 30.6565C30.5446 30.6506 30.577 30.651 30.6085 30.6578C30.6399 30.6645 30.6697 30.6775 30.6961 30.6958C30.7427 30.731 30.7747 30.7822 30.7857 30.8395C30.7967 30.8969 30.7861 30.9563 30.7557 31.0062C30.666 31.1883 30.5631 31.3635 30.4478 31.5306C29.3815 33.0317 28.4812 34.6441 27.7626 36.3394C27.6896 36.5298 27.64 36.7241 27.5804 36.9164L27.5988 37.0097L27.654 36.9799Z" fill="white"/>
<path d="M31.8414 36.4289C31.5481 36.7006 31.3431 37.0212 31.06 37.2751C30.907 37.4123 30.7425 37.576 30.5261 37.4605C30.4413 37.4025 30.3753 37.3211 30.3362 37.2261C30.2971 37.1312 30.2865 37.0269 30.3058 36.926C30.3227 36.6596 30.3883 36.3986 30.4994 36.156C30.7188 35.6139 31.0142 35.1058 31.3767 34.647C31.491 34.5023 31.6383 34.2464 31.8592 34.4229C32.0801 34.5994 31.8852 34.7879 31.7551 34.9441C31.4019 35.3612 31.1144 35.8298 30.9025 36.3337C30.8587 36.4391 30.7832 36.5743 30.8898 36.6454C30.9965 36.7165 31.1031 36.5965 31.1799 36.5184C31.5997 36.043 31.9818 35.5355 32.3226 35.0006C32.461 34.8101 32.5911 34.4584 32.8857 34.6444C33.1396 34.8063 32.8629 35.0545 32.7848 35.2444C32.5787 35.6657 32.4053 36.1023 32.2661 36.5502C32.2401 36.6587 32.1912 36.7908 32.3296 36.8498C32.4451 36.8993 32.5137 36.7813 32.574 36.7089C33.0561 36.1148 33.3749 35.4052 33.4989 34.6502C33.5194 34.4862 33.5744 34.3285 33.6602 34.1874C33.685 34.1423 33.7236 34.1063 33.7703 34.0847C33.817 34.0632 33.8694 34.0571 33.9198 34.0674C34.0468 34.096 34.0557 34.2026 34.0525 34.3074C34.0539 34.3835 34.048 34.4596 34.0347 34.5346C33.806 35.5409 33.3339 36.4756 32.6597 37.2567C32.4896 37.4567 32.2756 37.6376 31.9989 37.5138C31.7024 37.3869 31.7837 37.0879 31.7887 36.8416C31.799 36.7032 31.8166 36.5654 31.8414 36.4289Z" fill="white"/>
<path d="M35.8106 36.8101C35.6595 37.0218 35.4958 37.2242 35.3205 37.4163C35.2644 37.4878 35.1883 37.541 35.102 37.5694C35.0157 37.5978 34.9229 37.6 34.8353 37.5758C34.7477 37.5515 34.6692 37.502 34.6098 37.4333C34.5503 37.3646 34.5124 37.2799 34.501 37.1897C34.4399 36.955 34.4372 36.7089 34.4933 36.473C34.6288 35.6796 34.9995 34.9451 35.5573 34.3648C35.7123 34.1938 35.9093 34.0663 36.1286 33.9947C36.573 33.8626 36.7914 34.1216 36.8041 34.573C36.7419 35.0809 36.6017 35.5762 36.3883 36.0413C36.2983 36.3056 36.251 36.5824 36.248 36.8615C36.2476 36.9447 36.2702 37.0264 36.3132 37.0976C36.3562 37.1688 36.418 37.2268 36.4917 37.2653C36.6708 37.3611 36.7292 37.5147 36.6187 37.6747C36.5083 37.8347 36.3184 37.7928 36.1743 37.7014C35.8639 37.509 35.8372 37.1853 35.8106 36.8101ZM34.9466 36.5282C34.9498 36.7092 34.9161 36.8736 35.0812 36.9339C35.2221 36.9853 35.3135 36.8621 35.3986 36.7701C35.4484 36.7125 35.4936 36.6512 35.5338 36.5866C35.8982 36.047 36.0556 35.4052 36.3908 34.8498C36.4924 34.6815 36.3502 34.5958 36.1927 34.5781C36.1223 34.5757 36.0522 34.5901 35.9884 34.6201C35.9246 34.6501 35.8689 34.6949 35.8258 34.7507C35.3638 35.2435 35.0579 35.862 34.9466 36.5282Z" fill="white"/>
<path d="M61.2906 35.7911C60.918 36.1735 60.617 36.6196 60.4019 37.1083C60.3462 37.2223 60.2826 37.3322 60.2114 37.4372C60.1891 37.4764 60.1535 37.5065 60.1111 37.5219C60.0686 37.5374 60.0221 37.5373 59.9797 37.5216C59.9365 37.5078 59.8994 37.4794 59.8748 37.4414C59.8501 37.4033 59.8394 37.3578 59.8445 37.3127C59.8501 37.187 59.8714 37.0625 59.908 36.942C60.1748 36.1877 60.5067 35.4581 60.9002 34.7614C60.9852 34.6084 61.0697 34.3418 61.3052 34.4694C61.5166 34.5843 61.3935 34.8039 61.3122 34.9772C61.3032 34.9897 61.2967 35.0038 61.2932 35.0188C61.2897 35.0338 61.2892 35.0493 61.2917 35.0645C61.2943 35.0797 61.2998 35.0942 61.308 35.1073C61.3162 35.1203 61.3269 35.1315 61.3395 35.1404C61.5668 34.941 61.7934 34.729 62.0378 34.536C62.1717 34.4294 62.3457 34.265 62.5088 34.4091C62.672 34.5532 62.5723 34.7716 62.4638 34.9303C62.0989 35.4039 61.8153 35.9348 61.6245 36.5014C61.4766 36.8983 61.4896 37.3373 61.6607 37.7247C61.7242 37.8517 61.7826 38.0091 61.6182 38.0929C61.436 38.1862 61.3008 38.0796 61.2183 37.9139C61.0128 37.4295 60.9976 36.8854 61.1757 36.3903C61.2221 36.2069 61.3027 36.031 61.3661 35.852C61.3858 35.8127 61.422 35.7688 61.3661 35.7365C61.3541 35.7333 61.316 35.7727 61.2906 35.7911ZM61.2722 35.2064C61.2987 35.1815 61.3229 35.1543 61.3446 35.1252C61.3446 35.1207 61.3109 35.0794 61.3027 35.0826C61.2709 35.0973 61.2407 35.1152 61.2125 35.1359L61.2722 35.2064Z" fill="white"/>
<path d="M40.8986 36.6056C40.895 36.3649 40.9713 36.1298 41.1157 35.9371C41.1874 35.8425 41.2858 35.7505 41.4051 35.8165C41.5245 35.8825 41.4363 35.9936 41.4051 36.085C41.3473 36.2126 41.3166 36.3508 41.3149 36.4909C41.3133 36.631 41.3408 36.7699 41.3956 36.8988C41.5143 37.1267 41.7022 37.2651 41.9549 37.1591C42.0552 37.1142 42.1337 37.0313 42.1731 36.9286C42.2125 36.8259 42.2096 36.7118 42.165 36.6113C42.0822 36.3847 41.9759 36.1674 41.8476 35.9631C41.7121 35.7537 41.6432 35.5081 41.6502 35.2588C41.6571 35.0095 41.7394 34.7681 41.8863 34.5665C42.0577 34.3177 42.2961 34.1226 42.5738 34.0037C42.8516 33.8848 43.1573 33.8471 43.4556 33.8949C43.7324 33.9342 43.8276 34.1329 43.8251 34.3894C43.7988 34.6691 43.6805 34.9323 43.4886 35.1376C43.2968 35.3429 43.0423 35.4787 42.7649 35.5238C42.6481 35.534 42.4939 35.5841 42.4526 35.4019C42.4427 35.368 42.4402 35.3323 42.4454 35.2974C42.4506 35.2624 42.4633 35.229 42.4827 35.1994C42.5021 35.1698 42.5277 35.1448 42.5576 35.1261C42.5876 35.1073 42.6213 35.0953 42.6564 35.0909C42.8582 35.061 43.0469 34.9727 43.1991 34.837C43.2956 34.729 43.3851 34.616 43.3045 34.465C43.2239 34.3139 43.083 34.3558 42.963 34.3761C42.8145 34.3978 42.6733 34.4542 42.5506 34.5406C42.4279 34.627 42.3273 34.7411 42.2568 34.8735C42.1863 35.006 42.1479 35.1531 42.1448 35.3032C42.1416 35.4532 42.1738 35.6018 42.2387 35.7371C42.3421 35.9682 42.4888 36.1815 42.5789 36.4164C42.6334 36.5319 42.6631 36.6576 42.6662 36.7853C42.6693 36.913 42.6457 37.0399 42.597 37.158C42.5482 37.2761 42.4754 37.3827 42.383 37.471C42.2907 37.5593 42.181 37.6273 42.0609 37.6708C41.4286 37.905 40.8992 37.4588 40.8986 36.6056Z" fill="white"/>
<path d="M57.3298 35.5467C57.5907 35.6502 57.7177 35.4629 57.8751 35.3461C57.9697 35.2756 58.0593 35.1239 58.197 35.2407C58.3348 35.3575 58.2605 35.5003 58.1862 35.6216C58.1074 35.7837 57.9783 35.9161 57.8181 35.9989C57.658 36.0817 57.4753 36.1106 57.2975 36.0812C57.2629 36.0691 57.2262 36.0642 57.1896 36.0668C57.153 36.0695 57.1174 36.0796 57.0849 36.0965C57.0525 36.1135 57.0238 36.137 57.0007 36.1654C56.9777 36.1939 56.9607 36.2268 56.9508 36.2621C56.7561 36.6772 56.4847 37.0517 56.151 37.3661C55.998 37.5038 55.8253 37.646 55.6069 37.5375C55.52 37.4835 55.4497 37.4064 55.4038 37.3148C55.358 37.2233 55.3384 37.1208 55.3473 37.0188C55.3502 36.624 55.4429 36.235 55.6184 35.8812C55.8031 35.4229 56.0138 34.9747 56.2164 34.5233C56.2678 34.4091 56.3173 34.2567 56.4785 34.3069C56.6398 34.357 56.6093 34.5126 56.5814 34.6351C56.4567 35.0612 56.2943 35.4755 56.0964 35.873C55.9738 36.124 55.8838 36.3896 55.8285 36.6633C55.8177 36.7351 55.8088 36.8227 55.892 36.8639C55.9271 36.8803 55.9668 36.8842 56.0045 36.8751C56.0422 36.866 56.0757 36.8444 56.0996 36.8138C56.5215 36.4237 56.7933 35.8981 56.8677 35.3283C56.8637 35.0227 56.9474 34.7224 57.1089 34.463C57.1447 34.3941 57.2031 34.3396 57.2743 34.3086C57.3455 34.2776 57.4252 34.2721 57.5 34.2929C57.6904 34.3564 57.6415 34.5322 57.6168 34.6821C57.5517 34.9795 57.4555 35.2693 57.3298 35.5467Z" fill="white"/>
<path d="M52.5905 36.8437C52.6332 36.3252 52.7795 35.8206 53.0207 35.3597C53.2619 34.8988 53.5931 34.4909 53.9947 34.1603C54.0812 34.0646 54.1966 33.9998 54.3233 33.9756C54.45 33.9514 54.5811 33.9692 54.6968 34.0263C54.9279 34.1685 54.9196 34.4383 54.8872 34.6815C54.7446 35.5744 54.3791 36.417 53.8246 37.1312C53.7765 37.1903 53.7241 37.2457 53.6678 37.2969C53.5816 37.4169 53.4589 37.5057 53.3179 37.5498C53.177 37.594 53.0255 37.5913 52.8863 37.542C52.6057 37.4169 52.581 37.1281 52.5905 36.8437ZM53.0729 36.4964C53.064 36.7186 53.0507 36.8608 53.1878 36.9255C53.3402 36.9966 53.4526 36.8913 53.5535 36.7929C53.6107 36.7428 53.6596 36.6838 53.6982 36.6183C53.9128 36.0269 54.1582 35.4472 54.4334 34.8814C54.4482 34.8603 54.4583 34.8362 54.4632 34.8108C54.468 34.7854 54.4674 34.7593 54.4614 34.7342C54.4554 34.709 54.4441 34.6855 54.4284 34.665C54.4126 34.6445 54.3926 34.6276 54.3699 34.6154C54.3286 34.5973 54.2825 34.5932 54.2386 34.6036C54.1948 34.6141 54.1555 34.6385 54.1267 34.6732C53.5847 35.1487 53.2144 35.7894 53.0729 36.4964Z" fill="white"/>
<path d="M58.1519 37.3718C58.3296 36.5376 58.6327 35.7352 59.0508 34.9918C59.1822 34.762 59.3276 34.5392 59.4748 34.3189C59.4942 34.2779 59.5282 34.2457 59.5701 34.2283C59.612 34.2109 59.6588 34.2098 59.7015 34.225C59.824 34.2732 59.8246 34.3849 59.7986 34.4789C59.7653 34.5869 59.7191 34.6905 59.6609 34.7874C59.2113 35.5796 58.8638 36.4256 58.6267 37.3051C58.6107 37.3662 58.5914 37.4264 58.5689 37.4854C58.5207 37.6124 58.4483 37.7197 58.2915 37.672C58.1582 37.634 58.1417 37.5178 58.1519 37.3718Z" fill="white"/>
<path d="M63.9286 38.8312C63.9085 38.961 63.8627 39.0854 63.7941 39.1973C63.7254 39.3093 63.6352 39.4064 63.5287 39.4832C63.4908 39.5183 63.4425 39.5402 63.3911 39.5455C63.3396 39.5507 63.2879 39.5391 63.2437 39.5124C63.1953 39.4814 63.1583 39.4356 63.1382 39.3818C63.1182 39.3279 63.1162 39.2691 63.1325 39.214C63.1866 38.9636 63.3299 38.7413 63.5357 38.5887C63.5745 38.5549 63.6227 38.5336 63.6739 38.5275C63.725 38.5213 63.7769 38.5307 63.8226 38.5544C63.9337 38.6097 63.9286 38.7138 63.9286 38.8312Z" fill="white"/>
</svg>
