<svg width="14" height="14" viewBox="0 0 14 14" fill="none" xmlns="http://www.w3.org/2000/svg">
<path d="M7 1.31348C3.85902 1.31348 1.3125 3.86 1.3125 7.00098C1.3125 10.137 3.86422 12.6885 7 12.6885C10.1407 12.6885 12.6875 10.1417 12.6875 7.00098C12.6875 3.86492 10.1361 1.31348 7 1.31348ZM9.95312 7.87598H6.67187C6.64287 7.87598 6.61505 7.86445 6.59453 7.84394C6.57402 7.82343 6.5625 7.79561 6.5625 7.7666V3.17285C6.5625 3.14384 6.57402 3.11602 6.59453 3.09551C6.61505 3.075 6.64287 3.06348 6.67187 3.06348H7.32812C7.35713 3.06348 7.38495 3.075 7.40546 3.09551C7.42598 3.11602 7.4375 3.14384 7.4375 3.17285V7.00098H9.95312C9.98213 7.00098 10.01 7.0125 10.0305 7.03301C10.051 7.05352 10.0625 7.08134 10.0625 7.11035V7.7666C10.0625 7.79561 10.051 7.82343 10.0305 7.84394C10.01 7.86445 9.98213 7.87598 9.95312 7.87598Z" fill="#A02167"/>
</svg>
