<svg width="14" height="14" viewBox="0 0 14 14" fill="none" xmlns="http://www.w3.org/2000/svg">
<path d="M7 1.31189C3.86395 1.31189 1.3125 3.86333 1.3125 6.99939C1.3125 10.1354 3.86395 12.6869 7 12.6869C10.1361 12.6869 12.6875 10.1354 12.6875 6.99939C12.6875 3.86333 10.1361 1.31189 7 1.31189ZM7.05469 3.93689C7.44407 3.93689 7.82471 4.05235 8.14847 4.26868C8.47223 4.48501 8.72456 4.79249 8.87357 5.15223C9.02258 5.51197 9.06157 5.90782 8.98561 6.28972C8.90964 6.67162 8.72214 7.02242 8.4468 7.29776C8.17147 7.57309 7.82067 7.7606 7.43877 7.83656C7.05687 7.91252 6.66102 7.87354 6.30128 7.72453C5.94154 7.57552 5.63406 7.32318 5.41773 6.99942C5.2014 6.67566 5.08594 6.29502 5.08594 5.90564C5.08594 5.38349 5.29336 4.88274 5.66257 4.51352C6.03178 4.14431 6.53254 3.93689 7.05469 3.93689ZM7 11.8119C6.33622 11.8122 5.67959 11.6748 5.07161 11.4084C4.46363 11.142 3.9175 10.7524 3.46773 10.2642C3.70945 9.01244 5.88055 8.74939 7 8.74939C8.11945 8.74939 10.2905 9.01244 10.5323 10.264C10.0826 10.7522 9.53644 11.1419 8.92845 11.4083C8.32046 11.6748 7.66381 11.8122 7 11.8119Z" fill="#A02167"/>
</svg>
