<svg width="66" height="78" viewBox="0 0 66 78" fill="none" xmlns="http://www.w3.org/2000/svg">
<path d="M33 71.5H25.5C24.8125 71.5 24.25 72.0625 24.25 72.75C24.25 73.4375 24.8125 74 25.5 74H33C33.6875 74 34.25 73.4375 34.25 72.75C34.25 72.0625 33.6875 71.5 33 71.5Z" fill="#A02167"/>
<path d="M38 32.75C38 32.0625 37.4375 31.5 36.75 31.5H34.25C33.5625 31.5 33 32.0625 33 32.75C33 33.4375 33.5625 34 34.25 34H36.75C37.4375 34 38 33.4375 38 32.75Z" fill="#A02167"/>
<path d="M49.25 34H51.75C52.4375 34 53 33.4375 53 32.75C53 32.0625 52.4375 31.5 51.75 31.5H49.25C48.5625 31.5 48 32.0625 48 32.75C48 33.4375 48.5625 34 49.25 34Z" fill="#A02167"/>
<path d="M61.125 10.25H51.75V4.625C51.75 2.20312 49.7969 0.25 47.375 0.25H11.125C8.70312 0.25 6.75 2.20312 6.75 4.625V47.75H4.875C2.45312 47.75 0.5 49.7031 0.5 52.125V60.875C0.5 63.2969 2.45312 65.25 4.875 65.25H6.75V73.375C6.75 75.7969 8.70312 77.75 11.125 77.75H47.375C49.7969 77.75 51.75 75.7969 51.75 73.375V46.5H61.125C63.5469 46.5 65.5 44.5469 65.5 42.125V14.625C65.5 12.2031 63.5469 10.25 61.125 10.25ZM35.1562 2.75L34.5312 5.25H23.9844L23.3594 2.75H35.1562ZM4.875 62.75C3.84375 62.75 3 61.9062 3 60.875V52.125C3 51.0938 3.84375 50.25 4.875 50.25H18.625C19.6562 50.25 20.5 51.0938 20.5 52.125V60.875C20.5 61.9062 19.6562 62.75 18.625 62.75H18C17.3125 62.75 16.75 63.3125 16.75 64V64.7344L15.1406 63.1094C14.9062 62.875 14.5938 62.75 14.25 62.75H4.875ZM49.25 73.375C49.25 74.4062 48.4062 75.25 47.375 75.25H11.125C10.0938 75.25 9.25 74.4062 9.25 73.375V65.25H13.7344L17.1094 68.6406C17.5938 69.125 18.3906 69.125 18.875 68.6406C19.1094 68.4062 19.2344 68.0938 19.2344 67.75V65.2031C21.3906 64.8906 22.9844 63.0469 22.9844 60.875V52.125C22.9844 49.7031 21.0312 47.75 18.6094 47.75H9.23438V4.625C9.23438 3.59375 10.0781 2.75 11.1094 2.75H20.7656L21.7812 6.79688C21.9219 7.35938 22.4219 7.75 23 7.75H35.5C36.0781 7.75 36.5781 7.35938 36.7188 6.79688L37.7344 2.75H47.375C48.4062 2.75 49.25 3.59375 49.25 4.625V10.25H23.625C21.2031 10.25 19.25 12.2031 19.25 14.625V42.125C19.25 44.5469 21.2031 46.5 23.625 46.5H25.5V52.75C25.5 53.4375 26.0625 54 26.75 54C27.0781 54 27.4062 53.875 27.6406 53.6406L34.7656 46.5H49.25V73.375ZM63 42.125C63 43.1562 62.1562 44 61.125 44H34.25C33.9219 44 33.5938 44.125 33.3594 44.3594L28 49.7344V45.25C28 44.5625 27.4375 44 26.75 44H23.625C22.5938 44 21.75 43.1562 21.75 42.125V14.625C21.75 13.5938 22.5938 12.75 23.625 12.75H61.125C62.1562 12.75 63 13.5938 63 14.625V42.125Z" fill="#A02167"/>
<path d="M55.5 27.75H52.6562L52.2344 26.5H53C53.6875 26.5 54.25 25.9375 54.25 25.25C54.25 24.5625 53.6875 24 53 24H51.4062L50.4375 21.1094C50.2656 20.5938 49.7969 20.25 49.25 20.25H48V17.75C48 17.0625 47.4375 16.5 46.75 16.5H39.25C38.5625 16.5 38 17.0625 38 17.75V20.25H36.75C36.2188 20.25 35.7344 20.5938 35.5625 21.1094L34.5938 24H33C32.3125 24 31.75 24.5625 31.75 25.25C31.75 25.9375 32.3125 26.5 33 26.5H33.7656L33.3438 27.75H30.5C29.8125 27.75 29.25 28.3125 29.25 29V36.5C29.25 37.1875 29.8125 37.75 30.5 37.75V39C30.5 40.375 31.625 41.5 33 41.5H35.5C36.875 41.5 38 40.375 38 39V37.75H48V39C48 40.375 49.125 41.5 50.5 41.5H53C54.375 41.5 55.5 40.375 55.5 39V37.75C56.1875 37.75 56.75 37.1875 56.75 36.5V29C56.75 28.3125 56.1875 27.75 55.5 27.75ZM40.5 19H45.5V20.25H40.5V19ZM36.6875 25.625L37.6406 22.75H48.3438L49.2969 25.625L50 27.75H35.9688L36.6875 25.625ZM35.5 39H33V37.75H35.5V39ZM53 39H50.5V37.75H53V39ZM54.25 35.25H31.75V30.25H54.25V35.25Z" fill="white"/>
</svg>
