<svg xmlns="http://www.w3.org/2000/svg" width="361" height="131.903" viewBox="0 0 361 131.903"><g transform="translate(-188.38 -254.471)"><g transform="translate(188.38 254.471)"><path d="M545.681,336.916c1.024,6.444,2.5,14.707,2.5,14.707,4.791,1.95-5.509,22.478-17.806,22.478,0,0-192.275-.543-312.68-.543-3.488,0-14.731-.543-20.623-1.823-2.977-.65-12.983-30.077-6.6-31.617,1.306-9.605.181-26.533,1.713-36.313-1.22-3.847,4.829-11.49,7.361-15.242a128.3,128.3,0,0,1,15.735-23.775q.1-.116.223-.267c1.962-2.383,7.732-9.391,27.554-9.988l1.4-.042c7.729-.234,88.358,1.6,95.983,1.52.7-.009,1.365-.012,1.971-.012,13.4-.018,32.128,2.1,45.387,8.192l77.886,33.968c8.148,3.773,31.876,8.433,37.034,9.762C542.63,318.216,544.6,330.395,545.681,336.916Z" transform="translate(-188.38 -254.471)" fill="#4a7eca"/><path d="M426.494,305.679c-.508,0-1.072-.021-1.683-.062L205.36,293.02c-4.4-.294-8.065-2.419-9.587-5.542a7.092,7.092,0,0,1,.608-7.233,79.669,79.669,0,0,1,10.979-17.379c.056-.062.116-.139.184-.223,1.487-1.849,6.014-7.471,23.247-7.827.261-.006.606-.009,1.03-.009,7.124,0,37.023.766,61.047,1.38,15.45.395,28.792.736,31.632.76,13.369.107,31.395,2.2,41.89,7.75l46.776,24.963c17.495,9.335,18.5,11.885,18,13.862C430.629,305.679,427.625,305.679,426.494,305.679Z" transform="translate(-175.25 -253.81)" fill="#bcbcbc"/><path d="M411.421,290c13.6,7.257,23.609,13.817,12.473,13.069l-219.467-12.6c-6.687-.448-11.036-5.613-7.717-10.5a78.653,78.653,0,0,1,10.8-17.133c1.158-1.371,4.85-7.141,22.288-7.507,7.492-.154,86.17,2.072,93.665,2.134,12.553.1,30.742,2.048,41.184,7.569Z" transform="translate(-174.228 -252.791)" fill="#232122"/><path d="M221.628,255.84l-1.261.027c-13.1.273-17.978,3.6-19.988,5.631a144.126,144.126,0,0,0,7.29,27.156l23.624,1.356q.726-3.727,1.594-7.426a173.341,173.341,0,0,1,6.732-22.229c.537-1.4,1.134-2.784,1.763-4.15C231.293,255.959,223.629,255.8,221.628,255.84Z" transform="translate(-164.764 -251.789)" fill="#80c2dc"/><path d="M220.478,261.769a174.155,174.155,0,0,0-6.572,21.54q-.779,3.313-1.434,6.649l72.95,4.132c-.246-14.529-2.051-24.74-3.835-36.818-13.505-.329-40.572-.81-58.6-1.267C222.078,257.9,221.217,259.807,220.478,261.769Z" transform="translate(-140.96 -251.452)" fill="#80c2dc"/><path d="M282.37,263.986c-10.006-5.289-27.471-7.287-40.478-7.394-.6,0-1.244-.006-1.935-.006-.588,0-1.594-.015-2.947-.039a289.364,289.364,0,0,1,3.541,36.729l71.213,4.087c2.066-4.794,4.108-9.6,6.221-14.369Z" transform="translate(-92.666 -250.383)" fill="#80c2dc"/></g><path d="M189.132,289.186c2.075,7.18,5.052,13.915,6.459,14.224,5.892,1.279,17.135,1.823,20.623,1.823,120.406,0,312.68.543,312.68.543,4.966,0,8.718-3.007,12.505-6.643,4.532-9.014.884-9.561.884-9.561C487.233,289.542,189.132,289.186,189.132,289.186Z" transform="translate(1.48 68.326)" fill="#2f5c91"/><path d="M509.442,297.729c-19.955,0-7.955-4.58-79.688-4.58-25.114,0-55.782,3.787-87.619,3.746-8.382-.012-56.055-6-64.274-6.011-21.175-.024-44.737,5.88-63.437,5.88-3.488,0-14.731-.54-20.623-1.822-2.045-.445-3.3-.638-3.761-1.244,1.463,3.606,2.9,6.183,3.761,6.37a139.2,139.2,0,0,0,20.647,2.14c120.406,0,312.657.226,312.657.226,4.693,0,9.092-2.989,12.475-6.791C532.1,295.838,533.894,297.729,509.442,297.729Z" transform="translate(3.269 71.668)" fill="#191919"/><g transform="translate(214.171 323.912)"><path d="M230.485,277.866A33.415,33.415,0,0,1,263.9,311.282c0,1.045.211,8.041.43,16.367-27.717-.071-56.868-.139-67.227-.139.039-4.209-.036-11.831-.036-16.227A33.415,33.415,0,0,1,230.485,277.866Z" transform="translate(-197.069 -277.866)" fill="#191919"/><path d="M303.372,278.515a33.416,33.416,0,0,1,32.825,34c-.015.923-.056,7.088.012,14.143-17.729.223-37.925-.4-55.7-.178-3.149.042-7.053.068-11.576.083.2-7.551.413-13.838.436-15.221A33.418,33.418,0,0,1,303.372,278.515Z" transform="translate(-55.615 -276.598)" fill="#191919"/><g transform="translate(219.128 5.447)"><path d="M270.894,308.211A28.507,28.507,0,1,0,299.4,279.7,28.5,28.5,0,0,0,270.894,308.211Z" transform="translate(-270.894 -279.701)" fill="#070000"/><path d="M273.079,303.908A22.02,22.02,0,1,0,295.1,281.887,22.02,22.02,0,0,0,273.079,303.908Zm4.043,6.679,2.79-.445-2.294,1.662C277.436,311.406,277.276,311,277.122,310.587Zm-.87-3.084a18.693,18.693,0,0,1-.012-7.112l9.362,1.493,2.849,2.066-2.849,2.063Zm36.206,4.556-2.645-1.917,3.235.516C312.871,311.133,312.675,311.6,312.458,312.059Zm-8.338-6.046-2.849-2.063,2.849-2.066,9.828-1.567a18.752,18.752,0,0,1-.015,7.26Zm8.958-8.777-3.265.519,2.674-1.941C312.7,296.28,312.9,296.752,313.079,297.236Zm-35.491-1.164,2.321,1.683-2.814-.448C277.246,296.888,277.407,296.476,277.588,296.072Zm6.548-7.907,5.64,7.777.552,3.473-3.473-.552-7.723-5.6A19.228,19.228,0,0,1,284.135,288.165Zm2.769-1.6c.421-.2.849-.386,1.288-.555l.475,2.983Zm8.2-1.855a19.359,19.359,0,0,1,3.366.312l-1.54,9.664-2.066,2.85-2.063-2.85-1.529-9.593A19.4,19.4,0,0,1,295.1,284.713Zm6.456,1.134c.469.169.932.347,1.383.552l-1.885,2.6Zm9.353,7.183-8.041,5.833-3.473.552.552-3.473,5.8-8A19.305,19.305,0,0,1,310.909,293.03Zm-5.2,26.868-5.761-7.943-.552-3.473,3.473.552,8,5.8A19.292,19.292,0,0,1,305.709,319.9Zm-2.814,1.541c-.442.2-.893.368-1.35.531l-.49-3.072ZM295.1,323.1a19.282,19.282,0,0,1-3.82-.38l1.517-9.513,2.063-2.849,2.066,2.849,1.529,9.581A19.23,19.23,0,0,1,295.1,323.1Zm-6.9-1.3c-.427-.163-.843-.344-1.256-.537l1.719-2.366Zm-9.041-7.192,7.691-5.577,3.473-.552-.552,3.473-5.6,7.723A19.318,19.318,0,0,1,279.164,314.611Z" transform="translate(-266.593 -275.398)" fill="#757575"/><path d="M285.57,314.364l-2.4-.994,3.286-4.53Zm9.659,0-.879-5.524,3.283,4.527Zm-8.029-7.328.855-5.387-5.381.858,4.414-3.2-4.414-3.2,5.381.858-.855-5.387,3.2,4.417,3.2-4.414-.861,5.381,5.39-.855-4.417,3.2,4.414,3.2-5.387-.858.861,5.387-3.2-4.417Zm-10.864-.5-.991-2.4,5.521-.882Zm28.127,0-4.524-3.283,5.518.882Zm-4.527-11.181,4.527-3.283,1,2.4Zm-19.074,0-5.518-.882.991-2.4Zm5.589-5.586-3.286-4.527,2.407-1Zm7.9,0,.882-5.521,2.4.994Z" transform="translate(-262.133 -270.755)" fill="#999"/><path d="M298.678,283.022a27.4,27.4,0,0,0-27.343,25.939c-.024-.493-.074-.977-.074-1.475a27.416,27.416,0,1,1,54.832,0c0,.5-.048.982-.074,1.475A27.393,27.393,0,0,0,298.678,283.022Z" transform="translate(-270.172 -278.977)" fill="#262626"/><path d="M295.208,310.679a22.163,22.163,0,0,0,22.122-20.991c.021.4.062.792.062,1.2a22.184,22.184,0,1,1-44.369,0c0-.4.039-.8.059-1.2A22.168,22.168,0,0,0,295.208,310.679Z" transform="translate(-266.702 -260.044)" fill="#262626"/></g><g transform="translate(3.685 5.448)"><circle cx="28.507" cy="28.507" r="28.507" fill="#070000"/><path d="M200.5,303.908a22.02,22.02,0,1,0,22.021-22.021A22.018,22.018,0,0,0,200.5,303.908Zm4.043,6.679,2.787-.445-2.292,1.662C204.853,311.406,204.693,311,204.539,310.587Zm-.87-3.084a18.693,18.693,0,0,1-.012-7.112l9.362,1.493,2.85,2.066-2.85,2.063Zm36.206,4.556-2.648-1.917,3.238.516C240.288,311.133,240.089,311.6,239.875,312.059Zm-8.338-6.046-2.849-2.063,2.849-2.066,9.825-1.567a18.834,18.834,0,0,1-.012,7.26Zm8.958-8.777-3.265.519,2.674-1.941C240.119,296.28,240.315,296.752,240.5,297.236ZM205,296.072l2.321,1.683-2.817-.448C204.663,296.888,204.824,296.476,205,296.072Zm6.548-7.907,5.64,7.777.552,3.473-3.473-.552-7.726-5.6A19.241,19.241,0,0,1,211.553,288.165Zm2.769-1.6c.421-.2.849-.386,1.288-.555l.475,2.983Zm8.2-1.855a10.4,10.4,0,0,1,3.366.312l-1.54,9.664-2.066,2.85-2.066-2.85-1.529-9.593A19.431,19.431,0,0,1,222.517,284.713Zm6.456,1.134c.469.169.932.347,1.383.552l-1.885,2.6Zm9.353,7.183-8.041,5.833-3.476.552.555-3.473,5.8-8A19.348,19.348,0,0,1,238.326,293.03Zm-5.2,26.868-5.761-7.943-.555-3.473,3.476.552,8,5.8A19.281,19.281,0,0,1,233.126,319.9Zm-2.814,1.541c-.442.2-.893.368-1.353.531l-.487-3.072Zm-7.795,1.662a19.282,19.282,0,0,1-3.82-.38l1.514-9.513,2.066-2.849,2.066,2.849,1.529,9.581A19.23,19.23,0,0,1,222.517,323.1Zm-6.9-1.3c-.427-.163-.843-.344-1.256-.537l1.719-2.366Zm-9.041-7.192,7.691-5.577,3.473-.552-.552,3.473-5.6,7.723A19.319,19.319,0,0,1,206.581,314.611Z" transform="translate(-194.009 -275.4)" fill="#757575"/><path d="M212.989,314.364l-2.4-.994,3.286-4.53Zm9.659,0-.879-5.524,3.283,4.527Zm-8.029-7.328.855-5.387-5.381.858,4.411-3.2-4.414-3.2,5.384.858-.855-5.387,3.2,4.417,3.2-4.414-.861,5.381,5.39-.855-4.42,3.2,4.417,3.2-5.387-.858.861,5.387-3.2-4.417Zm-10.864-.5-.994-2.4,5.524-.882Zm28.127,0-4.527-3.283,5.521.882Zm-4.527-11.181,4.527-3.283,1,2.4Zm-19.074,0-5.521-.882.994-2.4Zm5.589-5.586-3.286-4.527,2.4-1Zm7.9,0,.882-5.521,2.4.994Z" transform="translate(-189.551 -270.757)" fill="#999"/><path d="M226.1,283.022a27.394,27.394,0,0,0-27.343,25.939c-.027-.493-.074-.977-.074-1.475a27.416,27.416,0,1,1,54.832,0c0,.5-.048.982-.074,1.475A27.393,27.393,0,0,0,226.1,283.022Z" transform="translate(-197.587 -278.978)" fill="#262626"/><path d="M222.625,310.679a22.165,22.165,0,0,0,22.122-20.991c.021.4.059.792.059,1.2a22.183,22.183,0,1,1-44.366,0c0-.4.039-.8.059-1.2A22.166,22.166,0,0,0,222.625,310.679Z" transform="translate(-194.118 -260.046)" fill="#262626"/></g></g><path d="M259.059,262.574c3.969,1.938,50.656,25.666,56.265,28.133,15.123,6.655,27.83,7.412,31.825,5.328a82.941,82.941,0,0,1-12.06-3.909l-79.257-34.577C255.114,257.362,252.553,259.4,259.059,262.574Z" transform="translate(130.592 6.035)" fill="#232122"/><path d="M260.211,262.311c3.969,1.938,49.652,24.639,55.206,27.224,11.03,5.135,25.666,6.806,31.071,6.236a82.941,82.941,0,0,1-12.06-3.909l-77.886-33.968C254.476,256.944,253.707,259.135,260.211,262.311Z" transform="translate(131.254 6.298)" fill="#80c2dc"/><path d="M400.328,276.28l-.362.131c.932,2.621,1.051,6.26-.985,17.937-19.519,13.829-19.843,27.9-20,34.666-.021.864-.042,1.6-.1,2.2-2.422,0-37.9-.068-78.1-.131v-.006c-.05,0-.095.006-.145.006l-2.633,0a2.12,2.12,0,0,1-.947-.469c-2.511-2.223-4.253-12.164-6.26-58.23l-.386.018c2.024,46.464,3.74,56.156,6.394,58.5a1.913,1.913,0,0,0,.321.181c-18.011-.027-36.77-.053-53.781-.074l.018-.232c.3-4.357,1.11-15.939-6.1-25.286-4.434-5.755-10.344-9.023-15.556-11.908-6.144-3.4-10.994-6.079-10.493-11.419l.062-.694c.2-2.235.62-6.889,1.76-13.505l-.38-.065c-1.143,6.634-1.561,11.3-1.76,13.538l-.065.692c-.528,5.589,4.423,8.326,10.689,11.793,5.182,2.864,11.054,6.112,15.441,11.8,7.115,9.231,6.313,20.706,6.014,25.025l-.045.644h.208c17.334.021,36.5.048,54.844.074a3.666,3.666,0,0,0,.787.1c.309,0,.623-.027.941-.05.3-.024.614-.041.935-.047,41.4.062,77.886.131,78.417.131v-.193l.19.021c.074-.638.089-1.46.113-2.407.154-6.711.475-20.674,19.9-34.4l.065-.048.015-.077C401.412,282.668,401.287,278.969,400.328,276.28Z" transform="translate(44.113 26.421)" fill="#244d7f"/><g transform="translate(339.257 304.016)"><path d="M258.682,274.962a2.488,2.488,0,0,1-2.692,2.511l-14.09-.926a2.915,2.915,0,0,1-2.689-2.867h0a2.487,2.487,0,0,1,2.689-2.511l14.09.926a2.915,2.915,0,0,1,2.692,2.867Z" transform="translate(-239.211 -271.163)" fill="#244d7f"/><path d="M255.606,272.224l-14.09-.926c-.053,0-.1-.006-.154-.006a2.1,2.1,0,0,0-1.968,1.309,2.539,2.539,0,0,0,2.235,1.82l14.093.926c.05,0,.1.006.154.006a2.1,2.1,0,0,0,1.965-1.309A2.539,2.539,0,0,0,255.606,272.224Z" transform="translate(-238.851 -270.909)" fill="#4a7eca"/></g><g transform="translate(258.171 298.442)"><path d="M231.364,273.087a2.487,2.487,0,0,1-2.689,2.511l-14.09-.926a2.915,2.915,0,0,1-2.692-2.867h0a2.488,2.488,0,0,1,2.692-2.514l14.09.929a2.913,2.913,0,0,1,2.689,2.867Z" transform="translate(-211.893 -269.285)" fill="#244d7f"/><path d="M228.286,270.347l-14.09-.929c-.05,0-.1,0-.154,0a2.1,2.1,0,0,0-1.965,1.306,2.542,2.542,0,0,0,2.235,1.822l14.09.926c.053,0,.1.006.154.006a2.1,2.1,0,0,0,1.965-1.309A2.532,2.532,0,0,0,228.286,270.347Z" transform="translate(-211.531 -269.029)" fill="#4a7eca"/></g><path d="M388.6,307.992s-39.183,1.92-41.876,1.92-8.724-33.274-42.54-33.274c-30.012,0-37.2,25.2-35.194,37.554h.659c1.377-19.715,17.192-33.8,35.518-32.383,23.591,1.825,32.131,24.069,31.493,32.238-.133.261,30.163-.172,49.062.22,2.74,1.564.059,8.26.059,8.26S395.89,308.4,388.6,307.992Z" transform="translate(158.043 43.631)" fill="#fff" opacity="0.2"/><path d="M267.16,309.383c0-18.456-15.838-33.416-35.378-33.416S196.4,290.927,196.4,309.383c0,1.582.009,3.583.021,5.69h1.953v-.053a33.416,33.416,0,1,1,66.832,0l0,.249h1.822C267.232,312.42,267.16,309.929,267.16,309.383Z" transform="translate(15.793 42.309)" fill="#fff" opacity="0.2"/><path d="M213.792,276.068l172.159,9.222L234.16,294.13S230.316,284.139,213.792,276.068Z" transform="translate(50.016 42.508)" fill="#fff" opacity="0.2"/><path d="M207.226,259.28s-18.807,22.374,3.74,24.936c17.619,2,249.259,14.98,249.259,14.98s-25.672,3.425-68.628,3.146c-69.079-.448-151.842-4.889-178.223-4.889C202.714,297.454,175.2,294.893,207.226,259.28Z" transform="translate(7.524 9.465)" fill="#fff" opacity="0.2"/><path d="M192.851,286.137c-3.505-.125-4.084,5.651-4.084,5.651s-1.538-7.26,1.665-8.462c5.227.169,19.477,1.38,23.321,1.636C213.174,285.754,205.05,286.567,192.851,286.137Z" transform="translate(0.035 56.793)" fill="#fff" opacity="0.2"/><path d="M189.571,311.825c5.123,0,8.468,1.763,8.468-4.387s-1.538-23.312,1.793-29.718,11.273-18.189,11.273-18.189-1.538-1.282-5.637,4.61-16.141,24.339-16.141,26.132S188.289,311.825,189.571,311.825Z" transform="translate(1.083 9.727)" fill="#5c1f24"/><path d="M193.524,270.1c2.574-4.2,5.408-8.516,6.741-10.516a15.752,15.752,0,0,0-3.838,4.221c-.745,1.071-1.754,2.559-2.9,4.283Z" transform="translate(10.124 10.064)" fill="#c7212b"/><path d="M197.536,269.514V265c-4.212,6.56-8.281,13.229-8.281,14.271,0,.727-.169,4.417-.288,8.54H196.7C196.509,281.87,196.432,274.56,197.536,269.514Z" transform="translate(1.155 20.727)" fill="#c7212b"/><path d="M197.011,277.087c0-.766-.027-1.686-.062-2.731h-8.011c-.009.953-.009,1.873,0,2.731Z" transform="translate(1.084 39.138)" fill="#d86b32"/><path d="M190.466,348.762c1.306-9.6.181-26.53,1.713-36.31-1.22-3.847,4.829-11.49,7.361-15.242a128.2,128.2,0,0,1,15.734-23.775q.1-.116.223-.267c1.962-2.383,7.732-9.391,27.554-9.988l1.4-.042c7.729-.234,88.358,1.594,95.983,1.52.7-.009,1.365-.012,1.971-.012,13.4-.018,32.128,2.1,45.387,8.192l77.886,33.968c8.148,3.773,31.876,8.433,37.034,9.763,39.914,10.294,41.879,22.469,42.965,28.993.816,5.132,1.917,11.416,2.33,13.761,1.653-3.779,1.923-6.984.169-7.7,0,0-1.475-8.263-2.5-14.707-1.086-6.521-3.051-18.7-42.965-28.994-5.159-1.33-29.074-5.619-37.218-9.391l-77.7-34.339c-13.259-6.094-31.988-8.21-45.387-8.192-.606,0-1.267,0-1.971.012-7.625.077-88.254-1.754-95.983-1.52l-1.4.042c-19.822.6-25.592,7.6-27.554,9.988q-.125.151-.223.267a128.3,128.3,0,0,0-15.734,23.775c-2.532,3.752-8.581,11.395-7.361,15.242-1.532,9.78-.407,26.708-1.713,36.313-2.339.564-2.472,4.877-1.561,10.145A2.323,2.323,0,0,1,190.466,348.762Z" transform="translate(0.001 0)" fill="#fff" opacity="0.2"/><path d="M331.371,294.061s-11.333-.178-13.669-.178-5.4-13.85-20.326-17.628c13.672,1.621,28.78,4.678,32.555,12.232A52.154,52.154,0,0,1,331.371,294.061Z" transform="translate(214.527 42.876)" fill="#2f5c91"/><path d="M325.266,288.225c-3.2-6.4-14.544-9.575-26.251-11.38,10.78,5.147,13.4,15.877,15.461,15.877,1.787,0,8.819.1,12.039.154C326.326,292.054,325.96,290.606,325.266,288.225Z" transform="translate(217.753 44.037)" fill="#fff"/><path d="M308.528,284.666s7.492-3.583,7.133-3.722a79.235,79.235,0,0,0-16.646-4.1A26.5,26.5,0,0,1,308.528,284.666Z" transform="translate(217.753 44.037)" fill="#c7def9"/><path d="M303.346,281.15c1.134,1.849,1.9,3.1,2.606,3.1,1.787,0,8.819.1,12.039.154-.148-.647-.407-1.683-.849-3.253Z" transform="translate(226.277 52.51)" fill="#d86b32"/><path d="M317.9,282.805H307.127a2.878,2.878,0,1,0,0,5.755h11.73C318.543,286.72,318.208,284.722,317.9,282.805Z" transform="translate(228.053 55.767)" fill="#2f5c91"/><path d="M317.679,285.2a2.16,2.16,0,0,0-2.158-2.158H305.228a2.867,2.867,0,0,0,0,4.316h10.294A2.158,2.158,0,0,0,317.679,285.2Z" transform="translate(228.053 56.244)" fill="#fff"/><path d="M202.8,273.091c-.983-3.832-1.8-7.705-2.422-11.624,1.992-2.009,6.815-5.3,19.667-5.619Zm36.678-16.96c-4.087-.1-7.711-.181-10.641-.237l-24.09,24.093c.84,2.731,1.76,5.441,2.74,8.133Q223.485,272.127,239.479,256.131Zm-17.135,33.336,8.949.514q.726-3.727,1.594-7.426.57-2.427,1.2-4.835Q228.216,283.591,222.344,289.467Zm95.392-31.416c-.988-.033-1.965-.059-2.918-.071l-4.93,4.93c.128.876.243,1.754.359,2.63Zm40.581,9.368-3.85-2.057a44,44,0,0,0-7.486-3l-32.4,32.4,15.506.89Zm6.343,3.384-1.778-.95-26.177,26.18,2.576.148Zm-58.9-10.763q-.182-1.22-.368-2.461c-6.064-.148-14.865-.327-24.354-.519q-16.91,16.914-33.826,33.826l26.218,1.484Zm1.291,8.7c-.125-.87-.249-1.742-.38-2.612l-26.619,26.619,2.832.16Zm-40.083-11.971c-3.992-.083-7.931-.169-11.674-.252q-6.959,6.959-13.921,13.921-2.088,6.514-3.663,13.179-.365,1.549-.7,3.111Q251.987,271.75,266.968,256.769Z" transform="translate(23.616 2.712)" fill="#fff" opacity="0.7"/><path d="M256.542,257.894l13.226,5.77-2.256,2.256c-3.773-1.87-6.465-3.2-7.3-3.609C253.707,259.135,254.476,256.944,256.542,257.894Zm56.129,24.482-3.69-1.609-3.787,3.787c1.267.626,2.458,1.211,3.553,1.745Zm-16.233-7.082-19.029-8.3-2.559,2.559c5.6,2.778,12.116,6,18.278,9.05Q294.785,276.952,296.438,275.294Z" transform="translate(131.254 6.298)" fill="#fff" opacity="0.7"/></g></svg>