<svg width="109" height="40" viewBox="0 0 109 40" fill="none" xmlns="http://www.w3.org/2000/svg">
<path fill-rule="evenodd" clip-rule="evenodd" d="M79.826 10.6176C77.2073 8.84715 74.4707 7.25797 71.6351 5.8611C66.7898 3.45229 63.0151 2.04254 62.504 1.82911C62.3335 1.774 62.1698 1.69967 62.016 1.60759C62.016 1.60759 61.993 1.52338 61.8257 1.42417C59.1338 0.751069 56.3858 0.326314 53.6163 0.155182C46.8376 -0.12639 40.0483 -0.0247331 33.281 0.459719C26.1157 1.12999 10.7848 3.63112 10.6891 3.87454C10.5933 4.11796 11.1621 4.49978 11.3294 4.62092C11.5603 4.75772 11.7995 4.87988 12.0458 4.98664C12.0458 4.98664 6.46674 10.1388 6.03989 10.5968C5.61304 11.0548 5.5219 11.146 5.5219 11.146C5.36968 11.2111 5.23436 11.3101 5.12621 11.4355C4.98893 11.6189 4.08794 12.9145 4.08794 12.9145C4.08794 12.9145 3.78222 12.9595 3.20309 13.722C2.62396 14.4846 2.73009 16.4204 2.7151 16.8623C2.70509 17.1112 2.71009 17.3604 2.73009 17.6087C2.13753 18.0029 1.59518 18.4678 1.115 18.9931C0.831819 20.2968 0.639085 21.6186 0.538172 22.9489C0.494308 23.426 0.502031 23.9064 0.561232 24.3818C0.433226 24.4588 0.325581 24.5655 0.247296 24.6927C0.169011 24.82 0.122386 24.9641 0.111328 25.1131C0.707659 26.8222 1.53311 28.4425 2.56512 29.9296C2.9325 30.3645 3.44864 30.647 4.01295 30.7222C4.27137 30.7372 5.62805 30.7222 5.62805 30.7222L26.0095 31.4698C26.0095 31.4698 25.7961 32.7192 26.3453 32.6892C26.8944 32.6592 58.6012 33.0248 66.2845 33.3906C73.9678 33.7563 76.9557 33.8024 77.1288 33.7263C77.3018 33.6501 77.3111 32.7965 77.3111 32.7965L99.115 33.0399C99.115 33.0399 99.0539 33.8024 99.2373 33.8024C99.4207 33.8024 102.987 33.3756 103.967 33.116C105.308 32.6305 106.572 31.9527 107.718 31.104C108.907 30.2653 108.8 29.8235 108.663 29.7324C108.525 29.6412 108.373 29.549 108.373 29.549C108.256 27.9146 108.261 26.2738 108.388 24.6402C108.631 24.534 108.861 24.3968 108.861 24.1983C108.927 23.4175 108.876 22.6312 108.709 21.8656C108.474 21.5732 108.209 21.3074 107.916 21.0731C107.795 20.4998 107.584 19.9493 107.291 19.4418C106.925 18.9688 106.829 18.8465 106.829 18.8465C106.829 18.8465 106.555 17.9467 104.161 16.7273C99.0435 14.625 93.7616 12.9477 88.3688 11.7124C86.2326 11.1845 84.0629 10.8025 81.8749 10.5691C81.2184 10.5541 79.826 10.6176 79.826 10.6176Z" fill="#444444"/>
<path fill-rule="evenodd" clip-rule="evenodd" d="M4.09365 12.9121C4.09365 12.9121 3.78793 12.9571 3.2088 13.7197C2.62967 14.4822 2.7358 16.418 2.7208 16.8599C2.71083 17.1088 2.71583 17.358 2.7358 17.6063L3.16036 17.5901C4.11596 17.5348 5.05837 17.3404 5.95794 17.0133C7.94028 15.9754 9.8189 14.7504 11.5681 13.3551C11.5981 13.2028 11.5981 13.0955 11.2936 12.9432C9.6758 12.6025 8.02122 12.4696 6.36982 12.5475C5.61983 12.6071 4.87377 12.7088 4.13519 12.8521L4.09365 12.9121Z" fill="white"/>
<path fill-rule="evenodd" clip-rule="evenodd" d="M5.58545 11.0815C5.96731 11.1207 6.61798 11.1865 6.76564 11.1807C6.97907 11.1727 12.6723 5.14486 12.6423 5.06642C12.6123 4.98797 12.0493 4.9834 12.0493 4.9834C12.0493 4.9834 6.46914 10.1356 6.04229 10.5936C5.78849 10.8681 5.65351 11.0111 5.58545 11.0815Z" fill="white"/>
<path fill-rule="evenodd" clip-rule="evenodd" d="M38.6753 2.28962L38.7283 10.6997C51.6769 11.6999 69.8318 12.9112 69.8318 12.9112C69.8318 12.9112 67.5764 12.759 67.1784 12.2098C66.7804 11.6607 66.2336 10.2278 66.477 9.771C66.8855 9.30765 67.37 8.91749 67.9099 8.61735C68.2506 8.51246 68.6 8.43831 68.9539 8.39583C69.503 8.33469 69.9299 8.32662 69.9299 8.32662C69.9299 8.32662 63.9771 4.81267 60.9591 3.92897C57.534 3.14514 54.0528 2.63018 50.5474 2.38883C46.5949 2.13767 42.6315 2.10455 38.6753 2.28962Z" fill="white"/>
<path fill-rule="evenodd" clip-rule="evenodd" d="M36.6714 10.5392L36.7971 2.36914C32.1336 2.51096 27.4867 2.99293 22.8934 3.8112C21.5413 4.08834 20.3466 4.87264 19.5547 6.00309C19.3 6.30457 19.1577 6.68501 19.152 7.07963C19.1464 7.47425 19.2777 7.85869 19.5236 8.16737C19.8893 8.53308 20.9079 8.83762 26.7339 9.63133C28.2694 9.8436 32.0095 10.1712 36.6714 10.5392Z" fill="white"/>
<path fill-rule="evenodd" clip-rule="evenodd" d="M60.875 1.86733C60.875 1.86733 67.8869 5.02258 71.927 7.12684C75.967 9.23109 78.4589 10.717 78.8096 10.732C79.1511 10.7224 79.491 10.6838 79.826 10.6166C77.2073 8.84624 74.4707 7.25698 71.6351 5.86011C66.7898 3.45129 63.015 2.04154 62.5039 1.82811C62.3345 1.7725 62.172 1.69781 62.0194 1.60547L60.875 1.86733Z" fill="white"/>
<path fill-rule="evenodd" clip-rule="evenodd" d="M107.278 19.444C106.912 18.971 106.816 18.8487 106.816 18.8487C105.067 18.237 103.276 17.7527 101.456 17.3998C99.749 17.2013 99.3071 17.3847 99.1999 17.8612C99.0926 18.3376 101.822 21.1825 102.934 21.764C104.393 22.1795 105.932 22.2318 107.416 21.9163C107.691 21.7525 107.898 21.0787 107.898 21.0787C107.779 20.5045 107.569 19.9528 107.278 19.444Z" fill="white"/>
<path d="M26.0691 30.4936C26.8225 25.2432 23.1769 20.3761 17.9265 19.6227C12.6761 18.8693 7.80901 22.5148 7.05559 27.7652C6.30217 33.0157 9.94772 37.8827 15.1981 38.6362C20.4486 39.3896 25.3156 35.744 26.0691 30.4936Z" fill="#444444"/>
<path fill-rule="evenodd" clip-rule="evenodd" d="M16.5623 36.0591C15.1917 36.0591 13.8518 35.6527 12.7122 34.8912C11.5726 34.1298 10.6843 33.0475 10.1598 31.7812C9.63532 30.5149 9.49809 29.1215 9.76549 27.7772C10.0329 26.4329 10.6929 25.1981 11.6621 24.2289C12.6312 23.2598 13.866 22.5998 15.2103 22.3324C16.5546 22.065 17.948 22.2022 19.2143 22.7268C20.4806 23.2513 21.5629 24.1395 22.3244 25.2791C23.0858 26.4187 23.4923 27.7586 23.4923 29.1292C23.4886 30.966 22.7573 32.7265 21.4585 34.0254C20.1597 35.3242 18.3991 36.0555 16.5623 36.0591Z" fill="white"/>
<path fill-rule="evenodd" clip-rule="evenodd" d="M16.5608 35.4397C15.3127 35.4395 14.0928 35.0693 13.0552 34.3757C12.0176 33.6822 11.209 32.6965 10.7315 31.5434C10.2541 30.3903 10.1292 29.1215 10.3729 27.8975C10.6165 26.6735 11.2176 25.5492 12.1002 24.6668C12.9827 23.7843 14.1072 23.1834 15.3312 22.94C16.5553 22.6966 17.8241 22.8217 18.9771 23.2993C20.1301 23.777 21.1156 24.5858 21.809 25.6235C22.5023 26.6612 22.8724 27.8813 22.8724 29.1293C22.869 30.8021 22.2029 32.4054 21.02 33.5882C19.837 34.7709 18.2336 35.4367 16.5608 35.4397Z" fill="#444444"/>
<path fill-rule="evenodd" clip-rule="evenodd" d="M15.4893 22.5591C15.9996 24.7116 16.2046 26.9252 16.0984 29.1349H17.0213C16.9151 26.9252 17.1202 24.7116 17.6304 22.5591H15.4858H15.4893Z" fill="white"/>
<path fill-rule="evenodd" clip-rule="evenodd" d="M11.1587 25.2414C13.0397 26.4016 14.7484 27.8202 16.2348 29.4557L16.5612 29.1281L16.8877 28.8016C15.2522 27.3152 13.8336 25.6066 12.6735 23.7256L11.912 24.4858L11.1587 25.2414Z" fill="white"/>
<path fill-rule="evenodd" clip-rule="evenodd" d="M9.99121 30.2009C12.1438 29.6907 14.3573 29.4856 16.567 29.5918V29.1304V28.6689C14.3573 28.7747 12.1437 28.5692 9.99121 28.0586V29.1315V30.2009Z" fill="white"/>
<path fill-rule="evenodd" clip-rule="evenodd" d="M12.6746 34.5329C13.8348 32.6519 15.2534 30.9432 16.8889 29.4569L16.5624 29.1292L16.2348 28.8027C14.7484 30.4382 13.0397 31.8569 11.1587 33.017L11.9167 33.7749L12.6746 34.5329Z" fill="white"/>
<path fill-rule="evenodd" clip-rule="evenodd" d="M17.6344 35.7018C17.124 33.5492 16.919 31.3356 17.0252 29.126H16.1023C16.2085 31.3356 16.0035 33.5492 15.4932 35.7018H17.6344Z" fill="white"/>
<path fill-rule="evenodd" clip-rule="evenodd" d="M21.966 33.016C20.0849 31.856 18.3761 30.4375 16.8899 28.8018L16.5635 29.1282L16.2358 29.4558C17.8714 30.9421 19.2901 32.6508 20.4501 34.5319L21.2081 33.774L21.966 33.016Z" fill="white"/>
<path fill-rule="evenodd" clip-rule="evenodd" d="M23.1324 28.0566C20.9799 28.5671 18.7663 28.7726 16.5566 28.6669V29.1284V29.5898C18.7663 29.4836 20.9799 29.6887 23.1324 30.199V29.1272V28.0566Z" fill="white"/>
<path fill-rule="evenodd" clip-rule="evenodd" d="M20.4487 23.7246C19.2885 25.6056 17.8699 27.3143 16.2344 28.8007L16.5609 29.1272L16.8874 29.4548C18.3737 27.8193 20.0824 26.4007 21.9634 25.2405L21.2055 24.4826L20.4487 23.7246Z" fill="white"/>
<path fill-rule="evenodd" clip-rule="evenodd" d="M16.5624 27.2168L17.3907 27.6955L18.219 28.1743V30.0882L17.3907 30.567L16.5624 31.0458L15.7341 30.567L14.9058 30.0882V28.1743L15.7341 27.6955L16.5624 27.2168Z" fill="white"/>
<path fill-rule="evenodd" clip-rule="evenodd" d="M16.5613 29.8341C16.4219 29.8341 16.2856 29.7927 16.1697 29.7153C16.0538 29.6378 15.9634 29.5277 15.9101 29.3989C15.8567 29.2701 15.8428 29.1284 15.87 28.9917C15.8972 28.8549 15.9643 28.7294 16.0629 28.6308C16.1615 28.5322 16.2871 28.4651 16.4238 28.4379C16.5605 28.4107 16.7023 28.4246 16.8311 28.478C16.9599 28.5313 17.0699 28.6217 17.1474 28.7376C17.2248 28.8535 17.2662 28.9898 17.2662 29.1292C17.2659 29.316 17.1915 29.4951 17.0594 29.6273C16.9273 29.7594 16.7482 29.8338 16.5613 29.8341Z" fill="#444444"/>
<path d="M88.0688 38.7322C93.3723 38.6451 97.6011 34.2753 97.5141 28.9718C97.4271 23.6683 93.0572 19.4395 87.7537 19.5265C82.4502 19.6135 78.2214 23.9834 78.3084 29.2869C78.3955 34.5904 82.7653 38.8192 88.0688 38.7322Z" fill="#444444"/>
<path fill-rule="evenodd" clip-rule="evenodd" d="M87.9109 36.0591C86.5403 36.0591 85.2004 35.6527 84.0608 34.8912C82.9212 34.1298 82.033 33.0474 81.5085 31.7812C80.984 30.5149 80.8467 29.1215 81.1141 27.7772C81.3815 26.4329 82.0415 25.1981 83.0107 24.2289C83.9799 23.2598 85.2147 22.5998 86.5589 22.3324C87.9032 22.065 89.2966 22.2022 90.5629 22.7268C91.8292 23.2513 92.9115 24.1395 93.673 25.2791C94.4344 26.4187 94.8408 27.7586 94.8408 29.1292C94.8372 30.966 94.1059 32.7265 92.8071 34.0254C91.5083 35.3242 89.7478 36.0554 87.9109 36.0591Z" fill="white"/>
<path fill-rule="evenodd" clip-rule="evenodd" d="M87.9109 35.4407C86.6628 35.4405 85.4429 35.0702 84.4053 34.3767C83.3677 33.6832 82.559 32.6975 82.0816 31.5444C81.6041 30.3913 81.4793 29.1225 81.723 27.8985C81.9666 26.6745 82.5677 25.5501 83.4503 24.6677C84.3328 23.7853 85.4572 23.1844 86.6813 22.941C87.9054 22.6976 89.1741 22.8227 90.3272 23.3003C91.4802 23.778 92.4657 24.5868 93.159 25.6245C93.8524 26.6622 94.2224 27.8823 94.2224 29.1303C94.2191 30.8031 93.553 32.4064 92.3701 33.5891C91.1871 34.7719 89.5837 35.4377 87.9109 35.4407Z" fill="#444444"/>
<path fill-rule="evenodd" clip-rule="evenodd" d="M86.8438 22.5591C87.3545 24.7115 87.56 26.9252 87.454 29.1349H88.3769C88.2707 26.9252 88.4758 24.7116 88.9861 22.5591H86.8438Z" fill="white"/>
<path fill-rule="evenodd" clip-rule="evenodd" d="M82.5049 25.2413C84.3858 26.4015 86.0945 27.8201 87.5809 29.4556L87.9074 29.1291L88.235 28.8026C86.5995 27.3163 85.1809 25.6076 84.0207 23.7266L83.2628 24.4845L82.5049 25.2413Z" fill="white"/>
<path fill-rule="evenodd" clip-rule="evenodd" d="M81.3408 30.2022C83.4934 29.6919 85.707 29.4869 87.9166 29.5931V29.1316V28.6701C85.707 28.7761 83.4934 28.5711 81.3408 28.061V29.1327V30.2022Z" fill="white"/>
<path fill-rule="evenodd" clip-rule="evenodd" d="M84.0242 34.5342C85.1843 32.6532 86.6029 30.9445 88.2384 29.4582L87.9108 29.1317L87.5843 28.8052C86.098 30.4407 84.3893 31.8594 82.5083 33.0195L83.2662 33.7774L84.0242 34.5342Z" fill="white"/>
<path fill-rule="evenodd" clip-rule="evenodd" d="M88.9834 35.7013C88.4731 33.5488 88.2681 31.3351 88.3743 29.1255H87.4514C87.5576 31.3351 87.3526 33.5488 86.8423 35.7013H88.9869H88.9834Z" fill="white"/>
<path fill-rule="evenodd" clip-rule="evenodd" d="M93.3156 33.017C91.4346 31.8568 89.7259 30.4382 88.2396 28.8027L87.912 29.1292L87.5854 29.4568C89.2209 30.9432 90.6396 32.6519 91.7997 34.5329L92.5577 33.775L93.3156 33.017Z" fill="white"/>
<path fill-rule="evenodd" clip-rule="evenodd" d="M94.4811 28.0576C92.3285 28.5678 90.1149 28.7728 87.9053 28.6668V29.1282V29.5897C90.1149 29.4835 92.3285 29.6885 94.4811 30.1988V29.127V28.0576Z" fill="white"/>
<path fill-rule="evenodd" clip-rule="evenodd" d="M91.7987 23.7256C90.6386 25.6066 89.22 27.3154 87.5845 28.8017L87.9109 29.1282L88.2385 29.4558C89.7249 27.8203 91.4336 26.4017 93.3146 25.2415L92.5567 24.4836L91.7987 23.7256Z" fill="white"/>
<path fill-rule="evenodd" clip-rule="evenodd" d="M87.912 27.2163L88.7403 27.695L89.5687 28.1739V30.0878L88.7403 30.5665L87.912 31.0453L87.0836 30.5665L86.2554 30.0878V28.1739L87.0836 27.695L87.912 27.2163Z" fill="white"/>
<path fill-rule="evenodd" clip-rule="evenodd" d="M87.9109 29.8341C87.7715 29.8341 87.6353 29.7927 87.5193 29.7153C87.4034 29.6378 87.3131 29.5277 87.2597 29.3989C87.2064 29.2701 87.1924 29.1284 87.2196 28.9917C87.2468 28.8549 87.3139 28.7294 87.4125 28.6308C87.5111 28.5322 87.6367 28.4651 87.7734 28.4379C87.9101 28.4107 88.0519 28.4246 88.1807 28.478C88.3095 28.5313 88.4196 28.6217 88.497 28.7376C88.5745 28.8535 88.6158 28.9898 88.6158 29.1292C88.6155 29.316 88.5411 29.4951 88.409 29.6273C88.2769 29.7594 88.0978 29.8338 87.9109 29.8341Z" fill="#444444"/>
</svg>
