<svg width="72" height="68" viewBox="0 0 72 68" fill="none" xmlns="http://www.w3.org/2000/svg">
<g clip-path="url(#clip0)">
<path d="M64.3023 28.2064C63.7494 27.9916 63.1096 28.1104 62.6869 28.5065L53.5361 37.047C52.9137 37.6295 52.1262 38.0213 51.2665 38.1822L43.8555 39.566C42.3791 39.8444 40.8853 39.4065 39.8402 38.4321C38.7865 37.447 38.332 36.0443 38.6243 34.6822L39.9316 28.5767H16.3042C15.4849 28.5767 14.822 27.9578 14.822 27.1929C14.822 26.428 15.4849 25.809 16.3042 25.809H41.186C41.2375 25.7557 41.2676 25.6886 41.3222 25.6374L47.068 20.2739H16.3042C15.4849 20.2739 14.822 19.6549 14.822 18.89C14.822 18.1251 15.4849 17.5062 16.3042 17.5062H48.9128C49.2284 17.5062 49.5046 17.6185 49.7449 17.7753L59.3635 8.79666C60.174 8.03852 61.1555 7.44254 62.2816 7.02364C62.7941 6.83307 63.1501 6.39121 63.2051 5.87904C63.263 5.36557 63.0082 4.86689 62.548 4.58304C61.5723 3.98433 60.4462 3.66818 59.2883 3.66818H5.92887C2.66047 3.66857 0 6.15108 0 9.20375V63.1714C0 63.7309 0.361844 64.2362 0.914753 64.4497C1.0972 64.5213 1.29105 64.5552 1.48211 64.5552C1.86716 64.5552 2.24638 64.4147 2.53013 64.1498L16.918 50.7173H59.2883C62.5567 50.7173 65.2172 48.2349 65.2172 45.1821V29.4848C65.217 28.9254 64.8552 28.42 64.3023 28.2064ZM34.0907 36.8794H16.3042C15.4849 36.8794 14.822 36.2605 14.822 35.4956C14.822 34.7307 15.4849 34.1117 16.3042 34.1117H34.0907C34.91 34.1117 35.573 34.7307 35.573 35.4956C35.573 36.2606 34.91 36.8794 34.0907 36.8794Z" fill="#A02167"/>
<path d="M65.472 9.2037C63.9753 9.2037 62.5134 9.76998 61.4596 10.755L43.4183 27.5956C43.2099 27.7889 43.0709 28.0348 43.013 28.3024L41.5307 35.224C41.4323 35.6781 41.5857 36.147 41.9361 36.4739C42.2169 36.7361 42.5961 36.8794 42.9841 36.8794C43.0797 36.8794 43.1781 36.8699 43.2735 36.8524L50.6817 35.4685C50.9712 35.4144 51.2346 35.2834 51.4402 35.0901L69.4843 18.2469C69.4843 18.2469 69.4843 18.2469 69.4843 18.2456C70.5409 17.2591 71.1459 15.8943 71.1459 14.501C71.1461 11.5794 68.6015 9.2037 65.472 9.2037ZM63.1212 20.2738L59.2877 16.695L61.3836 14.7382L65.2173 18.3174L63.1212 20.2738Z" fill="#A02167"/>
</g>
<defs>
<clipPath id="clip0">
<rect width="71.1459" height="66.4217" fill="white" transform="translate(0 0.901001)"/>
</clipPath>
</defs>
</svg>
