<svg xmlns="http://www.w3.org/2000/svg" xmlns:xlink="http://www.w3.org/1999/xlink" width="1090.01" height="516.793" viewBox="0 0 1090.01 516.793"><defs><clipPath id="a"><path d="M1187.242,963.042c-.15,3.806.747,13.071-1.1,17.016-4.479,2.251-12.492.545-18.1-2.4s-10.547-.9-18.145-2.266c-7.456-1.343-13.094-4.867-13.852-8.306-.827-3.753,12.643-3.254,22.043-3.833,10.518-.647,16.742-4.254,16.742-4.254Z" transform="translate(-1136.008 -958.998)" fill="#063463"/></clipPath><clipPath id="b"><path d="M1242.378,960.354c2.553,2.825,9.674,8.82,11.112,12.933-1.628,4.741-8.549,9.126-14.618,10.942s-8.166,6.733-14.554,11.069c-6.269,4.255-12.763,5.68-15.711,3.75-3.216-2.106,6.761-11.168,13.077-18.155,7.066-7.819,8.992-14.749,8.992-14.749Z" transform="translate(-1207.984 -960.354)" fill="#063463"/></clipPath><clipPath id="c"><path d="M1311.244,774.627c1.786,4.586,5.776,10.045,8.288,14.315s10.255,15.645,5.777,27.625c-4.8,12.85-15.477,16.046-26.527,16.046h-25.71c-7.534,0-53.854-11.387-53.854-11.387s5.346,3.072,7.964,11.387,7.885,63.988,7.885,63.988c-3.413,3.438-8.2,4.854-14.26,4.378,0,0-14.021-43.129-19.639-59.156-5.8-16.56-12.745-32.95-11.445-40.155,1.824-10.1,19.333-10.405,33.791-9.9s47.737,1.753,54.5.8l-3.507-12.1Z" transform="translate(-1189.562 -774.627)" fill="none"/></clipPath><clipPath id="d"><path d="M579.818,1248.911c-.711,3.56-3.613,11.944-2.782,16.013,3.648,3.087,11.453,3.3,17.308,1.82s9.973,1.525,17.319,1.956c7.208.422,13.221-1.584,14.692-4.6,1.6-3.293-10.988-5.84-19.569-8.477-9.6-2.951-14.562-7.683-14.562-7.683Z" transform="translate(-576.888 -1247.938)" fill="#247c6b"/></clipPath><clipPath id="e"><path d="M418.476,1207.562c-3.621.255-12.474-.326-16.178,1.551-2.012,4.333-.151,11.917,2.822,17.173s1.166,10.022,2.694,17.22c1.5,7.064,5.022,12.332,8.322,12.952,3.6.677,2.727-12.14,3-21.114.306-10.039,3.559-16.075,3.559-16.075Z" transform="translate(-401.457 -1207.562)" fill="#1d9c87"/></clipPath><clipPath id="f"><path d="M445.655,1138.517s65-35.211,69.364-38.6,30.5-92.941,32.514-98.723c0,0,19.257-15.687,21.916-28.121l-44.518-29.137c-3.4,7.314-3.374,12.194-12.44,30.493-8.657,17.472-11.789,66.7-20.114,108.409a75.424,75.424,0,0,0-13.379,5.22c-7.86,3.747-41.144,38.955-41.144,38.955S438.79,1134.8,445.655,1138.517Z" transform="translate(-437.856 -943.939)" fill="none"/></clipPath></defs><g transform="translate(-240.935 -569.279)"><g transform="translate(240.935 569.753)"><g transform="translate(562.119 205.387)"><rect width="453.811" height="306.942" fill="#ffb33d"/><path d="M1022.228,855.222l213,194.344a20.628,20.628,0,0,0,27.806,0l213-194.344Z" transform="translate(-1022.228 -855.222)" fill="#dd8321"/><path d="M1564.511,1189.5,1337.606,952.682l226.905,216.654Z" transform="translate(-1110.7 -882.562)" fill="#dd8321"/><path d="M1022.228,1189.5l226.906-236.822-226.906,216.654Z" transform="translate(-1022.228 -882.562)" fill="#dd8321"/><path d="M1022.228,855.222l209.738,177.2a26.6,26.6,0,0,0,34.335,0l209.738-177.2Z" transform="translate(-1022.228 -855.222)" fill="#ffba3e"/></g><g transform="translate(966.302 397.087)"><path d="M1597.37,1236.909s-14.361-6.488-13.31-21.9,11.559-18.564,20.666-24.169,9.807-15.061,10.157-26.62,8.056-23.117,23.468-22.417,21.1,3.854,32.269-9.457,26.226-12.96,32.531-5.6,6.716,20.007-2.854,28.74c-11.634,10.616-14.643,13.288-18.006,24.967-4.561,15.845,2.018,31.286-3.841,38.652-7.83,9.842-16.28,7.422-24.337,10.62s-8.348,7.188-8.348,7.188Z" transform="translate(-1584.005 -1121.667)" fill="#4ab492"/><path d="M1702.4,1142.973c-23.569,13.745-64.58,55.542-71.542,99.912" transform="translate(-1597.147 -1127.644)" fill="none" stroke="#274b9b" stroke-linecap="round" stroke-miterlimit="10" stroke-width="1.05"/></g><g transform="translate(643.481)"><path d="M1232.505,648.569a7.064,7.064,0,1,1,7.064,7.065A7.064,7.064,0,0,1,1232.505,648.569Z" transform="translate(-1162.579 -589.881)" fill="#274b9b"/><g transform="translate(0 266.165)"><path d="M1135.849,970.237c-.958,1.081-1.061,3.706,3.415,6.975s13.685,4.561,17.428,4.723,6.172-.355,11.2,2.03,13.816,3.992,16.979,2.405c1.166-.832,1.077-3.159,1.077-3.159Z" transform="translate(-1135.314 -948.265)" fill="#a2dadd"/><g transform="translate(0.499 13.886)"><path d="M1187.242,963.042c-.15,3.806.747,13.071-1.1,17.016-4.479,2.251-12.492.545-18.1-2.4s-10.547-.9-18.145-2.266c-7.456-1.343-13.094-4.867-13.852-8.306-.827-3.753,12.643-3.254,22.043-3.833,10.518-.647,16.742-4.254,16.742-4.254Z" transform="translate(-1136.008 -958.998)" fill="#063463"/><g clip-path="url(#a)"><path d="M1182.166,966.205s-.569-5.362-2.539-7.527" transform="translate(-1148.244 -958.908)" fill="none" stroke="#a2dadd" stroke-linecap="round" stroke-miterlimit="10" stroke-width="0.551"/><path d="M1172.021,967.645s-.568-5.362-2.538-7.527" transform="translate(-1145.398 -959.312)" fill="none" stroke="#a2dadd" stroke-linecap="round" stroke-miterlimit="10" stroke-width="0.551"/><path d="M1161.877,969.085s-.568-5.362-2.538-7.527" transform="translate(-1142.553 -959.716)" fill="none" stroke="#a2dadd" stroke-linecap="round" stroke-miterlimit="10" stroke-width="0.551"/></g></g><path d="M1206.337,944.351l-3.958,13.277a6.7,6.7,0,0,0-2.709.807c-.9.655-2.516,3.155-3.706,2.92-4.724-.936-6-7.771-6-7.771l3.349-13.886Z" transform="translate(-1150.645 -939.698)" fill="#f2837b"/></g><path d="M1275.774,782.743l-1.8,13.994-48.833-1s-11.5-.223-14.907,11.462-16.166,90.1-16.166,90.1,6.859,5.059,13.83,3.959c0,0,23.023-47.62,26.32-60.7a67.927,67.927,0,0,0,1.638-24.112l58.863-5.112Z" transform="translate(-1151.797 -629.503)" fill="#063463"/><g transform="translate(52.285 269.375)"><path d="M1208.85,1004.09c.071,1.443,1.833,3.391,7.319,2.6s12.972-6.309,15.761-8.813,4.163-4.569,9.424-6.38,12.668-6.808,13.819-10.154c.25-1.411-1.44-3.012-1.44-3.012Z" transform="translate(-1208.227 -953.745)" fill="#a2dadd"/><g transform="translate(0 11.652)"><path d="M1242.378,960.354c2.553,2.825,9.674,8.82,11.112,12.933-1.628,4.741-8.549,9.126-14.618,10.942s-8.166,6.733-14.554,11.069c-6.269,4.255-12.763,5.68-15.711,3.75-3.216-2.106,6.761-11.168,13.077-18.155,7.066-7.819,8.992-14.749,8.992-14.749Z" transform="translate(-1207.984 -960.354)" fill="#063463"/><g clip-path="url(#b)"><path d="M1238.989,979.007s-4.156-3.435-7.079-3.605" transform="translate(-1214.696 -964.575)" fill="none" stroke="#a2dadd" stroke-linecap="round" stroke-miterlimit="10" stroke-width="0.551"/><path d="M1232.744,987.131s-4.156-3.435-7.078-3.605" transform="translate(-1212.945 -966.854)" fill="none" stroke="#a2dadd" stroke-linecap="round" stroke-miterlimit="10" stroke-width="0.551"/><path d="M1226.5,995.254s-4.156-3.435-7.078-3.605" transform="translate(-1211.193 -969.133)" fill="none" stroke="#a2dadd" stroke-linecap="round" stroke-miterlimit="10" stroke-width="0.551"/></g></g><path d="M1247.247,944.159l2.145,11.652a6.692,6.692,0,0,0-1.373,2.471c-.185,1.1.408,4.015-.608,4.679-4.031,2.635-9.722-1.361-9.722-1.361l-4.7-14.41Z" transform="translate(-1214.998 -944.159)" fill="#f2837b"/></g><path d="M1311.242,774.627c1.786,4.586,5.776,10.045,8.288,14.315s10.255,15.645,5.777,27.625c-4.8,12.85-15.477,16.046-26.527,16.046h-25.71c-7.534,0-53.854-11.387-53.854-11.387s5.346,3.072,7.964,11.387,7.885,63.988,7.885,63.988c-3.413,3.438-8.2,4.854-14.26,4.378,0,0-13.876-43.181-19.639-59.156-6.021-16.689-12.745-32.95-11.445-40.155,1.824-10.1,19.333-10.405,33.791-9.9s47.737,1.753,54.5.8l-3.507-12.1Z" transform="translate(-1150.53 -627.226)" fill="#70aadc"/><path d="M1334.211,816.567c4.479-11.98-3.264-23.356-5.775-27.626s-6.5-9.729-8.288-14.315l-36.735,5.839,2.242,7.735s20.372,2.8,29.254-7.735c0,0,6.494,9.875,8.376,15.8,2.6,8.17,1.886,21.423-14.111,24.607s-75.039-5.5-82.855-6.369-5.211,3.646-.868,12.823,6.161,25.644,10.067,45.36c2.494,12.584,5.309,26.305,5.309,26.305a14.192,14.192,0,0,0,3.143-2.391s-5.266-55.673-7.884-63.988-7.965-11.387-7.965-11.387,46.32,11.387,53.854,11.387h25.71C1318.735,832.613,1329.407,829.417,1334.211,816.567Z" transform="translate(-1159.436 -627.226)" fill="#356c9d"/><g transform="translate(39.03 147.401)"><g clip-path="url(#c)"><path d="M1304.161,774.687c1.794,10.92,6.375,16.321,5.929,26.3s-8.525,15.062-32.023,12.961-59.613-7.375-62.772-6.49-2.108,5.685,2.1,19.924,18.567,77.569,18.567,77.569" transform="translate(-1196.266 -774.644)" fill="none" stroke="#133e68" stroke-miterlimit="10" stroke-width="0.551"/><path d="M1341.583,805.763a11.387,11.387,0,0,1-9.371-2.5c-4.181-3.678-5.379-20.465-5.379-20.465" transform="translate(-1228.07 -776.921)" fill="none" stroke="#133e68" stroke-miterlimit="10" stroke-width="0.551"/><path d="M1228.431,940.854s10.426,2.32,18.445-5.607" transform="translate(-1200.466 -819.685)" fill="none" stroke="#133e68" stroke-miterlimit="10" stroke-width="0.551"/></g></g><path d="M1317.546,587.214s-7.362-6.232-21.1-4.929c-10.944,1.037-18.944,7.4-21.459,15.4s-1.759,22.65,11.506,30.839c0,0-4.117,2.243.457,6.588,0,0-7.09,1.732-9.377,5.669s0,7.626,1.373,12.071,1.83,5.133-4.117,11.078-11.059,16.466-2.671,29.96,22.972,24.8,43.237,23.728c20.5-1.086,43.643-7.918,49.452-39.494s-14.088-38.763-19.577-37.342a65.691,65.691,0,0,0,4.226-30.862c-1.83-17.382-10.312-25.186-17.45-25.748C1321.535,583.345,1317.546,587.214,1317.546,587.214Z" transform="translate(-1172.464 -573.218)" fill="#001735"/><path d="M1297.47,673.759c-2.712.817-7.24,1.5-9.637,3.368s-26.084,38.758-26.084,38.758-21.822-34.151-25.064-38.217c-3.4-4.265-20.029-9.595-23.053-8.99-3.74.748-1.719,5.414-.957,8.449.437,1.738,1.116,6.544,4.2,8.67s14.038,3.781,14.038,3.781,19.635,41.322,23.692,47.515c2.625,4.007,5.518,4.055,10.386-1.3,4.715-5.185,23.53-29.858,23.53-29.858Z" transform="translate(-1156.67 -597.491)" fill="#f2837b"/><path d="M1325.328,675.759c-4.328,1.566-8.316,1.467-10.5,4.254s-4.078,15.53-4.078,15.53,10.85-2.158,13.738-7.848a27.478,27.478,0,0,0,2.969-10.835Z" transform="translate(-1184.528 -599.491)" fill="#1d9c87"/><path d="M1336.97,665.891a7.608,7.608,0,0,0,3.668,1.314c2.418.353,10.308,2.071,11.9,5.025,3.83,5.286-.1,22.627-2.327,34.8-1.36,7.42-14.513,24.078-5.532,41.073,0,0-20.24,11.948-40.667,1.862-2.134-10.112.373-17.162.445-28.545-2.889-3.135-5.754-8.9-6.015-12.629-.969-13.886,12.917-18.119,23.733-33.578,3.02-4.317,5.3-4.105,9.414-7.253A9.7,9.7,0,0,1,1336.97,665.891Z" transform="translate(-1181.062 -596.722)" fill="#53baad"/><path d="M1356.711,673.73c6.115-3.856,11.075.9,13.97,7.849s18.184,50.135,19.526,55.5-4.56,58.469-6.17,61.557-3.291,5.287-9.424,5.287h-28.181s1.394-2.878,6.222-4.082,18.508-1.6,21.191-5.9,1.541-53.826,1.541-53.826-16.975-36.263-20.73-45.273S1352.373,676.464,1356.711,673.73Z" transform="translate(-1194.538 -598.535)" fill="#f2837b"/><path d="M1361.712,670.93c-3.621,0-11.915,8.234-4.912,23.464,0,0,9.079-12.879,17.4-9.751C1374.2,684.643,1370.562,668.862,1361.712,670.93Z" transform="translate(-1196.683 -598.084)" fill="#1d9c87"/><g transform="translate(116.483 12.49)"><path d="M1337.58,646.528l6.389,5.681,2.822,9.564s-4.011,2.684-5.556,5.013c-1.881,2.835-6.1,9.652-11.166,10.232,0,0,.509-6.148-.257-9.458s-3.08-9.876-3.08-9.876Z" transform="translate(-1305.495 -603.78)" fill="#f2837b"/><path d="M1337.58,646.528s1.375,5.353,1.143,8.068-2.633,8.362-8.911,12.963c-.767-3.31-3.08-9.876-3.08-9.876Z" transform="translate(-1305.495 -603.78)" fill="#aa4452"/><path d="M1302.414,629.8c-1.2,4.3-6.121,10.325-5.047,11.4.89.891,5.086.691,5.086.691a7.879,7.879,0,0,0,2.04-7.144C1303.448,630.572,1302.414,629.8,1302.414,629.8Z" transform="translate(-1297.215 -599.086)" fill="#aa4452"/><path d="M1314.716,592.382c-5.946.542-11.911,8.784-11.8,16.282s1.845,11.576,1.369,16.873-.445,10.4,1.78,15.951c1.481,3.694,5.335,4.525,10.467,3.288,4.7-1.135,11.125-5.659,12.605-7.085s1.76-6.4,1.76-6.4,7.015-1.032,10.231-7.452S1343.764,589.736,1314.716,592.382Z" transform="translate(-1298.814 -588.541)" fill="#f2837b"/><path d="M1332.446,629.86s6.4-2.509,5.833-9.624c-.585-7.3-10.423-7.565-10.022-1.136,0,0-6.88-1.358-11.073-6.28-7.871-9.24-8.755-16.767-8.755-16.767,1.668-11.506,20.53-7.435,20.53-7.435s9.554-4.132,17.688,1.291c5.822,3.882,8.788,17.814,4.073,29.414-4.708,11.581-11.885,16.218-11.885,16.218Z" transform="translate(-1300.361 -587.112)" fill="#001735"/><g transform="translate(8.953 26.763)"><path d="M1311.628,631.761a1.723,1.723,0,1,1,1.624,1.817A1.723,1.723,0,0,1,1311.628,631.761Z" transform="translate(-1310.21 -625.944)" fill="#001735"/><path d="M1309.658,625.611l7.871,2.5a4.112,4.112,0,0,0-2.884-3.518A4.647,4.647,0,0,0,1309.658,625.611Z" transform="translate(-1309.658 -624.31)" fill="#001735"/><path d="M1342.856,630.937a4.045,4.045,0,0,0-3.57.4c-.334.27.239.822.559.7,1.812-.672,4.029-.766,4.923,1.353.048.113.127-.005.112-.081A2.959,2.959,0,0,0,1342.856,630.937Z" transform="translate(-1317.941 -626.103)" fill="#aa4452"/><path d="M1342.263,631.256c-.2-.095-.658.406-.617.545a2.451,2.451,0,0,1,.989.87,3.259,3.259,0,0,1,.429,2.05,3.661,3.661,0,0,1-2.923,3.513c-.032.007-.085.1-.033.112,1.535.383,3.272-1.2,3.625-2.576C1344.124,634.25,1344.02,632.09,1342.263,631.256Z" transform="translate(-1318.194 -626.255)" fill="#aa4452"/></g></g><path d="M1330.286,674.972c.1,2.055-3.78,6.586-2.825,9.716s7.451,3.556,10.958,0,5.553-14.694,10.33-17.722a2.712,2.712,0,0,1-2.364-1.925Z" transform="translate(-1189.174 -596.484)" fill="#f2837b"/><path d="M1230.283,663.591s-1.912,16.876,4.607,30.384a2.815,2.815,0,0,1-1.206,3.66l-7.946,4.414a2.839,2.839,0,0,1-4.181-1.948,84.659,84.659,0,0,1,1.556-37.338Z" transform="translate(-1159.12 -595.845)" fill="#063463"/><path d="M1221.115,669.986c2.011.569,4.921,1.816,5,3.728s-3.076,2-3.076,2,2.245,1,2.411,2.41-1.248,2.827-3.325,2.827c0,0,2.147.73,1.489,2.651s-3.817.339-4.441,1.753c0,0-1.87-1.828-2.036-5.9S1221.115,669.986,1221.115,669.986Z" transform="translate(-1158.267 -597.871)" fill="#f2837b"/><path d="M1240.77,676.78c-1.914-3.682-3.8-6.36-8.142-8.062-3.7-1.452-5.456-4.306-6.42-2.853s1.653,6.038,5.7,7.418Z" transform="translate(-1160.756 -596.602)" fill="#f2837b"/><path d="M1217.11,654.425l16.413,2.069c4.212.508,6.823-21.147,2.61-21.655l-16.115-2.711Z" transform="translate(-1158.26 -587.251)" fill="#063463"/><path d="M1202.3,621.33c-5.99-.677-26.587-10.312-31.062-27.639-16.892-2.143-24.809,60.255-7.918,62.4,4.648-10.776,27.793-13.505,36.071-12.462C1202.594,644.045,1205.5,621.748,1202.3,621.33Z" transform="translate(-1140.537 -576.453)" fill="#274b9b"/><path d="M1316.415,569.753c5.233,1.238,12.944,7.435,14.784,14" transform="translate(-1186.118 -569.753)" fill="none" stroke="#001735" stroke-linecap="round" stroke-miterlimit="10" stroke-width="0.788"/></g><g transform="translate(261.144 42.675)"><path d="M610.388,844.843c13.542,12.343,28.265,20.719,45.332,17.47,24.033-4.574,42.8-29.072,42.8-29.072s6.191,8.075,6.191,8.883-15.882,32.3-44.686,38.763-54.706-14.179-54.706-14.179Z" transform="translate(-604.299 -686.344)" fill="#d36366"/><path d="M878.612,957.678a40.07,40.07,0,0,0,50.408,12.771l32.067-15.806a13.3,13.3,0,0,1,17.1,4.789l57.961,91.073a13.288,13.288,0,0,1-4.653,18.711c-18.742,10.6-57.461,28.548-100.092,25.075-59.835-4.874-98.789-60.51-164.684-164.048s-99.8-162.387-78.881-218.656c14.906-40.09,47.556-67.569,65.1-80.057a13.288,13.288,0,0,1,18.921,3.708l57.961,91.073a13.3,13.3,0,0,1-2.9,17.521l-27.9,22.357a40.071,40.071,0,0,0-9.776,51.074Z" transform="translate(-625.721 -629.067)" fill="#d73b86"/><path d="M822.722,762.656l23.484-18.82a13.3,13.3,0,0,0,2.9-17.521L818.468,678.17l-27.68-43.381a13.257,13.257,0,0,0-18.562-3.254,216.65,216.65,0,0,0-21.794,17.828Z" transform="translate(-645.007 -629.072)" fill="#aa2966"/><path d="M1104.44,1207.818a216.73,216.73,0,0,0,25.367-12.189,13.254,13.254,0,0,0,4.949-18.119L1075.2,1084.17a13.281,13.281,0,0,0-15.8-3.115l-27.265,13.44Z" transform="translate(-724.032 -755.479)" fill="#aa2966"/><path d="M610.862,850.325l10.97,8.217s4.948,15.17-3.405,23.061L603.9,872.8Z" transform="translate(-603.901 -691.136)" fill="#dd8321"/></g><g transform="translate(16.841 415.186)"><path d="M326.264,1243.965a66.217,66.217,0,0,0,17.771-22.595c7.188-15.027.789-28.138-9.272-26.23-10.724,2.033-12.21-6.73-15.163-17.826-3.541-13.309-20.749-32.263-34.8-30.358-18.121,2.456-6.664,21.843-4.813,28.877s6.426,15.135-4.815,16.241c-10.237,1.006-14.72,10.3-6.746,19.813,7.584,9.049,15.84,8.911,16.21,18.094s6.087,11.776,10.9,13.984Z" transform="translate(-264.343 -1146.823)" fill="#8bc798"/><path d="M303.293,1169.318s24.689,32.235,18.455,80.958" transform="translate(-275.269 -1153.134)" fill="none" stroke="#274b9b" stroke-linecap="round" stroke-miterlimit="10" stroke-width="1.05"/></g><g transform="translate(285.044 447.284)"><path d="M651.427,1256.481s6.995-9.42,2.782-22.967c-5.446-17.512-21.695-25.6-15.834-37.068,4.874-9.534,19.445-4.71,27.169,8.143,7.42,12.345,7.992,38.366-3.729,51.891Z" transform="translate(-637.119 -1191.437)" fill="#4ab492"/><path d="M654.785,1205.346s22.375,24.2,7.725,55.037" transform="translate(-642.075 -1195.338)" fill="none" stroke="#274b9b" stroke-linecap="round" stroke-miterlimit="10" stroke-width="1.05"/></g><g transform="translate(304.258 421.588)"><path d="M675.494,1246.462a74.25,74.25,0,0,0,26.153-31.642c9.255-21.325,9.657-46.271,0-55.123-9.021-8.269-19.715-3.219-22.531,11.266s3.62,51.216-15.29,75.5Z" transform="translate(-663.826 -1155.722)" fill="#2c966f"/><path d="M696.022,1166.84a127.951,127.951,0,0,1-3.622,45.119c-6.437,23.281-18.508,37.622-18.508,37.622" transform="translate(-666.65 -1158.841)" fill="none" stroke="#274b9b" stroke-linecap="round" stroke-miterlimit="10" stroke-width="1.05"/></g><g transform="translate(445.189 422.534)"><path d="M968.361,1246.83s.375-29.811-23.276-57.592-50.7-37.724-74.071-29.3c-17.4,6.272-12.928,26.417,1.3,35,16.839,10.156,79.906,14.269,82.159,51.891Z" transform="translate(-859.706 -1157.036)" fill="#8bc798"/><path d="M878.908,1179.758c32.133-1.828,81.325,27.781,88.082,73.424" transform="translate(-865.093 -1163.388)" fill="none" stroke="#274b9b" stroke-linecap="round" stroke-miterlimit="10" stroke-width="1.05"/></g><g transform="translate(537.184 431.712)"><path d="M1011.57,1250.409s15.56-16.589,12.557-48.546-31.109-39.887-36.159-24.438c-3.973,12.153,23.394,40.461,13.634,72.983Z" transform="translate(-987.571 -1169.792)" fill="#46b186"/><path d="M1007.068,1183.533c6.029,7.8,17.623,39.742,5.8,70.731" transform="translate(-993.04 -1173.647)" fill="none" stroke="#274b9b" stroke-linecap="round" stroke-miterlimit="10" stroke-width="1.05"/></g><path d="M1289.861,1284.277H244.925a3.99,3.99,0,0,1-3.99-3.991h0a3.991,3.991,0,0,1,3.99-3.99H1289.861a3.991,3.991,0,0,1,3.991,3.99h0A3.99,3.99,0,0,1,1289.861,1284.277Z" transform="translate(-240.935 -767.958)" fill="#4c76ba"/></g><g transform="translate(353.786 681.117)"><g transform="translate(0 157.663)"><g transform="translate(128.807 205.678)"><path d="M626.336,1270.4c.646,1.217.155,3.671-4.723,5.7s-13.7,1.168-17.2.481-5.639-1.708-10.83-.622-13.694.612-16.27-1.566c-.894-1.032-.291-3.168-.291-3.168Z" transform="translate(-576.818 -1241.01)" fill="#80beba"/><g transform="translate(0.05 13.229)"><path d="M579.818,1248.911c-.711,3.56-3.613,11.944-2.782,16.013,3.648,3.087,11.453,3.3,17.308,1.82s9.973,1.525,17.319,1.956c7.208.422,13.221-1.584,14.692-4.6,1.6-3.293-10.988-5.84-19.569-8.477-9.6-2.951-14.562-7.683-14.562-7.683Z" transform="translate(-576.888 -1247.938)" fill="#247c6b"/><g clip-path="url(#d)"><path d="M602.248,1256.36s1.725-4.841,4.034-6.408" transform="translate(-584.002 -1248.503)" fill="none" stroke="#80beba" stroke-linecap="round" stroke-miterlimit="10" stroke-width="0.525"/><path d="M611.325,1259.961s1.725-4.841,4.035-6.407" transform="translate(-586.549 -1249.513)" fill="none" stroke="#80beba" stroke-linecap="round" stroke-miterlimit="10" stroke-width="0.525"/><path d="M620.4,1263.563s1.725-4.841,4.035-6.407" transform="translate(-589.095 -1250.524)" fill="none" stroke="#80beba" stroke-linecap="round" stroke-miterlimit="10" stroke-width="0.525"/></g></g><path d="M580.961,1229.551v14.2a6.393,6.393,0,0,1,2.33,1.353c.687.808,1.626,3.486,2.781,3.534,4.587.188,7.294-5.861,7.294-5.861l1.725-12.91Z" transform="translate(-577.98 -1229.551)" fill="#f2837b"/></g><g transform="translate(0 183.265)"><path d="M415.106,1257.063c-1,.945-3.5,1.12-6.746-3.048s-4.75-12.9-5.013-16.465.155-5.89-2.264-10.609-4.211-13.044-2.793-16.1c.759-1.135,2.979-1.119,2.979-1.119Z" transform="translate(-397.788 -1201.574)" fill="#a2dadd"/><g transform="translate(2.64 6.592)"><path d="M418.476,1207.562c-3.621.255-12.474-.326-16.178,1.551-2.012,4.333-.151,11.917,2.822,17.173s1.166,10.022,2.694,17.22c1.5,7.064,5.022,12.332,8.322,12.952,3.6.677,2.727-12.14,3-21.114.306-10.039,3.559-16.075,3.559-16.075Z" transform="translate(-401.457 -1207.562)" fill="#1d9c87"/><g clip-path="url(#e)"><path d="M421.515,1230.621s5.125.384,7.246,2.2" transform="translate(-407.084 -1214.031)" fill="none" stroke="#a2dadd" stroke-linecap="round" stroke-miterlimit="10" stroke-width="0.525"/><path d="M420.442,1240.328s5.125.383,7.247,2.2" transform="translate(-406.783 -1216.754)" fill="none" stroke="#a2dadd" stroke-linecap="round" stroke-miterlimit="10" stroke-width="0.525"/><path d="M419.369,1250.035s5.125.383,7.247,2.2" transform="translate(-406.482 -1219.477)" fill="none" stroke="#a2dadd" stroke-linecap="round" stroke-miterlimit="10" stroke-width="0.525"/></g></g><path d="M432.963,1198.4l-9.169,6.593a6.393,6.393,0,0,1-.689,2.605c-.6.876-2.932,2.49-2.672,3.618,1.03,4.472,7.58,5.484,7.58,5.484l12.748-6.8Z" transform="translate(-404.135 -1198.399)" fill="#f2837b"/></g><path d="M601.541,948.351c-15.9,0-27.744,1.2-27.744,1.2-5.086,2.226-13.815,13.787-16.385,21.127s1.243,17.6,2.584,23.912c7.467,35.174,15.109,59.613,18.009,73.558,1.774,8.529-4.548,9.89-4.608,23.405-.085,19.343.713,60.581.713,60.581a18.589,18.589,0,0,0,13.832,1.1s11.936-68.012,13.245-75.8c2.122-12.622,2.855-17.916,3.092-39.756C604.615,1006.959,601.541,948.351,601.541,948.351Z" transform="translate(-442.322 -944.988)" fill="#063463"/><path d="M568.052,973.686c-2.661,12.45-20.506,27.425-20.506,27.425-2.022,5.8-28.172,95.342-32.535,98.748-4.363,3.379-69.352,38.573-69.352,38.573a14.722,14.722,0,0,1-6.172-6.491,18.613,18.613,0,0,1-1.49-4.256,6.082,6.082,0,0,1-.106-.612.465.465,0,0,1-.027-.133s33.279-35.194,41.127-38.946c8.565-4.1,13.38-5.214,13.38-5.214v-.027c8.945-41.6,8.673-74.114,15.909-97.1a101.656,101.656,0,0,1,4.2-11.307c1.863-4.069,3.272-7.475,4.416-10.374.479-1.25.9-2.394,1.3-3.485s.745-2.1,1.037-3.033c.213-.639.4-1.25.585-1.809.825-2.607,1.41-4.709,2.048-6.7.293-.878.586-1.73.905-2.607.186-.425.345-.878.532-1.3.186-.453.373-.9.585-1.357h.027v.027l12.424,9.257,5.985,4.443Z" transform="translate(-409.03 -943.677)" fill="#70aadc"/><path d="M542.332,957.4a59.253,59.253,0,0,1-7.582,8.14c-9.231,8.034-14.806,20.529-19.728,46.432-5.545,29.178-14.855,72.56-15.972,75.247-1.091,2.687-9.311,1.676-24.315,12.636-11.332,8.273-27.8,25.484-35.248,32.082a18.613,18.613,0,0,1-1.49-4.256c-.053-.293-.079-.505-.106-.612a.465.465,0,0,1-.027-.133s33.279-35.194,41.127-38.946c8.565-4.1,13.38-5.214,13.38-5.214v-.027c8.537-41.6,8.673-74.114,15.909-97.1a95.871,95.871,0,0,1,4.229-11.28c1.863-4.069,3.272-7.475,4.39-10.4.506-1.25.931-2.421,1.3-3.485q.6-1.636,1.037-3.033c.213-.639.4-1.25.585-1.809.825-2.607,1.41-4.709,2.048-6.7.293-.878.586-1.73.905-2.607.186-.425.345-.878.532-1.3.186-.453.4-.878.612-1.33v-.027l12.424,9.284Z" transform="translate(-409.03 -943.677)" fill="#356c9d"/><path d="M597.066,983.987s-8.132,10.655-30.495,11.491c-15.454.578-25.279-5.619-25.279-5.619l6.032-9.462Z" transform="translate(-438.045 -953.978)" fill="#356c9d"/><g transform="translate(28.828 0.189)"><g clip-path="url(#f)"><path d="M558.473,951.352c-9.363,12.019-21.315,19.3-26.279,27.543s-7.732,26.064-14.169,58.619c-6.4,32.341-12.222,54.363-13.991,56.309s-12.742,3.877-29.882,15.373-37.01,29.927-37.01,29.927" transform="translate(-437.656 -946.019)" fill="none" stroke="#133e68" stroke-miterlimit="10" stroke-width="0.525"/><path d="M582.813,990.905s-3.718,20.478-21.936,17.049" transform="translate(-472.367 -957.114)" fill="none" stroke="#133e68" stroke-miterlimit="10" stroke-width="0.525"/><path d="M442.762,1189.52c.081,5.495,3.938,13.459,10.985,17.707" transform="translate(-439.232 -1012.831)" fill="none" stroke="#133e68" stroke-miterlimit="10" stroke-width="0.525"/></g></g></g><g transform="translate(136.413 51.25)"><path d="M587.389,814.114l15.4,13.2,8.827-20.952-18.343-10.587Z" transform="translate(-587.389 -795.772)" fill="#f2837b"/><path d="M611.215,812.562s-18.161-5.091-15.73-16.79l18.344,10.587Z" transform="translate(-589.598 -795.772)" fill="#aa4452"/></g><path d="M590.565,833.939a18.054,18.054,0,0,1,6.334,11.789c.835,7.444,1.5,18.585,2.125,34.763.571,14.689,2.048,57.308,2.048,57.308s-11.245,7.372-30.135,5.86c-18.044-1.445-25.831-10.316-25.831-10.316s1.881-59.934,7.812-83.524c8.762-24.325,22.609-28.554,22.609-28.554Z" transform="translate(-439.115 -751.674)" fill="#ffb33d"/><g transform="translate(123.752)"><path d="M633.851,771.933c.949,1.643,5.918,8.61,7.529,10.632s-4.821,2.56-4.821,2.56Z" transform="translate(-587.762 -737.835)" fill="#aa4452"/><path d="M591.039,782.427a41.949,41.949,0,0,0,2.12,4.187c1.081,1.791,16.191,7.921,20.178,8.406s9.281-.326,8.226-13.632-4.435-24.829-13.327-30.853-21.358.553-26.741,9.083S581.85,784.884,591.039,782.427Z" transform="translate(-572.491 -731.177)" fill="#f2837b"/><path d="M588.34,775.789h0l-1.966,6.128s-1.526.728-5.378-4.059c-4.216-5.238-11.907-14.181-11.153-19.861.991-7.454,9.53-10.141,9.53-10.141s4.355-13.776,21.388-21.093,24.559,5,11.466,14.085c0,0,9.106,4.549,3.356,8s-22.19,3.02-22.19,3.02,8.07,3.085,5.669,5.367-12.816,1.342-12.816,1.342l1.3,5.247s-4.247-1.3-6.539,1.448C578.266,768.564,582.483,777.516,588.34,775.789Z" transform="translate(-569.791 -724.539)" fill="#001735"/><path d="M578.022,734.666s-5.074,10.986,4.459,18.375c0,0-9.509-.3-11.528-9.321" transform="translate(-570.117 -727.38)" fill="none" stroke="#001735" stroke-linecap="round" stroke-miterlimit="10" stroke-width="0.788"/><g transform="translate(12.039 31.689)"><g transform="translate(20.865)"><path d="M623.308,775.172a1.642,1.642,0,1,0-1.021,2.086A1.642,1.642,0,0,0,623.308,775.172Z" transform="translate(-616.811 -770.12)" fill="#001735"/><path d="M622.159,769.126l-6.58,4.321a3.92,3.92,0,0,1,1.739-3.972A4.43,4.43,0,0,1,622.159,769.126Z" transform="translate(-615.524 -768.584)" fill="#001735"/></g><path d="M587.782,783.139a3.855,3.855,0,0,1,3.379-.553c.376.161-.008.815-.332.789-1.836-.15-3.895.335-4.169,2.51-.014.117-.118.028-.124-.045A2.821,2.821,0,0,1,587.782,783.139Z" transform="translate(-586.524 -772.458)" fill="#aa4452"/><path d="M589.059,783.327c.16-.139.709.2.707.342a2.335,2.335,0,0,0-.683,1.053,3.1,3.1,0,0,0,.134,1.992,3.491,3.491,0,0,0,3.589,2.47c.032,0,.1.069.059.094-1.31.747-3.312-.26-3.99-1.43C588.122,786.554,587.661,784.545,589.059,783.327Z" transform="translate(-586.982 -772.711)" fill="#aa4452"/></g></g><path d="M575.634,839.244c-3.728,1.972-8.622,12.73-5.145,24.352s7.985,23.614,7.985,23.614,17.954-4.243,22.681-15.681c0,0-6.341-15.5-9.293-21.769S585.051,834.263,575.634,839.244Z" transform="translate(-445.902 -756.318)" fill="#dd8321"/><path d="M598.921,922.147c4.026,4.028,9.514,8.452,12.574,9.67-.24-6.775-.5-12.5-.724-18.775l-13.44-17.851L588.5,892.8l-3.171,9.155S592.488,915.71,598.921,922.147Z" transform="translate(-450.398 -771.742)" fill="#dd8321"/><path d="M580.887,839.479c-8.491,2.255-11.383,14.434-2.84,33.3,8.191,18.088,21.395,34.645,29.509,40.3s39.55,3.792,65.84-3.981c0,0,14.982-5.38,19.149-9.071,9.283-8.224,9.737-19.15,2.921-17.526s-17.577,9.011-17.577,9.011-2.854-5.624-4.928-10c0,0-1.842.482-2.491,4.377s-.59,9.322-1.725,10.113c-3.019,2.106-45.161,5.651-50.194.692-5.7-5.616-13.958-20.521-19.823-34.284C592.246,847.19,589.568,837.173,580.887,839.479Z" transform="translate(-446.912 -756.691)" fill="#f2837b"/><path d="M577.583,836.417c-3.728,1.973-8.623,12.73-5.145,24.353s7.985,23.614,7.985,23.614,16.856-2.552,24.011-12.23c0,0-7.672-18.947-10.624-25.22S587,831.436,577.583,836.417Z" transform="translate(-446.448 -755.525)" fill="#ffb33d"/></g></g></svg>