<svg xmlns="http://www.w3.org/2000/svg" width="187.529" height="90.96" viewBox="0 0 187.529 90.96">
    <g id="taxiye-log" transform="translate(-45.62 -115.756)">
        <path id="Path_3" data-name="Path 3" d="M111.823,165.864a9.9,9.9,0,0,1-4.55,3.595c-6.454,2.359-12.451-.96-13.517-7.907a11.951,11.951,0,0,1,2.884-10.384,14.36,14.36,0,0,1,7.742-4.071,23.537,23.537,0,0,1,5.9-.606c.606.018.758-.2.718-.759-.186-2.656-1.963-4.161-5.039-4.2a15.052,15.052,0,0,0-8.528,2.594l-.553-2.037c-.19.772-.333,1.415-.507,2.049-.888,3.23-2.673,6.027-4.361,8.86-2.344,3.936-5.221,7.512-7.814,11.281a83.716,83.716,0,0,0-9.181,16.688,81.657,81.657,0,0,0-3.353,11.912c-.046.2-.008.446-.272.61a4.274,4.274,0,0,1-.36-1.314c-2.066-10.569-6.745-19.955-12.947-28.66-3.1-4.344-6.247-8.647-8.981-13.24a22.027,22.027,0,0,1-3.4-9.434,20.629,20.629,0,0,1,3.089-13.19,24.892,24.892,0,0,1,17.456-11.424,27.7,27.7,0,0,1,19.261,3.309,22.57,22.57,0,0,1,11.02,14.4c.2.8.318,1.619.486,2.5a23.417,23.417,0,0,1,4.585-1.6,20.748,20.748,0,0,1,10.249-.049c4.51,1.279,6.869,4.516,7.9,8.9a23.169,23.169,0,0,1,.564,5.17c.03,5.411.021,10.823.066,16.234a36.816,36.816,0,0,0,.279,3.731c.058.521-.113.612-.579.608-2.352-.018-4.706-.035-7.057.011-.59.012-.689-.251-.753-.707C112.148,167.844,112,166.956,111.823,165.864ZM74.566,152.19h.013q0-8.115,0-16.229c0-.944.263-1.207,1.218-1.208,2.989,0,5.977-.017,8.965.011.548,0,.73-.147.721-.692-.027-1.615-.044-3.232,0-4.846.018-.634-.2-.754-.79-.76-9.136-.087-18.271-.07-27.407,0-.454,0-.651.086-.645.6q.034,2.5-.026,4.993c-.015.576.157.749.741.742,2.963-.035,5.928-.027,8.891-.036.857,0,1.166.294,1.166,1.11q0,3.56,0,7.12.019,12.7.032,25.409c0,.55.111.769.721.756,1.812-.042,3.626-.054,5.437.006.768.025.985-.2.98-.962C74.551,162.863,74.566,157.527,74.566,152.19Zm36.668,3.389h.067c0-.661,0-1.321,0-1.982,0-.281-.06-.476-.4-.459a13.507,13.507,0,0,0-5.434,1.034,4.611,4.611,0,0,0-2.728,4.7c.14,3.066,2.707,4.641,5.472,3.341A5.062,5.062,0,0,0,111.218,158,21.465,21.465,0,0,0,111.233,155.579Z" transform="translate(0 0)" fill="#fff" />
        <path id="Path_4" data-name="Path 4" d="M575.215,216.689c.28-1.333.557-2.667.842-4q1.992-9.327,3.979-18.654c.092-.434.252-.6.722-.6,2.916.022,5.831.012,8.747.009.355,0,.629-.016.462.511-3.465,10.9-6.368,21.98-10.381,32.706a42.928,42.928,0,0,1-4.676,9.446,16.752,16.752,0,0,1-10.458,7.282c-.551.121-.708-.013-.815-.536q-.8-3.916-1.678-7.818c-.122-.538.038-.68.53-.84a12.161,12.161,0,0,0,7.379-6.311,3.069,3.069,0,0,0,.036-2.493q-4.634-13.374-9.254-26.753c-.527-1.525-1.043-3.054-1.586-4.573-.165-.46-.125-.636.432-.632,3.038.022,6.077.017,9.115,0a.6.6,0,0,1,.706.535c1.858,7.4,4.013,14.719,5.609,22.183a5.514,5.514,0,0,0,.169.528Z" transform="translate(-386.478 -58.48)" fill="#fff" />
        <path id="Path_5" data-name="Path 5" d="M708.09,211.593c-2.964,0-5.928.017-8.892-.014-.6-.006-.671.178-.571.712a6.828,6.828,0,0,0,6.018,5.608,19.981,19.981,0,0,0,9.763-.963c.689-.232.8-.031.886.559.3,1.982.625,3.962.983,5.935a.611.611,0,0,1-.438.819,25.765,25.765,0,0,1-9.217,1.92,19.116,19.116,0,0,1-6.736-.822,13.206,13.206,0,0,1-8.616-8.231,22.954,22.954,0,0,1,1.427-19.967,13.547,13.547,0,0,1,17.5-5.839,12.171,12.171,0,0,1,6.123,6.83,26.139,26.139,0,0,1,1.467,12.912c-.054.511-.319.548-.731.547C714.067,211.587,711.079,211.593,708.09,211.593Zm-4.133-7.323q2.424,0,4.848,0c.315,0,.652.067.6-.462a9.745,9.745,0,0,0-1.084-4.075,4.722,4.722,0,0,0-7.516-1.014,8.629,8.629,0,0,0-2.258,5.066c-.076.5.217.489.561.488C700.726,204.267,702.342,204.27,703.957,204.27Z" transform="translate(-484.85 -55.981)" fill="#fff" />
        <path id="Path_6" data-name="Path 6" d="M379.461,204.306c1.416-3.466,2.972-6.677,4.446-9.924a1.438,1.438,0,0,1,1.582-1c2.669.059,5.34.022,8.01.022h.793c.065.343-.14.514-.257.711q-4.5,7.568-9.018,15.126a1.028,1.028,0,0,0-.016,1.188q4.59,8.317,9.148,16.652c.117.212.226.427.336.636-.155.238-.37.139-.544.14-3.087.007-6.173-.006-9.259.017a.818.818,0,0,1-.873-.564c-1.611-3.455-3.381-6.836-4.812-10.374-.054-.133-.127-.258-.187-.378-.3.026-.289.274-.359.432q-2.3,5.158-4.576,10.323c-.127.286-.2.563-.639.56-3.208-.02-6.416-.011-9.631-.011-.084-.363.166-.574.3-.811q4.594-8.022,9.215-16.029a1.176,1.176,0,0,0,.016-1.378c-3.036-5.166-6.038-10.351-9.049-15.532-.408-.7-.4-.707.416-.707,2.915,0,5.83.016,8.745-.014a1.115,1.115,0,0,1,1.177.709c1.616,3.182,3.224,6.367,4.712,9.612C379.208,203.865,379.3,204,379.461,204.306Z" transform="translate(-239.382 -58.444)" fill="#fff" />
        <path id="Path_7" data-name="Path 7" d="M504.642,210.7c0-5.458.018-10.916-.02-16.374-.006-.771.227-.927.945-.915,2.547.043,5.094.031,7.641.005.537-.005.714.132.713.693q-.024,16.557,0,33.115c0,.577-.2.677-.718.673-2.62-.025-5.242-.033-7.862,0-.619.009-.713-.215-.711-.755C504.649,221.663,504.642,216.18,504.642,210.7Z" transform="translate(-345.558 -58.46)" fill="#fff" />
        <path id="Path_8" data-name="Path 8" d="M446.828,357.7c-1.346-.007-2.694-.044-4.039-.007-.583.016-.759-.158-.753-.739.026-2.691.013-5.383.011-8.074,0-1.092-.525-1.548-1.747-1.533-1.087.013-1.63.515-1.631,1.52,0,2.692-.013,5.383.01,8.074.005.554-.119.8-.731.75a18.414,18.414,0,0,0-2.129-.006c-.46.017-.663-.125-.66-.62.016-2.887.01-5.774.007-8.661a1.325,1.325,0,0,1,.931-1.345,4.906,4.906,0,0,1,1.634-.387c.746-.019.977-.355.9-1.06-.054-.508.012-1.028-.018-1.54-.025-.433.108-.627.571-.612.783.026,1.567.026,2.35,0,.463-.015.593.18.574.612-.027.635.007,1.272-.011,1.908a.525.525,0,0,0,.54.622,11.439,11.439,0,0,1,1.438.277c1.146.3,1.469.732,1.472,1.937,0,2.251-.011,4.5.012,6.753,0,.374-.253.969.3,1.076.613.118,1.327.278,1.842-.352a11.081,11.081,0,0,1,.869-.991.912.912,0,0,1,1.015-.244c.349.156.171.523.177.792.021.929.016,1.859,0,2.789,0,.247.132.582-.227.7a.885.885,0,0,1-.9-.156c-.267-.249-.494-.541-.738-.814C447.8,357.523,447.659,357.433,446.828,357.7Z" transform="translate(-293.262 -171.427)" fill="#fff" />
        <path id="Path_9" data-name="Path 9" d="M511.656,351.44c.419.674.784,1.27,1.159,1.858.121.19.335.179.531.18.489,0,.98-.014,1.469.007.456.019.859.015,1.1-.492.138-.3.5-.315.781-.323.879-.026,1.762-.029,2.64.011a1.043,1.043,0,0,1,1.063,1.154c.008.318.017.637,0,.954a1.059,1.059,0,0,1-1.166,1.128c-.832.019-1.664.014-2.5,0-.648-.01-1.109-.264-1.059-1,.032-.464-.169-.628-.6-.568-.469.065-1.134-.245-1.358.174-.174.326.368.783.6,1.177.284.486.586.96.89,1.433.224.349.283.571-.273.558-.93-.022-1.86-.02-2.79,0a.793.793,0,0,1-.764-.447c-1.037-1.687-2.092-3.363-3.136-5.046a3.121,3.121,0,0,1-.468-1.741c.025-1.737.008-3.474.009-5.211,0-1.127.46-1.674,1.606-1.733,1.245-.064,2.5-.034,3.744-.039,1.028,0,2.057-.022,3.084.01,1.35.042,1.9.628,1.9,1.953q0,2.092,0,4.183c0,1.221-.536,1.8-1.777,1.825-1.394.024-2.789-.018-4.184-.03C512.036,351.41,511.92,351.424,511.656,351.44Zm-.388-4.049v.953c0,2.165.349,2.455,2.525,2.138.546-.079.823-.317.806-.909-.03-1.05-.009-2.1-.009-3.153,0-1.93-.232-2.141-2.194-2-.1.007-.194.022-.292.032a.812.812,0,0,0-.844.96C511.3,346.069,511.269,346.731,511.269,347.391Zm7.374,6.9h.01c0-.146-.006-.294,0-.44.025-.5-.056-.868-.7-.855s-.684.411-.67.891c.011.366.014.734,0,1.1-.016.473.278.566.661.583s.683-.086.691-.547C518.646,354.775,518.643,354.531,518.643,354.286Z" transform="translate(-347.929 -171.428)" fill="#fff" />
        <path id="Path_10" data-name="Path 10" d="M370.727,345.681c-.551,0-1.1-.008-1.654,0-.66.011-1-.256-.981-.962q.04-1.687,0-3.376c-.012-.494.121-.716.655-.69.757.037,1.519.036,2.276,0,.535-.026.672.192.651.689-.034.83-.012,1.663-.009,2.5,0,1.022.183,1.163,1.189.879a15.321,15.321,0,0,1,3.528-.648,5.845,5.845,0,0,1,3.4.684,2.244,2.244,0,0,1,1.17,1.992c.015,2.74,0,5.481.016,8.221,0,.49-.177.633-.651.607a20.2,20.2,0,0,0-2.129,0c-.528.028-.668-.184-.665-.683.018-2.691.01-5.383.009-8.074,0-1.374-.678-1.957-2.049-1.772a3.088,3.088,0,0,0-2.814,3.405c.044.436.083.89.714.917.308.013.474.268.212.5-1.428,1.275-1.141,2.971-1.164,4.589-.018,1.259.076,1.1-1.1,1.106-.587,0-1.176-.018-1.763.007-.43.018-.6-.118-.617-.577a6.425,6.425,0,0,1,1.268-4.834c.275-.314.135-.385-.206-.419-1.044-.106-1.107-.192-1.039-1.205a2.723,2.723,0,0,1,1.223-2.224c.2-.134.384-.294.576-.442Z" transform="translate(-242.769 -169.313)" fill="#fff" />
        <path id="Path_11" data-name="Path 11" d="M120.256,442.267a23.7,23.7,0,0,1,7.081,1.033,5.36,5.36,0,0,1,1.756.893c.836.687.828,1.376-.028,2.054a5.45,5.45,0,0,1-1.762.881,26,26,0,0,1-9.585.945,20.237,20.237,0,0,1-5.329-.953,6.432,6.432,0,0,1-1.458-.681c-1.228-.8-1.222-1.7.028-2.482a9.174,9.174,0,0,1,2.946-1.086A28.679,28.679,0,0,1,120.256,442.267Z" transform="translate(-48.48 -245.812)" fill="#fff" />
        <path id="Path_12" data-name="Path 12" d="M503.814,138.229c-.019-2.9,1.557-4.988,4-5.33,3.42-.479,5.958,2.024,5.771,5.691-.174,3.407-2.837,5.572-6.049,4.918a4.854,4.854,0,0,1-3.72-4.472C503.8,138.769,503.814,138.5,503.814,138.229Z" transform="translate(-344.944 -12.862)" fill="#fff" />
        <path id="Path_13" data-name="Path 13" d="M301.4,351.2c0-.808,0-1.616,0-2.424,0-.315-.065-.493-.449-.5a3.117,3.117,0,0,0-3.064,2.023c-.164.422-.5.451-.837.43-.373-.023-.243-.363-.248-.583-.014-.661.017-1.323-.013-1.983-.021-.457.153-.594.6-.584,1.1.025,2.206-.016,3.307.018.537.017.743-.131.716-.7-.045-.929.01-1.861-.021-2.791-.016-.489.168-.647.639-.632.783.025,1.569.026,2.352,0,.456-.016.6.163.586.6-.024.93.032,1.863-.021,2.79-.035.612.2.747.756.728,1.077-.037,2.156.006,3.234-.018.451-.01.609.15.59.6-.027.66,0,1.322-.013,1.983-.005.216.13.564-.248.577-.322.011-.675.018-.837-.422a3.017,3.017,0,0,0-3.043-2.034c-.482.005-.422.291-.424.581-.012,1.42.019,2.841-.041,4.259-.08,1.9-.763,2.7-2.586,3.251-1.339.406-2.716.622-4.082.894-.891.177-1.727.435-1.924,1.517-.06.33-.366.263-.6.26a.378.378,0,0,1-.4-.423q-.008-1.433,0-2.865c0-.249.1-.438.374-.452.236-.012.535-.088.633.22.24.753.894.718,1.452.714a4.866,4.866,0,0,0,2.8-.966,1.933,1.933,0,0,0,.81-1.647c.013-.808,0-1.616,0-2.424Z" transform="translate(-187.982 -171.438)" fill="#fff" />
        <path id="Path_14" data-name="Path 14" d="M444.638,400.665c.832-.268.977-.178,1.075.666-.559,1.489-1.364,2.862-2.023,4.3a41.29,41.29,0,0,0-2.609,7.137,4.7,4.7,0,0,0-.172,1.81c.058.418.023.942-.5.982-.615.047-.608-.525-.619-.955a8.854,8.854,0,0,1,.5-2.8,52.871,52.871,0,0,1,2.844-7.052c.093-.2.17-.4.255-.606.08-.095.135-.219.031-.3-.078-.061-.154.042-.2.124a52.646,52.646,0,0,0-3.929,6.444c-.315.578-.665,1.139-1.025,1.691a.926.926,0,0,1-1.113.506c-.468-.176-.44-.652-.413-1.07a15.468,15.468,0,0,1,1.223-4.66c.317-.808.655-1.607,1.06-2.6a2.7,2.7,0,0,0-.88,1.014,50.4,50.4,0,0,0-4.515,9.442,6.969,6.969,0,0,1-.449,1c-.144.26-.374.53-.7.382-.358-.161-.212-.505-.118-.774a47.076,47.076,0,0,1,1.819-4.557,52.094,52.094,0,0,1,5.221-8.74,8.132,8.132,0,0,1,.761-.892.586.586,0,0,1,.79-.162.677.677,0,0,1,.277.838,8.641,8.641,0,0,1-.474,1.071,32.058,32.058,0,0,0-2.635,6.9,1.709,1.709,0,0,0-.1.861c.28-.1.324-.368.436-.57a85.49,85.49,0,0,1,5.339-8.424C444.054,401.326,444.357,401,444.638,400.665Z" transform="translate(-291.073 -214.392)" fill="#fff" />
        <path id="Path_15" data-name="Path 15" d="M242.417,411.453c-.2.08-.409.154-.61.24-.249.107-.5.263-.694-.081a.539.539,0,0,1,.174-.774,4.249,4.249,0,0,1,1.121-.527,3.139,3.139,0,0,0,1.9-1.578,43.679,43.679,0,0,1,4.707-6.274,5.794,5.794,0,0,1,.582-.56c.233-.2.515-.353.8-.167a.7.7,0,0,1,.29.839c-.254.842-.524,1.679-.763,2.525-.233.822-.439,1.652-.649,2.48-.087.342-.1.636.41.574.352-.042.65.04.64.488-.009.414-.243.684-.64.634-.795-.1-.911.377-1.013.984a43.2,43.2,0,0,0-.723,5.594c-.01.283-.047.586-.384.615-.362.031-.5-.27-.554-.572a7.624,7.624,0,0,1,.094-2.48c.146-1.114.336-2.224.563-3.323.1-.486-.084-.507-.441-.411a23.857,23.857,0,0,0-2.582.831,1.243,1.243,0,0,0-.653.653q-1.175,2.239-2.35,4.478a4.787,4.787,0,0,1-.289.508c-.149.214-.355.375-.622.234a.458.458,0,0,1-.2-.633c.237-.562.467-1.128.737-1.673.411-.831.853-1.648,1.282-2.47l.048-.174Zm2.723-2.232c1-.3,1.811-.542,2.623-.771a.419.419,0,0,0,.31-.355c.377-1.4.762-2.807,1.2-4.408A29.348,29.348,0,0,0,245.14,409.221Z" transform="translate(-146.702 -215.233)" fill="#fff" />
        <path id="Path_16" data-name="Path 16" d="M357.8,436.749a6.135,6.135,0,0,0,1.722-1.959c.147-.214.175-.7.556-.491.261.142.114.539-.012.8a7.693,7.693,0,0,1-2.494,2.927,2.335,2.335,0,0,0-.888,1.191,23.8,23.8,0,0,1-1.394,3.222,5.6,5.6,0,0,1-1.264,1.693,1.455,1.455,0,0,1-1.747.342,1.473,1.473,0,0,1-.616-1.606,4.209,4.209,0,0,1,1.226-2.366,6.239,6.239,0,0,1,1.739-1.451,4.3,4.3,0,0,0,2.239-2.973c.035-.084.09-.172-.016-.241a1.62,1.62,0,0,0-.114.14,12.269,12.269,0,0,1-1.521,1.575c-.334.218-.682.442-1.088.235-.442-.225-.382-.674-.313-1.043a9.221,9.221,0,0,1,2.426-4.441c.172-.192.408-.317.649-.126a.492.492,0,0,1,.056.724c-.31.439-.654.853-.974,1.286a7.543,7.543,0,0,0-1.01,1.7c-.071.181-.189.4,0,.538s.376-.026.52-.151a11.975,11.975,0,0,0,2.147-2.493c.339-.508.658-1.03,1-1.534.177-.259.383-.6.755-.375.339.2.225.565.091.855-.43.931-.887,1.849-1.318,2.78-.174.375-.306.768-.458,1.153-.04.065-.074.132.011.185C357.715,436.847,357.765,436.782,357.8,436.749Zm-2.413,2.819a7.223,7.223,0,0,0-2.279,2.071,2.125,2.125,0,0,0-.464,1.289c.016.551.367.744.827.432a2.122,2.122,0,0,0,.5-.526A11.341,11.341,0,0,0,355.382,439.567Z" transform="translate(-230.384 -237.93)" fill="#fff" />
        <path id="Path_17" data-name="Path 17" d="M555.324,434.892a8.445,8.445,0,0,0,2.118-2.612c.121-.2.173-.634.52-.464.3.149.095.5,0,.722a9.018,9.018,0,0,1-2.879,3.553,2.751,2.751,0,0,0-.893,1.2,16.47,16.47,0,0,1-1.9,3.709,3.264,3.264,0,0,1-.945.909,1.045,1.045,0,0,1-1.707-.9,3.4,3.4,0,0,1,.778-2.239,10.609,10.609,0,0,1,2.9-2.332c.636-.42.718-.546.861-1.461-.218.166-.4.315-.589.446-.743.509-1.321.252-1.444-.643a1.455,1.455,0,0,1,.006-.51,8.357,8.357,0,0,1,2.641-4.628,2.849,2.849,0,0,1,.743-.46c.85-.36,1.4.045,1.334.968a6.4,6.4,0,0,1-.906,3.118A3.839,3.839,0,0,0,555.324,434.892Zm-2.231-.813c-.043.272-.036.474.163.586a.4.4,0,0,0,.466-.116,4.815,4.815,0,0,0,.458-.473c.8-.946,1.022-2.206,1.717-3.214a.413.413,0,0,0,0-.546c-.205-.173-.42-.033-.586.115A7.315,7.315,0,0,0,553.094,434.079Zm.031,3.451a5.124,5.124,0,0,0-2.493,2.7c-.107.283-.207.589.107.784.29.18.518-.054.686-.249A10.412,10.412,0,0,0,553.125,437.53Z" transform="translate(-379.443 -235.869)" fill="#fff" />
        <path id="Path_18" data-name="Path 18" d="M281.1,416.04a21.2,21.2,0,0,1,2.544-.677,4.454,4.454,0,0,1,.729-.039.488.488,0,0,1,.528.561c-.015.344-.163.59-.525.565a6.144,6.144,0,0,0-3.2.9c-.384.192-.812.472-1.227.124a1.138,1.138,0,0,1-.223-1.353,33.643,33.643,0,0,1,2.332-5.206,69.874,69.874,0,0,1,3.84-6.325,4.056,4.056,0,0,1,.4-.524.466.466,0,0,1,.654-.117.454.454,0,0,1,.115.6,8.053,8.053,0,0,1-.593,1.009,49.031,49.031,0,0,0-5.17,9.257c-.14.361-.235.741-.351,1.111l.035.18Z" transform="translate(-176.156 -216.898)" fill="#fff" />
        <path id="Path_19" data-name="Path 19" d="M309.26,434.957c-.565.523-.959,1.14-1.5,1.629-.294.264-.606.58-1.027.357a1.015,1.015,0,0,1-.424-1.029,4.2,4.2,0,0,1,.373-1.483,11.869,11.869,0,0,1,1.689-2.9c.22-.278.5-.771.928-.432s.05.7-.2,1a10.345,10.345,0,0,0-1.642,2.676c-.084.2-.229.463-.024.6s.41-.094.559-.246a23.465,23.465,0,0,0,2.2-2.923c.267-.372.517-1.043,1.084-.685.493.311-.044.789-.194,1.155a17.627,17.627,0,0,0-1,2.514c-.05.209-.145.463.121.576.223.095.354-.132.471-.272a8.468,8.468,0,0,0,1.781-3.963,2.253,2.253,0,0,1,.31-.891.464.464,0,0,1,.5-.232c.247.055.261.26.255.462a2.28,2.28,0,0,1-.034.438,12.139,12.139,0,0,1-2.648,5.241c-.327.386-.74.727-1.272.5-.571-.249-.414-.82-.4-1.294A7.561,7.561,0,0,1,309.26,434.957Z" transform="translate(-196.254 -236.876)" fill="#fff" />
        <path id="Path_20" data-name="Path 20" d="M341.225,435.107a12.544,12.544,0,0,1-.943,1.167.887.887,0,0,1-1.577-.436,2.855,2.855,0,0,1-.014-1.38,7.736,7.736,0,0,1,2.048-4.059,2.555,2.555,0,0,1,1.1-.712c.85-.254,1.276.24,1.3,1.113a9.561,9.561,0,0,1-.8,2.826,5.068,5.068,0,0,0-.27,1.579.872.872,0,0,0,.469.777c.345.185.456.481.239.788s-.578.228-.859.051C341.328,436.452,341.277,435.824,341.225,435.107Zm-1.664-.543c.006.348-.059.665.259.781.272.1.447-.138.612-.315a2.82,2.82,0,0,0,.26-.354c.7-1.039,1-2.274,1.65-3.344.2-.323-.078-.493-.382-.523a.852.852,0,0,0-.706.333A6.591,6.591,0,0,0,339.561,434.564Z" transform="translate(-220.578 -236.291)" fill="#fff" />
        <path id="Path_21" data-name="Path 21" d="M539.186,435.449a8.6,8.6,0,0,0-1.709,2.536,5.163,5.163,0,0,1-.362.633.368.368,0,0,1-.446.163.378.378,0,0,1-.26-.4,2.9,2.9,0,0,1,.123-.714,26.525,26.525,0,0,1,1.91-4.2c.163-.294.326-.808.78-.562.407.221.17.643.013.979a.223.223,0,0,0,.052.314c.438-.383.874-.792,1.34-1.163.258-.206.592-.522.907-.24s.127.7-.086,1a10.393,10.393,0,0,0-1.615,3.024,3.126,3.126,0,0,0,.07,2.355c.121.244.234.548-.082.709-.351.179-.607-.026-.77-.345a4.025,4.025,0,0,1-.082-2.933c.089-.354.24-.691.363-1.036.038-.076.108-.16,0-.223C539.308,435.338,539.236,435.414,539.186,435.449Zm-.036-1.125a1.183,1.183,0,0,0,.139-.157c.005-.008-.065-.088-.081-.082a1.01,1.01,0,0,0-.174.1Z" transform="translate(-369.486 -238.597)" fill="#fff" />
        <path id="Path_22" data-name="Path 22" d="M388.821,434.225a2.1,2.1,0,0,1,.417-1.286c.138-.182.327-.359.557-.232s.06.34,0,.517a1.948,1.948,0,0,0-.019,1.567c.229.439.59.7,1.076.5a.8.8,0,0,0,.4-1.054,6.618,6.618,0,0,0-.605-1.247,2.374,2.374,0,0,1,.074-2.691,3.078,3.078,0,0,1,3.012-1.29c.533.076.716.458.712.952a2.44,2.44,0,0,1-2.041,2.183c-.225.019-.522.116-.6-.234a.471.471,0,0,1,.392-.6,2.012,2.012,0,0,0,1.044-.491c.186-.207.358-.426.2-.716s-.427-.211-.658-.171a1.843,1.843,0,0,0-1.394,2.62c.2.445.481.855.656,1.308a1.767,1.767,0,0,1-1,2.414C389.84,436.726,388.821,435.867,388.821,434.225Z" transform="translate(-258.376 -235.803)" fill="#fff" />
        <path id="Path_23" data-name="Path 23" d="M505.166,434.518c.5.2.746-.162,1.049-.386.182-.135.354-.428.62-.2s.127.5-.021.731a1.611,1.611,0,0,1-1.709.884.516.516,0,0,0-.668.348,7.01,7.01,0,0,1-1.54,2.126c-.3.265-.627.539-1.047.33a1.067,1.067,0,0,1-.5-1,5.01,5.01,0,0,1,.522-2.19c.355-.883.762-1.746,1.151-2.614.1-.22.194-.513.5-.417s.252.4.2.631a14.443,14.443,0,0,1-.933,2.384,6.321,6.321,0,0,0-.516,1.522c-.021.139-.038.307.125.386a.329.329,0,0,0,.4-.1,4.728,4.728,0,0,0,1.479-2.86,3.075,3.075,0,0,1,.464-1.666.651.651,0,0,1,.753-.328c.372.127.272.461.225.749A8.374,8.374,0,0,1,505.166,434.518Z" transform="translate(-343.09 -238.136)" fill="#fff" />
        <path id="Path_24" data-name="Path 24" d="M479.876,435.149a7.487,7.487,0,0,1,2.7-5.166,1.141,1.141,0,0,1,1.351-.258c.444.274.429.793.363,1.261a10.355,10.355,0,0,1-2.046,4.716,2.922,2.922,0,0,1-.3.319,1.313,1.313,0,0,1-1.5.472C479.909,436.252,479.859,435.7,479.876,435.149Zm.929-.668c-.017.428-.043.7.222.826.293.136.509-.065.7-.255a1.373,1.373,0,0,0,.279-.336,34.737,34.737,0,0,1,1.416-3.344.352.352,0,0,0-.119-.512.4.4,0,0,0-.468.112A6.318,6.318,0,0,0,480.806,434.481Z" transform="translate(-326.925 -236.27)" fill="#fff" />
        <path id="Path_25" data-name="Path 25" d="M523.191,437.658a16.254,16.254,0,0,1,1.731-4.582c.253-.443.533-.871.817-1.3a.352.352,0,0,1,.436-.181c.236.093.237.308.187.494a2.685,2.685,0,0,1-.266.594,20.774,20.774,0,0,0-1.991,4.846,3.375,3.375,0,0,1-.112.348c-.093.244-.233.451-.535.36C523.2,438.163,523.172,437.94,523.191,437.658Z" transform="translate(-359.534 -237.763)" fill="#fff" />
        <path id="Path_26" data-name="Path 26" d="M538.761,416.3a1.908,1.908,0,0,1-.771,1.256.459.459,0,0,1-.549.056.51.51,0,0,1-.214-.575,2.033,2.033,0,0,1,.776-1.2.5.5,0,0,1,.552-.066C538.77,415.881,538.76,416.082,538.761,416.3Z" transform="translate(-370.091 -225.823)" fill="#fff" />
    </g>
</svg>
