<svg xmlns="http://www.w3.org/2000/svg" xmlns:xlink="http://www.w3.org/1999/xlink" width="931.108" height="573.437" viewBox="0 0 931.108 573.437"><defs><clipPath id="a"><rect width="201" height="328.057" fill="none"/></clipPath><clipPath id="b"><rect width="201" height="328.057" fill="#eff7fd"/></clipPath></defs><path d="M671.52,1089.376c38.232-32.612,84.323-229.29,242.217-126.855,81.577,52.924,219.132-45.434,332.987-11.46,104.563,31.2,114.642,133.994,104.525,167.489-20.436,67.661,43.161,77.728,102.16,106.8,92.544,45.6,24.491,205.856-62.935,206.622s-617.1.9-617.1.9-126.988-2.11-179.8-72.207C536.74,1285.236,572.767,1173.612,671.52,1089.376Z" transform="translate(-566.551 -860.606)" fill="#e6eff9"/><g transform="translate(164.826 63.885)"><rect width="249.653" height="376.505" fill="#c8dcf2"/><rect width="201" height="328.057" transform="translate(24.327 23.884)" fill="#eff7fd"/><path d="M900.252,1049.079s-28.236-27.037-54.911-27.037c-46.9,0-72.073,88.762-102.885,69.867s-43.2-37.149-43.2-37.149v184.59h201Z" transform="translate(-674.925 -886.713)" fill="#e1edf9"/><g transform="translate(41.074 141.032)"><g transform="translate(35.079 0.077)"><path d="M757.751,1026.1h0Z" transform="translate(-726.195 -1026.097)" fill="#06294e"/><g transform="translate(0 0.882)"><path d="M735.61,1038.256h0q2.47-.092,5.136-.094s9.841-8.54,21.224-11.446C750.268,1029.605,735.61,1038.256,735.61,1038.256Z" transform="translate(-735.61 -1026.716)" fill="#06294e"/></g></g><g transform="translate(10.713 18.173)"><circle cx="10.352" cy="10.352" r="10.352" fill="#06294e"/><path d="M734.106,1047.969a6.414,6.414,0,1,1-6.413-6.414A6.413,6.413,0,0,1,734.106,1047.969Z" transform="translate(-717.341 -1037.618)" fill="#e1edf9"/></g><g transform="translate(93.051 17.784)"><circle cx="10.352" cy="10.352" r="10.352" transform="matrix(0.999, -0.038, 0.038, 0.999, 0, 0.795)" fill="#06294e"/><path d="M792.143,1047.969a6.414,6.414,0,1,1-6.413-6.414A6.413,6.413,0,0,1,792.143,1047.969Z" transform="translate(-774.988 -1037.228)" fill="#e1edf9"/></g><path d="M835.208,1044.954v-9.429s-11.061-1.264-17.751-3.688c-15.487-5.689-23.81-5.794-37.875-5.794-10.678,0-21.492,7.151-26.081,10.594a9.247,9.247,0,0,1-5.357,1.844c-16.891.371-27.334,3.743-32.519,6.02a6.688,6.688,0,0,0-3.994,6.128v3.174h0a.632.632,0,0,0-.631.633v5.267a.632.632,0,0,0,.631.633h10.08a11.852,11.852,0,1,1,20.707,0h62.02a11.851,11.851,0,1,1,20.709,0h2.476c8.57,0,9.784-8.765,9.865-13.062A2.279,2.279,0,0,0,835.208,1044.954Z" transform="translate(-711 -1026.043)" fill="#db635c"/><path d="M761.356,1027.385c-9.784,2.476-20.275,10.939-20.275,10.939l27.771-.593a2.855,2.855,0,0,0,2.527-1.653l4.256-9.184h-10.3A16.227,16.227,0,0,0,761.356,1027.385Z" transform="translate(-698.203 -1025.682)" fill="#06294e"/><path d="M767.658,1027.041l-3.9,8.932a1.04,1.04,0,0,0,.952,1.455c3.934,0,14.264-.144,20.211-1.633a1.879,1.879,0,0,0,.845-3.174C783.352,1030.3,778.1,1027.041,767.658,1027.041Z" transform="translate(-688.593 -1025.618)" fill="#06294e"/><path d="M711.95,1043.538h4.058a35.894,35.894,0,0,1,17.283-7.948S713.621,1037.757,711.95,1043.538Z" transform="translate(-710.596 -1021.982)" fill="#ef903b"/><path d="M800.216,1041.842h-1.073a1.558,1.558,0,0,1-1.408-.89,17.219,17.219,0,0,0-4.077-5.582,1.14,1.14,0,0,1,.737-2.01h5.821Z" transform="translate(-676.008 -1022.93)" fill="#ef903b"/><path d="M762.54,1036.658h-5.4a.54.54,0,0,1-.539-.54h0a.539.539,0,0,1,.539-.54h5.4a.541.541,0,0,1,.54.54h0A.541.541,0,0,1,762.54,1036.658Z" transform="translate(-691.6 -1021.987)" fill="#06294e"/><path d="M779.281,1036.658h-5.4a.541.541,0,0,1-.54-.54h0a.541.541,0,0,1,.54-.54h5.4a.54.54,0,0,1,.539.54h0A.54.54,0,0,1,779.281,1036.658Z" transform="translate(-684.478 -1021.987)" fill="#06294e"/><path d="M789.6,1038.793H740.933a2.579,2.579,0,0,0-2.2,3.92l3.133,5.151a2.257,2.257,0,0,0,3.24.667C749.263,1045.565,761.25,1039.41,789.6,1038.793Z" transform="translate(-699.365 -1020.619)" fill="#b63e35"/></g><g transform="translate(41.074 63.613)"><g transform="translate(35.079 0.077)"><path d="M757.751,971.785h0Z" transform="translate(-726.195 -971.784)" fill="#06294e"/><g transform="translate(0 0.882)"><path d="M735.61,983.943h0q2.47-.094,5.136-.1s9.841-8.54,21.224-11.446C750.268,975.294,735.61,983.943,735.61,983.943Z" transform="translate(-735.61 -972.403)" fill="#06294e"/></g></g><g transform="translate(10.713 18.174)"><path d="M739.22,994.831a10.352,10.352,0,1,1-10.352-10.351A10.352,10.352,0,0,1,739.22,994.831Z" transform="translate(-718.516 -984.48)" fill="#06294e"/><circle cx="6.414" cy="6.414" r="6.414" transform="translate(3.938 3.938)" fill="#e1edf9"/></g><g transform="translate(93.44 18.174)"><path d="M797.257,994.831a10.352,10.352,0,1,1-10.351-10.351A10.352,10.352,0,0,1,797.257,994.831Z" transform="translate(-776.553 -984.48)" fill="#06294e"/><circle cx="6.414" cy="6.414" r="6.414" transform="translate(3.938 3.938)" fill="#e1edf9"/></g><path d="M835.208,990.641v-9.429s-11.061-1.264-17.751-3.688c-15.487-5.689-23.81-5.794-37.875-5.794-10.678,0-21.492,7.151-26.081,10.6a9.256,9.256,0,0,1-5.357,1.843c-16.891.371-27.334,3.743-32.519,6.02a6.687,6.687,0,0,0-3.994,6.128v3.175h0a.632.632,0,0,0-.631.633v5.267a.632.632,0,0,0,.631.632h10.08a11.852,11.852,0,1,1,20.707,0h62.02a11.851,11.851,0,1,1,20.709,0h2.476c8.57,0,9.784-8.765,9.865-13.062A2.279,2.279,0,0,0,835.208,990.641Z" transform="translate(-711 -971.73)" fill="#6db1c1"/><path d="M761.356,973.072c-9.784,2.476-20.275,10.939-20.275,10.939l27.771-.593a2.855,2.855,0,0,0,2.527-1.653l4.256-9.184h-10.3A16.227,16.227,0,0,0,761.356,973.072Z" transform="translate(-698.203 -971.368)" fill="#06294e"/><path d="M767.658,972.728l-3.9,8.932a1.04,1.04,0,0,0,.952,1.455c3.934,0,14.264-.144,20.211-1.633a1.879,1.879,0,0,0,.845-3.175C783.352,975.99,778.1,972.728,767.658,972.728Z" transform="translate(-688.593 -971.306)" fill="#06294e"/><path d="M711.95,989.225h4.058a35.892,35.892,0,0,1,17.283-7.948S713.621,983.444,711.95,989.225Z" transform="translate(-710.596 -967.669)" fill="#ef903b"/><path d="M800.216,987.528h-1.073a1.557,1.557,0,0,1-1.408-.889,17.22,17.22,0,0,0-4.077-5.582,1.14,1.14,0,0,1,.737-2.01h5.821Z" transform="translate(-676.008 -968.617)" fill="#ef903b"/><path d="M762.54,982.344h-5.4a.539.539,0,0,1-.539-.54h0a.538.538,0,0,1,.539-.539h5.4a.539.539,0,0,1,.54.539h0A.54.54,0,0,1,762.54,982.344Z" transform="translate(-691.6 -967.674)" fill="#06294e"/><path d="M779.281,982.344h-5.4a.54.54,0,0,1-.54-.54h0a.539.539,0,0,1,.54-.539h5.4a.538.538,0,0,1,.539.539h0A.539.539,0,0,1,779.281,982.344Z" transform="translate(-684.478 -967.674)" fill="#06294e"/><path d="M789.6,984.48H740.933a2.579,2.579,0,0,0-2.2,3.92l3.133,5.152a2.257,2.257,0,0,0,3.24.667C749.263,991.252,761.25,985.1,789.6,984.48Z" transform="translate(-699.365 -966.306)" fill="#4d8a98"/></g><g transform="translate(32.468 53.036)"><path d="M704.963,975.784h3.576v-7.943h17.667v-3.531H704.963Z" transform="translate(-704.963 -964.309)" fill="#ef903b"/><path d="M793.475,964.309v3.531h13.956v7.943h3.576V964.309Z" transform="translate(-667.308 -964.309)" fill="#ef903b"/><path d="M807.431,1006.53H793.475v3.531h17.532V997.88h-3.576Z" transform="translate(-667.308 -950.028)" fill="#ef903b"/><path d="M708.539,997.88h-3.576v12.181h21.243v-3.531H708.539Z" transform="translate(-704.963 -950.028)" fill="#ef903b"/></g><g transform="translate(32.468 130.454)"><path d="M704.963,1030.1h3.576v-7.943h17.667v-3.531H704.963Z" transform="translate(-704.963 -1018.622)" fill="#ef903b"/><path d="M793.475,1018.622v3.531h13.956v7.943h3.576v-11.475Z" transform="translate(-667.308 -1018.622)" fill="#ef903b"/><path d="M807.431,1060.842H793.475v3.531h17.532v-12.18h-3.576Z" transform="translate(-667.308 -1004.341)" fill="#ef903b"/><path d="M708.539,1052.194h-3.576v12.18h21.243v-3.531H708.539Z" transform="translate(-704.963 -1004.341)" fill="#ef903b"/></g><g transform="translate(24.327 24.224)"><g clip-path="url(#a)"><g transform="translate(11.727 193.617)"><g transform="translate(90.454 0.198)"><path d="M828.024,1080.067h0l-.024,0Z" transform="translate(-746.66 -1080.067)" fill="#06294e"/><g transform="translate(0 2.273)"><path d="M770.936,1111.42h0q6.372-.239,13.246-.244s25.374-22.021,54.726-29.514C808.729,1089.114,770.936,1111.42,770.936,1111.42Z" transform="translate(-770.936 -1081.662)" fill="#06294e"/></g></g><g transform="translate(18.953 38.186)"><circle cx="26.693" cy="26.693" r="26.693" transform="matrix(0.415, -0.91, 0.91, 0.415, 0, 48.569)" fill="#06294e"/><path d="M767.059,1136.464a16.538,16.538,0,1,1-16.538-16.539A16.538,16.538,0,0,1,767.059,1136.464Z" transform="translate(-715.156 -1101.099)" fill="#e1edf9"/></g><g transform="translate(229.877 35.802)"><circle cx="26.693" cy="26.693" r="26.693" transform="translate(0 37.749) rotate(-45)" fill="#06294e"/><path d="M916.706,1136.464a16.538,16.538,0,1,1-16.539-16.539A16.539,16.539,0,0,1,916.706,1136.464Z" transform="translate(-862.418 -1098.714)" fill="#e1edf9"/></g><path d="M1027.746,1128.687v-24.312s-28.522-3.26-45.771-9.508c-39.932-14.669-61.391-14.94-97.657-14.94-27.533,0-55.419,18.438-67.25,27.317A23.881,23.881,0,0,1,803.258,1112c-43.554.954-70.478,9.649-83.85,15.517a17.252,17.252,0,0,0-10.3,15.8v8.185h0a1.63,1.63,0,0,0-1.629,1.631v13.581a1.63,1.63,0,0,0,1.629,1.631H735.1a30.56,30.56,0,1,1,53.4,0H948.406a30.561,30.561,0,1,1,53.4,0h6.386c22.1,0,25.23-22.6,25.437-33.68A5.876,5.876,0,0,0,1027.746,1128.687Z" transform="translate(-707.478 -1079.928)" fill="#a0c88c"/><path d="M837.321,1083.386c-25.229,6.384-52.28,28.206-52.28,28.206l71.607-1.531a7.359,7.359,0,0,0,6.518-4.264l10.973-23.679H847.588A41.831,41.831,0,0,0,837.321,1083.386Z" transform="translate(-674.481 -1078.996)" fill="#06294e"/><path d="M853.57,1082.5l-10.054,23.032a2.68,2.68,0,0,0,2.456,3.753c10.145,0,36.78-.372,52.113-4.214a4.845,4.845,0,0,0,2.178-8.186C894.034,1090.909,880.486,1082.5,853.57,1082.5Z" transform="translate(-649.702 -1078.834)" fill="#06294e"/><path d="M709.928,1125.039h10.464s17.108-15.97,44.563-20.5C764.955,1104.543,714.236,1110.132,709.928,1125.039Z" transform="translate(-706.436 -1069.456)" fill="#ef903b"/><path d="M937.521,1120.661h-2.77a4.014,4.014,0,0,1-3.631-2.291c-1.6-3.388-5.116-9.821-10.51-14.4a2.938,2.938,0,0,1,1.9-5.182h15.011Z" transform="translate(-617.253 -1071.902)" fill="#ef903b"/><path d="M840.373,1107.3H826.457a1.392,1.392,0,0,1-1.392-1.393h0a1.393,1.393,0,0,1,1.392-1.393h13.916a1.393,1.393,0,0,1,1.393,1.393h0A1.392,1.392,0,0,1,840.373,1107.3Z" transform="translate(-657.455 -1069.47)" fill="#06294e"/><path d="M883.538,1107.3H869.621a1.393,1.393,0,0,1-1.393-1.393h0a1.394,1.394,0,0,1,1.393-1.393h13.918a1.393,1.393,0,0,1,1.391,1.393h0A1.392,1.392,0,0,1,883.538,1107.3Z" transform="translate(-639.092 -1069.47)" fill="#06294e"/><path d="M910.141,1112.8H784.661a6.653,6.653,0,0,0-5.683,10.11l8.081,13.284a5.821,5.821,0,0,0,8.353,1.719C806.141,1130.265,837.046,1114.4,910.141,1112.8Z" transform="translate(-677.478 -1065.943)" fill="#78a564"/></g></g></g><path d="M893.728,1151.843H715.4a.815.815,0,0,1-.814-.815h0a.814.814,0,0,1,.814-.815H893.728Z" transform="translate(-668.4 -832.188)" fill="#13243e"/><path d="M831.985,1014.028a6.316,6.316,0,1,1-6.316-6.316A6.316,6.316,0,0,1,831.985,1014.028Z" transform="translate(-623.831 -892.809)" fill="#c8dcf2"/><path d="M815.983,1007.3h0a1.527,1.527,0,0,0,2.161,0l8.909-8.907,9.147,9.147a1.527,1.527,0,0,0,2.161,0l.241-.24a1.53,1.53,0,0,0,0-2.161l-11.309-11.309-11.309,11.309A1.53,1.53,0,0,0,815.983,1007.3Z" transform="translate(-625.455 -898.716)" fill="#c8dcf2"/><path d="M815.983,1020.12h0a1.527,1.527,0,0,1,2.161,0l8.909,8.907,9.147-9.148a1.53,1.53,0,0,1,2.161,0l.241.241a1.53,1.53,0,0,1,0,2.161l-11.309,11.308-11.309-11.308A1.53,1.53,0,0,1,815.983,1020.12Z" transform="translate(-625.455 -887.823)" fill="#c8dcf2"/></g><path d="M1018.037,1307.062v-16.521h26.009a1.279,1.279,0,0,0,1.276-1.276v-2.647a1.279,1.279,0,0,0-1.276-1.276h-26.009V1191.3a4.813,4.813,0,0,0-4.8-4.8h-5.147a4.813,4.813,0,0,0-4.8,4.8v94.047H977.283a1.281,1.281,0,0,0-1.277,1.276v2.647a1.28,1.28,0,0,0,1.277,1.276h26.009v16.521c-18.818,1.423-33.9,8.2-38.127,16.952h91C1051.933,1315.259,1036.855,1308.484,1018.037,1307.062Z" transform="translate(-396.974 -752.867)" fill="#0c387b"/><rect width="130.598" height="33.203" rx="3.106" transform="translate(548.391 426.682)" fill="#ec8436"/><g transform="translate(417.886)"><rect width="249.653" height="376.505" transform="translate(7.335 19.813)" fill="#c8dcf2"/><g transform="translate(31.662 44.037)"><rect width="201" height="328.057" fill="#eff7fd"/><g clip-path="url(#b)"><g transform="translate(-158.697 -105.394)"><rect width="42.558" height="42.558" transform="matrix(0.707, -0.707, 0.707, 0.707, 255.847, 168.652)" fill="#c8dcf2"/><rect width="42.558" height="118.552" transform="translate(163.571 76.376) rotate(-45)" fill="#c8dcf2"/><rect width="54.81" height="173.055" transform="translate(201.19 38.756) rotate(-45)" fill="#c8dcf2"/><rect width="34.3" height="120.503" transform="matrix(0.707, -0.707, 0.707, 0.707, 208.28, 337.189)" fill="#c8dcf2"/><rect width="27.003" height="371.77" transform="translate(100.698 172.167) rotate(-45)" fill="#a0c8eb"/><rect width="27.003" height="371.77" transform="translate(48.417 224.448) rotate(-45)" fill="#a0c8eb"/><rect width="27.003" height="199.596" transform="translate(137.429 102.518) rotate(-45.001)" fill="#a0c8eb"/><rect width="27.003" height="142.113" transform="matrix(0.995, -0.104, 0.104, 0.995, 336.483, 165.096)" fill="#a0c8eb"/><path d="M1208.694,1034.583l-29.583,30.233-216.964,22.612-2.8-26.858Z" transform="translate(-690.3 -756.136)" fill="#a0c8eb"/><rect width="27.003" height="349.111" transform="translate(368.925 128.978) rotate(45)" fill="#a0c8eb"/><rect width="27.003" height="217.632" transform="matrix(0.707, 0.707, -0.707, 0.707, 153.889, 99.882)" fill="#a0c8eb"/><rect width="27.003" height="93.791" transform="translate(342.732 382.485) rotate(45)" fill="#a0c8eb"/><path d="M953.278,1061.961l12.956,13.678,70.149-7.311-8.528-82.8Z" transform="translate(-692.882 -777.004)" fill="#78a564"/><rect width="50.792" height="47.898" transform="translate(145.134 398.906) rotate(-45)" fill="#78a564"/><rect width="50.792" height="124.889" transform="translate(183.55 437.321) rotate(-45)" fill="#c8dcf2"/><rect width="35.79" height="32.789" transform="translate(206.457 231.857) rotate(-45)" fill="#c8dcf2"/><rect width="35.79" height="32.79" transform="matrix(0.707, -0.707, 0.707, 0.707, 176.662, 202.062)" fill="#c8dcf2"/><rect width="35.79" height="42.979" transform="matrix(0.707, -0.707, 0.707, 0.707, 140.361, 165.761)" fill="#c8dcf2"/><rect width="47.532" height="42.979" transform="translate(85.215 338.986) rotate(-45)" fill="#c8dcf2"/><rect width="47.532" height="76.518" transform="translate(25.569 279.34) rotate(-45)" fill="#c8dcf2"/><rect width="35.79" height="126.474" transform="translate(88.079 218.042) rotate(-45)" fill="#c8dcf2"/><path d="M1064.962,1150.583,994.64,1080.26l154.9-14.255Z" transform="translate(-675.287 -742.769)" fill="#c8dcf2"/><path d="M1044.674,1078.9,1031.75,966.866l20.458-20.458,118.168,118.168Z" transform="translate(-659.499 -793.647)" fill="#c8dcf2"/></g></g></g><path d="M899.364,882.284a39.644,39.644,0,0,0-39.645,39.644c0,21.9,39.645,61.242,39.645,61.242s39.644-39.346,39.644-61.242A39.644,39.644,0,0,0,899.364,882.284Zm0,63.112a26.9,26.9,0,1,1,26.9-26.9A26.9,26.9,0,0,1,899.364,945.4Z" transform="translate(-859.719 -882.284)" fill="#ef903b"/><path d="M1027.987,1019.253a39.644,39.644,0,0,0-39.644,39.644c0,21.895,39.644,61.242,39.644,61.242s39.644-39.347,39.644-61.242A39.643,39.643,0,0,0,1027.987,1019.253Zm0,63.112a26.9,26.9,0,1,1,26.9-26.9A26.9,26.9,0,0,1,1027.987,1082.365Z" transform="translate(-805 -824.015)" fill="#db635c"/><g transform="translate(69.892 83.093)"><path d="M912.517,946.381a2.03,2.03,0,0,1-1.44-.6l-1.729-1.729a2.037,2.037,0,0,1,2.881-2.881l1.729,1.729a2.038,2.038,0,0,1-1.441,3.478Z" transform="translate(-908.752 -940.578)" fill="#fff"/><path d="M914.146,948.009a2.032,2.032,0,0,1-1.441-.6l-2.144-2.144a2.037,2.037,0,0,1,2.881-2.881l2.144,2.144a2.038,2.038,0,0,1-1.44,3.478Z" transform="translate(-908.236 -940.061)" fill="#fff"/><path d="M983.869,1017.733a2.032,2.032,0,0,1-1.441-.6l-5.359-5.361a2.037,2.037,0,0,1,2.881-2.881l5.361,5.361a2.038,2.038,0,0,1-1.441,3.478Zm-12.06-12.062a2.031,2.031,0,0,1-1.441-.6l-5.36-5.361a2.037,2.037,0,1,1,2.881-2.881l5.361,5.361a2.036,2.036,0,0,1-1.441,3.477Zm-12.06-12.06a2.029,2.029,0,0,1-1.441-.6l-5.36-5.361a2.037,2.037,0,0,1,2.881-2.881l5.361,5.359a2.037,2.037,0,0,1-1.441,3.478Zm-12.061-12.061a2.031,2.031,0,0,1-1.441-.6l-5.36-5.361a2.037,2.037,0,0,1,2.881-2.88l5.361,5.359a2.037,2.037,0,0,1-1.441,3.478Zm-12.06-12.061a2.03,2.03,0,0,1-1.441-.6l-5.36-5.361a2.037,2.037,0,0,1,2.881-2.881l5.359,5.359a2.037,2.037,0,0,1-1.439,3.478Zm-12.06-12.06a2.03,2.03,0,0,1-1.441-.6l-5.361-5.361a2.038,2.038,0,0,1,2.882-2.881l5.36,5.36a2.037,2.037,0,0,1-1.44,3.478Z" transform="translate(-905.596 -937.422)" fill="#fff"/><path d="M968.972,1006.294a2.038,2.038,0,0,1-1.44-3.478l.288-.288-.288-.288a2.038,2.038,0,1,1,2.881-2.882l1.729,1.729a2.037,2.037,0,0,1,0,2.881l-1.729,1.729A2.033,2.033,0,0,1,968.972,1006.294Z" transform="translate(-883.999 -915.825)" fill="#fff"/><path d="M967.4,1007.511a2.038,2.038,0,0,1-1.441-3.478l2.249-2.249a2.037,2.037,0,0,1,2.88,2.881l-2.249,2.249A2.032,2.032,0,0,1,967.4,1007.511Z" transform="translate(-884.67 -914.793)" fill="#fff"/><path d="M940.764,1042.7a2.038,2.038,0,0,1-1.441-3.478l5.623-5.625a2.038,2.038,0,0,1,2.882,2.882l-5.624,5.623A2.031,2.031,0,0,1,940.764,1042.7Zm12.654-12.653a2.038,2.038,0,0,1-1.441-3.478l5.623-5.625a2.038,2.038,0,0,1,2.882,2.882l-3.375,3.374h0l-2.249,2.25A2.031,2.031,0,0,1,953.418,1030.049ZM966.07,1017.4a2.038,2.038,0,0,1-1.44-3.478l5.623-5.623a2.037,2.037,0,0,1,2.881,2.88l-5.623,5.623A2.032,2.032,0,0,1,966.07,1017.4Z" transform="translate(-896 -912.024)" fill="#fff"/><path d="M936.348,1041.86a2.026,2.026,0,0,1-1.44-.6l-1.73-1.729a2.037,2.037,0,0,1,0-2.881l1.729-1.729a2.038,2.038,0,0,1,2.881,2.882l-.288.288.288.288a2.038,2.038,0,0,1-1.441,3.478Z" transform="translate(-898.614 -900.695)" fill="#fff"/><path d="M938.171,1043.167a2.028,2.028,0,0,1-1.44-.6l-2.339-2.339a2.037,2.037,0,0,1,2.881-2.881l2.339,2.339a2.038,2.038,0,0,1-1.441,3.478Z" transform="translate(-898.098 -899.663)" fill="#fff"/><path d="M1027.4,1132.4a2.03,2.03,0,0,1-1.44-.6l-5.849-5.847a2.038,2.038,0,0,1,2.881-2.883l5.848,5.849a2.037,2.037,0,0,1-1.441,3.478Zm-13.158-13.159a2.031,2.031,0,0,1-1.441-.6l-5.848-5.848a2.037,2.037,0,0,1,2.882-2.881l5.847,5.847a2.037,2.037,0,0,1-1.44,3.478Zm-13.16-13.158a2.032,2.032,0,0,1-1.44-.6l-5.849-5.847a2.038,2.038,0,0,1,2.881-2.883l5.849,5.849a2.038,2.038,0,0,1-1.442,3.478Zm-13.158-13.158a2.032,2.032,0,0,1-1.441-.6l-5.849-5.849a2.037,2.037,0,0,1,2.882-2.881l5.849,5.849a2.038,2.038,0,0,1-1.441,3.478Zm-13.159-13.159a2.025,2.025,0,0,1-1.44-.6l-5.849-5.847a2.038,2.038,0,0,1,2.881-2.882l5.848,5.848a2.038,2.038,0,0,1-1.441,3.478ZM961.609,1066.6a2.032,2.032,0,0,1-1.441-.6l-5.847-5.848a2.037,2.037,0,0,1,2.881-2.881l5.848,5.848a2.037,2.037,0,0,1-1.441,3.478Zm-13.158-13.159a2.032,2.032,0,0,1-1.441-.6L941.161,1047a2.038,2.038,0,0,1,2.881-2.882l5.848,5.849a2.037,2.037,0,0,1-1.44,3.478Z" transform="translate(-895.218 -896.783)" fill="#fff"/></g></g><g transform="translate(624.444 200.867)"><path d="M1105.741,1252.617l-5.859,24.677-8.776-.05-.322-24.626Z" transform="translate(-967.978 -925.605)" fill="#fb9f68"/><path d="M1056.4,1254.324l-16.67,23.624-6.5-8.343,10.034-18.53Z" transform="translate(-992.46 -926.26)" fill="#fb9f68"/><path d="M1082.734,1025.952a17,17,0,0,1,9.2-1.76,4.305,4.305,0,0,0-1.94-.921c1.575-.234,5.09,1.328,5.09,1.328,21.9-8.44,25.346,23.812,24.886,31.305s7.361,9.939,18.757,15.843c21.745,11.264,23.655,26.348,23.655,26.348-.17.1-.346.214-.535.343-1.079-1.827-3.3-5.26-5.173-5.777a77.38,77.38,0,0,1,3.013,7.336c-6.416,4.881-18.415,15.693-26.779,23.359a12.284,12.284,0,0,0-.57-4.748l-1.032,6.222c-4.476,4.113-7.562,7.009-7.562,7.009.553-6.055-27.387-38.009-41.962-47.579-3.549-5.224-4.811-14.452-4.905-15.179.613,7.318,1.865,11.422,2.983,13.732C1067.518,1071.454,1074.7,1030.514,1082.734,1025.952Z" transform="translate(-975.449 -1023.202)" fill="#06294e"/><path d="M1079.832,1072.812c-.073.033,7.037,3.725,12.385,2.262,5.031-1.373,8.319-7.9,8.249-7.91-2.129-.423-2.744-3.351-2.7-15.933l-.964.189-16.2,3.207s.368,5.1.379,9.9C1081,1068.557,1080.754,1072.381,1079.832,1072.812Z" transform="translate(-972.637 -1011.278)" fill="#fb9f68"/><path d="M1098.059,1030s-7.991-8.506-18.02-.435C1080.039,1029.569,1085.876,1028.558,1098.059,1030Z" transform="translate(-972.549 -1021.973)" fill="#a0c88c"/><path d="M1080.377,1054.571s.368,5.1.379,9.9c9.063-.255,13.854-8.523,15.817-13.1Z" transform="translate(-972.406 -1011.222)" fill="#cd7748"/><path d="M1101.289,1060.058s4.75-7.5,5.89-13.921c.814-4.581-1.519-21.562-18.583-19.116a23.2,23.2,0,0,0-9.616,3.635c-3.7,2.5-9.051,7.9-3.073,22.723l1.553,5Z" transform="translate(-975.45 -1021.679)" fill="#06294e"/><path d="M1035.091,1314.972l8.585.262,9.292.285s21.464-23.9,33.5-62.207q.422-1.334.889-2.7c6.59-19.213,20.25-43.33,27.448-65.159,1.145-3.477,2.174-6.749,3.1-9.847.295-.992.583-1.967.856-2.925a231.429,231.429,0,0,0,8.257-43.465l-51.979.416S1066.652,1217.925,1035.091,1314.972Z" transform="translate(-991.671 -978.103)" fill="#003878"/><path d="M1070.473,1128.663c.13,24.735-3.629,35.347-3.629,35.347a69.842,69.842,0,0,0,48.707,2.983c.312-.1,21.9-5.025,21.9-5.025-.442-1-4.379-17.671-4.811-18.59-5.584-11.992-9.824-17.25-10.487-20.938a78.379,78.379,0,0,1-.643-20.723,166.239,166.239,0,0,1,6.414-32.544c-7.208-1.639-14.145-4.444-21.645-7.257-1.726,2.148-6.813,4.319-11.389,4.216-5.27-.116-6.914-2.343-6.721-4.854-5.617,3.124-10.079,6.1-10.079,6.1-4.772,8.29-14.449,16.339-15.151,29.054C1062.767,1099.558,1070.468,1127.971,1070.473,1128.663Z" transform="translate(-979.824 -1007.003)" fill="#e1edf9"/><path d="M1101.916,1123.317c2.272,3.216,6.628,22.761,17.466,25.219-5.583-13.931-9.824-20.039-10.487-24.322a105.608,105.608,0,0,1-.643-24.071c-3.629-6.359-6.336-10.719-6.336-10.719-.285-1.028-5.766-17.975-7.522-2.826S1099.377,1119.719,1101.916,1123.317Z" transform="translate(-966.565 -998.898)" fill="#4d8a98"/><path d="M1080.386,1067.6s21.441.354,21.457-13,2.792-22.305-10.9-23.1-16.355,4.3-17.446,8.76S1074.808,1067.166,1080.386,1067.6Z" transform="translate(-975.44 -1019.706)" fill="#fb9f68"/><path d="M1074.576,1033.72c3.308-4.011,5.81-3.138,7.216-1.934,4.634-6.924,19.279,3.089,19.279,3.089a25.514,25.514,0,0,0,8.346,15.074s-3.908,2.413-12.918.1c-7.092-1.823-12.237-11.915-14.107-16.133-1.275,1.133-3.965,3.753-4.772,6.318-1.068,3.4-1.55,10.4-3.589,10.165C1074.029,1050.394,1069.6,1039.744,1074.576,1033.72Z" transform="translate(-975.878 -1020.589)" fill="#06294e"/><path d="M1100.761,1268.961a23.764,23.764,0,0,0,1.118,10.116s1.437,6.545-5.009,6.667-8.027-.486-7.3-4.5,2.118-10.952,2.118-10.952Z" transform="translate(-968.563 -918.652)" fill="#fb9f68"/><path d="M1089.1,1285.987l.021.014h13.336l.022-.014c.728-3.424-.464-9.871-.464-9.871-7.3,6.977-11.866-.176-11.866-.176C1088.962,1278.925,1089.1,1285.987,1089.1,1285.987Z" transform="translate(-968.697 -915.683)" fill="#78a564"/><path d="M1022.341,1284.283s11.884-13.494,15.533-20.207l8.836,4.527-19.752,18.55-4.623-.609Z" transform="translate(-997.097 -920.73)" fill="#fb9f68"/><path d="M1017.226,1289.673h16.488c1.451-1.309,2.835-3.944,4.533-7.4.971-1.981,3.147-3.072,5.381-3.67v11.071h3.411l3.159-11.773c2.1-3.944.524-7.561-.955-10.677-1.722,0-6.716,1.24-15.494,11.326-2.885,3.313-6.068,4.494-9.234,4.4a.8.8,0,0,1-.129.07C1019.386,1285.308,1017.755,1288.126,1017.226,1289.673Z" transform="translate(-999.271 -919.392)" fill="#78a564"/><path d="M1018.454,1077.066s14.076,7.87,19.1,10.139c1.787.805,5.027,2.313,8.337,3.859,2,.933,4.021,1.883,5.77,2.707a7.254,7.254,0,0,0,8.6-1.854c7.622-8.9,27.345-28.186,47.714-30.605l.071-.03-.01.023.026,0-.113.219c-1.144,2.848-12.311,30.748-12.658,36.632-.365,6.2-1.459,101.427-1.459,101.427s.73,4.378-7.662,2.553-10.58-3.647-10.58-3.647,8.026-58.74,5.837-79.172a45.416,45.416,0,0,1,.855-13.167c-12.406,7.513-27.033,10.856-27.033,10.856a123.128,123.128,0,0,1-13.932-7.632,87.614,87.614,0,0,1-11.749-9.453c-4.907-4.5-13.353-15.369-13.353-15.369Z" transform="translate(-999.7 -1007.003)" fill="#a0c88c"/><path d="M1041.114,1304l9.292.285s21.464-23.9,33.5-62.207q.422-1.334.89-2.7c6.59-19.213,20.25-43.33,27.448-65.159,1.145-3.476,2.174-6.749,3.1-9.847.295-.992.583-1.967.856-2.925l-7.654-5.81s-22.981,37.215-30.095,72.236C1072.272,1258.289,1047.521,1294.894,1041.114,1304Z" transform="translate(-989.108 -966.864)" fill="#06294e"/><path d="M1089.387,1234.078c-.131,17.031.73,56.186,2.948,72.4h8.232c4.548,0,6.818-.065,6.818-.065,5.565-28.185,9.523-51.5,12.406-71.6,2.363-16.49,4.466-30.628,6.082-42.8,1.627-12.248,2.757-22.5,3.163-31.168.062-1.364.109-2.693.135-3.981s.033-2.553.023-3.775l-44.913-4.378C1084.844,1178.543,1089.459,1224.178,1089.387,1234.078Z" transform="translate(-970.746 -969.811)" fill="#003878"/><path d="M1095.705,1302.852c4.548,0,6.818-.066,6.818-.066,5.565-28.185,9.523-51.5,12.405-71.6,2.364-16.49,4.466-30.628,6.083-42.8,1.626-12.247,2.757-22.5,3.163-31.168l-16.481,9.694s10.518,3.71,6.505,31.8S1101.29,1298.875,1095.705,1302.852Z" transform="translate(-965.885 -966.19)" fill="#06294e"/><path d="M1098.8,1197.563s3.165,11.431,14.109,9.971,26.51-8.027,26.51-8.027-4.677-14.78-10.493-34.2c-7.042-23.506-15.758-53.811-19.866-72.924a118.294,118.294,0,0,1-2.234-13.033l-9.268-17.625s-13.352,30.4-14.082,38.057S1098.8,1197.563,1098.8,1197.563Z" transform="translate(-971.098 -1006.812)" fill="#a0c88c"/><path d="M1069.037,1094.568c5.267.693,7.288,3.492,7.938,7.269a16.047,16.047,0,0,0,2.293,5.475c5.247.281,17.743.962,28.243,1.627l.867,13.771a157.21,157.21,0,0,1-31.422-7.437,8.207,8.207,0,0,1-3.577-1.944c-7.557-6.191-11.849-16.556-11.862-18.042S1063.769,1093.877,1069.037,1094.568Z" transform="translate(-980.428 -993.044)" fill="#fb9f68"/><path d="M1094.56,1106.688c.489,12.4,3.408,36.484,29.432,49.374.069.033.138.07.208.1-7.041-23.506-15.758-53.811-19.866-72.924C1099.554,1090.379,1094.293,1099.858,1094.56,1106.688Z" transform="translate(-966.376 -997.663)" fill="#78a564"/><path d="M1093.715,1061.728s22.261,1.578,27.612,13.5,7.054,51.564.244,63.24c0,0-9.376,2.67-25.959-.43l-.613-.117s-5.291-12.953-.547-15.506c0,0,13.985.73,12.525-3.891S1093.715,1061.728,1093.715,1061.728Z" transform="translate(-967.259 -1006.812)" fill="#a0c88c"/><g transform="translate(0 60.56)"><path d="M1008.292,1065.836c11.976-1.538,15,9.355,15,9.355l-2.236,7.482c-3.691.51-6.922-.452-9.9-4.711s-3.8-2.624-5.689-5.794C1002.9,1067.869,1006.918,1066.267,1008.292,1065.836Z" transform="translate(-1004.63 -1065.688)" fill="#fb9f68"/><path d="M1037.557,1082.494c1.787.805,5.027,2.313,8.337,3.859-1.77,3.146-3.987,8.86-4.575,18.3a76.5,76.5,0,0,1-12.1-9.746,160.354,160.354,0,0,1-13-15.076l2.237-7.481S1032.53,1080.225,1037.557,1082.494Z" transform="translate(-999.7 -1062.851)" fill="#fb9f68"/></g></g><g transform="translate(135.36 191.584)"><path d="M693.253,1052.168s-29.2,30.148-30.605,41.515,13.894,29.151,13.894,29.151Z" transform="translate(-661.069 -1001.597)" fill="#3061ac"/><path d="M692.851,1273.111s.994,16.027,4.094,16.257c.413.03,15.727.03,15.727.03h19.55s-.128-4.823-5.843-5.82-15.279-5.011-18.74-12.564C704,1263.068,692.851,1273.111,692.851,1273.111Z" transform="translate(-648.181 -909.798)" fill="#06294e"/><path d="M662.3,1273.111s.993,16.027,4.094,16.257c.413.03,15.727.03,15.727.03l19.608-.07s-.187-4.754-5.9-5.75-15.279-5.011-18.74-12.564C673.449,1263.068,662.3,1273.111,662.3,1273.111Z" transform="translate(-661.176 -909.798)" fill="#06294e"/><path d="M727.833,1158.313s-5.113,32.7-24.186,90.749-21.672,83.186-21.672,83.186a84.129,84.129,0,0,1-10.609.747,67.212,67.212,0,0,1-9.852-1.322s-.174-63.439,8.615-92.63,1.9-105.234,1.9-105.234Z" transform="translate(-661.513 -966.866)" fill="#4d8a98"/><path d="M732.715,1135.066a793.708,793.708,0,0,1-7.8,109.781c-8.527,60.5-5.636,86.186-5.636,86.186s-7.019,1.257-9.485,1.34c-2.64.087-10.936-.66-10.936-.66s-12.2-60.528-8.7-90.811-16.712-103.917-16.712-103.917Z" transform="translate(-656.438 -966.331)" fill="#6db1c1"/><path d="M687.293,1061.437l9.63,7.134,13.919-2.93c-.193-1.27-1.111-6.53-1.947-11.3-.052-.281-.1-.563-.148-.837-.717-4.055-1.337-7.537-1.337-7.537l-13-6.48-4.848-2.416c.013.085.376,4.5.428,5.144C690.9,1053.663,687.293,1061.437,687.293,1061.437Z" transform="translate(-650.545 -1008.018)" fill="#fb9f68"/><path d="M710.348,1053.137c-.305-.128-18.935-5.626-20.958-4.957s-3.223,4.584-3.223,4.584l30.472,6.889S714.241,1054.776,710.348,1053.137Z" transform="translate(-651.025 -1003.318)" fill="#3061ac"/><path d="M668.171,1176.8c3.157,14.405,55.711,16.113,69.258,3.037,1.541-1.491,1.616-8.425,1.035-17.775-1.136-18.268-4.787-45.746-4.929-59.786a111.022,111.022,0,0,0-2.242-20.01,162.535,162.535,0,0,0-6.665-23.951s-25.669-8.3-30.472-6.888C671.015,1058.227,665.012,1162.395,668.171,1176.8Z" transform="translate(-659.012 -1001.981)" fill="#5e85c4"/><path d="M724.892,1153.623c-1.136-18.268-4.787-45.746-4.929-59.786a111.027,111.027,0,0,0-2.242-20.01l-15.44-2.725S687.182,1132.767,724.892,1153.623Z" transform="translate(-645.44 -993.542)" fill="#3061ac"/><path d="M713.771,1111.848a3.633,3.633,0,0,0,1.159,4.2c2.21,1.689,3.643,4.426,3.137,6.426s-5.355,5.262-7.036,4.737-5.1-3.16-4.734-4.216-2.3-9.257,1.8-12.414S713.771,1111.848,713.771,1111.848Z" transform="translate(-642.681 -977.229)" fill="#fb9f68"/><path d="M699.806,1053.618s15.06,2.818,27.059,20.5,19.893,30.83,17.684,37.2-22.359,28.476-25.833,28.476-9.078-2.526-9.395-8.21c0,0,14.186-21.26,11.392-24.444-1.195-1.362-18.418-15.342-20.877-9.027C695.768,1108.568,699.806,1053.618,699.806,1053.618Z" transform="translate(-645.982 -1000.98)" fill="#5e85c4"/><path d="M689.98,1041.7c2.855,5.462,13.493,10.186,17.93,11.924-.051-.281-.1-.563-.148-.837-.717-4.055-1.337-7.537-1.337-7.537l-13-6.48C690.552,1038.726,688.8,1039.452,689.98,1041.7Z" transform="translate(-649.561 -1007.297)" fill="#f99157"/><path d="M712.355,1052.976s-19.245,6-22.8-6.038-8.431-19.377,3.7-23.72,15.892-.455,18.056,3.277S717.27,1051.1,712.355,1052.976Z" transform="translate(-651.301 -1014.728)" fill="#fb9f68"/><path d="M713.035,1027.3s-1.227,14.013-4.125,13.4-5.526-1.059-5.1,3.165,4.443,9.1-4.487,9.85-21.77-22.286-19.317-26.647C687.083,1014.486,723.269,1011.946,713.035,1027.3Z" transform="translate(-653.776 -1016.69)" fill="#06294e"/></g><path d="M1422.251,1285.276H607.832a1.172,1.172,0,0,1-1.169-1.168h0a1.172,1.172,0,0,1,1.169-1.169h814.419a1.171,1.171,0,0,1,1.167,1.169h0A1.172,1.172,0,0,1,1422.251,1285.276Z" transform="translate(-549.487 -711.839)" fill="#13243e"/></svg>