<svg width="27" height="22" viewBox="0 0 27 22" fill="none" xmlns="http://www.w3.org/2000/svg">
<path fill-rule="evenodd" clip-rule="evenodd" d="M8.63094 21.9556C18.5721 21.9556 23.9807 13.7688 23.9807 6.60588V5.87664C25.0022 5.09997 25.8912 4.16294 26.613 3.10195C25.6328 3.52829 24.6006 3.82325 23.5431 3.97918C24.6306 3.29649 25.4551 2.2659 25.8824 1.05509C24.826 1.64316 23.695 2.08567 22.52 2.37057C22.0257 1.81255 21.4176 1.36686 20.7366 1.0635C20.0557 0.760139 19.3176 0.606134 18.5721 0.611848C17.145 0.633865 15.7824 1.21061 14.7731 2.2199C13.7638 3.22919 13.1871 4.59175 13.1651 6.01893C13.1316 6.41471 13.1813 6.81311 13.3109 7.18857C11.1595 7.0852 9.05507 6.52319 7.13858 5.54022C5.22209 4.55725 3.53782 3.17602 2.19865 1.48908C1.71819 2.3348 1.46636 3.2911 1.46798 4.26376C1.4874 5.14736 1.70821 6.01488 2.11359 6.80024C2.51897 7.58561 3.09823 8.2681 3.80725 8.79575C2.92854 8.77815 2.07053 8.52588 1.32213 8.06509C1.32019 9.31746 1.75825 10.5307 2.5598 11.493C3.36135 12.4553 4.47546 13.1054 5.70756 13.3299C5.23147 13.4581 4.73756 13.5074 4.24551 13.4757C3.89804 13.4992 3.54951 13.4495 3.22243 13.3299C3.57977 14.4132 4.26292 15.3597 5.17852 16.0401C6.09411 16.7205 7.19748 17.1016 8.33782 17.1312C6.41619 18.6324 4.05154 19.455 1.61311 19.4705C1.16975 19.4938 0.725554 19.4441 0.29834 19.3232C2.71747 21.08 5.64161 22.0038 8.63094 21.9556Z" fill="#A02167"/>
</svg>
