<svg width="72" height="67" viewBox="0 0 72 67" fill="none" xmlns="http://www.w3.org/2000/svg">
<path d="M46.4366 14.8532C44.5611 17.2249 43.5612 20.1051 43.5884 23.0574C43.6156 26.0097 44.6684 28.8732 46.5874 31.2142C42.9751 35.4459 38.9008 39.3121 34.4311 42.7497C28.6087 38.829 22.4249 39.2377 16.9787 42.7497C15.4898 43.8112 14.2395 45.1382 13.2998 46.6545C12.3602 48.1707 11.7497 49.8463 11.5036 51.5846C11.2575 53.3229 11.3805 55.0897 11.8657 56.7833C12.3509 58.4769 13.1886 60.0637 14.3307 61.4525C16.9787 64.8092 22.831 68.4058 30.8506 65.8394C42.8568 61.4672 66.3877 39.111 71.0671 28.011C72.1606 25.2781 72.2965 22.2896 71.4551 19.4794C70.6136 16.6692 68.8386 14.1836 66.3877 12.3834C59.4052 7.53317 50.9347 9.29617 46.4366 14.8532ZM62.6535 16.6162C65.4517 18.6612 66.5655 22.0465 65.1508 26.1086C60.7879 36.0385 39.5885 56.0669 29.1471 60.2977C27.4628 61.0298 25.5655 61.2123 23.7577 60.816C21.95 60.4198 20.3357 59.4676 19.1723 58.1113C17.9092 56.5315 17.3474 54.5547 17.6046 52.5952C17.8618 50.6357 18.9181 48.8456 20.5521 47.6001C22.1861 46.3546 24.271 45.7504 26.3697 45.9141C28.4684 46.0777 30.4181 46.9966 31.8101 48.4781C32.9083 49.649 34.6388 49.5783 36.0229 48.9155C39.7841 47.1099 48.3279 38.5349 53.1745 32.5545C53.6349 31.9598 53.8422 31.2255 53.7559 30.4952C53.6696 29.7649 53.2959 29.0909 52.7079 28.6051C51.1118 27.3288 50.0943 25.5304 49.8623 23.5758C49.6302 21.6212 50.2012 19.6572 51.4589 18.0831C54.4704 14.6845 58.5452 13.8944 62.655 16.6162H62.6535Z" fill="#A02167"/>
<path d="M26.6629 34.8249C26.887 35.1337 27.1741 35.3978 27.5077 35.602C27.8412 35.8063 28.2146 35.9465 28.6063 36.0147C28.998 36.0829 29.4002 36.0777 29.7897 35.9994C30.1793 35.921 30.5484 35.7711 30.8758 35.5583C31.5384 35.099 31.9886 34.4195 32.134 33.6591C32.2795 32.8986 32.1092 32.1148 31.6582 31.4683L30.8907 30.4681L31.6582 29.9346C32.2739 29.4397 32.6761 28.7515 32.7896 27.9986C32.9031 27.2458 32.7201 26.48 32.2748 25.8445C31.7469 25.2673 31.0128 24.8903 30.2097 24.7839C29.4067 24.6774 28.5898 24.849 27.9119 25.2664L27.2803 25.7038L21.8789 18.5692C23.7261 16.4904 24.7037 13.8527 24.6293 11.148C24.5549 8.44332 23.4337 5.85634 21.4747 3.86953C19.5157 1.88271 16.8527 0.631718 13.9824 0.349847C11.112 0.0679753 8.2303 0.774474 5.87464 2.33758C3.51898 3.90069 1.85022 6.21369 1.17958 8.8452C0.508932 11.4767 0.882192 14.2471 2.22975 16.6396C3.5773 19.0321 5.80714 20.8835 8.50341 21.8484C11.1997 22.8133 14.1783 22.8259 16.8837 21.8838L26.6629 34.8249ZM8.71408 15.2212C7.91322 14.4747 7.36661 13.5222 7.14341 12.4843C6.92022 11.4464 7.03048 10.3698 7.46024 9.39065C7.89 8.41153 8.61994 7.57394 9.55768 6.98387C10.4954 6.39381 11.5988 6.0778 12.7282 6.07584C13.8576 6.07387 14.9622 6.38605 15.9023 6.97286C16.8424 7.55966 17.5756 8.39471 18.0092 9.37234C18.4428 10.35 18.5574 11.4262 18.3383 12.4649C18.1192 13.5035 17.5763 14.4579 16.7784 15.2072C16.2506 15.7058 15.623 16.1018 14.9315 16.3724C14.24 16.643 13.4984 16.7829 12.7491 16.7841C11.9998 16.7852 11.2576 16.6477 10.5652 16.3792C9.87272 16.1108 9.24366 15.7168 8.71408 15.2199V15.2212Z" fill="#A02167"/>
</svg>
