<svg xmlns="http://www.w3.org/2000/svg" width="811.243" height="700" viewBox="0 0 811.243 700"><g transform="translate(-252.764 -163.959)"><path d="M983.844,758.592c-43.123,39.5-105.825,69.452-176.506,87.08-11.267,2.848-22.758,5.3-34.418,7.479A619.107,619.107,0,0,1,678.029,863.3a4.965,4.965,0,0,1-.891,0c-6.859.223-13.723.276-20.641.276-69.562-.392-139.294-12.721-200.325-39.161a376.057,376.057,0,0,1-36.481-18.074,342.668,342.668,0,0,1-38.438-25.219c-2.509-1.894-13.666-11.878-28.5-28.562-44.517-50.317-121.893-161.832-94.112-298.842,36.985-182.536,252.985-324.341,385.589-282.337,24.6,7.813,46.746,19.3,67.164,32.97,55.616,37.267,98.457,90.486,144.147,127.752,27.835,22.7,56.788,39.437,90.261,43.065a82.209,82.209,0,0,1,26.832,7.755c16.121,7.586,30.906,20.249,43.733,36.594C1077.394,497.347,1092.789,658.791,983.844,758.592Z" transform="translate(0 0)" fill="#d4e5ff"/><g transform="translate(349.145 333.61)"><path d="M325.3,210.14s-10.445-7.489-20.692.988-3.746,66.066,6.9,74.517c0,0,19.9,2.015,18.87-26.763S325.3,210.14,325.3,210.14Z" transform="translate(-195.225 -166.212)" fill="#081d39"/><path d="M550.1,550.9H530.259c-.051-.108-.051-.215-.107-.378-67.055-.378-134.272-12.262-193.1-37.748a362.524,362.524,0,0,1-35.166-17.422c-9.358-70.552-22.638-189.769-10.058-219.024a13.134,13.134,0,0,1,2.9-4.623.814.814,0,0,1,.107-.163c5.7-5.538,44.15-12.421,70.393-16.614h.051c14.144-2.2,24.683-3.656,24.683-3.656l43.342.159s8.064,1.023,19.519,3.068c24.3,4.3,64.047,13.173,74.479,26.35,1.882,2.363,3.979,14.9,6.075,33.392a8.571,8.571,0,0,1,.107,1.237c.537,4.464,1.022,9.25,1.56,14.359,4.249,43.824,8.494,108.352,11.506,157.881v.052c.107,2.367.271,4.73.378,6.99.644,10.754,1.237,20.7,1.723,29.362v.159c.644,10.917,1.074,19.789,1.4,25.976A2.72,2.72,0,0,1,550.1,550.9Z" transform="translate(-237.354 -20.553)" fill="#4c54bd"/><path d="M353.352,238.18l-39.2,1.591-3.431,54.662,43.332.186Z" transform="translate(-158.102 -63.713)" fill="#f77457"/><path d="M330.779,247.2l-25.813,21.19,24.717,21.19,21.663-24.687,18.376,24.687,22.857-21.615L373.013,247.2S354.079,267.065,330.779,247.2Z" transform="translate(-177.065 -33.986)" fill="#ffce2b"/><path d="M308.425,225.009s-25.882,109.005,46.38,118.436,58.715-130.809,36.911-131.991S311.75,204.33,308.425,225.009Z" transform="translate(-180.524 -157.394)" fill="#f77457"/><path d="M331.134,252.964S412.6,277.23,432.019,240.526c20.954-39.613-27.82-60.756-51.407-23.721,0,0-75.4-23.123-77.877,26.445C301.36,270.884,331.134,252.964,331.134,252.964Z" transform="translate(-184.574 -197.573)" fill="#081d39"/><path d="M320.323,227.6s-10.35-8.881-17.452-2.131,1.156,29.486,17.452,27.355S320.323,227.6,320.323,227.6Z" transform="translate(-192.422 -113.975)" fill="#f77457"/><path d="M304,264.356s3.613,2.758,5.736,12.086a6.451,6.451,0,0,0,6.943-1.392c3.046-3.106,11.179-43.227,9.551-56.782s-21.59-10.114-23.4,6.329S304,264.356,304,264.356Z" transform="translate(-186.032 -156.978)" fill="#081d39"/><path d="M331.963,227.6s10.35-8.881,17.452-2.131-1.156,29.486-17.452,27.355S331.963,227.6,331.963,227.6Z" transform="translate(-111.942 -113.975)" fill="#f77457"/><path d="M339.711,267.516s-6.621.773-8.748,10.1c0,0,.043,1.74-3-1.362s-.438-45.658,1.19-59.209S340,209.36,341.812,225.8,339.711,267.516,339.711,267.516Z" transform="translate(-105.899 -158.183)" fill="#081d39"/><path d="M338.662,215.424c-.2.932-3.27,29.654-24.223,27.261s-4.417-36.236-4.417-36.236Z" transform="translate(-180.833 -168.312)" fill="#081d39"/><path d="M324.376,215.914s-1.319,18.574,12.606,23.467,4.786-30.174,4.786-30.174Z" transform="translate(-113.193 -159.221)" fill="#081d39"/><path d="M374.892,497.223A362.493,362.493,0,0,1,339.725,479.8a330.31,330.31,0,0,1-37.052-24.309c-2.419-1.826-13.173-11.45-27.476-27.532,13.658-62.217,41.3-146.427,54.47-167.183,1.56-2.526,2.582-4.138,2.9-4.623a.813.813,0,0,1,.107-.163Z" transform="translate(-275.197 -5)" fill="#4c54bd"/></g><g transform="translate(667.733 170.353)"><path d="M494.414,167.725s-163.4,3.128-147.011,87.291S495.2,341.589,558.387,296.562C601.584,265.787,605.008,167.3,494.414,167.725Z" transform="translate(-330.33 -157.944)" fill="#ffce2b"/><path d="M377.218,188.392l-34.675,51.831L417.4,222.66Z" transform="translate(-342.542 -89.812)" fill="#ffce2b"/><text transform="translate(82.937 122.084) rotate(-6.55)" font-size="85" font-family="SegoeUI, Segoe UI"><tspan x="0" y="0">HELLO!</tspan></text></g><g transform="translate(548.212 346.09)"><g transform="translate(86.697)"><path d="M524.111,342.628l-.052.051c-.808,3.39-1.667,6.883-2.582,10.432-.7,2.849-1.452,5.809-2.2,8.765-1.83,7.205-3.82,14.737-5.86,22.372C503.14,423.019,491.2,464.96,483.407,491.581a596.794,596.794,0,0,1-91.471,9.787v.644H371.287c-.051-.107-.051-.215-.107-.378-1.4-5.916-3.386-14.144-5.645-23.824-2.312-10-4.95-21.56-7.691-34.092-4.838-22.208-10-47.373-14.2-71.463-1.345-7.8-2.582-15.433-3.712-22.853-5.7-38.126-7.635-69.748-.052-76.416,3.6-3.171,10.054-4.894,15.862-5.8h.052a90.643,90.643,0,0,1,11.94-1.078l6.775.486L506.1,275.676s19.411,4.464,26.668,14.952C534.921,293.691,530.835,314.611,524.111,342.628Z" transform="translate(-334.902 15.856)" fill="#ffce2b"/><path d="M528.406,242.877s10.591,46.032,5.766,58.191c-3.231,8.129-13.053,118.646-48.945,152.21-26.135,24.443-62.419,44.7-97.572,53.667l-8.73,52.077s106.466-43.33,135.308-71.815,49.555-184.261,49.555-184.261,51.888-72.094,49.8-81.688c-1.109-5.087-6.664-11.978-11.639-17.328a10.812,10.812,0,0,0-15.94.107l-37.491,41.469s-8.8-31.648-18.311-30.9S528.406,242.877,528.406,242.877Z" transform="translate(-189.788 -200.477)" fill="#f77457"/><path d="M432.505,254.256l-33.25,4.773-4.6,40.193-52.116,5.921s-.086,21.418,43.527,30.268c69,14,94.865-20.7,94.865-20.7l-50.251-13.5Z" transform="translate(-309.719 -23.2)" fill="#f77457"/><path d="M398.953,230.171s-43.072,14.118-49.559,72.962c-6.892,62.492,49.293,59.033,75.428,35.884C468.482,300.354,462.265,213.231,398.953,230.171Z" transform="translate(-289.048 -109.71)" fill="#f77457"/><path d="M376.715,250.674s9.3-7.686,17.9-.2-6.99,25.985-22.5,18.058S376.715,250.674,376.715,250.674Z" transform="translate(-231.618 -46.466)" fill="#f77457"/><path d="M400.183,243.934s-7.429-30.891-36.554-20.516C337.395,232.768,344.8,279,387.8,292.639c32.124,10.191,50.921-.537,50.921-.537s-8.855,14.917-7.179,26.372a57.311,57.311,0,0,1-.623,20.447s7.454,1.753,15.7-6.2c0,0,33.212-23.557,24.387-57.125S422.688,236.08,400.183,243.934Z" transform="translate(-290.411 -131.877)" fill="#081d39"/><path d="M373.07,273.047c1.521-4.778,13.779-56.322,68.657-58.105s91.609,89.778,4.726,115.591c-15.991,4.752-58,1.289-69.482-8.069S373.07,273.047,373.07,273.047Z" transform="translate(-217.176 -152.882)" fill="#081d39"/></g><path d="M406.4,267.934c-18.406-6.9-76.743,108.107-90.87,168.889S477.1,467.1,477.1,467.1l-6.758-25.4s-94.607-4.159-96.872-13.04,32.988-84.318,32.988-84.318S412.069,270.056,406.4,267.934Z" transform="translate(-314.724 20.909)" fill="#f77457"/><path d="M374.753,273.646l80.347-6.932,8.648,47.373-81.579,49.27Z" transform="translate(-116.842 17.868)" fill="#ffce2b"/><path d="M399.724,266.679s-13.332-6.664-50.99,32.52l-27.162,41.757,51.768,43.351,35.2-30.934Z" transform="translate(-292.149 16.338)" fill="#ffce2b"/><path d="M511.652,289.128,472.825,419.636c-10.861,2.745-21.938,5.108-33.177,7.209a596.809,596.809,0,0,1-91.471,9.787l1.023-26.3v-.322l1.074-28.5,3.875-95.772,114.591,2.47,8.979.163,11.884.271Z" transform="translate(-204.447 80.592)" fill="#4c54bd"/><path d="M345.343,320.732l14.823-16.206L359.6,319.6l50.578-12.541s8.288,8.275,7.205,13.676-18.973,24.945-68.911,28.627Z" transform="translate(-213.789 142.512)" fill="#f77457"/></g></g></svg>