<svg width="15" height="16" viewBox="0 0 15 16" fill="none" xmlns="http://www.w3.org/2000/svg">
<path d="M7.5 13.625C6.71058 12.9516 5.97887 12.2134 5.3125 11.4181C4.3125 10.2238 3.125 8.445 3.125 6.75C3.12411 4.97972 4.19015 3.38337 5.82567 2.70587C7.46118 2.02838 9.34379 2.40328 10.595 3.65563C11.4178 4.47476 11.8787 5.58899 11.875 6.75C11.875 8.445 10.6875 10.2238 9.6875 11.4181C9.02113 12.2134 8.28942 12.9516 7.5 13.625ZM7.5 4.875C6.83013 4.875 6.21114 5.23237 5.8762 5.8125C5.54127 6.39263 5.54127 7.10737 5.8762 7.6875C6.21114 8.26763 6.83013 8.625 7.5 8.625C8.53553 8.625 9.375 7.78553 9.375 6.75C9.375 5.71447 8.53553 4.875 7.5 4.875Z" fill="#20AA46"/>
</svg>
