<svg xmlns="http://www.w3.org/2000/svg" width="943.861" height="456.302" viewBox="0 0 943.861 456.302"><g transform="translate(-541.698 -707.909)"><g transform="translate(541.698 707.909)"><g transform="translate(0)"><path d="M1523.945,1074.463c-.04,1.974-.08,3.946-.2,5.879-.081,1.932-.161,3.825-.323,5.759a234.75,234.75,0,0,1-2.9,24.04c-.4,2.295-.8,4.55-1.248,6.763-.08.524-.2,1.048-.281,1.53l-.081.282c-.281,1.368-.563,2.7-.846,4.066-.524,2.375-1.087,4.752-1.65,7.047-.121.444-.242.844-.322,1.29-1.531,6.04-3.181,11.715-4.912,17.032q-.424,1.326-.847,2.657c-.764,2.335-1.529,4.55-2.294,6.723-.564,1.572-1.127,3.062-1.65,4.51-2.94,7.813-5.8,14.3-8.094,19.209-2.134,4.55-3.947,8.375-4.873,10.309-.4.844-.645,1.328-.645,1.328s-446.441.081-692.877.12H641.087a.039.039,0,0,0-.04-.039c-.563-.443-1.087-.846-1.61-1.288H639.4c-.241-.2-.482-.364-.685-.565l-11.717-12.684a56.181,56.181,0,0,1-6.281-11.637,63.955,63.955,0,0,1-4.591-24.363c0-.4,0-.846.04-1.288,0-.765.041-1.57.041-2.336l.12-2.052c.2-2.5.484-4.993.886-7.488,0-.084.041-.163.041-.242a12.435,12.435,0,0,0,.2-1.291c.08-.522.2-1.045.322-1.57.362-1.853.8-3.7,1.288-5.6.08-.445.2-.887.322-1.329.161-.523.282-1.047.484-1.572.442-1.649,1.005-3.3,1.57-4.992,1.087-3.222,2.375-6.442,3.825-9.7a6.063,6.063,0,0,1,.322-.766c1.328-2.939,2.778-5.839,4.349-8.779a151.93,151.93,0,0,1,8.013-13.167c.645-.926,1.289-1.851,1.933-2.737a166.4,166.4,0,0,1,10.751-13.651,204.058,204.058,0,0,1,15.422-15.946c1.249-1.168,2.5-2.3,3.745-3.423.282-.242.563-.483.846-.764.725-.6,1.449-1.249,2.175-1.853,3.059-2.659,6.039-5.155,8.978-7.569,1.491-1.21,2.94-2.377,4.39-3.546,2.858-2.295,5.637-4.55,8.3-6.725,8.174-6.723,15.422-13.045,21.14-20.172a64.2,64.2,0,0,0,5.314-7.572,57.345,57.345,0,0,0,6.524-15.866c.322-1.488.645-3.02.886-4.589a72.751,72.751,0,0,0,.967-13.973,107.436,107.436,0,0,0-.967-12.886c-.12-.966-.281-1.972-.442-3.021a182.609,182.609,0,0,0-3.866-18.562q-.723-2.839-1.57-5.8c-.966-3.423-1.732-6.8-2.335-10.105a95.75,95.75,0,0,1-1.57-18.566,84.215,84.215,0,0,1,1.57-15.784v-.08a94.39,94.39,0,0,1,3.744-14.013c19.289-54.843,84.924-87.259,102.36-94.507,24.844-10.349,54.279-16.147,84.843-18.281,2.5-.161,4.992-.322,7.49-.443,7.046-.362,14.174-.523,21.261-.523,2.9,0,5.758.041,8.616.08,4.792.121,9.543.282,14.335.565,4.43.242,8.819.523,13.207.886a435.015,435.015,0,0,1,52.469,7.571,287.268,287.268,0,0,1,40.871,11.637l.04.04a230.036,230.036,0,0,1,68.615,39.422c4.068,3.382,7.933,6.8,11.557,10.228.484.442,1.007.927,1.489,1.409,1.128,1.047,2.215,2.094,3.3,3.182.482.482,1.007.966,1.489,1.449,3.18,3.181,6.241,6.362,9.141,9.462,1.449,1.57,2.9,3.142,4.309,4.671,7.651,8.456,14.416,16.349,20.858,23.154.806.887,1.61,1.69,2.416,2.536,11.073,11.276,21.342,18.926,33.9,19.772,7.893.522,17.114-.806,27.463-2.82,1.047-.2,2.052-.4,3.1-.643,15.9-3.181,34.427-7.692,55-9.583,26.577-2.458,56.657-.525,89.112,14.214,1.047.484,2.053.967,3.1,1.449,4.751,2.3,9.543,4.832,14.375,7.692,1.007.563,2.014,1.167,3.02,1.772q7.37,4.529,14.94,10.067a2.22,2.22,0,0,1,.362.282c2.174,1.569,4.349,3.26,6.522,4.992,2.537,2.014,5.115,4.108,7.692,6.321,6.2,5.357,12.523,11.234,18.844,17.758,4.591,4.711,8.86,9.463,12.725,14.294,2.7,3.3,5.235,6.646,7.571,9.988.442.6.845,1.208,1.288,1.811a200.358,200.358,0,0,1,10.873,17.878c.362.726.765,1.49,1.168,2.217a183.055,183.055,0,0,1,10.51,24.924c.241.725.482,1.409.724,2.095,1.207,3.744,2.254,7.49,3.221,11.235,1.289,5.113,2.336,10.187,3.182,15.26A204.136,204.136,0,0,1,1523.945,1074.463Z" transform="translate(-584.121 -749.306)" fill="#d5e2f4"/><g transform="translate(32.001 127.768)"><g transform="translate(99.501)"><path d="M754.129,842.119v274.9H697.593V940.815a72.785,72.785,0,0,0,.967-13.973,107.486,107.486,0,0,0-.967-12.886V842.119Z" transform="translate(-684.869 -842.039)" fill="#c6d6ee"/><path d="M744.891,842.119v274.9H688.356V968.841a64.2,64.2,0,0,0,5.314-7.572,57.343,57.343,0,0,0,6.524-15.866c.322-1.488.645-3.019.886-4.589a72.765,72.765,0,0,0,.967-13.973,107.463,107.463,0,0,0-.967-12.886c-.12-.966-.281-1.973-.442-3.021a182.636,182.636,0,0,0-3.866-18.562q-.723-2.839-1.57-5.8c-.966-3.423-1.732-6.8-2.335-10.105A95.747,95.747,0,0,1,691.3,857.9a84.211,84.211,0,0,1,1.57-15.784Z" transform="translate(-688.356 -842.039)" fill="#d5e2f4"/><path d="M692.06,842.143a84.207,84.207,0,0,0-1.57,15.784h53.595V842.061H692.06Z" transform="translate(-687.551 -842.061)" fill="#c6d6ee"/><path d="M743.654,867.056v15.9H695.535q-.723-2.839-1.57-5.8c-.966-3.423-1.732-6.8-2.335-10.1Z" transform="translate(-687.12 -832.626)" fill="#c6d6ee"/><path d="M741.525,892.077v15.907H698.681a107.485,107.485,0,0,0-.967-12.886c-.12-.966-.281-1.973-.442-3.021Z" transform="translate(-684.99 -823.181)" fill="#c6d6ee"/><path d="M743.434,917.1v15.866h-51.22a57.345,57.345,0,0,0,6.524-15.866Z" transform="translate(-686.9 -813.735)" fill="#c6d6ee"/><rect width="56.517" height="15.886" transform="translate(0.018 137.81)" fill="#c6d6ee"/><rect width="56.517" height="15.885" transform="translate(0.018 172.263)" fill="#c6d6ee"/><rect width="56.517" height="15.885" transform="translate(0.018 206.717)" fill="#c6d6ee"/><rect width="56.517" height="15.886" transform="translate(0.018 241.171)" fill="#c6d6ee"/></g><g transform="translate(9.141 146.974)"><path d="M688.5,948.759v128.01H631.966v-71.8c.645-.925,1.289-1.851,1.933-2.737a166.386,166.386,0,0,1,10.751-13.651,204.105,204.105,0,0,1,15.422-15.946c1.249-1.168,2.5-2.3,3.745-3.423.282-.243.563-.484.846-.765.725-.6,1.449-1.249,2.175-1.853,3.059-2.658,6.039-5.155,8.978-7.569,1.49-1.209,2.94-2.377,4.39-3.546C683.065,953.189,685.843,950.934,688.5,948.759Z" transform="translate(-619.282 -948.759)" fill="#c6d6ee"/><path d="M679.292,956.215v117.74H622.758V1024.87a6.062,6.062,0,0,1,.322-.766c1.328-2.94,2.778-5.839,4.348-8.779a152.162,152.162,0,0,1,8.013-13.168c.645-.925,1.289-1.851,1.933-2.737a166.491,166.491,0,0,1,10.751-13.651,204.143,204.143,0,0,1,15.422-15.946c1.249-1.168,2.5-2.3,3.745-3.423.282-.242.563-.484.846-.765.725-.6,1.449-1.249,2.175-1.852C673.373,961.126,676.353,958.63,679.292,956.215Z" transform="translate(-622.758 -945.944)" fill="#d5e2f4"/><path d="M668.115,956.215v13.609H652.37c1.249-1.168,2.5-2.3,3.745-3.423.282-.242.563-.484.846-.765.724-.6,1.449-1.249,2.175-1.852C662.2,961.126,665.175,958.63,668.115,956.215Z" transform="translate(-611.58 -945.944)" fill="#c6d6ee"/><path d="M675.287,977.671v13.651H633.369a166.374,166.374,0,0,1,10.751-13.651Z" transform="translate(-618.753 -937.845)" fill="#c6d6ee"/><path d="M679.292,999.127v13.651H622.758v-4.106a6.056,6.056,0,0,1,.322-.766c1.328-2.939,2.778-5.839,4.348-8.779Z" transform="translate(-622.758 -929.746)" fill="#c6d6ee"/><rect width="56.517" height="13.638" transform="translate(0.006 98.98)" fill="#c6d6ee"/></g><rect width="23.673" height="34.52" transform="translate(175.669 266.543)" fill="#d5e2f4"/><path d="M1087.458,960.226v-21.32h-6.472V902.246h-34.7v36.659h-32.443V879.17h-35.8v38.778h-8.164v-46.3h-35.8v86.8H888.8v50.616H871.88v12.752H833.02V999.863H810.71V940.2H783.15V1050.34H755.59v95.841h359.518V960.226Z" transform="translate(-563.476 -830.891)" fill="#b1c8e8"/><rect width="35.821" height="8.844" transform="translate(370.579 46.62)" fill="#c6d6ee"/><rect width="35.821" height="8.844" transform="translate(370.579 63.235)" fill="#c6d6ee"/><rect width="35.821" height="8.844" transform="translate(370.579 78.183)" fill="#c6d6ee"/><rect width="35.82" height="8.844" transform="translate(414.534 78.183)" fill="#c6d6ee"/><rect width="35.82" height="8.844" transform="translate(414.534 63.235)" fill="#c6d6ee"/><rect width="35.82" height="8.844" transform="translate(414.534 48.31)" fill="#c6d6ee"/><rect width="79.786" height="8.844" transform="translate(370.579 92.677)" fill="#c6d6ee"/><rect width="79.786" height="8.844" transform="translate(370.579 107.17)" fill="#c6d6ee"/><rect width="27.802" height="13.651" transform="translate(219.686 109.313)" fill="#c6d6ee"/><rect width="27.802" height="13.652" transform="translate(219.686 129.615)" fill="#c6d6ee"/><rect width="27.802" height="13.651" transform="translate(219.686 149.918)" fill="#c6d6ee"/><rect width="27.802" height="13.652" transform="translate(219.686 171.2)" fill="#c6d6ee"/><rect width="27.802" height="13.652" transform="translate(219.686 191.822)" fill="#c6d6ee"/><rect width="27.802" height="13.652" transform="translate(219.686 212.444)" fill="#c6d6ee"/><rect width="27.802" height="13.651" transform="translate(219.686 234.02)" fill="#c6d6ee"/><rect width="79.786" height="5.614" transform="translate(370.579 121.335)" fill="#c6d6ee"/><rect width="10.251" height="59.659" transform="translate(247.102 109.313)" fill="#c6d6ee"/><rect width="20.62" height="21.958" transform="translate(269.544 168.972)" fill="#c6d6ee"/><rect width="7.112" height="59.704" transform="translate(450.359 48.31)" fill="#c6d6ee"/><rect width="4.369" height="46.266" transform="translate(406.399 40.761)" fill="#c6d6ee"/><g transform="translate(332.719 136.271)" opacity="0.8"><rect width="6.069" height="8.554" fill="#c6d6ee"/><rect width="6.069" height="8.554" transform="translate(11.349)" fill="#c6d6ee"/><rect width="6.069" height="8.554" transform="translate(22.445)" fill="#c6d6ee"/><rect width="6.069" height="8.554" transform="translate(32.965)" fill="#c6d6ee"/><rect width="6.069" height="8.554" transform="translate(43.687)" fill="#c6d6ee"/><g transform="translate(54.531)"><rect width="6.069" height="8.554" fill="#c6d6ee"/><rect width="6.069" height="8.554" transform="translate(11.349)" fill="#c6d6ee"/><rect width="6.069" height="8.554" transform="translate(22.445)" fill="#c6d6ee"/><rect width="6.069" height="8.554" transform="translate(32.965)" fill="#c6d6ee"/><rect width="6.069" height="8.554" transform="translate(43.687)" fill="#c6d6ee"/></g><g transform="translate(109.391)"><rect width="6.069" height="8.554" fill="#c6d6ee"/><rect width="6.069" height="8.554" transform="translate(11.349)" fill="#c6d6ee"/><rect width="6.069" height="8.554" transform="translate(22.444)" fill="#c6d6ee"/><rect width="6.069" height="8.554" transform="translate(32.965)" fill="#c6d6ee"/><rect width="6.069" height="8.554" transform="translate(43.687)" fill="#c6d6ee"/><g transform="translate(54.531)"><rect width="6.069" height="8.554" fill="#c6d6ee"/><rect width="6.069" height="8.554" transform="translate(11.349)" fill="#c6d6ee"/><rect width="6.069" height="8.554" transform="translate(22.445)" fill="#c6d6ee"/><rect width="6.069" height="8.554" transform="translate(32.965)" fill="#c6d6ee"/><rect width="6.069" height="8.554" transform="translate(43.687)" fill="#c6d6ee"/></g></g><g transform="translate(0 15.096)"><rect width="6.069" height="8.554" fill="#c6d6ee"/><rect width="6.069" height="8.554" transform="translate(11.349)" fill="#c6d6ee"/><rect width="6.069" height="8.554" transform="translate(22.445)" fill="#c6d6ee"/><rect width="6.069" height="8.554" transform="translate(32.965)" fill="#c6d6ee"/><rect width="6.069" height="8.554" transform="translate(43.687)" fill="#c6d6ee"/><g transform="translate(54.531)"><rect width="6.069" height="8.554" fill="#c6d6ee"/><rect width="6.069" height="8.554" transform="translate(11.349)" fill="#c6d6ee"/><rect width="6.069" height="8.554" transform="translate(22.445)" fill="#c6d6ee"/><rect width="6.069" height="8.554" transform="translate(32.965)" fill="#c6d6ee"/><rect width="6.069" height="8.554" transform="translate(43.687)" fill="#c6d6ee"/></g><g transform="translate(109.391)"><rect width="6.069" height="8.554" fill="#c6d6ee"/><rect width="6.069" height="8.554" transform="translate(11.349)" fill="#c6d6ee"/><rect width="6.069" height="8.554" transform="translate(22.444)" fill="#c6d6ee"/><rect width="6.069" height="8.554" transform="translate(32.965)" fill="#c6d6ee"/><rect width="6.069" height="8.554" transform="translate(43.687)" fill="#c6d6ee"/><g transform="translate(54.531)"><rect width="6.069" height="8.554" fill="#c6d6ee"/><rect width="6.069" height="8.554" transform="translate(11.349)" fill="#c6d6ee"/><rect width="6.069" height="8.554" transform="translate(22.445)" fill="#c6d6ee"/><rect width="6.069" height="8.554" transform="translate(32.965)" fill="#c6d6ee"/><rect width="6.069" height="8.554" transform="translate(43.687)" fill="#c6d6ee"/></g></g></g><g transform="translate(0 29.96)"><rect width="6.069" height="8.554" fill="#c6d6ee"/><rect width="6.069" height="8.554" transform="translate(11.349)" fill="#c6d6ee"/><rect width="6.069" height="8.554" transform="translate(22.445)" fill="#c6d6ee"/><rect width="6.069" height="8.554" transform="translate(32.965)" fill="#c6d6ee"/><rect width="6.069" height="8.554" transform="translate(43.687)" fill="#c6d6ee"/><g transform="translate(54.531)"><rect width="6.069" height="8.554" fill="#c6d6ee"/><rect width="6.069" height="8.554" transform="translate(11.349)" fill="#c6d6ee"/><rect width="6.069" height="8.554" transform="translate(22.445)" fill="#c6d6ee"/><rect width="6.069" height="8.554" transform="translate(32.965)" fill="#c6d6ee"/><rect width="6.069" height="8.554" transform="translate(43.687)" fill="#c6d6ee"/></g><g transform="translate(109.391)"><rect width="6.069" height="8.554" fill="#c6d6ee"/><rect width="6.069" height="8.554" transform="translate(11.349)" fill="#c6d6ee"/><rect width="6.069" height="8.554" transform="translate(22.444)" fill="#c6d6ee"/><rect width="6.069" height="8.554" transform="translate(32.965)" fill="#c6d6ee"/><rect width="6.069" height="8.554" transform="translate(43.687)" fill="#c6d6ee"/><g transform="translate(54.531)"><rect width="6.069" height="8.554" fill="#c6d6ee"/><rect width="6.069" height="8.554" transform="translate(11.349)" fill="#c6d6ee"/><rect width="6.069" height="8.554" transform="translate(22.445)" fill="#c6d6ee"/><rect width="6.069" height="8.554" transform="translate(32.965)" fill="#c6d6ee"/><rect width="6.069" height="8.554" transform="translate(43.687)" fill="#c6d6ee"/></g></g></g><g transform="translate(0 45.752)"><rect width="6.069" height="8.554" fill="#c6d6ee"/><rect width="6.069" height="8.554" transform="translate(11.349)" fill="#c6d6ee"/><rect width="6.069" height="8.554" transform="translate(22.445)" fill="#c6d6ee"/><rect width="6.069" height="8.554" transform="translate(32.965)" fill="#c6d6ee"/><rect width="6.069" height="8.554" transform="translate(43.687)" fill="#c6d6ee"/><g transform="translate(54.531)"><rect width="6.069" height="8.554" fill="#c6d6ee"/><rect width="6.069" height="8.554" transform="translate(11.349)" fill="#c6d6ee"/><rect width="6.069" height="8.554" transform="translate(22.445)" fill="#c6d6ee"/><rect width="6.069" height="8.554" transform="translate(32.965)" fill="#c6d6ee"/><rect width="6.069" height="8.554" transform="translate(43.687)" fill="#c6d6ee"/></g><g transform="translate(109.391)"><rect width="6.069" height="8.554" fill="#c6d6ee"/><rect width="6.069" height="8.554" transform="translate(11.349)" fill="#c6d6ee"/><rect width="6.069" height="8.554" transform="translate(22.444)" fill="#c6d6ee"/><rect width="6.069" height="8.554" transform="translate(32.965)" fill="#c6d6ee"/><rect width="6.069" height="8.554" transform="translate(43.687)" fill="#c6d6ee"/><g transform="translate(54.531)"><rect width="6.069" height="8.554" fill="#c6d6ee"/><rect width="6.069" height="8.554" transform="translate(11.349)" fill="#c6d6ee"/><rect width="6.069" height="8.554" transform="translate(22.445)" fill="#c6d6ee"/><rect width="6.069" height="8.554" transform="translate(32.965)" fill="#c6d6ee"/><rect width="6.069" height="8.554" transform="translate(43.687)" fill="#c6d6ee"/></g></g><g transform="translate(0 15.095)"><rect width="6.069" height="8.554" fill="#c6d6ee"/><rect width="6.069" height="8.554" transform="translate(11.349)" fill="#c6d6ee"/><rect width="6.069" height="8.554" transform="translate(22.445)" fill="#c6d6ee"/><rect width="6.069" height="8.554" transform="translate(32.965)" fill="#c6d6ee"/><rect width="6.069" height="8.554" transform="translate(43.687)" fill="#c6d6ee"/><g transform="translate(54.531)"><rect width="6.069" height="8.554" fill="#c6d6ee"/><rect width="6.069" height="8.554" transform="translate(11.349)" fill="#c6d6ee"/><rect width="6.069" height="8.554" transform="translate(22.445)" fill="#c6d6ee"/><rect width="6.069" height="8.554" transform="translate(32.965)" fill="#c6d6ee"/><rect width="6.069" height="8.554" transform="translate(43.687)" fill="#c6d6ee"/></g><g transform="translate(109.391)"><rect width="6.069" height="8.554" fill="#c6d6ee"/><rect width="6.069" height="8.554" transform="translate(11.349)" fill="#c6d6ee"/><rect width="6.069" height="8.554" transform="translate(22.444)" fill="#c6d6ee"/><rect width="6.069" height="8.554" transform="translate(32.965)" fill="#c6d6ee"/><rect width="6.069" height="8.554" transform="translate(43.687)" fill="#c6d6ee"/><g transform="translate(54.531)"><rect width="6.069" height="8.554" fill="#c6d6ee"/><rect width="6.069" height="8.554" transform="translate(11.349)" fill="#c6d6ee"/><rect width="6.069" height="8.554" transform="translate(22.445)" fill="#c6d6ee"/><rect width="6.069" height="8.554" transform="translate(32.965)" fill="#c6d6ee"/><rect width="6.069" height="8.554" transform="translate(43.687)" fill="#c6d6ee"/></g></g></g><g transform="translate(0 29.96)"><rect width="6.069" height="8.554" fill="#c6d6ee"/><rect width="6.069" height="8.554" transform="translate(11.349)" fill="#c6d6ee"/><rect width="6.069" height="8.554" transform="translate(22.445)" fill="#c6d6ee"/><rect width="6.069" height="8.554" transform="translate(32.965)" fill="#c6d6ee"/><rect width="6.069" height="8.554" transform="translate(43.687)" fill="#c6d6ee"/><g transform="translate(54.531)"><rect width="6.069" height="8.554" fill="#c6d6ee"/><rect width="6.069" height="8.554" transform="translate(11.349)" fill="#c6d6ee"/><rect width="6.069" height="8.554" transform="translate(22.445)" fill="#c6d6ee"/><rect width="6.069" height="8.554" transform="translate(32.965)" fill="#c6d6ee"/><rect width="6.069" height="8.554" transform="translate(43.687)" fill="#c6d6ee"/></g><g transform="translate(109.391)"><rect width="6.069" height="8.554" fill="#c6d6ee"/><rect width="6.069" height="8.554" transform="translate(11.349)" fill="#c6d6ee"/><rect width="6.069" height="8.554" transform="translate(22.444)" fill="#c6d6ee"/><rect width="6.069" height="8.554" transform="translate(32.965)" fill="#c6d6ee"/><rect width="6.069" height="8.554" transform="translate(43.687)" fill="#c6d6ee"/><g transform="translate(54.531)"><rect width="6.069" height="8.554" fill="#c6d6ee"/><rect width="6.069" height="8.554" transform="translate(11.349)" fill="#c6d6ee"/><rect width="6.069" height="8.554" transform="translate(22.445)" fill="#c6d6ee"/><rect width="6.069" height="8.554" transform="translate(32.965)" fill="#c6d6ee"/><rect width="6.069" height="8.554" transform="translate(43.687)" fill="#c6d6ee"/></g></g></g></g></g><rect width="140.668" height="75.888" transform="translate(290.165 238.784)" fill="#c6d6ee"/><rect width="140.668" height="37.944" transform="translate(183.499 276.728)" fill="#c6d6ee"/><rect width="140.668" height="64.063" transform="translate(442.11 250.609)" fill="#c6d6ee"/><rect width="26.209" height="14.055" transform="translate(299.562 247.671)" fill="#d5e2f4"/><rect width="26.208" height="14.055" transform="translate(333.204 247.671)" fill="#d5e2f4"/><rect width="26.208" height="14.055" transform="translate(366.206 247.671)" fill="#d5e2f4"/><rect width="26.208" height="14.055" transform="translate(398.574 247.671)" fill="#d5e2f4"/><rect width="13.502" height="76.541" transform="translate(429.371 238.784)" fill="#b1c8e8"/><rect width="13.502" height="91.344" transform="translate(596.856 223.982)" fill="#b1c8e8"/><rect width="14.494" height="63.447" transform="translate(582.778 250.609)" fill="#b1c8e8"/><g transform="translate(533.402 224.345)"><path d="M1032.1,1028.172c-.376,1.005-1.285,1.6-2.033,1.317a1.748,1.748,0,0,1-.674-2.325,30.679,30.679,0,0,1,3.12-4.24A30.746,30.746,0,0,1,1032.1,1028.172Z" transform="translate(-993.585 -998.135)" fill="#d5e2f4"/><path d="M1026.744,1010.175a1.509,1.509,0,1,1-2.707-1.008,30.641,30.641,0,0,1,3.121-4.239A30.78,30.78,0,0,1,1026.744,1010.175Z" transform="translate(-995.606 -1004.928)" fill="#d5e2f4"/><path d="M1006.221,1037.312a1.509,1.509,0,1,1-2.707-1.008,30.72,30.72,0,0,1,3.121-4.239A30.764,30.764,0,0,1,1006.221,1037.312Z" transform="translate(-1003.353 -994.684)" fill="#d5e2f4"/></g><path d="M1022.564,1067.478s-2.6,5.62,2.467,6.032,8.09-1.645,9.324-4.113c0,0-6.307,2.605-5.347-.548a75.026,75.026,0,0,1,3.427-8.226s-5.345,9.6-8.009,9.141C1023.238,1069.556,1022.564,1067.478,1022.564,1067.478Z" transform="translate(-462.952 -759.56)" fill="#d5e2f4"/><rect width="0.731" height="5.941" transform="translate(225.219 103.372)" fill="#d5e2f4"/><rect width="0.731" height="5.941" transform="translate(251.489 103.372)" fill="#d5e2f4"/><rect width="77.421" height="90.297" transform="translate(519.852 223.759)" fill="#d5e2f4"/><rect width="1.43" height="18.308" transform="translate(590.65 205.674)" fill="#d5e2f4"/><g transform="translate(519.852 240.614)"><rect width="96.585" height="64.955" transform="translate(0 8.487)" fill="#d5e2f4"/><rect width="96.585" height="21.112" fill="#c6d6ee"/><g transform="translate(6.576 27.369)"><rect width="4.961" height="6.992" fill="#c6d6ee"/><rect width="4.961" height="6.992" transform="translate(9.276)" fill="#c6d6ee"/><rect width="4.961" height="6.992" transform="translate(18.345)" fill="#c6d6ee"/><rect width="4.961" height="6.992" transform="translate(26.943)" fill="#c6d6ee"/><rect width="4.961" height="6.992" transform="translate(35.706)" fill="#c6d6ee"/><g transform="translate(44.57)"><rect width="4.961" height="6.992" fill="#c6d6ee"/><rect width="4.961" height="6.992" transform="translate(9.276)" fill="#c6d6ee"/><rect width="4.961" height="6.992" transform="translate(18.344)" fill="#c6d6ee"/><rect width="4.96" height="6.992" transform="translate(26.943)" fill="#c6d6ee"/><rect width="4.961" height="6.992" transform="translate(35.706)" fill="#c6d6ee"/></g><g transform="translate(0 12.338)"><rect width="4.961" height="6.992" fill="#c6d6ee"/><rect width="4.961" height="6.992" transform="translate(9.276)" fill="#c6d6ee"/><rect width="4.961" height="6.992" transform="translate(18.345)" fill="#c6d6ee"/><rect width="4.961" height="6.992" transform="translate(26.943)" fill="#c6d6ee"/><rect width="4.961" height="6.992" transform="translate(35.706)" fill="#c6d6ee"/><g transform="translate(44.57)"><rect width="4.961" height="6.992" fill="#c6d6ee"/><rect width="4.961" height="6.992" transform="translate(9.276)" fill="#c6d6ee"/><rect width="4.961" height="6.992" transform="translate(18.344)" fill="#c6d6ee"/><rect width="4.96" height="6.992" transform="translate(26.943)" fill="#c6d6ee"/><rect width="4.961" height="6.992" transform="translate(35.706)" fill="#c6d6ee"/></g></g><g transform="translate(0 24.487)"><rect width="4.961" height="6.992" fill="#c6d6ee"/><rect width="4.961" height="6.992" transform="translate(9.276)" fill="#c6d6ee"/><rect width="4.961" height="6.992" transform="translate(18.345)" fill="#c6d6ee"/><rect width="4.961" height="6.992" transform="translate(26.943)" fill="#c6d6ee"/><rect width="4.961" height="6.992" transform="translate(35.706)" fill="#c6d6ee"/><g transform="translate(44.57)"><rect width="4.961" height="6.992" fill="#c6d6ee"/><rect width="4.961" height="6.992" transform="translate(9.276)" fill="#c6d6ee"/><rect width="4.961" height="6.992" transform="translate(18.344)" fill="#c6d6ee"/><rect width="4.96" height="6.992" transform="translate(26.943)" fill="#c6d6ee"/><rect width="4.961" height="6.992" transform="translate(35.706)" fill="#c6d6ee"/></g></g></g><rect width="4.168" height="7.212" transform="translate(7.368 5.931)" fill="#b1c8e8"/><rect width="4.168" height="7.212" transform="translate(48.752 5.931)" fill="#b1c8e8"/><rect width="4.169" height="7.212" transform="translate(81.671 5.931)" fill="#b1c8e8"/></g><g transform="translate(113.542 240.614)"><rect width="96.585" height="64.955" transform="translate(0 8.487)" fill="#d5e2f4"/><rect width="96.585" height="21.112" fill="#c6d6ee"/><g transform="translate(6.576 27.369)"><rect width="4.961" height="6.992" fill="#c6d6ee"/><rect width="4.961" height="6.992" transform="translate(9.276)" fill="#c6d6ee"/><rect width="4.961" height="6.992" transform="translate(18.345)" fill="#c6d6ee"/><rect width="4.96" height="6.992" transform="translate(26.943)" fill="#c6d6ee"/><rect width="4.961" height="6.992" transform="translate(35.706)" fill="#c6d6ee"/><g transform="translate(44.569)"><rect width="4.961" height="6.992" fill="#c6d6ee"/><rect width="4.961" height="6.992" transform="translate(9.276)" fill="#c6d6ee"/><rect width="4.961" height="6.992" transform="translate(18.345)" fill="#c6d6ee"/><rect width="4.961" height="6.992" transform="translate(26.943)" fill="#c6d6ee"/><rect width="4.961" height="6.992" transform="translate(35.706)" fill="#c6d6ee"/></g><g transform="translate(0 12.338)"><rect width="4.961" height="6.992" fill="#c6d6ee"/><rect width="4.961" height="6.992" transform="translate(9.276)" fill="#c6d6ee"/><rect width="4.961" height="6.992" transform="translate(18.345)" fill="#c6d6ee"/><rect width="4.96" height="6.992" transform="translate(26.943)" fill="#c6d6ee"/><rect width="4.961" height="6.992" transform="translate(35.706)" fill="#c6d6ee"/><g transform="translate(44.569)"><rect width="4.961" height="6.992" fill="#c6d6ee"/><rect width="4.961" height="6.992" transform="translate(9.276)" fill="#c6d6ee"/><rect width="4.961" height="6.992" transform="translate(18.345)" fill="#c6d6ee"/><rect width="4.961" height="6.992" transform="translate(26.943)" fill="#c6d6ee"/><rect width="4.961" height="6.992" transform="translate(35.706)" fill="#c6d6ee"/></g></g><g transform="translate(0 24.487)"><rect width="4.961" height="6.992" fill="#c6d6ee"/><rect width="4.961" height="6.992" transform="translate(9.276)" fill="#c6d6ee"/><rect width="4.961" height="6.992" transform="translate(18.345)" fill="#c6d6ee"/><rect width="4.96" height="6.992" transform="translate(26.943)" fill="#c6d6ee"/><rect width="4.961" height="6.992" transform="translate(35.706)" fill="#c6d6ee"/><g transform="translate(44.569)"><rect width="4.961" height="6.992" fill="#c6d6ee"/><rect width="4.961" height="6.992" transform="translate(9.276)" fill="#c6d6ee"/><rect width="4.961" height="6.992" transform="translate(18.345)" fill="#c6d6ee"/><rect width="4.961" height="6.992" transform="translate(26.943)" fill="#c6d6ee"/><rect width="4.961" height="6.992" transform="translate(35.706)" fill="#c6d6ee"/></g></g></g><rect width="4.169" height="7.212" transform="translate(7.368 5.931)" fill="#b1c8e8"/><rect width="4.168" height="7.212" transform="translate(48.751 5.931)" fill="#b1c8e8"/><rect width="4.168" height="7.212" transform="translate(81.671 5.931)" fill="#b1c8e8"/></g><g transform="translate(10.872 240.614)"><path d="M720.616,1022.893v64.952H635.733l-11.718-12.684v-52.268Z" transform="translate(-624.015 -1014.415)" fill="#d5e2f4"/><rect width="96.585" height="21.112" transform="translate(0.019)" fill="#c6d6ee"/><g transform="translate(6.596 27.369)"><rect width="4.96" height="6.992" fill="#c6d6ee"/><rect width="4.961" height="6.992" transform="translate(9.276)" fill="#c6d6ee"/><rect width="4.961" height="6.992" transform="translate(18.345)" fill="#c6d6ee"/><rect width="4.96" height="6.992" transform="translate(26.943)" fill="#c6d6ee"/><rect width="4.961" height="6.992" transform="translate(35.706)" fill="#c6d6ee"/><g transform="translate(44.57)"><rect width="4.961" height="6.992" fill="#c6d6ee"/><rect width="4.96" height="6.992" transform="translate(9.276)" fill="#c6d6ee"/><rect width="4.961" height="6.992" transform="translate(18.344)" fill="#c6d6ee"/><rect width="4.961" height="6.992" transform="translate(26.943)" fill="#c6d6ee"/><rect width="4.961" height="6.992" transform="translate(35.706)" fill="#c6d6ee"/></g><g transform="translate(0 12.338)"><rect width="4.96" height="6.992" fill="#c6d6ee"/><rect width="4.961" height="6.992" transform="translate(9.276)" fill="#c6d6ee"/><rect width="4.961" height="6.992" transform="translate(18.345)" fill="#c6d6ee"/><rect width="4.96" height="6.992" transform="translate(26.943)" fill="#c6d6ee"/><rect width="4.961" height="6.992" transform="translate(35.706)" fill="#c6d6ee"/><g transform="translate(44.57)"><rect width="4.961" height="6.992" fill="#c6d6ee"/><rect width="4.96" height="6.992" transform="translate(9.276)" fill="#c6d6ee"/><rect width="4.961" height="6.992" transform="translate(18.344)" fill="#c6d6ee"/><rect width="4.961" height="6.992" transform="translate(26.943)" fill="#c6d6ee"/><rect width="4.961" height="6.992" transform="translate(35.706)" fill="#c6d6ee"/></g></g><g transform="translate(0 24.487)"><rect width="4.96" height="6.992" fill="#c6d6ee"/><rect width="4.961" height="6.992" transform="translate(9.276)" fill="#c6d6ee"/><rect width="4.961" height="6.992" transform="translate(18.345)" fill="#c6d6ee"/><rect width="4.96" height="6.992" transform="translate(26.943)" fill="#c6d6ee"/><rect width="4.961" height="6.992" transform="translate(35.706)" fill="#c6d6ee"/><g transform="translate(44.57)"><rect width="4.961" height="6.992" fill="#c6d6ee"/><rect width="4.96" height="6.992" transform="translate(9.276)" fill="#c6d6ee"/><rect width="4.961" height="6.992" transform="translate(18.344)" fill="#c6d6ee"/><rect width="4.961" height="6.992" transform="translate(26.943)" fill="#c6d6ee"/><rect width="4.961" height="6.992" transform="translate(35.706)" fill="#c6d6ee"/></g></g></g><rect width="4.168" height="7.212" transform="translate(7.387 5.931)" fill="#b1c8e8"/><rect width="4.168" height="7.212" transform="translate(48.771 5.931)" fill="#b1c8e8"/><rect width="4.168" height="7.212" transform="translate(81.69 5.931)" fill="#b1c8e8"/></g><g transform="translate(0 240.596)"><path d="M620.713,1022.893v40.632a63.957,63.957,0,0,1-4.591-24.364c0-.4,0-.846.04-1.288,0-.765.041-1.57.041-2.336q.06-1.025.12-2.052c.2-2.5.484-4.993.886-7.488,0-.084.041-.162.041-.242a12.451,12.451,0,0,0,.2-1.291c.08-.522.2-1.046.322-1.57Z" transform="translate(-616.122 -1014.397)" fill="#d5e2f4"/><path d="M620.691,1016.725v21.14h-4.51q.06-1.024.12-2.052c.2-2.5.483-4.994.885-7.488,0-.084.041-.163.041-.242a12.439,12.439,0,0,0,.2-1.291c.08-.522.2-1.046.322-1.57.362-1.853.8-3.7,1.288-5.6.08-.445.2-.887.323-1.329.161-.523.282-1.047.484-1.572Z" transform="translate(-616.1 -1016.725)" fill="#c6d6ee"/></g></g><path d="M1399.937,1017.729q-.582,3.442-1.245,6.794c-.1.507-.2,1.015-.3,1.518l-.054.281q-.421,2.039-.859,4.044-.8,3.606-1.656,7.075c-.1.424-.212.848-.317,1.27-1.529,6.037-3.185,11.745-4.886,17.06-.285.885-.569,1.762-.857,2.626-.77,2.332-1.547,4.584-2.317,6.751q-.832,2.314-1.656,4.5c-2.939,7.818-5.771,14.313-8.057,19.208-2.133,4.57-3.973,8.391-4.9,10.313H935.565V1008c33.331,2.562,77.6-25.534,109.875-8.28,36.55,19.546,131.83,68.472,192.607,33.1C1290.7,1002.178,1365.452,1003.519,1399.937,1017.729Z" transform="translate(-463.539 -656.908)" fill="#b1c8e8"/><path d="M.908,0H942.953a.909.909,0,0,1,.909.909v.686a.909.909,0,0,1-.909.909H.909A.909.909,0,0,1,0,1.594V.908A.908.908,0,0,1,.908,0Z" transform="translate(0 441.19)" fill="#0b0c13"/><path d="M1228.172,1079.035h-31.036c-1.663-1.412,1.15-4.615,4.091-4.829a18.065,18.065,0,0,1,4.737.559c.427-5.673,2.866-31.174,12.058-30.149,10.335,1.147,0,11.23-2.923,17.2a142.346,142.346,0,0,0-5.49,13.754c.84.182,1.708.36,2.595.524,1.37-4.206,6.469-18.355,12.95-17.53,7.611.966,4.551,6.638-.843,10-3.958,2.477-8.817,6-11.126,7.7a32.934,32.934,0,0,0,6.07.486C1224.571,1076.626,1227.166,1078.192,1228.172,1079.035Z" transform="translate(-364.989 -637.845)" fill="#5277ba"/><path d="M664.63,1076.028c-1.457-2.29-5.844-8.232-11.687-7.445-6.365.857,7.031,5.052,11.131,7.463a6.8,6.8,0,0,1-2.269-.266c-2.743-.978-7.438.9-8.938,1.555h26.1a4.14,4.14,0,0,0-1.866-2.387,4.655,4.655,0,0,0-2.4-.214c1.551-1.831,2.63-7.675-1.691-6.171-3.156,1.1-3.148,4.669-2.838,6.782-.672.106-1.353.212-2.026.309-1.3-6.623-5.9-26.036-15.213-26.553-9.445-.525,8.01,20.133,13.822,26.738C666.011,1075.928,665.295,1076,664.63,1076.028Z" transform="translate(-571.263 -636.144)" fill="#5277ba"/><path d="M760.562,925.871a50.968,50.968,0,0,0-50.979,50.978c0,28.149,50.979,90.72,50.979,90.72s23.154-28.425,38.214-55.567c7.328-13.126,12.765-25.973,12.765-35.153A50.989,50.989,0,0,0,760.562,925.871Zm0,74.251a23.994,23.994,0,1,1,5.194-.6A22.112,22.112,0,0,1,760.562,1000.122Z" transform="translate(-548.842 -682.657)" fill="#df4547"/><path d="M1221.9,980.1a22.623,22.623,0,0,0-22.624,22.623c0,12.5,22.624,40.276,22.624,40.276s22.625-27.78,22.625-40.276A22.623,22.623,0,0,0,1221.9,980.1Zm0,32.97a10.576,10.576,0,1,1,10.576-10.575A10.576,10.576,0,0,1,1221.9,1013.073Z" transform="translate(-363.993 -662.186)" fill="#df4547"/><path d="M674.889,998.761a12.39,12.39,0,0,0-12.39,12.391c0,6.843,12.39,22.056,12.39,22.056s12.39-15.213,12.39-22.056A12.39,12.39,0,0,0,674.889,998.761Zm0,18.056a5.792,5.792,0,1,1,5.791-5.792A5.792,5.792,0,0,1,674.889,1016.817Z" transform="translate(-566.615 -655.143)" fill="#1e51a0"/><g transform="translate(230.835 386.975)"><path d="M762.974,1084.452s8.882-26.506,34.323-31.607,44.275,14.819,66.944,7.055,58.4-48.86,100.92-18.826,39.737,38.587,66.557,31.57,32.955,11.808,32.955,11.808Z" transform="translate(-759.523 -1030.236)" fill="#5277ba"/><path d="M790.038,1055.637S771.484,1036.18,762,1041.4,790.038,1055.637,790.038,1055.637Z" transform="translate(-760.469 -1026.358)" fill="#5277ba"/><path d="M784.493,1056.042s-17.105-5.576-21.387-2.788S784.493,1056.042,784.493,1056.042Z" transform="translate(-759.655 -1021.842)" fill="#5277ba"/><path d="M818.005,1059.841s11.754-26.371,15.831-21.574S818.005,1059.841,818.005,1059.841Z" transform="translate(-738.75 -1027.425)" fill="#5277ba"/><path d="M817.306,1057.45s4.8-19.31-2.4-18.109S817.306,1057.45,817.306,1057.45Z" transform="translate(-740.93 -1026.82)" fill="#5277ba"/></g><g transform="translate(85.979 104.703)"><path d="M1421.061,1028.185c-.025-.076-.587-1.9-1.8-5.207a.9.9,0,1,0-1.689.618c1.191,3.261,1.76,5.1,1.767,5.117a.9.9,0,0,0,.86.636.926.926,0,0,0,.263-.04A.905.905,0,0,0,1421.061,1028.185Zm-3.739-10.3c-.645-1.638-1.335-3.334-2.048-5.039a.9.9,0,0,0-1.659.694c.709,1.7,1.393,3.379,2.033,5a.906.906,0,0,0,.839.573.905.905,0,0,0,.835-1.23Zm-703.835-3.642c-1.608-.792-3.263-1.566-4.915-2.3a.9.9,0,0,0-.73,1.645c1.63.727,3.263,1.489,4.85,2.274a.923.923,0,0,0,.4.094.9.9,0,0,0,.4-1.709Zm-9.91-4.415c-1.665-.67-3.371-1.321-5.069-1.933a.9.9,0,1,0-.609,1.694c1.678.6,3.361,1.245,5.009,1.908a.92.92,0,0,0,.335.065.9.9,0,0,0,.335-1.734Zm709.549-1.969c-.72-1.627-1.473-3.289-2.239-4.945a.9.9,0,0,0-1.631.76c.759,1.641,1.508,3.3,2.225,4.911a.89.89,0,0,0,.821.537.942.942,0,0,0,.362-.076A.9.9,0,0,0,1413.127,1007.861Zm-719.749-1.714c-1.7-.55-3.444-1.078-5.186-1.576a.9.9,0,1,0-.5,1.727c1.723.493,3.451,1.018,5.131,1.562a.9.9,0,0,0,.277.043.9.9,0,0,0,.274-1.756Zm-10.421-2.982c-1.734-.439-3.513-.857-5.276-1.245a.9.9,0,1,0-.384,1.756c1.745.384,3.5.8,5.22,1.23a.926.926,0,0,0,.219.029.9.9,0,0,0,.22-1.77Zm-10.583-2.332c-1.756-.335-3.551-.647-5.336-.935a.9.9,0,0,0-.284,1.777c1.766.285,3.547.594,5.286.924a.8.8,0,0,0,.169.019.9.9,0,0,0,.165-1.785ZM661.68,999.11c-1.765-.238-3.57-.457-5.376-.652a.9.9,0,0,0-.194,1.788c1.788.194,3.584.411,5.332.645a.7.7,0,0,0,.119.007.9.9,0,0,0,.12-1.788Zm746.887-1.094c-.781-1.613-1.59-3.247-2.406-4.858a.9.9,0,1,0-1.606.81c.81,1.6,1.616,3.231,2.394,4.832a.9.9,0,0,0,1.618-.784Zm-4.89-9.675c-.835-1.588-1.7-3.193-2.562-4.776a.9.9,0,0,0-1.58.863c.861,1.572,1.72,3.17,2.548,4.75a.9.9,0,0,0,1.594-.837Zm-5.2-9.507c-.889-1.562-1.8-3.142-2.713-4.693a.9.9,0,0,0-1.551.915c.911,1.544,1.817,3.113,2.7,4.667a.9.9,0,1,0,1.565-.888Zm-554.451-9.119a.9.9,0,0,0-1.252.216c-1.037,1.466-2.08,2.962-3.1,4.441a.9.9,0,0,0,1.482,1.018c1.011-1.475,2.048-2.961,3.08-4.419A.9.9,0,0,0,844.026,969.715Zm548.949-.215c-.942-1.545-1.9-3.091-2.861-4.6a.9.9,0,1,0-1.518.961c.95,1.5,1.907,3.04,2.846,4.573a.9.9,0,1,0,1.533-.935ZM850.41,961a.9.9,0,0,0-1.26.181c-1.083,1.442-2.165,2.908-3.221,4.35a.9.9,0,0,0,.2,1.259.908.908,0,0,0,1.256-.2c1.047-1.439,2.127-2.9,3.2-4.329A.905.905,0,0,0,850.41,961Zm536.773-.658c-.99-1.507-2-3.022-3.009-4.5a.9.9,0,0,0-1.49,1.011c1,1.475,2.008,2.982,2.99,4.484a.905.905,0,0,0,.756.406.929.929,0,0,0,.492-.147A.909.909,0,0,0,1387.183,960.346Zm-530.142-7.859a.9.9,0,0,0-1.263.141c-1.119,1.4-2.245,2.832-3.346,4.254a.9.9,0,0,0,.158,1.263.909.909,0,0,0,1.263-.158c1.1-1.418,2.217-2.843,3.328-4.236A.9.9,0,0,0,857.041,952.487Zm524.054-1.1c-1.033-1.468-2.094-2.95-3.149-4.4a.9.9,0,0,0-1.458,1.058c1.051,1.444,2.1,2.915,3.134,4.379a.9.9,0,0,0,.738.381.864.864,0,0,0,.514-.162A.9.9,0,0,0,1381.095,951.386Zm-517.171-7.218a.9.9,0,0,0-1.27.1c-1.154,1.362-2.324,2.759-3.469,4.152a.9.9,0,1,0,1.388,1.141c1.138-1.382,2.3-2.774,3.451-4.131A.894.894,0,0,0,863.924,944.168Zm510.8-1.537c-1.083-1.435-2.19-2.882-3.295-4.3a.9.9,0,1,0-1.419,1.1c1.1,1.408,2.2,2.846,3.278,4.276a.9.9,0,1,0,1.436-1.084Zm-503.665-6.569a.9.9,0,0,0-1.27.065c-1.207,1.335-2.415,2.694-3.6,4.044a.9.9,0,0,0,.087,1.27.885.885,0,0,0,.589.222.9.9,0,0,0,.678-.3c1.179-1.346,2.381-2.7,3.58-4.028A.9.9,0,0,0,871.056,936.062Zm497-1.968c-1.129-1.4-2.285-2.811-3.437-4.186a.9.9,0,1,0-1.378,1.151c1.141,1.372,2.292,2.772,3.415,4.164a.908.908,0,0,0,.7.335.9.9,0,0,0,.7-1.464Zm-489.628-5.909a.9.9,0,0,0-1.27.026c-1.252,1.3-2.5,2.623-3.721,3.929a.9.9,0,1,0,1.317,1.227c1.212-1.3,2.457-2.616,3.7-3.912A.9.9,0,0,0,878.433,928.184Zm482.687-2.4c-1.181-1.364-2.382-2.73-3.576-4.066a.9.9,0,0,0-1.343,1.2c1.192,1.328,2.386,2.685,3.559,4.042a.9.9,0,0,0,.681.313.889.889,0,0,0,.585-.22A.9.9,0,0,0,1361.12,925.78Zm-475.063-5.239a.9.9,0,0,0-1.27-.015c-1.277,1.245-2.573,2.531-3.843,3.812a.9.9,0,1,0,1.278,1.266c1.262-1.273,2.55-2.551,3.821-3.792A.9.9,0,0,0,886.057,920.542Zm467.84-2.828c-1.23-1.325-2.479-2.649-3.717-3.937a.9.9,0,0,0-1.3,1.245c1.232,1.281,2.471,2.6,3.7,3.915a.9.9,0,0,0,1.32-1.223ZM893.927,913.15a.9.9,0,0,0-1.274-.057c-1.32,1.208-2.656,2.446-3.962,3.683a.9.9,0,1,0,1.234,1.307c1.3-1.227,2.627-2.462,3.944-3.664A.9.9,0,0,0,893.927,913.15Zm452.469-3.245c-1.27-1.277-2.566-2.555-3.854-3.8a.9.9,0,1,0-1.252,1.292c1.281,1.241,2.569,2.511,3.832,3.781a.9.9,0,0,0,.638.263.885.885,0,0,0,.632-.263A.9.9,0,0,0,1346.4,909.905ZM902.03,906.019a.9.9,0,0,0-1.27-.1c-1.361,1.162-2.732,2.357-4.084,3.552a.9.9,0,0,0-.076,1.27.89.89,0,0,0,.672.3.907.907,0,0,0,.6-.226c1.342-1.187,2.707-2.376,4.06-3.535A.9.9,0,0,0,902.03,906.019Zm8.334-6.859a.9.9,0,0,0-1.263-.141c-1.4,1.12-2.814,2.272-4.2,3.415a.9.9,0,1,0,1.149,1.386c1.375-1.138,2.781-2.281,4.173-3.394A.9.9,0,0,0,910.364,899.161Zm428.256,3.21c-1.312-1.23-2.656-2.462-3.986-3.663a.9.9,0,0,0-1.207,1.339c1.325,1.19,2.66,2.413,3.966,3.636a.9.9,0,0,0,1.227-1.313Zm-419.7-9.783a.9.9,0,0,0-1.259-.181c-1.433,1.065-2.883,2.165-4.31,3.27a.9.9,0,1,0,1.1,1.421c1.417-1.094,2.859-2.187,4.285-3.252A.9.9,0,0,0,918.924,892.588Zm411.654,2.532c-1.357-1.176-2.742-2.357-4.12-3.511a.9.9,0,1,0-1.156,1.382c1.371,1.147,2.75,2.321,4.1,3.49a.9.9,0,1,0,1.181-1.361ZM927.7,886.307a.9.9,0,0,0-1.252-.223c-1.475,1.022-2.962,2.073-4.421,3.123a.9.9,0,1,0,1.049,1.462c1.455-1.047,2.933-2.091,4.4-3.109A.9.9,0,0,0,927.7,886.307Zm394.566,1.868c-1.406-1.134-2.835-2.26-4.25-3.354a.9.9,0,1,0-1.1,1.422c1.4,1.087,2.824,2.21,4.224,3.336a.9.9,0,0,0,1.127-1.4Zm-385.58-7.841a.9.9,0,0,0-1.245-.27c-1.508.975-3.029,1.973-4.524,2.973a.9.9,0,0,0,.5,1.647.889.889,0,0,0,.5-.154c1.485-.993,3-1.986,4.5-2.951A.9.9,0,0,0,936.689,880.335Zm377.021,1.212c-1.448-1.076-2.919-2.148-4.376-3.188a.9.9,0,1,0-1.047,1.464c1.446,1.033,2.911,2.1,4.347,3.169a.9.9,0,0,0,1.076-1.446Zm-367.834-6.876a.9.9,0,0,0-1.234-.313c-1.537.921-3.1,1.868-4.62,2.814a.9.9,0,0,0,.475,1.665.873.873,0,0,0,.471-.136c1.522-.943,3.065-1.881,4.6-2.8A.9.9,0,0,0,945.876,874.671Zm359.025.583c-1.486-1.018-3-2.033-4.495-3.018a.9.9,0,1,0-.989,1.5c1.485.978,2.99,1.986,4.464,3a.9.9,0,0,0,1.249-.231A.905.905,0,0,0,1304.9,875.253Zm-349.649-5.926a.9.9,0,0,0-1.223-.353c-1.576.868-3.163,1.759-4.716,2.652a.9.9,0,0,0,.449,1.68.916.916,0,0,0,.446-.118c1.547-.888,3.123-1.778,4.689-2.638A.9.9,0,0,0,955.252,869.328Zm340.6-.022c-1.511-.953-3.062-1.91-4.611-2.842a.9.9,0,0,0-.928,1.54c1.537.928,3.077,1.877,4.577,2.824a.9.9,0,0,0,.962-1.522Zm-331.049-5a.906.906,0,0,0-1.213-.4c-1.6.813-3.213,1.651-4.8,2.489a.9.9,0,0,0,.422,1.7.88.88,0,0,0,.42-.1c1.58-.835,3.189-1.666,4.779-2.475A.9.9,0,0,0,964.806,864.308Zm321.776-.594c-1.558-.9-3.145-1.8-4.714-2.659a.9.9,0,1,0-.868,1.576c1.559.855,3.135,1.745,4.685,2.641a.913.913,0,0,0,.448.118.9.9,0,0,0,.449-1.676Zm-312.057-4.1a.906.906,0,0,0-1.2-.435c-1.623.756-3.267,1.537-4.886,2.325a.9.9,0,0,0,.4,1.708.912.912,0,0,0,.393-.092c1.609-.781,3.245-1.559,4.858-2.307A.905.905,0,0,0,974.524,859.619Zm302.576-1.13c-1.594-.839-3.214-1.669-4.816-2.473a.9.9,0,0,0-.8,1.609c1.59.795,3.2,1.623,4.785,2.455a.875.875,0,0,0,.417.1.9.9,0,0,0,.417-1.694Zm-292.707-3.225a.9.9,0,0,0-1.179-.474c-1.649.7-3.318,1.424-4.962,2.154a.9.9,0,0,0,.366,1.721.913.913,0,0,0,.364-.076c1.634-.727,3.3-1.45,4.937-2.145A.9.9,0,0,0,984.394,855.265Zm283.027-1.625c-1.62-.77-3.27-1.54-4.908-2.278a.9.9,0,1,0-.742,1.638c1.626.737,3.268,1.5,4.875,2.266a.937.937,0,0,0,.39.087.9.9,0,0,0,.384-1.712Zm-273.013-2.393a.9.9,0,0,0-1.161-.52c-1.678.649-3.368,1.318-5.035,1.99a.9.9,0,0,0,.339,1.734.857.857,0,0,0,.337-.069c1.656-.668,3.34-1.335,5.006-1.975A.9.9,0,0,0,994.408,851.247Zm263.153-2.069c-1.651-.709-3.332-1.412-4.993-2.088a.9.9,0,1,0-.676,1.667c1.65.672,3.321,1.371,4.962,2.073a.881.881,0,0,0,.353.072.9.9,0,0,0,.355-1.723Zm-253.009-1.616a.9.9,0,0,0-1.147-.555c-1.7.591-3.408,1.2-5.1,1.818a.9.9,0,0,0,.31,1.745.925.925,0,0,0,.308-.055c1.678-.614,3.383-1.223,5.071-1.81A.9.9,0,0,0,1004.552,847.562Zm10.255-3.354a.9.9,0,0,0-1.127-.589c-1.723.536-3.457,1.094-5.152,1.651a.9.9,0,0,0,.28,1.755.859.859,0,0,0,.285-.047c1.683-.554,3.411-1.108,5.124-1.641A.906.906,0,0,0,1014.807,844.208Zm232.726.892c-1.67-.641-3.375-1.278-5.069-1.893a.9.9,0,0,0-.616,1.692c1.684.612,3.382,1.245,5.042,1.882a.927.927,0,0,0,.32.058.9.9,0,0,0,.324-1.739Zm-222.366-3.912a.9.9,0,0,0-1.109-.625c-1.734.482-3.484.982-5.2,1.486a.9.9,0,0,0,.252,1.763.936.936,0,0,0,.256-.036c1.705-.5,3.446-1,5.174-1.479A.9.9,0,0,0,1025.167,841.188Zm212.191.228c-1.7-.58-3.43-1.148-5.142-1.694a.9.9,0,1,0-.547,1.712c1.7.544,3.422,1.112,5.109,1.683a.872.872,0,0,0,.288.051.9.9,0,0,0,.292-1.752ZM1035.617,838.5a.9.9,0,0,0-1.087-.662c-1.749.426-3.512.872-5.247,1.321a.9.9,0,0,0,.227,1.77.8.8,0,0,0,.226-.029c1.725-.449,3.479-.889,5.218-1.313A.9.9,0,0,0,1035.617,838.5Zm191.428-.377c-1.717-.515-3.466-1.018-5.2-1.5a.9.9,0,0,0-.484,1.735c1.725.478,3.462.978,5.167,1.489a.957.957,0,0,0,.26.04.9.9,0,0,0,.255-1.763Zm-180.9-1.993a.9.9,0,0,0-1.065-.694c-.824.175-1.648.355-2.475.536q-1.409.308-2.807.625a.9.9,0,0,0,.2,1.778,1.028,1.028,0,0,0,.2-.022c.928-.212,1.857-.421,2.792-.623q1.235-.271,2.466-.536A.894.894,0,0,0,1046.141,836.13Zm170.479-.908c-1.73-.449-3.5-.889-5.25-1.306a.9.9,0,1,0-.42,1.75c1.741.417,3.5.852,5.22,1.3a.984.984,0,0,0,.227.029.9.9,0,0,0,.222-1.771ZM1056.726,834a.9.9,0,0,0-1.054-.712c-1.752.335-3.536.687-5.3,1.047a.9.9,0,0,0,.176,1.781,1,1,0,0,0,.18-.018c1.762-.357,3.54-.708,5.285-1.043A.9.9,0,0,0,1056.726,834Zm149.37-1.292c-1.752-.384-3.534-.759-5.3-1.112a.9.9,0,0,0-.353,1.763c1.75.35,3.524.723,5.265,1.1a.843.843,0,0,0,.192.022.9.9,0,0,0,.194-1.778Zm-138.742-.6a.9.9,0,0,0-1.037-.737c-1.767.3-3.558.612-5.329.928a.9.9,0,0,0,.158,1.784.8.8,0,0,0,.163-.014c1.763-.317,3.548-.63,5.307-.926A.9.9,0,0,0,1067.354,832.107Zm128.134-1.533c-1.767-.319-3.559-.632-5.333-.924a.9.9,0,0,0-.291,1.778c1.763.287,3.544.6,5.3.917a.921.921,0,0,0,.161.014.9.9,0,0,0,.162-1.785Zm-117.47-.123a.9.9,0,0,0-1.018-.759c-1.774.256-3.573.529-5.347.806a.9.9,0,0,0,.136,1.789,1.061,1.061,0,0,0,.145-.011c1.766-.277,3.558-.547,5.325-.8A.9.9,0,0,0,1078.018,830.451Zm10.705-1.4a.9.9,0,0,0-1-.788c-1.77.216-3.576.442-5.365.68a.9.9,0,0,0,.116,1.792,1.142,1.142,0,0,0,.119-.008c1.785-.237,3.584-.464,5.347-.676A.9.9,0,0,0,1088.724,829.055Zm96.087-.237c-1.77-.26-3.573-.508-5.361-.738a.9.9,0,0,0-.23,1.785c1.777.226,3.569.475,5.33.734a.8.8,0,0,0,.129.01.9.9,0,0,0,.132-1.791Zm-86.333-1.707c-1.785.169-3.594.353-5.383.544a.9.9,0,0,0,.1,1.795.739.739,0,0,0,.1-.007c1.781-.19,3.584-.375,5.358-.543a.9.9,0,0,0-.169-1.789Zm75.6.317c-1.788-.2-3.6-.389-5.383-.558a.9.9,0,0,0-.17,1.789c1.774.172,3.573.36,5.35.558.033,0,.069.007.1.007a.9.9,0,0,0,.1-1.8Zm-64.824-1.2c-1.784.123-3.6.256-5.393.4a.9.9,0,0,0,.072,1.8h.076c1.788-.149,3.594-.285,5.368-.408a.9.9,0,1,0-.123-1.792Zm54.055.17c-1.783-.143-3.6-.273-5.4-.384a.891.891,0,0,0-.953.838.9.9,0,0,0,.838.957c1.792.111,3.6.241,5.37.382a.441.441,0,0,0,.072,0,.9.9,0,0,0,.073-1.8Zm-43.253-.763c-1.781.073-3.6.162-5.4.259a.9.9,0,0,0,.047,1.8.209.209,0,0,0,.051,0c1.8-.1,3.606-.183,5.379-.255a.9.9,0,0,0-.076-1.8Zm32.453.08c-1.788-.087-3.6-.158-5.408-.216a.9.9,0,0,0-.058,1.8c1.792.058,3.6.13,5.379.212h.044a.9.9,0,0,0,.043-1.795Zm-21.625-.37h-.011c-1.785.021-3.606.058-5.408.108a.9.9,0,0,0,.02,1.8h.026c1.8-.05,3.609-.085,5.382-.107a.9.9,0,0,0-.01-1.8Zm10.809.021c-1.792-.029-3.613-.047-5.409-.049h0a.9.9,0,0,0,0,1.8c1.788,0,3.6.022,5.383.051h.014a.9.9,0,0,0,.015-1.8Z" transform="translate(-655.308 -825.317)" fill="#de3e42"/></g><g transform="translate(364.739 148.248)"><g transform="translate(268.378 155.143)"><path d="M1054.555,1007.414l-2.044-1.665,27.378-35.78,9.881-.412Z" transform="translate(-1052.511 -969.557)" fill="#1e51a0"/></g><g transform="translate(232.959 155.143)"><path d="M1028.489,1007.414l-1.691-1.665,22.65-35.78,8.175-.412Z" transform="translate(-1026.799 -969.557)" fill="#1e51a0"/></g><g transform="translate(0 80.173)"><path d="M906.663,932.712a12.009,12.009,0,1,1,12,12.294A12.152,12.152,0,0,1,906.663,932.712Z" transform="translate(-839.188 -913.137)" fill="#1e51a0"/><path d="M1051.344,1054.162H929.266a2.426,2.426,0,0,1-2.411-2.428V1040.2a2.427,2.427,0,0,1,2.411-2.43h107.84a2.429,2.429,0,0,1,2.412,2.43Z" transform="translate(-831.566 -868.84)" fill="#1e51a0"/><circle cx="36.484" cy="36.484" r="36.484" transform="translate(206.05 170.655) rotate(-38.736)" fill="#0c1341"/><path d="M1031,1048.206a18.6,18.6,0,1,1,18.6,18.6A18.6,18.6,0,0,1,1031,1048.206Z" transform="translate(-792.256 -871.92)" fill="#5277ba"/><g transform="translate(0 122.265)"><path d="M927.488,1006.415a54.015,54.015,0,0,0-69.73,43.425,7.04,7.04,0,0,0,6.97,8.072h.238a4.483,4.483,0,0,0,4.452-4.079,41.951,41.951,0,0,1,83.7,4.079H965.19A54.106,54.106,0,0,0,927.488,1006.415Z" transform="translate(-857.678 -1003.892)" fill="#1e51a0"/></g><g transform="translate(40.888 38.508)"><path d="M972.266,1073.5l-18.28,7.362c-12.659-24.617-25.587-36.7-36.644-42.652-19.891-10.724-33.734-1.642-29.073-10.089l34.121-72a31.342,31.342,0,0,1,28.343-12.91,10.193,10.193,0,0,1,8.692,13.371,124.309,124.309,0,0,0-6.185,39.536C953.24,1038.563,972.266,1073.5,972.266,1073.5Z" transform="translate(-887.361 -943.087)" fill="#1e51a0"/></g><path d="M940.735,960.868l-13.769-5.26c-1.874,0-5.447,1.694-5.447-.181l2.04-33.627a3.416,3.416,0,0,1,3.407-3.407h8.875c1.873,0,9.386,3.592,8.856,10.322l2.361,33.9C947.057,964.485,942.608,960.868,940.735,960.868Z" transform="translate(-833.58 -913.901)" fill="#1e51a0"/><rect width="101.357" height="12.965" rx="4.706" transform="translate(245.155 63.67)" fill="#1e51a0"/><circle cx="36.484" cy="36.484" r="36.484" transform="translate(1.899 176.285) rotate(-45)" fill="#0c1341"/><path d="M920.206,1048.2a18.5,18.5,0,0,1-2.145,8.673c-.088.168-.18.334-.277.5a18.6,18.6,0,1,1-23.322-26.339c.069-.032.142-.061.214-.088a18.6,18.6,0,0,1,25.53,17.256Z" transform="translate(-848.115 -871.919)" fill="#b1c8e8"/><path d="M998.333,992.3s14.222,31.683-17.555,66.126h73.341l-9.949-75.4Z" transform="translate(-811.211 -889.502)" fill="#1e51a0"/><path d="M1132.6,1067.8a4.839,4.839,0,0,1-4.826,4.827H1010.741a4.84,4.84,0,0,1-4.827-4.827l1.552-76.548,39.411-2.413C1099.377,988.843,1132.6,1015.306,1132.6,1067.8Z" transform="translate(-801.723 -887.308)" fill="#1e51a0"/><path d="M929.268,934.009a19.1,19.1,0,0,1-.317,3.471,18.888,18.888,0,0,1-18.564,15.4V915.132A18.879,18.879,0,0,1,929.268,934.009Z" transform="translate(-837.782 -915.132)" fill="#df4547"/><g transform="translate(98.295 11.493)"><path d="M952.027,933.408c-.073,0-.857-.153-.93-.168l-20.77-5.762a2,2,0,0,1-1.274-2.281c.12-1.1.884-1.861,1.711-1.7l20.819,4.066c.825.16,1.481,1.412,1.675,2.492C953.585,931.866,952.764,933.408,952.027,933.408Z" transform="translate(-929.037 -923.475)" fill="#0c1341"/></g><path d="M928.775,1038.842q.285,1.744.544,3.375c-.052-.025-.1-.052-.161-.077a41.947,41.947,0,0,0-59.74,33.82,4.482,4.482,0,0,1-4.452,4.079h-.238a7.04,7.04,0,0,1-6.97-8.072,54.157,54.157,0,0,1,41.5-44.617c.073-.019.144-.036.218-.052l34.121-72a31.242,31.242,0,0,1,12.022-10.024c-5.817,9.787-21.862,41.084-18.129,83.263q.387,4.343,1.058,8.845C928.623,1037.868,928.695,1038.354,928.775,1038.842Z" transform="translate(-857.678 -903.753)" fill="#df4547"/><rect width="81.967" height="18.547" rx="2.605" transform="translate(183.532 84.255)" fill="#df4547"/><path d="M1122.243,1066.045H1009.651s-6.87-41.686,18.47-55.764c6.1-3.391,13.769-4.558,22.122-3.741C1076.57,1009.118,1109.722,1031.425,1122.243,1066.045Z" transform="translate(-800.633 -880.722)" fill="#090f25"/><path d="M928.951,931.356a18.887,18.887,0,0,1-18.564,15.4V936.227C915.934,936.447,923.926,935.844,928.951,931.356Z" transform="translate(-837.782 -909.008)" fill="#962c30"/><path d="M1049.208,994.844h-54.7a3.6,3.6,0,0,1-3.588-3.587V979.886a3.6,3.6,0,0,1,3.588-3.588h37.476A91.659,91.659,0,0,0,1049.208,994.844Z" transform="translate(-807.384 -892.043)" fill="#962c30"/><path d="M1111.044,1065.977h-46.763c-28.224-14.323-26.5-48.879-25.237-59.506C1065.371,1009.05,1098.523,1031.356,1111.044,1065.977Z" transform="translate(-789.435 -880.654)" fill="#11152a"/><path d="M917.785,1056.985a18.6,18.6,0,1,1-23.322-26.339C896.08,1038.695,901.286,1053.61,917.785,1056.985Z" transform="translate(-848.115 -871.528)" fill="#80a3d6"/><path d="M917.381,1038.842q.285,1.744.544,3.375c-.052-.025-.1-.052-.161-.077-6.738-6.23-20.972-11.749-29.9-14.79.073-.019.145-.036.218-.052l34.122-72a31.24,31.24,0,0,1,12.022-10.024c-5.817,9.787-21.862,41.084-18.129,83.263q.387,4.343,1.058,8.845C917.23,1037.868,917.3,1038.354,917.381,1038.842Z" transform="translate(-846.285 -903.753)" fill="#962c30"/></g><g transform="translate(252.685 95.78)"><rect width="58.288" height="48.062" transform="translate(58.288 48.062) rotate(180)" fill="#8b2222"/><rect width="58.287" height="48.062" transform="translate(29.145 0.001)" fill="#ed5a55"/><path d="M1041.144,953.726h9.237l-.814-2.6.814-1.857h-9.237Z" transform="translate(-1041.11 -917.852)" fill="#ed5a55"/><path d="M1120.564,958.327v16.2h-58.287V926.463H1072.6Z" transform="translate(-1033.133 -926.461)" fill="#9c3737"/><path d="M1107.123,935.509h-9.236l.814-2.6-.814-1.857h9.236Z" transform="translate(-1019.691 -924.728)" fill="#8b2222" opacity="0.4"/><path d="M1107.123,956.961h-9.236l.814-2.6-.814-1.858h9.236Z" transform="translate(-1019.691 -916.631)" fill="#ed5a55"/></g><g transform="translate(110.605)"><path d="M998.242,901.352c10.077,4.093,28.5-4.656,28.5-4.656a25.838,25.838,0,0,1-7.28-15.665c-.061-.516-.1-1.044-.136-1.584l-5.208-1.853-8.926,6.078a69.051,69.051,0,0,0,.1,8.219q.08,1.369.218,2.941A18.094,18.094,0,0,0,998.242,901.352Z" transform="translate(-915.224 -849.128)" fill="#f07b7e"/><path d="M1003.306,883.672a69.084,69.084,0,0,0,.1,8.219c8.122-1.475,12.591-8.035,14.169-10.86-.061-.516-.1-1.044-.136-1.584-1.062-.377-3.065-1.091-5.208-1.853Z" transform="translate(-913.34 -849.128)" fill="#e27174"/><path d="M1003.943,893.285s17.355-.566,16.837-11.368,1.372-18.151-9.73-18.247-13.057,4.13-13.761,7.777S999.415,893.153,1003.943,893.285Z" transform="translate(-915.625 -854.385)" fill="#f07b7e"/><path d="M1019.8,888.187s.678-3.592-1.277-5.963c0,0,1.26-3.524-.094-4.314s-2.062,2.221-2.656,1.654a14.8,14.8,0,0,1-4.029-6.746c-.807-3.517-12.84-1-14.262-.572s7.985-17.126,18.141-12.969,10.921,9.37,9.747,13.6S1024.3,887.318,1019.8,888.187Z" transform="translate(-915.565 -856.283)" fill="#0c1341"/><path d="M1054.028,956.415s-1.2,21.2-6.031,27.24-97.339,3.694-97.339,3.694-.4-13.593,3.218-17.089,20.513-13.534,74.453-19.227Z" transform="translate(-933.191 -821.407)" fill="#8faedb"/><path d="M1041.432,936.221c-1.507,18.209.479,45.906-1.234,50.705-1.477,4.139-18.3,1.678-25.015.3-2.485-.515-5.5-1.243-8.608-2.108-8.671-2.409-18.124-5.853-19.137-8.411a1.689,1.689,0,0,1-.092-.293,2.041,2.041,0,0,1,.015-1.07c.25-.964,1.03-1.986,1.481-3.761a11.057,11.057,0,0,0,.314-2.181c.156-3.3.149-7.131.262-11.258.011-.377.024-.76.036-1.142.008-.515.015-1.074.076-1.585l0-.189c0-.1,0-.193.008-.289.145-5.089.442-10.434.784-15.739.109-1.654.226-3.3.354-4.924.041-.574.089-1.146.134-1.714.088-1.061.176-2.116.273-3.153.756-8.157,1.778-15.413,3.125-20,2.206-7.478,7.068-12.353,11.492-15.925l3.2-2.466a20.467,20.467,0,0,0,11.616-1.387c4.131-1.766,5.559-3.029,6.279-2.551C1036.349,893.693,1043.215,913.957,1041.432,936.221Z" transform="translate(-919.362 -845.586)" fill="#df4547"/><path d="M983.7,1029.193s-.818,13.2-3.37,13.386c-.34.025-12.95.025-12.95.025l-16.1-.093s.1-3.878,4.81-4.7,12.58-4.126,15.43-10.345C974.525,1020.926,983.7,1029.193,983.7,1029.193Z" transform="translate(-932.949 -793.505)" fill="#264496"/><path d="M987.306,1050.582s-3.113,2.392-9.452,2.7a25.524,25.524,0,0,1-4.441-.177,21.163,21.163,0,0,1-5.68-1.452l-17.078-71.678s18.5-16.166,28.156-6.113a17,17,0,0,1,3.251,6.547C988.183,1000.17,987.306,1050.582,987.306,1050.582Z" transform="translate(-933.187 -814.033)" fill="#8faedb"/><path d="M1014.072,912.692s-11.979,43.855-25.658,49.2a11.074,11.074,0,0,0,.314-2.181c.156-3.3.149-7.131.262-11.258.011-.378.024-.76.036-1.142.008-.515.015-1.074.076-1.586l0-.188c0-.1,0-.193.008-.289.144-5.089.442-10.435.784-15.739.109-1.654.226-3.3.354-4.924C996.274,917.31,1004.447,912.081,1014.072,912.692Z" transform="translate(-918.934 -835.898)" fill="#962c30"/><path d="M961.26,925.892s-5.215.4-6.557,0-7.642-4.156-9.922-3.351-8.045,6.7-6.569,9.385a7.569,7.569,0,0,0,5.163-2.481c2.479-2.547,5.161-.8,4.893-.468s-4.156,1.876-3.486,2.547,5.766.537,6.973-.267,10.189.2,10.189.2Z" transform="translate(-937.974 -832.205)" fill="#f07b7e"/><path d="M1028.908,895.929s-32.438,27.651-40.977,30.317-38.7,8.529-38.7,8.529-.831,7.142,2,9.823c0,0,38.761-2.247,43.589-3.269s40.791-19.658,43.725-21.066S1041.014,893.649,1028.908,895.929Z" transform="translate(-933.77 -842.262)" fill="#df4547"/><path d="M981.069,1047.885s-3.113,2.393-9.452,2.7a25.5,25.5,0,0,1-4.441-.176c9.743-12.32,8.649-72.7,8.649-72.7C981.947,997.474,981.069,1047.885,981.069,1047.885Z" transform="translate(-926.951 -811.337)" fill="#80a3d6"/><path d="M1031.269,874.233v.165a1.143,1.143,0,0,1-.505,1.01.657.657,0,0,1-.318.088H989.322c-.456,0-.825-.495-.825-1.1v-.165c0-.6.369-1.1.825-1.1l9.182-1.179a17.074,17.074,0,0,1,11.38-14.306h.008a14.94,14.94,0,0,1,4.6-.721c8.438,0,15.353,6.971,16.074,15.856l.023.31c.1.076.165.124.174.128A1.148,1.148,0,0,1,1031.269,874.233Z" transform="translate(-918.903 -856.929)" fill="#df4547"/><path d="M1011.51,872.785c3.065-16.218-7.139-15.176-7.481-15.135a14.938,14.938,0,0,1,4.6-.721c8.438,0,15.353,6.971,16.074,15.856Z" transform="translate(-913.04 -856.929)" fill="#962c30"/></g></g><path d="M1047.8,1075.862s33.756-8.507,43.282-18.794,17.754,1.372,11.582,7.886S1047.8,1075.862,1047.8,1075.862Z" transform="translate(-421.172 -634.671)" fill="#d5e2f4"/><path d="M1158.667,1054.155h-47.313a2.127,2.127,0,0,1-2.12-2.12h0a2.127,2.127,0,0,1,2.12-2.12h47.313a2.126,2.126,0,0,1,2.119,2.12h0A2.126,2.126,0,0,1,1158.667,1054.155Z" transform="translate(-397.983 -635.833)" fill="#d5e2f4"/><path d="M1136.118,1046.757h-25.731a1.156,1.156,0,0,1-1.153-1.153h0a1.156,1.156,0,0,1,1.153-1.153h25.731a1.157,1.157,0,0,1,1.153,1.153h0A1.156,1.156,0,0,1,1136.118,1046.757Z" transform="translate(-397.983 -637.896)" fill="#d5e2f4"/><path d="M798.776,1008.879c-15.06,27.142-38.214,55.567-38.214,55.567s-50.979-62.572-50.979-90.72a50.926,50.926,0,0,1,18.847-39.582A126.964,126.964,0,0,0,738.536,964.1,23.79,23.79,0,0,0,760.562,997a22.112,22.112,0,0,0,5.194-.6A77.454,77.454,0,0,0,798.776,1008.879Z" transform="translate(-548.842 -679.534)" fill="#962c30"/></g></g></g></svg>