<svg xmlns="http://www.w3.org/2000/svg" width="932.186" height="577.421" viewBox="0 0 932.186 577.421"><g transform="translate(-334.08 -614.416)"><g transform="translate(334.08 614.416)"><g transform="translate(31.373)"><path d="M1078.421,834.707c216.573-73.466,428.746-25.108,473.9,108.012s-93.8,300.59-310.376,374.057-428.746,25.108-473.9-108.012,93.8-300.59,310.374-374.056Z" transform="translate(-660.026 -776.576)" fill="#84a8d8" fill-rule="evenodd"/><g transform="translate(1.772 84.649)"><path d="M1309.313,871.045c26.465-8.978,52.072-4.008,57.2,11.1s-12.173,34.633-38.638,43.611-52.07,4.006-57.2-11.1,12.175-34.633,38.638-43.61Z" transform="translate(-468.369 -836.133)" fill="#5580c1" fill-rule="evenodd"/><path d="M1278.832,846.425c13.453,4.615,21.714,16.068,18.451,25.582s-16.815,13.485-30.268,8.87-21.714-16.068-18.451-25.581,16.815-13.486,30.269-8.872Z" transform="translate(-476.68 -844.501)" fill="#5580c1" fill-rule="evenodd"/><path d="M1303.672,846.006c7.217-2.448,14.524-.141,16.32,5.154s-2.6,11.573-9.816,14.021-14.525.141-16.322-5.155,2.6-11.572,9.818-14.02Z" transform="translate(-459.393 -844.301)" fill="#5580c1" fill-rule="evenodd"/><path d="M752.153,998.638c-10.507,20.128-28.339,31.581-39.83,25.583s-12.288-27.178-1.782-47.306,28.339-31.581,39.83-25.582,12.289,27.176,1.782,47.3Z" transform="translate(-683.171 -804.606)" fill="#e0e0df" fill-rule="evenodd"/><path d="M713.994,927.481c10.631,4.173,16.857,13.653,13.905,21.172s-13.963,10.23-24.6,6.056-16.858-13.653-13.905-21.172,13.963-10.23,24.6-6.056Z" transform="translate(-688.664 -813.787)" fill="#e0e0df" fill-rule="evenodd"/><path d="M724.715,913.236c2.871-5.988,8.759-9.135,13.152-7.031s5.628,8.667,2.757,14.657-8.759,9.135-13.152,7.029-5.627-8.668-2.757-14.656Z" transform="translate(-675.584 -821.357)" fill="#e0e0df" fill-rule="evenodd"/></g><g transform="translate(85.856 23.811)"><path d="M993.37,815.509c183.7,61.8,368.473-72.481,426.218,143.031,33.735,125.9-221.934,169.37-371.665,188.7s-282.517-47.931-296.585-150.225S809.677,753.706,993.37,815.509Z" transform="translate(-749.635 -800.387)" fill="#e0e0df" fill-rule="evenodd"/><path d="M808.34,833.129,794.713,888.59l163.4,41.989-9.385-127.416q5.606,1.014,11.371,2.3l.953,12.944L1048.1,838.84l1.792-10.78c3.711.541,7.419,1.043,11.119,1.474l-1.826,10.987,86.876,6.905,1.923-15.333q5.687-.19,11.324-.429l-2.142,17.084,47.579,7.281,2.895-26.725q5.676-.261,11.26-.465l-19.231,177.583,47.27,6.136,16.893-183.892q5.633.242,11.142.662L1258.958,1003.7l7.377,1.535,4.8-50.138,82.494,25.392,1.364-126.3a120.384,120.384,0,0,1,11.026,8.57l-.884,81.9,47.427-6.2c1.382,4.1,2.686,8.4,3.958,12.8L1365,957.992l-1.123,104.142q-5.4,3.364-11.19,6.563l.345-31.956-95.283-19.833-1.174,12.784-16.583,60.724,9.279,17.968q-5.7,1.578-11.469,3.089l-9.99-19.344,17.819-65.249.106-1.164-47.484-6.162-6.858,63.335-53.714-8.753-6.888,59.719q-5.759.968-11.451,1.881l9.008-78.106-.971-54.336-87.667-21.343-4.242,147.593,15.769,5.079,36.492,5.947c-14.319,2.077-28.113,3.94-41.1,5.616-.514.066-1.027.121-1.54.185l-57.679-18.58,2.1,21.647c-3.769-.059-7.524-.163-11.251-.331l-2.311-23.828-81.921-2.846-2.487,11.94q-5.44-1.682-10.732-3.544l1.831-8.792-25.908-.9a250.429,250.429,0,0,1-26.608-14.15l55.249,1.92,9.276-44.549-63.82-2.773L819.2,1099.865q-4.975-3.465-9.647-7.146l15.705-51.7-11.031-10.87,21.939-56.787-58.882-13.838-17.459,71.06a132.97,132.97,0,0,1-6.78-19.561L793.2,847.616a146.809,146.809,0,0,1,15.144-14.487Zm26.456,215.4,67.1,2.915,66.9.1-4.667-48.108L847.383,976,827.9,1026.421l10.471,10.32-3.58,11.786Zm135.281,16.236-64.021-.1-9.294,44.64,77.9,2.707-4.583-47.248ZM840.95,960.98l16.5-42.708L791.58,901.346l-11.158,45.411L840.95,960.98Zm27.631-39.847-16.413,42.484,110.617,26-1.314-13.554-.022-.182L959.131,944.4l-90.55-23.269Zm93.483-88.982,10.5,142.589h0l5,51.57,49.678,2.018,2.223-77.33,16.476-99.155-83.879-19.691Zm94.949,21.47-16.466,99.093-.455,15.835,88.1,21.448,16.225-129.429-87.4-6.947Zm98.517,8.2-4.646,37.07,48.142,9.985,4.3-39.741-47.8-7.313Zm-6.29,50.185-10.83,86.385,1.073,60.075-.3,2.564,42.61,6.942,15.8-145.936-48.361-10.03Zm128.089,95.517,75.843,15.788.316-29.208-72.728-22.387-3.431,35.807ZM978.853,1039.59l7.182,74.031,38.4,12.37,2.427-84.451-48.012-1.95Z" transform="translate(-748.342 -799.334)" fill="#fff" fill-rule="evenodd"/></g><g transform="translate(0 194.72)"><path d="M848.97,1151.744c-98.473,2.805-161.591,7.127-161.591,11.977,0,5.43,79.094,10.2,198.36,12.918a229.383,229.383,0,0,1-36.769-24.9Z" transform="translate(-687.379 -838.099)" fill="#e0e0df" fill-rule="evenodd"/><path d="M1071.655,1149.324c-101.009,0-193.844,1.249-267.111,3.337a229.325,229.325,0,0,0,36.767,24.9c66.532,1.517,145.562,2.4,230.344,2.4,60.232,0,117.548-.444,169.555-1.245a664.344,664.344,0,0,0,63.095-26.932c-67.009-1.55-146.883-2.451-232.65-2.451Z" transform="translate(-642.963 -839.016)" fill="#5580c1" fill-rule="evenodd"/><path d="M907.8,1029.286c-39.233,12.878-105.717,19.765-153.933,34.44s-66.485,41.927-66.485,49.714v47.617c0,12.578,16.015,25.01,40.13,38.933s45.521,11.081,57.8,11.081h5.271a78.722,78.722,0,1,1,148.138,0h416.425a78.732,78.732,0,0,1,137.414-73.453,408.329,408.329,0,0,0,39.522-44.349,75.338,75.338,0,0,1-.766-10.077c0-30.248-58.4-90.442-67.683-100.025s-20.964-20.964-19.765-25.457,14.016-2.111,14.974-5.69-28.451-9.583-61.094-14.973-132.07-15.574-198.255-11.98-103.32,12.878-156.029,37.436-84.154,45.82-135.664,66.784Z" transform="translate(-687.379 -924.315)" fill="#ffc000" fill-rule="evenodd"/><path d="M1062.437,1087.815c-83.706,0-151.562,1.895-151.562,4.231s67.857,4.231,151.562,4.231S1214,1094.384,1214,1092.046s-67.857-4.231-151.561-4.231Z" transform="translate(-602.653 -862.334)" fill="#ffa700" fill-rule="evenodd"/><path d="M1317.5,1040.888c-.006-.332-.013-.665-.013-.993,0-.45-.015-.908-.04-1.37-9.068,1.975-20.755,5.07-32.806,12.221-3.013,1.789-6.152,4.048-9.509,6.461-6.726,4.839-14.352,10.323-23.694,13.856q1.362.7,2.689,1.458c8.719-3.619,15.938-8.811,22.359-13.431,3.292-2.368,6.371-4.583,9.336-6.344,11.562-6.862,22.838-9.915,31.677-11.859Z" transform="translate(-473.55 -881.019)" fill="#e67913" fill-rule="evenodd"/><path d="M1310.54,1042.751c-5.122-13.91-16.574-30.586-28.539-45.663-12.942-1.805-18.491-2.06-19.592,1.486-1.451,4.681,22.993,38.313,35.974,42.427a42.794,42.794,0,0,0,12.156,1.75Z" transform="translate(-469.413 -897.217)" fill="#e83039" fill-rule="evenodd"/><path d="M758.541,1024.146q-3,.85-5.922,1.736c-34.753,10.578-53.945,27.687-61.956,39.334,19.545,8.207,66.86-4.325,78.548-7.247,13.937-3.483,10.721-23.047,6.7-28-4.4-4.274-10.451-5.936-17.371-5.823Z" transform="translate(-686.134 -886.472)" fill="#fff" fill-rule="evenodd"/><path d="M1358.442,1007.616c-10.256,11.219-142.154,10.785-177.9,10.79-74.777.012-243.244,13.689-243.244,11.4,0-4.213,24.493-5.345,80.83-11.076,28.643-2.914,65.515-5.927,111.585-8.389,136.685-7.3,243.658-19.049,228.731-2.724Z" transform="translate(-592.637 -895.86)" fill="#ffdc46" fill-rule="evenodd"/><path d="M739.745,1030.12c-6.587,0-17.4,7.02-24.155,15.678s-6.889,15.679-.3,15.679,17.4-7.02,24.155-15.679,6.89-15.678.3-15.678Z" transform="translate(-678.639 -884.206)" fill="#eee" fill-rule="evenodd"/><path d="M1245.263,1060.2a72.652,72.652,0,0,0-59.374,114.516c45.517-24.461,85.461-53.179,118.305-84.351a72.544,72.544,0,0,0-58.931-30.165Z" transform="translate(-503.43 -872.803)" fill="#040505" fill-rule="evenodd"/><path d="M835.89,1060.2a72.647,72.647,0,1,0,72.646,72.646A72.647,72.647,0,0,0,835.89,1060.2Z" transform="translate(-658.62 -872.803)" fill="#040505" fill-rule="evenodd"/><path d="M1237.784,953.018c10.061,8.3,24.145,47.535,26.661,61.872,0,0-163.229,8.047-187.625,11.066l3.772-90.04s145.12,7.545,157.193,17.1Z" transform="translate(-539.745 -919.918)" fill="#fff" fill-rule="evenodd"/><path d="M1237.644,951.511c6.284,5.184,14.138,22.438,19.762,38.156-12.865,4.8-30.1,5.03-38.871,11.033-5.584,3.821-4.694,9.378-1.059,15.069-35.023,1.827-81.943,4.372-112.526,6.411,17.807-15.583,6.337-33.464,19.023-42.752,17.65-12.922,59.632,0,71.647-13.777,4.2-4.81,5.514-13.045,5.454-21.724,18.74,2.276,33.114,4.848,36.569,7.583Zm-160.456,60.795.194-4.666a18.094,18.094,0,0,0,5.474-1.22,12.229,12.229,0,0,0,6.6-6.131c1.9-3.946,2.369-9.691.545-17.7-3.423-15.028,4.205-21.725,16.026-24.418,10.516-2.4,24.353-1.386,36.136-.525,9.932.725,18.331,1.339,20.992-.192,4.935-2.834,3.336-7.97.359-13.151-.829-1.442-1.8-2.937-2.784-4.413q2.929.248,5.85.506.486.79.952,1.6c4.206,7.32,6.2,14.729-2.068,19.478-3.912,2.248-12.947,1.589-23.629.808-11.479-.839-24.962-1.823-34.79.416-9.21,2.1-15.159,7.28-12.518,18.874,2.079,9.127,1.444,15.893-.891,20.732a16.767,16.767,0,0,1-9.033,8.422,22.929,22.929,0,0,1-7.412,1.578Z" transform="translate(-539.605 -918.41)" fill="#eee" fill-rule="evenodd"/><path d="M1119.231,935.916l-16.851,93.56s-194.667,18.36-196.932,16.1,13.791-46.766,15.049-49.88,73.483-49.969,198.734-59.777Z" transform="translate(-604.793 -919.918)" fill="#fff" fill-rule="evenodd"/><path d="M1119.23,935.916l-4.457,24.745c-19.776,1.906-39.912,2.637-43.095,10.947-8.01,20.915,25.832,20.193,18.245,48.507a19.594,19.594,0,0,1-7.606,11.234c-49.762,4.614-175.055,16.037-176.87,14.224-.57-.571.025-3.833,1.254-8.437,40.161-14.456,89.325-10.622,89.325-22.246,0-15.6-34.266-12.684-29.816-30.329,4.336-17.195,74.573-19.1,78.167-37.634a547.741,547.741,0,0,1,74.853-11.011Zm-203.495,73.01c.992-2.851,1.911-5.441,2.676-7.568,5.756-2.655,11.521-2.22,16.338-1.856,3.9.294,6.984.527,7.985-1.48,1.018-2.04-.946-5.363-3.085-8.987-.8-1.358-1.623-2.749-2.361-4.166q1.955-1.057,4.128-2.183c.677,1.353,1.466,2.689,2.233,3.987,2.811,4.761,5.389,9.128,3.249,13.421-2.4,4.806-6.854,4.47-12.493,4.043-5.423-.41-12.252-.925-18.669,4.79Z" transform="translate(-604.793 -919.918)" fill="#eee" fill-rule="evenodd"/><path d="M928.279,983.984s-63.064,38.919-65.825,43.56,54.146,0,54.146,0a227.97,227.97,0,0,1,11.68-43.56Z" transform="translate(-621.046 -901.695)" fill="#fff" fill-rule="evenodd"/><path d="M952.821,1004.991c-.666,12-10.258,15.061-16.919,14.261s-23.183-6.54-23.183-14.261,9.592-16.248,20.051-16.248,20.64,5.531,20.051,16.248Z" transform="translate(-601.954 -899.891)" fill="#ffc000" fill-rule="evenodd"/><path d="M1222.658,1011.276c.134,4.929,5.6,7.195-11.324,6.661s-32.908,3.73-31.576-1.466,12.857-8.659,21.883-8.659,21.961-2.4,21.016,3.464Z" transform="translate(-500.751 -892.847)" fill="#fff" fill-rule="evenodd"/><path d="M1063.65,1021.127c.132,4.93,5.595,7.2-11.325,6.661s-32.906,3.73-31.574-1.465,12.857-8.659,21.882-8.659,21.962-2.4,21.017,3.463Z" transform="translate(-561.03 -889.111)" fill="#fff" fill-rule="evenodd"/><path d="M1331.083,1014.89s13.159,50.1,5.656,63.71-26.558,15.4-52.673,40.176-25.221,57.2-33.033,61.183-138.156,3.766-138.156,3.766-199.864,7.335-205.838,1.785-5.973-65.343-5.973-82.108-.79-47.384,5.88-57.966m227.214-109.519-9.927,90.04c-3.412,13.443-11.357,93.38-11.357,157.769" transform="translate(-606.383 -919.918)" fill="none" stroke="#e67913" stroke-miterlimit="22.926" stroke-width="2.835"/><path d="M694.945,1077.4c0,1.738,52.888,7.506,63.8,3.475s10.077-11.815-1.6-11.815-24.672,4.789-38.155,5.7-24.046.91-24.046,2.641Z" transform="translate(-684.511 -869.443)" fill="#ffdc46" fill-rule="evenodd"/><path d="M715.335,1092.8s-1.375,12.254-.375,16.38,2.875,8,7.752,7.877,12.476-6.5,12.476-16.255-19.853-8-19.853-8Z" transform="translate(-677.061 -860.49)" fill="#fff" fill-rule="evenodd"/><path d="M708.692,1090.054c12.634,1.249,26.491-1.553,31.108,4.612,4.156,5.552,3.351,12.74-4.6,23.393" transform="translate(-679.299 -861.485)" fill="none" stroke="#e67913" stroke-miterlimit="22.926" stroke-width="2.126"/><path d="M1238.02,1079.305a46.3,46.3,0,0,0-36.25,75.1,553.735,553.735,0,0,0,75.393-53.528,46.262,46.262,0,0,0-39.144-21.567Z" transform="translate(-496.186 -865.56)" fill="#262626" fill-rule="evenodd"/><path d="M1255.9,1102.427a40.418,40.418,0,0,0-20.434-16.927,46.089,46.089,0,0,1,5.912,22.647,46.654,46.654,0,0,1-.415,6.2q7.65-5.877,14.937-11.917Z" transform="translate(-479.602 -863.211)" fill="#545454" fill-rule="evenodd"/><path d="M828.646,1079.305a46.3,46.3,0,1,0,46.3,46.3,46.3,46.3,0,0,0-46.3-46.3Z" transform="translate(-651.377 -865.56)" fill="#262626" fill-rule="evenodd"/><path d="M798.476,1152.6a40.267,40.267,0,0,0,53.907-59.316,46.324,46.324,0,0,1-53.907,59.316Z" transform="translate(-645.263 -860.262)" fill="#545454" fill-rule="evenodd"/><path d="M752.67,1032.5c-4.363,0-11.528,4.649-16,10.386s-4.565,10.386-.2,10.386,11.528-4.65,16-10.386,4.565-10.386.2-10.386Z" transform="translate(-669.989 -883.304)" fill="#ffeb54" fill-rule="evenodd"/><path d="M926.432,1005.022c4.264,2.4,7.494,3.261,3.615,13.554s-6.285,11.892-17.539,11.892-10.322-7.993-3.4-15.188,12.391-12.524,17.32-10.258Z" transform="translate(-605.275 -893.92)" fill="#fe9600" fill-rule="evenodd"/></g><g transform="translate(478.92)"><path d="M1063.1,867.236c6.553,0,11.864,1.059,11.864,2.366s-5.311,2.368-11.864,2.368-11.864-1.06-11.864-2.368,5.312-2.366,11.864-2.366Z" transform="translate(-1028.365 -751.234)" fill="#c1c1c0" fill-rule="evenodd"/><path d="M1069.385,783.121a34.733,34.733,0,0,1,34.734,34.734c0,19.182-34.734,83.635-34.734,83.635s-34.734-64.453-34.734-83.635a34.733,34.733,0,0,1,34.734-34.734Z" transform="translate(-1034.651 -783.121)" fill="#e83039" fill-rule="evenodd"/><path d="M1063.1,799.7a11.865,11.865,0,1,1-11.864,11.866A11.864,11.864,0,0,1,1063.1,799.7Z" transform="translate(-1028.365 -776.835)" fill="#84a8d8" fill-rule="evenodd"/></g></g><g transform="translate(0 68.239)"><path d="M798.625,854.022s-.459,15.176-5.748,19.775-7.358-20.005-7.358-20.005Z" transform="translate(-618.802 -824.569)" fill="#040505" fill-rule="evenodd"/><path d="M815.556,1187.089h0q-1.858,0-3.728,0c-81.3,0-147.2,4.547-147.2,10.157s65.9,10.159,147.2,10.159c28.877,0,55.806-.574,78.536-1.565h0c41.258-1.8,68.664-4.976,68.664-8.593C959.029,1191.72,895.13,1187.225,815.556,1187.089Z" transform="translate(-664.63 -698.22)" fill="#e0e0df" fill-rule="evenodd"/><path d="M822.433,925.165c.059-6.184.262-13.127-3.158-18.68s-19.4-2.063-31.457-2.5-40.57-8.026-44.823,2.063,0,17.485,0,17.485-10.569,8.8-17.018,19.438-11.711,30.94-15.264,37.9-6.974,24.224-4.87,35.953,1.579,25.086,6.054,29.43,18.027,8.968,37.766,10.077,63.182,10.8,63.182-16.184,19.291-44.4,9.587-114.982Z" transform="translate(-649.251 -806.733)" fill="#00307f" fill-rule="evenodd"/><path d="M818.7,923.355c.048-4.972.188-10.434-1.536-15.269-6.04.086-13.293.9-19.5.678-12.053-.434-40.57-8.026-44.823,2.065s0,17.484,0,17.484-10.571,8.8-17.018,19.44-11.711,30.938-15.265,37.895-6.974,24.224-4.868,35.953c2.06,11.473,1.6,24.505,5.769,29.132a114.4,114.4,0,0,0,24.476,3.788c19.738,1.109,63.182,10.8,63.182-16.184s19.291-44.4,9.588-114.982Z" transform="translate(-645.519 -804.922)" fill="#082970" fill-rule="evenodd"/><path d="M858.977,1183.864s1.818,15.077-12.537,14.607a224.331,224.331,0,0,1-25.935-2.365v2.365H797.727v-10.736l61.25-3.871Z" transform="translate(-614.174 -699.441)" fill="#53280e" fill-rule="evenodd"/><path d="M825.751,1030.313,846.326,1217.1h-23.47l-35.022-133.284-29.086,140.669H735.1l-.168-194.173Z" transform="translate(-637.979 -757.651)" fill="#0d194e" fill-rule="evenodd"/><path d="M792.352,977.21c5.024,14.373,15.071,28.055,31.482,26.672s0-44.223,0-44.223L792.352,977.21Z" transform="translate(-616.211 -784.436)" fill="#ffc086" fill-rule="evenodd"/><path d="M824.1,975.18a150.913,150.913,0,0,0-4.814-15.522l-14.918,8.317c-.228,9.792,2.5,19.8,14.443,20.3L824.1,975.18Z" transform="translate(-611.662 -784.436)" fill="#fca972" fill-rule="evenodd"/><path d="M760.146,891.433l-3.779,45.106h31.318s-7.152-24.813-7.152-37.544l-20.387-7.562Z" transform="translate(-629.853 -810.3)" fill="#ffc086" fill-rule="evenodd"/><path d="M759.324,891.433l-.789,9.409c7.08,7.268,16.491,14.019,23.68,16.8-1.368-6.58-2.5-13.574-2.5-18.651l-20.387-7.562Z" transform="translate(-629.031 -810.3)" fill="#f58254" fill-rule="evenodd"/><path d="M807.062,847.856s11.411,74.794-25.734,74.794-32.776-51.069-32.776-63.928V847.856Z" transform="translate(-632.876 -826.819)" fill="#ffc086" fill-rule="evenodd"/><path d="M748.644,883.871c11.493.914,19.9-6.69,19.9-12.977s-3.524-12.459-3.524-12.459a44.582,44.582,0,0,0,31.756,12.817c19.767-.343,28.513-10.578,27.363-23.454-.746-8.354-8.4-15.2-15.447-15.2s-19.309,5.257-27.889,5.257-18.116-3.657-24.151,1.487-5.576,10.287-5.576,10.287S736.4,853.291,736.4,865.979s9.634,18.725,11.889,18.6Z" transform="translate(-637.423 -832.602)" fill="#040505" fill-rule="evenodd"/><path d="M769.034,873.1a2.362,2.362,0,1,1-2.256,2.36,2.31,2.31,0,0,1,2.256-2.36Z" transform="translate(-625.906 -817.248)" fill="#040505" fill-rule="evenodd"/><path d="M785.5,873.325a2.363,2.363,0,1,1-2.258,2.36,2.309,2.309,0,0,1,2.258-2.36Z" transform="translate(-619.664 -817.164)" fill="#040505" fill-rule="evenodd"/><path d="M780.409,873.666c3.67,6.606,6.132,11.839-5.217,13.858a.886.886,0,0,1-1.06-.618c-.047-.4.354-.779.894-.841,9.5-1.68,6.8-5.937,3.6-11.7-.225-.359-.005-.807.488-1a1.1,1.1,0,0,1,1.3.3Z" transform="translate(-623.121 -817.182)" fill="#f58254" fill-rule="evenodd"/><path d="M734.316,937.329c3.149-4.676,37.865-23.137,37.865-23.137s5.581,11.569,16.286,11.569,9.957-12.766,9.957-12.766,36.794,9.783,40.257,13.551S857.412,988.9,857.412,988.9s-10.073,7.795-29.593,6.625c0,0,4.722,48.2,6.3,58.589s4.941,17.888,4,19.059c-6.394,7.939-26.942,10.913-36.005,12.136-21.818,2.946-46.469-.67-66.158-10.826-2.518-1.3,3.874-56.614,5.763-66.487,0,0-23.77-5.716-23.927-7.275S731.325,941.486,734.316,937.329Z" transform="translate(-644.479 -802.126)" fill="#ed4e29" fill-rule="evenodd"/><path d="M810.226,985.981a56.968,56.968,0,0,1-8.058.8l-1.338-50.476c9.99,16.872,9.694,42.556,9.4,49.675Z" transform="translate(-612.997 -793.289)" fill="#e13a18" fill-rule="evenodd"/><path d="M754.562,916.032l.86-.465a24.746,24.746,0,0,0,7.824,9.124c3.579,2.6,7.837,4.294,11.939,3.8,8.037-.974,10.753-5.174,11.369-9.387a17.833,17.833,0,0,0-.2-5.74l1.072.292a18.157,18.157,0,0,1,.13,5.547c-.663,4.539-3.586,9.066-12.226,10.113-4.432.536-8.97-1.251-12.753-4a25.818,25.818,0,0,1-8.017-9.285Z" transform="translate(-630.537 -801.986)" fill="#e13a18" fill-rule="evenodd"/><path d="M811,999.508c-2.344,11.422,1.552,21.489,7.436,21.824s11.486-2.387,20.194-18.418,16.913-57.352,18.252-59.7,14.234-.138,17.918-4.7,6.195-25.519,0-25.519-26.066,8.244-30.365,24.69-22.1,29.492-33.436,61.823Z" transform="translate(-609.405 -802.126)" fill="#ffc086" fill-rule="evenodd"/><path d="M819.548,1155.889c8.48,3.143,3.808,20,5.885,23.14s7.269,5.286,15.057,3.714,20.943-.142,20.943,9.285-3.343,12.855-20.943,12.855-41.944.03-43.019-3.285-1.114-32.145,1.085-35.288c.69-.822,6.549.862,8.813-1.137,3.392-3,4.278-9.734,12.18-9.283Z" transform="translate(-614.543 -710.054)" fill="#ed4e29" fill-rule="evenodd"/><path d="M833.881,1175.473c-3.9.5-6.392,3.615-7.906,6.32a1.085,1.085,0,0,1-1.3.485.8.8,0,0,1-.588-1.076c1.962-3.508,4.826-6.812,9.8-7.4a.85.85,0,1,1,0,1.67Z" transform="translate(-604.207 -703.255)" fill="#040505" fill-rule="evenodd"/><path d="M827.363,1176.11a12.111,12.111,0,0,0-7.57,4.654,1.107,1.107,0,0,1-1.338.419.783.783,0,0,1-.506-1.1,13.959,13.959,0,0,1,9.414-5.639.851.851,0,1,1,0,1.67Z" transform="translate(-606.542 -703.014)" fill="#040505" fill-rule="evenodd"/><path d="M821,1174.819c-1.4-.092-3.928,2-4.7,2.711a1.14,1.14,0,0,1-1.39.281.757.757,0,0,1-.341-1.146c1.608-1.53,4.21-3.762,6.97-3.456a.83.83,0,0,1,.7,1.028,1.052,1.052,0,0,1-1.244.582Z" transform="translate(-607.844 -703.491)" fill="#040505" fill-rule="evenodd"/><path d="M809.615,1178.063a28.386,28.386,0,0,1,5.418-6.547c-6.512-.523-11.55-3.06-5.765-5.133,2.187-.782,6.04.261,9.923,1.867,6.417-4.332,12.475-5.427,9.652-.818a8.174,8.174,0,0,1-4.555,3.209,55.1,55.1,0,0,1,6.17,3.656.739.739,0,0,1-.143,1.174,1.162,1.162,0,0,1-1.423-.117,74.087,74.087,0,0,0-7.335-4.054,25.282,25.282,0,0,1-3.386.3,37.039,37.039,0,0,0-6.584,6.828,1.033,1.033,0,0,1-1.211.629.844.844,0,0,1-.761-1Zm7.6-8.381.291-.223c-4.107-1.692-7.87-2.619-8.454-.74.685.735,4.315,1.136,8.163.964Zm4.049-.524.182.084c3.122-.543,5.656-1.575,5.865-3.25-1.433.149-3.681,1.436-6.047,3.167Z" transform="translate(-610.761 -706.801)" fill="#040505" fill-rule="evenodd"/><path d="M792.9,914.164c6.668,1.562,10.272,6.395,13.336,17.4s8.02,42.83,6.487,59.711a180.187,180.187,0,0,1-6.76,33.352s-3.241-32.46-4.052-39.6-9.1-50.119-12.885-59.191-6.307-10.3-5.676-11.675,9.55,0,9.55,0Z" transform="translate(-619.66 -801.915)" fill="#0d194e" fill-rule="evenodd"/><path d="M731.7,1187.247l-4.318.143c.256,7.351-1.627,17.7,21.26,18s21.259-7.471,21.351-15.65l-38.293-2.5Z" transform="translate(-640.841 -698.159)" fill="#53280e" fill-rule="evenodd"/><path d="M747.772,918.506c6.275-3.277,9.263-2.885,10.007-1.967a38.684,38.684,0,0,1,7.6,19.007c1.3,11.011,3.442,34.6,2.409,49.349s-17.12,47.58-35.179,49.547v-28.325c1.459.371,2.682.652,3.492.786,4.465.736,15.457,1.034,19.962-.974,0,0,2.361-17.326,2.361-26.1,0-7.123-4.692-39.937-8.979-46.249s-6.354-7.6-6.512-8.651.714-4,4.844-6.422Z" transform="translate(-638.861 -801.028)" fill="#0d194e" fill-rule="evenodd"/><path d="M741.691,875.7c0,5,4.073,8.465,9.252,8.465s6.919-6.985,6.919-8.576-2.26-7.931-8.084-7.931a7.675,7.675,0,0,0-8.087,8.043Z" transform="translate(-635.426 -819.313)" fill="#ffc086" fill-rule="evenodd"/><path d="M747.823,870.126c3.017-.356,6.366,1.452,6.022,4.981-.058.594-3.95.622-3.114,1.684a2.462,2.462,0,0,0,3.274.313c-.241,1.316-3.822,2.307-4.631-.008-.393-1.127.454-2.562,2.808-2.615-.492-2.673-2.291-3.493-3.973-3.242-3.444.513-3.809,2.125-4.043,3.129-.563-1.313.307-3.846,3.657-4.242Z" transform="translate(-634.539 -818.394)" fill="#f58254" fill-rule="evenodd"/><path d="M723.113,978.408c-1.961,6.36-4.1,16.4-1.637,24.92,3.947,13.683,30.529,82.753,30.529,82.753l11.053-7.818s-14.2-72.1-14.988-78.343a68.365,68.365,0,0,0,6.5-16.386c-4.934.459-10.79-.515-13.835-1.016s-12.3-2.514-17.622-4.108Z" transform="translate(-643.499 -777.328)" fill="#ffc086" fill-rule="evenodd"/><path d="M842.466,893.124l22.507,1.709a2.7,2.7,0,0,1,2.743,2.722l-4.574,41.072a2.938,2.938,0,0,1-3.3,2.265l-22.507-1.707a2.7,2.7,0,0,1-2.743-2.724l4.574-41.072a2.937,2.937,0,0,1,3.3-2.265Z" transform="translate(-600.204 -809.662)" fill="#e83039" fill-rule="evenodd"/><path d="M855.532,895.906h0a2.089,2.089,0,0,1,2.124,2.107l-.679,6.1a2.275,2.275,0,0,1-2.554,1.754h0a2.091,2.091,0,0,1-2.124-2.109l.68-6.1a2.272,2.272,0,0,1,2.554-1.753Z" transform="translate(-593.49 -808.607)" fill="#040505" fill-rule="evenodd"/><path d="M855,896.719a1.338,1.338,0,0,1,1.364,1.353,1.455,1.455,0,0,1-1.64,1.124,1.337,1.337,0,0,1-1.363-1.353A1.453,1.453,0,0,1,855,896.719Z" transform="translate(-593.085 -808.298)" fill="#262626" fill-rule="evenodd"/><path d="M854.319,901.194a.789.789,0,0,1,.8.8.859.859,0,0,1-.968.663.789.789,0,0,1-.8-.8.859.859,0,0,1,.968-.665Z" transform="translate(-593.089 -806.6)" fill="#fff" fill-rule="evenodd"/><path d="M854.753,898.956a1.336,1.336,0,0,1,1.363,1.353,1.453,1.453,0,0,1-1.638,1.124,1.334,1.334,0,0,1-1.362-1.351,1.455,1.455,0,0,1,1.638-1.125Z" transform="translate(-593.179 -807.449)" fill="#262626" fill-rule="evenodd"/><path d="M751.578,1164.961c16.318.652,11.186,14.278,10.659,20.17s7.5,7.849,7.764,13.062-4.475,11.447-20.857,11.447-21.779-5.945-21.779-14.81,8.858-9.687,8.858-15.127-4.671-14.387,15.355-14.741Z" transform="translate(-640.848 -706.607)" fill="#ed4e29" fill-rule="evenodd"/><path d="M737.141,1185.461c3.624-2.329,9.528-1.881,13.148.213a.736.736,0,0,1,0,1.18,1.165,1.165,0,0,1-1.43,0c-2.593-1.442-7.738-1.839-10.339-.171a1.167,1.167,0,0,1-1.43-.041.738.738,0,0,1,.051-1.181Z" transform="translate(-637.264 -699.428)" fill="#040505" fill-rule="evenodd"/><path d="M738.07,1181.4c3.042-1.51,8.082-1.8,10.889.3a.736.736,0,0,1-.08,1.178,1.165,1.165,0,0,1-1.427-.065c-1.747-1.284-6.174-1.049-8.055-.149a1.164,1.164,0,0,1-1.426-.083.736.736,0,0,1,.1-1.177Z" transform="translate(-636.921 -700.83)" fill="#040505" fill-rule="evenodd"/><path d="M738.109,1178.417c2.156-2.456,8.611-2.688,11.266-.08a.751.751,0,0,1-.277,1.159,1.151,1.151,0,0,1-1.4-.23c-1.672-1.637-6.725-1.216-7.79-.079a1.125,1.125,0,0,1-1.364.356.77.77,0,0,1-.43-1.125Z" transform="translate(-636.818 -702.242)" fill="#040505" fill-rule="evenodd"/><path d="M735,1182.054a35.043,35.043,0,0,1,7.648-6.858c-5.331-1.464-9.134-4.271-6.382-6.289,2.438-1.787,6.253,1.254,9.7,4.388,8.609-4.249,15.589-2.555,11.7.611-2.111,1.72-5.281,2.34-8.574,2.259a14.625,14.625,0,0,0,2.917,2.2,34.141,34.141,0,0,0,6.48,2.31.821.821,0,0,1,.669,1.044,1.062,1.062,0,0,1-1.265.552l-3.5-1.052a25.579,25.579,0,0,1-8.437-5.305c-3.935,2.383-7.771,5.254-9.119,6.84a1.112,1.112,0,0,1-1.342.411.781.781,0,0,1-.5-1.107Zm8.677-8.248c-2.226-2.084-4.066-3.713-6.029-3.674-.052.031-.113.073-.125.117-.425,1.474,2.482,2.806,6.155,3.557Zm4.9.6c3.58.16,6.88-.345,7.848-1.87-.665-1.368-4.045-.178-7.848,1.87Z" transform="translate(-637.99 -705.313)" fill="#040505" fill-rule="evenodd"/><path d="M741.971,993.612c2.241-4.079,10.387-18.03,11.547-41.206a127.271,127.271,0,0,1,1.351,13.58c0,8.775-2.361,26.1-2.361,26.1-2.357,1.051-6.491,1.47-10.538,1.525Z" transform="translate(-635.311 -787.185)" fill="#e13a18" fill-rule="evenodd"/><path d="M760.832,1048.587c-5.893,6.94-10.811,12.067-21.35,13.171a.85.85,0,1,1,0-1.669c9.535-1.01,14.307-6.1,19.579-12.308a1.13,1.13,0,0,1,1.374-.328.765.765,0,0,1,.4,1.135Z" transform="translate(-636.637 -751.193)" fill="#040505" fill-rule="evenodd"/><path d="M862.949,915.319s-10.355-8.839-12.424-6.769,9.01,9.63,9.01,9.63-12.073-6.553-12.417-3.794,11.728,10,11.728,10-11.038-3.449-11.728-.345,10.347,4.828,10.347,4.828-11.382,0-12.073,1.725,14.832,5.518,14.832,5.518Z" transform="translate(-596.113 -803.93)" fill="#ffc086" fill-rule="evenodd"/><path d="M764.069,869.33a7.707,7.707,0,0,1,6.278-2.613" transform="translate(-626.933 -819.676)" fill="none" stroke="#040505" stroke-miterlimit="10" stroke-width="0.342" fill-rule="evenodd"/><path d="M782.482,870.138a7.708,7.708,0,0,1,6.713,1.085" transform="translate(-619.953 -818.5)" fill="none" stroke="#040505" stroke-miterlimit="10" stroke-width="0.342" fill-rule="evenodd"/><path d="M769.844,886.095a11.488,11.488,0,0,0,13,1.059" transform="translate(-624.744 -812.323)" fill="none" stroke="#040505" stroke-miterlimit="10" stroke-width="0.342" fill-rule="evenodd"/></g></g></g></svg>