<svg xmlns="http://www.w3.org/2000/svg" width="187.528" height="86.58" viewBox="0 0 187.528 86.58">
  <g id="taxiye-log" transform="translate(-45.62 -115.756)">
    <path id="Path_3" data-name="Path 3" d="M111.823,165.864a9.9,9.9,0,0,1-4.55,3.595c-6.454,2.359-12.451-.96-13.517-7.907a11.951,11.951,0,0,1,2.884-10.384,14.36,14.36,0,0,1,7.742-4.071,23.538,23.538,0,0,1,5.9-.606c.606.018.758-.2.718-.759-.186-2.656-1.963-4.161-5.039-4.2a15.053,15.053,0,0,0-8.528,2.594l-.553-2.037c-.19.772-.333,1.415-.507,2.049-.888,3.23-2.673,6.027-4.361,8.86-2.344,3.936-5.221,7.512-7.814,11.281a83.715,83.715,0,0,0-9.181,16.688,81.655,81.655,0,0,0-3.353,11.912c-.046.2-.008.446-.272.61a4.273,4.273,0,0,1-.36-1.314c-2.066-10.569-6.745-19.955-12.947-28.66-3.1-4.344-6.247-8.647-8.981-13.24a22.026,22.026,0,0,1-3.4-9.434,20.628,20.628,0,0,1,3.089-13.19,24.892,24.892,0,0,1,17.456-11.424,27.7,27.7,0,0,1,19.261,3.309,22.57,22.57,0,0,1,11.02,14.4c.2.8.318,1.619.486,2.5a23.418,23.418,0,0,1,4.585-1.6,20.748,20.748,0,0,1,10.249-.049c4.51,1.279,6.869,4.516,7.9,8.9a23.169,23.169,0,0,1,.564,5.17c.03,5.411.021,10.823.066,16.234a36.813,36.813,0,0,0,.279,3.731c.058.521-.113.612-.579.608-2.352-.018-4.706-.035-7.057.011-.59.012-.689-.251-.753-.707C112.147,167.844,112,166.956,111.823,165.864ZM74.565,152.19h.013q0-8.115,0-16.229c0-.944.263-1.207,1.218-1.208,2.989,0,5.977-.017,8.965.011.548,0,.73-.147.721-.692-.027-1.615-.044-3.232,0-4.845.018-.634-.2-.754-.79-.76-9.136-.087-18.271-.07-27.407,0-.454,0-.651.086-.645.6q.034,2.5-.026,4.993c-.015.576.157.749.741.742,2.963-.035,5.928-.027,8.891-.036.857,0,1.166.294,1.166,1.11q0,3.56,0,7.12.019,12.7.032,25.408c0,.55.111.769.721.756,1.812-.042,3.626-.054,5.437.006.768.025.985-.2.98-.962C74.551,162.863,74.565,157.527,74.565,152.19Zm36.668,3.389h.067c0-.661,0-1.321,0-1.982,0-.281-.06-.476-.4-.459a13.507,13.507,0,0,0-5.434,1.034,4.611,4.611,0,0,0-2.728,4.7c.14,3.066,2.707,4.641,5.472,3.341A5.062,5.062,0,0,0,111.218,158,21.465,21.465,0,0,0,111.233,155.579Z" transform="translate(0 0)" fill="#fff" />
    <path id="Path_4" data-name="Path 4" d="M575.215,216.689c.28-1.333.557-2.667.842-4q1.992-9.326,3.979-18.653c.092-.434.252-.6.722-.6,2.916.022,5.831.012,8.747.009.355,0,.629-.016.462.511-3.465,10.9-6.368,21.98-10.381,32.706a42.926,42.926,0,0,1-4.676,9.446,16.752,16.752,0,0,1-10.458,7.282c-.551.121-.708-.013-.815-.536q-.8-3.916-1.678-7.818c-.122-.538.038-.68.53-.84a12.161,12.161,0,0,0,7.379-6.311,3.068,3.068,0,0,0,.036-2.493q-4.634-13.374-9.254-26.752c-.527-1.525-1.043-3.054-1.586-4.573-.165-.46-.125-.636.432-.632,3.038.022,6.077.017,9.115,0a.6.6,0,0,1,.706.535c1.858,7.4,4.013,14.719,5.609,22.183a5.532,5.532,0,0,0,.169.528Z" transform="translate(-386.479 -58.48)" fill="#fff" />
    <path id="Path_5" data-name="Path 5" d="M708.09,211.593c-2.964,0-5.928.017-8.892-.014-.6-.006-.671.177-.571.712a6.828,6.828,0,0,0,6.018,5.608,19.981,19.981,0,0,0,9.763-.963c.689-.232.8-.031.886.559.3,1.982.625,3.962.983,5.935a.611.611,0,0,1-.438.819,25.764,25.764,0,0,1-9.217,1.92,19.117,19.117,0,0,1-6.736-.822,13.206,13.206,0,0,1-8.616-8.231,22.954,22.954,0,0,1,1.427-19.967,13.547,13.547,0,0,1,17.5-5.839,12.171,12.171,0,0,1,6.123,6.83,26.139,26.139,0,0,1,1.467,12.912c-.054.511-.319.548-.731.547C714.067,211.587,711.079,211.593,708.09,211.593Zm-4.133-7.323q2.424,0,4.848,0c.315,0,.652.067.6-.462a9.745,9.745,0,0,0-1.084-4.075,4.722,4.722,0,0,0-7.516-1.014,8.629,8.629,0,0,0-2.258,5.066c-.076.5.217.489.561.488C700.726,204.267,702.342,204.27,703.957,204.27Z" transform="translate(-484.851 -55.981)" fill="#fff" />
    <path id="Path_6" data-name="Path 6" d="M379.461,204.306c1.416-3.466,2.972-6.677,4.446-9.924a1.438,1.438,0,0,1,1.582-1c2.669.059,5.34.022,8.01.022h.793c.065.343-.14.514-.257.711q-4.5,7.568-9.018,15.126a1.028,1.028,0,0,0-.016,1.188q4.59,8.317,9.148,16.652c.117.212.226.427.336.636-.155.238-.37.139-.544.14-3.086.007-6.173-.006-9.259.017a.818.818,0,0,1-.873-.564c-1.611-3.455-3.381-6.836-4.812-10.374-.054-.133-.127-.258-.187-.378-.3.026-.289.274-.359.432q-2.3,5.158-4.576,10.323c-.127.286-.2.563-.639.56-3.208-.02-6.416-.011-9.631-.011-.084-.363.166-.574.3-.811q4.595-8.022,9.215-16.029a1.176,1.176,0,0,0,.016-1.378c-3.036-5.166-6.038-10.351-9.049-15.532-.408-.7-.4-.707.416-.707,2.915,0,5.83.016,8.745-.014a1.115,1.115,0,0,1,1.177.709c1.616,3.182,3.224,6.367,4.712,9.612C379.208,203.864,379.3,204,379.461,204.306Z" transform="translate(-239.382 -58.444)" fill="#fff" />
    <path id="Path_7" data-name="Path 7" d="M504.642,210.7c0-5.458.018-10.916-.02-16.374-.006-.771.227-.927.945-.915,2.547.043,5.094.031,7.641.005.537-.005.714.132.713.693q-.024,16.557,0,33.115c0,.577-.2.677-.718.673-2.62-.025-5.242-.033-7.862,0-.619.009-.713-.215-.711-.755C504.649,221.662,504.642,216.18,504.642,210.7Z" transform="translate(-345.558 -58.46)" fill="#fff" />
    <path id="Path_11" data-name="Path 11" d="M120.256,442.267a23.7,23.7,0,0,1,7.081,1.033,5.359,5.359,0,0,1,1.756.893c.836.687.828,1.376-.028,2.053a5.449,5.449,0,0,1-1.762.881,26,26,0,0,1-9.585.945,20.238,20.238,0,0,1-5.329-.953,6.438,6.438,0,0,1-1.458-.681c-1.228-.8-1.222-1.7.028-2.482a9.173,9.173,0,0,1,2.946-1.085A28.677,28.677,0,0,1,120.256,442.267Z" transform="translate(-48.48 -245.813)" fill="#fff" />
    <path id="Path_12" data-name="Path 12" d="M503.814,138.229c-.019-2.9,1.557-4.988,4-5.33,3.42-.479,5.958,2.024,5.771,5.691-.174,3.407-2.837,5.572-6.049,4.918a4.854,4.854,0,0,1-3.72-4.472C503.8,138.769,503.814,138.5,503.814,138.229Z" transform="translate(-344.944 -12.862)" fill="#fff" />
    <g id="Group_1032" data-name="Group 1032" transform="translate(87.671 173.918)">
      <path id="Path_14" data-name="Path 14" d="M444.638,400.665c.832-.268.977-.178,1.075.666-.559,1.488-1.365,2.862-2.023,4.3a41.29,41.29,0,0,0-2.609,7.137,4.7,4.7,0,0,0-.172,1.81c.058.418.023.942-.5.982-.615.047-.608-.525-.619-.955a8.854,8.854,0,0,1,.5-2.8,52.875,52.875,0,0,1,2.844-7.052c.093-.2.171-.4.255-.606.08-.095.135-.219.031-.3-.078-.061-.154.042-.2.124a52.642,52.642,0,0,0-3.929,6.444c-.315.578-.665,1.139-1.025,1.691a.926.926,0,0,1-1.113.506c-.468-.176-.44-.652-.413-1.07a15.469,15.469,0,0,1,1.223-4.66c.317-.808.655-1.607,1.06-2.6a2.7,2.7,0,0,0-.88,1.014,50.405,50.405,0,0,0-4.515,9.442,6.969,6.969,0,0,1-.449,1c-.144.26-.374.53-.7.382-.358-.161-.212-.505-.118-.774a47.072,47.072,0,0,1,1.819-4.557,52.094,52.094,0,0,1,5.221-8.74,8.131,8.131,0,0,1,.761-.892.586.586,0,0,1,.79-.162.677.677,0,0,1,.277.838,8.647,8.647,0,0,1-.474,1.071,32.057,32.057,0,0,0-2.635,6.9,1.709,1.709,0,0,0-.1.861c.28-.1.324-.368.436-.57a85.509,85.509,0,0,1,5.339-8.424C444.054,401.326,444.357,401,444.638,400.665Z" transform="translate(-384.855 -400.531)" fill="#fff" />
      <path id="Path_15" data-name="Path 15" d="M242.417,411.453c-.2.08-.409.154-.61.24-.249.106-.5.263-.694-.081a.539.539,0,0,1,.174-.774,4.249,4.249,0,0,1,1.121-.527,3.139,3.139,0,0,0,1.9-1.578,43.675,43.675,0,0,1,4.707-6.274,5.794,5.794,0,0,1,.582-.56c.233-.2.515-.353.8-.167a.7.7,0,0,1,.29.839c-.254.842-.524,1.679-.763,2.525-.233.822-.439,1.652-.649,2.48-.087.342-.1.636.41.574.352-.042.65.04.64.488-.009.414-.243.684-.64.634-.795-.1-.911.377-1.013.984a43.194,43.194,0,0,0-.723,5.594c-.01.283-.047.586-.384.615-.362.031-.5-.27-.554-.572a7.625,7.625,0,0,1,.094-2.48c.146-1.114.336-2.224.563-3.323.1-.486-.084-.507-.441-.411a23.865,23.865,0,0,0-2.582.831,1.243,1.243,0,0,0-.653.653q-1.175,2.239-2.35,4.478a4.793,4.793,0,0,1-.289.508c-.149.214-.355.375-.622.234a.458.458,0,0,1-.2-.633c.237-.562.467-1.128.737-1.673.411-.831.853-1.648,1.282-2.47l.048-.174Zm2.723-2.232c1-.3,1.811-.542,2.623-.771a.419.419,0,0,0,.31-.355c.377-1.4.762-2.807,1.2-4.408A29.348,29.348,0,0,0,245.14,409.221Z" transform="translate(-240.484 -401.372)" fill="#fff" />
      <path id="Path_16" data-name="Path 16" d="M357.8,436.749a6.134,6.134,0,0,0,1.722-1.958c.147-.214.175-.7.556-.491.261.142.114.539-.012.8a7.693,7.693,0,0,1-2.494,2.927,2.335,2.335,0,0,0-.888,1.191,23.81,23.81,0,0,1-1.394,3.222,5.6,5.6,0,0,1-1.264,1.693,1.455,1.455,0,0,1-1.747.342,1.473,1.473,0,0,1-.616-1.606,4.209,4.209,0,0,1,1.226-2.366,6.239,6.239,0,0,1,1.739-1.451,4.3,4.3,0,0,0,2.239-2.973c.035-.084.09-.172-.015-.241a1.6,1.6,0,0,0-.114.14,12.268,12.268,0,0,1-1.521,1.575c-.334.219-.682.442-1.088.235-.442-.225-.382-.674-.313-1.043a9.222,9.222,0,0,1,2.426-4.441c.172-.192.408-.317.649-.126a.492.492,0,0,1,.056.724c-.31.439-.654.853-.974,1.286a7.544,7.544,0,0,0-1.01,1.7c-.071.181-.19.4,0,.538s.376-.026.52-.151a11.974,11.974,0,0,0,2.147-2.493c.339-.508.658-1.03,1-1.534.177-.259.383-.6.755-.375.339.2.225.565.091.855-.43.931-.887,1.849-1.318,2.78-.174.375-.306.768-.458,1.153-.04.065-.074.132.011.185C357.715,436.847,357.765,436.781,357.8,436.749Zm-2.413,2.819a7.223,7.223,0,0,0-2.279,2.071,2.125,2.125,0,0,0-.464,1.289c.016.551.367.744.827.432a2.121,2.121,0,0,0,.5-.526A11.34,11.34,0,0,0,355.382,439.567Z" transform="translate(-324.165 -424.07)" fill="#fff" />
      <path id="Path_17" data-name="Path 17" d="M555.324,434.892a8.446,8.446,0,0,0,2.118-2.612c.121-.2.173-.634.52-.464.3.149.095.5,0,.722a9.018,9.018,0,0,1-2.879,3.553,2.751,2.751,0,0,0-.893,1.2,16.473,16.473,0,0,1-1.9,3.709,3.264,3.264,0,0,1-.945.909,1.045,1.045,0,0,1-1.707-.9,3.4,3.4,0,0,1,.778-2.239,10.609,10.609,0,0,1,2.9-2.332c.636-.42.718-.546.861-1.461-.218.166-.4.315-.589.446-.743.509-1.321.252-1.444-.643a1.456,1.456,0,0,1,.006-.51,8.357,8.357,0,0,1,2.641-4.628,2.848,2.848,0,0,1,.743-.46c.85-.36,1.4.044,1.334.968a6.4,6.4,0,0,1-.906,3.118A3.84,3.84,0,0,0,555.324,434.892Zm-2.231-.813c-.043.272-.036.474.163.586a.4.4,0,0,0,.466-.116,4.8,4.8,0,0,0,.458-.473c.8-.946,1.022-2.206,1.717-3.214a.413.413,0,0,0,0-.546c-.205-.173-.42-.033-.586.115A7.316,7.316,0,0,0,553.094,434.079Zm.031,3.451a5.125,5.125,0,0,0-2.493,2.7c-.107.283-.207.589.107.784.291.18.518-.054.686-.249A10.413,10.413,0,0,0,553.125,437.53Z" transform="translate(-473.226 -422.009)" fill="#fff" />
      <path id="Path_18" data-name="Path 18" d="M281.1,416.04a21.2,21.2,0,0,1,2.544-.677,4.453,4.453,0,0,1,.729-.039.488.488,0,0,1,.528.561c-.015.344-.163.59-.525.565a6.144,6.144,0,0,0-3.2.9c-.384.192-.812.472-1.227.124a1.138,1.138,0,0,1-.223-1.353,33.649,33.649,0,0,1,2.332-5.206,69.872,69.872,0,0,1,3.84-6.325,4.058,4.058,0,0,1,.4-.524.466.466,0,0,1,.654-.117.454.454,0,0,1,.115.6,8.061,8.061,0,0,1-.593,1.009,49.028,49.028,0,0,0-5.17,9.257c-.14.361-.235.741-.351,1.111l.035.18Z" transform="translate(-269.938 -403.037)" fill="#fff" />
      <path id="Path_19" data-name="Path 19" d="M309.26,434.957c-.565.523-.959,1.14-1.5,1.629-.294.264-.606.58-1.027.357a1.015,1.015,0,0,1-.424-1.029,4.2,4.2,0,0,1,.373-1.483,11.866,11.866,0,0,1,1.689-2.9c.22-.278.5-.771.928-.432s.05.7-.2,1a10.344,10.344,0,0,0-1.642,2.675c-.084.2-.229.463-.024.6s.41-.094.559-.246a23.463,23.463,0,0,0,2.2-2.923c.267-.372.517-1.043,1.084-.685.493.311-.044.789-.194,1.155a17.632,17.632,0,0,0-1,2.514c-.05.209-.145.463.121.576.223.095.354-.132.471-.272a8.467,8.467,0,0,0,1.781-3.963,2.253,2.253,0,0,1,.31-.891.464.464,0,0,1,.5-.232c.247.055.261.26.255.462a2.275,2.275,0,0,1-.034.438,12.139,12.139,0,0,1-2.648,5.241c-.327.386-.74.727-1.272.5-.571-.249-.414-.82-.4-1.294A7.555,7.555,0,0,1,309.26,434.957Z" transform="translate(-290.036 -423.015)" fill="#fff" />
      <path id="Path_20" data-name="Path 20" d="M341.225,435.107a12.561,12.561,0,0,1-.943,1.167.887.887,0,0,1-1.577-.436,2.856,2.856,0,0,1-.014-1.38,7.736,7.736,0,0,1,2.048-4.059,2.556,2.556,0,0,1,1.1-.712c.85-.254,1.276.24,1.3,1.113a9.562,9.562,0,0,1-.8,2.826,5.066,5.066,0,0,0-.27,1.579.872.872,0,0,0,.469.777c.345.185.456.481.239.788s-.579.228-.859.051C341.328,436.452,341.277,435.824,341.225,435.107Zm-1.664-.543c.006.348-.059.665.259.781.272.1.447-.138.612-.315a2.826,2.826,0,0,0,.26-.354c.7-1.039,1-2.274,1.65-3.344.2-.323-.078-.493-.382-.523a.852.852,0,0,0-.706.333A6.591,6.591,0,0,0,339.561,434.564Z" transform="translate(-314.359 -422.431)" fill="#fff" />
      <path id="Path_21" data-name="Path 21" d="M539.186,435.449a8.592,8.592,0,0,0-1.709,2.536,5.166,5.166,0,0,1-.362.633.368.368,0,0,1-.446.163.378.378,0,0,1-.26-.4,2.9,2.9,0,0,1,.123-.714,26.518,26.518,0,0,1,1.91-4.2c.163-.294.326-.808.78-.562.407.221.17.644.013.979a.223.223,0,0,0,.052.314c.438-.383.874-.792,1.34-1.163.259-.206.592-.521.908-.24s.127.7-.086,1a10.394,10.394,0,0,0-1.615,3.024,3.126,3.126,0,0,0,.07,2.355c.121.244.234.548-.082.709-.351.179-.607-.026-.77-.345a4.026,4.026,0,0,1-.082-2.933c.089-.354.24-.691.363-1.036.038-.076.108-.16,0-.222C539.308,435.338,539.236,435.414,539.186,435.449Zm-.036-1.125a1.178,1.178,0,0,0,.139-.157c.006-.008-.065-.088-.081-.082a1.014,1.014,0,0,0-.174.1Z" transform="translate(-463.268 -424.737)" fill="#fff" />
      <path id="Path_22" data-name="Path 22" d="M388.821,434.225a2.1,2.1,0,0,1,.417-1.286c.139-.182.327-.359.557-.232s.06.341,0,.517a1.949,1.949,0,0,0-.019,1.567c.229.439.59.7,1.076.5a.8.8,0,0,0,.4-1.054,6.621,6.621,0,0,0-.605-1.247,2.374,2.374,0,0,1,.074-2.691,3.078,3.078,0,0,1,3.012-1.29c.533.076.716.458.712.952a2.44,2.44,0,0,1-2.041,2.184c-.225.019-.522.116-.6-.234a.471.471,0,0,1,.392-.6,2.013,2.013,0,0,0,1.044-.491c.186-.207.358-.426.2-.716s-.427-.211-.658-.171a1.843,1.843,0,0,0-1.394,2.62c.2.445.481.855.656,1.308a1.767,1.767,0,0,1-1,2.414C389.84,436.726,388.821,435.867,388.821,434.225Z" transform="translate(-352.158 -421.943)" fill="#fff" />
      <path id="Path_23" data-name="Path 23" d="M505.166,434.518c.5.2.746-.162,1.049-.386.182-.135.354-.428.62-.2s.127.5-.021.731a1.611,1.611,0,0,1-1.709.884.516.516,0,0,0-.668.348,7.011,7.011,0,0,1-1.54,2.126c-.3.265-.627.539-1.047.33a1.067,1.067,0,0,1-.5-1,5.011,5.011,0,0,1,.522-2.19c.355-.883.762-1.745,1.151-2.614.1-.22.194-.513.5-.417s.252.4.2.631a14.442,14.442,0,0,1-.933,2.384,6.321,6.321,0,0,0-.516,1.522c-.021.139-.038.307.125.386a.329.329,0,0,0,.4-.1,4.728,4.728,0,0,0,1.479-2.86,3.076,3.076,0,0,1,.464-1.666.652.652,0,0,1,.753-.328c.372.127.272.461.225.749A8.372,8.372,0,0,1,505.166,434.518Z" transform="translate(-436.872 -424.275)" fill="#fff" />
      <path id="Path_24" data-name="Path 24" d="M479.876,435.149a7.487,7.487,0,0,1,2.7-5.166,1.141,1.141,0,0,1,1.351-.258c.444.274.429.793.363,1.261a10.355,10.355,0,0,1-2.046,4.716,2.923,2.923,0,0,1-.3.319,1.313,1.313,0,0,1-1.5.472C479.909,436.252,479.859,435.7,479.876,435.149Zm.929-.668c-.017.428-.043.7.222.826.293.136.509-.065.7-.255a1.375,1.375,0,0,0,.279-.336,34.726,34.726,0,0,1,1.416-3.344.352.352,0,0,0-.119-.512.4.4,0,0,0-.468.112A6.318,6.318,0,0,0,480.806,434.481Z" transform="translate(-420.707 -422.409)" fill="#fff" />
      <path id="Path_25" data-name="Path 25" d="M523.191,437.658a16.257,16.257,0,0,1,1.731-4.582c.253-.443.533-.871.817-1.3a.352.352,0,0,1,.436-.181c.236.093.237.308.187.494a2.685,2.685,0,0,1-.266.594,20.776,20.776,0,0,0-1.991,4.846,3.365,3.365,0,0,1-.112.348c-.093.244-.232.451-.535.36C523.2,438.163,523.172,437.94,523.191,437.658Z" transform="translate(-453.315 -423.902)" fill="#fff" />
    </g>
    <path id="Path_26" data-name="Path 26" d="M538.761,416.3a1.908,1.908,0,0,1-.77,1.256.459.459,0,0,1-.549.056.51.51,0,0,1-.214-.575,2.032,2.032,0,0,1,.776-1.2.5.5,0,0,1,.552-.066C538.77,415.881,538.76,416.082,538.761,416.3Z" transform="translate(-370.092 -225.824)" fill="#fff" />
  </g>
</svg>
