<svg
        viewBox="0 0 50 50"
        fill="none"
        xmlns="http://www.w3.org/2000/svg"
      >
        <path
          d="M33.642 20.605l-5.035-8.789h-7.051l-4.578 8.79h16.664zM16.719 23.535l8.25 22.507 9.476-22.507H16.719zM0 23.535L23.269 50l.017-.038-9.718-26.427H0zM18.254 11.816H6.639L0 20.606h13.676l4.578-8.79zM37.02 20.605H50l-6.637-8.789H31.985l5.035 8.79zM26.468 49.826l.068.174L50 23.535H37.662L26.468 49.826zM23.535 0h2.93v4.395h-2.93V0zM17.306 3.428l2.93 2.93-2.071 2.071-2.93-2.93 2.071-2.071zM32.813 3.428l2.071 2.07-2.93 2.93-2.07-2.07 2.929-2.93z"
          fill="#A02167"
        />
      </svg>