<svg
      viewBox="0 0 50 50"
      fill="none"
      xmlns="http://www.w3.org/2000/svg"
      
    >
      <g clipPath="url(#prefix__clip0)" fill="#A02167">
        <path d="M30.721 8.892a11.814 11.814 0 014.733-1.004c.942 0 1.844.112 2.694.328a.502.502 0 00.615-.554l-.123-.983c-.103-1.639-1.977-2.96-4.22-2.96-2.306 0-4.508 1.382-4.508 3.093l.103 1.64c.03.358.389.583.706.44zM49.918 37.072l-.051-.297c0-.02-.01-.04-.01-.061l-1.895-9.63c-.246-2.222-1.865-4.158-4.221-5.357l-.901-6.996c0-2.971-3.36-5.399-7.386-5.399s-7.857 2.407-7.857 5.388c0 .144.01.297.03.44l.052.759c-.8-.287-1.711-.45-2.674-.45-.973 0-1.885.163-2.694.46l.051-.768c.02-.144.031-.287.031-.44 0-2.971-3.841-5.389-7.857-5.389-4.026 0-7.386 2.428-7.386 5.399l-.901 6.996c-2.356 1.188-3.975 3.135-4.22 5.358L.132 36.714c0 .02-.01.04-.01.061l-.051.297a7.004 7.004 0 00-.072.932c0 4.57 4.784 8.278 10.674 8.278s10.674-3.709 10.674-8.277v-3.79c1.055.491 2.315.768 3.657.768s2.592-.277 3.647-.758v3.78c0 4.568 4.784 8.276 10.674 8.276 5.88 0 10.674-3.708 10.674-8.276a9.248 9.248 0 00-.082-.933zM10.674 43.3c-4.17 0-7.693-2.427-7.693-5.295 0-2.879 3.524-5.297 7.693-5.297 4.17 0 7.693 2.428 7.693 5.297 0 2.868-3.524 5.295-7.693 5.295zm14.331-10.94c-1.752 0-3.175-.994-3.175-2.212 0-1.22 1.423-2.213 3.175-2.213 1.752 0 3.176.994 3.176 2.213 0 1.218-1.424 2.212-3.176 2.212zm14.31 10.94c-4.168 0-7.692-2.427-7.692-5.295 0-2.879 3.524-5.297 7.693-5.297s7.693 2.428 7.693 5.297c0 2.868-3.524 5.295-7.693 5.295zM11.832 8.216c.85-.216 1.761-.328 2.694-.328 1.628 0 3.288.358 4.732 1.004a.497.497 0 00.697-.43l.102-1.64c0-1.71-2.202-3.093-4.507-3.093-2.243 0-4.108 1.321-4.22 2.96l-.123.984a.503.503 0 00.625.543z" />
      </g>
      <defs>
        <clipPath id="prefix__clip0">
          <path fill="#fff" d="M0 0h50v50H0z" />
        </clipPath>
      </defs>
    </svg>