<svg width="80" height="80" viewBox="0 0 80 80" fill="none" xmlns="http://www.w3.org/2000/svg">
<path d="M60.6249 50V45.625H61.5624C61.811 45.625 62.0495 45.5262 62.2253 45.3504C62.4011 45.1746 62.4999 44.9361 62.4999 44.6875V40.3125C62.4999 40.0639 62.4011 39.8254 62.2253 39.6496C62.0495 39.4738 61.811 39.375 61.5624 39.375H52.9505C52.9506 39.7555 52.9505 39.4851 52.9505 39.7555C52.9505 40.1434 53.0383 39.8902 52.9505 40L52.9505 41.2C52.9504 41.5068 52.9505 42.587 52.9505 42.8C52.9505 43.013 52.9503 44.5981 52.9506 44.8L52.9505 45.2916C52.9505 45.0954 52.9505 45.2916 52.9506 45.4797C52.9507 45.625 52.9504 45.4116 52.9505 45.625H56.8749V50H60.6249Z" fill="#A02167"/>
<path d="M37.7373 31.875H56.25C56.7473 31.875 57.2242 31.6775 57.5758 31.3258C57.9274 30.9742 58.125 30.4973 58.125 30C58.125 29.5027 57.9274 29.0258 57.5758 28.6742C57.2242 28.3225 56.7473 28.125 56.25 28.125H33.0481C34.7681 29.1651 36.3445 30.4258 37.7373 31.875Z" fill="#A02167"/>
<path d="M63.1077 51.875H43.6249C43.325 53.1523 42.9312 54.4057 42.4467 55.625H63.1077C65.7581 55.6312 68.2979 56.6875 70.1711 58.5624C72.0442 60.4374 73.098 62.9783 73.1016 65.6286C73.1052 68.279 72.0584 70.8227 70.1904 72.7028C68.3224 74.5829 65.7854 75.6461 63.1351 75.6595L31.2427 75.7813C30.7455 75.7822 30.2689 75.9807 29.918 76.333C29.567 76.6853 29.3704 77.1626 29.3713 77.6599C29.3723 78.1571 29.5708 78.6337 29.9231 78.9846C30.2754 79.3356 30.7527 79.5322 31.2499 79.5313H31.2573L63.1479 79.4095C66.792 79.3932 70.2809 77.9327 72.8499 75.3483C75.419 72.7639 76.8587 69.2663 76.8533 65.6223C76.848 61.9782 75.3982 58.4848 72.8216 55.9079C70.245 53.331 66.7518 51.8808 63.1077 51.875Z" fill="#A02167"/>
<path d="M47.963 27.3438C49.0926 27.3438 50.1759 26.895 50.9747 26.0963C51.7734 25.2975 52.2222 24.2141 52.2222 23.0845C52.2222 20.7322 49.9097 16.5625 47.963 16.5625C46.0163 16.5625 43.7031 20.7322 43.7031 23.0845C43.7031 23.6439 43.8133 24.1978 44.0274 24.7146C44.2415 25.2314 44.5553 25.701 44.9508 26.0965C45.3464 26.492 45.816 26.8057 46.3328 27.0197C46.8497 27.2337 47.4036 27.3438 47.963 27.3438Z" fill="#A02167"/>
<path d="M38.9119 27.3438C39.4713 27.3438 40.0252 27.2337 40.542 27.0197C41.0589 26.8057 41.5285 26.492 41.924 26.0965C42.3196 25.701 42.6334 25.2314 42.8475 24.7146C43.0616 24.1978 43.1717 23.6439 43.1717 23.0845C43.1717 20.7322 40.8593 16.5625 38.9125 16.5625C36.9658 16.5625 34.6533 20.7322 34.6533 23.0845C34.6533 24.214 35.102 25.2973 35.9006 26.096C36.6992 26.8948 37.7824 27.3436 38.9119 27.3438Z" fill="#A02167"/>
<path d="M62.1528 68.9467C62.1528 65.7763 59.0367 60.1562 56.412 60.1562C53.7873 60.1562 50.6719 65.7763 50.6719 68.9467C50.6719 70.4693 51.2767 71.9295 52.3533 73.0061C53.4299 74.0827 54.8901 74.6875 56.4127 74.6875C57.9352 74.6875 59.3954 74.0827 60.472 73.0061C61.5486 71.9295 62.1534 70.4693 62.1534 68.9467H62.1528Z" fill="#A02167"/>
<path d="M44.2131 74.6875C45.7355 74.6873 47.1956 74.0824 48.272 73.0058C49.3485 71.9293 49.9533 70.4692 49.9533 68.9467C49.9533 65.7763 46.8372 60.1562 44.2125 60.1562C41.5878 60.1562 38.4717 65.7763 38.4717 68.9467C38.4717 69.7007 38.6202 70.4472 38.9087 71.1438C39.1973 71.8403 39.6202 72.4732 40.1533 73.0063C40.6865 73.5394 41.3194 73.9622 42.016 74.2507C42.7126 74.5392 43.4591 74.6876 44.2131 74.6875Z" fill="#A02167"/>
<path d="M21.25 26.7162C9.66895 26.7162 0.24707 36.1381 0.24707 47.7192C0.24707 60.8698 19.1799 78.3075 19.9858 79.0434C20.3313 79.3588 20.7822 79.5337 21.25 79.5337C21.7179 79.5337 22.1688 79.3588 22.5143 79.0434C23.3202 78.3075 42.253 60.8698 42.253 47.7192C42.253 36.1381 32.8311 26.7162 21.25 26.7162ZM21.25 61.4687C18.5305 61.4687 15.8721 60.6623 13.6109 59.1515C11.3498 57.6406 9.5874 55.4931 8.54669 52.9806C7.50599 50.4682 7.23369 47.7035 7.76424 45.0363C8.29479 42.369 9.60435 39.919 11.5273 37.996C13.4503 36.0731 15.9003 34.7635 18.5675 34.2329C21.2348 33.7024 23.9995 33.9747 26.5119 35.0154C29.0244 36.0561 31.1719 37.8185 32.6827 40.0797C34.1936 42.3408 35 44.9993 35 47.7187C34.9959 51.3642 33.5459 54.8592 30.9682 57.4369C28.3905 60.0146 24.8955 61.4646 21.25 61.4687Z" fill="#A02167"/>
<path d="M65.2552 31.6362C65.5843 31.8922 65.9893 32.0312 66.4062 32.0312C66.8232 32.0312 67.2282 31.8922 67.5573 31.6362C69.6578 29.9496 71.6199 28.0976 73.425 26.098C77.4769 21.5959 79.5312 17.4941 79.5312 13.9062C79.5312 10.4253 78.1484 7.08689 75.687 4.62547C73.2256 2.16406 69.8872 0.78125 66.4062 0.78125C62.9253 0.78125 59.5869 2.16406 57.1255 4.62547C54.6641 7.08689 53.2813 10.4253 53.2812 13.9062C53.2813 17.4941 55.3356 21.5959 59.3875 26.098C61.1926 28.0976 63.1547 29.9496 65.2552 31.6362ZM66.4062 7.65625C67.6424 7.65625 68.8508 8.02281 69.8786 8.70956C70.9064 9.39632 71.7074 10.3724 72.1805 11.5145C72.6535 12.6565 72.7773 13.9132 72.5362 15.1256C72.295 16.3379 71.6997 17.4516 70.8257 18.3257C69.9516 19.1997 68.8379 19.795 67.6256 20.0362C66.4132 20.2773 65.1565 20.1535 64.0145 19.6805C62.8724 19.2075 61.8963 18.4064 61.2096 17.3786C60.5228 16.3508 60.1562 15.1424 60.1562 13.9062C60.1581 12.2492 60.8172 10.6606 61.9889 9.48889C63.1606 8.31719 64.7492 7.65811 66.4062 7.65625Z" fill="#A02167"/>
</svg>
