<svg width="80" height="80" viewBox="0 0 80 80" fill="none" xmlns="http://www.w3.org/2000/svg">
<path d="M28.2859 32.9694C28.2859 35.5532 30.3891 37.6564 32.973 37.6564H44.6907C48.5736 37.6564 51.7213 34.5088 51.7213 30.6258V28.2823H37.66C37.66 25.6985 35.5568 23.5952 32.973 23.5952C30.3891 23.5952 28.2859 25.6985 28.2859 28.2823V32.9694Z" fill="#A02167"/>
<path d="M4.69434 23.5952H23.5989V32.9694H4.69434V23.5952Z" fill="#A02167"/>
<path d="M4.69434 37.6564H23.5989V47.0306H4.69434V37.6564Z" fill="#A02167"/>
<path d="M32.973 56.4049C29.518 56.4049 26.5282 54.5061 24.9025 51.7178C23.3493 51.7178 -0.474015 51.7178 0.00719142 51.7178V56.4033H4.95487C1.90905 59.3816 0.00719142 63.5259 0.00719142 68.1225V70.4661H32.973V56.4049Z" fill="#A02167"/>
<path d="M28.2859 47.0307C28.2859 49.6145 30.3891 51.7178 32.973 51.7178H37.6601V70.4661H47.0342V47.0307C47.0342 44.4469 44.931 42.3436 42.3471 42.3436C41.8264 42.3436 32.4658 42.3436 32.973 42.3436C31.258 42.3436 29.6701 41.8472 28.2859 41.04V47.0307Z" fill="#A02167"/>
<path d="M17.6117 75.1531H1.3075C2.93126 77.9431 5.92052 79.9964 9.38146 79.9964C12.8424 79.9964 15.9879 77.9431 17.6117 75.1531Z" fill="#A02167"/>
<path d="M70.4696 32.9694V23.5952H65.7825C63.1939 23.5952 61.0955 25.6936 61.0955 28.2823C61.0955 30.8706 63.1939 32.9694 65.7825 32.9694H70.4696Z" fill="#A02167"/>
<path d="M70.2486 47.2446L70.1399 47.0879L68.7956 37.6566H65.7824C64.0674 37.6566 62.4796 37.1602 61.0954 36.353V51.7178C61.0954 56.8878 56.8912 61.092 51.7212 61.092V70.4661H56.4083C56.4083 62.7123 62.7157 56.4049 70.4695 56.4049C74.0839 56.4049 77.5065 57.8135 79.9999 60.0621V58.7484C79.9999 53.0038 75.7039 48.2458 70.2486 47.2446Z" fill="#A02167"/>
<path d="M71.5141 61.1971L72.7902 70.1341L68.1489 70.7978L66.8662 61.8144C63.4787 63.2271 61.0955 66.5662 61.0955 70.466C61.0955 75.6432 65.2924 79.9964 70.4696 79.9964C75.6468 79.9964 80 75.6432 80 70.466C80 65.6464 76.1932 61.7229 71.5141 61.1971Z" fill="#A02167"/>
<path d="M28.2859 14.0649C28.2859 16.6532 30.3843 18.9082 32.973 18.9082C35.5616 18.9082 37.66 16.6532 37.66 14.0649V11.7213H28.2859V14.0649Z" fill="#A02167"/>
<path d="M42.3471 2.34714H36.9417C36.1252 0.971327 34.6891 0.00360107 32.973 0.00360107C30.3843 0.00360107 28.2859 2.10201 28.2859 4.69068V7.03422H42.3471V2.34714Z" fill="#A02167"/>
</svg>
