<svg width="80" height="80" viewBox="0 0 80 80" fill="none" xmlns="http://www.w3.org/2000/svg">
<path d="M75.7143 25.7143H32.8572V27.1429C32.8572 29.5098 30.9384 31.4286 28.5715 31.4286H25.7143V34.2857H31.9286C34.6261 32.3804 38.2311 32.3804 40.9286 34.2857H52.8572V30C52.8572 29.211 53.4968 28.5714 54.2857 28.5714C55.0747 28.5714 55.7143 29.211 55.7143 30V34.2857H63.3572C66.0547 32.3804 69.6597 32.3804 72.3572 34.2857H77.1429V27.1429C77.1429 26.3539 76.5033 25.7143 75.7143 25.7143ZM47.1429 31.4286H44.2857C43.4968 31.4286 42.8572 30.789 42.8572 30C42.8572 29.211 43.4968 28.5714 44.2857 28.5714H47.1429C47.9319 28.5714 48.5715 29.211 48.5715 30C48.5715 30.789 47.9319 31.4286 47.1429 31.4286ZM62.8572 31.4286H60C59.2111 31.4286 58.5715 30.789 58.5715 30C58.5715 29.211 59.2111 28.5714 60 28.5714H62.8572C63.6462 28.5714 64.2858 29.211 64.2858 30C64.2858 30.789 63.6462 31.4286 62.8572 31.4286ZM43.4143 37.1429C43.8949 38.0266 44.1913 38.9985 44.2857 40H60C60.0811 39.0016 60.363 38.0298 60.8286 37.1429H43.4143ZM27.1429 25.7143C26.3539 25.7143 25.7143 26.3539 25.7143 27.1429V28.5714H28.5715C29.3604 28.5714 30 27.9318 30 27.1429V25.7143H27.1429ZM24.2857 37.1429C23.9137 37.1368 23.5561 37.2871 23.3 37.5572C23.0221 37.822 22.8625 38.1876 22.8572 38.5714C22.8572 39.3604 23.4968 40 24.2857 40H28.5715C28.6526 39.0016 28.9344 38.0298 29.4 37.1429H24.2857ZM36.4286 35.7143C34.4063 35.7143 32.5831 36.9325 31.8092 38.8009C31.0353 40.6693 31.4631 42.8198 32.8931 44.2498C34.3231 45.6798 36.4737 46.1076 38.342 45.3337C40.2104 44.5598 41.4286 42.7366 41.4286 40.7143C41.4286 37.9529 39.19 35.7143 36.4286 35.7143ZM67.8572 35.7143C65.0958 35.7143 62.8572 37.9529 62.8572 40.7143C62.8572 43.4757 65.0958 45.7143 67.8572 45.7143C70.6186 45.7143 72.8572 43.4757 72.8572 40.7143C72.8572 37.9529 70.6186 35.7143 67.8572 35.7143ZM78.5715 37.1429H74.8429C75.3235 38.0266 75.6199 38.9985 75.7143 40H78.5715C78.9436 40.0061 79.3011 39.8558 79.5572 39.5857C79.8351 39.3209 79.9947 38.9553 80 38.5714C80 37.7825 79.3604 37.1429 78.5715 37.1429Z" fill="#A02167"/>
<path d="M71.5857 27.7857L66.6572 17.9286C66.4128 17.4436 65.9145 17.1391 65.3714 17.1429H43.2C42.6569 17.1391 42.1587 17.4436 41.9143 17.9286L36.9857 27.7857L34.4429 26.5L39.3572 16.6571C40.084 15.2012 41.5727 14.2825 43.2 14.2857H65.3714C66.9987 14.2825 68.4874 15.2012 69.2143 16.6571L74.1286 26.5L71.5857 27.7857Z" fill="#A02167"/>
<path d="M52.8572 15.7143H55.7143V27.1429H52.8572V15.7143Z" fill="#A02167"/>
<path d="M8.57143 80H1.42857C0.639593 80 0 79.3604 0 78.5714V48.5714C0 47.7824 0.639593 47.1428 1.42857 47.1428H8.57143C9.36041 47.1428 10 47.7824 10 48.5714V78.5714C10 79.3604 9.36041 80 8.57143 80ZM80 59.3714C79.8681 60.0635 79.4471 60.6663 78.8429 61.0285L52.0286 77.3286C50.6849 78.1436 49.143 78.5736 47.5714 78.5714L12.8571 78.5714V50H15.4286C18.0656 50.0023 20.6239 50.8988 22.6857 52.5428C25.2491 54.5922 28.4324 55.7104 31.7143 55.7143H39.1857C41.1924 55.7136 43.0523 56.7656 44.0857 58.4857L44.2143 58.7C44.995 60.0003 44.9103 61.644 44 62.8571H35.3286C32.5067 62.8565 29.7478 63.6916 27.4 65.2571L26.3571 65.9571C25.7827 66.4198 25.655 67.2439 26.0624 67.8588C26.4699 68.4737 27.2785 68.6772 27.9286 68.3286L28.9857 67.6285C30.8646 66.3782 33.0717 65.7121 35.3286 65.7143H48.0143C48.7817 65.7125 49.5439 65.5871 50.2714 65.3428L76.7286 56.5285C77.7467 56.1958 78.8635 56.5527 79.5 57.4143C79.9412 57.9639 80.1235 58.6774 80 59.3714Z" fill="#A02167"/>
<path d="M18.5714 0H7.14279C5.56483 0 4.28564 1.27919 4.28564 2.85714V7.14286C4.28564 9.39112 5.34417 11.5082 7.14279 12.8571V31.9C7.14279 32.5182 7.3433 33.1197 7.71422 33.6143L10.5714 37.4286C11.1109 38.148 11.9578 38.5714 12.8571 38.5714C13.7564 38.5714 14.6032 38.148 15.1428 37.4286L17.9999 33.6143C18.3709 33.1197 18.5714 32.5182 18.5714 31.9V28.8714C18.5709 28.3033 18.3448 27.7586 17.9428 27.3571L16.2999 25.7143L17.6428 24.3714C18.0476 23.9715 18.2754 23.4262 18.2754 22.8571C18.2754 22.2881 18.0476 21.7428 17.6428 21.3429L16.2999 20L17.9428 18.3571C18.3448 17.9557 18.5709 17.411 18.5714 16.8429V12.8571C20.37 11.5082 21.4285 9.39112 21.4285 7.14286V2.85714C21.4285 1.27919 20.1493 0 18.5714 0V0ZM11.4285 4.28571H14.2856C15.0746 4.28571 15.7142 4.92531 15.7142 5.71429C15.7142 6.50326 15.0746 7.14286 14.2856 7.14286H11.4285C10.6395 7.14286 9.99993 6.50326 9.99993 5.71429C9.99993 4.92531 10.6395 4.28571 11.4285 4.28571ZM15.7142 16.5571L13.7856 18.4857C13.3808 18.8856 13.153 19.431 13.153 20C13.153 20.569 13.3808 21.1144 13.7856 21.5143L15.1285 22.8571L13.7856 24.2C13.3808 24.5999 13.153 25.1453 13.153 25.7143C13.153 26.2833 13.3808 26.8287 13.7856 27.2286L15.7142 29.1571V31.9L12.8571 35.7143L9.99993 31.9V14.1429C10.4707 14.2342 10.9489 14.282 11.4285 14.2857H14.2856C14.7652 14.282 15.2434 14.2342 15.7142 14.1429V16.5571Z" fill="#A02167"/>
</svg>
