<svg width="550" height="376" viewBox="0 0 550 376" fill="none" xmlns="http://www.w3.org/2000/svg">
<path d="M62.0014 171.928C84.5849 152.664 111.811 36.4835 205.078 96.995C253.267 128.257 334.519 70.1575 401.773 90.225C463.539 108.655 469.496 169.375 463.515 189.161C451.443 229.127 489.014 235.075 523.861 252.246C578.526 279.183 538.328 373.845 486.685 374.297C435.042 374.75 122.168 374.832 122.168 374.832C122.168 374.832 47.1563 373.586 15.9643 332.18C-17.608 287.622 3.66782 221.686 62.0014 171.928Z" fill="#E6EFF9"/>
<path d="M244.828 74.5304H97.3586V296.931H244.828V74.5304Z" fill="#C8DCF2"/>
<path d="M230.459 88.639H111.728V282.422H230.459V88.639Z" fill="#EFF7FD"/>
<path d="M230.459 170.443C230.459 170.443 213.78 154.471 198.022 154.471C170.32 154.471 155.447 206.903 137.249 195.741C119.05 184.579 111.728 173.797 111.728 173.797V282.834H230.459V170.443Z" fill="#E1EDF9"/>
<path d="M142.342 165.219C143.314 165.183 144.326 165.165 145.376 165.164C149.057 162.088 153.321 159.788 157.913 158.402C151 160.109 142.342 165.219 142.342 165.219Z" fill="#06294E"/>
<path d="M134.063 180.801C137.441 180.801 140.178 178.063 140.178 174.686C140.178 171.309 137.441 168.571 134.063 168.571C130.686 168.571 127.948 171.309 127.948 174.686C127.948 178.063 130.686 180.801 134.063 180.801Z" fill="#06294E"/>
<path d="M137.852 174.686C137.852 175.435 137.63 176.168 137.213 176.791C136.797 177.414 136.206 177.899 135.513 178.186C134.821 178.473 134.059 178.548 133.324 178.401C132.59 178.255 131.914 177.895 131.385 177.365C130.855 176.835 130.494 176.16 130.348 175.425C130.202 174.69 130.277 173.928 130.563 173.236C130.85 172.544 131.336 171.952 131.959 171.536C132.582 171.12 133.314 170.897 134.063 170.897C135.068 170.897 136.032 171.296 136.742 172.007C137.453 172.717 137.852 173.681 137.852 174.686Z" fill="#E1EDF9"/>
<path d="M183.159 180.794C186.533 180.666 189.164 177.827 189.036 174.453C188.907 171.079 186.068 168.448 182.695 168.577C179.321 168.705 176.69 171.544 176.818 174.918C176.947 178.292 179.786 180.923 183.159 180.794Z" fill="#06294E"/>
<path d="M186.72 174.685C186.72 175.434 186.498 176.166 186.081 176.789C185.665 177.412 185.073 177.898 184.381 178.185C183.689 178.472 182.927 178.546 182.192 178.4C181.457 178.254 180.782 177.893 180.252 177.364C179.723 176.834 179.362 176.159 179.216 175.424C179.069 174.689 179.144 173.927 179.431 173.235C179.718 172.543 180.204 171.951 180.827 171.535C181.45 171.118 182.182 170.896 182.931 170.896C183.936 170.896 184.9 171.295 185.61 172.006C186.321 172.716 186.72 173.68 186.72 174.685Z" fill="#E1EDF9"/>
<path d="M194.99 169.008V163.438C191.435 163.033 187.925 162.304 184.504 161.26C175.356 157.9 170.439 157.838 162.131 157.838C155.823 157.838 149.436 162.062 146.724 164.095C145.81 164.781 144.703 165.162 143.561 165.185C133.584 165.404 127.42 167.396 124.352 168.741C123.649 169.05 123.052 169.557 122.633 170.2C122.214 170.843 121.992 171.594 121.992 172.361V174.233C121.943 174.233 121.895 174.242 121.849 174.261C121.804 174.28 121.763 174.307 121.728 174.342C121.693 174.377 121.666 174.418 121.647 174.464C121.629 174.509 121.619 174.558 121.619 174.607V177.718C121.619 177.767 121.629 177.816 121.647 177.861C121.666 177.906 121.693 177.948 121.728 177.983C121.763 178.017 121.804 178.045 121.849 178.064C121.895 178.083 121.943 178.092 121.992 178.092H127.947C127.354 177.027 127.049 175.825 127.063 174.605C127.077 173.386 127.41 172.191 128.028 171.14C128.646 170.088 129.528 169.216 130.586 168.611C131.645 168.005 132.843 167.686 134.063 167.686C135.283 167.686 136.481 168.005 137.54 168.611C138.598 169.216 139.48 170.088 140.098 171.14C140.716 172.191 141.049 173.386 141.063 174.605C141.077 175.825 140.772 177.027 140.179 178.092H176.815C176.221 177.027 175.917 175.825 175.931 174.605C175.945 173.386 176.278 172.191 176.896 171.14C177.514 170.088 178.396 169.216 179.454 168.611C180.513 168.005 181.711 167.686 182.931 167.686C184.15 167.686 185.349 168.005 186.407 168.611C187.466 169.216 188.348 170.088 188.966 171.14C189.584 172.191 189.916 173.386 189.931 174.605C189.945 175.825 189.64 177.027 189.047 178.092H190.509C195.571 178.092 196.288 172.915 196.336 170.373C196.339 170.194 196.306 170.017 196.239 169.852C196.172 169.686 196.074 169.536 195.948 169.409C195.823 169.282 195.674 169.181 195.509 169.112C195.345 169.043 195.168 169.008 194.99 169.008Z" fill="#DB635C"/>
<path d="M158.924 158.842C153.144 160.304 146.948 165.303 146.948 165.303L163.352 164.952C163.667 164.945 163.974 164.85 164.238 164.677C164.502 164.505 164.712 164.262 164.844 163.976L167.359 158.551H161.277C160.483 158.55 159.693 158.648 158.924 158.842Z" fill="#06294E"/>
<path d="M168.324 158.676L166.021 163.952C165.98 164.046 165.963 164.148 165.972 164.249C165.98 164.351 166.014 164.449 166.07 164.534C166.126 164.619 166.202 164.689 166.292 164.738C166.381 164.786 166.482 164.812 166.584 164.812C170.585 164.884 174.584 164.56 178.522 163.847C178.713 163.798 178.888 163.699 179.028 163.561C179.169 163.422 179.269 163.248 179.32 163.057C179.371 162.867 179.37 162.666 179.318 162.476C179.265 162.286 179.163 162.113 179.021 161.976C177.593 160.602 174.49 158.676 168.324 158.676Z" fill="#06294E"/>
<path d="M122.421 170.566H124.818C127.737 168.111 131.264 166.489 135.027 165.871C135.027 165.871 123.408 167.155 122.421 170.566Z" fill="#EF903B"/>
<path d="M194.989 169.007H194.355C194.181 169.007 194.01 168.957 193.863 168.864C193.716 168.771 193.598 168.639 193.523 168.481C192.951 167.231 192.132 166.109 191.115 165.184C191.01 165.095 190.935 164.976 190.9 164.842C190.864 164.709 190.871 164.568 190.918 164.439C190.966 164.31 191.052 164.198 191.165 164.119C191.278 164.04 191.412 163.997 191.55 163.997H194.989V169.007Z" fill="#EF903B"/>
<path d="M163.523 166.503H160.335C160.293 166.503 160.252 166.494 160.213 166.478C160.174 166.462 160.139 166.439 160.11 166.409C160.08 166.379 160.057 166.344 160.041 166.305C160.025 166.267 160.017 166.225 160.017 166.183C160.017 166.141 160.025 166.1 160.041 166.061C160.057 166.022 160.08 165.987 160.11 165.958C160.139 165.928 160.174 165.904 160.213 165.888C160.252 165.872 160.293 165.864 160.335 165.864H163.523C163.565 165.864 163.607 165.872 163.646 165.888C163.684 165.904 163.72 165.928 163.749 165.958C163.779 165.987 163.802 166.022 163.818 166.061C163.835 166.1 163.843 166.141 163.843 166.183C163.843 166.225 163.835 166.267 163.818 166.306C163.802 166.344 163.779 166.38 163.749 166.409C163.72 166.439 163.684 166.462 163.646 166.478C163.607 166.494 163.565 166.503 163.523 166.503Z" fill="#06294E"/>
<path d="M177.62 166.503H174.432C174.347 166.503 174.266 166.469 174.206 166.409C174.146 166.349 174.112 166.268 174.112 166.183C174.112 166.099 174.146 166.017 174.206 165.958C174.266 165.898 174.347 165.864 174.432 165.864H177.62C177.705 165.864 177.786 165.898 177.845 165.958C177.905 166.018 177.938 166.099 177.938 166.183C177.938 166.268 177.905 166.349 177.845 166.409C177.786 166.469 177.705 166.502 177.62 166.503Z" fill="#06294E"/>
<path d="M174.921 168.571H146.175C145.904 168.57 145.638 168.641 145.404 168.778C145.17 168.914 144.976 169.11 144.844 169.347C144.711 169.583 144.644 169.85 144.649 170.121C144.654 170.392 144.732 170.656 144.873 170.887L146.724 173.928C146.819 174.085 146.945 174.22 147.095 174.326C147.245 174.432 147.415 174.505 147.594 174.542C147.774 174.579 147.959 174.579 148.139 174.541C148.318 174.503 148.488 174.429 148.637 174.322C151.096 172.571 158.177 168.93 174.921 168.571Z" fill="#B63E35"/>
<path d="M142.342 119.489C143.314 119.451 144.326 119.433 145.376 119.433C149.057 116.357 153.321 114.057 157.913 112.671C151 114.38 142.342 119.489 142.342 119.489Z" fill="#06294E"/>
<path d="M140.179 128.956C140.179 130.165 139.821 131.348 139.149 132.353C138.477 133.359 137.522 134.142 136.405 134.605C135.287 135.068 134.058 135.189 132.872 134.953C131.685 134.717 130.596 134.135 129.741 133.28C128.885 132.425 128.303 131.335 128.067 130.149C127.831 128.963 127.952 127.733 128.415 126.616C128.878 125.498 129.662 124.543 130.667 123.872C131.673 123.2 132.855 122.841 134.065 122.841C135.686 122.841 137.242 123.485 138.388 124.632C139.535 125.779 140.179 127.334 140.179 128.956Z" fill="#06294E"/>
<path d="M134.064 132.744C136.157 132.744 137.853 131.048 137.853 128.956C137.853 126.863 136.157 125.167 134.064 125.167C131.972 125.167 130.276 126.863 130.276 128.956C130.276 131.048 131.972 132.744 134.064 132.744Z" fill="#E1EDF9"/>
<path d="M189.046 128.956C189.046 130.165 188.687 131.348 188.015 132.353C187.343 133.359 186.388 134.142 185.271 134.605C184.154 135.068 182.924 135.189 181.738 134.953C180.552 134.717 179.462 134.135 178.607 133.28C177.752 132.425 177.169 131.335 176.934 130.149C176.698 128.963 176.819 127.733 177.281 126.616C177.744 125.498 178.528 124.543 179.534 123.872C180.539 123.2 181.722 122.841 182.931 122.841C184.553 122.841 186.108 123.485 187.255 124.632C188.402 125.779 189.046 127.334 189.046 128.956Z" fill="#06294E"/>
<path d="M182.931 132.744C185.024 132.744 186.72 131.048 186.72 128.956C186.72 126.863 185.024 125.167 182.931 125.167C180.839 125.167 179.143 126.863 179.143 128.956C179.143 131.048 180.839 132.744 182.931 132.744Z" fill="#E1EDF9"/>
<path d="M194.99 123.278V117.708C191.435 117.303 187.925 116.574 184.504 115.53C175.356 112.169 170.439 112.107 162.131 112.107C155.823 112.107 149.436 116.332 146.724 118.366C145.81 119.051 144.703 119.432 143.561 119.455C133.584 119.674 127.42 121.666 124.352 123.011C123.649 123.32 123.052 123.827 122.633 124.47C122.214 125.113 121.991 125.864 121.992 126.631V128.502C121.943 128.502 121.895 128.512 121.849 128.531C121.804 128.55 121.763 128.577 121.728 128.612C121.693 128.647 121.666 128.688 121.647 128.733C121.629 128.779 121.619 128.828 121.619 128.877V131.988C121.619 132.037 121.629 132.086 121.647 132.131C121.666 132.176 121.693 132.218 121.728 132.252C121.763 132.287 121.804 132.315 121.849 132.334C121.895 132.352 121.943 132.362 121.992 132.362H127.947C127.354 131.297 127.049 130.095 127.063 128.875C127.077 127.656 127.41 126.461 128.028 125.409C128.646 124.358 129.528 123.486 130.586 122.881C131.645 122.275 132.843 121.956 134.063 121.956C135.283 121.956 136.481 122.275 137.54 122.881C138.598 123.486 139.48 124.358 140.098 125.409C140.716 126.461 141.049 127.656 141.063 128.875C141.077 130.095 140.772 131.297 140.179 132.362H176.815C176.221 131.297 175.917 130.095 175.931 128.875C175.945 127.656 176.278 126.461 176.896 125.409C177.514 124.358 178.396 123.486 179.454 122.881C180.513 122.275 181.711 121.956 182.931 121.956C184.15 121.956 185.349 122.275 186.407 122.881C187.466 123.486 188.348 124.358 188.966 125.409C189.584 126.461 189.916 127.656 189.931 128.875C189.945 130.095 189.64 131.297 189.047 132.362H190.509C195.571 132.362 196.288 127.184 196.336 124.643C196.339 124.464 196.306 124.287 196.239 124.122C196.172 123.956 196.074 123.805 195.948 123.678C195.823 123.551 195.674 123.451 195.509 123.382C195.345 123.313 195.168 123.278 194.99 123.278Z" fill="#6DB1C1"/>
<path d="M158.924 113.112C153.144 114.574 146.948 119.573 146.948 119.573L163.352 119.222C163.667 119.215 163.974 119.12 164.238 118.947C164.502 118.775 164.712 118.531 164.844 118.245L167.359 112.821H161.277C160.483 112.82 159.693 112.918 158.924 113.112Z" fill="#06294E"/>
<path d="M168.324 112.946L166.021 118.222C165.98 118.315 165.963 118.418 165.972 118.519C165.98 118.621 166.014 118.719 166.07 118.804C166.126 118.889 166.202 118.959 166.292 119.008C166.381 119.056 166.482 119.082 166.584 119.082C170.585 119.153 174.584 118.83 178.522 118.117C178.713 118.068 178.888 117.969 179.028 117.83C179.169 117.692 179.269 117.518 179.32 117.327C179.371 117.137 179.37 116.936 179.318 116.746C179.265 116.556 179.163 116.383 179.021 116.245C177.593 114.872 174.49 112.946 168.324 112.946Z" fill="#06294E"/>
<path d="M122.421 124.84H124.818C127.737 122.385 131.264 120.763 135.027 120.145C135.027 120.145 123.408 121.424 122.421 124.84Z" fill="#EF903B"/>
<path d="M194.989 123.276H194.355C194.181 123.276 194.01 123.227 193.863 123.134C193.716 123.041 193.598 122.908 193.523 122.751C192.951 121.5 192.132 120.379 191.115 119.454C191.01 119.364 190.935 119.245 190.9 119.112C190.864 118.979 190.871 118.838 190.918 118.708C190.966 118.579 191.052 118.467 191.165 118.388C191.278 118.309 191.412 118.267 191.55 118.266H194.989V123.276Z" fill="#EF903B"/>
<path d="M163.523 120.772H160.335C160.293 120.772 160.252 120.764 160.213 120.748C160.174 120.732 160.139 120.708 160.11 120.678C160.08 120.649 160.057 120.613 160.041 120.575C160.025 120.536 160.017 120.494 160.017 120.453C160.017 120.368 160.05 120.287 160.11 120.228C160.17 120.168 160.251 120.134 160.335 120.134H163.523C163.565 120.134 163.607 120.142 163.646 120.158C163.684 120.174 163.719 120.198 163.749 120.227C163.779 120.257 163.802 120.292 163.818 120.331C163.834 120.369 163.843 120.411 163.843 120.453C163.843 120.495 163.835 120.536 163.818 120.575C163.802 120.614 163.779 120.649 163.749 120.678C163.72 120.708 163.684 120.732 163.646 120.748C163.607 120.764 163.565 120.772 163.523 120.772Z" fill="#06294E"/>
<path d="M177.62 120.772H174.432C174.347 120.772 174.266 120.738 174.206 120.678C174.146 120.619 174.112 120.537 174.112 120.453C174.112 120.411 174.121 120.369 174.137 120.331C174.153 120.292 174.176 120.257 174.206 120.227C174.236 120.198 174.271 120.174 174.31 120.158C174.348 120.142 174.39 120.134 174.432 120.134H177.62C177.662 120.134 177.703 120.143 177.742 120.159C177.781 120.175 177.816 120.198 177.845 120.228C177.875 120.257 177.898 120.292 177.914 120.331C177.93 120.369 177.938 120.411 177.938 120.453C177.938 120.494 177.93 120.536 177.914 120.575C177.898 120.613 177.875 120.649 177.846 120.678C177.816 120.708 177.781 120.732 177.742 120.748C177.704 120.764 177.662 120.772 177.62 120.772Z" fill="#06294E"/>
<path d="M174.921 122.841H146.175C145.904 122.84 145.638 122.911 145.404 123.048C145.17 123.184 144.976 123.38 144.844 123.617C144.711 123.853 144.644 124.12 144.649 124.391C144.654 124.662 144.732 124.926 144.873 125.157L146.724 128.198C146.819 128.355 146.945 128.49 147.095 128.596C147.245 128.702 147.415 128.775 147.594 128.812C147.774 128.849 147.959 128.849 148.139 128.811C148.318 128.773 148.488 128.699 148.637 128.592C151.096 126.841 158.177 123.206 174.921 122.841Z" fill="#4D8A98"/>
<path d="M116.537 112.632H118.65V107.941H129.085V105.856H116.537V112.632Z" fill="#EF903B"/>
<path d="M191.063 105.858V107.944H199.307V112.632H201.419V105.854L191.063 105.858Z" fill="#EF903B"/>
<path d="M199.307 139.232H191.063V141.319H201.419V134.123H199.307V139.232Z" fill="#EF903B"/>
<path d="M118.649 134.123H116.537V141.319H129.085V139.232H118.649V134.123Z" fill="#EF903B"/>
<path d="M116.538 158.367H118.65V153.676H129.086V151.591H116.538V158.367Z" fill="#EF903B"/>
<path d="M191.063 151.59V153.676H199.307V158.367H201.419V151.589L191.063 151.59Z" fill="#EF903B"/>
<path d="M199.307 184.966H191.063V187.052H201.419V179.857H199.307V184.966Z" fill="#EF903B"/>
<path d="M118.65 179.857H116.537V187.052H129.085V184.966H118.65V179.857Z" fill="#EF903B"/>
<path d="M172.085 222.248C174.594 222.154 177.203 222.106 179.91 222.104C179.91 222.104 194.898 209.096 212.236 204.669C194.41 209.071 172.085 222.248 172.085 222.248Z" fill="#06294E"/>
<path d="M165.091 253.194C168.705 245.269 165.211 235.915 157.286 232.301C149.362 228.687 140.008 232.182 136.394 240.106C132.78 248.031 136.274 257.385 144.199 260.999C152.124 264.613 161.477 261.118 165.091 253.194Z" fill="#06294E"/>
<path d="M160.509 246.657C160.508 248.589 159.935 250.478 158.862 252.084C157.788 253.691 156.262 254.943 154.477 255.682C152.692 256.421 150.728 256.614 148.833 256.237C146.938 255.86 145.198 254.93 143.832 253.563C142.466 252.197 141.535 250.457 141.159 248.562C140.782 246.667 140.975 244.703 141.715 242.918C142.454 241.133 143.706 239.607 145.313 238.534C146.919 237.46 148.808 236.887 150.74 236.887C152.023 236.887 153.293 237.14 154.478 237.631C155.664 238.122 156.741 238.842 157.648 239.749C158.555 240.656 159.275 241.733 159.765 242.919C160.256 244.104 160.509 245.374 160.509 246.657Z" fill="#E1EDF9"/>
<path d="M287.891 257.805C294.049 251.647 294.049 241.664 287.891 235.506C281.733 229.348 271.749 229.348 265.592 235.506C259.434 241.664 259.434 251.647 265.592 257.805C271.749 263.963 281.733 263.963 287.891 257.805Z" fill="#06294E"/>
<path d="M286.51 246.657C286.51 248.589 285.937 250.477 284.863 252.084C283.79 253.69 282.264 254.942 280.479 255.681C278.694 256.42 276.73 256.614 274.835 256.237C272.94 255.86 271.2 254.93 269.834 253.563C268.468 252.197 267.537 250.457 267.16 248.562C266.783 246.667 266.977 244.703 267.716 242.918C268.455 241.133 269.707 239.607 271.313 238.534C272.92 237.46 274.808 236.887 276.74 236.887C279.331 236.887 281.816 237.916 283.649 239.749C285.481 241.581 286.51 244.066 286.51 246.657Z" fill="#E1EDF9"/>
<path d="M307.836 232.01V217.649C307.836 217.649 290.993 215.724 280.799 212.035C257.212 203.37 244.54 203.21 223.113 203.21C206.855 203.21 190.377 214.102 183.388 219.351C181.029 221.116 178.176 222.097 175.23 222.158C149.498 222.722 133.599 227.858 125.701 231.325C123.89 232.122 122.351 233.43 121.271 235.087C120.191 236.745 119.617 238.681 119.618 240.66V245.494C119.492 245.494 119.367 245.519 119.25 245.567C119.133 245.615 119.027 245.687 118.937 245.776C118.848 245.866 118.777 245.972 118.729 246.089C118.68 246.206 118.656 246.331 118.656 246.458V254.48C118.656 254.606 118.68 254.732 118.729 254.849C118.777 254.966 118.848 255.072 118.937 255.161C119.027 255.251 119.133 255.322 119.25 255.37C119.367 255.419 119.492 255.444 119.618 255.444H134.971C133.441 252.696 132.655 249.596 132.692 246.452C132.728 243.307 133.585 240.226 135.179 237.515C136.772 234.803 139.047 232.555 141.776 230.993C144.506 229.431 147.596 228.61 150.741 228.61C153.886 228.61 156.977 229.431 159.706 230.993C162.436 232.555 164.71 234.803 166.304 237.515C167.897 240.226 168.755 243.307 168.791 246.452C168.828 249.596 168.042 252.696 166.512 255.444H260.971C259.44 252.696 258.654 249.596 258.69 246.451C258.726 243.306 259.584 240.225 261.177 237.513C262.771 234.801 265.045 232.553 267.775 230.99C270.505 229.428 273.596 228.606 276.741 228.606C279.887 228.606 282.977 229.428 285.707 230.99C288.437 232.553 290.712 234.801 292.305 237.513C293.899 240.225 294.756 243.306 294.792 246.451C294.828 249.596 294.042 252.696 292.512 255.444H296.284C309.337 255.444 311.187 242.094 311.309 235.549C311.318 235.088 311.235 234.629 311.064 234.2C310.894 233.771 310.639 233.38 310.316 233.05C309.993 232.721 309.607 232.459 309.181 232.28C308.755 232.102 308.298 232.01 307.836 232.01Z" fill="#A0C88C"/>
<path d="M214.843 205.802C199.941 209.573 183.964 222.464 183.964 222.464L226.262 221.56C227.075 221.542 227.867 221.297 228.548 220.852C229.229 220.407 229.771 219.78 230.113 219.042L236.595 205.055H220.908C218.863 205.052 216.826 205.303 214.843 205.802Z" fill="#06294E"/>
<path d="M239.08 205.376L233.142 218.981C233.035 219.222 232.991 219.486 233.012 219.749C233.034 220.011 233.121 220.264 233.265 220.485C233.409 220.706 233.606 220.887 233.837 221.012C234.069 221.138 234.328 221.203 234.592 221.203C240.584 221.203 256.318 220.983 265.375 218.714C265.87 218.589 266.322 218.335 266.685 217.976C267.048 217.617 267.309 217.168 267.44 216.675C267.572 216.182 267.569 215.663 267.432 215.171C267.295 214.679 267.029 214.233 266.661 213.879C262.982 210.343 254.979 205.376 239.08 205.376Z" fill="#06294E"/>
<path d="M120.718 236.043H126.899C134.425 229.713 143.519 225.53 153.222 223.935C153.222 223.935 123.258 227.237 120.718 236.043Z" fill="#EF903B"/>
<path d="M307.836 232.012H306.198C305.749 232.013 305.309 231.886 304.929 231.646C304.55 231.407 304.246 231.064 304.053 230.659C302.579 227.434 300.467 224.542 297.845 222.156C297.573 221.926 297.379 221.618 297.288 221.274C297.197 220.931 297.213 220.567 297.336 220.233C297.458 219.899 297.68 219.611 297.972 219.407C298.264 219.204 298.611 219.094 298.966 219.095H307.833L307.836 232.012Z" fill="#EF903B"/>
<path d="M226.709 225.554H218.489C218.381 225.554 218.275 225.533 218.175 225.492C218.076 225.451 217.986 225.391 217.91 225.314C217.834 225.238 217.774 225.148 217.732 225.049C217.691 224.949 217.67 224.843 217.67 224.736C217.67 224.518 217.756 224.31 217.91 224.157C218.063 224.003 218.272 223.917 218.489 223.917H226.709C226.926 223.917 227.134 224.003 227.288 224.157C227.442 224.31 227.528 224.518 227.528 224.736C227.528 224.843 227.507 224.949 227.465 225.049C227.424 225.148 227.364 225.238 227.288 225.314C227.212 225.391 227.122 225.451 227.022 225.492C226.923 225.533 226.817 225.554 226.709 225.554Z" fill="#06294E"/>
<path d="M263.048 225.554H254.827C254.719 225.554 254.613 225.533 254.513 225.492C254.414 225.451 254.324 225.391 254.248 225.314C254.172 225.238 254.111 225.148 254.07 225.049C254.029 224.949 254.008 224.843 254.008 224.736C254.008 224.628 254.029 224.521 254.07 224.422C254.111 224.323 254.172 224.233 254.248 224.157C254.324 224.081 254.414 224.02 254.513 223.979C254.613 223.938 254.719 223.917 254.827 223.917H263.048C263.265 223.917 263.473 224.003 263.627 224.157C263.781 224.31 263.867 224.518 263.867 224.736C263.867 224.843 263.846 224.949 263.804 225.049C263.763 225.148 263.703 225.238 263.627 225.314C263.551 225.391 263.461 225.451 263.361 225.492C263.262 225.533 263.156 225.554 263.048 225.554Z" fill="#06294E"/>
<path d="M256.088 230.886H181.967C181.269 230.886 180.584 231.072 179.983 231.424C179.381 231.776 178.883 232.283 178.542 232.891C178.2 233.498 178.026 234.186 178.038 234.884C178.05 235.581 178.247 236.263 178.61 236.858L183.383 244.704C183.629 245.108 183.955 245.457 184.341 245.729C184.727 246.002 185.166 246.191 185.629 246.287C186.092 246.382 186.569 246.381 187.032 246.283C187.494 246.186 187.932 245.994 188.317 245.72C194.655 241.204 212.911 231.83 256.088 230.886Z" fill="#78A564"/>
<path d="M230.458 263.35H125.124C124.996 263.35 124.874 263.299 124.784 263.209C124.694 263.118 124.643 262.996 124.643 262.868C124.643 262.805 124.655 262.742 124.679 262.684C124.703 262.625 124.739 262.572 124.783 262.528C124.828 262.483 124.881 262.447 124.939 262.423C124.998 262.399 125.06 262.386 125.124 262.386H230.461L230.458 263.35Z" fill="#13243E"/>
<path d="M220.315 146.133C220.315 146.871 220.096 147.592 219.686 148.206C219.276 148.819 218.693 149.297 218.012 149.58C217.33 149.862 216.58 149.936 215.856 149.792C215.132 149.648 214.467 149.293 213.946 148.771C213.424 148.249 213.068 147.584 212.924 146.861C212.78 146.137 212.854 145.387 213.137 144.705C213.419 144.023 213.897 143.44 214.511 143.03C215.125 142.62 215.846 142.402 216.584 142.402C217.074 142.402 217.559 142.498 218.012 142.686C218.464 142.873 218.876 143.148 219.222 143.494C219.569 143.841 219.843 144.252 220.031 144.705C220.218 145.158 220.315 145.643 220.315 146.133Z" fill="#C8DCF2"/>
<path d="M209.903 138.669C209.987 138.752 210.086 138.819 210.196 138.864C210.305 138.91 210.422 138.933 210.541 138.933C210.659 138.933 210.777 138.91 210.886 138.864C210.996 138.819 211.095 138.752 211.179 138.669L216.442 133.405L221.845 138.808C221.929 138.892 222.028 138.958 222.138 139.004C222.247 139.049 222.365 139.072 222.483 139.072C222.602 139.072 222.719 139.049 222.828 139.004C222.938 138.958 223.037 138.892 223.121 138.808L223.264 138.666C223.433 138.497 223.528 138.267 223.528 138.028C223.528 137.789 223.433 137.559 223.264 137.39L216.584 130.71L209.904 137.39C209.82 137.474 209.753 137.574 209.708 137.683C209.662 137.793 209.638 137.91 209.638 138.029C209.638 138.148 209.662 138.265 209.707 138.375C209.752 138.485 209.819 138.585 209.903 138.669Z" fill="#C8DCF2"/>
<path d="M209.903 152.678C209.987 152.594 210.086 152.528 210.196 152.482C210.305 152.437 210.423 152.413 210.541 152.413C210.66 152.413 210.777 152.437 210.886 152.482C210.996 152.528 211.095 152.594 211.179 152.678L216.443 157.941L221.845 152.538C222.014 152.369 222.244 152.274 222.483 152.274C222.722 152.274 222.952 152.369 223.121 152.538L223.264 152.68C223.433 152.85 223.527 153.079 223.527 153.318C223.527 153.558 223.433 153.787 223.264 153.956L216.584 160.636L209.904 153.956C209.735 153.787 209.639 153.557 209.639 153.317C209.639 153.078 209.734 152.848 209.903 152.678Z" fill="#C8DCF2"/>
<path d="M366.856 364.157V354.398H382.218C382.417 354.398 382.609 354.318 382.75 354.177C382.891 354.036 382.97 353.844 382.971 353.645V352.081C382.97 351.882 382.891 351.69 382.75 351.549C382.609 351.408 382.417 351.328 382.218 351.328H366.856V295.77C366.853 295.019 366.554 294.3 366.023 293.769C365.492 293.238 364.773 292.938 364.022 292.936H360.981C360.23 292.938 359.51 293.237 358.979 293.768C358.447 294.299 358.148 295.019 358.145 295.77V351.328H342.783C342.584 351.328 342.392 351.408 342.251 351.549C342.109 351.69 342.03 351.881 342.029 352.081V353.645C342.03 353.845 342.109 354.036 342.251 354.177C342.392 354.318 342.584 354.398 342.783 354.398H358.147V364.157C347.035 364.997 338.123 368.999 335.625 374.17H389.377C386.879 368.999 377.972 364.993 366.856 364.157Z" fill="#0C387B"/>
<path d="M397.44 288.835H327.562C325.556 288.835 323.93 290.461 323.93 292.468V304.815C323.93 306.821 325.556 308.448 327.562 308.448H397.44C399.447 308.448 401.073 306.821 401.073 304.815V292.468C401.073 290.461 399.447 288.835 397.44 288.835Z" fill="#EC8436"/>
<path d="M398.643 48.4978H251.173V270.898H398.643V48.4978Z" fill="#C8DCF2"/>
<path d="M384.274 62.808H265.543V256.591H384.274V62.808Z" fill="#EFF7FD"/>
<path d="M340.703 82.3997L322.929 100.173L340.703 117.946L358.476 100.173L340.703 82.3997Z" fill="#C8DCF2"/>
<path d="M286.198 27.8901L268.422 45.6662L317.939 95.1833L335.715 77.4072L286.198 27.8901Z" fill="#C8DCF2"/>
<path d="M313.537 0.551272L290.644 23.4444L362.927 95.7272L385.82 72.8341L313.537 0.551272Z" fill="#C8DCF2"/>
<path d="M309.155 185.404L294.831 199.728L345.156 250.053L359.48 235.729L309.155 185.404Z" fill="#C8DCF2"/>
<path d="M242.562 90.9704L231.283 102.249L386.566 257.533L397.845 246.254L242.562 90.9704Z" fill="#A0C8EB"/>
<path d="M211.679 121.854L200.401 133.132L355.684 288.416L366.963 277.137L211.679 121.854Z" fill="#A0C8EB"/>
<path d="M264.258 49.8292L252.98 61.1081L336.35 144.475L347.629 133.197L264.258 49.8292Z" fill="#A0C8EB"/>
<path d="M386.431 96.4131L370.56 98.0719L379.291 181.599L395.161 179.94L386.431 96.4131Z" fill="#A0C8EB"/>
<path d="M478.016 165.029L460.541 182.887L332.381 196.244L330.727 180.379L478.016 165.029Z" fill="#A0C8EB"/>
<path d="M401.002 88.0166L389.724 76.738L243.904 222.557L255.183 233.836L401.002 88.0166Z" fill="#A0C8EB"/>
<path d="M273.98 70.828L262.703 59.551L171.815 150.439L183.092 161.716L273.98 70.828Z" fill="#A0C8EB"/>
<path d="M385.531 237.763L374.252 226.484L335.077 265.66L346.356 276.938L385.531 237.763Z" fill="#A0C8EB"/>
<path d="M325.616 168.874L333.269 176.954L374.706 172.635L369.668 123.728L325.616 168.874Z" fill="#78A564"/>
<path d="M278.746 214.968L257.531 236.183L277.538 256.19L298.753 234.975L278.746 214.968Z" fill="#78A564"/>
<path d="M301.438 237.66L280.223 258.875L332.388 311.039L353.603 289.824L301.438 237.66Z" fill="#C8DCF2"/>
<path d="M308.704 122.558L293.755 137.508L307.45 151.203L322.399 136.254L308.704 122.558Z" fill="#C8DCF2"/>
<path d="M291.101 104.962L276.154 119.909L289.848 133.603L304.795 118.656L291.101 104.962Z" fill="#C8DCF2"/>
<path d="M269.659 83.5182L254.712 98.4651L272.662 116.415L287.608 101.468L269.659 83.5182Z" fill="#C8DCF2"/>
<path d="M241.99 180.936L222.136 200.789L240.089 218.741L259.942 198.888L241.99 180.936Z" fill="#C8DCF2"/>
<path d="M206.759 145.703L186.905 165.557L218.866 197.518L238.72 177.664L206.759 145.703Z" fill="#C8DCF2"/>
<path d="M238.778 114.399L223.829 129.348L276.655 182.174L291.604 167.225L238.778 114.399Z" fill="#C8DCF2"/>
<path d="M401.982 241.446L360.443 199.901L451.943 191.48L401.982 241.446Z" fill="#C8DCF2"/>
<path d="M399.323 169.047L391.689 102.871L403.773 90.7866L473.575 160.589L399.323 169.047Z" fill="#C8DCF2"/>
<path d="M270.259 36.7948C264.049 36.7944 258.093 39.2607 253.702 43.6511C249.31 48.0414 246.842 53.9964 246.84 60.2063C246.84 73.1402 270.259 96.3811 270.259 96.3811C270.259 96.3811 293.676 73.1391 293.676 60.2063C293.675 53.9966 291.207 48.0418 286.816 43.6515C282.424 39.2611 276.469 36.7948 270.259 36.7948ZM270.259 74.0748C267.117 74.0748 264.045 73.1429 261.432 71.3971C258.819 69.6513 256.783 67.1698 255.58 64.2666C254.377 61.3634 254.063 58.1688 254.676 55.0867C255.289 52.0046 256.802 49.1736 259.024 46.9515C261.246 44.7295 264.077 43.2163 267.159 42.6032C270.241 41.9901 273.436 42.3048 276.339 43.5074C279.242 44.7099 281.724 46.7464 283.47 49.3592C285.216 51.972 286.147 55.0439 286.147 58.1864C286.147 62.4002 284.473 66.4415 281.494 69.4212C278.514 72.4008 274.473 74.0748 270.259 74.0748Z" fill="#EF903B"/>
<path d="M378.559 152.121C372.348 152.121 366.392 154.589 362 158.98C357.609 163.372 355.141 169.328 355.141 175.539C355.141 188.471 378.559 211.715 378.559 211.715C378.559 211.715 401.976 188.473 401.976 175.539C401.976 169.328 399.509 163.372 395.118 158.98C390.726 154.589 384.77 152.121 378.559 152.121ZM378.559 189.401C375.417 189.401 372.345 188.469 369.732 186.723C367.12 184.977 365.083 182.496 363.881 179.593C362.678 176.689 362.364 173.495 362.977 170.413C363.59 167.331 365.103 164.5 367.325 162.278C369.547 160.056 372.378 158.543 375.46 157.93C378.542 157.317 381.737 157.631 384.64 158.834C387.543 160.036 390.024 162.072 391.77 164.685C393.516 167.298 394.448 170.369 394.448 173.512C394.449 175.598 394.038 177.665 393.239 179.593C392.441 181.52 391.27 183.272 389.795 184.748C388.319 186.223 386.568 187.394 384.64 188.192C382.712 188.991 380.646 189.401 378.559 189.401Z" fill="#DB635C"/>
<path d="M290.35 89.3044C290.192 89.3048 290.036 89.274 289.89 89.2138C289.744 89.1536 289.611 89.0652 289.5 88.9536L288.479 87.9325C288.259 87.7055 288.138 87.4015 288.141 87.086C288.144 86.7704 288.27 86.4686 288.493 86.2455C288.716 86.0224 289.018 85.8958 289.334 85.893C289.649 85.8903 289.953 86.0115 290.18 86.2306L291.201 87.2517C291.37 87.4201 291.484 87.6346 291.53 87.868C291.577 88.1013 291.553 88.3432 291.462 88.563C291.37 88.7828 291.216 88.9707 291.018 89.1028C290.82 89.235 290.588 89.3055 290.35 89.3056V89.3044Z" fill="white"/>
<path d="M291.616 90.5723C291.458 90.5727 291.302 90.542 291.156 90.4817C291.01 90.4215 290.877 90.333 290.765 90.2213L289.498 88.9546C289.279 88.7276 289.158 88.4236 289.161 88.1081C289.163 87.7926 289.29 87.4908 289.513 87.2677C289.736 87.0445 290.038 86.918 290.354 86.9152C290.669 86.9124 290.973 87.0337 291.2 87.2528L292.467 88.5195C292.635 88.6879 292.749 88.9021 292.796 89.1354C292.842 89.3687 292.818 89.6105 292.727 89.8302C292.636 90.05 292.482 90.2378 292.284 90.3701C292.087 90.5024 291.854 90.5731 291.616 90.5734V90.5723Z" fill="white"/>
<path d="M334.361 133.317C334.203 133.317 334.047 133.287 333.901 133.226C333.755 133.166 333.622 133.078 333.51 132.966L330.344 129.8C330.125 129.573 330.003 129.269 330.006 128.953C330.009 128.638 330.135 128.336 330.359 128.113C330.582 127.89 330.883 127.763 331.199 127.76C331.515 127.758 331.819 127.879 332.046 128.098L335.212 131.264C335.38 131.433 335.494 131.647 335.541 131.88C335.587 132.114 335.563 132.356 335.472 132.575C335.381 132.795 335.226 132.983 335.029 133.115C334.831 133.247 334.598 133.318 334.36 133.318L334.361 133.317ZM327.237 126.193C327.079 126.193 326.922 126.162 326.776 126.102C326.63 126.042 326.497 125.953 326.386 125.842L323.219 122.675C323 122.448 322.879 122.144 322.882 121.829C322.885 121.513 323.011 121.212 323.234 120.988C323.457 120.765 323.759 120.639 324.075 120.636C324.39 120.633 324.694 120.754 324.921 120.974L328.093 124.137C328.262 124.306 328.377 124.52 328.424 124.754C328.47 124.987 328.446 125.229 328.355 125.449C328.264 125.67 328.109 125.857 327.911 125.99C327.713 126.122 327.48 126.192 327.242 126.191L327.237 126.193ZM320.113 119.068C319.955 119.069 319.798 119.038 319.652 118.978C319.506 118.918 319.373 118.829 319.261 118.717L316.095 115.551C315.876 115.324 315.755 115.02 315.757 114.705C315.76 114.389 315.887 114.087 316.11 113.864C316.333 113.641 316.635 113.514 316.95 113.512C317.266 113.509 317.57 113.63 317.797 113.849L320.963 117.016C321.132 117.184 321.246 117.398 321.293 117.632C321.339 117.866 321.316 118.108 321.224 118.328C321.133 118.548 320.979 118.736 320.781 118.868C320.583 119 320.35 119.071 320.112 119.071L320.113 119.068ZM312.989 111.944C312.83 111.944 312.674 111.914 312.528 111.853C312.382 111.793 312.249 111.705 312.137 111.593L308.971 108.427C308.752 108.2 308.63 107.896 308.633 107.58C308.636 107.265 308.763 106.963 308.986 106.74C309.209 106.517 309.511 106.39 309.826 106.387C310.142 106.385 310.446 106.506 310.673 106.725L313.839 109.891C314.007 110.06 314.122 110.274 314.169 110.508C314.215 110.741 314.191 110.983 314.1 111.203C314.009 111.423 313.855 111.611 313.656 111.744C313.458 111.876 313.226 111.946 312.987 111.946L312.989 111.944ZM305.87 104.82C305.712 104.82 305.555 104.789 305.409 104.729C305.263 104.669 305.13 104.58 305.019 104.469L301.852 101.303C301.633 101.076 301.512 100.772 301.515 100.456C301.518 100.14 301.644 99.8387 301.867 99.6156C302.09 99.3925 302.392 99.2659 302.708 99.2631C303.023 99.2603 303.327 99.3815 303.554 99.6007L306.72 102.767C306.888 102.935 307.003 103.15 307.049 103.383C307.095 103.616 307.072 103.858 306.981 104.078C306.89 104.297 306.736 104.485 306.538 104.618C306.34 104.75 306.108 104.821 305.87 104.821V104.82ZM298.735 97.6954C298.577 97.6958 298.421 97.6651 298.275 97.6049C298.128 97.5446 297.996 97.4562 297.884 97.3445L294.718 94.1782C294.492 93.9524 294.365 93.6462 294.365 93.3269C294.365 93.0077 294.492 92.7015 294.718 92.4758C294.944 92.2501 295.25 92.1234 295.569 92.1235C295.889 92.1236 296.195 92.2506 296.421 92.4764L299.591 95.6368C299.759 95.8051 299.874 96.0195 299.92 96.2527C299.967 96.486 299.943 96.7278 299.852 96.9475C299.761 97.1672 299.607 97.3552 299.409 97.4874C299.211 97.6197 298.979 97.6904 298.741 97.6907L298.735 97.6954Z" fill="white"/>
<path d="M338.318 139.317C338.08 139.316 337.848 139.246 337.65 139.114C337.452 138.981 337.298 138.793 337.207 138.574C337.116 138.354 337.093 138.112 337.139 137.879C337.185 137.646 337.3 137.431 337.468 137.263L337.637 137.092L337.468 136.923C337.242 136.697 337.115 136.391 337.115 136.071C337.115 135.752 337.241 135.446 337.467 135.22C337.693 134.994 337.999 134.867 338.318 134.867C338.638 134.867 338.944 134.994 339.17 135.22L340.191 136.241C340.416 136.466 340.543 136.772 340.543 137.092C340.543 137.411 340.416 137.717 340.191 137.942L339.17 138.964C339.058 139.076 338.925 139.164 338.779 139.225C338.633 139.286 338.476 139.317 338.318 139.317Z" fill="white"/>
<path d="M336.992 140.646C336.754 140.646 336.521 140.576 336.323 140.443C336.125 140.311 335.971 140.123 335.88 139.904C335.789 139.684 335.765 139.442 335.811 139.209C335.857 138.975 335.972 138.761 336.14 138.592L337.469 137.264C337.696 137.044 338 136.923 338.315 136.926C338.631 136.929 338.933 137.055 339.156 137.278C339.379 137.502 339.505 137.803 339.508 138.119C339.511 138.434 339.39 138.738 339.171 138.965L337.842 140.294C337.73 140.406 337.598 140.495 337.452 140.555C337.306 140.615 337.149 140.646 336.992 140.646Z" fill="white"/>
<path d="M314.568 163.067C314.33 163.068 314.097 162.997 313.899 162.865C313.701 162.733 313.547 162.545 313.456 162.325C313.364 162.105 313.341 161.862 313.387 161.629C313.434 161.395 313.548 161.181 313.717 161.012L317.039 157.691C317.264 157.465 317.571 157.338 317.89 157.338C318.21 157.338 318.516 157.465 318.742 157.691C318.967 157.916 319.094 158.223 319.094 158.542C319.094 158.861 318.967 159.168 318.742 159.394L315.419 162.715C315.307 162.827 315.175 162.916 315.029 162.976C314.883 163.037 314.726 163.068 314.568 163.067ZM322.042 155.593C321.804 155.593 321.572 155.523 321.374 155.391C321.176 155.258 321.022 155.071 320.931 154.851C320.84 154.631 320.816 154.389 320.862 154.156C320.908 153.922 321.023 153.708 321.191 153.54L324.513 150.217C324.738 149.991 325.045 149.864 325.364 149.864C325.684 149.864 325.99 149.991 326.216 150.217C326.441 150.442 326.568 150.749 326.568 151.068C326.568 151.388 326.441 151.694 326.216 151.92L324.227 153.908L322.899 155.237C322.787 155.35 322.653 155.44 322.506 155.501C322.359 155.562 322.202 155.594 322.042 155.593ZM329.516 148.119C329.279 148.119 329.046 148.048 328.848 147.916C328.651 147.784 328.497 147.596 328.406 147.376C328.315 147.157 328.291 146.915 328.337 146.681C328.384 146.448 328.498 146.234 328.666 146.066L331.988 142.744C332.215 142.525 332.519 142.403 332.834 142.406C333.15 142.409 333.452 142.536 333.675 142.759C333.898 142.982 334.025 143.284 334.027 143.599C334.03 143.915 333.909 144.219 333.69 144.446L330.368 147.767C330.256 147.879 330.123 147.968 329.977 148.029C329.83 148.089 329.674 148.12 329.515 148.119H329.516Z" fill="white"/>
<path d="M310.415 169.264C310.257 169.264 310.101 169.233 309.955 169.173C309.809 169.113 309.676 169.024 309.565 168.913L308.542 167.892C308.317 167.666 308.19 167.36 308.19 167.041C308.19 166.721 308.317 166.416 308.542 166.19L309.563 165.169C309.789 164.943 310.095 164.816 310.415 164.816C310.734 164.817 311.04 164.943 311.266 165.169C311.492 165.395 311.618 165.701 311.618 166.021C311.618 166.34 311.491 166.646 311.265 166.872L311.096 167.041L311.265 167.211C311.434 167.379 311.549 167.594 311.595 167.827C311.642 168.061 311.618 168.303 311.527 168.523C311.435 168.743 311.281 168.931 311.083 169.063C310.885 169.196 310.652 169.266 310.414 169.266L310.415 169.264Z" fill="white"/>
<path d="M311.791 170.646C311.633 170.646 311.476 170.615 311.33 170.555C311.184 170.495 311.052 170.407 310.94 170.295L309.559 168.914C309.34 168.687 309.218 168.383 309.221 168.067C309.224 167.752 309.351 167.45 309.574 167.227C309.797 167.004 310.099 166.877 310.414 166.874C310.73 166.871 311.034 166.993 311.261 167.212L312.642 168.593C312.81 168.762 312.925 168.976 312.971 169.209C313.017 169.443 312.993 169.685 312.902 169.904C312.811 170.124 312.657 170.312 312.459 170.444C312.261 170.576 312.028 170.647 311.791 170.647V170.646Z" fill="white"/>
<path d="M366.206 225.055C366.048 225.055 365.891 225.025 365.746 224.964C365.6 224.904 365.467 224.816 365.355 224.704L361.9 221.25C361.788 221.139 361.7 221.006 361.639 220.86C361.579 220.714 361.547 220.557 361.547 220.399C361.547 220.241 361.578 220.085 361.639 219.939C361.699 219.792 361.788 219.66 361.9 219.548C362.011 219.436 362.144 219.347 362.29 219.287C362.436 219.226 362.593 219.195 362.751 219.195C362.909 219.195 363.065 219.226 363.211 219.286C363.357 219.347 363.49 219.436 363.602 219.547L367.057 223.002C367.225 223.171 367.34 223.385 367.386 223.619C367.432 223.852 367.408 224.094 367.317 224.314C367.226 224.533 367.072 224.721 366.874 224.854C366.676 224.986 366.444 225.056 366.206 225.056V225.055ZM358.433 217.282C358.275 217.282 358.119 217.252 357.973 217.191C357.827 217.131 357.694 217.043 357.582 216.931L354.127 213.476C353.901 213.25 353.774 212.944 353.775 212.624C353.775 212.305 353.902 211.999 354.127 211.773C354.353 211.548 354.659 211.421 354.979 211.421C355.298 211.421 355.604 211.548 355.83 211.774L359.283 215.222C359.451 215.39 359.566 215.605 359.612 215.838C359.659 216.072 359.635 216.314 359.544 216.534C359.453 216.754 359.299 216.942 359.101 217.074C358.903 217.206 358.67 217.277 358.432 217.277L358.433 217.282ZM350.66 209.509C350.502 209.51 350.346 209.479 350.2 209.419C350.054 209.359 349.921 209.27 349.81 209.159L346.355 205.705C346.129 205.479 346.002 205.173 346.002 204.854C346.002 204.534 346.128 204.228 346.354 204.002C346.58 203.776 346.886 203.649 347.205 203.649C347.524 203.649 347.83 203.776 348.056 204.002L351.511 207.457C351.68 207.625 351.794 207.84 351.84 208.073C351.887 208.306 351.863 208.548 351.771 208.768C351.68 208.988 351.526 209.176 351.328 209.308C351.13 209.44 350.898 209.51 350.66 209.511V209.509ZM342.888 201.737C342.73 201.738 342.573 201.707 342.427 201.647C342.281 201.587 342.148 201.498 342.036 201.386L338.581 197.931C338.466 197.82 338.374 197.687 338.311 197.54C338.248 197.394 338.215 197.236 338.213 197.076C338.212 196.916 338.243 196.757 338.303 196.609C338.364 196.462 338.453 196.327 338.566 196.214C338.679 196.101 338.813 196.012 338.961 195.951C339.109 195.891 339.268 195.86 339.428 195.862C339.587 195.863 339.745 195.896 339.892 195.959C340.039 196.023 340.172 196.114 340.283 196.229L343.738 199.684C343.906 199.853 344.02 200.067 344.067 200.301C344.113 200.534 344.089 200.776 343.998 200.996C343.907 201.215 343.753 201.403 343.555 201.536C343.357 201.668 343.124 201.738 342.886 201.738L342.888 201.737ZM335.114 193.964C334.956 193.964 334.8 193.934 334.654 193.873C334.508 193.813 334.375 193.725 334.264 193.613L330.809 190.159C330.583 189.933 330.456 189.627 330.456 189.308C330.456 188.989 330.583 188.682 330.808 188.456C331.034 188.231 331.34 188.104 331.659 188.104C331.979 188.103 332.285 188.23 332.511 188.456L335.966 191.911C336.134 192.079 336.249 192.294 336.296 192.527C336.342 192.761 336.318 193.003 336.227 193.223C336.136 193.443 335.981 193.631 335.783 193.763C335.585 193.896 335.352 193.966 335.114 193.966V193.964ZM327.342 186.192C327.184 186.192 327.027 186.161 326.881 186.101C326.735 186.041 326.602 185.952 326.49 185.841L323.036 182.385C322.817 182.158 322.696 181.854 322.699 181.539C322.702 181.223 322.828 180.921 323.051 180.698C323.274 180.475 323.576 180.349 323.892 180.346C324.207 180.343 324.511 180.464 324.738 180.684L328.193 184.139C328.362 184.307 328.476 184.521 328.522 184.755C328.569 184.988 328.545 185.23 328.454 185.45C328.362 185.67 328.208 185.858 328.01 185.99C327.812 186.122 327.58 186.193 327.342 186.193V186.192ZM319.57 178.418C319.412 178.419 319.255 178.388 319.109 178.328C318.963 178.267 318.83 178.179 318.718 178.067L315.263 174.612C315.037 174.386 314.91 174.08 314.91 173.761C314.91 173.442 315.037 173.135 315.262 172.91C315.488 172.684 315.794 172.557 316.114 172.557C316.433 172.557 316.739 172.683 316.965 172.909L320.419 176.364C320.587 176.532 320.702 176.747 320.749 176.98C320.795 177.214 320.771 177.456 320.68 177.676C320.589 177.896 320.435 178.084 320.237 178.216C320.039 178.348 319.807 178.419 319.569 178.419L319.57 178.418Z" fill="white"/>
<path d="M450.229 348.611L446.768 363.187L441.584 363.158L441.394 348.611H450.229Z" fill="#FB9F68"/>
<path d="M406.624 349.234L396.777 363.189L392.939 358.261L398.866 347.316L406.624 349.234Z" fill="#FB9F68"/>
<path d="M432.227 157.071C433.905 156.222 435.787 155.862 437.66 156.031C437.33 155.756 436.935 155.569 436.513 155.487C437.556 155.56 438.575 155.826 439.521 156.272C452.459 151.287 454.492 170.337 454.221 174.764C453.949 179.191 458.569 180.636 465.301 184.121C478.146 190.774 479.273 199.685 479.273 199.685C479.173 199.743 479.069 199.811 478.957 199.887C478.32 198.807 477.008 196.78 475.902 196.474C476.569 197.887 477.164 199.333 477.683 200.807C473.893 203.691 466.805 210.077 461.864 214.609C461.937 213.66 461.823 212.707 461.527 211.802L460.918 215.477C458.275 217.906 456.451 219.618 456.451 219.618C456.778 216.041 440.274 197.16 431.664 191.512C429.568 188.427 428.822 182.974 428.767 182.546C428.869 185.333 429.466 188.079 430.529 190.657C423.238 183.948 427.483 159.766 432.227 157.071Z" fill="#06294E"/>
<path d="M432.173 191.795C432.13 191.814 436.33 193.995 439.49 193.13C442.462 192.32 444.402 188.467 444.362 188.458C443.105 188.207 442.741 186.477 442.768 179.045L442.198 179.162L432.632 181.057C432.632 181.057 432.849 184.068 432.856 186.905C432.862 189.281 432.721 191.54 432.173 191.795Z" fill="#FB9F68"/>
<path d="M442.992 160.191C441.6 158.773 439.709 157.953 437.723 157.905C435.736 157.857 433.808 158.585 432.349 159.933C435.893 159.561 439.47 159.647 442.992 160.191Z" fill="#A0C88C"/>
<path d="M432.631 181.053C432.631 181.053 432.849 184.064 432.855 186.902C438.208 186.751 441.042 181.872 442.198 179.161L432.631 181.053Z" fill="#CD7748"/>
<path d="M443.191 178.116C444.781 175.578 445.955 172.802 446.67 169.893C447.15 167.187 445.772 157.157 435.693 158.602C433.662 158.884 431.722 159.618 430.013 160.749C427.824 162.226 424.666 165.418 428.197 174.171L429.116 177.126L443.191 178.116Z" fill="#06294E"/>
<path d="M394.501 354.436L399.572 354.59L405.062 354.759C413.977 343.908 420.699 331.428 424.852 318.013C425.018 317.488 425.193 316.955 425.377 316.417C429.27 305.071 437.339 290.821 441.591 277.927C442.267 275.873 442.877 273.94 443.42 272.11C443.594 271.526 443.764 270.949 443.926 270.383C446.368 262 448.002 253.402 448.804 244.708L418.099 244.954C413.832 282.131 405.927 318.801 394.501 354.436Z" fill="#003878"/>
<path d="M422.4 227.312C422.477 241.923 420.256 248.191 420.256 248.191C429.323 252.219 439.538 252.845 449.029 249.953C449.214 249.896 461.967 246.985 461.967 246.985C461.706 246.393 459.379 236.547 459.124 236.003C455.826 228.92 453.322 225.813 452.925 223.635C452.257 219.59 452.129 215.474 452.545 211.395C453.164 204.877 454.433 198.437 456.334 192.172C451.981 191.03 447.709 189.598 443.548 187.885C442.528 189.154 439.524 190.436 436.82 190.375C433.708 190.308 432.736 188.992 432.851 187.509C429.534 189.354 426.897 191.109 426.897 191.109C424.078 196.006 418.359 200.761 417.948 208.271C417.849 210.119 422.398 226.902 422.4 227.312Z" fill="#E1EDF9"/>
<path d="M448.805 228.939C450.146 230.839 452.719 242.384 459.122 243.836C455.824 235.608 453.32 231.999 452.923 229.469C452.255 224.76 452.128 219.989 452.544 215.251C450.4 211.495 448.801 208.92 448.801 208.92C448.633 208.313 445.395 198.302 444.356 207.251C443.318 216.2 447.305 226.814 448.805 228.939Z" fill="#4D8A98"/>
<path d="M430.845 183.738C430.845 183.738 443.51 183.948 443.519 176.057C443.529 168.167 445.168 162.881 437.086 162.415C429.004 161.948 427.425 164.956 426.78 167.589C426.136 170.222 427.55 183.481 430.845 183.738Z" fill="#FB9F68"/>
<path d="M427.155 163.202C429.109 160.832 430.587 161.348 431.417 162.059C434.154 157.966 442.805 163.884 442.805 163.884C443.366 167.334 445.108 170.482 447.735 172.789C447.735 172.789 445.426 174.214 440.104 172.846C435.915 171.769 432.876 165.808 431.77 163.316C430.55 164.321 429.585 165.6 428.951 167.048C428.321 169.057 428.036 173.193 426.831 173.052C426.832 173.052 424.222 166.765 427.155 163.202Z" fill="#06294E"/>
<path d="M446.942 362.373C446.728 364.389 446.953 366.427 447.602 368.348C447.602 368.348 448.451 372.215 444.643 372.286C440.834 372.358 439.901 372 440.333 369.628C440.764 367.256 441.584 363.159 441.584 363.159L446.942 362.373Z" fill="#FB9F68"/>
<path d="M439.978 374.183L439.991 374.191H447.869L447.882 374.183C448.071 372.236 447.979 370.273 447.608 368.352C443.297 372.474 440.598 368.248 440.598 368.248C440.123 370.189 439.914 372.186 439.978 374.183Z" fill="#78A564"/>
<path d="M383.765 370.196C383.765 370.196 390.783 362.225 392.94 358.266L398.16 360.94L386.493 371.897L383.762 371.538L383.765 370.196Z" fill="#FB9F68"/>
<path d="M379.46 374.171H389.2C390.323 372.868 391.227 371.391 391.877 369.799C392.224 369.234 392.687 368.749 393.235 368.375C393.783 368.001 394.403 367.747 395.056 367.63V374.17H397.071L398.943 367.216C400.186 364.886 399.253 362.749 398.379 360.91C397.361 360.91 394.413 361.642 389.227 367.6C388.582 368.427 387.753 369.092 386.807 369.543C385.86 369.994 384.821 370.218 383.773 370.196C383.749 370.212 383.723 370.226 383.697 370.237C380.736 371.593 379.772 373.257 379.46 374.171Z" fill="#78A564"/>
<path d="M379.931 196.833C379.931 196.833 388.246 201.481 391.216 202.822C392.268 203.298 394.185 204.188 396.141 205.101C397.321 205.652 398.517 206.214 399.549 206.7C400.399 207.099 401.356 207.208 402.274 207.01C403.191 206.812 404.018 206.318 404.628 205.604C409.13 200.348 420.781 188.954 432.816 187.526L432.859 187.509L432.853 187.521H432.868L432.801 187.651C432.125 189.333 425.53 205.813 425.325 209.29C425.11 212.953 424.463 269.202 424.463 269.202C424.463 269.202 424.894 271.788 419.938 270.71C414.981 269.632 413.688 268.556 413.688 268.556C413.688 268.556 418.43 233.858 417.136 221.789C416.925 219.185 417.095 216.565 417.641 214.012C412.644 216.883 407.269 219.041 401.674 220.424C398.836 219.1 396.087 217.594 393.444 215.916C390.975 214.257 388.653 212.389 386.504 210.332C383.699 207.463 381.065 204.432 378.616 201.253L379.931 196.833Z" fill="#A0C88C"/>
<path d="M399.573 354.59L405.062 354.758C413.978 343.908 420.699 331.428 424.852 318.013C425.018 317.487 425.193 316.955 425.377 316.416C429.27 305.071 437.339 290.821 441.591 277.927C442.267 275.873 442.878 273.939 443.42 272.11C443.595 271.525 443.764 270.949 443.927 270.383L439.405 266.951C439.405 266.951 425.83 288.933 421.626 309.621C417.978 327.59 403.358 349.213 399.573 354.59Z" fill="#06294E"/>
<path d="M438.935 311.548C438.857 321.607 439.366 344.736 440.676 354.312H445.538C448.229 354.312 449.566 354.274 449.566 354.274C452.852 337.625 455.19 323.85 456.893 311.979C458.289 302.238 459.531 293.887 460.487 286.697C461.448 279.463 462.115 273.404 462.358 268.286C462.394 267.48 462.422 266.695 462.437 265.934C462.453 265.173 462.456 264.426 462.45 263.703L435.92 261.117C436.251 278.744 438.978 305.699 438.935 311.548Z" fill="#003878"/>
<path d="M445.534 354.312C448.224 354.312 449.561 354.273 449.561 354.273C452.847 337.624 455.186 323.849 456.889 311.979C458.285 302.238 459.526 293.887 460.482 286.697C461.442 279.463 462.11 273.404 462.353 268.286L452.618 274.017C452.618 274.017 458.831 276.209 456.462 292.804C454.092 309.398 448.838 351.963 445.534 354.312Z" fill="#06294E"/>
<path d="M444.285 268.122C444.285 268.122 446.157 274.874 452.619 274.012C459.081 273.15 468.278 269.271 468.278 269.271C468.278 269.271 465.516 260.54 462.079 249.071C457.92 235.186 452.771 217.285 450.344 205.995C449.761 203.456 449.321 200.885 449.025 198.297L443.55 187.887C443.55 187.887 435.663 205.841 435.231 210.367C434.8 214.894 444.285 268.122 444.285 268.122Z" fill="#A0C88C"/>
<path d="M421.193 215.416C424.305 215.826 425.499 217.48 425.882 219.71C426.129 220.863 426.588 221.96 427.237 222.944C430.337 223.11 437.718 223.513 443.921 223.904L444.433 232.039C438.112 231.216 431.892 229.744 425.872 227.646C425.082 227.447 424.356 227.052 423.76 226.498C419.295 222.841 416.76 216.718 416.752 215.841C416.744 214.964 418.082 215.008 421.193 215.416Z" fill="#FB9F68"/>
<path d="M444.572 219.848C444.86 227.175 446.584 241.399 461.957 249.013C461.998 249.032 462.039 249.054 462.08 249.071C457.921 235.187 452.772 217.285 450.345 205.996C447.522 210.214 444.414 215.813 444.572 219.848Z" fill="#78A564"/>
<path d="M443.549 187.885C443.549 187.885 456.699 188.821 459.86 195.857C463.022 202.894 464.027 226.316 460.004 233.214C460.004 233.214 454.466 234.79 444.67 232.96L444.307 232.891C444.307 232.891 441.182 225.24 443.985 223.731C443.985 223.731 452.246 224.163 451.382 221.433C450.519 218.703 443.549 187.885 443.549 187.885Z" fill="#A0C88C"/>
<path d="M371.016 191.306C372.912 190.993 374.857 191.382 376.488 192.399C378.118 193.415 379.323 194.991 379.876 196.832L378.555 201.252C376.375 201.554 374.462 200.985 372.707 198.469C370.953 195.953 370.465 196.92 369.347 195.047C367.832 192.507 370.204 191.56 371.016 191.306Z" fill="#FB9F68"/>
<path d="M391.215 202.822C392.268 203.298 394.185 204.188 396.14 205.102C394.441 208.459 393.518 212.154 393.437 215.915C390.866 214.244 388.471 212.315 386.291 210.158C383.548 207.352 380.983 204.377 378.61 201.253L379.931 196.834C379.931 196.834 388.245 201.482 391.215 202.822Z" fill="#FB9F68"/>
<path d="M98.9643 179.836C98.9643 179.836 81.7132 197.644 80.8863 204.359C80.0593 211.074 89.0936 221.578 89.0936 221.578L98.9643 179.836Z" fill="#3061AC"/>
<path d="M106.339 364.571C106.339 364.571 106.923 374.039 108.756 374.174C109.001 374.192 118.045 374.192 118.045 374.192H129.593C129.514 373.305 129.124 372.474 128.493 371.845C127.862 371.217 127.029 370.83 126.142 370.754C122.766 370.169 117.117 367.795 115.072 363.333C112.922 358.639 106.339 364.571 106.339 364.571Z" fill="#06294E"/>
<path d="M80.6145 364.571C80.6145 364.571 81.1993 374.039 83.0322 374.174C83.2766 374.192 92.3215 374.192 92.3215 374.192L103.901 374.151C103.804 373.269 103.404 372.447 102.768 371.828C102.132 371.209 101.3 370.831 100.415 370.759C97.0398 370.174 91.3905 367.8 89.3459 363.337C87.2031 358.639 80.6145 364.571 80.6145 364.571Z" fill="#06294E"/>
<path d="M119.128 263.05C119.128 263.05 116.108 282.366 104.84 316.655C93.5732 350.944 92.0386 365.793 92.0386 365.793C89.961 366.072 87.8678 366.219 85.7717 366.234C83.815 366.118 81.8697 365.857 79.9516 365.454C79.9516 365.454 79.8486 327.981 85.0406 310.737C90.2327 293.493 86.1612 248.575 86.1612 248.575L119.128 263.05Z" fill="#4D8A98"/>
<path d="M125.008 249.635C124.975 271.331 123.435 292.999 120.4 314.482C115.364 350.222 117.071 365.392 117.071 365.392C117.071 365.392 112.925 366.135 111.469 366.184C109.909 366.236 105.009 365.795 105.009 365.795C105.009 365.795 97.8002 330.041 99.8623 312.154C101.924 294.266 89.9905 250.77 89.9905 250.77L125.008 249.635Z" fill="#6DB1C1"/>
<path d="M101.659 181.518L107.347 185.728L115.569 183.997C115.452 183.248 114.913 180.137 114.419 177.33C114.389 177.164 114.36 176.998 114.332 176.836C113.908 174.44 113.542 172.383 113.542 172.383L105.864 168.555L103 167.128C103.007 167.178 103.222 169.786 103.253 170.169C103.622 174.024 103.076 177.913 101.659 181.518Z" fill="#FB9F68"/>
<path d="M114.995 179.393C114.815 179.317 103.81 176.07 102.616 176.469C101.422 176.868 100.712 179.177 100.712 179.177L118.711 183.246C117.895 181.612 116.598 180.268 114.995 179.393Z" fill="#3061AC"/>
<path d="M85.3637 253.227C87.2293 261.737 118.272 262.745 126.274 255.022C127.184 254.141 127.229 250.045 126.886 244.522C126.215 233.731 124.059 217.503 123.975 209.206C123.892 205.234 123.449 201.278 122.651 197.386C121.702 192.575 120.386 187.844 118.714 183.234C118.714 183.234 103.552 178.332 100.714 179.166C87.0434 183.187 83.497 244.718 85.3637 253.227Z" fill="#5E85C4"/>
<path d="M126.885 244.523C126.213 233.732 124.057 217.505 123.973 209.208C123.891 205.236 123.448 201.28 122.649 197.388L113.526 195.779C113.526 195.779 104.609 232.203 126.885 244.523Z" fill="#3061AC"/>
<path d="M121.947 229.483C121.776 229.915 121.751 230.391 121.874 230.839C121.998 231.287 122.263 231.683 122.631 231.967C123.25 232.377 123.749 232.945 124.074 233.613C124.4 234.28 124.541 235.022 124.484 235.763C124.184 236.944 121.326 238.872 120.328 238.561C119.33 238.249 117.315 236.689 117.531 236.07C117.748 235.452 116.172 230.602 118.593 228.738C121.014 226.873 121.947 229.483 121.947 229.483Z" fill="#FB9F68"/>
<path d="M111.746 181.056C111.746 181.056 120.641 182.721 127.729 193.167C134.817 203.613 139.481 211.378 138.175 215.143C136.87 218.908 124.968 231.964 122.916 231.964C120.865 231.964 117.553 230.471 117.366 227.114C117.366 227.114 125.745 214.556 124.095 212.675C123.393 211.871 113.217 203.613 111.764 207.343C109.361 213.515 111.746 181.056 111.746 181.056Z" fill="#5E85C4"/>
<path d="M103.834 170.286C105.52 173.512 111.803 176.302 114.425 177.329C114.394 177.163 114.365 176.997 114.337 176.835C113.914 174.439 113.547 172.382 113.547 172.382L105.869 168.554C104.167 168.528 103.132 168.957 103.834 170.286Z" fill="#F99157"/>
<path d="M116.017 172.559C116.017 172.559 104.649 176.105 102.55 168.993C100.45 161.88 97.5695 157.546 104.738 154.981C111.907 152.416 114.126 154.712 115.404 156.917C116.683 159.122 118.92 171.451 116.017 172.559Z" fill="#FB9F68"/>
<path d="M114.957 156.229C114.957 156.229 114.232 164.507 112.521 164.148C110.809 163.789 109.256 163.522 109.508 166.019C109.759 168.516 112.132 171.399 106.857 171.837C101.582 172.274 93.997 158.673 95.4462 156.097C99.6277 148.662 120.999 147.161 114.957 156.229Z" fill="#06294E"/>
<path d="M515.535 375.522H34.4611C34.2783 375.522 34.1031 375.449 33.9738 375.319C33.8445 375.19 33.7716 375.015 33.771 374.832C33.7716 374.649 33.8445 374.474 33.9738 374.345C34.1031 374.215 34.2783 374.142 34.4611 374.142H515.535C515.718 374.142 515.894 374.215 516.023 374.344C516.152 374.474 516.225 374.649 516.225 374.832C516.225 375.015 516.152 375.19 516.023 375.32C515.894 375.449 515.718 375.522 515.535 375.522Z" fill="#13243E"/>
</svg>
