<svg width="550" height="349" viewBox="0 0 550 349" fill="none" xmlns="http://www.w3.org/2000/svg">
<path fill-rule="evenodd" clip-rule="evenodd" d="M259.414 35.015C389.869 -9.23729 517.67 19.8917 544.871 100.076C572.072 180.26 488.368 281.136 357.916 325.39C227.463 369.643 99.6594 340.514 72.4592 260.329C45.2591 180.143 128.96 79.2735 259.414 35.015Z" fill="#D5E2F4"/>
<path fill-rule="evenodd" clip-rule="evenodd" d="M50.0114 167.864C43.682 179.988 32.9417 186.884 26.0199 183.274C19.0982 179.665 18.6185 166.903 24.9469 154.78C31.2753 142.657 42.0167 135.76 48.9384 139.37C55.8602 142.981 56.3408 155.74 50.0114 167.865V167.864Z" fill="#E6EFF9"/>
<path fill-rule="evenodd" clip-rule="evenodd" d="M23.7183 119.471C30.1276 121.986 33.8729 127.696 32.0917 132.225C30.3105 136.754 23.6801 138.387 17.2759 135.873C10.8718 133.359 7.12129 127.648 8.90245 123.12C10.6836 118.591 17.3131 116.957 23.7183 119.471Z" fill="#E6EFF9"/>
<path fill-rule="evenodd" clip-rule="evenodd" d="M38.0539 106.332C39.7833 102.726 43.326 100.83 45.9766 102.094C48.6271 103.358 49.3673 107.315 47.6368 110.923C45.9063 114.531 42.3646 116.426 39.7141 115.162C37.0635 113.897 36.3244 109.94 38.0539 106.333V106.332Z" fill="#E6EFF9"/>
<path fill-rule="evenodd" clip-rule="evenodd" d="M205.922 23.4531C316.571 60.6803 427.872 -20.2059 462.656 109.608C482.977 185.445 328.973 211.629 238.782 223.271C148.591 234.914 68.6076 194.399 60.1332 132.782C51.6588 71.1653 95.2733 -13.7751 205.922 23.4531Z" fill="#E6EFF9"/>
<path fill-rule="evenodd" clip-rule="evenodd" d="M95.2483 34.7002L87.0406 68.1078L185.465 93.3997L179.811 16.6505C182.063 17.0578 184.346 17.5188 186.661 18.0336L187.234 25.8309L239.671 38.1404L240.75 31.6466C242.985 31.9723 245.219 32.2751 247.447 32.5346L246.347 39.1504L298.677 43.31L299.835 34.0748C302.119 33.9983 304.393 33.9122 306.658 33.8164L305.367 44.107L334.026 48.4931L335.77 32.3951C338.05 32.2903 340.311 32.1969 342.552 32.1149L330.97 139.08L359.443 142.775L369.618 32.0074C371.88 32.1046 374.117 32.2376 376.329 32.4064L366.68 137.441L371.125 138.365L374.02 108.164L423.71 123.463L424.532 47.3818C426.844 48.9726 429.062 50.6964 431.174 52.5442L430.641 101.876L459.206 98.1445C460.038 100.613 460.824 103.21 461.59 105.854L430.55 109.912L429.874 172.642C427.706 173.993 425.459 175.311 423.134 176.595L423.34 157.346L365.946 145.4L365.239 153.1L355.25 189.677L360.84 200.5C358.55 201.134 356.248 201.754 353.931 202.361L347.914 190.709L358.647 151.406L358.711 150.705L330.109 146.994L325.975 185.144L293.619 179.872L289.47 215.845C287.157 216.234 284.858 216.613 282.573 216.982L287.999 169.935L287.414 137.205L234.608 124.349L232.052 213.249L241.55 216.309L263.531 219.89C254.906 221.141 246.598 222.268 238.777 223.273C238.466 223.313 238.156 223.346 237.846 223.384L203.103 212.192L204.367 225.232C202.093 225.195 199.834 225.133 197.59 225.032L196.198 210.679L146.866 208.959L145.368 216.151C143.183 215.476 141.028 214.764 138.903 214.017L140.006 208.721L124.397 208.179C118.89 205.662 113.539 202.816 108.374 199.656L141.654 200.813L147.241 173.979L108.799 172.308L101.795 195.366C99.7963 193.975 97.8595 192.54 95.9843 191.062L105.444 159.923L98.7991 153.376L112.014 119.17L76.5463 110.835L66.0293 153.641C64.3636 149.825 62.9981 145.885 61.9451 141.856L86.134 43.4248C88.9627 40.3023 92.011 37.386 95.2555 34.6981L95.2483 34.7002ZM111.184 164.446L151.602 166.203L191.901 166.266L189.09 137.288L118.768 120.762L107.036 151.132L113.341 157.347L111.185 164.447L111.184 164.446ZM192.671 174.226L154.107 174.166L148.508 201.055L195.431 202.685L192.671 174.226ZM114.891 111.712L124.83 85.987L85.153 75.7904L78.4339 103.144L114.893 111.711L114.891 111.712ZM131.534 87.7102L121.643 113.3L188.273 128.96L187.482 120.793L187.468 120.684L186.072 101.724L131.529 87.7081L131.534 87.7102ZM187.843 34.1121L194.17 120L197.183 151.063L227.106 152.279L228.45 105.699L238.373 45.9729L187.848 34.1121H187.843ZM245.037 47.0449L235.113 106.734L234.839 116.272L287.907 129.193L297.68 51.2314L245.032 47.0469L245.037 47.0449ZM304.378 51.986L301.58 74.3143L330.578 80.3284L333.17 56.3906L304.378 51.985V51.986ZM300.59 82.215L294.067 134.248L294.713 170.434L294.534 171.979L320.2 176.16L329.72 88.2549L300.59 82.2129V82.215ZM377.744 139.751L423.428 149.261L423.618 131.667L379.81 118.182L377.743 139.751H377.744ZM197.957 159.062L202.283 203.655L225.415 211.106L226.876 160.237L197.956 159.062H197.957Z" fill="white"/>
<path fill-rule="evenodd" clip-rule="evenodd" d="M220.595 293.962C180.337 295.109 154.533 296.875 154.533 298.858C154.533 301.078 186.868 303.028 235.627 304.139C230.299 301.24 225.264 297.832 220.595 293.961V293.962Z" fill="#979797"/>
<path fill-rule="evenodd" clip-rule="evenodd" d="M329.791 292.597C288.497 292.597 250.544 293.108 220.591 293.962C225.26 297.833 230.294 301.241 235.621 304.14C262.821 304.76 295.13 305.122 329.791 305.122C354.417 305.122 377.85 304.94 399.108 304.613C407.89 301.389 416.5 297.714 424.902 293.602C397.508 292.97 364.853 292.6 329.79 292.6L329.791 292.597Z" fill="#979797"/>
<path fill-rule="evenodd" clip-rule="evenodd" d="M244.644 208.651C228.605 213.913 201.427 216.731 181.712 222.731C161.997 228.73 154.532 239.871 154.532 243.054V262.521C154.532 267.664 161.079 272.746 170.938 278.438C180.796 284.131 189.547 282.968 194.567 282.968H196.722C194.972 278.109 194.418 272.901 195.106 267.783C195.793 262.664 197.703 257.787 200.672 253.562C203.642 249.336 207.584 245.888 212.167 243.508C216.75 241.127 221.838 239.884 227.003 239.884C232.167 239.884 237.255 241.127 241.838 243.508C246.421 245.888 250.364 249.336 253.333 253.562C256.303 257.787 258.212 262.664 258.899 267.783C259.587 272.901 259.033 278.109 257.284 282.968H427.527C424.905 275.695 424.988 267.721 427.762 260.504C430.536 253.288 435.815 247.311 442.633 243.666C449.452 240.021 457.354 238.953 464.896 240.656C472.437 242.359 479.114 246.719 483.705 252.94C489.524 247.297 494.924 241.238 499.862 234.81C499.666 233.445 499.561 232.069 499.549 230.69C499.549 218.325 475.675 193.716 471.879 189.798C468.084 185.88 463.309 181.227 463.799 179.391C464.29 177.554 469.529 178.528 469.921 177.064C470.312 175.601 458.29 173.147 444.944 170.943C431.598 168.739 390.951 164.576 363.893 166.045C336.835 167.514 321.654 171.307 300.105 181.35C278.556 191.392 265.701 200.082 244.643 208.652L244.644 208.651Z" fill="#FFC000"/>
<path fill-rule="evenodd" clip-rule="evenodd" d="M342.502 257.918C308.281 257.918 280.541 258.69 280.541 259.648C280.541 260.605 308.282 261.378 342.502 261.378C376.722 261.378 404.463 260.606 404.463 259.648C404.463 258.689 376.722 257.918 342.502 257.918Z" fill="#FFA700"/>
<path fill-rule="evenodd" clip-rule="evenodd" d="M499.555 231.093C499.555 230.957 499.55 230.821 499.55 230.687C499.55 230.504 499.544 230.316 499.534 230.126C494.819 231.043 490.288 232.731 486.122 235.122C484.89 235.853 483.607 236.777 482.235 237.764C479.485 239.742 476.367 241.984 472.548 243.428C472.919 243.62 473.285 243.819 473.647 244.024C476.899 242.558 479.967 240.715 482.788 238.533C484.134 237.565 485.393 236.66 486.605 235.937C490.629 233.627 495.003 231.989 499.555 231.089V231.093Z" fill="#E67913"/>
<path fill-rule="evenodd" clip-rule="evenodd" d="M498.404 225.235C496.31 219.548 491.627 212.73 486.736 206.566C481.445 205.828 479.176 205.724 478.726 207.174C478.133 209.087 488.128 222.837 493.433 224.519C495.047 224.995 496.721 225.236 498.404 225.235Z" fill="#E83039"/>
<path fill-rule="evenodd" clip-rule="evenodd" d="M184.135 222.021C183.317 222.254 182.51 222.491 181.714 222.731C167.506 227.055 159.66 234.049 156.386 238.811C164.377 242.166 183.72 237.043 188.498 235.848C194.195 234.424 192.881 226.426 191.234 224.401C189.435 222.654 186.961 221.974 184.133 222.021H184.135Z" fill="white"/>
<path fill-rule="evenodd" clip-rule="evenodd" d="M467.61 211.425C463.417 216.012 409.494 215.834 394.88 215.836C364.31 215.841 295.437 221.433 295.437 220.496C295.437 218.774 305.45 218.311 328.482 215.968C340.191 214.775 355.265 213.545 374.1 212.539C429.979 209.553 473.712 204.751 467.61 211.425Z" fill="#FFDC46"/>
<path fill-rule="evenodd" clip-rule="evenodd" d="M179.515 225.39C176.822 225.39 172.401 228.259 169.64 231.799C166.879 235.339 166.823 238.209 169.516 238.209C172.209 238.209 176.63 235.339 179.392 231.799C182.153 228.259 182.209 225.39 179.515 225.39Z" fill="#EEEEEE"/>
<path fill-rule="evenodd" clip-rule="evenodd" d="M457.809 242.349C452.368 242.349 447.03 243.844 442.381 246.671C437.731 249.498 433.947 253.548 431.442 258.379C428.937 263.21 427.807 268.636 428.176 274.065C428.545 279.495 430.399 284.718 433.534 289.166C452.143 279.165 468.474 267.425 481.9 254.681C479.151 250.861 475.532 247.751 471.342 245.607C467.153 243.462 462.513 242.346 457.807 242.349H457.809Z" fill="#040505"/>
<path fill-rule="evenodd" clip-rule="evenodd" d="M227.004 242.349C221.13 242.349 215.388 244.091 210.504 247.354C205.62 250.618 201.813 255.256 199.565 260.683C197.317 266.11 196.729 272.081 197.875 277.843C199.02 283.604 201.849 288.896 206.003 293.049C210.156 297.203 215.448 300.032 221.209 301.178C226.97 302.324 232.942 301.736 238.369 299.488C243.796 297.24 248.435 293.433 251.698 288.549C254.961 283.665 256.703 277.923 256.703 272.049C256.703 264.172 253.574 256.618 248.005 251.048C242.435 245.479 234.881 242.349 227.004 242.349Z" fill="#040505"/>
<path fill-rule="evenodd" clip-rule="evenodd" d="M439.905 179.269C444.018 182.662 449.777 198.703 450.804 204.563C450.804 204.563 384.073 207.853 374.099 209.087L375.642 172.277C375.642 172.277 434.971 175.364 439.908 179.268L439.905 179.269Z" fill="white"/>
<path fill-rule="evenodd" clip-rule="evenodd" d="M439.906 179.269C442.475 181.389 445.686 188.443 447.985 194.868C442.724 196.828 435.68 196.924 432.094 199.378C429.811 200.941 430.176 203.212 431.662 205.539C417.344 206.286 398.161 207.326 385.659 208.16C392.939 201.79 388.25 194.479 393.436 190.682C400.652 185.399 417.815 190.682 422.727 185.05C424.442 183.085 424.981 179.718 424.957 176.169C432.618 177.099 438.497 178.151 439.907 179.269H439.906ZM374.307 204.123L374.387 202.216C375.154 202.167 375.909 201.998 376.624 201.717C377.809 201.255 378.774 200.358 379.321 199.21C380.099 197.596 380.29 195.248 379.543 191.975C378.144 185.831 381.262 183.094 386.095 181.992C390.395 181.01 396.052 181.425 400.869 181.778C404.93 182.074 408.363 182.325 409.451 181.699C411.468 180.541 410.815 178.441 409.597 176.323C409.258 175.733 408.863 175.122 408.459 174.518C409.258 174.586 410.055 174.655 410.851 174.725C410.983 174.941 411.113 175.159 411.24 175.379C412.96 178.371 413.774 181.4 410.399 183.342C408.799 184.261 405.106 183.992 400.738 183.673C396.045 183.33 390.534 182.928 386.516 183.843C382.75 184.701 380.319 186.819 381.398 191.561C382.249 195.292 381.988 198.058 381.034 200.037C380.286 201.612 378.965 202.844 377.341 203.48C376.374 203.861 375.35 204.079 374.311 204.125L374.307 204.123Z" fill="#EEEEEE"/>
<path fill-rule="evenodd" clip-rule="evenodd" d="M364.845 172.277L357.956 210.527C357.956 210.527 278.372 218.034 277.447 217.107C276.521 216.181 283.085 197.988 283.599 196.715C284.113 195.442 313.64 176.287 364.843 172.277H364.845Z" fill="white"/>
<path fill-rule="evenodd" clip-rule="evenodd" d="M364.845 172.277L363.021 182.394C354.936 183.173 346.704 183.471 345.402 186.869C342.128 195.42 355.963 195.124 352.862 206.699C352.405 208.552 351.303 210.18 349.752 211.292C329.406 213.179 278.186 217.848 277.444 217.107C277.211 216.873 277.454 215.54 277.957 213.658C294.374 207.748 314.474 209.316 314.474 204.563C314.474 198.184 300.466 199.378 302.285 192.164C304.058 185.135 332.772 184.357 334.241 176.778C344.325 174.574 354.55 173.07 364.842 172.277L364.845 172.277ZM281.652 202.126C282.058 200.96 282.434 199.902 282.746 199.032C285.099 197.946 287.456 198.124 289.425 198.273C291.02 198.393 292.28 198.488 292.69 197.668C293.106 196.834 292.303 195.475 291.427 193.994C291.099 193.438 290.763 192.871 290.462 192.29C290.994 192.002 291.557 191.705 292.149 191.398C292.426 191.951 292.748 192.497 293.061 193.028C294.21 194.974 295.264 196.759 294.389 198.515C293.407 200.479 291.587 200.339 289.282 200.168C287.065 200 284.273 199.789 281.65 202.126H281.652Z" fill="#EEEEEE"/>
<path fill-rule="evenodd" clip-rule="evenodd" d="M280.136 199.378C280.136 199.378 254.354 215.29 253.225 217.187C252.096 219.084 275.361 217.187 275.361 217.187C276.36 211.107 277.959 205.142 280.136 199.378Z" fill="white"/>
<path fill-rule="evenodd" clip-rule="evenodd" d="M297.975 208.704C297.703 213.609 293.782 214.862 291.058 214.535C288.334 214.208 281.58 211.861 281.58 208.704C281.58 205.548 285.501 202.061 289.777 202.061C294.054 202.061 298.216 204.323 297.975 208.704Z" fill="#FFC000"/>
<path fill-rule="evenodd" clip-rule="evenodd" d="M449.664 214.153C449.719 216.168 451.952 217.094 445.034 216.876C438.115 216.658 431.58 218.401 432.124 216.277C432.668 214.152 437.38 212.737 441.07 212.737C444.76 212.737 450.051 211.754 449.662 214.153H449.664Z" fill="white"/>
<path fill-rule="evenodd" clip-rule="evenodd" d="M360.015 219.708C360.069 221.724 362.303 222.65 355.385 222.431C348.467 222.212 341.931 223.957 342.475 221.833C343.019 219.709 347.731 218.292 351.421 218.292C355.111 218.292 360.402 217.31 360.014 219.708H360.015Z" fill="white"/>
<path d="M370.306 172.277L366.248 209.088C364.853 214.584 361.605 247.263 361.605 273.587M450.805 204.563C450.805 204.563 456.185 225.043 453.12 230.609C450.056 236.175 442.263 236.906 431.587 247.034C420.91 257.162 421.273 270.416 418.082 272.047C414.89 273.677 361.604 273.587 361.604 273.587C361.604 273.587 279.895 276.585 277.453 274.316C275.011 272.047 275.011 247.603 275.011 240.749C275.011 233.895 274.689 221.377 277.416 217.051L450.805 204.563Z" stroke="#E67913" stroke-width="1.36894" stroke-miterlimit="22.926"/>
<path fill-rule="evenodd" clip-rule="evenodd" d="M158.799 250.754C158.799 251.464 180.42 253.823 184.881 252.174C189.342 250.526 189.001 247.344 184.228 247.344C179.455 247.344 174.142 249.302 168.629 249.673C163.117 250.044 158.799 250.045 158.799 250.753V250.754Z" fill="#FFDC46"/>
<path fill-rule="evenodd" clip-rule="evenodd" d="M170.181 260.712C170.181 260.712 169.62 265.722 170.027 267.409C170.435 269.095 171.203 270.68 173.196 270.629C175.19 270.579 178.297 267.971 178.297 263.983C178.297 259.996 170.18 260.712 170.18 260.712H170.181Z" fill="white"/>
<path d="M166.549 259.18C171.715 259.691 177.379 258.549 179.268 261.066C180.967 263.335 180.638 266.274 177.386 270.629" stroke="#E67913" stroke-width="1.02658" stroke-miterlimit="22.926"/>
<path fill-rule="evenodd" clip-rule="evenodd" d="M457.81 253.12C454.25 253.12 450.762 254.124 447.747 256.016C444.732 257.909 442.312 260.613 440.764 263.819C439.217 267.025 438.605 270.602 438.998 274.14C439.392 277.678 440.776 281.034 442.99 283.821C453.856 277.399 464.166 270.079 473.812 261.938C472.107 259.236 469.745 257.01 466.947 255.468C464.148 253.926 461.005 253.119 457.81 253.12Z" fill="#262626"/>
<path fill-rule="evenodd" clip-rule="evenodd" d="M471.902 263.533C469.975 260.352 467.032 257.914 463.548 256.613C465.137 259.441 465.97 262.631 465.965 265.875C465.964 266.722 465.908 267.568 465.795 268.408C467.88 266.806 469.915 265.182 471.899 263.536L471.902 263.533Z" fill="#545454"/>
<path fill-rule="evenodd" clip-rule="evenodd" d="M227.005 253.12C223.261 253.12 219.602 254.23 216.489 256.31C213.377 258.39 210.951 261.345 209.518 264.804C208.086 268.262 207.711 272.068 208.441 275.739C209.172 279.411 210.974 282.783 213.621 285.43C216.268 288.077 219.641 289.88 223.312 290.61C226.984 291.34 230.789 290.965 234.247 289.533C237.706 288.1 240.662 285.675 242.742 282.562C244.821 279.45 245.931 275.79 245.931 272.047C245.931 267.027 243.937 262.213 240.388 258.664C236.838 255.114 232.024 253.12 227.005 253.12Z" fill="#262626"/>
<path fill-rule="evenodd" clip-rule="evenodd" d="M217.17 285.25C220.449 287.693 224.519 288.827 228.589 288.434C232.659 288.04 236.436 286.146 239.186 283.12C241.936 280.094 243.461 276.153 243.465 272.064C243.469 267.976 241.952 264.032 239.208 261.001C240.213 264.163 240.37 267.535 239.662 270.777C238.954 274.019 237.407 277.018 235.175 279.474C232.943 281.93 230.105 283.757 226.945 284.77C223.785 285.784 220.414 285.949 217.17 285.25Z" fill="#545454"/>
<path fill-rule="evenodd" clip-rule="evenodd" d="M188.335 226.732C186.551 226.732 183.623 228.633 181.794 230.978C179.964 233.324 179.927 235.224 181.711 235.224C183.496 235.224 186.424 233.323 188.253 230.978C190.082 228.633 190.12 226.732 188.335 226.732Z" fill="#FFEB54"/>
<path fill-rule="evenodd" clip-rule="evenodd" d="M285.83 211.157C287.573 212.139 288.894 212.49 287.307 216.699C285.721 220.909 284.738 221.561 280.137 221.561C275.536 221.561 275.916 218.293 278.748 215.352C281.58 212.41 283.815 210.23 285.83 211.158V211.157Z" fill="#FE9600"/>
<path fill-rule="evenodd" clip-rule="evenodd" d="M316.793 69.8741C320.741 69.8741 323.939 70.5119 323.939 71.2997C323.939 72.0874 320.74 72.7263 316.793 72.7263C312.846 72.7263 309.646 72.0874 309.646 71.2997C309.646 70.5119 312.851 69.8741 316.793 69.8741Z" fill="#C1C1C0"/>
<path fill-rule="evenodd" clip-rule="evenodd" d="M316.793 2.55387e-08C319.541 -0.000135736 322.262 0.541003 324.8 1.5924C327.338 2.6438 329.645 4.18493 331.588 6.12778C333.531 8.07063 335.072 10.3772 336.123 12.9156C337.175 15.4541 337.716 18.1748 337.716 20.9225C337.716 32.4763 316.793 71.3006 316.793 71.3006C316.793 71.3006 295.871 32.4773 295.871 20.9225C295.871 18.1748 296.412 15.4541 297.463 12.9156C298.514 10.3772 300.056 8.07063 301.998 6.12778C303.941 4.18493 306.248 2.6438 308.786 1.5924C311.325 0.541003 314.046 -0.000135736 316.793 2.55387e-08Z" fill="#A02167"/>
<path fill-rule="evenodd" clip-rule="evenodd" d="M316.794 13.7717C318.207 13.7715 319.589 14.1905 320.765 14.9758C321.94 15.761 322.857 16.8772 323.398 18.1832C323.939 19.4892 324.081 20.9263 323.805 22.3128C323.529 23.6994 322.848 24.973 321.849 25.9727C320.849 26.9724 319.576 27.6532 318.189 27.9291C316.803 28.205 315.366 28.0635 314.06 27.5225C312.754 26.9816 311.637 26.0655 310.852 24.8901C310.066 23.7147 309.647 22.3328 309.647 20.9191C309.647 19.9806 309.832 19.0512 310.191 18.184C310.55 17.3168 311.076 16.5289 311.74 15.8652C312.404 15.2015 313.191 14.675 314.058 14.3158C314.926 13.9566 315.855 13.7717 316.794 13.7717Z" fill="white"/>
<path fill-rule="evenodd" clip-rule="evenodd" d="M70.9233 159.274C70.9233 159.274 70.7419 165.26 68.6564 167.074C66.5709 168.888 65.7546 159.183 65.7546 159.183L70.9233 159.274Z" fill="#040505"/>
<path fill-rule="evenodd" clip-rule="evenodd" d="M59.5265 340.471C59.0382 340.471 58.5482 340.471 58.0563 340.471C25.9925 340.471 0 342.264 0 344.476C0 346.689 25.9911 348.483 58.0563 348.483C69.4457 348.483 80.0669 348.256 89.0318 347.865C105.305 347.155 116.113 345.902 116.113 344.476C116.113 342.297 90.9108 340.524 59.5265 340.471Z" fill="#E0E0DF"/>
<path fill-rule="evenodd" clip-rule="evenodd" d="M68.3045 194.368C68.3282 191.931 68.4081 189.191 67.0591 187.001C65.7101 184.81 59.4066 186.188 54.6524 186.016C49.8982 185.843 38.6516 182.85 36.9737 186.828C36.4684 187.907 36.2065 189.084 36.2065 190.276C36.2065 191.468 36.4684 192.645 36.9737 193.724C34.3816 195.946 32.1213 198.528 30.262 201.391C27.7191 205.588 25.6432 213.594 24.2421 216.337C22.841 219.081 21.4914 225.891 22.3212 230.517C23.151 235.144 22.9439 240.412 24.7091 242.125C26.4744 243.838 31.8161 245.662 39.6046 246.099C47.3932 246.537 64.5236 250.357 64.5236 239.717C64.5236 229.076 72.1321 222.205 68.3052 194.367L68.3045 194.368Z" fill="#00307F"/>
<path fill-rule="evenodd" clip-rule="evenodd" d="M68.304 194.368C68.3229 192.405 68.3777 190.253 67.6948 188.344C65.3122 188.378 62.4519 188.7 60.0023 188.615C55.2488 188.444 44.0015 185.449 42.3236 189.427C41.8182 190.506 41.5563 191.683 41.5563 192.875C41.5563 194.067 41.8182 195.244 42.3236 196.323C39.731 198.545 37.4705 201.127 35.6113 203.99C33.0677 208.187 30.9925 216.193 29.5873 218.936C28.1822 221.679 26.8366 228.49 27.6671 233.116C28.4793 237.641 28.2986 242.781 29.942 244.606C33.0962 245.451 36.3329 245.953 39.5953 246.1C47.3791 246.537 64.5143 250.358 64.5143 239.717C64.5143 229.076 72.1227 222.206 68.2958 194.368H68.304Z" fill="#082970"/>
<path fill-rule="evenodd" clip-rule="evenodd" d="M96.5517 338.717C96.5517 338.717 97.2685 344.664 91.6066 344.478C88.1819 344.366 84.7667 344.055 81.378 343.547V344.48H72.3942V340.245L96.5517 338.718V338.717Z" fill="#53280E"/>
<path fill-rule="evenodd" clip-rule="evenodd" d="M74.0587 255.198L82.1734 328.868H72.9168L59.1043 276.3L47.6323 331.781H38.3059L38.2383 255.198H74.0587Z" fill="#0D194E"/>
<path fill-rule="evenodd" clip-rule="evenodd" d="M69.4708 223.689C71.4527 229.358 75.4152 234.755 81.8882 234.209C88.3612 233.663 81.8882 216.767 81.8882 216.767L69.4708 223.689Z" fill="#FFC086"/>
<path fill-rule="evenodd" clip-rule="evenodd" d="M83.7866 222.887C83.2642 220.814 82.6304 218.77 81.888 216.765L76.0039 220.045C75.9138 223.908 76.9894 227.856 81.7005 228.052L83.7866 222.887Z" fill="#FCA972"/>
<path fill-rule="evenodd" clip-rule="evenodd" d="M51.3879 179.657L49.8988 197.449H62.2512C62.2512 197.449 59.4299 187.662 59.4299 182.641L51.3886 179.658L51.3879 179.657Z" fill="#FFC086"/>
<path fill-rule="evenodd" clip-rule="evenodd" d="M51.3887 179.657L51.0773 183.369C53.8701 186.235 57.5821 188.898 60.4182 189.996C59.8629 187.58 59.5322 185.117 59.4307 182.64L51.3893 179.657H51.3887Z" fill="#F58254"/>
<path fill-rule="evenodd" clip-rule="evenodd" d="M68.6996 155.955C68.6996 155.955 73.2 185.454 58.5469 185.454C43.8937 185.454 45.6189 165.312 45.6189 160.241V155.955H68.6996Z" fill="#FFC086"/>
<path fill-rule="evenodd" clip-rule="evenodd" d="M43.8659 167.879C48.4008 168.24 51.7173 165.239 51.7173 162.76C51.6296 161.039 51.1547 159.359 50.3278 157.847C51.9788 159.473 53.9351 160.757 56.084 161.624C58.2329 162.492 60.5322 162.926 62.8496 162.902C70.6455 162.767 74.0955 158.73 73.6413 153.651C73.3469 150.356 70.3288 147.658 67.5496 147.658C64.7705 147.658 59.9343 149.731 56.5501 149.731C53.1658 149.731 49.4052 148.289 47.0247 150.317C44.6442 152.346 44.8257 154.374 44.8257 154.374C44.8257 154.374 39.0352 155.817 39.0352 160.821C39.0352 165.825 42.835 168.206 43.7244 168.159L43.8659 167.879Z" fill="#040505"/>
<path fill-rule="evenodd" clip-rule="evenodd" d="M56.451 169.685C56.6368 169.677 56.8207 169.724 56.9793 169.821C57.1378 169.919 57.2635 170.061 57.3404 170.23C57.4172 170.4 57.4416 170.588 57.4104 170.772C57.3793 170.955 57.2939 171.125 57.1654 171.259C57.0368 171.393 56.871 171.486 56.6893 171.526C56.5075 171.565 56.3182 171.549 56.1456 171.48C55.973 171.411 55.8251 171.291 55.7209 171.137C55.6166 170.983 55.5609 170.801 55.5609 170.616C55.5556 170.374 55.6464 170.14 55.8133 169.966C55.9802 169.791 56.2096 169.69 56.451 169.685Z" fill="#040505"/>
<path fill-rule="evenodd" clip-rule="evenodd" d="M65.4085 169.808C65.5945 169.799 65.7787 169.847 65.9374 169.944C66.0962 170.041 66.2221 170.184 66.2991 170.353C66.3761 170.523 66.4006 170.712 66.3694 170.895C66.3382 171.079 66.2528 171.249 66.1241 171.383C65.9954 171.518 65.8294 171.611 65.6475 171.65C65.4656 171.689 65.276 171.673 65.1032 171.604C64.9305 171.535 64.7825 171.415 64.6782 171.261C64.574 171.107 64.5183 170.925 64.5184 170.739C64.5131 170.497 64.604 170.263 64.7709 170.089C64.9378 169.914 65.1671 169.813 65.4085 169.808Z" fill="#040505"/>
<path fill-rule="evenodd" clip-rule="evenodd" d="M62.0347 169.933C63.4819 172.538 64.4532 174.604 59.977 175.399C59.8893 175.42 59.7968 175.407 59.7188 175.361C59.6408 175.316 59.5834 175.242 59.5587 175.155C59.5404 174.996 59.6988 174.848 59.9113 174.824C63.6565 174.161 62.5931 172.482 61.3328 170.208C61.2441 170.066 61.3328 169.89 61.525 169.814C61.6116 169.775 61.7086 169.765 61.8013 169.786C61.8939 169.808 61.9769 169.859 62.0374 169.932L62.0347 169.933Z" fill="#F58254"/>
<path fill-rule="evenodd" clip-rule="evenodd" d="M35.432 200.983C36.6741 199.138 50.3661 191.858 50.3661 191.858C50.3661 191.858 52.5672 196.421 56.7894 196.421C61.0116 196.421 60.7152 191.386 60.7152 191.386C60.7152 191.386 75.2269 195.244 76.5928 196.733C77.9587 198.222 83.9806 221.328 83.9806 221.328C83.9806 221.328 80.0075 224.402 72.309 223.94C72.309 223.94 74.1717 242.949 74.7924 247.048C75.413 251.147 76.741 254.104 76.3694 254.565C73.8475 257.696 65.7428 258.869 62.1684 259.352C53.5629 260.513 43.8406 259.087 36.075 255.082C35.0821 254.571 37.6027 232.753 38.3479 228.859C38.3479 228.859 28.9728 226.604 28.9106 225.99C28.8483 225.375 34.2523 202.624 35.432 200.983Z" fill="#A02167"/>
<path fill-rule="evenodd" clip-rule="evenodd" d="M77.7847 223.658C76.7331 223.839 75.6699 223.944 74.6033 223.974L74.076 204.065C78.0162 210.719 77.8991 220.852 77.782 223.658H77.7847Z" fill="#E13A18"/>
<path fill-rule="evenodd" clip-rule="evenodd" d="M48.9162 192.638L49.2547 192.455C49.9719 193.89 51.0317 195.126 52.3405 196.054C53.67 197.12 55.3484 197.654 57.0496 197.552C60.2194 197.168 61.2909 195.511 61.5339 193.849C61.6303 193.095 61.6037 192.33 61.4554 191.585L61.8778 191.7C62.0069 192.422 62.0242 193.16 61.9292 193.888C61.6673 195.678 60.5153 197.464 57.1072 197.876C55.2927 197.995 53.4992 197.433 52.0772 196.3C50.7444 195.351 49.6598 194.095 48.9155 192.637L48.9162 192.638Z" fill="#E13A18"/>
<path fill-rule="evenodd" clip-rule="evenodd" d="M79.5092 225.507C78.5846 230.011 80.1184 233.982 82.442 234.114C84.7656 234.246 86.9722 233.173 90.4066 226.85C93.8409 220.528 97.0769 204.23 97.6055 203.303C98.1342 202.377 103.219 203.249 104.673 201.45C106.126 199.651 107.116 191.385 104.673 191.385C102.229 191.385 94.3919 194.634 92.6963 201.123C91.0008 207.612 83.9818 212.755 79.5092 225.507Z" fill="#FFC086"/>
<path fill-rule="evenodd" clip-rule="evenodd" d="M80.8554 323.498C84.1997 324.737 82.3573 331.385 83.1763 332.625C83.9953 333.864 86.0434 334.709 89.115 334.089C92.1866 333.469 97.3726 334.033 97.3726 337.752C97.3726 341.47 96.0541 342.822 89.115 342.822C82.1759 342.822 72.5721 342.834 72.1477 341.527C71.7233 340.219 71.7084 328.849 72.5754 327.609C72.8461 327.284 75.1583 327.947 76.0511 327.16C77.3892 325.979 77.7385 323.321 80.8567 323.499L80.8554 323.498Z" fill="#A02167"/>
<path fill-rule="evenodd" clip-rule="evenodd" d="M90.5845 333.903C89.0473 334.1 88.0632 335.329 87.4661 336.396C87.4165 336.483 87.3378 336.55 87.244 336.585C87.1501 336.62 87.0469 336.621 86.9524 336.588C86.9071 336.579 86.8644 336.56 86.8273 336.533C86.7901 336.505 86.7594 336.47 86.7373 336.43C86.7152 336.389 86.7023 336.344 86.6994 336.298C86.6966 336.252 86.7039 336.206 86.7209 336.163C87.4952 334.78 88.6243 333.476 90.5852 333.245C90.6349 333.233 90.6866 333.232 90.7365 333.244C90.7864 333.255 90.8331 333.277 90.8732 333.308C90.9133 333.34 90.9457 333.38 90.9679 333.426C90.9902 333.472 91.0018 333.523 91.0018 333.574C91.0018 333.625 90.9902 333.675 90.9679 333.721C90.9457 333.767 90.9133 333.808 90.8732 333.839C90.8331 333.871 90.7864 333.893 90.7365 333.904C90.6866 333.915 90.6349 333.915 90.5852 333.903H90.5845Z" fill="#040505"/>
<path fill-rule="evenodd" clip-rule="evenodd" d="M87.0954 334.25C85.9035 334.461 84.8364 335.118 84.1097 336.086C84.0543 336.17 83.9714 336.232 83.8752 336.263C83.7789 336.293 83.6752 336.289 83.5817 336.251C83.5372 336.239 83.4958 336.218 83.4606 336.189C83.4254 336.159 83.3972 336.122 83.378 336.08C83.3589 336.039 83.3493 335.993 83.35 335.947C83.3507 335.901 83.3616 335.856 83.382 335.815C83.8185 335.213 84.3725 334.705 85.0106 334.323C85.6488 333.94 86.3577 333.691 87.0947 333.591C87.1444 333.579 87.1962 333.579 87.246 333.59C87.2959 333.601 87.3426 333.623 87.3827 333.654C87.4228 333.686 87.4552 333.727 87.4774 333.773C87.4997 333.818 87.5113 333.869 87.5113 333.92C87.5113 333.971 87.4997 334.022 87.4774 334.067C87.4552 334.113 87.4228 334.154 87.3827 334.185C87.3426 334.217 87.2959 334.239 87.246 334.25C87.1962 334.261 87.1444 334.261 87.0947 334.249L87.0954 334.25Z" fill="#040505"/>
<path fill-rule="evenodd" clip-rule="evenodd" d="M84.0709 333.553C83.5172 333.516 82.5215 334.342 82.2169 334.622C82.1515 334.7 82.0617 334.753 81.9621 334.773C81.8625 334.794 81.7591 334.779 81.6686 334.733C81.6261 334.717 81.5879 334.691 81.557 334.657C81.526 334.624 81.5031 334.584 81.4901 334.54C81.477 334.497 81.4741 334.451 81.4816 334.406C81.4891 334.361 81.5067 334.318 81.5332 334.281C82.1675 333.678 83.1936 332.797 84.282 332.918C84.3283 332.923 84.3728 332.939 84.4127 332.963C84.4525 332.987 84.4867 333.02 84.5131 333.058C84.5394 333.096 84.5572 333.14 84.5654 333.186C84.5735 333.232 84.5717 333.279 84.5602 333.324C84.5195 333.415 84.4476 333.488 84.3575 333.53C84.2674 333.572 84.1652 333.58 84.0695 333.553L84.0709 333.553Z" fill="#040505"/>
<path fill-rule="evenodd" clip-rule="evenodd" d="M78.4289 333.527C79.0076 332.564 79.728 331.694 80.5658 330.945C77.9971 330.742 76.0104 329.738 78.2922 328.92C79.1545 328.612 80.6748 329.023 82.2059 329.657C84.7368 327.948 87.1262 327.517 86.0127 329.335C85.5806 329.954 84.9448 330.402 84.2163 330.6C85.059 331.027 85.873 331.509 86.653 332.042C86.6856 332.074 86.7105 332.112 86.7256 332.155C86.7407 332.197 86.7457 332.243 86.7402 332.288C86.7347 332.333 86.7188 332.376 86.6938 332.413C86.6688 332.451 86.6354 332.483 86.5962 332.505C86.5108 332.561 86.4093 332.587 86.3077 332.578C86.2061 332.57 86.1102 332.528 86.035 332.459C85.1017 331.872 84.1358 331.338 83.1421 330.86C82.7001 330.93 82.2539 330.97 81.8066 330.98C80.8292 331.763 79.9566 332.668 79.2101 333.673C79.1744 333.766 79.1061 333.842 79.0181 333.888C78.93 333.934 78.8283 333.945 78.7322 333.921C78.6856 333.917 78.6403 333.904 78.5993 333.882C78.5583 333.859 78.5224 333.828 78.4941 333.791C78.4657 333.754 78.4455 333.711 78.4348 333.666C78.424 333.62 78.4229 333.573 78.4316 333.527H78.4289ZM81.4269 330.221L81.5419 330.133C79.9221 329.466 78.4377 329.1 78.2076 329.841C78.4783 330.131 79.9093 330.289 81.4275 330.221H81.4269ZM83.0236 330.015L83.0953 330.048C84.3266 329.834 85.3291 329.427 85.4089 328.766C84.5321 329.003 83.7179 329.429 83.0236 330.015Z" fill="#040505"/>
<path fill-rule="evenodd" clip-rule="evenodd" d="M68.3276 191.929C70.9571 192.545 72.3785 194.451 73.5874 198.793C74.7962 203.134 76.7503 215.686 76.1459 222.343C75.6741 226.802 74.7814 231.206 73.4798 235.497C73.4798 235.497 72.2019 222.695 71.8817 219.879C71.5616 217.064 68.2944 200.115 66.7999 196.534C65.3055 192.953 64.3125 192.473 64.5609 191.931C64.8093 191.39 68.3276 191.931 68.3276 191.931V191.929Z" fill="#0D194E"/>
<path fill-rule="evenodd" clip-rule="evenodd" d="M35.8369 340.557L34.1338 340.613C34.2346 343.513 33.4921 347.594 42.519 347.715C51.5459 347.835 50.9042 344.768 50.9401 341.542L35.8362 340.557L35.8369 340.557Z" fill="#53280E"/>
<path fill-rule="evenodd" clip-rule="evenodd" d="M42.9551 193.993C45.4297 192.7 46.6101 192.855 46.9019 193.217C48.5553 195.401 49.5902 197.991 49.8976 200.713C50.4093 205.056 51.2554 214.36 50.8452 220.177C50.435 225.993 44.0929 238.942 36.9697 239.718V228.547C37.5451 228.693 38.0277 228.804 38.3471 228.857C40.107 229.147 44.4436 229.263 46.2203 228.473C46.2203 228.473 47.1516 221.637 47.1516 218.178C47.1516 215.369 45.3011 202.427 43.6104 199.937C41.9196 197.448 41.106 196.939 41.0417 196.525C40.9774 196.112 41.3233 194.948 42.9518 193.993H42.9551Z" fill="#0D194E"/>
<path fill-rule="evenodd" clip-rule="evenodd" d="M41.9113 169.897C41.9113 171.868 43.5175 173.236 45.5604 173.236C47.6032 173.236 48.2896 170.481 48.2896 169.851C48.2896 169.222 47.3981 166.723 45.1008 166.723C44.6773 166.699 44.2536 166.765 43.8572 166.916C43.4608 167.067 43.1006 167.3 42.7999 167.599C42.4992 167.898 42.2647 168.257 42.1116 168.653C41.9585 169.048 41.8903 169.472 41.9113 169.895V169.897Z" fill="#FFC086"/>
<path fill-rule="evenodd" clip-rule="evenodd" d="M44.6805 168.062C45.8705 167.922 47.191 168.634 47.0557 170.025C47.0326 170.259 45.4989 170.27 45.8278 170.689C45.99 170.865 46.2116 170.975 46.45 170.998C46.6884 171.02 46.9267 170.954 47.1193 170.812C47.0238 171.331 45.6119 171.722 45.2917 170.812C45.1367 170.367 45.4704 169.801 46.3991 169.78C46.3909 169.589 46.3424 169.402 46.2568 169.232C46.1712 169.061 46.0504 168.91 45.9024 168.789C45.7544 168.669 45.5825 168.581 45.3981 168.531C45.2136 168.481 45.0207 168.471 44.8321 168.502C43.4736 168.705 43.3294 169.34 43.2374 169.736C43.0154 169.218 43.3585 168.219 44.6798 168.062L44.6805 168.062Z" fill="#F58254"/>
<path fill-rule="evenodd" clip-rule="evenodd" d="M31.3999 226.965C30.6262 229.474 29.7842 233.433 30.7541 236.794C32.3109 242.19 42.7946 269.432 42.7946 269.432L47.1543 266.348C47.1543 266.348 41.554 237.911 41.2426 235.449C42.3724 233.414 43.2339 231.242 43.8059 228.986C41.9775 229.071 40.1455 228.937 38.3491 228.586C37.1477 228.387 33.4981 227.594 31.3992 226.965H31.3999Z" fill="#FFC086"/>
<path fill-rule="evenodd" clip-rule="evenodd" d="M95.55 180.575L104.427 181.252C104.569 181.249 104.711 181.275 104.843 181.328C104.975 181.381 105.095 181.46 105.196 181.56C105.297 181.66 105.376 181.779 105.43 181.911C105.485 182.042 105.512 182.183 105.51 182.326L103.706 198.525C103.642 198.811 103.472 199.062 103.231 199.228C102.989 199.394 102.694 199.462 102.404 199.419L93.5268 198.745C93.3846 198.748 93.2434 198.722 93.1115 198.669C92.9796 198.616 92.8596 198.537 92.7587 198.437C92.6577 198.337 92.5778 198.217 92.5238 198.086C92.4697 197.954 92.4425 197.813 92.4438 197.671L94.2483 181.471C94.3121 181.185 94.4818 180.934 94.7233 180.768C94.9649 180.603 95.2602 180.535 95.55 180.578V180.575Z" fill="#E83039"/>
<path fill-rule="evenodd" clip-rule="evenodd" d="M103.351 182.087C103.461 182.085 103.571 182.105 103.673 182.146C103.775 182.188 103.868 182.249 103.946 182.326C104.024 182.404 104.086 182.496 104.128 182.598C104.169 182.699 104.19 182.808 104.189 182.918L103.919 185.323C103.869 185.544 103.738 185.738 103.551 185.866C103.364 185.995 103.136 186.048 102.911 186.015C102.801 186.016 102.692 185.996 102.59 185.955C102.488 185.913 102.396 185.852 102.318 185.775C102.24 185.697 102.178 185.605 102.136 185.503C102.094 185.402 102.073 185.293 102.074 185.183L102.345 182.778C102.394 182.557 102.526 182.363 102.713 182.235C102.899 182.106 103.128 182.054 103.352 182.087H103.351Z" fill="#040505"/>
<path fill-rule="evenodd" clip-rule="evenodd" d="M103.302 182.531C103.373 182.53 103.443 182.543 103.508 182.569C103.574 182.595 103.634 182.634 103.684 182.684C103.734 182.734 103.774 182.793 103.801 182.858C103.827 182.924 103.841 182.994 103.84 183.065C103.809 183.207 103.724 183.331 103.604 183.414C103.484 183.496 103.338 183.53 103.194 183.508C103.123 183.509 103.053 183.496 102.987 183.47C102.922 183.444 102.862 183.405 102.812 183.355C102.762 183.305 102.722 183.246 102.696 183.181C102.669 183.115 102.655 183.045 102.656 182.975C102.687 182.832 102.772 182.707 102.892 182.625C103.012 182.543 103.159 182.509 103.303 182.531H103.302Z" fill="#262626"/>
<path fill-rule="evenodd" clip-rule="evenodd" d="M103.031 184.966C103.073 184.966 103.114 184.973 103.153 184.989C103.192 185.005 103.227 185.028 103.256 185.057C103.286 185.087 103.309 185.122 103.325 185.16C103.341 185.199 103.348 185.24 103.348 185.282C103.329 185.366 103.28 185.44 103.209 185.488C103.138 185.537 103.051 185.557 102.966 185.544C102.924 185.545 102.883 185.537 102.844 185.522C102.806 185.506 102.77 185.483 102.741 185.454C102.711 185.424 102.688 185.389 102.672 185.351C102.656 185.312 102.648 185.271 102.649 185.229C102.667 185.145 102.717 185.071 102.788 185.023C102.859 184.974 102.945 184.954 103.03 184.967L103.031 184.966Z" fill="white"/>
<path fill-rule="evenodd" clip-rule="evenodd" d="M103.166 183.748C103.237 183.747 103.307 183.76 103.373 183.786C103.438 183.812 103.498 183.852 103.548 183.901C103.598 183.951 103.638 184.01 103.665 184.076C103.691 184.141 103.705 184.211 103.704 184.282C103.673 184.424 103.589 184.549 103.468 184.631C103.348 184.714 103.201 184.747 103.058 184.725C102.987 184.727 102.917 184.714 102.851 184.688C102.785 184.661 102.726 184.622 102.676 184.572C102.626 184.523 102.586 184.463 102.559 184.398C102.532 184.332 102.519 184.262 102.52 184.192C102.551 184.05 102.636 183.925 102.756 183.842C102.876 183.76 103.023 183.726 103.166 183.748V183.748Z" fill="#262626"/>
<path fill-rule="evenodd" clip-rule="evenodd" d="M43.673 328.436C50.1088 328.693 48.0849 334.067 47.8771 336.391C47.6693 338.715 50.8358 339.486 50.9393 341.543C51.0429 343.599 49.1734 346.061 42.7125 346.061C36.2517 346.061 34.1229 343.716 34.1229 340.22C34.1229 336.723 37.617 336.399 37.617 334.253C37.617 332.107 35.7745 328.579 43.673 328.438V328.436Z" fill="#A02167"/>
<path fill-rule="evenodd" clip-rule="evenodd" d="M39.392 339.352C40.8216 338.433 43.1501 338.607 44.5783 339.436C44.6145 339.463 44.644 339.498 44.6643 339.538C44.6846 339.579 44.6952 339.623 44.6952 339.669C44.6952 339.714 44.6846 339.759 44.6643 339.799C44.644 339.839 44.6145 339.874 44.5783 339.902C44.4976 339.964 44.3985 339.998 44.2964 339.998C44.1943 339.998 44.0951 339.964 44.0144 339.902C42.9917 339.333 40.9624 339.176 39.9362 339.834C39.8537 339.894 39.7536 339.925 39.6515 339.922C39.5494 339.919 39.4512 339.882 39.3724 339.818C39.3373 339.789 39.3095 339.753 39.291 339.711C39.2725 339.67 39.2639 339.625 39.2659 339.58C39.2679 339.534 39.2804 339.49 39.3024 339.451C39.3244 339.411 39.3553 339.377 39.3927 339.352H39.392Z" fill="#040505"/>
<path fill-rule="evenodd" clip-rule="evenodd" d="M39.8928 337.198C41.0929 336.603 43.0802 336.49 44.1876 337.315C44.2219 337.344 44.2488 337.381 44.2663 337.423C44.2837 337.465 44.2912 337.51 44.2881 337.555C44.285 337.6 44.2714 337.644 44.2485 337.683C44.2255 337.721 44.1937 337.755 44.1558 337.779C44.0724 337.838 43.9718 337.867 43.8698 337.863C43.7678 337.858 43.6703 337.819 43.5926 337.753C42.9036 337.247 41.1558 337.34 40.4153 337.694C40.3313 337.752 40.2304 337.78 40.1285 337.774C40.0267 337.769 39.9297 337.729 39.8528 337.662C39.8189 337.632 39.7925 337.594 39.7756 337.552C39.7588 337.51 39.752 337.465 39.7558 337.42C39.7596 337.375 39.7739 337.331 39.7976 337.293C39.8213 337.254 39.8536 337.221 39.8921 337.198L39.8928 337.198Z" fill="#040505"/>
<path fill-rule="evenodd" clip-rule="evenodd" d="M39.9507 335.464C40.8008 334.495 43.3472 334.404 44.3944 335.432C44.4229 335.468 44.443 335.509 44.453 335.553C44.463 335.597 44.4628 335.643 44.4523 335.688C44.4417 335.732 44.4212 335.773 44.3923 335.808C44.3633 335.843 44.3268 335.871 44.2854 335.889C44.1963 335.938 44.0933 335.956 43.9928 335.94C43.8924 335.923 43.8004 335.873 43.7317 335.798C43.0724 335.153 41.0797 335.319 40.6586 335.767C40.5983 335.848 40.5121 335.907 40.4142 335.932C40.3164 335.957 40.2128 335.949 40.1205 335.907C40.0769 335.894 40.037 335.87 40.0037 335.839C39.9704 335.808 39.9446 335.769 39.9282 335.727C39.9119 335.684 39.9054 335.638 39.9093 335.592C39.9132 335.547 39.9273 335.503 39.9507 335.463V335.464Z" fill="#040505"/>
<path fill-rule="evenodd" clip-rule="evenodd" d="M38.2607 335.688C39.1278 334.642 40.1443 333.73 41.2775 332.98C39.1745 332.403 37.6752 331.296 38.7602 330.5C39.7221 329.795 41.2261 330.995 42.586 332.231C45.9819 330.555 48.7347 331.223 47.2002 332.472C46.2091 333.151 45.013 333.466 43.8158 333.363C44.1617 333.699 44.5483 333.99 44.9665 334.229C45.7857 334.618 46.642 334.923 47.5224 335.14C47.5683 335.147 47.6122 335.163 47.6512 335.188C47.6902 335.214 47.7233 335.247 47.7484 335.286C47.7734 335.325 47.7898 335.369 47.7963 335.415C47.8029 335.461 47.7995 335.507 47.7864 335.552C47.7429 335.642 47.6687 335.713 47.5772 335.753C47.4858 335.793 47.3831 335.799 47.2876 335.77L45.9081 335.355C44.6724 334.882 43.5418 334.171 42.5806 333.263C41.275 334.01 40.067 334.916 38.9843 335.961C38.9281 336.044 38.8448 336.106 38.7484 336.136C38.652 336.165 38.5483 336.16 38.455 336.122C38.4107 336.111 38.3696 336.089 38.3346 336.059C38.2997 336.03 38.2719 335.993 38.2531 335.951C38.2344 335.909 38.2252 335.863 38.2263 335.818C38.2274 335.772 38.2386 335.727 38.2593 335.686L38.2607 335.688ZM41.683 332.435C40.803 331.613 40.0795 330.971 39.3051 330.986C39.2841 330.998 39.2604 331.014 39.2557 331.032C39.0878 331.613 40.2345 332.138 41.683 332.434V332.435ZM43.6148 332.673C45.0268 332.736 46.3284 332.538 46.7102 331.935C46.4482 331.394 45.1148 331.868 43.6148 332.673Z" fill="#040505"/>
<path fill-rule="evenodd" clip-rule="evenodd" d="M42.0676 229.074C44.8697 224.102 46.432 218.527 46.6224 212.822C46.8956 214.596 47.0734 216.384 47.1551 218.178C47.1551 221.639 46.2237 228.473 46.2237 228.473C44.884 228.914 43.4775 229.118 42.0676 229.074Z" fill="#E13A18"/>
<path fill-rule="evenodd" clip-rule="evenodd" d="M48.9828 264.952C46.6584 267.689 44.7185 269.711 40.5618 270.147C40.512 270.159 40.4601 270.159 40.4101 270.148C40.3601 270.138 40.3131 270.115 40.2729 270.084C40.2327 270.052 40.2001 270.012 40.1778 269.966C40.1554 269.92 40.1438 269.869 40.1438 269.818C40.1438 269.767 40.1554 269.716 40.1778 269.67C40.2001 269.624 40.2327 269.583 40.2729 269.552C40.3131 269.52 40.3601 269.498 40.4101 269.487C40.4601 269.476 40.512 269.477 40.5618 269.489C44.3225 269.091 46.2049 267.081 48.2843 264.634C48.3465 264.554 48.434 264.498 48.5324 264.475C48.6308 264.451 48.7342 264.462 48.8258 264.505C48.8689 264.52 48.9081 264.544 48.9404 264.576C48.9728 264.609 48.9974 264.648 49.0124 264.691C49.0274 264.734 49.0326 264.78 49.0273 264.825C49.0221 264.87 49.0066 264.914 48.9822 264.952L48.9828 264.952Z" fill="#040505"/>
<path fill-rule="evenodd" clip-rule="evenodd" d="M105.242 191.59C105.242 191.59 101.158 188.105 100.341 188.921C99.5249 189.737 103.895 192.72 103.895 192.72C103.895 192.72 99.133 190.135 98.997 191.223C98.8609 192.311 103.623 195.168 103.623 195.168C103.623 195.168 99.2691 193.808 98.997 195.033C98.7248 196.258 103.078 196.937 103.078 196.937C103.078 196.937 98.5888 196.937 98.316 197.617C98.0432 198.298 104.166 199.794 104.166 199.794L105.242 191.59Z" fill="#FFC086"/>
<path d="M54.0873 167.242C54.3937 166.892 54.7762 166.617 55.2055 166.439C55.6347 166.26 56.0993 166.182 56.5633 166.211" stroke="#040505" stroke-width="0.159319" stroke-miterlimit="10"/>
<path d="M64.1027 168.026C64.5474 167.89 65.0173 167.858 65.4764 167.932C65.9354 168.007 66.3714 168.185 66.7506 168.454" stroke="#040505" stroke-width="0.159319" stroke-miterlimit="10"/>
<path d="M57.2284 176.754C57.9399 177.335 58.8112 177.686 59.7267 177.76C60.6423 177.835 61.559 177.63 62.3551 177.171" stroke="#040505" stroke-width="0.159319" stroke-miterlimit="10"/>
</svg>
