<svg width="72" height="67" viewBox="0 0 72 67" fill="none" xmlns="http://www.w3.org/2000/svg">
<path d="M61.4696 9.32475C58.393 6.45302 54.7393 4.17658 50.7179 2.62604C46.6966 1.0755 42.3868 0.281374 38.0358 0.289227C33.6849 0.29708 29.3784 1.10676 25.3635 2.6718C21.3486 4.23685 17.7043 6.52646 14.6396 9.40927C13.7022 8.9386 12.655 8.69081 11.5905 8.6878C8.43015 8.6878 5.8655 10.8528 3.60227 12.7636C3.20512 13.0993 2.82608 13.4163 2.46386 13.7097C1.0926 14.7862 0.256902 16.6004 0.0518589 18.9568C-0.255382 22.4543 0.809935 27.0801 3.05182 31.9849C5.94821 38.0505 9.80424 43.6757 14.4909 48.6722C25.7947 61.1262 37.8877 66.6999 44.8579 66.6999C46.5703 66.7909 48.2619 66.3124 49.6321 65.3493L49.6489 65.336C50.037 65.0245 50.4471 64.7093 50.883 64.3755C53.4516 62.4091 56.3629 60.1807 56.4923 56.9199C56.4923 56.8692 56.4923 56.8185 56.4923 56.7678C60.5493 54.2304 63.9534 50.8854 66.46 46.9733C68.9666 43.0613 70.5133 38.6794 70.9888 34.1428C71.4644 29.6062 70.857 25.0276 69.2104 20.7362C67.5638 16.4449 64.9188 12.5474 61.4657 9.32414L61.4696 9.32475ZM11.5892 11.2827C13.249 11.2827 14.9753 12.4835 16.7198 14.8526C19.0354 17.992 19.9675 20.2947 19.5658 21.8837C19.4067 22.4549 19.1096 22.9844 18.6972 23.4317C16.3185 19.2193 13.5407 15.214 10.3971 11.4638C10.7823 11.3472 11.1843 11.2862 11.5892 11.2827ZM49.1211 62.3705C48.6741 62.7128 48.2518 63.0346 47.8417 63.3666C46.9643 63.9191 45.9133 64.1798 44.8579 64.1068C38.7338 64.1068 27.2824 58.7522 16.606 46.9896C12.1019 42.1916 8.39522 36.7895 5.61 30.964C3.54017 26.4432 2.55312 22.2544 2.82479 19.1699C2.96838 17.5398 3.47743 16.304 4.25814 15.693L4.2672 15.6839C4.66047 15.3676 5.05115 15.0385 5.46382 14.6902C6.24583 14.0297 7.07182 13.333 7.92175 12.7431C11.2488 16.6486 14.1544 20.8513 16.5963 25.29C16.4132 25.4313 16.2263 25.5744 16.0342 25.7211C15.8421 25.8678 15.6597 26.0073 15.4689 26.1546L15.4424 26.1757C13.6345 27.6422 13.7554 30.1507 15.8 33.6319C17.7319 36.6833 19.9763 39.5527 22.5018 42.1995C28.7184 48.9765 33.0359 52.1329 36.085 52.1329C36.9791 52.1446 37.8467 51.8499 38.5236 51.3045L38.6005 51.2442C43.2009 53.8926 47.3665 57.1485 50.9678 60.9106C50.3805 61.4063 49.7479 61.8905 49.1211 62.3705ZM52.8597 58.9829C49.3179 55.3298 45.2723 52.1316 40.8288 49.4722C41.6775 48.7477 42.7632 48.3116 43.9103 48.2345C45.6263 48.2345 47.8559 49.442 50.7233 51.9336C52.7646 53.7497 53.7711 55.3955 53.7142 56.8239C53.6565 57.6049 53.36 58.354 52.8597 58.9823V58.9829ZM55.8558 54.0268C55.0686 52.5186 53.9748 51.1675 52.6353 50.0487L52.623 50.0385C49.1657 47.0373 46.398 45.6396 43.9109 45.6396C41.2331 45.6396 39.3521 47.1786 37.3599 48.8081C37.1458 48.9832 36.9291 49.1606 36.7021 49.3436C36.5322 49.481 36.3114 49.551 36.087 49.5386C34.8942 49.5386 31.818 48.3661 24.6156 40.5157C22.2151 38.0028 20.0795 35.2798 18.2386 32.3846C16.9896 30.2582 16.6215 28.6746 17.2573 28.1421C17.4389 28.0024 17.6185 27.865 17.7961 27.7297C18.2871 27.3548 18.7709 26.9847 19.2308 26.6068L19.2605 26.5826C20.6719 25.4186 21.8478 24.1767 22.276 22.4772C22.8795 20.0713 21.8724 17.2669 19.0109 13.3849C18.3876 12.5219 17.6767 11.717 16.888 10.9814C19.8613 8.26107 23.4038 6.14247 27.2941 4.75803C31.1844 3.3736 35.3388 2.75311 39.4977 2.93535C43.6566 3.11758 47.7305 4.09863 51.4647 5.81716C55.199 7.53569 58.5133 9.95475 61.2004 12.9231C63.8876 15.8915 65.8898 19.3453 67.082 23.0688C68.2741 26.7922 68.6306 30.7051 68.129 34.563C67.6275 38.4208 66.2787 42.1406 64.1671 45.4898C62.0554 48.839 59.2262 51.7457 55.8565 54.028L55.8558 54.0268Z" fill="#A02167"/>
<path d="M24.5157 7.59731C24.4512 7.42485 24.3509 7.26594 24.2206 7.12971C24.0902 6.99348 23.9323 6.88259 23.756 6.8034C23.5796 6.72421 23.3883 6.67828 23.1929 6.66823C22.9975 6.65818 22.8019 6.68421 22.6173 6.74483C20.3772 7.47796 18.2375 8.45469 16.2422 9.65485C16.0777 9.75396 15.9358 9.88233 15.8245 10.0326C15.7132 10.1829 15.6347 10.3522 15.5935 10.5308C15.5523 10.7095 15.5492 10.8939 15.5844 11.0736C15.6195 11.2534 15.6923 11.4249 15.7985 11.5784C15.9046 11.7319 16.0422 11.8643 16.2032 11.9682C16.3642 12.0721 16.5456 12.1454 16.7369 12.1838C16.9283 12.2223 17.1259 12.2252 17.3185 12.1924C17.511 12.1595 17.6948 12.0916 17.8592 11.9925C19.6578 10.9107 21.5865 10.0302 23.6056 9.36929C23.7901 9.30882 23.96 9.21499 24.1056 9.09318C24.2512 8.97137 24.3697 8.82397 24.4542 8.65939C24.5387 8.49482 24.5876 8.31631 24.5982 8.13407C24.6088 7.95183 24.5807 7.76943 24.5157 7.59731Z" fill="#A02167"/>
<path d="M28.8274 6.74362C28.7919 6.56402 28.7187 6.39273 28.6122 6.23955C28.5056 6.08637 28.3677 5.95433 28.2064 5.85097C28.045 5.74761 27.8635 5.67497 27.672 5.63721C27.4806 5.59946 27.283 5.59732 27.0907 5.63093L26.9853 5.64965C26.7931 5.68394 26.6101 5.75322 26.4466 5.85353C26.2832 5.95384 26.1425 6.08322 26.0326 6.23428C25.9227 6.38534 25.8458 6.55512 25.8062 6.73393C25.7666 6.91274 25.7652 7.09708 25.8019 7.27642C25.8386 7.45576 25.9129 7.62659 26.0203 7.77916C26.1278 7.93173 26.2664 8.06304 26.4282 8.16561C26.5901 8.26817 26.772 8.33998 26.9636 8.37693C27.1551 8.41388 27.3526 8.41525 27.5448 8.38096L27.6353 8.36527C27.8278 8.3321 28.0114 8.2638 28.1755 8.16429C28.3397 8.06479 28.4812 7.93602 28.5919 7.78537C28.7027 7.63472 28.7805 7.46516 28.8209 7.2864C28.8613 7.10764 28.8635 6.92319 28.8274 6.74362Z" fill="#A02167"/>
<path d="M38.9035 23.2999C37.6502 23.3013 36.4486 23.7667 35.5623 24.5939C34.676 25.4212 34.1774 26.5427 34.1759 27.7126V35.7454C34.1905 36.9068 34.695 38.0161 35.5801 38.8326C36.4651 39.6492 37.6594 40.1071 38.9038 40.1071C40.1483 40.1071 41.3425 39.6492 42.2276 38.8326C43.1127 38.0161 43.6172 36.9068 43.6318 35.7454V27.7132C43.6304 26.5431 43.1318 25.4213 42.2454 24.5939C41.359 23.7665 40.1571 23.3012 38.9035 23.2999ZM40.6499 35.746C40.6489 36.178 40.4646 36.5921 40.1373 36.8975C39.81 37.203 39.3664 37.3751 38.9035 37.3761C38.4407 37.3751 37.997 37.203 37.6697 36.8975C37.3425 36.5921 37.1581 36.178 37.1571 35.746V27.7132C37.1571 27.2803 37.3413 26.8652 37.6693 26.5591C37.9972 26.253 38.442 26.081 38.9058 26.081C39.3696 26.081 39.8143 26.253 40.1423 26.5591C40.4702 26.8652 40.6545 27.2803 40.6545 27.7132L40.6499 35.746Z" fill="#A02167"/>
<path d="M51.6402 30.3397C51.2577 30.3398 50.8818 30.2459 50.5505 30.0674C50.2191 29.8889 49.9439 29.6322 49.7526 29.323C49.5613 29.0138 49.4605 28.663 49.4605 28.3059C49.4604 27.9488 49.5611 27.598 49.7524 27.2888C49.9436 26.9795 50.2187 26.7227 50.5501 26.5442C50.8814 26.3657 51.2572 26.2717 51.6398 26.2717C52.0223 26.2717 52.3981 26.3657 52.7294 26.5443C53.0607 26.7229 53.3358 26.9797 53.527 27.289C53.6247 27.4471 53.7548 27.5858 53.9099 27.697C54.065 27.8082 54.242 27.8898 54.4308 27.9371C54.6197 27.9845 54.8167 27.9966 55.0106 27.9729C55.2045 27.9492 55.3915 27.89 55.5609 27.7989C55.7304 27.7077 55.8789 27.5863 55.998 27.4415C56.1171 27.2968 56.2046 27.1315 56.2553 26.9552C56.306 26.7789 56.319 26.595 56.2936 26.4141C56.2682 26.2331 56.2049 26.0585 56.1072 25.9004C55.6545 25.1684 55.0033 24.5605 54.2191 24.1379C53.4349 23.7152 52.5454 23.4927 51.6398 23.4927C50.7343 23.4927 49.8447 23.7151 49.0605 24.1377C48.2763 24.5603 47.6251 25.1682 47.1723 25.9002C46.7196 26.6322 46.4812 27.4625 46.4813 28.3077C46.4813 29.1529 46.7197 29.9832 47.1725 30.7152C47.6253 31.4471 48.2766 32.0549 49.0609 32.4775C49.8451 32.9 50.7347 33.1224 51.6402 33.1223C52.0228 33.1223 52.3986 33.2163 52.7298 33.3949C53.0611 33.5734 53.3362 33.8302 53.5274 34.1394C53.7187 34.4487 53.8194 34.7994 53.8193 35.1565C53.8193 35.5135 53.7186 35.8643 53.5273 36.1735C53.336 36.4827 53.0608 36.7394 52.7295 36.9179C52.3982 37.0964 52.0224 37.1904 51.6399 37.1903C51.2574 37.1903 50.8816 37.0962 50.5503 36.9177C50.2191 36.7391 49.944 36.4823 49.7528 36.173C49.5555 35.8537 49.2304 35.6205 48.849 35.5249C48.4675 35.4293 48.061 35.479 47.7189 35.6632C47.3767 35.8473 47.1269 36.1508 47.0245 36.5068C46.9221 36.8628 46.9753 37.2423 47.1726 37.5616C47.6253 38.2936 48.2765 38.9015 49.0607 39.3242C49.8449 39.7468 50.7344 39.9693 51.64 39.9693C52.5455 39.9694 53.4351 39.7469 54.2193 39.3243C55.0035 38.9017 55.6547 38.2938 56.1075 37.5619C56.5602 36.8299 56.7986 35.9995 56.7985 35.1543C56.7985 34.3091 56.5601 33.4788 56.1073 32.7468C55.6545 32.0149 55.0032 31.4071 54.219 30.9846C53.4347 30.562 52.5451 30.3396 51.6396 30.3397H51.6402Z" fill="#A02167"/>
<path d="M26.1672 30.3397C25.7846 30.3398 25.4088 30.2459 25.0774 30.0674C24.7461 29.8889 24.4709 29.6322 24.2796 29.323C24.0882 29.0138 23.9875 28.663 23.9874 28.3059C23.9874 27.9488 24.0881 27.598 24.2793 27.2888C24.4706 26.9795 24.7457 26.7227 25.077 26.5442C25.4083 26.3657 25.7842 26.2717 26.1667 26.2717C26.5493 26.2717 26.9251 26.3657 27.2564 26.5443C27.5877 26.7229 27.8627 26.9797 28.054 27.289C28.2513 27.6084 28.5764 27.8415 28.9578 27.9371C29.3392 28.0327 29.7458 27.983 30.0879 27.7989C30.4301 27.6147 30.6798 27.3112 30.7823 26.9552C30.8847 26.5992 30.8314 26.2198 30.6341 25.9004C30.1814 25.1684 29.5303 24.5605 28.7461 24.1379C27.9619 23.7152 27.0723 23.4927 26.1668 23.4927C25.2613 23.4927 24.3717 23.7151 23.5875 24.1377C22.8033 24.5603 22.152 25.1682 21.6993 25.9002C21.2465 26.6322 21.0082 27.4625 21.0082 28.3077C21.0083 29.1529 21.2467 29.9832 21.6995 30.7152C22.1523 31.4471 22.8036 32.0549 23.5878 32.4775C24.3721 32.9 25.2617 33.1224 26.1672 33.1223C26.5497 33.1223 26.9255 33.2163 27.2568 33.3949C27.5881 33.5734 27.8632 33.8302 28.0544 34.1394C28.2457 34.4487 28.3463 34.7994 28.3463 35.1565C28.3463 35.5135 28.2455 35.8643 28.0542 36.1735C27.8629 36.4827 27.5878 36.7394 27.2565 36.9179C26.9252 37.0964 26.5494 37.1904 26.1668 37.1903C25.7843 37.1903 25.4085 37.0962 25.0773 36.9177C24.746 36.7391 24.471 36.4823 24.2798 36.173C24.1821 36.0149 24.052 35.8763 23.8969 35.7651C23.7418 35.6539 23.5648 35.5723 23.3759 35.5249C23.1871 35.4776 22.9901 35.4654 22.7962 35.4891C22.6022 35.5128 22.4153 35.572 22.2458 35.6632C22.0764 35.7543 21.9279 35.8758 21.8088 36.0205C21.6896 36.1653 21.6022 36.3305 21.5515 36.5068C21.5007 36.6831 21.4877 36.867 21.5131 37.048C21.5386 37.2289 21.6019 37.4035 21.6996 37.5616C22.1523 38.2936 22.8035 38.9015 23.5877 39.3242C24.3719 39.7468 25.2614 39.9693 26.1669 39.9693C27.0725 39.9694 27.962 39.7469 28.7463 39.3243C29.5305 38.9017 30.1817 38.2938 30.6344 37.5619C31.0872 36.8299 31.3255 35.9995 31.3255 35.1543C31.3255 34.3091 31.0871 33.4788 30.6342 32.7468C30.1814 32.0149 29.5302 31.4071 28.7459 30.9846C27.9617 30.562 27.0721 30.3396 26.1665 30.3397H26.1672Z" fill="#A02167"/>
</svg>
