<svg width="72" height="67" viewBox="0 0 72 67" fill="none" xmlns="http://www.w3.org/2000/svg">
<path d="M45.1204 58.278H11.5971C9.82968 58.278 8.13461 57.5759 6.88483 56.3261C5.63504 55.0763 4.93292 53.3812 4.93292 51.6138C4.93292 49.8463 5.63504 48.1512 6.88483 46.9014C8.13461 45.6517 9.82968 44.9495 11.5971 44.9495H24.6545C27.5038 44.9495 30.2363 43.8177 32.251 41.803C34.2657 39.7883 35.3976 37.0557 35.3976 34.2065C35.3976 31.3573 34.2657 28.6248 32.251 26.6101C30.2363 24.5953 27.5038 23.4635 24.6545 23.4635H17.5172C17.7852 24.8104 17.7852 26.1968 17.5172 27.5437H24.6545C26.422 27.5437 28.1171 28.2458 29.3669 29.4956C30.6166 30.7454 31.3188 32.4405 31.3188 34.2079C31.3188 35.9754 30.6166 37.6705 29.3669 38.9203C28.1171 40.17 26.422 40.8722 24.6545 40.8722H11.5971C10.1864 40.8722 8.78937 41.15 7.48597 41.6899C6.18257 42.2298 4.99827 43.0211 4.00068 44.0187C3.0031 45.0163 2.21178 46.2006 1.67189 47.504C1.132 48.8074 0.854126 50.2044 0.854126 51.6152C0.854126 53.026 1.132 54.423 1.67189 55.7264C2.21178 57.0298 3.0031 58.2141 4.00068 59.2117C4.99827 60.2092 6.18257 61.0006 7.48597 61.5405C8.78937 62.0803 10.1864 62.3582 11.5971 62.3582H45.1204C44.8523 61.0113 44.8523 59.6249 45.1204 58.278Z" fill="#A02167"/>
<path d="M56.9041 53.9259C55.6398 53.9259 54.4039 54.3008 53.3527 55.0033C52.3015 55.7057 51.4821 56.704 50.9983 57.8721C50.5145 59.0402 50.3879 60.3255 50.6345 61.5655C50.8812 62.8055 51.49 63.9445 52.384 64.8385C53.278 65.7325 54.417 66.3414 55.657 66.588C56.8971 66.8347 58.1824 66.7081 59.3504 66.2243C60.5185 65.7404 61.5169 64.9211 62.2193 63.8698C62.9217 62.8186 63.2966 61.5827 63.2966 60.3184C63.2947 58.6236 62.6206 56.9987 61.4222 55.8003C60.2238 54.6019 58.5989 53.9278 56.9041 53.9259Z" fill="#A02167"/>
<path d="M20.3031 0.289185H7.24714C6.70616 0.289185 6.18734 0.504087 5.80482 0.886614C5.42229 1.26914 5.20739 1.78796 5.20739 2.32894V18.0337C3.77047 18.5176 2.55233 19.4964 1.77049 20.7955C0.988641 22.0946 0.693996 23.6292 0.939165 25.1255C1.18433 26.6217 1.95335 27.9821 3.1089 28.9637C4.26445 29.9454 5.73129 30.4843 7.24749 30.4843C8.76369 30.4843 10.2305 29.9454 11.3861 28.9637C12.5416 27.9821 13.3107 26.6217 13.5558 25.1255C13.801 23.6292 13.5063 22.0946 12.7245 20.7955C11.9427 19.4964 10.7245 18.5176 9.2876 18.0337V13.0734H20.3031C20.844 13.0728 21.3624 12.8575 21.7446 12.4747C22.1267 12.0919 22.3411 11.5731 22.3407 11.0322V2.32894C22.3407 1.78833 22.1261 1.26983 21.7441 0.887367C21.362 0.504901 20.8437 0.28975 20.3031 0.289185Z" fill="#A02167"/>
<path d="M56.9034 4.64111C53.8057 4.64107 50.7829 5.594 48.2452 7.3706C45.7075 9.1472 43.7778 11.6615 42.7179 14.5722C41.658 17.483 41.5192 20.6494 42.3204 23.6418C43.1215 26.6341 44.8238 29.3076 47.1963 31.2995L55.0856 46.7765C55.257 47.1111 55.5173 47.3918 55.838 47.5879C56.1586 47.7839 56.5272 47.8877 56.9031 47.8877C57.2789 47.8877 57.6475 47.7839 57.9681 47.5879C58.2888 47.3918 58.5492 47.1111 58.7205 46.7765L66.6106 31.2995C68.983 29.3076 70.6853 26.6341 71.4865 23.6418C72.2876 20.6494 72.1488 17.483 71.0889 14.5722C70.029 11.6615 68.0993 9.1472 65.5616 7.3706C63.0239 5.594 60.0012 4.64107 56.9034 4.64111ZM56.9034 26.1272C55.6391 26.1272 54.4032 25.7522 53.352 25.0498C52.3007 24.3474 51.4814 23.3491 50.9976 22.181C50.5137 21.0129 50.3871 19.7276 50.6338 18.4876C50.8804 17.2476 51.4893 16.1086 52.3833 15.2146C53.2773 14.3206 54.4163 13.7117 55.6563 13.4651C56.8963 13.2184 58.1816 13.345 59.3497 13.8288C60.5178 14.3127 61.5161 15.132 62.2185 16.1832C62.921 17.2345 63.2959 18.4704 63.2959 19.7347C63.294 21.4295 62.6199 23.0544 61.4215 24.2528C60.2231 25.4512 58.5982 26.1253 56.9034 26.1272Z" fill="#A02167"/>
</svg>
