<svg width="72" height="67" viewBox="0 0 72 67" fill="none" xmlns="http://www.w3.org/2000/svg">
<path d="M64.5955 0.289185H6.54984C4.81271 0.289185 3.14674 1.18701 1.9184 2.78514C0.69007 4.38327 0 6.5508 0 8.81091L0 58.1891C0 60.4492 0.69007 62.6168 1.9184 64.2149C3.14674 65.813 4.81271 66.7108 6.54984 66.7108H64.5961C66.3332 66.7108 67.9992 65.813 69.2275 64.2149C70.4558 62.6168 71.1459 60.4492 71.1459 58.1891V8.81091C71.1459 6.5508 70.4558 4.38327 69.2275 2.78514C67.9992 1.18701 66.3332 0.289185 64.5961 0.289185H64.5955ZM66.9761 58.1891C66.9761 59.0106 66.7252 59.7984 66.2788 60.3792C65.8324 60.9601 65.2268 61.2864 64.5955 61.2864H6.54984C6.23716 61.2865 5.92753 61.2065 5.63864 61.0509C5.34974 60.8953 5.08723 60.6671 4.86611 60.3795C4.64499 60.0919 4.46958 59.7504 4.3499 59.3746C4.23023 58.9987 4.16863 58.5959 4.16863 58.1891V8.81091C4.16855 8.40403 4.23009 8.00112 4.34973 7.6252C4.46937 7.24927 4.64476 6.9077 4.86589 6.62C5.08702 6.33229 5.34956 6.10409 5.63849 5.94843C5.92743 5.79278 6.23711 5.71272 6.54984 5.71282H64.5961C64.9088 5.71282 65.2184 5.79296 65.5072 5.94866C65.7961 6.10437 66.0586 6.33258 66.2796 6.62028C66.5007 6.90797 66.676 7.24951 66.7956 7.62538C66.9152 8.00125 66.9767 8.4041 66.9767 8.81091L66.9761 58.1891Z" fill="#A02167"/>
<path d="M27.8941 40.136C28.8798 38.7005 29.5251 36.9247 29.7523 35.0227C29.9794 33.1207 29.7787 31.1738 29.1743 29.4169C28.57 27.66 27.5877 26.1682 26.3462 25.1214C25.1047 24.0746 23.6568 23.5177 22.1774 23.5177C20.698 23.5177 19.2501 24.0746 18.0086 25.1214C16.7671 26.1682 15.7848 27.66 15.1805 29.4169C14.5761 31.1738 14.3754 33.1207 14.6026 35.0227C14.8297 36.9247 15.475 38.7005 16.4607 40.136C14.844 41.4137 13.5073 43.2114 12.5794 45.356C11.6515 47.5006 11.1636 49.9199 11.1627 52.381C11.1635 53.0995 11.3834 53.7882 11.7742 54.2959C12.165 54.8036 12.6947 55.0888 13.247 55.0888H31.1072C31.6595 55.0888 32.1892 54.8036 32.58 54.2959C32.9708 53.7882 33.1907 53.0995 33.1915 52.381C33.1906 49.9199 32.7027 47.5006 31.7747 45.356C30.8468 43.2114 29.5102 41.4137 27.8935 40.136H27.8941ZM22.1774 28.9502C22.8691 28.9502 23.5452 29.2171 24.1203 29.717C24.6954 30.217 25.1436 30.9276 25.4083 31.759C25.673 32.5904 25.7423 33.5052 25.6073 34.3878C25.4724 35.2704 25.1393 36.0812 24.6502 36.7175C24.1612 37.3538 23.538 37.7871 22.8597 37.9627C22.1813 38.1383 21.4781 38.0482 20.8391 37.7038C20.2001 37.3594 19.6539 36.7762 19.2696 36.028C18.8854 35.2797 18.6803 34.4001 18.6803 33.5002C18.6813 32.2938 19.05 31.1373 19.7056 30.2842C20.3613 29.4312 21.2502 28.9515 22.1774 28.9502ZM15.6557 49.6691C16.0976 47.8703 16.9675 46.3008 18.1397 45.1871C19.312 44.0734 20.7259 43.4733 22.1774 43.4733C23.6289 43.4733 25.0428 44.0734 26.2151 45.1871C27.3873 46.3008 28.2572 47.8703 28.6991 49.6691H15.6557Z" fill="#A02167"/>
<path d="M57.8979 26.4311H42.2701C41.7173 26.4311 41.1871 26.7169 40.7963 27.2254C40.4054 27.734 40.1858 28.4237 40.1858 29.143C40.1858 29.8622 40.4054 30.5519 40.7963 31.0605C41.1871 31.5691 41.7173 31.8548 42.2701 31.8548H57.8979C58.4507 31.8548 58.9808 31.5691 59.3717 31.0605C59.7626 30.5519 59.9822 29.8622 59.9822 29.143C59.9822 28.4237 59.7626 27.734 59.3717 27.2254C58.9808 26.7169 58.4507 26.4311 57.8979 26.4311Z" fill="#A02167"/>
<path d="M57.8979 11.9073H13.247C12.6942 11.9073 12.164 12.193 11.7731 12.7016C11.3823 13.2102 11.1627 13.8999 11.1627 14.6191C11.1627 15.3384 11.3823 16.0281 11.7731 16.5367C12.164 17.0452 12.6942 17.331 13.247 17.331H57.8979C58.4507 17.331 58.9808 17.0452 59.3717 16.5367C59.7626 16.0281 59.9822 15.3384 59.9822 14.6191C59.9822 13.8999 59.7626 13.2102 59.3717 12.7016C58.9808 12.193 58.4507 11.9073 57.8979 11.9073Z" fill="#A02167"/>
<path d="M57.8979 38.05H42.2701C41.7173 38.05 41.1871 38.3358 40.7963 38.8443C40.4054 39.3529 40.1858 40.0426 40.1858 40.7619C40.1858 41.4811 40.4054 42.1709 40.7963 42.6794C41.1871 43.188 41.7173 43.4737 42.2701 43.4737H57.8979C58.4507 43.4737 58.9808 43.188 59.3717 42.6794C59.7626 42.1709 59.9822 41.4811 59.9822 40.7619C59.9822 40.0426 59.7626 39.3529 59.3717 38.8443C58.9808 38.3358 58.4507 38.05 57.8979 38.05Z" fill="#A02167"/>
<path d="M53.433 49.669H42.2701C41.7173 49.669 41.1871 49.9547 40.7963 50.4632C40.4054 50.9718 40.1858 51.6616 40.1858 52.3808C40.1858 53.1 40.4054 53.7898 40.7963 54.2983C41.1871 54.8069 41.7173 55.0926 42.2701 55.0926H53.433C53.9858 55.0926 54.5159 54.8069 54.9068 54.2983C55.2977 53.7898 55.5173 53.1 55.5173 52.3808C55.5173 51.6616 55.2977 50.9718 54.9068 50.4632C54.5159 49.9547 53.9858 49.669 53.433 49.669Z" fill="#A02167"/>
</svg>
