<svg width="50" height="20" viewBox="0 0 50 20" fill="none" xmlns="http://www.w3.org/2000/svg">
<path fill-rule="evenodd" clip-rule="evenodd" d="M1.49778 5.21676C1.55889 5.21676 4.40114 4.61012 4.40114 4.61012C7.08763 3.39078 10.0916 2.03419 13.084 1.36309C13.8302 1.18495 14.5871 1.05702 15.3498 0.98015C18.3194 0.792977 21.2963 0.757428 24.2694 0.873619C26.9626 1.06926 28.7554 1.37181 29.6822 1.71911C30.609 2.06641 37.9895 5.88974 38.067 5.9451C38.1497 5.9933 38.2359 6.035 38.3249 6.06984C38.3249 6.06984 44.0351 6.68786 45.4344 7.20426C46.5976 7.63489 47.7081 8.20052 48.744 8.88995C49.095 9.30462 49.3599 9.7874 49.5224 10.3091C49.5663 10.4614 49.5942 10.618 49.6056 10.7762C49.6056 10.7762 49.9409 11.0299 49.9596 11.1808C50.0163 11.8291 50.0133 12.4814 49.9506 13.1292C49.9179 13.5354 49.8477 13.9376 49.7408 14.3303C49.8026 14.3666 49.8487 14.4252 49.8698 14.4945C49.8909 14.5638 49.8856 14.6387 49.8549 14.7042C49.7673 14.9798 48.6568 15.3802 47.6074 15.4959C46.558 15.6115 45.6833 15.7271 45.6833 15.7271H45.5C45.5 15.7271 45.4519 16.0608 45.3994 16.0475C45.3468 16.0342 44.7785 15.9451 44.7785 15.9451L37.7215 15.8871L37.2319 15.6559L14.5575 15.558L13.823 15.6471L6.77497 14.6686L6.09301 14.8642C6.09301 14.8642 2.21738 14.1791 1.46722 13.9747C0.962535 13.8129 0.523454 13.4882 0.216577 13.0496C0.123329 12.9503 0.0518258 12.8321 0.00677509 12.7027C-0.0368258 12.5336 0.144281 12.3156 0.144281 12.3156C0.144281 12.3156 0.0634114 10.3694 0.155085 10.2272C0.440227 9.95543 0.660168 9.62062 0.797921 9.24863C0.93804 8.72351 0.83295 7.69146 1.0517 6.88198C1.27045 6.0725 1.16536 5.6543 1.2835 5.44956C1.40163 5.24482 1.49778 5.21676 1.49778 5.21676Z" fill="#444444"/>
<path fill-rule="evenodd" clip-rule="evenodd" d="M24.5132 6.49024C30.4407 6.76588 36.0857 7.01422 36.0772 6.96759C36.0596 6.86977 35.7362 6.2472 34.6778 5.41952C32.9359 4.1553 31.04 3.12654 29.0377 2.35904C27.4725 1.83884 25.4307 1.62121 23.5156 1.55334L24.5132 6.49024Z" fill="white"/>
<path fill-rule="evenodd" clip-rule="evenodd" d="M11.0201 4.6411C10.9167 4.73105 10.8523 4.85882 10.8408 4.99674C10.8586 5.29048 10.9376 5.57701 11.0726 5.83731C11.0953 5.84755 16.6353 6.12015 22.4945 6.39541C22.395 5.37171 22.1249 2.71768 22.0101 1.52753C20.1413 1.50929 18.2728 1.59067 16.4124 1.77132C15.2303 2.06262 14.092 2.51445 13.0283 3.11465C12.3232 3.57302 11.652 4.08319 11.0201 4.6411Z" fill="white"/>
<path fill-rule="evenodd" clip-rule="evenodd" d="M2.31953 7.93713C1.84935 7.90698 1.38134 7.84849 0.917969 7.76196C0.934725 7.46521 0.9794 7.17079 1.05138 6.88271C1.14829 6.51312 1.20404 6.13362 1.21758 5.75134C1.26602 5.76082 1.30925 5.76954 1.33161 5.77522C1.40167 5.79304 1.43633 5.85105 1.74154 6.11646C2.04674 6.38186 2.85653 6.78793 2.90907 6.86831C2.96161 6.94869 2.36313 7.88822 2.31953 7.93713Z" fill="white"/>
<path fill-rule="evenodd" clip-rule="evenodd" d="M49.043 9.27906C49.245 9.60082 49.406 9.94734 49.5223 10.3103C49.5566 10.4413 49.5825 10.5744 49.5998 10.7088C49.3654 10.6808 49.0628 10.6421 48.8097 10.6243C48.4626 10.625 48.1187 10.6913 47.7954 10.8199C47.6992 10.8286 45.8542 9.0584 45.9321 8.93366C46.01 8.80892 46.6401 8.86238 47.6198 8.95148C48.1058 8.99992 48.5839 9.10996 49.043 9.27906Z" fill="white"/>
<path fill-rule="evenodd" clip-rule="evenodd" d="M48.8057 13.3066C49.0291 13.2326 49.2618 13.1921 49.4966 13.1864C49.5172 13.2293 49.5218 13.2783 49.5097 13.3244C49.4877 13.3953 49.0681 14.6135 48.8583 14.7345C48.4154 14.8491 47.9599 14.9058 47.5029 14.9032C47.8978 14.3389 48.3332 13.8053 48.8057 13.3066Z" fill="white"/>
<path fill-rule="evenodd" clip-rule="evenodd" d="M36.1395 6.26925C35.7199 5.88008 35.2209 5.58996 34.6784 5.41958C34.3556 5.32631 34.0583 7.23039 34.198 7.37257C34.3378 7.51475 36.3143 8.06641 36.5767 7.71077C36.839 7.35513 36.1395 6.26925 36.1395 6.26925Z" fill="#444444"/>
<path d="M44.4099 16.0979C45.4577 14.3884 44.9451 12.1384 43.2649 11.0724C41.5847 10.0063 39.3733 10.5279 38.3255 12.2373C37.2776 13.9467 37.7903 16.1967 39.4704 17.2628C41.1506 18.3289 43.3621 17.8073 44.4099 16.0979Z" fill="#444444"/>
<path d="M41.89 16.9348C43.3921 16.6413 44.376 15.1645 44.0876 13.6361C43.7991 12.1078 42.3475 11.1068 40.8454 11.4003C39.3432 11.6937 38.3593 13.1706 38.6478 14.6989C38.9362 16.2272 40.3878 17.2283 41.89 16.9348Z" fill="white"/>
<path fill-rule="evenodd" clip-rule="evenodd" d="M41.3674 16.641C40.8866 16.641 40.4166 16.4959 40.0169 16.2242C39.6171 15.9524 39.3055 15.5661 39.1215 15.1142C38.9376 14.6623 38.8894 14.165 38.9832 13.6853C39.077 13.2055 39.3085 12.7648 39.6485 12.419C39.9884 12.0731 40.4216 11.8375 40.8931 11.7421C41.3647 11.6467 41.8534 11.6956 42.2976 11.8828C42.7418 12.07 43.1214 12.387 43.3885 12.7937C43.6556 13.2005 43.7982 13.6786 43.7982 14.1678C43.7969 14.8233 43.5404 15.4516 43.0848 15.9151C42.6292 16.3787 42.0117 16.6396 41.3674 16.641Z" fill="#444444"/>
<path fill-rule="evenodd" clip-rule="evenodd" d="M39.2903 12.8816C39.3688 13.0998 39.5004 13.2943 39.6728 13.4468C39.8451 13.5992 40.0527 13.7048 40.276 13.7537C40.0855 13.5333 39.9435 13.2741 39.8594 12.9934C39.7752 12.7127 39.751 12.417 39.7882 12.126C40.0741 11.8953 40.4272 11.768 40.7921 11.7639C40.6959 11.9749 40.6538 12.2073 40.6698 12.4394C40.6857 12.6714 40.7592 12.8956 40.8834 13.0909C40.9018 12.7981 40.9815 12.5127 41.117 12.2537C41.2526 11.9947 41.4409 11.7681 41.6693 11.5891C42.0318 11.6318 42.37 11.7958 42.6308 12.0555C42.4163 12.1354 42.2252 12.2693 42.0753 12.4446C41.9255 12.62 41.8217 12.8311 41.7737 13.0583C41.9903 12.8645 42.245 12.72 42.5209 12.6343C42.7968 12.5487 43.0874 12.5239 43.3735 12.5616C43.6002 12.8525 43.7254 13.2118 43.7294 13.5831C43.522 13.4851 43.2936 13.4422 43.0655 13.4585C42.8374 13.4747 42.617 13.5495 42.4251 13.6759C42.7129 13.6948 42.9934 13.7758 43.2479 13.9137C43.5025 14.0516 43.7252 14.2432 43.9012 14.4756C43.8592 14.8443 43.6979 15.1884 43.4428 15.4538C43.3643 15.2356 43.2327 15.0411 43.0603 14.8886C42.8879 14.7362 42.6804 14.6306 42.4571 14.5817C42.6476 14.8021 42.7896 15.0613 42.8737 15.342C42.9579 15.6227 42.9821 15.9184 42.9449 16.2094C42.659 16.4401 42.3058 16.5674 41.941 16.5715C42.0372 16.3605 42.0793 16.1281 42.0633 15.896C42.0473 15.664 41.9738 15.4398 41.8497 15.2445C41.8311 15.5373 41.7514 15.8227 41.6158 16.0817C41.4802 16.3407 41.2919 16.5673 41.0634 16.7463C40.701 16.7035 40.3628 16.5394 40.1019 16.2799C40.3164 16.2 40.5076 16.066 40.6574 15.8906C40.8073 15.7152 40.9111 15.504 40.959 15.2767C40.7425 15.4706 40.4878 15.6152 40.2119 15.7008C39.936 15.7865 39.6453 15.8112 39.3592 15.7734C39.1326 15.4825 39.0074 15.1232 39.0033 14.752C39.2107 14.85 39.4392 14.8928 39.6673 14.8766C39.8954 14.8604 40.1157 14.7855 40.3076 14.6591C40.0199 14.6403 39.7393 14.5592 39.4848 14.4213C39.2302 14.2834 39.0075 14.0919 38.8315 13.8595C38.8737 13.4908 39.0351 13.1468 39.2903 12.8816Z" fill="white"/>
<path fill-rule="evenodd" clip-rule="evenodd" d="M41.3675 14.7012C41.2637 14.7012 41.1623 14.6699 41.076 14.6113C40.9897 14.5526 40.9224 14.4692 40.8827 14.3717C40.843 14.2741 40.8326 14.1668 40.8529 14.0632C40.8731 13.9597 40.9231 13.8646 40.9965 13.7899C41.0698 13.7152 41.1633 13.6644 41.2651 13.6438C41.3669 13.6232 41.4724 13.6338 41.5683 13.6742C41.6641 13.7146 41.7461 13.783 41.8037 13.8708C41.8614 13.9586 41.8922 14.0618 41.8922 14.1674C41.8919 14.3089 41.8365 14.4445 41.7382 14.5445C41.6398 14.6446 41.5065 14.7009 41.3675 14.7012Z" fill="#444444"/>
<path d="M13.4845 15.8583C14.4021 14.0731 13.7236 11.869 11.969 10.9354C10.2143 10.0018 8.04798 10.6921 7.13032 12.4773C6.21266 14.2625 6.89117 16.4666 8.64582 17.4002C10.4005 18.3339 12.5668 17.6435 13.4845 15.8583Z" fill="#444444"/>
<path d="M13.0056 14.8081C13.3544 13.2923 12.4293 11.7759 10.9395 11.421C9.44968 11.0662 7.95922 12.0073 7.61047 13.5231C7.26172 15.0389 8.18675 16.5553 9.67658 16.9102C11.1664 17.265 12.6569 16.3238 13.0056 14.8081Z" fill="white"/>
<path fill-rule="evenodd" clip-rule="evenodd" d="M10.3073 16.641C9.82653 16.641 9.35656 16.4959 8.95681 16.2242C8.55706 15.9524 8.24548 15.5661 8.0615 15.1142C7.87752 14.6623 7.82938 14.165 7.92317 13.6853C8.01697 13.2055 8.24849 12.7648 8.58845 12.419C8.92841 12.0731 9.36154 11.8375 9.83308 11.7421C10.3046 11.6467 10.7934 11.6956 11.2376 11.8828C11.6817 12.07 12.0614 12.387 12.3285 12.7937C12.5956 13.2005 12.7381 13.6786 12.7381 14.1678C12.737 14.8233 12.4805 15.4517 12.0249 15.9152C11.5692 16.3788 10.9516 16.6397 10.3073 16.641Z" fill="#444444"/>
<path fill-rule="evenodd" clip-rule="evenodd" d="M8.22992 12.882C8.30856 13.1003 8.44022 13.2947 8.61264 13.4472C8.78506 13.5997 8.99262 13.7052 9.21597 13.7541C9.02551 13.5337 8.88344 13.2745 8.79925 12.9938C8.71507 12.7132 8.69071 12.4174 8.72779 12.1264C9.01377 11.8959 9.3669 11.7685 9.73173 11.7643C9.63544 11.9753 9.59331 12.2077 9.60928 12.4398C9.62524 12.6719 9.69878 12.896 9.82303 13.0913C9.84125 12.7983 9.92073 12.5127 10.0561 12.2534C10.1915 11.9942 10.3797 11.7673 10.6082 11.588C10.9707 11.6307 11.3089 11.7947 11.5697 12.0544C11.3552 12.1343 11.1641 12.2682 11.0143 12.4436C10.8644 12.6189 10.7606 12.83 10.7126 13.0572C10.9292 12.8634 11.1839 12.7189 11.4598 12.6333C11.7357 12.5476 12.0263 12.5228 12.3124 12.5605C12.539 12.8514 12.6642 13.2108 12.6683 13.582C12.4609 13.484 12.2324 13.4412 12.0044 13.4574C11.7763 13.4737 11.5559 13.5485 11.364 13.6748C11.6525 13.6931 11.9338 13.774 12.1891 13.912C12.4444 14.0499 12.6677 14.2419 12.8442 14.4749C12.8021 14.8436 12.6409 15.1877 12.3858 15.4531C12.3072 15.2348 12.1755 15.0404 12.0031 14.8879C11.8306 14.7354 11.6231 14.6299 11.3997 14.581C11.5903 14.8014 11.7324 15.0605 11.8165 15.3412C11.9007 15.6219 11.9251 15.9177 11.8879 16.2087C11.602 16.4393 11.2488 16.5667 10.884 16.5708C10.9802 16.3598 11.0223 16.1274 11.0064 15.8953C10.9904 15.6632 10.9169 15.4391 10.7927 15.2438C10.7742 15.5366 10.6946 15.822 10.559 16.081C10.4235 16.34 10.2352 16.5665 10.0067 16.7456C9.64432 16.7028 9.30613 16.5388 9.04529 16.2792C9.2598 16.1992 9.45091 16.0653 9.60078 15.8899C9.75066 15.7144 9.85442 15.5032 9.9024 15.276C9.68584 15.4698 9.4311 15.6144 9.1552 15.7001C8.87931 15.7858 8.58862 15.8105 8.30258 15.7727C8.07601 15.4817 7.95084 15.1224 7.9467 14.7512C8.15409 14.8492 8.38252 14.8921 8.61062 14.8758C8.83872 14.8596 9.05904 14.7848 9.251 14.6584C8.96321 14.6396 8.68267 14.5585 8.42812 14.4206C8.17357 14.2828 7.95087 14.0912 7.7749 13.8587C7.81633 13.491 7.97634 13.1475 8.22992 12.882Z" fill="white"/>
<path fill-rule="evenodd" clip-rule="evenodd" d="M10.3074 14.7015C10.2036 14.7015 10.1022 14.6702 10.0159 14.6115C9.92962 14.5528 9.86237 14.4695 9.82266 14.3719C9.78295 14.2744 9.77255 14.167 9.7928 14.0635C9.81304 13.9599 9.86301 13.8648 9.93639 13.7901C10.0098 13.7155 10.1033 13.6646 10.2051 13.644C10.3068 13.6234 10.4123 13.634 10.5082 13.6744C10.6041 13.7148 10.686 13.7832 10.7437 13.871C10.8013 13.9588 10.8321 14.062 10.8321 14.1676C10.8318 14.3091 10.7764 14.4447 10.6781 14.5448C10.5798 14.6448 10.4465 14.7012 10.3074 14.7015Z" fill="#444444"/>
<path fill-rule="evenodd" clip-rule="evenodd" d="M13.0827 1.36492C13.0935 1.36264 13.2925 1.43846 12.9929 1.56775C12.3012 1.8669 4.52907 5.24209 4.40088 4.61194C7.20922 3.33725 10.06 2.00416 13.0827 1.36492Z" fill="white"/>
</svg>
