<svg width="50" height="20" viewBox="0 0 50 20" fill="none" xmlns="http://www.w3.org/2000/svg">
<path fill-rule="evenodd" clip-rule="evenodd" d="M26.0105 1.22416C26.0105 1.22416 29.5595 1.51895 29.9599 1.57616C30.3604 1.63337 30.3823 1.641 30.3823 1.641C31.3004 1.87709 32.1823 2.22998 33.0051 2.69045C34.2795 3.42387 38.8731 6.19842 38.8731 6.19842C39.0432 6.18754 39.214 6.18754 39.3842 6.19842C39.4431 6.21967 39.7026 6.37114 39.747 6.37114C39.7913 6.37114 44.1182 7.11165 45.2819 7.42768C46.2662 7.6807 47.2181 8.04002 48.1198 8.49893C48.6603 9.03289 49.0861 9.66578 49.3723 10.3608C49.4912 10.6103 49.5853 10.8703 49.6531 11.1373C49.7789 11.3422 49.8831 11.5589 49.9642 11.784C50.0154 12.2046 50.0117 12.6297 49.953 13.0493C49.7927 13.2523 49.6732 13.4828 49.6008 13.7287C49.5267 14.1025 49.5638 14.3613 49.6525 14.4333C49.7119 14.4708 49.7557 14.5274 49.7762 14.5932C49.7967 14.659 49.7927 14.7297 49.7648 14.7929C49.5652 15.0283 49.3246 15.2278 49.0538 15.3825C48.7928 15.4362 48.5274 15.4675 48.2608 15.4762C48.2608 15.4762 48.3051 15.7132 48.2012 15.771C47.659 15.883 47.1096 15.9598 46.5568 16.0009C46.3636 16.0261 46.1672 16.0139 45.9789 15.9649C45.9789 15.9649 45.9789 15.541 45.9418 15.5481C45.9047 15.5552 45.816 15.577 45.7733 15.541C45.6334 15.4718 45.49 15.4094 45.3437 15.3541C45.3437 15.3541 37.4976 15.4838 37.4679 15.5911C37.4381 15.6985 37.3639 15.85 37.2994 15.8358C37.2348 15.8216 14.3751 15.5917 14.3751 15.5917C14.3751 15.5917 14.2493 15.4119 14.1235 15.383C14.0133 15.362 13.9019 15.3476 13.7899 15.34L5.89164 15.0811C5.89164 15.0811 5.88434 15.304 5.82537 15.304C5.76639 15.304 1.20199 14.8436 0.653837 14.5564C0.105681 14.2693 0.046147 13.5282 0.0163803 13.1691C-0.0182736 12.971 0.00228132 12.7674 0.0759152 12.5796C0.077181 12.1468 0.106819 11.7146 0.164652 11.2855C0.389364 11.1018 0.571243 10.8739 0.698207 10.6169C0.786399 10.3689 0.836362 10.1097 0.846479 9.84751C0.990651 8.90676 1.18846 7.97449 1.439 7.05498C1.94591 5.85515 2.54401 4.69353 3.22837 3.5797C3.87312 2.74603 4.37691 2.18534 4.37691 2.18534C4.28986 2.1568 4.21031 2.11011 4.14383 2.04857C4.09753 1.99072 4.06518 1.92355 4.04914 1.85199C4.03311 1.78042 4.0338 1.70628 4.05117 1.63501C4.0843 1.61376 6.31848 1.24705 7.00761 1.16041C7.69673 1.07378 7.79389 1.10319 7.79389 1.06669C7.79389 1.03018 7.8905 0.929925 7.8905 0.929925C8.21159 0.942658 8.53316 0.937928 8.8537 0.915757C9.01487 0.855641 9.18653 0.826402 9.35917 0.829663C9.62595 0.822579 10.6858 0.822583 11.8562 0.807871C13.0266 0.793159 24.3778 0.9588 24.3778 0.9588C24.3778 0.9588 24.4222 0.901589 24.5851 0.901589C24.9203 0.904916 25.2538 0.948478 25.5781 1.03128C25.7325 1.07116 25.8788 1.13639 26.0105 1.22416Z" fill="#444444"/>
<path fill-rule="evenodd" clip-rule="evenodd" d="M26.6109 7.19063L26.4272 2.01422L27.8313 2.07143C29.0136 2.13159 30.1788 2.37173 31.2843 2.78305C32.7288 3.40858 38.0042 6.90892 38.3524 7.13887C38.7006 7.36881 38.8635 7.58294 38.8523 7.6456C38.8411 7.70827 38.7506 7.6843 38.7692 7.71209C38.7877 7.73987 33.2477 7.48432 26.6109 7.19063Z" fill="white"/>
<path fill-rule="evenodd" clip-rule="evenodd" d="M24.8618 1.951L24.8752 7.11488C21.6178 6.97375 18.1963 6.82391 15.0933 6.68714L15.528 1.77991C18.0772 1.77991 20.6894 1.77991 20.6894 1.77991L24.8618 1.951Z" fill="white"/>
<path fill-rule="evenodd" clip-rule="evenodd" d="M14.1368 1.78113C13.9649 2.72541 13.4325 5.6618 13.282 6.60717C8.11944 6.37723 4.22732 6.19742 4.19867 6.17562C4.1133 6.11078 4.08635 6.07155 4.15768 5.83779C4.5628 4.90243 5.0827 4.01788 5.7061 3.20328C6.15821 2.67737 6.76194 2.29447 7.43987 2.1037C8.57648 1.86738 9.7381 1.76348 10.9001 1.7942C11.3584 1.78711 12.6428 1.78331 14.1368 1.78113Z" fill="white"/>
<path fill-rule="evenodd" clip-rule="evenodd" d="M46.2651 9.02578C46.4954 9.58702 46.7602 10.1344 47.0582 10.6648C47.5244 10.8349 48.0206 10.914 48.5184 10.8975C48.5628 10.8904 48.9677 10.6419 48.9632 10.4136C48.8562 9.91741 48.6359 9.45079 48.3185 9.04812C47.898 8.88927 47.4454 8.82644 46.9958 8.8645C46.7409 8.84318 46.4855 8.89956 46.2651 9.02578Z" fill="white"/>
<path fill-rule="evenodd" clip-rule="evenodd" d="M1.57656 6.75189C2.10506 6.75734 2.98963 6.77913 3.05591 6.79711C3.14858 6.82218 3.19688 6.83308 3.2244 6.94097C3.25192 7.04885 2.85035 8.79357 2.83126 9.38858C2.81216 9.9836 2.87562 10.4092 2.78689 10.4702C2.35517 10.5269 1.9163 10.5038 1.49344 10.4021C1.25984 10.2546 1.0413 10.0859 0.84082 9.89806C0.84082 9.86591 0.84082 9.84738 0.84082 9.84738C0.98499 8.90663 1.1828 7.97436 1.43334 7.05485C1.4648 6.996 1.5131 6.89084 1.57656 6.75189Z" fill="white"/>
<path d="M45.3482 15.4712C45.7734 13.4599 44.4375 11.495 42.3643 11.0824C40.2912 10.6699 38.2659 11.966 37.8407 13.9773C37.4155 15.9886 38.7514 17.9535 40.8245 18.366C42.8977 18.7785 44.923 17.4825 45.3482 15.4712Z" fill="#444444"/>
<path fill-rule="evenodd" clip-rule="evenodd" d="M41.5938 17.4651C41.0355 17.4651 40.4897 17.3045 40.0255 17.0036C39.5613 16.7026 39.1995 16.2749 38.9859 15.7745C38.7722 15.2741 38.7163 14.7235 38.8252 14.1922C38.9342 13.661 39.203 13.173 39.5978 12.79C39.9925 12.407 40.4955 12.1462 41.0431 12.0405C41.5906 11.9349 42.1582 11.9891 42.674 12.1964C43.1898 12.4037 43.6306 12.7547 43.9408 13.205C44.251 13.6554 44.4165 14.1849 44.4165 14.7265C44.4151 15.4524 44.1172 16.1481 43.5881 16.6614C43.0591 17.1747 42.342 17.4637 41.5938 17.4651Z" fill="white"/>
<path d="M41.5934 17.2302C43.0187 17.2302 44.1741 16.1092 44.1741 14.7264C44.1741 13.3436 43.0187 12.2227 41.5934 12.2227C40.1681 12.2227 39.0127 13.3436 39.0127 14.7264C39.0127 16.1092 40.1681 17.2302 41.5934 17.2302Z" fill="#444444"/>
<path fill-rule="evenodd" clip-rule="evenodd" d="M42.1515 12.1312L41.8179 14.7265H41.5933L41.8584 12.0892L42.1515 12.1312Z" fill="white"/>
<path fill-rule="evenodd" clip-rule="evenodd" d="M41.0361 12.1312L41.3697 14.7265H41.5944L41.3293 12.0892L41.0361 12.1312Z" fill="white"/>
<path fill-rule="evenodd" clip-rule="evenodd" d="M43.8796 13.2743L41.7521 14.8806L41.5938 14.7264L43.7032 13.0438L43.8796 13.2743Z" fill="white"/>
<path fill-rule="evenodd" clip-rule="evenodd" d="M43.0917 12.5087L41.436 14.5727L41.5944 14.7269L43.3287 12.6803L43.0917 12.5087Z" fill="white"/>
<path fill-rule="evenodd" clip-rule="evenodd" d="M44.2688 15.2675L41.5938 14.9438V14.7259L44.3121 14.9831L44.2688 15.2675Z" fill="white"/>
<path fill-rule="evenodd" clip-rule="evenodd" d="M44.2688 14.1854L41.5938 14.509V14.727L44.3121 14.4698L44.2688 14.1854Z" fill="white"/>
<path fill-rule="evenodd" clip-rule="evenodd" d="M43.0917 16.9439L41.436 14.8798L41.5944 14.7256L43.3287 16.7722L43.0917 16.9439Z" fill="white"/>
<path fill-rule="evenodd" clip-rule="evenodd" d="M43.8796 16.179L41.7521 14.5726L41.5938 14.7268L43.7032 16.4094L43.8796 16.179Z" fill="white"/>
<path fill-rule="evenodd" clip-rule="evenodd" d="M41.0361 17.3222L41.3698 14.7269H41.5944L41.3293 17.3641L41.0361 17.3222Z" fill="white"/>
<path fill-rule="evenodd" clip-rule="evenodd" d="M42.1515 17.3222L41.8179 14.7269H41.5933L41.8584 17.3641L42.1515 17.3222Z" fill="white"/>
<path fill-rule="evenodd" clip-rule="evenodd" d="M39.3076 16.179L41.4351 14.5727L41.5935 14.7264L39.484 16.409L39.3076 16.179Z" fill="white"/>
<path fill-rule="evenodd" clip-rule="evenodd" d="M40.0969 16.9446L41.7526 14.8806L41.5937 14.7269L39.8594 16.7735L40.0969 16.9446Z" fill="white"/>
<path fill-rule="evenodd" clip-rule="evenodd" d="M38.9183 14.1854L41.5933 14.509V14.727L38.875 14.4698L38.9183 14.1854Z" fill="white"/>
<path fill-rule="evenodd" clip-rule="evenodd" d="M38.9183 15.2675L41.5933 14.9438V14.7259L38.875 14.9831L38.9183 15.2675Z" fill="white"/>
<path fill-rule="evenodd" clip-rule="evenodd" d="M40.0969 12.5087L41.7526 14.5727L41.5937 14.7264L39.8594 12.6798L40.0969 12.5087Z" fill="white"/>
<path fill-rule="evenodd" clip-rule="evenodd" d="M39.3076 13.2736L41.4351 14.88L41.5935 14.7258L39.484 13.0432L39.3076 13.2736Z" fill="white"/>
<path fill-rule="evenodd" clip-rule="evenodd" d="M41.5937 15.5818C41.4193 15.5818 41.2488 15.5317 41.1038 15.4377C40.9588 15.3437 40.8458 15.2101 40.779 15.0538C40.7123 14.8974 40.6948 14.7254 40.7289 14.5595C40.7629 14.3935 40.8469 14.2411 40.9702 14.1215C41.0935 14.0018 41.2506 13.9204 41.4216 13.8873C41.5927 13.8543 41.77 13.8713 41.9311 13.936C42.0922 14.0008 42.23 14.1104 42.3269 14.2511C42.4237 14.3918 42.4755 14.5572 42.4755 14.7264C42.475 14.9531 42.382 15.1705 42.2167 15.3308C42.0514 15.4911 41.8274 15.5814 41.5937 15.5818Z" fill="white"/>
<path d="M41.5938 15.0572C41.7821 15.0572 41.9348 14.9091 41.9348 14.7264C41.9348 14.5438 41.7821 14.3957 41.5938 14.3957C41.4056 14.3957 41.2529 14.5438 41.2529 14.7264C41.2529 14.9091 41.4056 15.0572 41.5938 15.0572Z" fill="#444444"/>
<path d="M13.7442 15.5755C14.2278 13.5775 12.9504 11.5774 10.891 11.1082C8.83154 10.639 6.76999 11.8783 6.28635 13.8763C5.80271 15.8743 7.08013 17.8744 9.13955 18.3436C11.199 18.8128 13.2605 17.5735 13.7442 15.5755Z" fill="#444444"/>
<path d="M10.2403 17.4561C11.7943 17.3356 12.9534 16.0157 12.8291 14.508C12.7049 13.0003 11.3444 11.8758 9.79036 11.9963C8.23634 12.1169 7.07728 13.4368 7.20152 14.9445C7.32576 16.4522 8.68626 17.5767 10.2403 17.4561Z" fill="white"/>
<path d="M10.1976 17.2233C11.6193 17.1254 12.6901 15.928 12.5893 14.5487C12.4885 13.1694 11.2543 12.1305 9.83255 12.2283C8.41083 12.3261 7.34003 13.5236 7.44084 14.9029C7.54165 16.2822 8.77591 17.3211 10.1976 17.2233Z" fill="#444444"/>
<path fill-rule="evenodd" clip-rule="evenodd" d="M10.5734 12.1306L10.2398 14.7259H10.0151L10.2802 12.0886L10.5734 12.1306Z" fill="white"/>
<path fill-rule="evenodd" clip-rule="evenodd" d="M9.45801 12.1306L9.79161 14.7259H10.0163L9.75118 12.0886L9.45801 12.1306Z" fill="white"/>
<path fill-rule="evenodd" clip-rule="evenodd" d="M12.3011 13.2739L10.1736 14.8802L10.0146 14.726L12.1241 13.0434L12.3011 13.2739Z" fill="white"/>
<path fill-rule="evenodd" clip-rule="evenodd" d="M11.5131 12.5083L9.85742 14.5723L10.0164 14.7265L11.7507 12.6799L11.5131 12.5083Z" fill="white"/>
<path fill-rule="evenodd" clip-rule="evenodd" d="M12.6907 15.2671L10.0156 14.9435V14.7255L12.7339 14.9827L12.6907 15.2671Z" fill="white"/>
<path fill-rule="evenodd" clip-rule="evenodd" d="M12.6907 14.185L10.0156 14.5087V14.7266L12.7339 14.4694L12.6907 14.185Z" fill="white"/>
<path fill-rule="evenodd" clip-rule="evenodd" d="M11.5126 16.9438L9.85693 14.8798L10.0153 14.7256L11.7496 16.7722L11.5126 16.9438Z" fill="white"/>
<path fill-rule="evenodd" clip-rule="evenodd" d="M12.3015 16.1787L10.174 14.5723L10.0156 14.7265L12.1251 16.4091L12.3015 16.1787Z" fill="white"/>
<path fill-rule="evenodd" clip-rule="evenodd" d="M9.45801 17.3218L9.79161 14.7265H10.0163L9.75118 17.3637L9.45801 17.3218Z" fill="white"/>
<path fill-rule="evenodd" clip-rule="evenodd" d="M10.5734 17.3218L10.2398 14.7265H10.0151L10.2802 17.3637L10.5734 17.3218Z" fill="white"/>
<path fill-rule="evenodd" clip-rule="evenodd" d="M7.72949 16.1787L9.85696 14.5723L10.0153 14.726L7.90584 16.4086L7.72949 16.1787Z" fill="white"/>
<path fill-rule="evenodd" clip-rule="evenodd" d="M8.51827 16.9442L10.174 14.8802L10.0156 14.7266L8.28125 16.7732L8.51827 16.9442Z" fill="white"/>
<path fill-rule="evenodd" clip-rule="evenodd" d="M7.34061 14.185L10.0157 14.5087V14.7266L7.29736 14.4694L7.34061 14.185Z" fill="white"/>
<path fill-rule="evenodd" clip-rule="evenodd" d="M7.34061 15.2671L10.0157 14.9435V14.7255L7.29736 14.9827L7.34061 15.2671Z" fill="white"/>
<path fill-rule="evenodd" clip-rule="evenodd" d="M8.51882 12.5083L10.1745 14.5723L10.0156 14.726L8.28125 12.6794L8.51882 12.5083Z" fill="white"/>
<path fill-rule="evenodd" clip-rule="evenodd" d="M7.72949 13.2733L9.85696 14.8796L10.0159 14.7254L7.9064 13.0428L7.72949 13.2733Z" fill="white"/>
<path fill-rule="evenodd" clip-rule="evenodd" d="M10.0156 15.5815C9.84115 15.5815 9.67068 15.5313 9.52567 15.4373C9.38067 15.3433 9.26765 15.2097 9.20091 15.0534C9.13417 14.8971 9.11671 14.7251 9.15073 14.5591C9.18476 14.3932 9.26873 14.2407 9.39205 14.1211C9.51537 14.0015 9.67248 13.92 9.84353 13.887C10.0146 13.854 10.1919 13.8709 10.353 13.9357C10.5141 14.0004 10.6518 14.1101 10.7487 14.2507C10.8456 14.3914 10.8973 14.5568 10.8973 14.726C10.8969 14.9528 10.8038 15.1701 10.6386 15.3304C10.4733 15.4908 10.2493 15.5811 10.0156 15.5815Z" fill="white"/>
<path d="M10.0157 15.0568C10.204 15.0568 10.3566 14.9087 10.3566 14.7261C10.3566 14.5434 10.204 14.3953 10.0157 14.3953C9.82744 14.3953 9.6748 14.5434 9.6748 14.7261C9.6748 14.9087 9.82744 15.0568 10.0157 15.0568Z" fill="#444444"/>
<path fill-rule="evenodd" clip-rule="evenodd" d="M36.8007 6.28081C36.7395 6.88858 36.7495 7.50113 36.8305 8.10672C37.9751 8.44836 39.0675 8.39877 39.0675 7.5166C39.0675 7.06108 37.0501 5.63621 36.8007 6.28081Z" fill="#444444"/>
</svg>
