<svg width="50" height="20" viewBox="0 0 50 20" fill="none" xmlns="http://www.w3.org/2000/svg">
<path fill-rule="evenodd" clip-rule="evenodd" d="M36.6411 5.68728C35.4374 4.87351 34.1795 4.14303 32.8761 3.50096C30.649 2.39374 28.9139 1.74574 28.679 1.64764C28.6006 1.62231 28.5253 1.58814 28.4547 1.54582C28.4547 1.54582 28.4441 1.50711 28.3672 1.46151C27.1298 1.15212 25.8667 0.956876 24.5937 0.878215C21.4778 0.748789 18.3571 0.795516 15.2465 1.0182C11.953 1.32629 4.90611 2.47594 4.8621 2.58783C4.81809 2.69972 5.07953 2.87522 5.15642 2.9309C5.26255 2.99378 5.37252 3.04994 5.4857 3.09901C5.4857 3.09901 2.92129 5.46722 2.72508 5.67774C2.52888 5.88826 2.48699 5.93015 2.48699 5.93015C2.41702 5.9601 2.35482 6.00561 2.30511 6.06324C2.242 6.14756 1.82786 6.74308 1.82786 6.74308C1.82786 6.74308 1.68734 6.76373 1.42114 7.11425C1.15494 7.46476 1.20372 8.35459 1.19683 8.55769C1.19223 8.67208 1.19453 8.78664 1.20372 8.90076C0.931351 9.08196 0.682058 9.29564 0.461339 9.5371C0.331176 10.1364 0.242585 10.7439 0.1962 11.3554C0.176038 11.5747 0.179588 11.7955 0.2068 12.014C0.147961 12.0495 0.0984819 12.0985 0.0624979 12.157C0.0265139 12.2155 0.00508272 12.2817 0 12.3502C0.274105 13.1358 0.653524 13.8806 1.12789 14.5641C1.29676 14.764 1.534 14.8939 1.79339 14.9284C1.91217 14.9353 2.53578 14.9284 2.53578 14.9284L11.9042 15.2721C11.9042 15.2721 11.8061 15.8463 12.0585 15.8326C12.3109 15.8188 26.885 15.9869 30.4167 16.155C33.9483 16.323 35.3218 16.3443 35.4013 16.3093C35.4808 16.2743 35.4851 15.8819 35.4851 15.8819L45.5073 15.9938C45.5073 15.9938 45.4792 16.3443 45.5635 16.3443C45.6479 16.3443 47.2869 16.1481 47.7377 16.0288C48.3541 15.8056 48.9348 15.4941 49.4616 15.1039C50.0083 14.7184 49.959 14.5154 49.8959 14.4735C49.8328 14.4316 49.7628 14.3892 49.7628 14.3892C49.7091 13.6379 49.7114 12.8837 49.7697 12.1328C49.8816 12.084 49.9871 12.0209 49.9871 11.9297C50.0176 11.5708 49.994 11.2094 49.9171 10.8575C49.8094 10.7231 49.6872 10.6009 49.5528 10.4932C49.497 10.2297 49.4 9.97664 49.2654 9.74337C49.0973 9.52595 49.0533 9.46975 49.0533 9.46975C49.0533 9.46975 48.9271 9.05615 47.8267 8.49564C45.4745 7.5293 43.0466 6.75833 40.5678 6.19054C39.5859 5.94788 38.5886 5.7723 37.5829 5.66502C37.2811 5.65812 36.6411 5.68728 36.6411 5.68728Z" fill="#444444"/>
<path fill-rule="evenodd" clip-rule="evenodd" d="M1.83059 6.74198C1.83059 6.74198 1.69006 6.76267 1.42387 7.11318C1.15767 7.4637 1.20645 8.35349 1.19956 8.55659C1.19497 8.67099 1.19727 8.78554 1.20645 8.89966L1.4016 8.89225C1.84084 8.8668 2.27403 8.77748 2.68751 8.62711C3.59871 8.15005 4.46222 7.58698 5.26626 6.94559C5.28004 6.8756 5.28004 6.82628 5.14005 6.75629C4.39644 6.59969 3.63591 6.53856 2.87684 6.57439C2.5321 6.60178 2.18917 6.64854 1.84968 6.71441L1.83059 6.74198Z" fill="white"/>
<path fill-rule="evenodd" clip-rule="evenodd" d="M2.51611 5.90043C2.69164 5.91846 2.99072 5.94869 3.05859 5.94603C3.15669 5.94232 5.77361 3.17163 5.75982 3.13557C5.74603 3.09951 5.48726 3.09741 5.48726 3.09741C5.48726 3.09741 2.9223 5.46562 2.7261 5.67614C2.60944 5.80234 2.5474 5.86808 2.51611 5.90043Z" fill="white"/>
<path fill-rule="evenodd" clip-rule="evenodd" d="M17.7261 1.85917L17.7504 5.72488C23.7023 6.18463 32.0473 6.74142 32.0473 6.74142C32.0473 6.74142 31.0106 6.67144 30.8276 6.41903C30.6447 6.16662 30.3933 5.508 30.5052 5.29801C30.693 5.08503 30.9157 4.90569 31.1638 4.76774C31.3204 4.71952 31.481 4.68544 31.6437 4.66591C31.8961 4.63781 32.0923 4.6341 32.0923 4.6341C32.0923 4.6341 29.3561 3.0189 27.9689 2.61271C26.3945 2.25242 24.7944 2.01571 23.1831 1.90478C21.3663 1.78933 19.5446 1.77411 17.7261 1.85917Z" fill="white"/>
<path fill-rule="evenodd" clip-rule="evenodd" d="M16.8049 5.65128L16.8626 1.89587C14.7191 1.96106 12.5831 2.1826 10.4717 2.55872C9.85025 2.68611 9.30112 3.04661 8.93713 3.56623C8.82006 3.7048 8.75464 3.87968 8.75203 4.06106C8.74942 4.24245 8.80978 4.41916 8.92281 4.56105C9.09091 4.72915 9.55914 4.86913 12.237 5.23396C12.9428 5.33153 14.662 5.48212 16.8049 5.65128Z" fill="white"/>
<path fill-rule="evenodd" clip-rule="evenodd" d="M27.9302 1.66517C27.9302 1.66517 31.1532 3.11549 33.0102 4.08271C34.8673 5.04994 36.0127 5.73294 36.1739 5.73983C36.3308 5.73541 36.4871 5.71768 36.641 5.68681C35.4374 4.87304 34.1795 4.14254 32.8761 3.50046C30.6489 2.39324 28.9138 1.74524 28.6789 1.64714C28.601 1.62158 28.5263 1.58725 28.4562 1.5448L27.9302 1.66517Z" fill="white"/>
<path fill-rule="evenodd" clip-rule="evenodd" d="M49.2593 9.74437C49.0912 9.52696 49.0472 9.47075 49.0472 9.47075C48.2432 9.18954 47.4198 8.96696 46.5836 8.80473C45.7987 8.71353 45.5957 8.79782 45.5463 9.01682C45.497 9.23583 46.7517 10.5435 47.2628 10.8107C47.9336 11.0018 48.6408 11.0258 49.323 10.8808C49.4492 10.8055 49.5446 10.4958 49.5446 10.4958C49.4897 10.2318 49.3934 9.97826 49.2593 9.74437Z" fill="white"/>
<path d="M11.9316 14.8233C12.2779 12.4099 10.6022 10.1727 8.18884 9.82642C5.77547 9.48011 3.5383 11.1558 3.19199 13.5692C2.84568 15.9825 4.52137 18.2197 6.93474 18.566C9.34811 18.9123 11.5853 17.2366 11.9316 14.8233Z" fill="#444444"/>
<path fill-rule="evenodd" clip-rule="evenodd" d="M7.56184 17.3816C6.93183 17.3816 6.31597 17.1948 5.79214 16.8448C5.26831 16.4948 4.86003 15.9973 4.61894 15.4152C4.37784 14.8332 4.31476 14.1927 4.43767 13.5748C4.56058 12.9569 4.86396 12.3893 5.30944 11.9438C5.75492 11.4984 6.3225 11.195 6.9404 11.0721C7.55831 10.9492 8.19879 11.0123 8.78084 11.2533C9.36289 11.4944 9.86038 11.9027 10.2104 12.4265C10.5604 12.9504 10.7472 13.5662 10.7472 14.1963C10.7455 15.0405 10.4094 15.8498 9.81239 16.4468C9.21538 17.0438 8.40614 17.3799 7.56184 17.3816Z" fill="white"/>
<path fill-rule="evenodd" clip-rule="evenodd" d="M7.56122 17.0969C6.98755 17.0968 6.4268 16.9266 5.94986 16.6078C5.47293 16.289 5.10124 15.836 4.88178 15.3059C4.66233 14.7759 4.60495 14.1927 4.71693 13.6301C4.82891 13.0674 5.10521 12.5507 5.51089 12.145C5.91657 11.7394 6.43341 11.4632 6.99606 11.3513C7.55871 11.2395 8.1419 11.297 8.67189 11.5165C9.20188 11.7361 9.65487 12.1078 9.97357 12.5848C10.2923 13.0618 10.4624 13.6226 10.4624 14.1963C10.4608 14.9652 10.1547 15.7021 9.61091 16.2458C9.06716 16.7895 8.33013 17.0955 7.56122 17.0969Z" fill="#444444"/>
<path fill-rule="evenodd" clip-rule="evenodd" d="M7.06848 11.1761C7.30303 12.1656 7.39728 13.1831 7.34846 14.1987H7.77269C7.72387 13.1831 7.81812 12.1656 8.05267 11.1761H7.06689H7.06848Z" fill="white"/>
<path fill-rule="evenodd" clip-rule="evenodd" d="M5.07812 12.409C5.94273 12.9423 6.72816 13.5944 7.41136 14.3462L7.56142 14.1956L7.71148 14.0455C6.95973 13.3623 6.30767 12.5769 5.77439 11.7123L5.4244 12.0617L5.07812 12.409Z" fill="white"/>
<path fill-rule="evenodd" clip-rule="evenodd" d="M4.5415 14.6888C5.53093 14.4543 6.5484 14.36 7.56407 14.4088V14.1967V13.9846C6.54838 14.0333 5.5309 13.9388 4.5415 13.7041V14.1973V14.6888Z" fill="white"/>
<path fill-rule="evenodd" clip-rule="evenodd" d="M5.77492 16.6799C6.30819 15.8153 6.96025 15.0299 7.71202 14.3467L7.56195 14.1961L7.41136 14.046C6.72815 14.7978 5.94272 15.4499 5.07812 15.9831L5.42652 16.3315L5.77492 16.6799Z" fill="white"/>
<path fill-rule="evenodd" clip-rule="evenodd" d="M8.05452 17.2172C7.81995 16.2277 7.72569 15.2103 7.77452 14.1946H7.35031C7.39914 15.2103 7.30488 16.2277 7.07031 17.2172H8.05452Z" fill="white"/>
<path fill-rule="evenodd" clip-rule="evenodd" d="M10.0455 15.9829C9.18084 15.4497 8.3954 14.7976 7.71228 14.0458L7.56222 14.1958L7.41162 14.3464C8.16343 15.0296 8.81551 15.815 9.34873 16.6797L9.69712 16.3313L10.0455 15.9829Z" fill="white"/>
<path fill-rule="evenodd" clip-rule="evenodd" d="M10.5817 13.7031C9.59226 13.9378 8.57478 14.0322 7.55908 13.9836V14.1958V14.4079C8.57475 14.3591 9.59225 14.4533 10.5817 14.6878V14.1952V13.7031Z" fill="white"/>
<path fill-rule="evenodd" clip-rule="evenodd" d="M9.34824 11.7119C8.81497 12.5765 8.16289 13.3619 7.41113 14.0451L7.56121 14.1952L7.71127 14.3458C8.39447 13.594 9.17988 12.942 10.0445 12.4087L9.69611 12.0603L9.34824 11.7119Z" fill="white"/>
<path fill-rule="evenodd" clip-rule="evenodd" d="M7.56177 13.317L7.94252 13.5371L8.32325 13.7572V14.6369L7.94252 14.8569L7.56177 15.077L7.18104 14.8569L6.80029 14.6369V13.7572L7.18104 13.5371L7.56177 13.317Z" fill="white"/>
<path fill-rule="evenodd" clip-rule="evenodd" d="M7.5613 14.5203C7.49722 14.5203 7.43458 14.5013 7.3813 14.4657C7.32801 14.4301 7.28649 14.3795 7.26196 14.3203C7.23744 14.2611 7.23103 14.1959 7.24353 14.1331C7.25603 14.0702 7.28689 14.0125 7.3322 13.9672C7.37751 13.9219 7.43524 13.891 7.49809 13.8785C7.56094 13.866 7.62609 13.8725 7.68529 13.897C7.74449 13.9215 7.79509 13.963 7.83069 14.0163C7.86629 14.0696 7.88531 14.1322 7.88531 14.1963C7.88517 14.2822 7.85098 14.3645 7.79025 14.4253C7.72952 14.486 7.64718 14.5202 7.5613 14.5203Z" fill="#444444"/>
<path d="M40.4299 18.6104C42.8677 18.5704 44.8114 16.5617 44.7714 14.124C44.7314 11.6862 42.7228 9.74244 40.2851 9.78244C37.8473 9.82243 35.9035 11.8311 35.9435 14.2688C35.9835 16.7066 37.9921 18.6504 40.4299 18.6104Z" fill="#444444"/>
<path fill-rule="evenodd" clip-rule="evenodd" d="M40.3573 17.3816C39.7273 17.3816 39.1114 17.1948 38.5875 16.8448C38.0637 16.4948 37.6555 15.9973 37.4144 15.4152C37.1733 14.8332 37.1102 14.1927 37.2331 13.5748C37.356 12.9569 37.6594 12.3893 38.1048 11.9438C38.5503 11.4984 39.1179 11.195 39.7358 11.0721C40.3537 10.9492 40.9942 11.0123 41.5762 11.2533C42.1583 11.4944 42.6558 11.9027 43.0058 12.4265C43.3558 12.9504 43.5426 13.5662 43.5426 14.1963C43.5409 15.0405 43.2048 15.8498 42.6078 16.4468C42.0108 17.0438 41.2016 17.3799 40.3573 17.3816Z" fill="white"/>
<path fill-rule="evenodd" clip-rule="evenodd" d="M40.3571 17.0972C39.7835 17.0971 39.2227 16.927 38.7458 16.6082C38.2688 16.2894 37.8971 15.8363 37.6777 15.3063C37.4582 14.7763 37.4009 14.1931 37.5128 13.6304C37.6248 13.0678 37.9011 12.551 38.3068 12.1454C38.7125 11.7398 39.2293 11.4636 39.792 11.3517C40.3546 11.2398 40.9378 11.2973 41.4678 11.5169C41.9978 11.7364 42.4508 12.1082 42.7695 12.5852C43.0882 13.0622 43.2582 13.623 43.2582 14.1966C43.2567 14.9656 42.9506 15.7025 42.4068 16.2462C41.863 16.7898 41.126 17.0958 40.3571 17.0972Z" fill="#444444"/>
<path fill-rule="evenodd" clip-rule="evenodd" d="M39.8667 11.1763C40.1015 12.1657 40.1959 13.1832 40.1472 14.1989H40.5714C40.5226 13.1832 40.6169 12.1657 40.8514 11.1763H39.8667Z" fill="white"/>
<path fill-rule="evenodd" clip-rule="evenodd" d="M37.8726 12.4091C38.7371 12.9424 39.5225 13.5945 40.2058 14.3462L40.3558 14.1962L40.5064 14.0461C39.7547 13.3629 39.1026 12.5775 38.5693 11.7129L38.2209 12.0613L37.8726 12.4091Z" fill="white"/>
<path fill-rule="evenodd" clip-rule="evenodd" d="M37.3374 14.6894C38.3268 14.4548 39.3443 14.3606 40.36 14.4094V14.1973V13.9852C39.3443 14.0339 38.3268 13.9397 37.3374 13.7052V14.1978V14.6894Z" fill="white"/>
<path fill-rule="evenodd" clip-rule="evenodd" d="M38.5708 16.6806C39.104 15.816 39.7561 15.0306 40.5079 14.3474L40.3573 14.1973L40.2072 14.0472C39.524 14.799 38.7386 15.4511 37.874 15.9844L38.2224 16.3327L38.5708 16.6806Z" fill="white"/>
<path fill-rule="evenodd" clip-rule="evenodd" d="M40.8504 17.2172C40.6158 16.2277 40.5216 15.2103 40.5704 14.1946H40.1462C40.195 15.2103 40.1008 16.2277 39.8662 17.2172H40.852H40.8504Z" fill="white"/>
<path fill-rule="evenodd" clip-rule="evenodd" d="M42.8414 15.9832C41.9768 15.4499 41.1914 14.7979 40.5082 14.0461L40.3576 14.1962L40.2075 14.3468C40.9593 15.03 41.6113 15.8154 42.1446 16.68L42.493 16.3316L42.8414 15.9832Z" fill="white"/>
<path fill-rule="evenodd" clip-rule="evenodd" d="M43.3771 13.7035C42.3876 13.938 41.3702 14.0322 40.3545 13.9835V14.1956V14.4077C41.3702 14.3589 42.3877 14.4531 43.3771 14.6877V14.1951V13.7035Z" fill="white"/>
<path fill-rule="evenodd" clip-rule="evenodd" d="M42.1441 11.7123C41.6109 12.5769 40.9588 13.3623 40.207 14.0455L40.3571 14.1956L40.5077 14.3462C41.1909 13.5944 41.9763 12.9423 42.8409 12.4091L42.4925 12.0607L42.1441 11.7123Z" fill="white"/>
<path fill-rule="evenodd" clip-rule="evenodd" d="M40.3577 13.317L40.7384 13.5371L41.1192 13.7572V14.6369L40.7384 14.8569L40.3577 15.077L39.9769 14.8569L39.5962 14.6369V13.7572L39.9769 13.5371L40.3577 13.317Z" fill="white"/>
<path fill-rule="evenodd" clip-rule="evenodd" d="M40.3572 14.5201C40.2931 14.5201 40.2305 14.5011 40.1772 14.4655C40.1239 14.4299 40.0824 14.3793 40.0579 14.3201C40.0334 14.2608 40.0269 14.1957 40.0394 14.1328C40.0519 14.07 40.0828 14.0123 40.1281 13.967C40.1734 13.9217 40.2311 13.8908 40.294 13.8783C40.3568 13.8658 40.422 13.8722 40.4812 13.8967C40.5404 13.9213 40.591 13.9628 40.6266 14.0161C40.6622 14.0694 40.6812 14.132 40.6812 14.1961C40.6811 14.2819 40.6469 14.3643 40.5861 14.425C40.5254 14.4857 40.4431 14.5199 40.3572 14.5201Z" fill="#444444"/>
</svg>
