<svg width="19" height="19" viewBox="0 0 19 19" fill="none" xmlns="http://www.w3.org/2000/svg">
<path d="M9.50195 18.041C7.04195 18.041 6.75195 18.028 5.79195 17.986C5.04332 17.9614 4.30439 17.8092 3.60695 17.536C2.40026 17.0664 1.44609 16.1119 0.976953 14.905C0.714259 14.205 0.572571 13.4655 0.557953 12.718C0.501953 11.76 0.501953 11.446 0.501953 9.005C0.501953 6.538 0.514953 6.25 0.557953 5.295C0.572891 4.54853 0.714574 3.81001 0.976953 3.111C1.44558 1.90253 2.4013 0.947177 3.60995 0.479005C4.3086 0.215207 5.0473 0.0731492 5.79395 0.0590049C6.74895 0.00500488 7.06295 0.00500488 9.50195 0.00500488C11.982 0.00500488 12.267 0.0180049 13.212 0.0590049C13.9605 0.0732715 14.7012 0.215315 15.402 0.479005C16.6103 0.947708 17.5658 1.90288 18.035 3.111C18.3021 3.8202 18.4445 4.57026 18.456 5.328C18.512 6.28601 18.512 6.59901 18.512 9.03901C18.512 11.479 18.498 11.799 18.456 12.746C18.4411 13.4942 18.299 14.2344 18.036 14.935C17.5656 16.1427 16.61 17.0976 15.402 17.567C14.7022 17.8292 13.9631 17.9709 13.216 17.986C12.261 18.041 11.948 18.041 9.50195 18.041ZM9.46795 1.588C7.02195 1.588 6.76795 1.6 5.81295 1.643C5.24294 1.65056 4.67843 1.75575 4.14395 1.954C3.35471 2.25601 2.73018 2.878 2.42495 3.666C2.22517 4.2063 2.11996 4.77698 2.11395 5.353C2.06095 6.322 2.06095 6.576 2.06095 9.005C2.06095 11.405 2.06995 11.696 2.11395 12.659C2.12291 13.2292 2.22805 13.7938 2.42495 14.329C2.73063 15.1165 3.35505 15.738 4.14395 16.04C4.67807 16.2396 5.2428 16.3448 5.81295 16.351C6.78095 16.407 7.03595 16.407 9.46795 16.407C11.921 16.407 12.175 16.395 13.122 16.351C13.6924 16.3441 14.2573 16.2389 14.792 16.04C15.5764 15.7354 16.1969 15.1153 16.502 14.331C16.7014 13.7903 16.8065 13.2193 16.813 12.643H16.824C16.867 11.687 16.867 11.432 16.867 8.98901C16.867 6.54601 16.856 6.289 16.813 5.334C16.804 4.76446 16.6988 4.20052 16.502 3.666C16.1976 2.88058 15.577 2.2593 14.792 1.954C14.2574 1.75475 13.6924 1.64953 13.122 1.643C12.155 1.588 11.902 1.588 9.46795 1.588ZM9.50195 13.624C7.63194 13.6252 5.94537 12.4997 5.22882 10.7725C4.51226 9.04518 4.90686 7.05634 6.22858 5.73347C7.55031 4.4106 9.53882 4.01428 11.2667 4.72934C12.9946 5.4444 14.1215 7.12999 14.122 9C14.1192 11.5511 12.053 13.619 9.50195 13.624ZM9.50195 5.998C7.8451 5.998 6.50195 7.34115 6.50195 8.998C6.50195 10.6549 7.8451 11.998 9.50195 11.998C11.1588 11.998 12.502 10.6549 12.502 8.998C12.4981 7.34275 11.1572 6.00185 9.50195 5.998ZM14.302 5.28501C13.7074 5.2828 13.2269 4.79959 13.228 4.20501C13.2291 3.61043 13.7114 3.12901 14.306 3.12901C14.9005 3.12901 15.3828 3.61042 15.384 4.205C15.3842 4.49187 15.2702 4.76703 15.0672 4.96968C14.8642 5.17234 14.5888 5.2858 14.302 5.28501Z" fill="#A02167"/>
</svg>
