<svg width="23" height="22" viewBox="0 0 23 22" fill="none" xmlns="http://www.w3.org/2000/svg">
<path fill-rule="evenodd" clip-rule="evenodd" d="M11.3071 2.53136C12.7311 2.47798 14.1571 2.51766 15.5759 2.65017C16.2641 2.64159 16.9478 2.76225 17.5914 3.0059C18.4795 3.41973 19.1932 4.13342 19.607 5.02146C19.8509 5.66509 19.9718 6.34879 19.9634 7.03703C19.9634 8.10421 20.0822 8.45994 20.0822 11.3058C20.1356 12.7298 20.0959 14.1557 19.9634 15.5745C19.972 16.2627 19.8514 16.9464 19.6077 17.5901C19.1939 18.4781 18.4802 19.1918 17.5921 19.6056C16.9485 19.8493 16.2648 19.97 15.5766 19.9614C14.5094 19.9614 14.1537 20.0802 11.3078 20.0802C9.88385 20.1336 8.45789 20.0939 7.03908 19.9614C6.35089 19.97 5.6672 19.8493 5.02352 19.6056C4.13548 19.1918 3.42179 18.4781 3.00796 17.5901C2.76382 16.9465 2.64267 16.2628 2.65081 15.5745C2.65081 14.5073 2.53199 14.1516 2.53199 11.3058C2.47861 9.88179 2.5183 8.45584 2.65081 7.03703C2.64222 6.34883 2.76288 5.66514 3.00653 5.02146C3.21358 4.58164 3.49439 4.18052 3.83681 3.83546C4.11493 3.42065 4.53786 3.12457 5.02281 3.00519C5.66648 2.76154 6.35018 2.64088 7.03837 2.64946C8.45718 2.51695 9.88313 2.47726 11.3071 2.53065V2.53136ZM11.3071 0.633902C9.84355 0.581767 8.37816 0.621449 6.91956 0.752715C6.02856 0.75061 5.14467 0.911187 4.31135 1.22655C3.59162 1.46125 2.94021 1.86841 2.41389 2.41255C1.86976 2.93887 1.4626 3.59028 1.22789 4.31001C0.8558 5.12657 0.692955 6.02295 0.754058 6.91821C0.622792 8.37681 0.58311 9.84221 0.635244 11.3058C0.58311 12.7693 0.622792 14.2347 0.754058 15.6933C0.752094 16.5846 0.912913 17.4688 1.2286 18.3023C1.46321 19.0217 1.87011 19.6728 2.41389 20.199C2.94021 20.7431 3.59162 21.1503 4.31135 21.385C5.14485 21.7007 6.02899 21.8615 6.92027 21.8595C8.37865 21.9905 9.8438 22.03 11.3071 21.9777C12.7707 22.0298 14.2361 21.9901 15.6947 21.8588C16.586 21.8608 17.4701 21.7 18.3036 21.3843C19.0178 21.1382 19.6665 20.7328 20.2007 20.1986C20.7348 19.6645 21.1403 19.0157 21.3863 18.3015C21.702 17.468 21.8629 16.5839 21.8609 15.6926C21.8602 14.5073 21.979 14.1516 21.979 11.3058C22.0311 9.84221 21.9914 8.37681 21.8602 6.91821C21.8621 6.02694 21.7013 5.14279 21.3856 4.3093C21.151 3.58989 20.7441 2.93875 20.2003 2.41255C19.674 1.86841 19.0226 1.46125 18.3029 1.22655C17.4696 0.911187 16.5857 0.75061 15.6947 0.752715C14.2361 0.621449 12.7707 0.581767 11.3071 0.633902ZM11.3071 5.85103C10.5875 5.8391 9.87284 5.97204 9.20564 6.24194C8.53845 6.51184 7.93237 6.91319 7.42345 7.42211C6.91453 7.93103 6.51319 8.53711 6.24328 9.2043C5.97338 9.87149 5.84044 10.5862 5.85237 11.3058C5.85237 12.3846 6.17228 13.4392 6.77166 14.3363C7.37104 15.2333 8.22295 15.9325 9.21968 16.3453C10.2164 16.7582 11.3132 16.8662 12.3713 16.6557C13.4294 16.4452 14.4014 15.9257 15.1642 15.1629C15.9271 14.4 16.4466 13.4281 16.6571 12.3699C16.8675 11.3118 16.7595 10.2151 16.3467 9.21833C15.9338 8.22161 15.2346 7.36969 14.3376 6.77032C13.4406 6.17094 12.386 5.85103 11.3071 5.85103ZM11.3071 14.8631C10.8376 14.8717 10.3712 14.7855 9.93571 14.6098C9.50024 14.4341 9.10466 14.1723 8.7726 13.8403C8.44055 13.5082 8.17884 13.1127 8.00311 12.6772C7.82738 12.2417 7.74124 11.7753 7.74983 11.3058C7.74124 10.8363 7.82738 10.3698 8.00311 9.93436C8.17884 9.49889 8.44055 9.10331 8.7726 8.77126C9.10466 8.43921 9.50024 8.1775 9.93571 8.00177C10.3712 7.82604 10.8376 7.7399 11.3071 7.74849C11.7766 7.7399 12.2431 7.82604 12.6785 8.00177C13.114 8.1775 13.5096 8.43921 13.8416 8.77126C14.1737 9.10331 14.4354 9.49889 14.6111 9.93436C14.7869 10.3698 14.873 10.8363 14.8644 11.3058C14.873 11.7753 14.7869 12.2417 14.6111 12.6772C14.4354 13.1127 14.1737 13.5082 13.8416 13.8403C13.5096 14.1723 13.114 14.4341 12.6785 14.6098C12.2431 14.7855 11.7766 14.8717 11.3071 14.8631ZM16.9988 4.31001C16.7409 4.31001 16.4887 4.38649 16.2743 4.52979C16.0598 4.67308 15.8927 4.87676 15.794 5.11505C15.6952 5.35334 15.6694 5.61556 15.7197 5.86853C15.7701 6.1215 15.8943 6.35387 16.0766 6.53625C16.259 6.71863 16.4914 6.84284 16.7444 6.89315C16.9973 6.94347 17.2596 6.91765 17.4978 6.81894C17.7361 6.72024 17.9398 6.55309 18.0831 6.33863C18.2264 6.12417 18.3029 5.87204 18.3029 5.61411C18.2997 5.26922 18.1613 4.93934 17.9174 4.69546C17.6736 4.45157 17.3437 4.31316 16.9988 4.31001Z" fill="#A02167"/>
</svg>
