<svg width="80" height="80" viewBox="0 0 80 80" fill="none" xmlns="http://www.w3.org/2000/svg">
<path d="M40.046 60.7764C46.5287 60.7764 51.8029 55.5022 51.8029 49.019C51.8029 42.5362 46.5287 37.2621 40.046 37.2621C33.5627 37.2621 28.2886 42.5362 28.2886 49.019C28.2886 55.5022 33.5627 60.7764 40.046 60.7764ZM33.1199 47.1688C33.8929 46.3952 35.1464 46.3952 35.9199 47.1688L38.5041 49.7529L44.172 44.0849C44.9456 43.3119 46.199 43.3119 46.9721 44.0849C47.7451 44.858 47.7451 46.1114 46.9721 46.885L39.9041 53.953C39.5327 54.3244 39.0293 54.5325 38.5041 54.5325C37.9788 54.5325 37.4754 54.3244 37.104 53.953L33.1199 49.9683C32.3468 49.1953 32.3468 47.9418 33.1199 47.1688Z" fill="#A02167"/>
<path d="M7.29053 67.7823C7.29053 71.3127 10.1631 74.1852 13.6935 74.1852H66.3973C69.9276 74.1852 72.8002 71.3127 72.8002 67.7823V27.8124H7.29053V67.7823ZM40.0459 33.3025C48.7121 33.3025 55.7624 40.3527 55.7624 49.019C55.7624 57.6852 48.7121 64.736 40.0459 64.736C31.3796 64.736 24.3288 57.6852 24.3288 49.019C24.3288 40.3527 31.3796 33.3025 40.0459 33.3025Z" fill="#A02167"/>
<path d="M72.7996 23.8527V17.7534C72.7996 14.2225 69.9276 11.3505 66.3967 11.3505H62.7871V14.9064C62.7871 16.0007 61.8998 16.8859 60.807 16.8859C59.7131 16.8859 58.8274 16.0007 58.8274 14.9064V11.3505H54.9361V14.9064C54.9361 16.0007 54.0509 16.8859 52.9566 16.8859C51.8638 16.8859 50.9765 16.0007 50.9765 14.9064V11.3505H29.1152V14.9064C29.1152 16.0007 28.2285 16.8859 27.1357 16.8859C26.0413 16.8859 25.1556 16.0007 25.1556 14.9064V11.3505H21.2648V14.9064C21.2648 16.0007 20.3775 16.8859 19.2847 16.8859C18.1919 16.8859 17.3051 16.0007 17.3051 14.9064V11.3505H13.6939C10.1631 11.3505 7.29102 14.2225 7.29102 17.7534V23.8527H72.7996Z" fill="#A02167"/>
<path d="M62.7873 7.7945C62.7873 6.7017 61.9 5.81494 60.8072 5.81494C59.7134 5.81494 58.8276 6.7017 58.8276 7.7945V11.3504H62.7873V7.7945Z" fill="#A02167"/>
<path d="M54.9362 7.7945C54.9362 6.7017 54.051 5.81494 52.9566 5.81494C51.8638 5.81494 50.9766 6.7017 50.9766 7.7945V11.3504H54.9362V7.7945Z" fill="#A02167"/>
<path d="M29.1154 7.7945C29.1154 6.7017 28.2286 5.81494 27.1358 5.81494C26.0415 5.81494 25.1558 6.7017 25.1558 7.7945V11.3504H29.1154V7.7945Z" fill="#A02167"/>
<path d="M21.2648 7.7945C21.2648 6.7017 20.3775 5.81494 19.2847 5.81494C18.1919 5.81494 17.3052 6.7017 17.3052 7.7945V11.3504H21.2648V7.7945Z" fill="#A02167"/>
</svg>
