<svg width="24" height="24" viewBox="0 0 24 24" fill="none" xmlns="http://www.w3.org/2000/svg">
<path d="M21.7551 20.5796L16.9469 15.7714C18.1388 14.3184 18.8571 12.4571 18.8571 10.4286C18.8571 5.77551 15.0816 2 10.4286 2C5.77143 2 2 5.77551 2 10.4286C2 15.0816 5.77143 18.8571 10.4286 18.8571C12.4571 18.8571 14.3143 18.1429 15.7673 16.951L20.5755 21.7551C20.902 22.0816 21.4286 22.0816 21.7551 21.7551C22.0816 21.4327 22.0816 20.902 21.7551 20.5796ZM10.4286 17.1796C6.70204 17.1796 3.67347 14.151 3.67347 10.4286C3.67347 6.70612 6.70204 3.67347 10.4286 3.67347C14.151 3.67347 17.1837 6.70612 17.1837 10.4286C17.1837 14.151 14.151 17.1796 10.4286 17.1796Z" fill="#979797"/>
</svg>
