<svg width="220" height="82" viewBox="0 0 220 82" fill="none" xmlns="http://www.w3.org/2000/svg">
<path fill-rule="evenodd" clip-rule="evenodd" d="M114.446 2.29545C114.446 2.29545 130.062 3.59253 131.824 3.84426C133.586 4.096 133.682 4.12954 133.682 4.12954C137.722 5.16837 141.602 6.72105 145.222 8.74714C150.83 11.9742 171.041 24.1822 171.041 24.1822C171.79 24.1343 172.541 24.1343 173.29 24.1822C173.55 24.2757 174.691 24.9422 174.887 24.9422C175.082 24.9422 194.12 28.2004 199.24 29.591C203.571 30.7042 207.76 32.2853 211.727 34.3044C214.105 36.6539 215.979 39.4386 217.238 42.4967C217.761 43.5945 218.175 44.7386 218.474 45.9131C219.027 46.8147 219.486 47.7681 219.843 48.7589C220.068 50.6092 220.051 52.4797 219.793 54.3259C219.088 55.2193 218.562 56.2335 218.244 57.3156C217.917 58.9603 218.081 60.0991 218.471 60.4155C218.732 60.5807 218.925 60.8299 219.015 61.1193C219.106 61.4088 219.088 61.7199 218.965 61.9979C218.087 63.0336 217.028 63.9116 215.837 64.592C214.688 64.8283 213.521 64.9663 212.347 65.0043C212.347 65.0043 212.543 66.0472 212.085 66.3014C209.699 66.7945 207.282 67.1325 204.85 67.3131C204 67.4239 203.135 67.3702 202.307 67.1549C202.307 67.1549 202.307 65.2896 202.144 65.3208C201.981 65.352 201.59 65.4479 201.403 65.2896C200.787 64.9849 200.156 64.7105 199.512 64.4673C199.512 64.4673 164.99 65.0379 164.859 65.5102C164.728 65.9825 164.401 66.649 164.117 66.5867C163.833 66.5244 63.2506 65.5126 63.2506 65.5126C63.2506 65.5126 62.697 64.7214 62.1435 64.5944C61.6587 64.5019 61.1684 64.4387 60.6756 64.405L25.9232 63.2661C25.9232 63.2661 25.8911 64.2467 25.6316 64.2467C25.3721 64.2467 5.28876 62.2208 2.87688 60.9574C0.464998 59.6939 0.203047 56.4333 0.0720735 54.8534C-0.0804038 53.9815 0.0100378 53.0859 0.334027 52.2593C0.339596 50.3551 0.470002 48.4533 0.724468 46.5652C1.7132 45.7573 2.51347 44.7545 3.07211 43.6235C3.46016 42.5324 3.67999 41.3916 3.72451 40.2382C4.35886 36.0989 5.22924 31.9969 6.33161 27.9511C8.56199 22.6718 11.1936 17.5607 14.2048 12.6599C17.0417 8.99169 19.2584 6.52465 19.2584 6.52465C18.8754 6.39907 18.5253 6.19366 18.2329 5.92286C18.0291 5.66834 17.8868 5.37279 17.8162 5.0579C17.7457 4.74301 17.7487 4.4168 17.8251 4.1032C17.9709 4.00969 27.8013 2.39618 30.8335 2.01497C33.8656 1.63377 34.2931 1.76321 34.2931 1.60257C34.2931 1.44194 34.7182 1.00082 34.7182 1.00082C36.131 1.05685 37.5459 1.03604 38.9563 0.938486C39.6654 0.673977 40.4207 0.545325 41.1803 0.559671C42.3542 0.528503 47.0173 0.528519 52.1673 0.463787C57.3172 0.399055 107.262 1.12788 107.262 1.12788C107.262 1.12788 107.458 0.876149 108.174 0.876149C109.649 0.890786 111.117 1.08246 112.543 1.44677C113.223 1.62224 113.867 1.90926 114.446 2.29545Z" fill="#444444"/>
<path fill-rule="evenodd" clip-rule="evenodd" d="M117.088 28.548L116.28 5.77176L122.458 6.02349C127.66 6.2882 132.787 7.34481 137.651 9.15461C144.007 11.9069 167.218 27.3085 168.751 28.3202C170.283 29.3319 170.999 30.2741 170.95 30.5498C170.901 30.8256 170.503 30.7201 170.584 30.8424C170.666 30.9646 146.29 29.8402 117.088 28.548Z" fill="white"/>
<path fill-rule="evenodd" clip-rule="evenodd" d="M109.392 5.49374L109.452 28.2148C95.1188 27.5939 80.0643 26.9345 66.411 26.3328L68.3237 4.74094C79.5405 4.74094 91.0339 4.74094 91.0339 4.74094L109.392 5.49374Z" fill="white"/>
<path fill-rule="evenodd" clip-rule="evenodd" d="M62.2024 4.74567C61.4462 8.90052 59.1035 21.8206 58.4413 25.9803C35.7261 24.9685 18.6007 24.1773 18.4747 24.0814C18.0991 23.7961 17.9805 23.6235 18.2943 22.595C20.0769 18.4794 22.3644 14.5874 25.1074 11.0031C27.0967 8.68913 29.7531 7.00438 32.736 6.16497C37.7371 5.12517 42.8482 4.668 47.961 4.80317C49.9774 4.77201 55.6291 4.75526 62.2024 4.74567Z" fill="white"/>
<path fill-rule="evenodd" clip-rule="evenodd" d="M203.567 36.6229C204.58 39.0923 205.746 41.5006 207.056 43.8345C209.108 44.5829 211.291 44.9308 213.482 44.8583C213.677 44.8271 215.458 43.7339 215.439 42.7293C214.968 40.546 213.999 38.4929 212.602 36.7212C210.752 36.0222 208.76 35.7458 206.782 35.9132C205.66 35.8194 204.537 36.0675 203.567 36.6229Z" fill="white"/>
<path fill-rule="evenodd" clip-rule="evenodd" d="M6.93698 26.618C9.26237 26.642 13.1545 26.7379 13.4461 26.817C13.8538 26.9273 14.0664 26.9752 14.1875 27.4499C14.3085 27.9246 12.5416 35.6014 12.4576 38.2195C12.3736 40.8375 12.6528 42.71 12.2624 42.9785C10.3628 43.2279 8.4318 43.1262 6.57124 42.6788C5.54339 42.0301 4.58184 41.2875 3.69971 40.4611C3.69971 40.3197 3.69971 40.2382 3.69971 40.2382C4.33406 36.0989 5.20443 31.9969 6.30681 27.951C6.4452 27.6921 6.65774 27.2294 6.93698 26.618Z" fill="white"/>
<path d="M199.532 64.9826C201.403 56.1329 195.525 47.4873 186.403 45.6722C177.281 43.8571 168.37 49.5598 166.499 58.4095C164.628 67.2593 170.506 75.9049 179.628 77.72C188.75 79.5351 197.661 73.8324 199.532 64.9826Z" fill="#444444"/>
<path fill-rule="evenodd" clip-rule="evenodd" d="M183.012 73.7551C180.555 73.7551 178.154 73.0484 176.112 71.7243C174.069 70.4003 172.477 68.5184 171.537 66.3166C170.597 64.1148 170.351 61.6919 170.83 59.3545C171.31 57.0171 172.493 54.87 174.23 53.1848C175.967 51.4996 178.18 50.3519 180.589 49.887C182.998 49.422 185.495 49.6607 187.765 50.5727C190.034 51.4847 191.974 53.0292 193.339 55.0108C194.704 56.9924 195.432 59.3221 195.432 61.7053C195.426 64.8992 194.115 67.9604 191.787 70.2188C189.459 72.4772 186.304 73.7488 183.012 73.7551Z" fill="white"/>
<path d="M183.012 72.7218C189.283 72.7218 194.367 67.7895 194.367 61.7053C194.367 55.621 189.283 50.6888 183.012 50.6888C176.741 50.6888 171.657 55.621 171.657 61.7053C171.657 67.7895 176.741 72.7218 183.012 72.7218Z" fill="#444444"/>
<path fill-rule="evenodd" clip-rule="evenodd" d="M185.466 50.286L183.998 61.7053H183.01L184.176 50.1014L185.466 50.286Z" fill="white"/>
<path fill-rule="evenodd" clip-rule="evenodd" d="M180.558 50.286L182.026 61.7053H183.015L181.848 50.1014L180.558 50.286Z" fill="white"/>
<path fill-rule="evenodd" clip-rule="evenodd" d="M193.07 55.3158L183.709 62.3837L183.012 61.7052L192.294 54.3017L193.07 55.3158Z" fill="white"/>
<path fill-rule="evenodd" clip-rule="evenodd" d="M189.603 51.9474L182.318 61.0291L183.014 61.7076L190.645 52.7026L189.603 51.9474Z" fill="white"/>
<path fill-rule="evenodd" clip-rule="evenodd" d="M194.782 64.0858L183.012 62.6617V61.7027L194.973 62.8343L194.782 64.0858Z" fill="white"/>
<path fill-rule="evenodd" clip-rule="evenodd" d="M194.782 59.3244L183.012 60.7485V61.7075L194.973 60.5759L194.782 59.3244Z" fill="white"/>
<path fill-rule="evenodd" clip-rule="evenodd" d="M189.603 71.4629L182.318 62.3812L183.014 61.7027L190.645 70.7076L189.603 71.4629Z" fill="white"/>
<path fill-rule="evenodd" clip-rule="evenodd" d="M193.07 68.0968L183.709 61.0289L183.012 61.7075L192.294 69.1109L193.07 68.0968Z" fill="white"/>
<path fill-rule="evenodd" clip-rule="evenodd" d="M180.558 73.127L182.026 61.7077H183.014L181.848 73.3116L180.558 73.127Z" fill="white"/>
<path fill-rule="evenodd" clip-rule="evenodd" d="M185.466 73.127L183.998 61.7077H183.01L184.176 73.3116L185.466 73.127Z" fill="white"/>
<path fill-rule="evenodd" clip-rule="evenodd" d="M172.954 68.0972L182.315 61.0293L183.012 61.7054L173.73 69.1089L172.954 68.0972Z" fill="white"/>
<path fill-rule="evenodd" clip-rule="evenodd" d="M176.427 71.4656L183.712 62.3839L183.013 61.7078L175.382 70.7128L176.427 71.4656Z" fill="white"/>
<path fill-rule="evenodd" clip-rule="evenodd" d="M171.239 59.3244L183.01 60.7485V61.7075L171.049 60.5759L171.239 59.3244Z" fill="white"/>
<path fill-rule="evenodd" clip-rule="evenodd" d="M171.239 64.0858L183.01 62.6617V61.7027L171.049 62.8343L171.239 64.0858Z" fill="white"/>
<path fill-rule="evenodd" clip-rule="evenodd" d="M176.427 51.9474L183.712 61.0291L183.013 61.7052L175.382 52.7002L176.427 51.9474Z" fill="white"/>
<path fill-rule="evenodd" clip-rule="evenodd" d="M172.955 55.3133L182.315 62.3811L183.012 61.7027L173.731 54.2992L172.955 55.3133Z" fill="white"/>
<path fill-rule="evenodd" clip-rule="evenodd" d="M183.012 65.4694C182.245 65.4694 181.495 65.2487 180.857 64.8351C180.219 64.4215 179.721 63.8336 179.428 63.1458C179.134 62.458 179.057 61.7012 179.207 60.971C179.357 60.2409 179.726 59.5702 180.269 59.0438C180.811 58.5174 181.503 58.1588 182.255 58.0136C183.008 57.8684 183.788 57.9429 184.497 58.2278C185.206 58.5127 185.812 58.9952 186.238 59.6142C186.664 60.2332 186.892 60.9609 186.892 61.7054C186.89 62.7031 186.481 63.6593 185.753 64.3648C185.026 65.0703 184.041 65.4675 183.012 65.4694Z" fill="white"/>
<path d="M183.012 63.1604C183.841 63.1604 184.512 62.5089 184.512 61.7052C184.512 60.9014 183.841 60.2499 183.012 60.2499C182.184 60.2499 181.512 60.9014 181.512 61.7052C181.512 62.5089 182.184 63.1604 183.012 63.1604Z" fill="#444444"/>
<path d="M60.4753 65.4406C62.6033 56.6494 56.9826 47.8491 47.9212 45.7845C38.8598 43.72 29.789 49.173 27.661 57.9642C25.533 66.7554 31.1536 75.5557 40.215 77.6203C49.2764 79.6848 58.3473 74.2318 60.4753 65.4406Z" fill="#444444"/>
<path d="M45.0581 73.7155C51.8958 73.1851 56.9956 67.3774 56.449 60.7437C55.9023 54.1099 49.9161 49.1621 43.0785 49.6925C36.2408 50.2229 31.1409 56.0305 31.6876 62.6643C32.2342 69.298 38.2204 74.2458 45.0581 73.7155Z" fill="white"/>
<path d="M44.8712 72.6904C51.1268 72.2601 55.8383 66.9913 55.3948 60.9223C54.9512 54.8533 49.5205 50.2823 43.2649 50.7126C37.0094 51.143 32.2978 56.4117 32.7414 62.4807C33.185 68.5497 38.6157 73.1208 44.8712 72.6904Z" fill="#444444"/>
<path fill-rule="evenodd" clip-rule="evenodd" d="M46.523 50.2835L45.0551 61.7028H44.0667L45.2331 50.0989L46.523 50.2835Z" fill="white"/>
<path fill-rule="evenodd" clip-rule="evenodd" d="M41.6152 50.2835L43.0831 61.7028H44.0716L42.9052 50.0989L41.6152 50.2835Z" fill="white"/>
<path fill-rule="evenodd" clip-rule="evenodd" d="M54.1269 55.3136L44.766 62.3814L44.0667 61.7029L53.3484 54.2994L54.1269 55.3136Z" fill="white"/>
<path fill-rule="evenodd" clip-rule="evenodd" d="M50.6598 51.9451L43.3748 61.0268L44.0741 61.7053L51.7051 52.7003L50.6598 51.9451Z" fill="white"/>
<path fill-rule="evenodd" clip-rule="evenodd" d="M55.8395 64.0835L44.0692 62.6594V61.7004L56.0298 62.832L55.8395 64.0835Z" fill="white"/>
<path fill-rule="evenodd" clip-rule="evenodd" d="M55.8395 59.3222L44.0692 60.7463V61.7053L56.0298 60.5737L55.8395 59.3222Z" fill="white"/>
<path fill-rule="evenodd" clip-rule="evenodd" d="M50.6571 71.4607L43.3721 62.379L44.069 61.7005L51.7 70.7054L50.6571 71.4607Z" fill="white"/>
<path fill-rule="evenodd" clip-rule="evenodd" d="M54.1288 68.0946L44.7679 61.0267L44.071 61.7053L53.3528 69.1087L54.1288 68.0946Z" fill="white"/>
<path fill-rule="evenodd" clip-rule="evenodd" d="M41.6152 73.1244L43.0831 61.7052H44.0716L42.9052 73.309L41.6152 73.1244Z" fill="white"/>
<path fill-rule="evenodd" clip-rule="evenodd" d="M46.523 73.1244L45.0551 61.7052H44.0667L45.2331 73.309L46.523 73.1244Z" fill="white"/>
<path fill-rule="evenodd" clip-rule="evenodd" d="M34.0117 68.0946L43.3726 61.0267L44.0695 61.7029L34.7877 69.1064L34.0117 68.0946Z" fill="white"/>
<path fill-rule="evenodd" clip-rule="evenodd" d="M37.4814 71.463L44.7664 62.3813L44.0695 61.7052L36.4385 70.7102L37.4814 71.463Z" fill="white"/>
<path fill-rule="evenodd" clip-rule="evenodd" d="M32.2992 59.3222L44.0694 60.7463V61.7053L32.1089 60.5737L32.2992 59.3222Z" fill="white"/>
<path fill-rule="evenodd" clip-rule="evenodd" d="M32.2992 64.0835L44.0694 62.6594V61.7004L32.1089 62.832L32.2992 64.0835Z" fill="white"/>
<path fill-rule="evenodd" clip-rule="evenodd" d="M37.4842 51.9451L44.7692 61.0268L44.0699 61.7029L36.4388 52.6979L37.4842 51.9451Z" fill="white"/>
<path fill-rule="evenodd" clip-rule="evenodd" d="M34.0117 55.3111L43.3726 62.3789L44.0719 61.7004L34.7901 54.2969L34.0117 55.3111Z" fill="white"/>
<path fill-rule="evenodd" clip-rule="evenodd" d="M44.0693 65.4669C43.302 65.4669 42.5519 65.2461 41.9139 64.8325C41.2758 64.4189 40.7786 63.831 40.4849 63.1432C40.1913 62.4554 40.1144 61.6986 40.2641 60.9684C40.4138 60.2383 40.7833 59.5676 41.3259 59.0412C41.8685 58.5148 42.5598 58.1563 43.3124 58.0111C44.065 57.8659 44.8451 57.9404 45.5541 58.2252C46.263 58.5101 46.869 58.9926 47.2953 59.6116C47.7216 60.2306 47.9491 60.9584 47.9491 61.7028C47.9472 62.7005 47.5377 63.6568 46.8106 64.3623C46.0834 65.0678 45.0977 65.465 44.0693 65.4669Z" fill="white"/>
<path d="M44.0692 63.1582C44.8977 63.1582 45.5692 62.5066 45.5692 61.7029C45.5692 60.8992 44.8977 60.2476 44.0692 60.2476C43.2408 60.2476 42.5692 60.8992 42.5692 61.7029C42.5692 62.5066 43.2408 63.1582 44.0692 63.1582Z" fill="#444444"/>
<path fill-rule="evenodd" clip-rule="evenodd" d="M161.923 24.5442C161.653 27.2184 161.697 29.9136 162.054 32.5782C167.09 34.0814 171.896 33.8632 171.896 29.9817C171.896 27.9774 163.02 21.7079 161.923 24.5442Z" fill="#444444"/>
</svg>
