<svg width="72" height="68" viewBox="0 0 72 68" fill="none" xmlns="http://www.w3.org/2000/svg">
<path d="M45.1202 58.8898H11.597C9.82956 58.8898 8.13449 58.1877 6.8847 56.9379C5.63492 55.6881 4.93279 53.9931 4.93279 52.2256C4.93279 50.4581 5.63492 48.7631 6.8847 47.5133C8.13449 46.2635 9.82956 45.5614 11.597 45.5614H24.6544C27.5036 45.5614 30.2362 44.4295 32.2509 42.4148C34.2656 40.4001 35.3974 37.6676 35.3974 34.8183C35.3974 31.9691 34.2656 29.2366 32.2509 27.2219C30.2362 25.2072 27.5036 24.0753 24.6544 24.0753H17.5171C17.7851 25.4222 17.7851 26.8087 17.5171 28.1555H24.6544C26.4219 28.1555 28.117 28.8577 29.3667 30.1074C30.6165 31.3572 31.3186 33.0523 31.3186 34.8198C31.3186 36.5872 30.6165 38.2823 29.3667 39.5321C28.117 40.7819 26.4219 41.484 24.6544 41.484H11.597C10.1862 41.484 8.78925 41.7619 7.48585 42.3017C6.18245 42.8416 4.99814 43.633 4.00056 44.6305C3.00298 45.6281 2.21166 46.8124 1.67177 48.1158C1.13188 49.4192 0.854004 50.8162 0.854004 52.227C0.854004 53.6378 1.13188 55.0348 1.67177 56.3382C2.21166 57.6416 3.00298 58.8259 4.00056 59.8235C4.99814 60.8211 6.18245 61.6124 7.48585 62.1523C8.78925 62.6922 10.1862 62.97 11.597 62.97H45.1202C44.8522 61.6232 44.8522 60.2367 45.1202 58.8898Z" fill="#A02167"/>
<path d="M56.9042 54.5377C55.6399 54.5377 54.404 54.9126 53.3527 55.615C52.3015 56.3175 51.4821 57.3158 50.9983 58.4839C50.5145 59.652 50.3879 60.9373 50.6346 62.1773C50.8812 63.4173 51.49 64.5563 52.384 65.4503C53.278 66.3443 54.4171 66.9531 55.6571 67.1998C56.8971 67.4465 58.1824 67.3199 59.3505 66.836C60.5185 66.3522 61.5169 65.5329 62.2193 64.4816C62.9217 63.4304 63.2966 62.1945 63.2966 60.9302C63.2948 59.2354 62.6206 57.6105 61.4222 56.4121C60.2238 55.2137 58.599 54.5396 56.9042 54.5377Z" fill="#A02167"/>
<path d="M20.3031 0.901001H7.24709C6.70612 0.901001 6.1873 1.1159 5.80477 1.49843C5.42224 1.88096 5.20734 2.39978 5.20734 2.94075V18.6455C3.77043 19.1294 2.55229 20.1082 1.77044 21.4073C0.988596 22.7064 0.69395 24.2411 0.939119 25.7373C1.18429 27.2336 1.95331 28.5939 3.10886 29.5756C4.26441 30.5572 5.73125 31.0961 7.24745 31.0961C8.76365 31.0961 10.2305 30.5572 11.386 29.5756C12.5416 28.5939 13.3106 27.2336 13.5558 25.7373C13.8009 24.2411 13.5063 22.7064 12.7245 21.4073C11.9426 20.1082 10.7245 19.1294 9.28755 18.6455V13.6852H20.3031C20.8439 13.6846 21.3624 13.4693 21.7445 13.0865C22.1266 12.7037 22.3411 12.1849 22.3407 11.644V2.94075C22.3407 2.40015 22.1261 1.88165 21.744 1.49918C21.3619 1.11672 20.8437 0.901567 20.3031 0.901001Z" fill="#A02167"/>
<path d="M56.9033 5.25293C53.8055 5.25289 50.7828 6.20581 48.2451 7.98241C45.7074 9.75901 43.7777 12.2733 42.7178 15.1841C41.6579 18.0948 41.5191 21.2612 42.3202 24.2536C43.1214 27.246 44.8237 29.9194 47.1962 31.9113L55.0855 47.3883C55.2568 47.7229 55.5172 48.0036 55.8378 48.1997C56.1585 48.3957 56.5271 48.4995 56.9029 48.4995C57.2788 48.4995 57.6473 48.3957 57.968 48.1997C58.2887 48.0036 58.549 47.7229 58.7204 47.3883L66.6104 31.9113C68.9829 29.9194 70.6852 27.246 71.4863 24.2536C72.2875 21.2612 72.1487 18.0948 71.0888 15.1841C70.0289 12.2733 68.0992 9.75901 65.5615 7.98241C63.0238 6.20581 60.001 5.25289 56.9033 5.25293ZM56.9033 26.739C55.639 26.739 54.4031 26.3641 53.3518 25.6616C52.3006 24.9592 51.4813 23.9609 50.9974 22.7928C50.5136 21.6247 50.387 20.3394 50.6337 19.0994C50.8803 17.8594 51.4891 16.7204 52.3831 15.8264C53.2771 14.9324 54.4162 14.3235 55.6562 14.0769C56.8962 13.8302 58.1815 13.9568 59.3496 14.4407C60.5176 14.9245 61.516 15.7438 62.2184 16.7951C62.9208 17.8463 63.2957 19.0822 63.2957 20.3465C63.2939 22.0413 62.6198 23.6662 61.4214 24.8646C60.2229 26.063 58.5981 26.7371 56.9033 26.739Z" fill="#A02167"/>
</svg>
