<svg width="72" height="68" viewBox="0 0 72 68" fill="none" xmlns="http://www.w3.org/2000/svg">
<g clip-path="url(#clip0)">
<path d="M22.7315 30.4927C25.9895 37.2053 32.9647 40.1271 36.4269 40.1271C38.7033 40.1271 42.4986 38.8629 45.7574 36.0896C44.5658 36.1672 43.2923 36.2065 41.9314 36.2065C41.6121 36.2065 41.2771 36.2038 40.9191 36.1986C40.233 36.6918 39.3832 36.9699 38.5013 36.9699H35.6017C33.4165 36.9699 31.6388 35.3103 31.6388 33.2702C31.6388 31.2301 33.4165 29.5705 35.6017 29.5705H38.5013C39.5489 29.5705 40.5286 29.9517 41.2552 30.6091C41.4967 30.6117 41.7346 30.6127 41.9681 30.6127C45.7114 30.6127 48.1782 30.2922 49.792 29.9056C49.5826 29.4301 49.4686 28.9098 49.4686 28.3666V18.9861C49.4686 18.0103 49.8565 17.0749 50.5273 16.3523C50.1693 13.7507 49.5196 11.7646 48.55 10.2995C46.5519 7.2804 42.6996 5.87433 36.4269 5.87433C31.2232 5.87433 27.6298 6.88282 25.4415 8.95736C23.7452 10.5656 22.7622 12.8603 22.3027 16.3259C22.9886 17.0512 23.3853 17.9962 23.3853 18.9861V28.3666C23.3855 29.1471 23.1452 29.8755 22.7315 30.4927Z" fill="#A02167"/>
<path d="M15.6018 30.5811H19.0802C20.3897 30.5811 21.4521 29.5896 21.4521 28.3666V18.9861C21.4521 18.1689 20.9768 17.4569 20.2716 17.0732C21.0483 9.3921 24.2232 4.06939 36.4269 4.06939C43.4349 4.06939 47.8097 5.7478 50.1944 9.35095C51.582 11.4477 52.2495 14.1559 52.5613 17.0848C51.8673 17.4712 51.4014 18.1768 51.4014 18.9859V28.3664C51.4014 29.4209 52.1917 30.3014 53.2489 30.5247C51.7155 31.461 48.541 32.4173 41.9679 32.4173C41.4355 32.4173 40.8805 32.411 40.3025 32.398C39.9642 31.7907 39.2853 31.375 38.5013 31.375H35.6018C34.481 31.375 33.5721 32.2235 33.5721 33.27C33.5721 34.3166 34.481 35.165 35.6018 35.165H38.5013C39.1786 35.165 39.7771 34.854 40.1456 34.3781C40.756 34.3926 41.3537 34.4016 41.9314 34.4016C49.3405 34.4014 54.0505 33.2207 55.9581 30.8782C56.0393 30.7786 56.1133 30.6793 56.1808 30.5811H57.2523C58.562 30.5811 59.6242 29.5896 59.6242 28.3666V18.9861C59.6242 17.7632 58.5622 16.7717 57.2523 16.7717H55.944C55.5759 13.2329 54.76 10.2205 53.0817 7.68518C50.0606 3.1201 44.6124 0.901001 36.4267 0.901001C28.2404 0.901001 22.7927 3.1201 19.7715 7.68536C18.0934 10.2207 17.2778 13.2328 16.9095 16.7718H15.6016C14.2915 16.7718 13.2295 17.7632 13.2295 18.9863V28.3667C13.2295 29.5896 14.2917 30.5811 15.6018 30.5811Z" fill="#A02167"/>
<path d="M65.1038 58.1651C64.3151 53.587 62.6915 47.6898 59.4352 45.5945C57.2148 44.165 49.4631 40.2984 46.1531 38.6474L46.0835 38.6127C45.7046 38.4238 45.2424 38.4617 44.9047 38.7091C43.1682 39.9816 41.2672 40.8389 39.2546 41.257C38.8989 41.3309 38.6068 41.5671 38.4775 41.8851L36.4267 46.9313L34.3759 41.8851C34.2466 41.5669 33.9545 41.3309 33.5988 41.257C31.5862 40.8389 29.6848 39.9816 27.9481 38.7091C27.6106 38.4615 27.1482 38.4236 26.7695 38.6127C23.4964 40.2453 15.6444 44.1932 13.4275 45.5884C9.67746 47.947 8.03974 56.4789 7.74959 58.1652C7.72078 58.3325 7.73741 58.5036 7.79791 58.6632C7.93207 59.0169 11.3718 67.3228 36.4265 67.3228C61.4808 67.3228 64.9209 59.0169 65.0553 58.6633C65.116 58.5034 65.1326 58.3322 65.1038 58.1651ZM53.438 52.9079H43.5146V50.9568H53.438V52.9079Z" fill="#A02167"/>
</g>
<defs>
<clipPath id="clip0">
<rect width="71.1459" height="66.4217" fill="white" transform="translate(0.854004 0.901001)"/>
</clipPath>
</defs>
</svg>
