<svg width="25" height="22" viewBox="0 0 25 22" fill="none" xmlns="http://www.w3.org/2000/svg">
<path d="M24.4663 12.3587C24.4663 12.3586 24.4663 12.3585 24.4662 12.3584L19.9349 0.980677C19.8387 0.738931 19.5647 0.620914 19.323 0.717082C19.3228 0.717141 19.3226 0.7172 19.3224 0.717318L0.939561 8.03721C0.864593 8.0696 0.799577 8.1213 0.75111 8.18703C0.59823 8.26647 0.501649 8.42371 0.5 8.59596V20.8452C0.5 21.1054 0.710947 21.3164 0.971126 21.3164H20.7584C21.0186 21.3164 21.2296 21.1054 21.2296 20.8452V14.1553L24.2033 12.9708C24.445 12.8744 24.5627 12.6004 24.4663 12.3587ZM20.2873 20.3741H1.44225V9.06709H20.2873V20.3741ZM8.36074 8.12719L16.2493 4.98384C16.9533 5.72386 17.9288 6.14446 18.9502 6.14846L19.737 8.12719H8.36074ZM21.2296 13.1433V8.59596C21.2296 8.33578 21.0186 8.12484 20.7584 8.12484H20.7509L19.7526 5.6175C19.7415 5.5966 19.7286 5.57669 19.7139 5.55814C19.6634 5.33123 19.4533 5.17641 19.2216 5.19537C18.2712 5.282 17.3415 4.88166 16.7515 4.13157C16.6047 3.95036 16.3466 3.90531 16.147 4.02604C16.1247 4.02869 16.1025 4.03281 16.0806 4.03829L6.44985 7.87326C6.33331 7.91896 6.24009 8.00959 6.19121 8.12484H3.26645L19.2339 1.76699L23.417 12.2707L21.2296 13.1433Z" fill="#20AA46"/>
<path d="M2.72115 17.1935C3.63584 17.4638 4.3516 18.1787 4.62309 19.093C4.68263 19.2926 4.86619 19.4294 5.07443 19.4294C5.09887 19.4279 5.12313 19.4243 5.14698 19.4186C5.16812 19.4246 5.18973 19.429 5.21152 19.4318H16.5186C16.538 19.4293 16.5572 19.4253 16.576 19.42C16.8114 19.4773 17.0486 19.3329 17.1059 19.0975C17.1061 19.0966 17.1063 19.0958 17.1065 19.0949C17.3773 18.1797 18.0932 17.4638 19.0085 17.193C19.2304 17.1252 19.3683 16.904 19.3316 16.6748C19.338 16.6519 19.3425 16.6286 19.3453 16.605V12.836C19.3425 12.8124 19.3378 12.7891 19.3312 12.7663C19.3681 12.537 19.2301 12.3157 19.008 12.2481C18.0927 11.9773 17.377 11.2612 17.107 10.3457C17.0388 10.1222 16.8154 9.9839 16.585 10.0225C16.5632 10.0164 16.541 10.012 16.5186 10.0093H5.21152C5.18779 10.0121 5.16429 10.0168 5.14133 10.0234C4.91218 9.9869 4.69111 10.1248 4.62309 10.3466C4.35213 11.2617 3.63631 11.9773 2.72115 12.2481C2.49919 12.3159 2.36127 12.5371 2.39796 12.7663C2.39183 12.7892 2.38742 12.8125 2.38477 12.836V16.605C2.38747 16.6272 2.39189 16.6491 2.39796 16.6705C2.35932 16.9012 2.49754 17.1249 2.72115 17.1935ZM3.32702 13.0273C4.27304 12.6473 5.02284 11.8975 5.4028 10.9515H16.3268C16.7069 11.8975 17.4569 12.6473 18.4031 13.0273V16.4138C17.4573 16.7941 16.7077 17.5438 16.3273 18.4895H5.4028C5.02243 17.5438 4.27275 16.7941 3.32702 16.4138V13.0273Z" fill="#20AA46"/>
<path d="M10.8648 17.5473C12.426 17.5473 13.6916 16.2817 13.6916 14.7205C13.6916 13.1594 12.426 11.8938 10.8648 11.8938C9.30365 11.8938 8.03809 13.1594 8.03809 14.7205C8.03962 16.2811 9.3043 17.5458 10.8648 17.5473ZM10.8648 12.836C11.9056 12.836 12.7493 13.6798 12.7493 14.7205C12.7493 15.7613 11.9056 16.6051 10.8648 16.6051C9.82407 16.6051 8.98034 15.7613 8.98034 14.7205C8.98034 13.6798 9.82407 12.836 10.8648 12.836Z" fill="#20AA46"/>
<path d="M5.68228 15.4273C6.07254 15.4273 6.38896 15.1109 6.38896 14.7206C6.38896 14.3303 6.07254 14.0139 5.68228 14.0139C5.29201 14.0139 4.97559 14.3303 4.97559 14.7206C4.97559 15.1109 5.29201 15.4273 5.68228 15.4273ZM5.68228 14.485C5.81236 14.485 5.91784 14.5905 5.91784 14.7206C5.91784 14.8507 5.81236 14.9562 5.68228 14.9562C5.55219 14.9562 5.44671 14.8507 5.44671 14.7206C5.44671 14.5905 5.55219 14.485 5.68228 14.485Z" fill="#20AA46"/>
<path d="M16.0475 15.4273C16.4378 15.4273 16.7542 15.1109 16.7542 14.7206C16.7542 14.3303 16.4378 14.0139 16.0475 14.0139C15.6572 14.0139 15.3408 14.3303 15.3408 14.7206C15.3408 15.1109 15.6572 15.4273 16.0475 15.4273ZM16.0475 14.485C16.1776 14.485 16.2831 14.5905 16.2831 14.7206C16.2831 14.8507 16.1776 14.9562 16.0475 14.9562C15.9174 14.9562 15.8119 14.8507 15.8119 14.7206C15.8119 14.5905 15.9174 14.485 16.0475 14.485Z" fill="#20AA46"/>
</svg>
