<svg width="30" height="30" viewBox="0 0 30 30" fill="none" xmlns="http://www.w3.org/2000/svg">
<g clip-path="url(#clip0)">
<path d="M10.6069 12.3637C10.6069 13.3326 11.3957 14.1214 12.3646 14.1214H16.7587C18.2148 14.1214 19.3952 12.941 19.3952 11.4849V10.606H14.1222C14.1222 9.63711 13.3335 8.84839 12.3646 8.84839C11.3957 8.84839 10.6069 9.63711 10.6069 10.606V12.3637Z" fill="#444444"/>
<path d="M1.76025 8.84839H8.84946V12.3637H1.76025V8.84839Z" fill="#444444"/>
<path d="M1.76025 14.1213H8.84946V17.6366H1.76025V14.1213Z" fill="#444444"/>
<path d="M12.3649 21.1519C11.0692 21.1519 9.94809 20.4399 9.33842 19.3943C8.75599 19.3943 -0.177756 19.3943 0.00269678 19.3943V21.1514H1.85808C0.715894 22.2682 0.00269678 23.8223 0.00269678 25.5461V26.4249H12.3649V21.1519Z" fill="#444444"/>
<path d="M10.6069 17.6367C10.6069 18.6056 11.3957 19.3943 12.3646 19.3943H14.1222V26.4249H17.6376V17.6367C17.6376 16.6677 16.8488 15.879 15.8799 15.879C15.6846 15.879 12.1744 15.879 12.3646 15.879C11.7215 15.879 11.126 15.6929 10.6069 15.3901V17.6367Z" fill="#444444"/>
<path d="M6.6043 28.1826H0.490234C1.09914 29.2289 2.22012 29.9989 3.51797 29.9989C4.81582 29.9989 5.99539 29.2289 6.6043 28.1826Z" fill="#444444"/>
<path d="M26.426 12.3637V8.84839H24.6683C23.6975 8.84839 22.9106 9.63529 22.9106 10.606C22.9106 11.5767 23.6975 12.3637 24.6683 12.3637H26.426Z" fill="#444444"/>
<path d="M26.3433 17.7169L26.3025 17.6582L25.7984 14.1214H24.6685C24.0253 14.1214 23.4299 13.9353 22.9108 13.6326V19.3944C22.9108 21.3331 21.3343 22.9097 19.3955 22.9097V26.425H21.1532C21.1532 23.5173 23.5184 21.152 26.4261 21.152C27.7815 21.152 29.065 21.6803 30 22.5235V22.0309C30 19.8766 28.389 18.0924 26.3433 17.7169Z" fill="#444444"/>
<path d="M26.8176 22.949L27.2962 26.3004L25.5557 26.5492L25.0747 23.1805C23.8044 23.7102 22.9106 24.9624 22.9106 26.4248C22.9106 28.3662 24.4845 29.9987 26.426 29.9987C28.3674 29.9987 29.9999 28.3662 29.9999 26.4248C29.9999 24.6175 28.5723 23.1461 26.8176 22.949Z" fill="#444444"/>
<path d="M10.6069 5.27434C10.6069 6.24497 11.3938 7.09058 12.3646 7.09058C13.3353 7.09058 14.1222 6.24497 14.1222 5.27434V4.39551H10.6069V5.27434Z" fill="#444444"/>
<path d="M15.8799 0.880292H13.8529C13.5467 0.364362 13.0081 0.00146484 12.3646 0.00146484C11.3938 0.00146484 10.6069 0.788367 10.6069 1.75912V2.63795H15.8799V0.880292Z" fill="#444444"/>
</g>
<defs>
<clipPath id="clip0">
<rect width="30" height="30" fill="white"/>
</clipPath>
</defs>
</svg>
