<svg width="21" height="20" viewBox="0 0 21 20" fill="none" xmlns="http://www.w3.org/2000/svg">
<path d="M0.501953 10.002C0.503117 14.9214 4.08036 19.11 8.93895 19.881V12.892H6.40195V10.002H8.94195V7.80198C8.82841 6.75952 9.18447 5.72058 9.91359 4.96692C10.6427 4.21325 11.6693 3.823 12.715 3.90198C13.4655 3.9141 14.2141 3.98095 14.955 4.10198V6.56098H13.691C13.2558 6.50399 12.8183 6.64771 12.5017 6.95165C12.1851 7.25559 12.0237 7.68687 12.063 8.12398V10.002H14.834L14.391 12.893H12.063V19.881C17.3174 19.0506 21.002 14.2518 20.4475 8.96106C19.8929 3.67035 15.2932 -0.260088 9.98078 0.0171617C4.66831 0.294411 0.502798 4.68229 0.501953 10.002Z" fill="#A02167"/>
</svg>
