<svg width="21" height="17" viewBox="0 0 21 17" fill="none" xmlns="http://www.w3.org/2000/svg">
<path d="M18.495 2.68799C19.3914 2.15208 20.0622 1.30823 20.382 0.313989C19.5397 0.813791 18.618 1.16587 17.657 1.35499C16.3246 -0.0544839 14.2135 -0.397485 12.5034 0.517645C10.7933 1.43277 9.90752 3.37948 10.341 5.26999C6.89062 5.09676 3.67598 3.4669 1.49702 0.785989C0.359855 2.74741 0.940968 5.25477 2.82502 6.51599C2.14373 6.49409 1.47754 6.30963 0.882016 5.97799C0.882016 5.99599 0.882016 6.01399 0.882016 6.03199C0.88241 8.07514 2.32239 9.83507 4.32502 10.24C3.69308 10.4119 3.03022 10.4372 2.38702 10.314C2.95022 12.0613 4.56057 13.2583 6.39602 13.294C4.87585 14.4871 2.99849 15.1342 1.06602 15.131C0.723486 15.1315 0.381226 15.1118 0.0410156 15.072C2.00341 16.333 4.28738 17.0023 6.62002 17C9.86526 17.0223 12.984 15.7429 15.2787 13.448C17.5734 11.1531 18.8526 8.03424 18.83 4.78899C18.83 4.60299 18.8257 4.41799 18.817 4.23399C19.6575 3.62659 20.3828 2.87414 20.959 2.01199C20.176 2.35905 19.3455 2.58691 18.495 2.68799Z" fill="#A02167"/>
</svg>
