<svg width="35" height="32" viewBox="0 0 35 32" fill="none" xmlns="http://www.w3.org/2000/svg">
<path d="M34.9509 17.9814C34.9508 17.9812 34.9508 17.9811 34.9507 17.9809L28.3426 1.38845C28.2023 1.0359 27.8027 0.863792 27.4502 1.00404C27.4499 1.00412 27.4496 1.00421 27.4494 1.00438L0.641026 11.6792C0.531698 11.7265 0.436884 11.8019 0.366203 11.8977C0.143252 12.0136 0.00240471 12.2429 0 12.4941V30.3576C0 30.737 0.307631 31.0447 0.687059 31.0447H29.5435C29.923 31.0447 30.2306 30.737 30.2306 30.3576V20.6014L34.5673 18.8741C34.9198 18.7335 35.0915 18.3338 34.9509 17.9814ZM28.8565 29.6706H1.37412V13.1811H28.8565V29.6706ZM11.4636 11.8104L22.9677 7.22639C23.9944 8.30559 25.4171 8.91896 26.9066 8.9248L28.054 11.8104H11.4636ZM30.2306 19.1256V12.4941C30.2306 12.1146 29.923 11.807 29.5435 11.807H29.5326L28.0767 8.15048C28.0605 8.12 28.0417 8.09097 28.0203 8.06391C27.9466 7.73301 27.6402 7.50722 27.3024 7.53488C25.9164 7.66121 24.5606 7.07738 23.7001 5.9835C23.486 5.71924 23.1097 5.65354 22.8186 5.8296C22.786 5.83346 22.7536 5.83947 22.7217 5.84746L8.67687 11.4401C8.50691 11.5068 8.37096 11.6389 8.29967 11.807H4.03441L27.3202 2.53515L33.4206 17.8531L30.2306 19.1256Z" fill="#444444"/>
<path d="M3.23861 25.0321C4.57253 25.4264 5.61635 26.4689 6.01227 27.8023C6.09909 28.0934 6.36679 28.2928 6.67047 28.2929C6.70611 28.2907 6.74149 28.2853 6.77627 28.2771C6.80711 28.2859 6.83863 28.2923 6.8704 28.2963H23.3598C23.3882 28.2926 23.4162 28.2869 23.4436 28.2792C23.7869 28.3626 24.1328 28.1521 24.2164 27.8089C24.2167 27.8076 24.217 27.8064 24.2173 27.8051C24.6122 26.4703 25.6561 25.4263 26.9909 25.0314C27.3146 24.9325 27.5158 24.6099 27.4623 24.2757C27.4714 24.2424 27.4781 24.2083 27.4822 24.174V18.6775C27.4781 18.6431 27.4713 18.6091 27.4616 18.5758C27.5154 18.2415 27.3142 17.9188 26.9902 17.8201C25.6555 17.4253 24.6117 16.3809 24.218 15.0457C24.1185 14.7198 23.7928 14.5182 23.4567 14.5744C23.4249 14.5656 23.3925 14.5591 23.3598 14.5552H6.8704C6.83579 14.5593 6.80152 14.5662 6.76803 14.5758C6.43386 14.5225 6.11146 14.7236 6.01227 15.0471C5.61712 16.3816 4.57322 17.4253 3.23861 17.8201C2.91492 17.919 2.71378 18.2416 2.76728 18.5758C2.75835 18.6092 2.75191 18.6432 2.74805 18.6775V24.174C2.752 24.2063 2.75844 24.2382 2.76728 24.2695C2.71095 24.6059 2.91251 24.9321 3.23861 25.0321ZM4.12217 18.9565C5.50178 18.4024 6.59523 17.3089 7.14935 15.9293H23.0802C23.6346 17.3089 24.7283 18.4024 26.1081 18.9565V23.895C24.7289 24.4498 23.6356 25.543 23.0809 26.9222H7.14935C6.59463 25.543 5.50135 24.4498 4.12217 23.895V18.9565Z" fill="#444444"/>
<path d="M15.1155 25.5482C17.3923 25.5482 19.2379 23.7025 19.2379 21.4258C19.2379 19.1491 17.3923 17.3035 15.1155 17.3035C12.8388 17.3035 10.9932 19.1491 10.9932 21.4258C10.9954 23.7016 12.8397 25.5459 15.1155 25.5482ZM15.1155 18.6776C16.6333 18.6776 17.8638 19.908 17.8638 21.4258C17.8638 22.9436 16.6333 24.174 15.1155 24.174C13.5977 24.174 12.3673 22.9436 12.3673 21.4258C12.3673 19.908 13.5977 18.6776 15.1155 18.6776Z" fill="#444444"/>
<path d="M7.55793 22.4564C8.12708 22.4564 8.58852 21.995 8.58852 21.4259C8.58852 20.8567 8.12708 20.3953 7.55793 20.3953C6.98879 20.3953 6.52734 20.8567 6.52734 21.4259C6.52734 21.9951 6.98879 22.4564 7.55793 22.4564ZM7.55793 21.0823C7.74765 21.0823 7.90146 21.2361 7.90146 21.4259C7.90146 21.6156 7.74765 21.7694 7.55793 21.7694C7.36822 21.7694 7.2144 21.6156 7.2144 21.4259C7.2144 21.2361 7.36822 21.0823 7.55793 21.0823Z" fill="#444444"/>
<path d="M22.6732 22.4564C23.2423 22.4564 23.7038 21.995 23.7038 21.4259C23.7038 20.8567 23.2423 20.3953 22.6732 20.3953C22.104 20.3953 21.6426 20.8567 21.6426 21.4259C21.6426 21.9951 22.104 22.4564 22.6732 22.4564ZM22.6732 21.0823C22.8629 21.0823 23.0167 21.2361 23.0167 21.4259C23.0167 21.6156 22.8629 21.7694 22.6732 21.7694C22.4835 21.7694 22.3296 21.6156 22.3296 21.4259C22.3296 21.2361 22.4835 21.0823 22.6732 21.0823Z" fill="#444444"/>
</svg>
