<svg width="24" height="24" viewBox="0 0 24 24" fill="none" xmlns="http://www.w3.org/2000/svg">
<path d="M18.328 22.4994C17.413 22.4994 16.1277 22.1685 14.203 21.0932C11.8626 19.7807 10.0523 18.569 7.72444 16.2472C5.48007 14.0043 4.38788 12.5521 2.85929 9.77053C1.13241 6.62991 1.42679 4.98366 1.75585 4.28007C2.14773 3.43913 2.72616 2.93616 3.47382 2.43694C3.89848 2.15871 4.34788 1.9202 4.81632 1.72444C4.86319 1.70429 4.90679 1.68507 4.94569 1.66772C5.17772 1.56319 5.52929 1.40522 5.9746 1.57397C6.27179 1.68554 6.5371 1.91382 6.95241 2.32397C7.80413 3.16397 8.96803 5.03475 9.39741 5.9535C9.68569 6.57272 9.87647 6.98147 9.87694 7.43991C9.87694 7.97663 9.60694 8.39053 9.27928 8.83725C9.21788 8.92116 9.15694 9.00131 9.09788 9.07913C8.74116 9.54788 8.66288 9.68335 8.71444 9.92522C8.81897 10.4113 9.5985 11.8583 10.8796 13.1366C12.1607 14.4149 13.566 15.1452 14.054 15.2493C14.3062 15.3032 14.4444 15.2216 14.9282 14.8522C14.9976 14.7993 15.0688 14.7444 15.1433 14.6896C15.643 14.3179 16.0377 14.0549 16.5618 14.0549H16.5646C17.0207 14.0549 17.4112 14.2527 18.058 14.579C18.9018 15.0046 20.8288 16.1535 21.674 17.0062C22.0851 17.4205 22.3143 17.6849 22.4263 17.9816C22.5951 18.4283 22.4362 18.7785 22.3326 19.0129C22.3152 19.0518 22.296 19.0944 22.2758 19.1418C22.0785 19.6094 21.8386 20.0578 21.5591 20.4815C21.0608 21.2268 20.556 21.8038 19.7132 22.1962C19.2804 22.4009 18.8068 22.5046 18.328 22.4994Z" fill="white"/>
</svg>
