<svg width="25" height="24" viewBox="0 0 25 24" fill="none" xmlns="http://www.w3.org/2000/svg">
<path d="M22.4905 8.7534L22.8634 8.38039C23.1811 8.06265 23.1811 7.5475 22.8634 7.22984C22.5456 6.91219 22.0306 6.91219 21.7128 7.22984L21.3306 7.61215L20.5965 4.67566C20.333 3.622 19.2758 2.79663 18.1899 2.79663H6.81006C5.72408 2.79663 4.66695 3.622 4.40343 4.67574L3.66937 7.61215L3.28715 7.22984C2.96933 6.91219 2.45434 6.91219 2.13661 7.22984C1.81887 7.54758 1.81887 8.06273 2.13661 8.38039L2.50954 8.7534C1.32069 9.33619 0.5 10.5587 0.5 11.9695V14.8271C0.5 15.9804 1.04877 17.0073 1.89822 17.6624V19.0882C1.89822 20.2546 2.84707 21.2034 4.01354 21.2034H5.60513C6.77151 21.2034 7.72036 20.2546 7.72036 19.0882V18.4068H17.2796V19.0882C17.2796 20.2546 18.2284 21.2034 19.3948 21.2034H20.9864C22.1528 21.2034 23.1017 20.2546 23.1017 19.0882V17.6626C23.9512 17.0075 24.5 15.9805 24.5 14.8271V11.9695C24.5 10.5587 23.6793 9.33619 22.4905 8.7534ZM5.21507 8.1378L5.98194 5.07041C6.06501 4.73796 6.46751 4.4237 6.81006 4.4237H18.1898C18.5323 4.4237 18.9348 4.73796 19.0179 5.07041L19.7848 8.13788C19.806 8.22297 19.8018 8.29538 19.7735 8.33174C19.7449 8.36811 19.6757 8.38984 19.5881 8.38984H5.41176C5.32416 8.38984 5.25491 8.36811 5.22638 8.33174C5.1981 8.29538 5.1939 8.22297 5.21507 8.1378ZM2.12715 11.9695C2.12715 10.893 3.00311 10.017 4.07964 10.017H20.9204C21.9969 10.017 22.8729 10.893 22.8729 11.9695V14.8271C22.8729 15.9037 21.9969 16.7797 20.9204 16.7797H4.07964C3.00311 16.7797 2.12715 15.9037 2.12715 14.8271V11.9695ZM6.09321 19.0882C6.09321 19.3527 5.86962 19.5763 5.60513 19.5763H4.01345C3.74889 19.5763 3.52529 19.3527 3.52529 19.0882V18.3637C3.70606 18.3919 3.89103 18.4068 4.07956 18.4068H6.09313V19.0882H6.09321ZM21.4745 19.0882C21.4745 19.3527 21.2509 19.5763 20.9864 19.5763H19.3948C19.1303 19.5763 18.9067 19.3527 18.9067 19.0882V18.4068H20.9204C21.1089 18.4068 21.2939 18.3919 21.4746 18.3637V19.0882H21.4745Z" fill="#A02167"/>
<path d="M9.70314 14.2119H15.2966C15.7459 14.2119 16.1101 13.8476 16.1101 13.3983C16.1101 12.949 15.7458 12.5848 15.2966 12.5848H9.70314C9.25385 12.5848 8.88965 12.9491 8.88965 13.3983C8.88957 13.8476 9.25385 14.2119 9.70314 14.2119Z" fill="#A02167"/>
<path d="M5.50867 15.6102C6.72831 15.6102 7.72055 14.618 7.72055 13.3983C7.72055 12.1787 6.72831 11.1865 5.50867 11.1865C4.28904 11.1865 3.29688 12.1787 3.29688 13.3983C3.29679 14.6179 4.28904 15.6102 5.50867 15.6102ZM5.50867 12.8135C5.8311 12.8135 6.0934 13.0759 6.0934 13.3982C6.0934 13.7207 5.8311 13.983 5.50867 13.983C5.18633 13.983 4.92395 13.7207 4.92395 13.3982C4.92386 13.0759 5.18625 12.8135 5.50867 12.8135Z" fill="#A02167"/>
<path d="M19.4912 15.6102C20.7108 15.6102 21.703 14.618 21.703 13.3983C21.703 12.1787 20.7108 11.1865 19.4912 11.1865C18.2715 11.1865 17.2793 12.1787 17.2793 13.3983C17.2792 14.6179 18.2715 15.6102 19.4912 15.6102ZM19.4912 12.8135C19.8135 12.8135 20.0759 13.0759 20.0759 13.3982C20.0759 13.7207 19.8135 13.983 19.4912 13.983C19.1688 13.983 18.9065 13.7207 18.9065 13.3982C18.9064 13.0759 19.1687 12.8135 19.4912 12.8135Z" fill="#A02167"/>
</svg>
