<svg width="20" height="21" viewBox="0 0 20 21" fill="none" xmlns="http://www.w3.org/2000/svg">
<path d="M17.4824 3.75146H13.125V1.87646C13.125 1.7107 13.0592 1.55173 12.9419 1.43452C12.8247 1.31731 12.6658 1.25146 12.5 1.25146H7.5C7.33424 1.25146 7.17527 1.31731 7.05806 1.43452C6.94085 1.55173 6.875 1.7107 6.875 1.87646V3.75146H2.51758L2.5 5.31396H3.78906L4.57383 17.5796C4.59369 17.8968 4.73363 18.1945 4.96518 18.4122C5.19673 18.6299 5.5025 18.7512 5.82031 18.7515H14.1797C14.4973 18.7514 14.803 18.6305 15.0347 18.4132C15.2663 18.1959 15.4066 17.8985 15.427 17.5815L16.2109 5.31396H17.5L17.4824 3.75146ZM6.875 16.2515L6.52344 6.25146H7.8125L8.16406 16.2515H6.875ZM10.625 16.2515H9.375V6.25146H10.625V16.2515ZM11.5625 3.75146H8.4375V2.65771C8.4375 2.61627 8.45396 2.57653 8.48326 2.54723C8.51257 2.51793 8.55231 2.50146 8.59375 2.50146H11.4062C11.4477 2.50146 11.4874 2.51793 11.5167 2.54723C11.546 2.57653 11.5625 2.61627 11.5625 2.65771V3.75146ZM13.125 16.2515H11.8359L12.1875 6.25146H13.4766L13.125 16.2515Z" fill="#444444"/>
</svg>
