<svg width="80" height="80" viewBox="0 0 80 80" fill="none" xmlns="http://www.w3.org/2000/svg">
<path d="M5 72.5C5 72.8315 5.1317 73.1495 5.36612 73.3839C5.60054 73.6183 5.91848 73.75 6.25 73.75H73.75C74.0815 73.75 74.3995 73.6183 74.6339 73.3839C74.8683 73.1495 75 72.8315 75 72.5V70H5V72.5Z" fill="#A02167"/>
<path d="M5.0625 21.25C5.36 24.7805 6.89762 28.0918 9.40293 30.5971C11.9082 33.1024 15.2195 34.64 18.75 34.9375V32.5H21.25V34.9375C24.7805 34.64 28.0918 33.1024 30.5971 30.5971C33.1024 28.0918 34.64 24.7805 34.9375 21.25H32.5V18.75H34.9375C34.64 15.2195 33.1024 11.9082 30.5971 9.40293C28.0918 6.89762 24.7805 5.36 21.25 5.0625V7.5H18.75V5.0625C15.2195 5.36 11.9082 6.89762 9.40293 9.40293C6.89762 11.9082 5.36 15.2195 5.0625 18.75H7.5V21.25H5.0625ZM18.75 10H21.25V16.9825L24.1163 14.1163L25.8838 15.8838L20.8838 20.8838C20.7089 21.0585 20.4862 21.1775 20.2438 21.2257C20.0014 21.2739 19.7501 21.2492 19.5217 21.1546C19.2933 21.06 19.0981 20.8998 18.9607 20.6943C18.8234 20.4888 18.7501 20.2472 18.75 20V10Z" fill="#A02167"/>
<path d="M71.25 25H36.7625C35.5075 29.2365 32.693 32.8395 28.8863 35.0827C25.0796 37.3259 20.564 38.0423 16.25 37.0875V53.75C16.2523 57.396 17.7017 60.892 20.2798 63.4702C22.858 66.0483 26.354 67.4977 30 67.5H50C53.646 67.4977 57.142 66.0483 59.7202 63.4702C62.2983 60.892 63.7477 57.396 63.75 53.75V50C63.75 49.6685 63.8817 49.3505 64.1161 49.1161C64.3505 48.8817 64.6685 48.75 65 48.75H71.25C72.2436 48.747 73.1958 48.351 73.8984 47.6484C74.601 46.9458 74.997 45.9936 75 45V28.75C74.997 27.7564 74.601 26.8042 73.8984 26.1016C73.1958 25.399 72.2436 25.003 71.25 25ZM72.5 42.5C72.5 43.163 72.2366 43.7989 71.7678 44.2678C71.2989 44.7366 70.663 45 70 45H65C64.6685 45 64.3505 44.8683 64.1161 44.6339C63.8817 44.3995 63.75 44.0815 63.75 43.75V30C63.75 29.6685 63.8817 29.3505 64.1161 29.1161C64.3505 28.8817 64.6685 28.75 65 28.75H70C70.663 28.75 71.2989 29.0134 71.7678 29.4822C72.2366 29.9511 72.5 30.587 72.5 31.25V42.5Z" fill="#A02167"/>
<path d="M48.3013 11.585C50.7963 9.5 53.625 7.1475 53.625 2.5H51.125C51.125 5.9775 49.075 7.68625 46.6988 9.665C44.2038 11.75 41.375 14.1025 41.375 18.75H43.875C43.875 15.2725 45.925 13.5637 48.3013 11.585Z" fill="#A02167"/>
<path d="M62.0513 11.585C64.5463 9.5 67.375 7.1475 67.375 2.5H64.875C64.875 5.9775 62.825 7.68625 60.4488 9.665C57.9538 11.75 55.125 14.1025 55.125 18.75H57.625C57.625 15.2725 59.675 13.5637 62.0513 11.585Z" fill="#A02167"/>
</svg>
