<svg width="24" height="24" viewBox="0 0 24 24" fill="none" xmlns="http://www.w3.org/2000/svg">
<path d="M5.18784 18.4266C5.24141 18.4266 5.29498 18.4212 5.34855 18.4132L9.85391 17.623C9.90748 17.6123 9.95837 17.5882 9.99587 17.548L21.3503 6.19352C21.3752 6.16874 21.3949 6.13931 21.4083 6.1069C21.4217 6.0745 21.4287 6.03976 21.4287 6.00468C21.4287 5.9696 21.4217 5.93486 21.4083 5.90246C21.3949 5.87006 21.3752 5.84062 21.3503 5.81584L16.8986 1.36138C16.8477 1.31048 16.7807 1.2837 16.7084 1.2837C16.636 1.2837 16.5691 1.31048 16.5182 1.36138L5.16373 12.7158C5.12355 12.756 5.09944 12.8042 5.08873 12.8578L4.29855 17.3632C4.27249 17.5067 4.2818 17.6543 4.32568 17.7934C4.36955 17.9325 4.44666 18.0588 4.55033 18.1614C4.72712 18.3328 4.94944 18.4266 5.18784 18.4266ZM6.99319 13.7551L16.7084 4.04263L18.6718 6.00602L8.95658 15.7185L6.57534 16.1391L6.99319 13.7551ZM21.8566 20.6766H2.1423C1.66819 20.6766 1.28516 21.0596 1.28516 21.5337V22.498C1.28516 22.6158 1.38158 22.7123 1.49944 22.7123H22.4994C22.6173 22.7123 22.7137 22.6158 22.7137 22.498V21.5337C22.7137 21.0596 22.3307 20.6766 21.8566 20.6766Z" fill="#444444"/>
</svg>
