<svg width="24" height="24" viewBox="0 0 24 24" fill="none" xmlns="http://www.w3.org/2000/svg">
<path d="M18.8434 7.87524C18.706 9.78165 17.2918 11.2502 15.7496 11.2502C14.2074 11.2502 12.7909 9.78212 12.6559 7.87524C12.5153 5.89196 13.892 4.50024 15.7496 4.50024C17.6073 4.50024 18.984 5.92806 18.8434 7.87524Z" stroke="#1890FF" stroke-width="1.5" stroke-linecap="round" stroke-linejoin="round"/>
<path d="M15.7498 14.25C12.695 14.25 9.75731 15.7673 9.02138 18.7223C8.92388 19.1133 9.16903 19.5 9.57075 19.5H21.9293C22.3311 19.5 22.5748 19.1133 22.4787 18.7223C21.7428 15.72 18.8051 14.25 15.7498 14.25Z" stroke="#1890FF" stroke-width="1.5" stroke-miterlimit="10"/>
<path d="M9.37447 8.7163C9.26478 10.2388 8.12197 11.4379 6.89009 11.4379C5.65822 11.4379 4.51353 10.2393 4.40572 8.7163C4.29369 7.1324 5.40603 6.00037 6.89009 6.00037C8.37416 6.00037 9.4865 7.16146 9.37447 8.7163Z" stroke="#1890FF" stroke-width="1.5" stroke-linecap="round" stroke-linejoin="round"/>
<path d="M9.65573 14.3442C8.80963 13.9566 7.87776 13.8075 6.8901 13.8075C4.45261 13.8075 2.10417 15.0192 1.51589 17.3794C1.43854 17.6916 1.63448 18.0005 1.95511 18.0005H7.21823" stroke="#1890FF" stroke-width="1.5" stroke-miterlimit="10" stroke-linecap="round"/>
</svg>
