<svg width="18" height="18" viewBox="0 0 18 18" fill="none" xmlns="http://www.w3.org/2000/svg">
<g clip-path="url(#clip0)">
<path d="M2.25 17.25C2.11425 17.25 1.9785 17.2012 1.8705 17.103C1.79475 17.0332 0 15.3742 0 13.641C0 12.3225 1.0095 11.25 2.25 11.25C3.4905 11.25 4.5 12.3225 4.5 13.641C4.5 15.375 2.70525 17.0332 2.6295 17.103C2.5215 17.2012 2.38575 17.25 2.25 17.25Z" fill="#A02167"/>
<path d="M11.7405 18H2.25C1.9395 18 1.6875 17.748 1.6875 17.4375C1.6875 17.127 1.9395 16.875 2.25 16.875H11.7405C11.847 16.875 11.8942 16.8098 11.9152 16.755C11.9362 16.7003 11.9452 16.62 11.8665 16.5495L6.87825 12.0353C6.4725 11.6693 6.3375 11.1023 6.534 10.5915C6.73125 10.08 7.212 9.75 7.7595 9.75H14.25C14.5605 9.75 14.8125 10.002 14.8125 10.3125C14.8125 10.623 14.5605 10.875 14.25 10.875H7.7595C7.653 10.875 7.60575 10.9403 7.58475 10.995C7.56375 11.0498 7.55475 11.13 7.6335 11.2005L12.6217 15.7148C13.0275 16.0808 13.1625 16.6478 12.966 17.1585C12.7688 17.67 12.288 18 11.7405 18Z" fill="#A02167"/>
<path d="M14.25 0C12.1822 0 10.5 1.70325 10.5 3.7965C10.5 6.68625 13.746 9.49649 13.8847 9.61499C13.9897 9.70499 14.1195 9.74999 14.25 9.74999C14.3805 9.74999 14.5102 9.70499 14.6152 9.61499C14.754 9.49649 18 6.68625 18 3.7965C18 1.70325 16.3177 0 14.25 0ZM14.25 5.25C13.4227 5.25 12.75 4.57725 12.75 3.75C12.75 2.92275 13.4227 2.25 14.25 2.25C15.0772 2.25 15.75 2.92275 15.75 3.75C15.75 4.57725 15.0772 5.25 14.25 5.25Z" fill="#A02167"/>
</g>
<defs>
<clipPath id="clip0">
<rect width="18" height="18" fill="white"/>
</clipPath>
</defs>
</svg>
