<svg width="18" height="18" viewBox="0 0 18 18" fill="none" xmlns="http://www.w3.org/2000/svg">
<path d="M9 15.75C8.0527 14.942 7.17464 14.0561 6.375 13.1017C5.175 11.6685 3.75 9.53398 3.75 7.49998C3.74894 5.37564 5.02819 3.46002 6.9908 2.64702C8.95342 1.83403 11.2125 2.28391 12.714 3.78673C13.7013 4.76968 14.2544 6.10677 14.25 7.49998C14.25 9.53398 12.825 11.6685 11.625 13.1017C10.8254 14.0561 9.9473 14.942 9 15.75ZM9 5.24998C8.19615 5.24998 7.45337 5.67882 7.05144 6.37498C6.64952 7.07113 6.64952 7.92882 7.05144 8.62498C7.45337 9.32113 8.19615 9.74998 9 9.74998C10.2426 9.74998 11.25 8.74262 11.25 7.49998C11.25 6.25734 10.2426 5.24998 9 5.24998Z" fill="#A02167"/>
</svg>
