<svg width="16" height="15" viewBox="0 0 16 15" fill="none" xmlns="http://www.w3.org/2000/svg">
<path d="M14.0969 12.8622L11.0918 9.85714C11.8367 8.94898 12.2857 7.78571 12.2857 6.51786C12.2857 3.60969 9.92602 1.25 7.01786 1.25C4.10714 1.25 1.75 3.60969 1.75 6.51786C1.75 9.42602 4.10714 11.7857 7.01786 11.7857C8.28571 11.7857 9.44643 11.3393 10.3546 10.5944L13.3597 13.5969C13.5638 13.801 13.8929 13.801 14.0969 13.5969C14.301 13.3954 14.301 13.0638 14.0969 12.8622ZM7.01786 10.7372C4.68877 10.7372 2.79592 8.84439 2.79592 6.51786C2.79592 4.19133 4.68877 2.29592 7.01786 2.29592C9.34439 2.29592 11.2398 4.19133 11.2398 6.51786C11.2398 8.84439 9.34439 10.7372 7.01786 10.7372Z" fill="#A02167"/>
</svg>
