<svg width="70" height="70" viewBox="0 0 70 70" fill="none" xmlns="http://www.w3.org/2000/svg">
<g filter="url(#filter0_d)">
<rect x="9" y="9" width="50" height="50" rx="25" fill="white"/>
<path d="M39.168 30.3047C39.168 31.3906 38.8516 32.2969 38.2188 33.0234C37.5859 33.7422 36.6953 34.2266 35.5469 34.4766V34.5703C36.9219 34.7422 37.9531 35.1719 38.6406 35.8594C39.3281 36.5391 39.6719 37.4453 39.6719 38.5781C39.6719 40.2266 39.0898 41.5 37.9258 42.3984C36.7617 43.2891 35.1055 43.7344 32.957 43.7344C31.0586 43.7344 29.457 43.4258 28.1523 42.8086V40.3594C28.8789 40.7188 29.6484 40.9961 30.4609 41.1914C31.2734 41.3867 32.0547 41.4844 32.8047 41.4844C34.1328 41.4844 35.125 41.2383 35.7812 40.7461C36.4375 40.2539 36.7656 39.4922 36.7656 38.4609C36.7656 37.5469 36.4023 36.875 35.6758 36.4453C34.9492 36.0156 33.8086 35.8008 32.2539 35.8008H30.7656V33.5625H32.2773C35.0117 33.5625 36.3789 32.6172 36.3789 30.7266C36.3789 29.9922 36.1406 29.4258 35.6641 29.0273C35.1875 28.6289 34.4844 28.4297 33.5547 28.4297C32.9062 28.4297 32.2812 28.5234 31.6797 28.7109C31.0781 28.8906 30.3672 29.2461 29.5469 29.7773L28.1992 27.8555C29.7695 26.6992 31.5938 26.1211 33.6719 26.1211C35.3984 26.1211 36.7461 26.4922 37.7148 27.2344C38.6836 27.9766 39.168 29 39.168 30.3047Z" fill="#A02167"/>
</g>
<defs>
<filter id="filter0_d" x="0" y="0" width="70" height="70" filterUnits="userSpaceOnUse" color-interpolation-filters="sRGB">
<feFlood flood-opacity="0" result="BackgroundImageFix"/>
<feColorMatrix in="SourceAlpha" type="matrix" values="0 0 0 0 0 0 0 0 0 0 0 0 0 0 0 0 0 0 127 0"/>
<feOffset dx="1" dy="1"/>
<feGaussianBlur stdDeviation="5"/>
<feColorMatrix type="matrix" values="0 0 0 0 0 0 0 0 0 0 0 0 0 0 0 0 0 0 0.161 0"/>
<feBlend mode="normal" in2="BackgroundImageFix" result="effect1_dropShadow"/>
<feBlend mode="normal" in="SourceGraphic" in2="effect1_dropShadow" result="shape"/>
</filter>
</defs>
</svg>
