<svg width="18" height="16" viewBox="0 0 18 16" fill="none" xmlns="http://www.w3.org/2000/svg">
<path d="M4.855 14.6339C5.39465 15.1735 6.27065 15.1735 6.8103 14.6339L13.5042 7.93999C13.6964 7.74778 13.8442 7.51862 13.9403 7.27466C14.613 7.46317 15.2673 7.56297 15.8439 7.55927C17.2706 7.55188 17.7438 6.92722 17.899 6.5539C18.0542 6.18428 18.1651 5.40807 17.1634 4.38791C17.1524 4.37682 17.1413 4.36573 17.1302 4.35464C16.5092 3.73367 15.6073 3.16076 14.5835 2.73569C14.395 2.65807 14.2065 2.58784 14.0217 2.52131V2.51022C14.0106 1.68965 13.3489 1.02803 12.5284 1.01694L8.51796 0.961495C7.98571 0.954103 7.47563 1.16109 7.10231 1.53811L0.404737 8.23199C-0.134912 8.77164 -0.134912 9.64765 0.404737 10.1873L4.855 14.6339ZM10.0149 3.35666C10.4622 2.90941 11.1866 2.90941 11.6339 3.35666C11.9 3.62278 12.0072 3.98871 11.9555 4.33246C12.3953 4.64295 12.9202 4.93125 13.482 5.16411C13.6816 5.24543 13.8738 5.31936 14.0586 5.38219L14.0364 3.77063C14.0697 3.78542 14.0993 3.79651 14.1325 3.81129C15.0085 4.17722 15.7958 4.67252 16.3022 5.1789C16.3096 5.18629 16.317 5.19368 16.3244 5.20108C16.8049 5.69268 16.8567 6.00686 16.816 6.10296C16.6903 6.40235 15.3412 6.66848 13.2935 5.81465C12.6947 5.56331 12.1329 5.25282 11.6782 4.91647C11.6635 4.93495 11.645 4.95343 11.6302 4.97191C11.1829 5.41916 10.4585 5.41916 10.0112 4.97191C9.56769 4.52836 9.56769 3.8039 10.0149 3.35666Z" fill="#A02167"/>
</svg>
