<svg width="22" height="22" viewBox="0 0 22 22" fill="none" xmlns="http://www.w3.org/2000/svg">
<path d="M17.3284 21.4994C16.4134 21.4994 15.1281 21.1685 13.2034 20.0932C10.8629 18.7807 9.05262 17.569 6.72481 15.2472C4.48043 13.0043 3.38825 11.5521 1.85965 8.77053C0.13278 5.62991 0.427155 3.98366 0.756217 3.28007C1.14809 2.43913 1.72653 1.93616 2.47418 1.43694C2.89885 1.15871 3.34825 0.920201 3.81668 0.724443C3.86356 0.704287 3.90715 0.685068 3.94606 0.667724C4.17809 0.563193 4.52965 0.405224 4.97496 0.573974C5.27215 0.685537 5.53746 0.913818 5.95278 1.32397C6.8045 2.16397 7.9684 4.03475 8.39777 4.9535C8.68606 5.57272 8.87684 5.98147 8.87731 6.43991C8.87731 6.97663 8.60731 7.39053 8.27965 7.83725C8.21824 7.92116 8.15731 8.00131 8.09824 8.07913C7.74153 8.54788 7.66324 8.68335 7.71481 8.92522C7.81934 9.41131 8.59887 10.8583 9.87996 12.1366C11.1611 13.4149 12.5664 14.1452 13.0543 14.2493C13.3065 14.3032 13.4448 14.2216 13.9286 13.8522C13.9979 13.7993 14.0692 13.7444 14.1437 13.6896C14.6434 13.3179 15.0381 13.0549 15.5621 13.0549H15.565C16.0211 13.0549 16.4115 13.2527 17.0584 13.579C17.9021 14.0046 19.8292 15.1535 20.6743 16.0062C21.0854 16.4205 21.3146 16.6849 21.4267 16.9816C21.5954 17.4283 21.4365 17.7785 21.3329 18.0129C21.3156 18.0518 21.2964 18.0944 21.2762 18.1418C21.0789 18.6094 20.839 19.0578 20.5595 19.4815C20.0612 20.2268 19.5564 20.8038 18.7136 21.1962C18.2808 21.4009 17.8071 21.5046 17.3284 21.4994Z" fill="#444444"/>
</svg>
