<svg width="80" height="80" viewBox="0 0 80 80" fill="none" xmlns="http://www.w3.org/2000/svg">
<g clip-path="url(#clip0)">
<path d="M36.8778 67.2521C30.9407 62.8339 27.0874 55.7649 27.0874 47.8124C27.0874 34.458 37.9519 23.5936 51.3061 23.5936C53.3875 23.5936 55.4085 23.8577 57.3372 24.3539C57.3471 24.3311 57.3578 24.3091 57.3671 24.2858C57.7185 23.3902 57.4869 22.3708 56.783 21.7149L34.1539 0.628789C33.2536 -0.209805 31.8578 -0.209648 30.9577 0.62957L8.34628 21.7155C6.79518 23.1621 7.81987 25.7735 9.94471 25.7735H14.6032V72.8341C14.6032 74.1285 15.6525 75.1778 16.9469 75.1778H25.3771V68.94C25.3771 68.0779 26.0753 67.3788 26.9374 67.3775L36.8355 67.3641L36.8778 67.2521Z" fill="#A02167"/>
<path d="M30.0645 72.0609V77.6562C30.0645 78.954 31.1187 79.9999 32.4082 79.9999C34.6312 79.9968 67.8466 79.9513 70.0598 79.9484C71.352 79.9468 72.4004 78.8984 72.4004 77.6046V72.0031L30.0645 72.0609Z" fill="#A02167"/>
<path d="M31.7749 47.8124C31.7749 58.5819 40.5366 67.3436 51.3062 67.3436C62.0757 67.3436 70.8374 58.5819 70.8374 47.8124C70.8374 37.0428 62.0757 28.2811 51.3062 28.2811C40.5366 28.2811 31.7749 37.0428 31.7749 47.8124ZM44.6207 41.1213C45.5329 40.2091 47.0119 40.2091 47.9243 41.1213C48.8365 42.0335 48.8365 43.5125 47.9243 44.4249C47.0121 45.3371 45.533 45.3371 44.6207 44.4249C43.7083 43.5127 43.7083 42.0336 44.6207 41.1213ZM57.8788 54.3796C56.9666 55.2918 55.4876 55.2918 54.5752 54.3796C53.663 53.4674 53.663 51.9883 54.5752 51.076C55.4874 50.1636 56.9665 50.1638 57.8788 51.076C58.7912 51.9883 58.7912 53.4674 57.8788 54.3796ZM57.9893 41.2429C58.9046 42.158 58.9046 43.6421 57.9893 44.5574L48.0455 54.5011C47.1302 55.4163 45.6465 55.4164 44.731 54.5011C43.8157 53.586 43.8157 52.1019 44.731 51.1866L54.6748 41.2429C55.5901 40.3277 57.0741 40.3277 57.9893 41.2429Z" fill="#A02167"/>
</g>
<defs>
<clipPath id="clip0">
<rect width="80" height="80" fill="white"/>
</clipPath>
</defs>
</svg>
