<svg width="14" height="14" viewBox="0 0 14 14" fill="none" xmlns="http://www.w3.org/2000/svg">
<path d="M7 0.499268C3.41594 0.499268 0.5 3.4152 0.5 6.99927C0.5 10.5833 3.41594 13.4993 7 13.4993C10.5841 13.4993 13.5 10.5833 13.5 6.99927C13.5 3.4152 10.5841 0.499268 7 0.499268ZM7.0625 3.49927C7.50751 3.49927 7.94252 3.63123 8.31253 3.87846C8.68254 4.12569 8.97093 4.4771 9.14123 4.88823C9.31152 5.29936 9.35608 5.75176 9.26927 6.18822C9.18245 6.62468 8.96816 7.02559 8.65349 7.34026C8.33882 7.65492 7.93791 7.86922 7.50145 7.95603C7.065 8.04285 6.6126 7.99829 6.20146 7.828C5.79033 7.6577 5.43893 7.36931 5.19169 6.9993C4.94446 6.62929 4.8125 6.19427 4.8125 5.74927C4.8125 5.15253 5.04955 4.58023 5.47151 4.15828C5.89347 3.73632 6.46576 3.49927 7.0625 3.49927ZM7 12.4993C6.24139 12.4996 5.49097 12.3426 4.79613 12.0381C4.10129 11.7337 3.47714 11.2884 2.96312 10.7305C3.23937 9.29989 5.72062 8.99927 7 8.99927C8.27937 8.99927 10.7606 9.29989 11.0369 10.7302C10.5229 11.2882 9.89879 11.7336 9.20394 12.0381C8.5091 12.3426 7.75864 12.4996 7 12.4993Z" fill="#A02167"/>
</svg>
